%TF.GenerationSoftware,KiCad,Pcbnew,(6.0.0)*%
%TF.CreationDate,2023-05-12T18:23:08+02:00*%
%TF.ProjectId,keyboard,6b657962-6f61-4726-942e-6b696361645f,rev?*%
%TF.SameCoordinates,Original*%
%TF.FileFunction,Soldermask,Top*%
%TF.FilePolarity,Negative*%
%FSLAX46Y46*%
G04 Gerber Fmt 4.6, Leading zero omitted, Abs format (unit mm)*
G04 Created by KiCad (PCBNEW (6.0.0)) date 2023-05-12 18:23:08*
%MOMM*%
%LPD*%
G01*
G04 APERTURE LIST*
G04 Aperture macros list*
%AMRoundRect*
0 Rectangle with rounded corners*
0 $1 Rounding radius*
0 $2 $3 $4 $5 $6 $7 $8 $9 X,Y pos of 4 corners*
0 Add a 4 corners polygon primitive as box body*
4,1,4,$2,$3,$4,$5,$6,$7,$8,$9,$2,$3,0*
0 Add four circle primitives for the rounded corners*
1,1,$1+$1,$2,$3*
1,1,$1+$1,$4,$5*
1,1,$1+$1,$6,$7*
1,1,$1+$1,$8,$9*
0 Add four rect primitives between the rounded corners*
20,1,$1+$1,$2,$3,$4,$5,0*
20,1,$1+$1,$4,$5,$6,$7,0*
20,1,$1+$1,$6,$7,$8,$9,0*
20,1,$1+$1,$8,$9,$2,$3,0*%
G04 Aperture macros list end*
%ADD10C,4.000000*%
%ADD11C,1.750000*%
%ADD12C,0.800000*%
%ADD13C,6.400000*%
%ADD14R,1.700000X1.700000*%
%ADD15O,1.700000X1.700000*%
%ADD16RoundRect,0.250000X-0.600000X0.600000X-0.600000X-0.600000X0.600000X-0.600000X0.600000X0.600000X0*%
%ADD17C,1.700000*%
%ADD18RoundRect,0.250000X0.600000X0.600000X-0.600000X0.600000X-0.600000X-0.600000X0.600000X-0.600000X0*%
%ADD19RoundRect,0.250000X-0.600000X-0.600000X0.600000X-0.600000X0.600000X0.600000X-0.600000X0.600000X0*%
G04 APERTURE END LIST*
D10*
%TO.C,SW9*%
X189750000Y-64000000D03*
D11*
X184670000Y-64000000D03*
X194830000Y-64000000D03*
%TD*%
%TO.C,SW7*%
X171830000Y-64000000D03*
X161670000Y-64000000D03*
D10*
X166750000Y-64000000D03*
%TD*%
%TO.C,SW3*%
X120750000Y-64000000D03*
D11*
X115670000Y-64000000D03*
X125830000Y-64000000D03*
%TD*%
D10*
%TO.C,SW12*%
X97750000Y-64000000D03*
D11*
X102830000Y-64000000D03*
X92670000Y-64000000D03*
%TD*%
D10*
%TO.C,SW2*%
X109250000Y-96500000D03*
D11*
X114330000Y-96500000D03*
X104170000Y-96500000D03*
%TD*%
D10*
%TO.C,SW4*%
X86250000Y-96500000D03*
D11*
X91330000Y-96500000D03*
X81170000Y-96500000D03*
%TD*%
D12*
%TO.C,H6*%
X53802944Y-107302944D03*
X55500000Y-106600000D03*
X55500000Y-111400000D03*
X53802944Y-110697056D03*
X53100000Y-109000000D03*
X57197056Y-107302944D03*
D13*
X55500000Y-109000000D03*
D12*
X57900000Y-109000000D03*
X57197056Y-110697056D03*
%TD*%
%TO.C,H2*%
X113302944Y-47302944D03*
X115000000Y-51400000D03*
D13*
X115000000Y-49000000D03*
D12*
X113302944Y-50697056D03*
X115000000Y-46600000D03*
X116697056Y-50697056D03*
X117400000Y-49000000D03*
X116697056Y-47302944D03*
X112600000Y-49000000D03*
%TD*%
D14*
%TO.C,J1*%
X197265000Y-105330000D03*
D15*
X197265000Y-102790000D03*
X197265000Y-100250000D03*
X197265000Y-97710000D03*
X197265000Y-95170000D03*
%TD*%
D10*
%TO.C,SW5*%
X143750000Y-64000000D03*
D11*
X138670000Y-64000000D03*
X148830000Y-64000000D03*
%TD*%
%TO.C,SW11*%
X183330000Y-96500000D03*
X173170000Y-96500000D03*
D10*
X178250000Y-96500000D03*
%TD*%
D11*
%TO.C,SW13*%
X150170000Y-96500000D03*
D10*
X155250000Y-96500000D03*
D11*
X160330000Y-96500000D03*
%TD*%
D12*
%TO.C,H5*%
X111600000Y-109000000D03*
D13*
X114000000Y-109000000D03*
D12*
X115697056Y-107302944D03*
X112302944Y-107302944D03*
X112302944Y-110697056D03*
X116400000Y-109000000D03*
X114000000Y-106600000D03*
X115697056Y-110697056D03*
X114000000Y-111400000D03*
%TD*%
D13*
%TO.C,H4*%
X182000000Y-110000000D03*
D12*
X182000000Y-107600000D03*
X179600000Y-110000000D03*
X182000000Y-112400000D03*
X180302944Y-108302944D03*
X183697056Y-108302944D03*
X184400000Y-110000000D03*
X180302944Y-111697056D03*
X183697056Y-111697056D03*
%TD*%
%TO.C,H1*%
X53802944Y-51697056D03*
X57900000Y-50000000D03*
X55500000Y-47600000D03*
X55500000Y-52400000D03*
X53802944Y-48302944D03*
X57197056Y-51697056D03*
D13*
X55500000Y-50000000D03*
D12*
X57197056Y-48302944D03*
X53100000Y-50000000D03*
%TD*%
D11*
%TO.C,SW6*%
X68330000Y-96500000D03*
X58170000Y-96500000D03*
D10*
X63250000Y-96500000D03*
%TD*%
%TO.C,SW8*%
X51750000Y-64000000D03*
D11*
X46670000Y-64000000D03*
X56830000Y-64000000D03*
%TD*%
D12*
%TO.C,H3*%
X182000000Y-47600000D03*
X184400000Y-50000000D03*
X182000000Y-52400000D03*
X179600000Y-50000000D03*
X180302944Y-51697056D03*
X180302944Y-48302944D03*
D13*
X182000000Y-50000000D03*
D12*
X183697056Y-48302944D03*
X183697056Y-51697056D03*
%TD*%
D11*
%TO.C,SW10*%
X79830000Y-64000000D03*
X69670000Y-64000000D03*
D10*
X74750000Y-64000000D03*
%TD*%
D16*
%TO.C,J2*%
X142980000Y-108552500D03*
D17*
X142980000Y-111092500D03*
X145520000Y-108552500D03*
X145520000Y-111092500D03*
X148060000Y-108552500D03*
X148060000Y-111092500D03*
X150600000Y-108552500D03*
X150600000Y-111092500D03*
X153140000Y-108552500D03*
X153140000Y-111092500D03*
%TD*%
D18*
%TO.C,J3*%
X47850000Y-98110000D03*
D17*
X45310000Y-98110000D03*
X47850000Y-100650000D03*
X45310000Y-100650000D03*
X47850000Y-103190000D03*
X45310000Y-103190000D03*
X47850000Y-105730000D03*
X45310000Y-105730000D03*
X47850000Y-108270000D03*
X45310000Y-108270000D03*
%TD*%
D19*
%TO.C,J4*%
X195507500Y-86030000D03*
D17*
X198047500Y-86030000D03*
X195507500Y-83490000D03*
X198047500Y-83490000D03*
X195507500Y-80950000D03*
X198047500Y-80950000D03*
X195507500Y-78410000D03*
X198047500Y-78410000D03*
X195507500Y-75870000D03*
X198047500Y-75870000D03*
%TD*%
M02*
