%FSLAX45Y45*%
G04 Gerber Fmt 4.5, Leading zero omitted, Abs format (unit mm)*
G04 Created by KiCad (PCBNEW (6.0.0)) date 2023-05-12 18:23:06*
%MOMM*%
%LPD*%
G01*
G04 APERTURE LIST*
%TA.AperFunction,Profile*%
%ADD10C,0.200000*%
%TD*%
%ADD11C,0.200000*%
%ADD12C,0.175000*%
%ADD13C,0.400000*%
G04 APERTURE END LIST*
D10*
X4150000Y-4500000D02*
X20000000Y-4500000D01*
X20000000Y-4500000D02*
X20000000Y-11500000D01*
X20000000Y-11500000D02*
X4150000Y-11500000D01*
X4150000Y-11500000D02*
X4150000Y-4500000D01*
D11*
D12*
X4579500Y-6312500D02*
X4754500Y-6487500D01*
X4754500Y-6312500D02*
X4579500Y-6487500D01*
X5595500Y-6312500D02*
X5770500Y-6487500D01*
X5770500Y-6312500D02*
X5595500Y-6487500D01*
X5729500Y-9562500D02*
X5904500Y-9737500D01*
X5904500Y-9562500D02*
X5729500Y-9737500D01*
X6745500Y-9562500D02*
X6920500Y-9737500D01*
X6920500Y-9562500D02*
X6745500Y-9737500D01*
X6879500Y-6312500D02*
X7054500Y-6487500D01*
X7054500Y-6312500D02*
X6879500Y-6487500D01*
X7895500Y-6312500D02*
X8070500Y-6487500D01*
X8070500Y-6312500D02*
X7895500Y-6487500D01*
X8029500Y-9562500D02*
X8204500Y-9737500D01*
X8204500Y-9562500D02*
X8029500Y-9737500D01*
X9045500Y-9562500D02*
X9220500Y-9737500D01*
X9220500Y-9562500D02*
X9045500Y-9737500D01*
X9179500Y-6312500D02*
X9354500Y-6487500D01*
X9354500Y-6312500D02*
X9179500Y-6487500D01*
X10195500Y-6312500D02*
X10370500Y-6487500D01*
X10370500Y-6312500D02*
X10195500Y-6487500D01*
X10329500Y-9562500D02*
X10504500Y-9737500D01*
X10504500Y-9562500D02*
X10329500Y-9737500D01*
X11345500Y-9562500D02*
X11520500Y-9737500D01*
X11520500Y-9562500D02*
X11345500Y-9737500D01*
X11479500Y-6312500D02*
X11654500Y-6487500D01*
X11654500Y-6312500D02*
X11479500Y-6487500D01*
X12495500Y-6312500D02*
X12670500Y-6487500D01*
X12670500Y-6312500D02*
X12495500Y-6487500D01*
X13779500Y-6312500D02*
X13954500Y-6487500D01*
X13954500Y-6312500D02*
X13779500Y-6487500D01*
X14795500Y-6312500D02*
X14970500Y-6487500D01*
X14970500Y-6312500D02*
X14795500Y-6487500D01*
X14929500Y-9562500D02*
X15104500Y-9737500D01*
X15104500Y-9562500D02*
X14929500Y-9737500D01*
X15945500Y-9562500D02*
X16120500Y-9737500D01*
X16120500Y-9562500D02*
X15945500Y-9737500D01*
X16079500Y-6312500D02*
X16254500Y-6487500D01*
X16254500Y-6312500D02*
X16079500Y-6487500D01*
X17095500Y-6312500D02*
X17270500Y-6487500D01*
X17270500Y-6312500D02*
X17095500Y-6487500D01*
X17229500Y-9562500D02*
X17404500Y-9737500D01*
X17404500Y-9562500D02*
X17229500Y-9737500D01*
X18245500Y-9562500D02*
X18420500Y-9737500D01*
X18420500Y-9562500D02*
X18245500Y-9737500D01*
X18379500Y-6312500D02*
X18554500Y-6487500D01*
X18554500Y-6312500D02*
X18379500Y-6487500D01*
X19395500Y-6312500D02*
X19570500Y-6487500D01*
X19570500Y-6312500D02*
X19395500Y-6487500D01*
D13*
X5375000Y-6400000D02*
G75*
G03*
X5375000Y-6400000I-200000J0D01*
G01*
X6525000Y-9650000D02*
G75*
G03*
X6525000Y-9650000I-200000J0D01*
G01*
X7675000Y-6400000D02*
G75*
G03*
X7675000Y-6400000I-200000J0D01*
G01*
X8825000Y-9650000D02*
G75*
G03*
X8825000Y-9650000I-200000J0D01*
G01*
X9975000Y-6400000D02*
G75*
G03*
X9975000Y-6400000I-200000J0D01*
G01*
X11125000Y-9650000D02*
G75*
G03*
X11125000Y-9650000I-200000J0D01*
G01*
X12275000Y-6400000D02*
G75*
G03*
X12275000Y-6400000I-200000J0D01*
G01*
X14575000Y-6400000D02*
G75*
G03*
X14575000Y-6400000I-200000J0D01*
G01*
X15725000Y-9650000D02*
G75*
G03*
X15725000Y-9650000I-200000J0D01*
G01*
X16875000Y-6400000D02*
G75*
G03*
X16875000Y-6400000I-200000J0D01*
G01*
X18025000Y-9650000D02*
G75*
G03*
X18025000Y-9650000I-200000J0D01*
G01*
X19175000Y-6400000D02*
G75*
G03*
X19175000Y-6400000I-200000J0D01*
G01*
D11*
X4397619Y-11820476D02*
X4397619Y-11620476D01*
X4445238Y-11620476D01*
X4473810Y-11630000D01*
X4492857Y-11649048D01*
X4502381Y-11668095D01*
X4511905Y-11706190D01*
X4511905Y-11734762D01*
X4502381Y-11772857D01*
X4492857Y-11791905D01*
X4473810Y-11810952D01*
X4445238Y-11820476D01*
X4397619Y-11820476D01*
X4597619Y-11820476D02*
X4597619Y-11687143D01*
X4597619Y-11725238D02*
X4607143Y-11706190D01*
X4616667Y-11696667D01*
X4635714Y-11687143D01*
X4654762Y-11687143D01*
X4721429Y-11820476D02*
X4721429Y-11687143D01*
X4721429Y-11620476D02*
X4711905Y-11630000D01*
X4721429Y-11639524D01*
X4730952Y-11630000D01*
X4721429Y-11620476D01*
X4721429Y-11639524D01*
X4845238Y-11820476D02*
X4826190Y-11810952D01*
X4816667Y-11791905D01*
X4816667Y-11620476D01*
X4950000Y-11820476D02*
X4930952Y-11810952D01*
X4921429Y-11791905D01*
X4921429Y-11620476D01*
X5178571Y-11820476D02*
X5178571Y-11620476D01*
X5245238Y-11763333D01*
X5311905Y-11620476D01*
X5311905Y-11820476D01*
X5492857Y-11820476D02*
X5492857Y-11715714D01*
X5483333Y-11696667D01*
X5464286Y-11687143D01*
X5426190Y-11687143D01*
X5407143Y-11696667D01*
X5492857Y-11810952D02*
X5473810Y-11820476D01*
X5426190Y-11820476D01*
X5407143Y-11810952D01*
X5397619Y-11791905D01*
X5397619Y-11772857D01*
X5407143Y-11753809D01*
X5426190Y-11744286D01*
X5473810Y-11744286D01*
X5492857Y-11734762D01*
X5588095Y-11687143D02*
X5588095Y-11887143D01*
X5588095Y-11696667D02*
X5607143Y-11687143D01*
X5645238Y-11687143D01*
X5664286Y-11696667D01*
X5673809Y-11706190D01*
X5683333Y-11725238D01*
X5683333Y-11782381D01*
X5673809Y-11801428D01*
X5664286Y-11810952D01*
X5645238Y-11820476D01*
X5607143Y-11820476D01*
X5588095Y-11810952D01*
X5769048Y-11801428D02*
X5778571Y-11810952D01*
X5769048Y-11820476D01*
X5759524Y-11810952D01*
X5769048Y-11801428D01*
X5769048Y-11820476D01*
X5769048Y-11696667D02*
X5778571Y-11706190D01*
X5769048Y-11715714D01*
X5759524Y-11706190D01*
X5769048Y-11696667D01*
X5769048Y-11715714D01*
D12*
X3965000Y-12062500D02*
X4140000Y-12237500D01*
X4140000Y-12062500D02*
X3965000Y-12237500D01*
D11*
X4502381Y-12240476D02*
X4388095Y-12240476D01*
X4445238Y-12240476D02*
X4445238Y-12040476D01*
X4426190Y-12069048D01*
X4407143Y-12088095D01*
X4388095Y-12097619D01*
X4588095Y-12221428D02*
X4597619Y-12230952D01*
X4588095Y-12240476D01*
X4578571Y-12230952D01*
X4588095Y-12221428D01*
X4588095Y-12240476D01*
X4664286Y-12040476D02*
X4797619Y-12040476D01*
X4711905Y-12240476D01*
X4969048Y-12040476D02*
X4873810Y-12040476D01*
X4864286Y-12135714D01*
X4873810Y-12126190D01*
X4892857Y-12116667D01*
X4940476Y-12116667D01*
X4959524Y-12126190D01*
X4969048Y-12135714D01*
X4978571Y-12154762D01*
X4978571Y-12202381D01*
X4969048Y-12221428D01*
X4959524Y-12230952D01*
X4940476Y-12240476D01*
X4892857Y-12240476D01*
X4873810Y-12230952D01*
X4864286Y-12221428D01*
X5102381Y-12040476D02*
X5121429Y-12040476D01*
X5140476Y-12050000D01*
X5150000Y-12059524D01*
X5159524Y-12078571D01*
X5169048Y-12116667D01*
X5169048Y-12164286D01*
X5159524Y-12202381D01*
X5150000Y-12221428D01*
X5140476Y-12230952D01*
X5121429Y-12240476D01*
X5102381Y-12240476D01*
X5083333Y-12230952D01*
X5073810Y-12221428D01*
X5064286Y-12202381D01*
X5054762Y-12164286D01*
X5054762Y-12116667D01*
X5064286Y-12078571D01*
X5073810Y-12059524D01*
X5083333Y-12050000D01*
X5102381Y-12040476D01*
X5254762Y-12240476D02*
X5254762Y-12107143D01*
X5254762Y-12126190D02*
X5264286Y-12116667D01*
X5283333Y-12107143D01*
X5311905Y-12107143D01*
X5330952Y-12116667D01*
X5340476Y-12135714D01*
X5340476Y-12240476D01*
X5340476Y-12135714D02*
X5350000Y-12116667D01*
X5369048Y-12107143D01*
X5397619Y-12107143D01*
X5416667Y-12116667D01*
X5426190Y-12135714D01*
X5426190Y-12240476D01*
X5521429Y-12240476D02*
X5521429Y-12107143D01*
X5521429Y-12126190D02*
X5530952Y-12116667D01*
X5550000Y-12107143D01*
X5578571Y-12107143D01*
X5597619Y-12116667D01*
X5607143Y-12135714D01*
X5607143Y-12240476D01*
X5607143Y-12135714D02*
X5616667Y-12116667D01*
X5635714Y-12107143D01*
X5664286Y-12107143D01*
X5683333Y-12116667D01*
X5692857Y-12135714D01*
X5692857Y-12240476D01*
X6083333Y-12030952D02*
X5911905Y-12288095D01*
X6340476Y-12040476D02*
X6359524Y-12040476D01*
X6378571Y-12050000D01*
X6388095Y-12059524D01*
X6397619Y-12078571D01*
X6407143Y-12116667D01*
X6407143Y-12164286D01*
X6397619Y-12202381D01*
X6388095Y-12221428D01*
X6378571Y-12230952D01*
X6359524Y-12240476D01*
X6340476Y-12240476D01*
X6321428Y-12230952D01*
X6311905Y-12221428D01*
X6302381Y-12202381D01*
X6292857Y-12164286D01*
X6292857Y-12116667D01*
X6302381Y-12078571D01*
X6311905Y-12059524D01*
X6321428Y-12050000D01*
X6340476Y-12040476D01*
X6492857Y-12221428D02*
X6502381Y-12230952D01*
X6492857Y-12240476D01*
X6483333Y-12230952D01*
X6492857Y-12221428D01*
X6492857Y-12240476D01*
X6626190Y-12040476D02*
X6645238Y-12040476D01*
X6664286Y-12050000D01*
X6673809Y-12059524D01*
X6683333Y-12078571D01*
X6692857Y-12116667D01*
X6692857Y-12164286D01*
X6683333Y-12202381D01*
X6673809Y-12221428D01*
X6664286Y-12230952D01*
X6645238Y-12240476D01*
X6626190Y-12240476D01*
X6607143Y-12230952D01*
X6597619Y-12221428D01*
X6588095Y-12202381D01*
X6578571Y-12164286D01*
X6578571Y-12116667D01*
X6588095Y-12078571D01*
X6597619Y-12059524D01*
X6607143Y-12050000D01*
X6626190Y-12040476D01*
X6864286Y-12040476D02*
X6826190Y-12040476D01*
X6807143Y-12050000D01*
X6797619Y-12059524D01*
X6778571Y-12088095D01*
X6769048Y-12126190D01*
X6769048Y-12202381D01*
X6778571Y-12221428D01*
X6788095Y-12230952D01*
X6807143Y-12240476D01*
X6845238Y-12240476D01*
X6864286Y-12230952D01*
X6873809Y-12221428D01*
X6883333Y-12202381D01*
X6883333Y-12154762D01*
X6873809Y-12135714D01*
X6864286Y-12126190D01*
X6845238Y-12116667D01*
X6807143Y-12116667D01*
X6788095Y-12126190D01*
X6778571Y-12135714D01*
X6769048Y-12154762D01*
X6997619Y-12126190D02*
X6978571Y-12116667D01*
X6969048Y-12107143D01*
X6959524Y-12088095D01*
X6959524Y-12078571D01*
X6969048Y-12059524D01*
X6978571Y-12050000D01*
X6997619Y-12040476D01*
X7035714Y-12040476D01*
X7054762Y-12050000D01*
X7064286Y-12059524D01*
X7073809Y-12078571D01*
X7073809Y-12088095D01*
X7064286Y-12107143D01*
X7054762Y-12116667D01*
X7035714Y-12126190D01*
X6997619Y-12126190D01*
X6978571Y-12135714D01*
X6969048Y-12145238D01*
X6959524Y-12164286D01*
X6959524Y-12202381D01*
X6969048Y-12221428D01*
X6978571Y-12230952D01*
X6997619Y-12240476D01*
X7035714Y-12240476D01*
X7054762Y-12230952D01*
X7064286Y-12221428D01*
X7073809Y-12202381D01*
X7073809Y-12164286D01*
X7064286Y-12145238D01*
X7054762Y-12135714D01*
X7035714Y-12126190D01*
X7169048Y-12240476D02*
X7207143Y-12240476D01*
X7226190Y-12230952D01*
X7235714Y-12221428D01*
X7254762Y-12192857D01*
X7264286Y-12154762D01*
X7264286Y-12078571D01*
X7254762Y-12059524D01*
X7245238Y-12050000D01*
X7226190Y-12040476D01*
X7188095Y-12040476D01*
X7169048Y-12050000D01*
X7159524Y-12059524D01*
X7150000Y-12078571D01*
X7150000Y-12126190D01*
X7159524Y-12145238D01*
X7169048Y-12154762D01*
X7188095Y-12164286D01*
X7226190Y-12164286D01*
X7245238Y-12154762D01*
X7254762Y-12145238D01*
X7264286Y-12126190D01*
X7340476Y-12040476D02*
X7340476Y-12078571D01*
X7416667Y-12040476D02*
X7416667Y-12078571D01*
X7711905Y-12316667D02*
X7702381Y-12307143D01*
X7683333Y-12278571D01*
X7673809Y-12259524D01*
X7664286Y-12230952D01*
X7654762Y-12183333D01*
X7654762Y-12145238D01*
X7664286Y-12097619D01*
X7673809Y-12069048D01*
X7683333Y-12050000D01*
X7702381Y-12021428D01*
X7711905Y-12011905D01*
X7778571Y-12059524D02*
X7788095Y-12050000D01*
X7807143Y-12040476D01*
X7854762Y-12040476D01*
X7873809Y-12050000D01*
X7883333Y-12059524D01*
X7892857Y-12078571D01*
X7892857Y-12097619D01*
X7883333Y-12126190D01*
X7769048Y-12240476D01*
X7892857Y-12240476D01*
X8064286Y-12107143D02*
X8064286Y-12240476D01*
X8016667Y-12030952D02*
X7969048Y-12173809D01*
X8092857Y-12173809D01*
X8321428Y-12240476D02*
X8321428Y-12040476D01*
X8407143Y-12240476D02*
X8407143Y-12135714D01*
X8397619Y-12116667D01*
X8378571Y-12107143D01*
X8350000Y-12107143D01*
X8330952Y-12116667D01*
X8321428Y-12126190D01*
X8530952Y-12240476D02*
X8511905Y-12230952D01*
X8502381Y-12221428D01*
X8492857Y-12202381D01*
X8492857Y-12145238D01*
X8502381Y-12126190D01*
X8511905Y-12116667D01*
X8530952Y-12107143D01*
X8559524Y-12107143D01*
X8578571Y-12116667D01*
X8588095Y-12126190D01*
X8597619Y-12145238D01*
X8597619Y-12202381D01*
X8588095Y-12221428D01*
X8578571Y-12230952D01*
X8559524Y-12240476D01*
X8530952Y-12240476D01*
X8711905Y-12240476D02*
X8692857Y-12230952D01*
X8683333Y-12211905D01*
X8683333Y-12040476D01*
X8864286Y-12230952D02*
X8845238Y-12240476D01*
X8807143Y-12240476D01*
X8788095Y-12230952D01*
X8778571Y-12211905D01*
X8778571Y-12135714D01*
X8788095Y-12116667D01*
X8807143Y-12107143D01*
X8845238Y-12107143D01*
X8864286Y-12116667D01*
X8873810Y-12135714D01*
X8873810Y-12154762D01*
X8778571Y-12173809D01*
X8950000Y-12230952D02*
X8969048Y-12240476D01*
X9007143Y-12240476D01*
X9026190Y-12230952D01*
X9035714Y-12211905D01*
X9035714Y-12202381D01*
X9026190Y-12183333D01*
X9007143Y-12173809D01*
X8978571Y-12173809D01*
X8959524Y-12164286D01*
X8950000Y-12145238D01*
X8950000Y-12135714D01*
X8959524Y-12116667D01*
X8978571Y-12107143D01*
X9007143Y-12107143D01*
X9026190Y-12116667D01*
X9102381Y-12316667D02*
X9111905Y-12307143D01*
X9130952Y-12278571D01*
X9140476Y-12259524D01*
X9150000Y-12230952D01*
X9159524Y-12183333D01*
X9159524Y-12145238D01*
X9150000Y-12097619D01*
X9140476Y-12069048D01*
X9130952Y-12050000D01*
X9111905Y-12021428D01*
X9102381Y-12011905D01*
X9464286Y-12316667D02*
X9454762Y-12307143D01*
X9435714Y-12278571D01*
X9426190Y-12259524D01*
X9416667Y-12230952D01*
X9407143Y-12183333D01*
X9407143Y-12145238D01*
X9416667Y-12097619D01*
X9426190Y-12069048D01*
X9435714Y-12050000D01*
X9454762Y-12021428D01*
X9464286Y-12011905D01*
X9540476Y-12107143D02*
X9540476Y-12240476D01*
X9540476Y-12126190D02*
X9550000Y-12116667D01*
X9569048Y-12107143D01*
X9597619Y-12107143D01*
X9616667Y-12116667D01*
X9626190Y-12135714D01*
X9626190Y-12240476D01*
X9750000Y-12240476D02*
X9730952Y-12230952D01*
X9721429Y-12221428D01*
X9711905Y-12202381D01*
X9711905Y-12145238D01*
X9721429Y-12126190D01*
X9730952Y-12116667D01*
X9750000Y-12107143D01*
X9778571Y-12107143D01*
X9797619Y-12116667D01*
X9807143Y-12126190D01*
X9816667Y-12145238D01*
X9816667Y-12202381D01*
X9807143Y-12221428D01*
X9797619Y-12230952D01*
X9778571Y-12240476D01*
X9750000Y-12240476D01*
X9873810Y-12107143D02*
X9950000Y-12107143D01*
X9902381Y-12040476D02*
X9902381Y-12211905D01*
X9911905Y-12230952D01*
X9930952Y-12240476D01*
X9950000Y-12240476D01*
X10169048Y-12107143D02*
X10169048Y-12307143D01*
X10169048Y-12116667D02*
X10188095Y-12107143D01*
X10226190Y-12107143D01*
X10245238Y-12116667D01*
X10254762Y-12126190D01*
X10264286Y-12145238D01*
X10264286Y-12202381D01*
X10254762Y-12221428D01*
X10245238Y-12230952D01*
X10226190Y-12240476D01*
X10188095Y-12240476D01*
X10169048Y-12230952D01*
X10378571Y-12240476D02*
X10359524Y-12230952D01*
X10350000Y-12211905D01*
X10350000Y-12040476D01*
X10540476Y-12240476D02*
X10540476Y-12135714D01*
X10530952Y-12116667D01*
X10511905Y-12107143D01*
X10473810Y-12107143D01*
X10454762Y-12116667D01*
X10540476Y-12230952D02*
X10521429Y-12240476D01*
X10473810Y-12240476D01*
X10454762Y-12230952D01*
X10445238Y-12211905D01*
X10445238Y-12192857D01*
X10454762Y-12173809D01*
X10473810Y-12164286D01*
X10521429Y-12164286D01*
X10540476Y-12154762D01*
X10607143Y-12107143D02*
X10683333Y-12107143D01*
X10635714Y-12040476D02*
X10635714Y-12211905D01*
X10645238Y-12230952D01*
X10664286Y-12240476D01*
X10683333Y-12240476D01*
X10826190Y-12230952D02*
X10807143Y-12240476D01*
X10769048Y-12240476D01*
X10750000Y-12230952D01*
X10740476Y-12211905D01*
X10740476Y-12135714D01*
X10750000Y-12116667D01*
X10769048Y-12107143D01*
X10807143Y-12107143D01*
X10826190Y-12116667D01*
X10835714Y-12135714D01*
X10835714Y-12154762D01*
X10740476Y-12173809D01*
X11007143Y-12240476D02*
X11007143Y-12040476D01*
X11007143Y-12230952D02*
X10988095Y-12240476D01*
X10950000Y-12240476D01*
X10930952Y-12230952D01*
X10921429Y-12221428D01*
X10911905Y-12202381D01*
X10911905Y-12145238D01*
X10921429Y-12126190D01*
X10930952Y-12116667D01*
X10950000Y-12107143D01*
X10988095Y-12107143D01*
X11007143Y-12116667D01*
X11083333Y-12316667D02*
X11092857Y-12307143D01*
X11111905Y-12278571D01*
X11121429Y-12259524D01*
X11130952Y-12230952D01*
X11140476Y-12183333D01*
X11140476Y-12145238D01*
X11130952Y-12097619D01*
X11121429Y-12069048D01*
X11111905Y-12050000D01*
X11092857Y-12021428D01*
X11083333Y-12011905D01*
X4140000Y-12445000D02*
G75*
G03*
X4140000Y-12445000I-100000J0D01*
G01*
X4483333Y-12402143D02*
X4483333Y-12535476D01*
X4435714Y-12325952D02*
X4388095Y-12468809D01*
X4511905Y-12468809D01*
X4588095Y-12516428D02*
X4597619Y-12525952D01*
X4588095Y-12535476D01*
X4578571Y-12525952D01*
X4588095Y-12516428D01*
X4588095Y-12535476D01*
X4721429Y-12335476D02*
X4740476Y-12335476D01*
X4759524Y-12345000D01*
X4769048Y-12354524D01*
X4778571Y-12373571D01*
X4788095Y-12411667D01*
X4788095Y-12459286D01*
X4778571Y-12497381D01*
X4769048Y-12516428D01*
X4759524Y-12525952D01*
X4740476Y-12535476D01*
X4721429Y-12535476D01*
X4702381Y-12525952D01*
X4692857Y-12516428D01*
X4683333Y-12497381D01*
X4673810Y-12459286D01*
X4673810Y-12411667D01*
X4683333Y-12373571D01*
X4692857Y-12354524D01*
X4702381Y-12345000D01*
X4721429Y-12335476D01*
X4911905Y-12335476D02*
X4930952Y-12335476D01*
X4950000Y-12345000D01*
X4959524Y-12354524D01*
X4969048Y-12373571D01*
X4978571Y-12411667D01*
X4978571Y-12459286D01*
X4969048Y-12497381D01*
X4959524Y-12516428D01*
X4950000Y-12525952D01*
X4930952Y-12535476D01*
X4911905Y-12535476D01*
X4892857Y-12525952D01*
X4883333Y-12516428D01*
X4873810Y-12497381D01*
X4864286Y-12459286D01*
X4864286Y-12411667D01*
X4873810Y-12373571D01*
X4883333Y-12354524D01*
X4892857Y-12345000D01*
X4911905Y-12335476D01*
X5102381Y-12335476D02*
X5121429Y-12335476D01*
X5140476Y-12345000D01*
X5150000Y-12354524D01*
X5159524Y-12373571D01*
X5169048Y-12411667D01*
X5169048Y-12459286D01*
X5159524Y-12497381D01*
X5150000Y-12516428D01*
X5140476Y-12525952D01*
X5121429Y-12535476D01*
X5102381Y-12535476D01*
X5083333Y-12525952D01*
X5073810Y-12516428D01*
X5064286Y-12497381D01*
X5054762Y-12459286D01*
X5054762Y-12411667D01*
X5064286Y-12373571D01*
X5073810Y-12354524D01*
X5083333Y-12345000D01*
X5102381Y-12335476D01*
X5254762Y-12535476D02*
X5254762Y-12402143D01*
X5254762Y-12421190D02*
X5264286Y-12411667D01*
X5283333Y-12402143D01*
X5311905Y-12402143D01*
X5330952Y-12411667D01*
X5340476Y-12430714D01*
X5340476Y-12535476D01*
X5340476Y-12430714D02*
X5350000Y-12411667D01*
X5369048Y-12402143D01*
X5397619Y-12402143D01*
X5416667Y-12411667D01*
X5426190Y-12430714D01*
X5426190Y-12535476D01*
X5521429Y-12535476D02*
X5521429Y-12402143D01*
X5521429Y-12421190D02*
X5530952Y-12411667D01*
X5550000Y-12402143D01*
X5578571Y-12402143D01*
X5597619Y-12411667D01*
X5607143Y-12430714D01*
X5607143Y-12535476D01*
X5607143Y-12430714D02*
X5616667Y-12411667D01*
X5635714Y-12402143D01*
X5664286Y-12402143D01*
X5683333Y-12411667D01*
X5692857Y-12430714D01*
X5692857Y-12535476D01*
X6083333Y-12325952D02*
X5911905Y-12583095D01*
X6340476Y-12335476D02*
X6359524Y-12335476D01*
X6378571Y-12345000D01*
X6388095Y-12354524D01*
X6397619Y-12373571D01*
X6407143Y-12411667D01*
X6407143Y-12459286D01*
X6397619Y-12497381D01*
X6388095Y-12516428D01*
X6378571Y-12525952D01*
X6359524Y-12535476D01*
X6340476Y-12535476D01*
X6321428Y-12525952D01*
X6311905Y-12516428D01*
X6302381Y-12497381D01*
X6292857Y-12459286D01*
X6292857Y-12411667D01*
X6302381Y-12373571D01*
X6311905Y-12354524D01*
X6321428Y-12345000D01*
X6340476Y-12335476D01*
X6492857Y-12516428D02*
X6502381Y-12525952D01*
X6492857Y-12535476D01*
X6483333Y-12525952D01*
X6492857Y-12516428D01*
X6492857Y-12535476D01*
X6692857Y-12535476D02*
X6578571Y-12535476D01*
X6635714Y-12535476D02*
X6635714Y-12335476D01*
X6616667Y-12364048D01*
X6597619Y-12383095D01*
X6578571Y-12392619D01*
X6873809Y-12335476D02*
X6778571Y-12335476D01*
X6769048Y-12430714D01*
X6778571Y-12421190D01*
X6797619Y-12411667D01*
X6845238Y-12411667D01*
X6864286Y-12421190D01*
X6873809Y-12430714D01*
X6883333Y-12449762D01*
X6883333Y-12497381D01*
X6873809Y-12516428D01*
X6864286Y-12525952D01*
X6845238Y-12535476D01*
X6797619Y-12535476D01*
X6778571Y-12525952D01*
X6769048Y-12516428D01*
X6950000Y-12335476D02*
X7083333Y-12335476D01*
X6997619Y-12535476D01*
X7254762Y-12335476D02*
X7159524Y-12335476D01*
X7150000Y-12430714D01*
X7159524Y-12421190D01*
X7178571Y-12411667D01*
X7226190Y-12411667D01*
X7245238Y-12421190D01*
X7254762Y-12430714D01*
X7264286Y-12449762D01*
X7264286Y-12497381D01*
X7254762Y-12516428D01*
X7245238Y-12525952D01*
X7226190Y-12535476D01*
X7178571Y-12535476D01*
X7159524Y-12525952D01*
X7150000Y-12516428D01*
X7340476Y-12335476D02*
X7340476Y-12373571D01*
X7416667Y-12335476D02*
X7416667Y-12373571D01*
X7711905Y-12611667D02*
X7702381Y-12602143D01*
X7683333Y-12573571D01*
X7673809Y-12554524D01*
X7664286Y-12525952D01*
X7654762Y-12478333D01*
X7654762Y-12440238D01*
X7664286Y-12392619D01*
X7673809Y-12364048D01*
X7683333Y-12345000D01*
X7702381Y-12316428D01*
X7711905Y-12306905D01*
X7892857Y-12535476D02*
X7778571Y-12535476D01*
X7835714Y-12535476D02*
X7835714Y-12335476D01*
X7816667Y-12364048D01*
X7797619Y-12383095D01*
X7778571Y-12392619D01*
X7969048Y-12354524D02*
X7978571Y-12345000D01*
X7997619Y-12335476D01*
X8045238Y-12335476D01*
X8064286Y-12345000D01*
X8073809Y-12354524D01*
X8083333Y-12373571D01*
X8083333Y-12392619D01*
X8073809Y-12421190D01*
X7959524Y-12535476D01*
X8083333Y-12535476D01*
X8321428Y-12535476D02*
X8321428Y-12335476D01*
X8407143Y-12535476D02*
X8407143Y-12430714D01*
X8397619Y-12411667D01*
X8378571Y-12402143D01*
X8350000Y-12402143D01*
X8330952Y-12411667D01*
X8321428Y-12421190D01*
X8530952Y-12535476D02*
X8511905Y-12525952D01*
X8502381Y-12516428D01*
X8492857Y-12497381D01*
X8492857Y-12440238D01*
X8502381Y-12421190D01*
X8511905Y-12411667D01*
X8530952Y-12402143D01*
X8559524Y-12402143D01*
X8578571Y-12411667D01*
X8588095Y-12421190D01*
X8597619Y-12440238D01*
X8597619Y-12497381D01*
X8588095Y-12516428D01*
X8578571Y-12525952D01*
X8559524Y-12535476D01*
X8530952Y-12535476D01*
X8711905Y-12535476D02*
X8692857Y-12525952D01*
X8683333Y-12506905D01*
X8683333Y-12335476D01*
X8864286Y-12525952D02*
X8845238Y-12535476D01*
X8807143Y-12535476D01*
X8788095Y-12525952D01*
X8778571Y-12506905D01*
X8778571Y-12430714D01*
X8788095Y-12411667D01*
X8807143Y-12402143D01*
X8845238Y-12402143D01*
X8864286Y-12411667D01*
X8873810Y-12430714D01*
X8873810Y-12449762D01*
X8778571Y-12468809D01*
X8950000Y-12525952D02*
X8969048Y-12535476D01*
X9007143Y-12535476D01*
X9026190Y-12525952D01*
X9035714Y-12506905D01*
X9035714Y-12497381D01*
X9026190Y-12478333D01*
X9007143Y-12468809D01*
X8978571Y-12468809D01*
X8959524Y-12459286D01*
X8950000Y-12440238D01*
X8950000Y-12430714D01*
X8959524Y-12411667D01*
X8978571Y-12402143D01*
X9007143Y-12402143D01*
X9026190Y-12411667D01*
X9102381Y-12611667D02*
X9111905Y-12602143D01*
X9130952Y-12573571D01*
X9140476Y-12554524D01*
X9150000Y-12525952D01*
X9159524Y-12478333D01*
X9159524Y-12440238D01*
X9150000Y-12392619D01*
X9140476Y-12364048D01*
X9130952Y-12345000D01*
X9111905Y-12316428D01*
X9102381Y-12306905D01*
X9464286Y-12611667D02*
X9454762Y-12602143D01*
X9435714Y-12573571D01*
X9426190Y-12554524D01*
X9416667Y-12525952D01*
X9407143Y-12478333D01*
X9407143Y-12440238D01*
X9416667Y-12392619D01*
X9426190Y-12364048D01*
X9435714Y-12345000D01*
X9454762Y-12316428D01*
X9464286Y-12306905D01*
X9540476Y-12402143D02*
X9540476Y-12535476D01*
X9540476Y-12421190D02*
X9550000Y-12411667D01*
X9569048Y-12402143D01*
X9597619Y-12402143D01*
X9616667Y-12411667D01*
X9626190Y-12430714D01*
X9626190Y-12535476D01*
X9750000Y-12535476D02*
X9730952Y-12525952D01*
X9721429Y-12516428D01*
X9711905Y-12497381D01*
X9711905Y-12440238D01*
X9721429Y-12421190D01*
X9730952Y-12411667D01*
X9750000Y-12402143D01*
X9778571Y-12402143D01*
X9797619Y-12411667D01*
X9807143Y-12421190D01*
X9816667Y-12440238D01*
X9816667Y-12497381D01*
X9807143Y-12516428D01*
X9797619Y-12525952D01*
X9778571Y-12535476D01*
X9750000Y-12535476D01*
X9873810Y-12402143D02*
X9950000Y-12402143D01*
X9902381Y-12335476D02*
X9902381Y-12506905D01*
X9911905Y-12525952D01*
X9930952Y-12535476D01*
X9950000Y-12535476D01*
X10169048Y-12402143D02*
X10169048Y-12602143D01*
X10169048Y-12411667D02*
X10188095Y-12402143D01*
X10226190Y-12402143D01*
X10245238Y-12411667D01*
X10254762Y-12421190D01*
X10264286Y-12440238D01*
X10264286Y-12497381D01*
X10254762Y-12516428D01*
X10245238Y-12525952D01*
X10226190Y-12535476D01*
X10188095Y-12535476D01*
X10169048Y-12525952D01*
X10378571Y-12535476D02*
X10359524Y-12525952D01*
X10350000Y-12506905D01*
X10350000Y-12335476D01*
X10540476Y-12535476D02*
X10540476Y-12430714D01*
X10530952Y-12411667D01*
X10511905Y-12402143D01*
X10473810Y-12402143D01*
X10454762Y-12411667D01*
X10540476Y-12525952D02*
X10521429Y-12535476D01*
X10473810Y-12535476D01*
X10454762Y-12525952D01*
X10445238Y-12506905D01*
X10445238Y-12487857D01*
X10454762Y-12468809D01*
X10473810Y-12459286D01*
X10521429Y-12459286D01*
X10540476Y-12449762D01*
X10607143Y-12402143D02*
X10683333Y-12402143D01*
X10635714Y-12335476D02*
X10635714Y-12506905D01*
X10645238Y-12525952D01*
X10664286Y-12535476D01*
X10683333Y-12535476D01*
X10826190Y-12525952D02*
X10807143Y-12535476D01*
X10769048Y-12535476D01*
X10750000Y-12525952D01*
X10740476Y-12506905D01*
X10740476Y-12430714D01*
X10750000Y-12411667D01*
X10769048Y-12402143D01*
X10807143Y-12402143D01*
X10826190Y-12411667D01*
X10835714Y-12430714D01*
X10835714Y-12449762D01*
X10740476Y-12468809D01*
X11007143Y-12535476D02*
X11007143Y-12335476D01*
X11007143Y-12525952D02*
X10988095Y-12535476D01*
X10950000Y-12535476D01*
X10930952Y-12525952D01*
X10921429Y-12516428D01*
X10911905Y-12497381D01*
X10911905Y-12440238D01*
X10921429Y-12421190D01*
X10930952Y-12411667D01*
X10950000Y-12402143D01*
X10988095Y-12402143D01*
X11007143Y-12411667D01*
X11083333Y-12611667D02*
X11092857Y-12602143D01*
X11111905Y-12573571D01*
X11121429Y-12554524D01*
X11130952Y-12525952D01*
X11140476Y-12478333D01*
X11140476Y-12440238D01*
X11130952Y-12392619D01*
X11121429Y-12364048D01*
X11111905Y-12345000D01*
X11092857Y-12316428D01*
X11083333Y-12306905D01*
M02*
