M48
; DRILL file {KiCad (6.0.0)} date Fri May 12 18:13:18 2023
; FORMAT={-:-/ absolute / metric / decimal}
; #@! TF.CreationDate,2023-05-12T18:13:18+02:00
; #@! TF.GenerationSoftware,Kicad,Pcbnew,(6.0.0)
; #@! TF.FileFunction,NonPlated,1,2,NPTH
FMAT,2
METRIC
; #@! TA.AperFunction,NonPlated,NPTH,ComponentDrill
T1C1.750
; #@! TA.AperFunction,NonPlated,NPTH,ComponentDrill
T2C4.000
%
G90
G05
T1
X46.67Y-64.0
X56.83Y-64.0
X58.17Y-96.5
X68.33Y-96.5
X69.67Y-64.0
X79.83Y-64.0
X81.17Y-96.5
X91.33Y-96.5
X92.67Y-64.0
X102.83Y-64.0
X104.17Y-96.5
X114.33Y-96.5
X115.67Y-64.0
X125.83Y-64.0
X138.67Y-64.0
X148.83Y-64.0
X150.17Y-96.5
X160.33Y-96.5
X161.67Y-64.0
X171.83Y-64.0
X173.17Y-96.5
X183.33Y-96.5
X184.67Y-64.0
X194.83Y-64.0
T2
X51.75Y-64.0
X63.25Y-96.5
X74.75Y-64.0
X86.25Y-96.5
X97.75Y-64.0
X109.25Y-96.5
X120.75Y-64.0
X143.75Y-64.0
X155.25Y-96.5
X166.75Y-64.0
X178.25Y-96.5
X189.75Y-64.0
T0
M30
