%TF.GenerationSoftware,KiCad,Pcbnew,(6.0.0)*%
%TF.CreationDate,2023-05-12T18:13:20+02:00*%
%TF.ProjectId,keyboard,6b657962-6f61-4726-942e-6b696361645f,rev?*%
%TF.SameCoordinates,Original*%
%TF.FileFunction,Soldermask,Bot*%
%TF.FilePolarity,Negative*%
%FSLAX46Y46*%
G04 Gerber Fmt 4.6, Leading zero omitted, Abs format (unit mm)*
G04 Created by KiCad (PCBNEW (6.0.0)) date 2023-05-12 18:13:20*
%MOMM*%
%LPD*%
G01*
G04 APERTURE LIST*
G04 Aperture macros list*
%AMRoundRect*
0 Rectangle with rounded corners*
0 $1 Rounding radius*
0 $2 $3 $4 $5 $6 $7 $8 $9 X,Y pos of 4 corners*
0 Add a 4 corners polygon primitive as box body*
4,1,4,$2,$3,$4,$5,$6,$7,$8,$9,$2,$3,0*
0 Add four circle primitives for the rounded corners*
1,1,$1+$1,$2,$3*
1,1,$1+$1,$4,$5*
1,1,$1+$1,$6,$7*
1,1,$1+$1,$8,$9*
0 Add four rect primitives between the rounded corners*
20,1,$1+$1,$2,$3,$4,$5,0*
20,1,$1+$1,$4,$5,$6,$7,0*
20,1,$1+$1,$6,$7,$8,$9,0*
20,1,$1+$1,$8,$9,$2,$3,0*%
%AMRotRect*
0 Rectangle, with rotation*
0 The origin of the aperture is its center*
0 $1 length*
0 $2 width*
0 $3 Rotation angle, in degrees counterclockwise*
0 Add horizontal line*
21,1,$1,$2,0,0,$3*%
G04 Aperture macros list end*
%ADD10RoundRect,0.250000X-0.600000X-0.600000X0.600000X-0.600000X0.600000X0.600000X-0.600000X0.600000X0*%
%ADD11C,1.700000*%
%ADD12RoundRect,0.250000X0.600000X0.600000X-0.600000X0.600000X-0.600000X-0.600000X0.600000X-0.600000X0*%
%ADD13C,6.400000*%
%ADD14C,0.800000*%
%ADD15C,4.000000*%
%ADD16C,1.750000*%
%ADD17C,2.500000*%
%ADD18R,1.700000X1.700000*%
%ADD19O,1.700000X1.700000*%
%ADD20RoundRect,0.250000X-0.350000X-0.450000X0.350000X-0.450000X0.350000X0.450000X-0.350000X0.450000X0*%
%ADD21RoundRect,0.250000X0.350000X0.450000X-0.350000X0.450000X-0.350000X-0.450000X0.350000X-0.450000X0*%
%ADD22RoundRect,0.250000X0.450000X-0.350000X0.450000X0.350000X-0.450000X0.350000X-0.450000X-0.350000X0*%
%ADD23RotRect,0.508000X1.473200X315.000000*%
%ADD24RotRect,0.508000X1.473200X45.000000*%
%ADD25RoundRect,0.250000X0.450000X-0.325000X0.450000X0.325000X-0.450000X0.325000X-0.450000X-0.325000X0*%
%ADD26R,1.500000X2.500000*%
%ADD27RoundRect,0.250000X-0.450000X0.350000X-0.450000X-0.350000X0.450000X-0.350000X0.450000X0.350000X0*%
%ADD28RoundRect,0.250000X0.574524X0.097227X0.097227X0.574524X-0.574524X-0.097227X-0.097227X-0.574524X0*%
%ADD29RoundRect,0.250000X0.337500X0.475000X-0.337500X0.475000X-0.337500X-0.475000X0.337500X-0.475000X0*%
%ADD30RoundRect,0.250000X-0.475000X0.337500X-0.475000X-0.337500X0.475000X-0.337500X0.475000X0.337500X0*%
%ADD31RoundRect,0.250000X-0.600000X0.600000X-0.600000X-0.600000X0.600000X-0.600000X0.600000X0.600000X0*%
%ADD32R,2.100000X1.100000*%
%ADD33RoundRect,0.250000X0.475000X-0.337500X0.475000X0.337500X-0.475000X0.337500X-0.475000X-0.337500X0*%
%ADD34RoundRect,0.250000X-0.450000X0.325000X-0.450000X-0.325000X0.450000X-0.325000X0.450000X0.325000X0*%
%ADD35RoundRect,0.150000X-0.512500X-0.150000X0.512500X-0.150000X0.512500X0.150000X-0.512500X0.150000X0*%
%ADD36R,1.200000X0.900000*%
G04 APERTURE END LIST*
D10*
%TO.C,J4*%
X195507500Y-86030000D03*
D11*
X195507500Y-83490000D03*
X195507500Y-80950000D03*
X195507500Y-78410000D03*
X195507500Y-75870000D03*
X198047500Y-86030000D03*
X198047500Y-83490000D03*
X198047500Y-80950000D03*
X198047500Y-78410000D03*
X198047500Y-75870000D03*
%TD*%
D12*
%TO.C,J3*%
X47850000Y-98110000D03*
D11*
X47850000Y-100650000D03*
X47850000Y-103190000D03*
X47850000Y-105730000D03*
X47850000Y-108270000D03*
X45310000Y-98110000D03*
X45310000Y-100650000D03*
X45310000Y-103190000D03*
X45310000Y-105730000D03*
X45310000Y-108270000D03*
%TD*%
D13*
%TO.C,H6*%
X55500000Y-109000000D03*
D14*
X57900000Y-109000000D03*
X57197056Y-110697056D03*
X55500000Y-111400000D03*
X53802944Y-110697056D03*
X53100000Y-109000000D03*
X53802944Y-107302944D03*
X55500000Y-106600000D03*
X57197056Y-107302944D03*
%TD*%
D13*
%TO.C,H5*%
X114000000Y-109000000D03*
D14*
X116400000Y-109000000D03*
X115697056Y-110697056D03*
X114000000Y-111400000D03*
X112302944Y-110697056D03*
X111600000Y-109000000D03*
X112302944Y-107302944D03*
X114000000Y-106600000D03*
X115697056Y-107302944D03*
%TD*%
D13*
%TO.C,H4*%
X182000000Y-110000000D03*
D14*
X184400000Y-110000000D03*
X183697056Y-111697056D03*
X182000000Y-112400000D03*
X180302944Y-111697056D03*
X179600000Y-110000000D03*
X180302944Y-108302944D03*
X182000000Y-107600000D03*
X183697056Y-108302944D03*
%TD*%
D13*
%TO.C,H3*%
X182000000Y-50000000D03*
D14*
X184400000Y-50000000D03*
X183697056Y-51697056D03*
X182000000Y-52400000D03*
X180302944Y-51697056D03*
X179600000Y-50000000D03*
X180302944Y-48302944D03*
X182000000Y-47600000D03*
X183697056Y-48302944D03*
%TD*%
D13*
%TO.C,H2*%
X115000000Y-49000000D03*
D14*
X117400000Y-49000000D03*
X116697056Y-50697056D03*
X115000000Y-51400000D03*
X113302944Y-50697056D03*
X112600000Y-49000000D03*
X113302944Y-47302944D03*
X115000000Y-46600000D03*
X116697056Y-47302944D03*
%TD*%
D13*
%TO.C,H1*%
X55500000Y-50000000D03*
D14*
X57900000Y-50000000D03*
X57197056Y-51697056D03*
X55500000Y-52400000D03*
X53802944Y-51697056D03*
X53100000Y-50000000D03*
X53802944Y-48302944D03*
X55500000Y-47600000D03*
X57197056Y-48302944D03*
%TD*%
D15*
%TO.C,SW9*%
X189750000Y-64000000D03*
D16*
X184670000Y-64000000D03*
X194830000Y-64000000D03*
D17*
X185940000Y-61460000D03*
X192290000Y-58920000D03*
%TD*%
D16*
%TO.C,SW7*%
X171830000Y-64000000D03*
X161670000Y-64000000D03*
D15*
X166750000Y-64000000D03*
D17*
X162940000Y-61460000D03*
X169290000Y-58920000D03*
%TD*%
D15*
%TO.C,SW3*%
X120750000Y-64000000D03*
D16*
X115670000Y-64000000D03*
X125830000Y-64000000D03*
D17*
X116940000Y-61460000D03*
X123290000Y-58920000D03*
%TD*%
D15*
%TO.C,SW12*%
X97750000Y-64000000D03*
D16*
X102830000Y-64000000D03*
X92670000Y-64000000D03*
D17*
X93940000Y-61460000D03*
X100290000Y-58920000D03*
%TD*%
D15*
%TO.C,SW2*%
X109250000Y-96500000D03*
D16*
X114330000Y-96500000D03*
X104170000Y-96500000D03*
D17*
X105440000Y-93960000D03*
X111790000Y-91420000D03*
%TD*%
D15*
%TO.C,SW4*%
X86250000Y-96500000D03*
D16*
X91330000Y-96500000D03*
X81170000Y-96500000D03*
D17*
X82440000Y-93960000D03*
X88790000Y-91420000D03*
%TD*%
D18*
%TO.C,J1*%
X197265000Y-105330000D03*
D19*
X197265000Y-102790000D03*
X197265000Y-100250000D03*
X197265000Y-97710000D03*
X197265000Y-95170000D03*
%TD*%
D15*
%TO.C,SW5*%
X143750000Y-64000000D03*
D16*
X138670000Y-64000000D03*
X148830000Y-64000000D03*
D17*
X139940000Y-61460000D03*
X146290000Y-58920000D03*
%TD*%
D16*
%TO.C,SW11*%
X183330000Y-96500000D03*
X173170000Y-96500000D03*
D15*
X178250000Y-96500000D03*
D17*
X174440000Y-93960000D03*
X180790000Y-91420000D03*
%TD*%
D16*
%TO.C,SW13*%
X150170000Y-96500000D03*
D15*
X155250000Y-96500000D03*
D16*
X160330000Y-96500000D03*
D17*
X151440000Y-93960000D03*
X157790000Y-91420000D03*
%TD*%
D16*
%TO.C,SW6*%
X68330000Y-96500000D03*
X58170000Y-96500000D03*
D15*
X63250000Y-96500000D03*
D17*
X59440000Y-93960000D03*
X65790000Y-91420000D03*
%TD*%
D15*
%TO.C,SW8*%
X51750000Y-64000000D03*
D16*
X46670000Y-64000000D03*
X56830000Y-64000000D03*
D17*
X47940000Y-61460000D03*
X54290000Y-58920000D03*
%TD*%
D16*
%TO.C,SW10*%
X79830000Y-64000000D03*
X69670000Y-64000000D03*
D15*
X74750000Y-64000000D03*
D17*
X70940000Y-61460000D03*
X77290000Y-58920000D03*
%TD*%
D20*
%TO.C,R1*%
X187720000Y-83190000D03*
X189720000Y-83190000D03*
%TD*%
D21*
%TO.C,R20*%
X175690000Y-58910000D03*
X173690000Y-58910000D03*
%TD*%
D22*
%TO.C,R14*%
X154980000Y-58940000D03*
X154980000Y-56940000D03*
%TD*%
%TO.C,R21*%
X65010000Y-58840000D03*
X65010000Y-56840000D03*
%TD*%
D23*
%TO.C,U1*%
X131060295Y-92099501D03*
X130494611Y-91533817D03*
X129928925Y-90968131D03*
X129363239Y-90402445D03*
X128797555Y-89836761D03*
X128231869Y-89271075D03*
X127666184Y-88705390D03*
X127100499Y-88139705D03*
D24*
X127100499Y-86280295D03*
X127666183Y-85714611D03*
X128231869Y-85148925D03*
X128797555Y-84583239D03*
X129363239Y-84017555D03*
X129928925Y-83451869D03*
X130494610Y-82886184D03*
X131060295Y-82320499D03*
D23*
X132919705Y-82320499D03*
X133485389Y-82886183D03*
X134051075Y-83451869D03*
X134616761Y-84017555D03*
X135182445Y-84583239D03*
X135748131Y-85148925D03*
X136313816Y-85714610D03*
X136879501Y-86280295D03*
D24*
X136879501Y-88139705D03*
X136313817Y-88705389D03*
X135748131Y-89271075D03*
X135182445Y-89836761D03*
X134616761Y-90402445D03*
X134051075Y-90968131D03*
X133485390Y-91533816D03*
X132919705Y-92099501D03*
%TD*%
D22*
%TO.C,R29*%
X110460000Y-58540000D03*
X110460000Y-56540000D03*
%TD*%
D21*
%TO.C,R31*%
X107640000Y-58920000D03*
X105640000Y-58920000D03*
%TD*%
D25*
%TO.C,D2*%
X192600000Y-109325000D03*
X192600000Y-107275000D03*
%TD*%
D21*
%TO.C,R12*%
X128990000Y-58930000D03*
X126990000Y-58930000D03*
%TD*%
%TO.C,R22*%
X194180000Y-54410000D03*
X192180000Y-54410000D03*
%TD*%
D22*
%TO.C,R10*%
X131690000Y-58970000D03*
X131690000Y-56970000D03*
%TD*%
D26*
%TO.C,L1*%
X173230000Y-82730000D03*
X176930000Y-82730000D03*
%TD*%
D22*
%TO.C,R25*%
X86600000Y-58690000D03*
X86600000Y-56690000D03*
%TD*%
D27*
%TO.C,R8*%
X155220000Y-78490000D03*
X155220000Y-80490000D03*
%TD*%
%TO.C,R7*%
X158430000Y-76470000D03*
X158430000Y-78470000D03*
%TD*%
D28*
%TO.C,C2*%
X128663072Y-94038716D03*
X127195826Y-92571470D03*
%TD*%
D22*
%TO.C,R6*%
X173210000Y-78910000D03*
X173210000Y-76910000D03*
%TD*%
D27*
%TO.C,R26*%
X168200000Y-87600000D03*
X168200000Y-89600000D03*
%TD*%
D22*
%TO.C,R18*%
X179320000Y-58960000D03*
X179320000Y-56960000D03*
%TD*%
D29*
%TO.C,C4*%
X167277500Y-83170000D03*
X165202500Y-83170000D03*
%TD*%
D21*
%TO.C,R30*%
X163470000Y-88120000D03*
X161470000Y-88120000D03*
%TD*%
D30*
%TO.C,C6*%
X149960000Y-80512500D03*
X149960000Y-82587500D03*
%TD*%
D31*
%TO.C,J2*%
X142980000Y-108552500D03*
D11*
X142980000Y-111092500D03*
X145520000Y-108552500D03*
X145520000Y-111092500D03*
X148060000Y-108552500D03*
X148060000Y-111092500D03*
X150600000Y-108552500D03*
X150600000Y-111092500D03*
X153140000Y-108552500D03*
X153140000Y-111092500D03*
%TD*%
D20*
%TO.C,R5*%
X120360000Y-98700000D03*
X122360000Y-98700000D03*
%TD*%
D27*
%TO.C,R13*%
X95870000Y-95230000D03*
X95870000Y-97230000D03*
%TD*%
D21*
%TO.C,R19*%
X73030000Y-91410000D03*
X71030000Y-91410000D03*
%TD*%
D27*
%TO.C,R3*%
X187210000Y-88870000D03*
X187210000Y-90870000D03*
%TD*%
D32*
%TO.C,SW1*%
X131550000Y-105750000D03*
X122450000Y-105750000D03*
X131550000Y-110250000D03*
X122450000Y-110250000D03*
%TD*%
D21*
%TO.C,R27*%
X84010000Y-58930000D03*
X82010000Y-58930000D03*
%TD*%
D33*
%TO.C,C8*%
X145940000Y-77677500D03*
X145940000Y-75602500D03*
%TD*%
D21*
%TO.C,R16*%
X95880000Y-91410000D03*
X93880000Y-91410000D03*
%TD*%
D26*
%TO.C,L2*%
X183900000Y-77430000D03*
X187600000Y-77430000D03*
%TD*%
D21*
%TO.C,R15*%
X152460000Y-58940000D03*
X150460000Y-58940000D03*
%TD*%
D34*
%TO.C,D1*%
X190320000Y-89015000D03*
X190320000Y-91065000D03*
%TD*%
D21*
%TO.C,R11*%
X117960000Y-91420000D03*
X115960000Y-91420000D03*
%TD*%
D29*
%TO.C,C1*%
X122367500Y-101700000D03*
X120292500Y-101700000D03*
%TD*%
D30*
%TO.C,C7*%
X145980000Y-80502500D03*
X145980000Y-82577500D03*
%TD*%
D21*
%TO.C,R24*%
X197600000Y-57110000D03*
X195600000Y-57110000D03*
%TD*%
D20*
%TO.C,R2*%
X187880000Y-80670000D03*
X189880000Y-80670000D03*
%TD*%
D35*
%TO.C,U2*%
X165022500Y-80230000D03*
X165022500Y-79280000D03*
X165022500Y-78330000D03*
X167297500Y-78330000D03*
X167297500Y-80230000D03*
%TD*%
D27*
%TO.C,R17*%
X73040000Y-95460000D03*
X73040000Y-97460000D03*
%TD*%
%TO.C,R4*%
X188970000Y-105270000D03*
X188970000Y-107270000D03*
%TD*%
D36*
%TO.C,D13*%
X149960000Y-77950000D03*
X149960000Y-74650000D03*
%TD*%
D20*
%TO.C,R28*%
X175430000Y-89600000D03*
X177430000Y-89600000D03*
%TD*%
D27*
%TO.C,R9*%
X120330000Y-92890000D03*
X120330000Y-94890000D03*
%TD*%
D21*
%TO.C,R23*%
X61740000Y-58840000D03*
X59740000Y-58840000D03*
%TD*%
D33*
%TO.C,C5*%
X183970000Y-84227500D03*
X183970000Y-82152500D03*
%TD*%
D20*
%TO.C,R32*%
X152810000Y-88070000D03*
X154810000Y-88070000D03*
%TD*%
M02*
