M48
; DRILL file {KiCad (6.0.0)} date Fri May 12 18:13:18 2023
; FORMAT={-:-/ absolute / metric / decimal}
; #@! TF.CreationDate,2023-05-12T18:13:18+02:00
; #@! TF.GenerationSoftware,Kicad,Pcbnew,(6.0.0)
; #@! TF.FileFunction,Plated,1,2,PTH
FMAT,2
METRIC
; #@! TA.AperFunction,Plated,PTH,ViaDrill
T1C0.400
; #@! TA.AperFunction,Plated,PTH,ComponentDrill
T2C0.500
; #@! TA.AperFunction,Plated,PTH,ComponentDrill
T3C1.000
; #@! TA.AperFunction,Plated,PTH,ComponentDrill
T4C1.500
; #@! TA.AperFunction,Plated,PTH,ComponentDrill
T5C3.200
%
G90
G05
T1
X43.0Y-47.0
X43.0Y-49.0
X43.0Y-51.0
X43.0Y-53.0
X43.0Y-55.0
X43.0Y-57.0
X43.0Y-59.0
X43.0Y-61.0
X43.0Y-63.0
X43.0Y-65.0
X43.0Y-67.0
X43.0Y-69.0
X43.0Y-71.0
X43.0Y-73.0
X43.0Y-75.0
X43.0Y-92.0
X43.0Y-94.0
X43.0Y-96.0
X43.0Y-98.0
X43.0Y-100.0
X43.0Y-102.0
X43.0Y-104.0
X43.0Y-106.0
X43.0Y-108.0
X43.0Y-110.0
X43.0Y-112.0
X43.0Y-114.0
X44.0Y-46.0
X44.09Y-78.02
X44.74Y-62.11
X44.76Y-81.57
X44.82Y-73.15
X44.95Y-86.07
X45.0Y-114.0
X45.17Y-68.21
X45.2Y-53.46
X45.32Y-57.15
X45.61Y-75.26
X45.84Y-111.47
X46.0Y-46.0
X46.02Y-95.36
X46.18Y-66.48
X47.0Y-114.0
X47.44Y-84.18
X47.55Y-48.13
X47.57Y-73.0
X47.68Y-86.76
X47.73Y-58.02
X47.89Y-92.43
X48.0Y-46.0
X48.03Y-78.99
X48.35Y-81.52
X48.66Y-50.46
X49.0Y-114.0
X49.06Y-75.65
X49.26Y-71.91
X49.67Y-78.94
X50.0Y-46.0
X50.09Y-111.43
X51.0Y-114.0
X51.06Y-47.97
X51.24Y-90.31
X51.26Y-81.5
X51.47Y-59.93
X52.0Y-46.0
X52.15Y-86.63
X52.19Y-105.33
X52.5Y-77.37
X52.67Y-84.08
X53.0Y-114.0
X53.5Y-75.43
X53.65Y-71.33
X53.78Y-86.71
X54.26Y-68.97
X54.52Y-102.1
X54.6Y-79.02
X54.71Y-54.98
X54.72Y-61.89
X55.0Y-114.0
X55.04Y-66.3
X56.71Y-81.27
X56.79Y-75.21
X57.0Y-114.0
X57.38Y-86.61
X57.77Y-66.63
X58.0Y-46.0
X58.0Y-71.61
X58.82Y-79.39
X58.92Y-81.85
X59.0Y-114.0
X59.19Y-75.36
X59.26Y-53.1
X59.39Y-84.18
X59.94Y-63.52
X60.0Y-46.0
X60.03Y-86.38
X60.12Y-98.35
X60.34Y-55.44
X60.83Y-48.41
X61.0Y-114.0
X61.08Y-108.28
X61.21Y-89.3
X61.43Y-91.29
X61.44Y-102.1
X61.49Y-92.51
X61.52Y-51.0
X62.0Y-46.0
X62.02Y-49.27
X62.79Y-111.55
X62.91Y-92.47
X63.0Y-114.0
X63.13Y-105.6
X64.0Y-46.0
X64.13Y-60.52
X64.23Y-74.81
X64.39Y-109.21
X64.51Y-67.51
X64.84Y-89.1
X65.0Y-114.0
X65.14Y-104.23
X65.33Y-87.0
X65.69Y-63.77
X65.74Y-67.63
X66.0Y-46.0
X66.01Y-80.98
X66.36Y-49.98
X66.58Y-51.04
X66.59Y-98.57
X66.66Y-95.0
X67.0Y-114.0
X67.03Y-106.16
X67.45Y-63.04
X67.52Y-110.29
X67.6Y-72.92
X67.83Y-101.21
X67.89Y-85.98
X67.9Y-60.61
X68.0Y-46.0
X68.12Y-69.77
X68.46Y-74.86
X68.59Y-79.14
X68.61Y-81.7
X68.66Y-89.1
X69.0Y-114.0
X69.12Y-93.88
X69.15Y-104.67
X69.31Y-57.44
X69.36Y-71.91
X69.41Y-66.44
X69.49Y-109.1
X69.75Y-87.92
X70.0Y-46.0
X71.0Y-114.0
X72.0Y-46.0
X72.0Y-73.9
X72.0Y-76.59
X72.09Y-111.03
X72.33Y-48.3
X72.88Y-51.32
X73.0Y-114.0
X73.23Y-83.47
X73.38Y-81.28
X73.97Y-72.56
X74.0Y-46.0
X74.08Y-60.63
X74.22Y-57.27
X74.42Y-78.54
X74.55Y-104.0
X74.78Y-87.87
X75.0Y-114.0
X75.37Y-109.29
X75.68Y-95.8
X76.0Y-46.0
X76.05Y-82.34
X76.22Y-93.44
X76.31Y-99.78
X76.32Y-111.35
X76.51Y-74.95
X76.68Y-49.59
X76.68Y-51.29
X77.0Y-114.0
X77.38Y-68.38
X77.45Y-80.87
X77.56Y-98.57
X77.57Y-61.79
X77.77Y-95.74
X78.0Y-46.0
X78.05Y-93.33
X79.0Y-114.0
X79.27Y-76.26
X79.46Y-70.76
X79.46Y-108.28
X79.84Y-78.51
X80.0Y-46.0
X80.12Y-61.19
X80.18Y-104.91
X80.28Y-98.68
X80.39Y-66.56
X80.56Y-111.13
X80.86Y-50.42
X81.0Y-114.0
X81.45Y-82.51
X81.48Y-48.64
X81.5Y-73.1
X81.92Y-55.11
X82.0Y-46.0
X82.15Y-79.7
X82.55Y-51.85
X82.64Y-98.52
X83.0Y-114.0
X83.12Y-68.6
X83.27Y-109.34
X83.36Y-104.56
X83.49Y-56.39
X84.0Y-46.0
X84.04Y-48.69
X84.22Y-72.02
X85.0Y-114.0
X85.13Y-93.12
X85.21Y-112.73
X85.22Y-82.71
X86.0Y-46.0
X86.14Y-107.0
X87.0Y-114.0
X87.33Y-110.27
X87.35Y-68.17
X87.95Y-48.97
X88.0Y-46.0
X88.68Y-69.38
X88.72Y-64.48
X88.75Y-61.48
X89.0Y-114.0
X89.12Y-51.15
X89.45Y-56.32
X89.52Y-98.52
X89.67Y-94.09
X89.78Y-108.63
X90.0Y-46.0
X90.31Y-87.91
X91.0Y-114.0
X91.08Y-67.71
X91.4Y-60.94
X91.43Y-93.39
X91.68Y-105.29
X92.0Y-46.0
X92.2Y-111.39
X92.37Y-74.44
X92.55Y-81.43
X92.87Y-48.1
X92.89Y-66.67
X93.0Y-114.0
X93.08Y-54.94
X93.45Y-77.34
X93.73Y-97.16
X93.75Y-95.0
X94.0Y-46.0
X94.8Y-104.39
X94.99Y-87.99
X95.0Y-114.0
X95.25Y-107.85
X95.62Y-111.54
X95.85Y-49.66
X96.0Y-46.0
X96.05Y-81.06
X96.23Y-72.17
X96.5Y-60.52
X97.0Y-87.99
X97.0Y-114.0
X97.4Y-93.66
X97.88Y-98.03
X98.0Y-46.0
X98.18Y-60.52
X98.3Y-105.51
X98.39Y-77.86
X98.47Y-74.63
X98.72Y-48.8
X98.94Y-110.43
X99.0Y-114.0
X99.27Y-95.47
X99.62Y-81.06
X100.0Y-46.0
X100.18Y-91.75
X100.43Y-107.45
X100.69Y-67.19
X101.0Y-114.0
X101.08Y-112.11
X101.16Y-62.38
X101.24Y-97.44
X101.3Y-55.91
X101.58Y-69.54
X101.8Y-49.32
X102.0Y-46.0
X102.08Y-77.05
X102.69Y-87.98
X103.0Y-114.0
X103.25Y-91.95
X103.47Y-60.77
X104.0Y-46.0
X104.02Y-81.7
X104.52Y-108.86
X104.6Y-79.65
X105.0Y-73.19
X105.0Y-114.0
X105.08Y-49.47
X105.24Y-55.76
X105.33Y-110.53
X105.46Y-67.82
X105.61Y-98.7
X105.65Y-104.53
X105.82Y-60.77
X105.9Y-65.06
X106.0Y-46.0
X106.54Y-71.01
X107.0Y-114.0
X107.41Y-76.59
X107.43Y-81.92
X107.52Y-108.47
X107.62Y-91.07
X107.76Y-48.03
X107.76Y-111.84
X108.0Y-46.0
X108.05Y-61.88
X108.43Y-104.95
X109.0Y-114.0
X110.0Y-46.0
X110.36Y-64.56
X110.39Y-73.75
X110.56Y-69.14
X110.71Y-49.04
X111.0Y-114.0
X111.16Y-78.37
X112.0Y-46.0
X112.07Y-105.05
X112.22Y-76.24
X112.25Y-80.62
X112.69Y-60.44
X112.72Y-67.71
X113.0Y-114.0
X113.04Y-93.87
X113.48Y-72.14
X114.06Y-102.01
X114.3Y-93.44
X114.45Y-61.61
X114.68Y-56.63
X114.95Y-74.23
X114.98Y-80.99
X115.0Y-114.0
X115.27Y-66.9
X115.99Y-77.35
X116.93Y-102.2
X117.0Y-114.0
X117.14Y-93.93
X117.56Y-55.88
X117.63Y-72.15
X117.68Y-112.16
X117.82Y-104.95
X117.91Y-81.18
X118.0Y-46.0
X118.27Y-97.26
X118.29Y-100.43
X118.43Y-57.63
X118.7Y-93.93
X119.0Y-114.0
X119.06Y-75.2
X119.58Y-79.42
X120.0Y-46.0
X120.19Y-60.62
X120.21Y-48.22
X120.24Y-104.75
X120.3Y-77.15
X120.41Y-90.56
X120.62Y-97.02
X121.0Y-114.0
X121.3Y-112.86
X121.57Y-108.25
X121.76Y-87.17
X121.8Y-94.27
X121.86Y-77.7
X122.0Y-46.0
X122.47Y-72.53
X122.51Y-93.03
X122.97Y-90.44
X122.99Y-87.22
X123.0Y-114.0
X123.46Y-66.46
X123.5Y-96.38
X123.65Y-69.85
X124.0Y-46.0
X124.07Y-75.09
X124.17Y-72.25
X124.68Y-100.67
X125.0Y-114.0
X125.05Y-103.7
X125.25Y-87.22
X125.5Y-48.85
X125.61Y-74.25
X126.0Y-46.0
X126.3Y-107.5
X126.37Y-112.11
X126.4Y-82.06
X126.48Y-105.33
X127.0Y-114.0
X127.14Y-99.68
X127.43Y-97.82
X128.0Y-46.0
X128.04Y-55.71
X128.49Y-96.04
X129.0Y-114.0
X129.37Y-86.32
X129.52Y-87.48
X129.58Y-71.54
X129.65Y-108.1
X129.76Y-64.12
X130.0Y-46.0
X130.18Y-48.74
X130.56Y-86.12
X131.0Y-114.0
X131.23Y-90.34
X131.33Y-84.63
X131.38Y-99.48
X131.4Y-112.34
X131.58Y-93.26
X132.0Y-46.0
X132.35Y-62.78
X132.54Y-90.34
X132.96Y-108.21
X133.0Y-114.0
X133.39Y-66.61
X133.44Y-87.76
X133.49Y-85.8
X133.51Y-79.58
X133.91Y-106.82
X134.0Y-46.0
X134.06Y-98.67
X134.66Y-67.84
X134.7Y-87.09
X135.0Y-114.0
X135.03Y-62.82
X135.1Y-60.88
X135.19Y-106.01
X135.21Y-51.05
X135.28Y-56.63
X135.88Y-102.99
X136.0Y-46.0
X136.36Y-99.39
X136.39Y-75.0
X136.96Y-66.65
X137.0Y-82.33
X137.0Y-114.0
X137.19Y-60.7
X137.22Y-48.75
X137.39Y-91.66
X138.0Y-46.0
X138.0Y-84.982
X138.38Y-72.67
X138.412Y-86.322
X138.66Y-78.41
X138.93Y-67.17
X138.93Y-102.49
X139.0Y-114.0
X139.483Y-85.393
X140.0Y-46.0
X140.03Y-98.54
X140.3Y-75.15
X140.34Y-49.56
X140.435Y-88.025
X140.59Y-94.66
X141.0Y-114.0
X141.15Y-79.51
X141.26Y-87.04
X141.29Y-100.24
X141.79Y-57.56
X142.0Y-46.0
X142.61Y-87.32
X142.86Y-74.52
X142.97Y-99.9
X143.0Y-114.0
X143.21Y-67.5
X143.25Y-60.63
X143.65Y-50.41
X143.87Y-102.8
X144.0Y-46.0
X144.03Y-88.94
X144.23Y-82.2
X144.4Y-74.25
X144.42Y-80.23
X144.85Y-92.03
X144.9Y-98.82
X144.92Y-72.78
X145.0Y-106.58
X145.0Y-114.0
X145.5Y-102.45
X146.0Y-46.0
X146.49Y-92.08
X147.0Y-114.0
X147.04Y-62.19
X147.66Y-66.27
X148.0Y-46.0
X148.07Y-75.05
X148.37Y-48.63
X149.0Y-114.0
X149.02Y-94.48
X149.33Y-102.95
X149.47Y-91.21
X149.69Y-88.83
X149.89Y-61.13
X150.0Y-46.0
X151.0Y-114.0
X151.53Y-79.89
X151.76Y-51.79
X152.0Y-46.0
X152.07Y-98.9
X152.47Y-54.3
X152.83Y-106.56
X153.0Y-114.0
X153.01Y-73.03
X153.43Y-48.96
X153.59Y-82.61
X154.0Y-46.0
X154.3Y-91.16
X154.63Y-100.31
X155.0Y-114.0
X155.67Y-92.91
X155.8Y-64.37
X156.0Y-46.0
X156.14Y-61.64
X156.48Y-72.69
X156.83Y-110.79
X156.99Y-81.64
X157.0Y-114.0
X157.14Y-65.93
X157.58Y-107.57
X157.76Y-50.81
X157.79Y-56.78
X158.0Y-46.0
X158.24Y-99.16
X158.43Y-62.14
X158.47Y-104.0
X158.58Y-88.21
X158.82Y-82.37
X158.98Y-94.02
X159.0Y-114.0
X159.71Y-64.37
X159.93Y-72.79
X160.0Y-46.0
X160.04Y-60.41
X160.48Y-80.78
X160.79Y-89.97
X160.82Y-48.08
X160.98Y-82.25
X160.99Y-51.2
X161.0Y-114.0
X161.05Y-66.66
X161.33Y-100.61
X161.41Y-109.3
X161.96Y-72.79
X162.0Y-46.0
X162.5Y-56.95
X162.8Y-76.32
X163.0Y-114.0
X163.09Y-80.34
X163.67Y-93.62
X164.0Y-46.0
X164.45Y-49.64
X164.6Y-97.67
X164.67Y-72.99
X165.0Y-114.0
X165.4Y-90.03
X165.5Y-110.12
X165.57Y-87.91
X165.73Y-67.49
X165.8Y-84.81
X166.0Y-46.0
X166.05Y-81.59
X166.05Y-100.27
X167.0Y-114.0
X167.18Y-106.66
X167.58Y-96.37
X167.63Y-48.41
X168.0Y-46.0
X168.75Y-67.1
X168.83Y-75.97
X169.0Y-114.0
X169.14Y-99.23
X169.28Y-72.69
X169.4Y-95.59
X169.61Y-104.0
X169.65Y-84.98
X169.87Y-89.57
X169.98Y-61.92
X170.0Y-46.0
X171.0Y-114.0
X171.37Y-48.97
X171.6Y-72.44
X171.68Y-92.89
X172.0Y-46.0
X172.07Y-90.35
X172.3Y-86.62
X172.54Y-60.52
X172.6Y-98.97
X172.64Y-57.29
X173.0Y-114.0
X173.22Y-73.06
X173.64Y-86.32
X174.0Y-46.0
X174.38Y-48.47
X174.53Y-100.53
X175.0Y-114.0
X175.36Y-82.82
X175.72Y-80.36
X176.0Y-46.0
X176.13Y-98.67
X176.34Y-76.52
X176.36Y-108.57
X176.98Y-56.91
X177.0Y-114.0
X177.81Y-91.41
X178.0Y-46.0
X178.74Y-67.1
X178.92Y-100.53
X179.0Y-114.0
X179.19Y-80.9
X179.38Y-82.86
X180.0Y-46.0
X180.06Y-76.54
X180.19Y-61.97
X180.52Y-64.93
X180.75Y-88.15
X181.0Y-114.0
X181.37Y-82.95
X181.71Y-97.71
X181.98Y-72.47
X182.0Y-46.0
X182.02Y-80.98
X182.05Y-99.94
X182.3Y-56.27
X182.53Y-60.02
X182.64Y-89.0
X183.0Y-114.0
X183.31Y-91.5
X183.53Y-66.04
X183.81Y-57.23
X184.0Y-46.0
X184.07Y-72.21
X184.15Y-87.81
X184.5Y-104.05
X184.52Y-93.29
X184.82Y-106.83
X184.84Y-98.86
X185.0Y-114.0
X185.27Y-91.17
X185.78Y-84.57
X185.81Y-72.47
X185.83Y-81.79
X186.0Y-46.0
X186.21Y-55.61
X186.26Y-80.48
X186.98Y-50.45
X187.0Y-114.0
X187.22Y-96.14
X187.26Y-71.91
X187.31Y-111.08
X187.42Y-93.19
X188.0Y-46.0
X188.0Y-47.85
X188.15Y-67.33
X188.18Y-100.27
X188.56Y-57.45
X188.72Y-51.03
X188.98Y-60.54
X189.0Y-114.0
X189.86Y-49.59
X189.93Y-98.96
X190.0Y-46.0
X190.01Y-92.69
X190.49Y-87.55
X190.61Y-85.01
X190.68Y-74.42
X191.0Y-114.0
X191.05Y-103.9
X191.38Y-97.55
X191.57Y-72.73
X191.62Y-48.24
X192.0Y-46.0
X192.41Y-50.81
X192.99Y-93.73
X193.0Y-114.0
X193.01Y-96.39
X193.18Y-76.21
X193.18Y-81.72
X193.39Y-104.87
X193.62Y-48.78
X193.74Y-83.19
X193.75Y-112.21
X193.84Y-74.4
X194.0Y-46.0
X194.87Y-99.26
X195.0Y-114.0
X195.47Y-100.82
X195.6Y-46.1
X195.84Y-110.6
X196.03Y-89.23
X196.76Y-71.12
X196.99Y-113.91
X197.6Y-46.1
X198.0Y-52.98
X198.49Y-92.8
X198.5Y-108.27
X198.59Y-110.26
X198.59Y-112.26
X198.75Y-73.29
X198.87Y-46.32
X198.87Y-48.32
X198.87Y-50.32
X198.87Y-52.32
X199.0Y-54.0
X199.0Y-56.0
X199.0Y-58.0
X199.0Y-60.0
X199.0Y-62.0
X199.0Y-64.0
X199.0Y-66.0
X199.0Y-68.0
X199.0Y-70.0
X199.0Y-72.0
X199.08Y-90.84
T2
X53.1Y-50.0
X53.1Y-109.0
X53.803Y-48.303
X53.803Y-51.697
X53.803Y-107.303
X53.803Y-110.697
X55.5Y-47.6
X55.5Y-52.4
X55.5Y-106.6
X55.5Y-111.4
X57.197Y-48.303
X57.197Y-51.697
X57.197Y-107.303
X57.197Y-110.697
X57.9Y-50.0
X57.9Y-109.0
X111.6Y-109.0
X112.303Y-107.303
X112.303Y-110.697
X112.6Y-49.0
X113.303Y-47.303
X113.303Y-50.697
X114.0Y-106.6
X114.0Y-111.4
X115.0Y-46.6
X115.0Y-51.4
X115.697Y-107.303
X115.697Y-110.697
X116.4Y-109.0
X116.697Y-47.303
X116.697Y-50.697
X117.4Y-49.0
X179.6Y-50.0
X179.6Y-110.0
X180.303Y-48.303
X180.303Y-51.697
X180.303Y-108.303
X180.303Y-111.697
X182.0Y-47.6
X182.0Y-52.4
X182.0Y-107.6
X182.0Y-112.4
X183.697Y-48.303
X183.697Y-51.697
X183.697Y-108.303
X183.697Y-111.697
X184.4Y-50.0
X184.4Y-110.0
T3
X45.31Y-98.11
X45.31Y-100.65
X45.31Y-103.19
X45.31Y-105.73
X45.31Y-108.27
X47.85Y-98.11
X47.85Y-100.65
X47.85Y-103.19
X47.85Y-105.73
X47.85Y-108.27
X142.98Y-108.552
X142.98Y-111.093
X145.52Y-108.552
X145.52Y-111.093
X148.06Y-108.552
X148.06Y-111.093
X150.6Y-108.552
X150.6Y-111.093
X153.14Y-108.552
X153.14Y-111.093
X195.507Y-75.87
X195.507Y-78.41
X195.507Y-80.95
X195.507Y-83.49
X195.507Y-86.03
X197.265Y-95.17
X197.265Y-97.71
X197.265Y-100.25
X197.265Y-102.79
X197.265Y-105.33
X198.047Y-75.87
X198.047Y-78.41
X198.047Y-80.95
X198.047Y-83.49
X198.047Y-86.03
T4
X47.94Y-61.46
X54.29Y-58.92
X59.44Y-93.96
X65.79Y-91.42
X70.94Y-61.46
X77.29Y-58.92
X82.44Y-93.96
X88.79Y-91.42
X93.94Y-61.46
X100.29Y-58.92
X105.44Y-93.96
X111.79Y-91.42
X116.94Y-61.46
X123.29Y-58.92
X139.94Y-61.46
X146.29Y-58.92
X151.44Y-93.96
X157.79Y-91.42
X162.94Y-61.46
X169.29Y-58.92
X174.44Y-93.96
X180.79Y-91.42
X185.94Y-61.46
X192.29Y-58.92
T5
X55.5Y-50.0
X55.5Y-109.0
X114.0Y-109.0
X115.0Y-49.0
X182.0Y-50.0
X182.0Y-110.0
T0
M30
