%TF.GenerationSoftware,KiCad,Pcbnew,(6.0.0)*%
%TF.CreationDate,2023-05-12T18:13:20+02:00*%
%TF.ProjectId,keyboard,6b657962-6f61-4726-942e-6b696361645f,rev?*%
%TF.SameCoordinates,Original*%
%TF.FileFunction,Legend,Top*%
%TF.FilePolarity,Positive*%
%FSLAX46Y46*%
G04 Gerber Fmt 4.6, Leading zero omitted, Abs format (unit mm)*
G04 Created by KiCad (PCBNEW (6.0.0)) date 2023-05-12 18:13:20*
%MOMM*%
%LPD*%
G01*
G04 APERTURE LIST*
%ADD10C,0.200000*%
%ADD11C,0.150000*%
%ADD12C,0.120000*%
G04 APERTURE END LIST*
D10*
X132500000Y-34000000D02*
X155000000Y-34000000D01*
X155000000Y-34000000D02*
X155000000Y-100000000D01*
X155000000Y-100000000D02*
X132500000Y-100000000D01*
X132500000Y-100000000D02*
X132500000Y-34000000D01*
X55750000Y-79000000D02*
X70750000Y-79000000D01*
X70750000Y-79000000D02*
X70750000Y-114000000D01*
X70750000Y-114000000D02*
X55750000Y-114000000D01*
X55750000Y-114000000D02*
X55750000Y-79000000D01*
X101750000Y-79000000D02*
X116750000Y-79000000D01*
X116750000Y-79000000D02*
X116750000Y-114000000D01*
X116750000Y-114000000D02*
X101750000Y-114000000D01*
X101750000Y-114000000D02*
X101750000Y-79000000D01*
X178500000Y-34000000D02*
X201000000Y-34000000D01*
X201000000Y-34000000D02*
X201000000Y-100000000D01*
X201000000Y-100000000D02*
X178500000Y-100000000D01*
X178500000Y-100000000D02*
X178500000Y-34000000D01*
X63500000Y-34000000D02*
X86000000Y-34000000D01*
X86000000Y-34000000D02*
X86000000Y-100000000D01*
X86000000Y-100000000D02*
X63500000Y-100000000D01*
X63500000Y-100000000D02*
X63500000Y-34000000D01*
X109500000Y-34000000D02*
X132000000Y-34000000D01*
X132000000Y-34000000D02*
X132000000Y-100000000D01*
X132000000Y-100000000D02*
X109500000Y-100000000D01*
X109500000Y-100000000D02*
X109500000Y-34000000D01*
X155500000Y-34000000D02*
X178000000Y-34000000D01*
X178000000Y-34000000D02*
X178000000Y-100000000D01*
X178000000Y-100000000D02*
X155500000Y-100000000D01*
X155500000Y-100000000D02*
X155500000Y-34000000D01*
X40500000Y-34000000D02*
X63000000Y-34000000D01*
X63000000Y-34000000D02*
X63000000Y-100000000D01*
X63000000Y-100000000D02*
X40500000Y-100000000D01*
X40500000Y-100000000D02*
X40500000Y-34000000D01*
X78750000Y-79000000D02*
X93750000Y-79000000D01*
X93750000Y-79000000D02*
X93750000Y-114000000D01*
X93750000Y-114000000D02*
X78750000Y-114000000D01*
X78750000Y-114000000D02*
X78750000Y-79000000D01*
X147750000Y-79070000D02*
X162750000Y-79070000D01*
X162750000Y-79070000D02*
X162750000Y-114070000D01*
X162750000Y-114070000D02*
X147750000Y-114070000D01*
X147750000Y-114070000D02*
X147750000Y-79070000D01*
X86500000Y-34000000D02*
X109000000Y-34000000D01*
X109000000Y-34000000D02*
X109000000Y-100000000D01*
X109000000Y-100000000D02*
X86500000Y-100000000D01*
X86500000Y-100000000D02*
X86500000Y-34000000D01*
X170750000Y-79000000D02*
X185750000Y-79000000D01*
X185750000Y-79000000D02*
X185750000Y-114000000D01*
X185750000Y-114000000D02*
X170750000Y-114000000D01*
X170750000Y-114000000D02*
X170750000Y-79000000D01*
D11*
%TO.C,H6*%
X54738095Y-105252380D02*
X54738095Y-104252380D01*
X54738095Y-104728571D02*
X55309523Y-104728571D01*
X55309523Y-105252380D02*
X55309523Y-104252380D01*
X56214285Y-104252380D02*
X56023809Y-104252380D01*
X55928571Y-104300000D01*
X55880952Y-104347619D01*
X55785714Y-104490476D01*
X55738095Y-104680952D01*
X55738095Y-105061904D01*
X55785714Y-105157142D01*
X55833333Y-105204761D01*
X55928571Y-105252380D01*
X56119047Y-105252380D01*
X56214285Y-105204761D01*
X56261904Y-105157142D01*
X56309523Y-105061904D01*
X56309523Y-104823809D01*
X56261904Y-104728571D01*
X56214285Y-104680952D01*
X56119047Y-104633333D01*
X55928571Y-104633333D01*
X55833333Y-104680952D01*
X55785714Y-104728571D01*
X55738095Y-104823809D01*
%TO.C,H5*%
X113238095Y-105252380D02*
X113238095Y-104252380D01*
X113238095Y-104728571D02*
X113809523Y-104728571D01*
X113809523Y-105252380D02*
X113809523Y-104252380D01*
X114761904Y-104252380D02*
X114285714Y-104252380D01*
X114238095Y-104728571D01*
X114285714Y-104680952D01*
X114380952Y-104633333D01*
X114619047Y-104633333D01*
X114714285Y-104680952D01*
X114761904Y-104728571D01*
X114809523Y-104823809D01*
X114809523Y-105061904D01*
X114761904Y-105157142D01*
X114714285Y-105204761D01*
X114619047Y-105252380D01*
X114380952Y-105252380D01*
X114285714Y-105204761D01*
X114238095Y-105157142D01*
%TO.C,H4*%
X181238095Y-106252380D02*
X181238095Y-105252380D01*
X181238095Y-105728571D02*
X181809523Y-105728571D01*
X181809523Y-106252380D02*
X181809523Y-105252380D01*
X182714285Y-105585714D02*
X182714285Y-106252380D01*
X182476190Y-105204761D02*
X182238095Y-105919047D01*
X182857142Y-105919047D01*
%TO.C,H3*%
X185938095Y-52912380D02*
X185938095Y-51912380D01*
X185938095Y-52388571D02*
X186509523Y-52388571D01*
X186509523Y-52912380D02*
X186509523Y-51912380D01*
X186890476Y-51912380D02*
X187509523Y-51912380D01*
X187176190Y-52293333D01*
X187319047Y-52293333D01*
X187414285Y-52340952D01*
X187461904Y-52388571D01*
X187509523Y-52483809D01*
X187509523Y-52721904D01*
X187461904Y-52817142D01*
X187414285Y-52864761D01*
X187319047Y-52912380D01*
X187033333Y-52912380D01*
X186938095Y-52864761D01*
X186890476Y-52817142D01*
%TO.C,H2*%
X118758095Y-51802380D02*
X118758095Y-50802380D01*
X118758095Y-51278571D02*
X119329523Y-51278571D01*
X119329523Y-51802380D02*
X119329523Y-50802380D01*
X119758095Y-50897619D02*
X119805714Y-50850000D01*
X119900952Y-50802380D01*
X120139047Y-50802380D01*
X120234285Y-50850000D01*
X120281904Y-50897619D01*
X120329523Y-50992857D01*
X120329523Y-51088095D01*
X120281904Y-51230952D01*
X119710476Y-51802380D01*
X120329523Y-51802380D01*
%TO.C,H1*%
X51048095Y-54012380D02*
X51048095Y-53012380D01*
X51048095Y-53488571D02*
X51619523Y-53488571D01*
X51619523Y-54012380D02*
X51619523Y-53012380D01*
X52619523Y-54012380D02*
X52048095Y-54012380D01*
X52333809Y-54012380D02*
X52333809Y-53012380D01*
X52238571Y-53155238D01*
X52143333Y-53250476D01*
X52048095Y-53298095D01*
%TO.C,SW9*%
X188416666Y-56404761D02*
X188559523Y-56452380D01*
X188797619Y-56452380D01*
X188892857Y-56404761D01*
X188940476Y-56357142D01*
X188988095Y-56261904D01*
X188988095Y-56166666D01*
X188940476Y-56071428D01*
X188892857Y-56023809D01*
X188797619Y-55976190D01*
X188607142Y-55928571D01*
X188511904Y-55880952D01*
X188464285Y-55833333D01*
X188416666Y-55738095D01*
X188416666Y-55642857D01*
X188464285Y-55547619D01*
X188511904Y-55500000D01*
X188607142Y-55452380D01*
X188845238Y-55452380D01*
X188988095Y-55500000D01*
X189321428Y-55452380D02*
X189559523Y-56452380D01*
X189750000Y-55738095D01*
X189940476Y-56452380D01*
X190178571Y-55452380D01*
X190607142Y-56452380D02*
X190797619Y-56452380D01*
X190892857Y-56404761D01*
X190940476Y-56357142D01*
X191035714Y-56214285D01*
X191083333Y-56023809D01*
X191083333Y-55642857D01*
X191035714Y-55547619D01*
X190988095Y-55500000D01*
X190892857Y-55452380D01*
X190702380Y-55452380D01*
X190607142Y-55500000D01*
X190559523Y-55547619D01*
X190511904Y-55642857D01*
X190511904Y-55880952D01*
X190559523Y-55976190D01*
X190607142Y-56023809D01*
X190702380Y-56071428D01*
X190892857Y-56071428D01*
X190988095Y-56023809D01*
X191035714Y-55976190D01*
X191083333Y-55880952D01*
%TO.C,SW7*%
X165416666Y-56404761D02*
X165559523Y-56452380D01*
X165797619Y-56452380D01*
X165892857Y-56404761D01*
X165940476Y-56357142D01*
X165988095Y-56261904D01*
X165988095Y-56166666D01*
X165940476Y-56071428D01*
X165892857Y-56023809D01*
X165797619Y-55976190D01*
X165607142Y-55928571D01*
X165511904Y-55880952D01*
X165464285Y-55833333D01*
X165416666Y-55738095D01*
X165416666Y-55642857D01*
X165464285Y-55547619D01*
X165511904Y-55500000D01*
X165607142Y-55452380D01*
X165845238Y-55452380D01*
X165988095Y-55500000D01*
X166321428Y-55452380D02*
X166559523Y-56452380D01*
X166750000Y-55738095D01*
X166940476Y-56452380D01*
X167178571Y-55452380D01*
X167464285Y-55452380D02*
X168130952Y-55452380D01*
X167702380Y-56452380D01*
%TO.C,SW3*%
X119416666Y-56404761D02*
X119559523Y-56452380D01*
X119797619Y-56452380D01*
X119892857Y-56404761D01*
X119940476Y-56357142D01*
X119988095Y-56261904D01*
X119988095Y-56166666D01*
X119940476Y-56071428D01*
X119892857Y-56023809D01*
X119797619Y-55976190D01*
X119607142Y-55928571D01*
X119511904Y-55880952D01*
X119464285Y-55833333D01*
X119416666Y-55738095D01*
X119416666Y-55642857D01*
X119464285Y-55547619D01*
X119511904Y-55500000D01*
X119607142Y-55452380D01*
X119845238Y-55452380D01*
X119988095Y-55500000D01*
X120321428Y-55452380D02*
X120559523Y-56452380D01*
X120750000Y-55738095D01*
X120940476Y-56452380D01*
X121178571Y-55452380D01*
X121464285Y-55452380D02*
X122083333Y-55452380D01*
X121750000Y-55833333D01*
X121892857Y-55833333D01*
X121988095Y-55880952D01*
X122035714Y-55928571D01*
X122083333Y-56023809D01*
X122083333Y-56261904D01*
X122035714Y-56357142D01*
X121988095Y-56404761D01*
X121892857Y-56452380D01*
X121607142Y-56452380D01*
X121511904Y-56404761D01*
X121464285Y-56357142D01*
%TO.C,SW12*%
X95940476Y-56404761D02*
X96083333Y-56452380D01*
X96321428Y-56452380D01*
X96416666Y-56404761D01*
X96464285Y-56357142D01*
X96511904Y-56261904D01*
X96511904Y-56166666D01*
X96464285Y-56071428D01*
X96416666Y-56023809D01*
X96321428Y-55976190D01*
X96130952Y-55928571D01*
X96035714Y-55880952D01*
X95988095Y-55833333D01*
X95940476Y-55738095D01*
X95940476Y-55642857D01*
X95988095Y-55547619D01*
X96035714Y-55500000D01*
X96130952Y-55452380D01*
X96369047Y-55452380D01*
X96511904Y-55500000D01*
X96845238Y-55452380D02*
X97083333Y-56452380D01*
X97273809Y-55738095D01*
X97464285Y-56452380D01*
X97702380Y-55452380D01*
X98607142Y-56452380D02*
X98035714Y-56452380D01*
X98321428Y-56452380D02*
X98321428Y-55452380D01*
X98226190Y-55595238D01*
X98130952Y-55690476D01*
X98035714Y-55738095D01*
X98988095Y-55547619D02*
X99035714Y-55500000D01*
X99130952Y-55452380D01*
X99369047Y-55452380D01*
X99464285Y-55500000D01*
X99511904Y-55547619D01*
X99559523Y-55642857D01*
X99559523Y-55738095D01*
X99511904Y-55880952D01*
X98940476Y-56452380D01*
X99559523Y-56452380D01*
%TO.C,SW2*%
X107916666Y-88904761D02*
X108059523Y-88952380D01*
X108297619Y-88952380D01*
X108392857Y-88904761D01*
X108440476Y-88857142D01*
X108488095Y-88761904D01*
X108488095Y-88666666D01*
X108440476Y-88571428D01*
X108392857Y-88523809D01*
X108297619Y-88476190D01*
X108107142Y-88428571D01*
X108011904Y-88380952D01*
X107964285Y-88333333D01*
X107916666Y-88238095D01*
X107916666Y-88142857D01*
X107964285Y-88047619D01*
X108011904Y-88000000D01*
X108107142Y-87952380D01*
X108345238Y-87952380D01*
X108488095Y-88000000D01*
X108821428Y-87952380D02*
X109059523Y-88952380D01*
X109250000Y-88238095D01*
X109440476Y-88952380D01*
X109678571Y-87952380D01*
X110011904Y-88047619D02*
X110059523Y-88000000D01*
X110154761Y-87952380D01*
X110392857Y-87952380D01*
X110488095Y-88000000D01*
X110535714Y-88047619D01*
X110583333Y-88142857D01*
X110583333Y-88238095D01*
X110535714Y-88380952D01*
X109964285Y-88952380D01*
X110583333Y-88952380D01*
%TO.C,SW4*%
X84916666Y-88904761D02*
X85059523Y-88952380D01*
X85297619Y-88952380D01*
X85392857Y-88904761D01*
X85440476Y-88857142D01*
X85488095Y-88761904D01*
X85488095Y-88666666D01*
X85440476Y-88571428D01*
X85392857Y-88523809D01*
X85297619Y-88476190D01*
X85107142Y-88428571D01*
X85011904Y-88380952D01*
X84964285Y-88333333D01*
X84916666Y-88238095D01*
X84916666Y-88142857D01*
X84964285Y-88047619D01*
X85011904Y-88000000D01*
X85107142Y-87952380D01*
X85345238Y-87952380D01*
X85488095Y-88000000D01*
X85821428Y-87952380D02*
X86059523Y-88952380D01*
X86250000Y-88238095D01*
X86440476Y-88952380D01*
X86678571Y-87952380D01*
X87488095Y-88285714D02*
X87488095Y-88952380D01*
X87250000Y-87904761D02*
X87011904Y-88619047D01*
X87630952Y-88619047D01*
%TO.C,J1*%
X196266666Y-92222380D02*
X196266666Y-92936666D01*
X196219047Y-93079523D01*
X196123809Y-93174761D01*
X195980952Y-93222380D01*
X195885714Y-93222380D01*
X197266666Y-93222380D02*
X196695238Y-93222380D01*
X196980952Y-93222380D02*
X196980952Y-92222380D01*
X196885714Y-92365238D01*
X196790476Y-92460476D01*
X196695238Y-92508095D01*
%TO.C,SW5*%
X142416666Y-56404761D02*
X142559523Y-56452380D01*
X142797619Y-56452380D01*
X142892857Y-56404761D01*
X142940476Y-56357142D01*
X142988095Y-56261904D01*
X142988095Y-56166666D01*
X142940476Y-56071428D01*
X142892857Y-56023809D01*
X142797619Y-55976190D01*
X142607142Y-55928571D01*
X142511904Y-55880952D01*
X142464285Y-55833333D01*
X142416666Y-55738095D01*
X142416666Y-55642857D01*
X142464285Y-55547619D01*
X142511904Y-55500000D01*
X142607142Y-55452380D01*
X142845238Y-55452380D01*
X142988095Y-55500000D01*
X143321428Y-55452380D02*
X143559523Y-56452380D01*
X143750000Y-55738095D01*
X143940476Y-56452380D01*
X144178571Y-55452380D01*
X145035714Y-55452380D02*
X144559523Y-55452380D01*
X144511904Y-55928571D01*
X144559523Y-55880952D01*
X144654761Y-55833333D01*
X144892857Y-55833333D01*
X144988095Y-55880952D01*
X145035714Y-55928571D01*
X145083333Y-56023809D01*
X145083333Y-56261904D01*
X145035714Y-56357142D01*
X144988095Y-56404761D01*
X144892857Y-56452380D01*
X144654761Y-56452380D01*
X144559523Y-56404761D01*
X144511904Y-56357142D01*
%TO.C,SW11*%
X176440476Y-88904761D02*
X176583333Y-88952380D01*
X176821428Y-88952380D01*
X176916666Y-88904761D01*
X176964285Y-88857142D01*
X177011904Y-88761904D01*
X177011904Y-88666666D01*
X176964285Y-88571428D01*
X176916666Y-88523809D01*
X176821428Y-88476190D01*
X176630952Y-88428571D01*
X176535714Y-88380952D01*
X176488095Y-88333333D01*
X176440476Y-88238095D01*
X176440476Y-88142857D01*
X176488095Y-88047619D01*
X176535714Y-88000000D01*
X176630952Y-87952380D01*
X176869047Y-87952380D01*
X177011904Y-88000000D01*
X177345238Y-87952380D02*
X177583333Y-88952380D01*
X177773809Y-88238095D01*
X177964285Y-88952380D01*
X178202380Y-87952380D01*
X179107142Y-88952380D02*
X178535714Y-88952380D01*
X178821428Y-88952380D02*
X178821428Y-87952380D01*
X178726190Y-88095238D01*
X178630952Y-88190476D01*
X178535714Y-88238095D01*
X180059523Y-88952380D02*
X179488095Y-88952380D01*
X179773809Y-88952380D02*
X179773809Y-87952380D01*
X179678571Y-88095238D01*
X179583333Y-88190476D01*
X179488095Y-88238095D01*
%TO.C,SW13*%
X153440476Y-88904761D02*
X153583333Y-88952380D01*
X153821428Y-88952380D01*
X153916666Y-88904761D01*
X153964285Y-88857142D01*
X154011904Y-88761904D01*
X154011904Y-88666666D01*
X153964285Y-88571428D01*
X153916666Y-88523809D01*
X153821428Y-88476190D01*
X153630952Y-88428571D01*
X153535714Y-88380952D01*
X153488095Y-88333333D01*
X153440476Y-88238095D01*
X153440476Y-88142857D01*
X153488095Y-88047619D01*
X153535714Y-88000000D01*
X153630952Y-87952380D01*
X153869047Y-87952380D01*
X154011904Y-88000000D01*
X154345238Y-87952380D02*
X154583333Y-88952380D01*
X154773809Y-88238095D01*
X154964285Y-88952380D01*
X155202380Y-87952380D01*
X156107142Y-88952380D02*
X155535714Y-88952380D01*
X155821428Y-88952380D02*
X155821428Y-87952380D01*
X155726190Y-88095238D01*
X155630952Y-88190476D01*
X155535714Y-88238095D01*
X156440476Y-87952380D02*
X157059523Y-87952380D01*
X156726190Y-88333333D01*
X156869047Y-88333333D01*
X156964285Y-88380952D01*
X157011904Y-88428571D01*
X157059523Y-88523809D01*
X157059523Y-88761904D01*
X157011904Y-88857142D01*
X156964285Y-88904761D01*
X156869047Y-88952380D01*
X156583333Y-88952380D01*
X156488095Y-88904761D01*
X156440476Y-88857142D01*
%TO.C,SW6*%
X61916666Y-88904761D02*
X62059523Y-88952380D01*
X62297619Y-88952380D01*
X62392857Y-88904761D01*
X62440476Y-88857142D01*
X62488095Y-88761904D01*
X62488095Y-88666666D01*
X62440476Y-88571428D01*
X62392857Y-88523809D01*
X62297619Y-88476190D01*
X62107142Y-88428571D01*
X62011904Y-88380952D01*
X61964285Y-88333333D01*
X61916666Y-88238095D01*
X61916666Y-88142857D01*
X61964285Y-88047619D01*
X62011904Y-88000000D01*
X62107142Y-87952380D01*
X62345238Y-87952380D01*
X62488095Y-88000000D01*
X62821428Y-87952380D02*
X63059523Y-88952380D01*
X63250000Y-88238095D01*
X63440476Y-88952380D01*
X63678571Y-87952380D01*
X64488095Y-87952380D02*
X64297619Y-87952380D01*
X64202380Y-88000000D01*
X64154761Y-88047619D01*
X64059523Y-88190476D01*
X64011904Y-88380952D01*
X64011904Y-88761904D01*
X64059523Y-88857142D01*
X64107142Y-88904761D01*
X64202380Y-88952380D01*
X64392857Y-88952380D01*
X64488095Y-88904761D01*
X64535714Y-88857142D01*
X64583333Y-88761904D01*
X64583333Y-88523809D01*
X64535714Y-88428571D01*
X64488095Y-88380952D01*
X64392857Y-88333333D01*
X64202380Y-88333333D01*
X64107142Y-88380952D01*
X64059523Y-88428571D01*
X64011904Y-88523809D01*
%TO.C,SW8*%
X50416666Y-56404761D02*
X50559523Y-56452380D01*
X50797619Y-56452380D01*
X50892857Y-56404761D01*
X50940476Y-56357142D01*
X50988095Y-56261904D01*
X50988095Y-56166666D01*
X50940476Y-56071428D01*
X50892857Y-56023809D01*
X50797619Y-55976190D01*
X50607142Y-55928571D01*
X50511904Y-55880952D01*
X50464285Y-55833333D01*
X50416666Y-55738095D01*
X50416666Y-55642857D01*
X50464285Y-55547619D01*
X50511904Y-55500000D01*
X50607142Y-55452380D01*
X50845238Y-55452380D01*
X50988095Y-55500000D01*
X51321428Y-55452380D02*
X51559523Y-56452380D01*
X51750000Y-55738095D01*
X51940476Y-56452380D01*
X52178571Y-55452380D01*
X52702380Y-55880952D02*
X52607142Y-55833333D01*
X52559523Y-55785714D01*
X52511904Y-55690476D01*
X52511904Y-55642857D01*
X52559523Y-55547619D01*
X52607142Y-55500000D01*
X52702380Y-55452380D01*
X52892857Y-55452380D01*
X52988095Y-55500000D01*
X53035714Y-55547619D01*
X53083333Y-55642857D01*
X53083333Y-55690476D01*
X53035714Y-55785714D01*
X52988095Y-55833333D01*
X52892857Y-55880952D01*
X52702380Y-55880952D01*
X52607142Y-55928571D01*
X52559523Y-55976190D01*
X52511904Y-56071428D01*
X52511904Y-56261904D01*
X52559523Y-56357142D01*
X52607142Y-56404761D01*
X52702380Y-56452380D01*
X52892857Y-56452380D01*
X52988095Y-56404761D01*
X53035714Y-56357142D01*
X53083333Y-56261904D01*
X53083333Y-56071428D01*
X53035714Y-55976190D01*
X52988095Y-55928571D01*
X52892857Y-55880952D01*
%TO.C,SW10*%
X72940476Y-56404761D02*
X73083333Y-56452380D01*
X73321428Y-56452380D01*
X73416666Y-56404761D01*
X73464285Y-56357142D01*
X73511904Y-56261904D01*
X73511904Y-56166666D01*
X73464285Y-56071428D01*
X73416666Y-56023809D01*
X73321428Y-55976190D01*
X73130952Y-55928571D01*
X73035714Y-55880952D01*
X72988095Y-55833333D01*
X72940476Y-55738095D01*
X72940476Y-55642857D01*
X72988095Y-55547619D01*
X73035714Y-55500000D01*
X73130952Y-55452380D01*
X73369047Y-55452380D01*
X73511904Y-55500000D01*
X73845238Y-55452380D02*
X74083333Y-56452380D01*
X74273809Y-55738095D01*
X74464285Y-56452380D01*
X74702380Y-55452380D01*
X75607142Y-56452380D02*
X75035714Y-56452380D01*
X75321428Y-56452380D02*
X75321428Y-55452380D01*
X75226190Y-55595238D01*
X75130952Y-55690476D01*
X75035714Y-55738095D01*
X76226190Y-55452380D02*
X76321428Y-55452380D01*
X76416666Y-55500000D01*
X76464285Y-55547619D01*
X76511904Y-55642857D01*
X76559523Y-55833333D01*
X76559523Y-56071428D01*
X76511904Y-56261904D01*
X76464285Y-56357142D01*
X76416666Y-56404761D01*
X76321428Y-56452380D01*
X76226190Y-56452380D01*
X76130952Y-56404761D01*
X76083333Y-56357142D01*
X76035714Y-56261904D01*
X75988095Y-56071428D01*
X75988095Y-55833333D01*
X76035714Y-55642857D01*
X76083333Y-55547619D01*
X76130952Y-55500000D01*
X76226190Y-55452380D01*
D12*
%TO.C,SW9*%
X196850000Y-56900000D02*
X182650000Y-56900000D01*
X196850000Y-71100000D02*
X196850000Y-56900000D01*
X182650000Y-56900000D02*
X182650000Y-71100000D01*
X182650000Y-71100000D02*
X196850000Y-71100000D01*
%TO.C,SW7*%
X173850000Y-56900000D02*
X159650000Y-56900000D01*
X159650000Y-71100000D02*
X173850000Y-71100000D01*
X173850000Y-71100000D02*
X173850000Y-56900000D01*
X159650000Y-56900000D02*
X159650000Y-71100000D01*
%TO.C,SW3*%
X113650000Y-71100000D02*
X127850000Y-71100000D01*
X127850000Y-56900000D02*
X113650000Y-56900000D01*
X127850000Y-71100000D02*
X127850000Y-56900000D01*
X113650000Y-56900000D02*
X113650000Y-71100000D01*
%TO.C,SW12*%
X90650000Y-56900000D02*
X90650000Y-71100000D01*
X104850000Y-56900000D02*
X90650000Y-56900000D01*
X90650000Y-71100000D02*
X104850000Y-71100000D01*
X104850000Y-71100000D02*
X104850000Y-56900000D01*
%TO.C,SW2*%
X102150000Y-103600000D02*
X116350000Y-103600000D01*
X116350000Y-89400000D02*
X102150000Y-89400000D01*
X102150000Y-89400000D02*
X102150000Y-103600000D01*
X116350000Y-103600000D02*
X116350000Y-89400000D01*
%TO.C,SW4*%
X79150000Y-103600000D02*
X93350000Y-103600000D01*
X93350000Y-103600000D02*
X93350000Y-89400000D01*
X79150000Y-89400000D02*
X79150000Y-103600000D01*
X93350000Y-89400000D02*
X79150000Y-89400000D01*
%TO.C,J1*%
X197265000Y-106660000D02*
X195935000Y-106660000D01*
X198595000Y-104060000D02*
X195935000Y-104060000D01*
X198595000Y-104060000D02*
X198595000Y-93840000D01*
X195935000Y-106660000D02*
X195935000Y-105330000D01*
X195935000Y-104060000D02*
X195935000Y-93840000D01*
X198595000Y-93840000D02*
X195935000Y-93840000D01*
%TO.C,SW5*%
X150850000Y-71100000D02*
X150850000Y-56900000D01*
X136650000Y-71100000D02*
X150850000Y-71100000D01*
X150850000Y-56900000D02*
X136650000Y-56900000D01*
X136650000Y-56900000D02*
X136650000Y-71100000D01*
%TO.C,SW11*%
X171150000Y-89400000D02*
X171150000Y-103600000D01*
X185350000Y-103600000D02*
X185350000Y-89400000D01*
X185350000Y-89400000D02*
X171150000Y-89400000D01*
X171150000Y-103600000D02*
X185350000Y-103600000D01*
%TO.C,SW13*%
X148150000Y-89400000D02*
X148150000Y-103600000D01*
X162350000Y-103600000D02*
X162350000Y-89400000D01*
X162350000Y-89400000D02*
X148150000Y-89400000D01*
X148150000Y-103600000D02*
X162350000Y-103600000D01*
%TO.C,SW6*%
X56150000Y-103600000D02*
X70350000Y-103600000D01*
X70350000Y-103600000D02*
X70350000Y-89400000D01*
X56150000Y-89400000D02*
X56150000Y-103600000D01*
X70350000Y-89400000D02*
X56150000Y-89400000D01*
%TO.C,SW8*%
X44650000Y-56900000D02*
X44650000Y-71100000D01*
X44650000Y-71100000D02*
X58850000Y-71100000D01*
X58850000Y-71100000D02*
X58850000Y-56900000D01*
X58850000Y-56900000D02*
X44650000Y-56900000D01*
%TO.C,SW10*%
X81850000Y-56900000D02*
X67650000Y-56900000D01*
X67650000Y-71100000D02*
X81850000Y-71100000D01*
X81850000Y-71100000D02*
X81850000Y-56900000D01*
X67650000Y-56900000D02*
X67650000Y-71100000D01*
%TD*%
M02*
