M48
; DRILL file {KiCad (6.0.0)} date Fri May 12 18:21:30 2023
; FORMAT={-:-/ absolute / metric / decimal}
; #@! TF.CreationDate,2023-05-12T18:21:30+02:00
; #@! TF.GenerationSoftware,Kicad,Pcbnew,(6.0.0)
; #@! TF.FileFunction,Plated,1,2,PTH
FMAT,2
METRIC
; #@! TA.AperFunction,Plated,PTH,ViaDrill
T1C0.400
; #@! TA.AperFunction,Plated,PTH,ComponentDrill
T2C0.500
; #@! TA.AperFunction,Plated,PTH,ComponentDrill
T3C0.600
; #@! TA.AperFunction,Plated,PTH,ComponentDrill
T4C0.800
; #@! TA.AperFunction,Plated,PTH,ComponentDrill
T5C1.000
; #@! TA.AperFunction,Plated,PTH,ComponentDrill
T6C1.200
; #@! TA.AperFunction,Plated,PTH,ComponentDrill
T7C1.500
; #@! TA.AperFunction,Plated,PTH,ComponentDrill
T8C1.600
; #@! TA.AperFunction,Plated,PTH,ComponentDrill
T9C3.200
%
G90
G05
T1
X51.0Y-47.0
X51.0Y-50.0
X51.0Y-52.0
X51.0Y-54.0
X51.0Y-56.0
X51.0Y-58.0
X51.0Y-60.0
X51.0Y-62.0
X51.0Y-63.0
X51.0Y-65.0
X51.0Y-67.0
X51.0Y-69.0
X51.0Y-71.0
X51.0Y-73.0
X51.0Y-75.0
X51.0Y-77.0
X51.0Y-79.0
X51.0Y-81.0
X51.0Y-83.0
X51.0Y-85.0
X51.0Y-87.0
X51.0Y-88.0
X51.0Y-90.0
X51.0Y-92.0
X51.0Y-94.0
X51.0Y-96.0
X51.0Y-98.0
X51.0Y-100.0
X51.0Y-102.0
X51.0Y-104.0
X51.0Y-106.0
X51.0Y-108.0
X51.0Y-110.0
X51.0Y-112.0
X51.0Y-113.0
X51.0Y-115.0
X51.0Y-117.0
X51.0Y-119.0
X51.0Y-121.0
X51.0Y-123.0
X51.0Y-125.0
X51.0Y-127.0
X52.0Y-128.0
X52.377Y-45.916
X53.0Y-128.0
X53.34Y-113.75
X54.02Y-107.32
X54.14Y-57.12
X54.39Y-110.5
X54.77Y-72.34
X54.9Y-116.23
X55.0Y-128.0
X55.08Y-79.43
X55.474Y-97.5
X56.47Y-76.15
X56.57Y-55.25
X57.0Y-128.0
X57.02Y-112.11
X57.409Y-45.901
X57.51Y-107.38
X58.1Y-118.78
X58.237Y-82.068
X58.28Y-105.62
X58.31Y-110.64
X58.789Y-90.15
X59.0Y-46.0
X59.0Y-128.0
X59.79Y-61.77
X59.825Y-122.455
X59.91Y-76.0
X60.0Y-129.0
X60.12Y-67.92
X60.12Y-82.44
X60.13Y-113.77
X60.37Y-53.37
X60.38Y-70.22
X60.41Y-49.63
X60.47Y-98.73
X61.0Y-46.0
X61.65Y-109.55
X61.77Y-85.23
X61.86Y-54.63
X62.0Y-129.0
X62.28Y-95.29
X62.38Y-90.58
X63.57Y-59.37
X63.67Y-104.27
X63.7Y-83.3
X64.0Y-101.64
X64.0Y-129.0
X64.38Y-80.46
X64.76Y-73.48
X65.0Y-129.0
X65.03Y-78.17
X65.19Y-93.28
X65.55Y-54.99
X65.6Y-120.25
X66.0Y-46.0
X66.15Y-69.78
X67.21Y-95.9
X67.3Y-49.45
X67.6Y-114.33
X67.86Y-69.87
X68.0Y-46.0
X68.18Y-107.44
X68.26Y-118.7
X68.33Y-109.37
X68.54Y-112.04
X68.6Y-55.45
X68.61Y-67.52
X68.81Y-73.93
X68.99Y-115.07
X69.0Y-129.0
X69.27Y-117.41
X69.8Y-69.72
X70.0Y-46.0
X70.23Y-60.75
X70.38Y-47.53
X71.0Y-129.0
X71.1Y-118.25
X71.86Y-53.33
X72.69Y-122.55
X73.0Y-129.0
X73.27Y-125.82
X73.4Y-97.11
X73.54Y-69.75
X73.98Y-50.68
X74.06Y-53.01
X74.6Y-106.95
X74.77Y-58.22
X74.9Y-59.75
X75.0Y-129.0
X75.44Y-51.89
X75.59Y-114.42
X75.62Y-105.69
X76.06Y-90.51
X76.28Y-74.83
X76.3Y-58.65
X76.3Y-65.55
X76.4Y-112.9
X76.42Y-85.33
X76.55Y-81.42
X76.77Y-122.06
X76.86Y-82.64
X76.93Y-51.56
X77.0Y-129.0
X77.2Y-73.25
X77.21Y-125.67
X77.58Y-48.81
X77.65Y-98.95
X77.8Y-110.4
X77.8Y-113.3
X78.48Y-118.67
X78.82Y-81.8
X78.88Y-74.63
X79.1Y-49.05
X79.2Y-111.1
X79.21Y-68.85
X79.32Y-90.34
X79.46Y-100.95
X79.5Y-51.55
X79.65Y-77.3
X79.77Y-125.92
X80.0Y-129.0
X80.6Y-85.75
X81.06Y-64.84
X81.092Y-104.752
X81.3Y-51.8
X81.72Y-94.04
X82.0Y-129.0
X82.24Y-49.61
X82.3Y-112.0
X82.34Y-116.6
X82.4Y-98.0
X82.41Y-126.03
X82.48Y-107.07
X82.55Y-121.89
X82.97Y-56.54
X83.0Y-46.0
X83.17Y-86.05
X83.24Y-71.54
X83.54Y-90.41
X83.63Y-103.18
X84.26Y-88.37
X84.77Y-95.56
X84.9Y-51.95
X84.9Y-65.85
X85.0Y-106.1
X85.0Y-129.0
X85.06Y-82.86
X85.21Y-90.55
X85.57Y-85.91
X85.72Y-115.42
X85.72Y-121.64
X85.8Y-110.55
X85.9Y-67.65
X85.99Y-53.9
X86.37Y-118.2
X86.48Y-126.42
X86.6Y-104.3
X87.0Y-129.0
X87.3Y-76.54
X87.58Y-57.85
X87.64Y-62.11
X87.64Y-69.18
X87.67Y-92.66
X87.83Y-73.59
X88.0Y-101.1
X88.4Y-105.8
X88.47Y-89.32
X88.7Y-103.0
X88.75Y-71.26
X89.0Y-46.0
X89.0Y-129.0
X89.01Y-126.9
X89.05Y-85.54
X89.7Y-82.85
X89.96Y-74.89
X90.0Y-46.0
X90.04Y-111.06
X90.2Y-104.5
X90.53Y-112.44
X90.69Y-49.34
X91.0Y-129.0
X91.3Y-105.9
X91.4Y-102.8
X91.45Y-84.24
X91.5Y-56.08
X91.72Y-51.53
X92.0Y-46.0
X92.0Y-123.15
X92.08Y-61.72
X92.1Y-110.65
X92.39Y-97.01
X92.6Y-75.05
X92.72Y-66.86
X93.0Y-129.0
X93.02Y-126.9
X93.398Y-74.152
X93.64Y-63.62
X93.97Y-70.57
X94.0Y-46.0
X94.27Y-56.33
X94.47Y-112.15
X94.5Y-90.7
X94.5Y-94.91
X94.82Y-50.33
X94.82Y-53.74
X95.0Y-129.0
X95.29Y-68.07
X95.37Y-93.17
X95.63Y-65.39
X95.88Y-118.03
X95.93Y-114.68
X96.21Y-122.9
X96.22Y-91.95
X96.46Y-95.56
X96.6Y-94.33
X97.0Y-46.0
X97.05Y-128.77
X97.1Y-48.7
X97.16Y-70.94
X97.36Y-102.41
X97.47Y-66.66
X97.74Y-117.09
X97.84Y-92.15
X97.96Y-115.27
X98.53Y-79.67
X98.66Y-57.17
X98.79Y-64.76
X99.0Y-46.0
X99.0Y-129.0
X99.08Y-61.18
X99.14Y-77.07
X99.34Y-50.46
X99.51Y-96.58
X99.68Y-52.44
X99.9Y-123.25
X100.0Y-129.0
X100.09Y-100.37
X100.51Y-78.92
X100.92Y-103.64
X100.93Y-117.6
X101.0Y-46.0
X101.03Y-76.47
X101.14Y-82.83
X101.25Y-94.62
X101.95Y-80.77
X102.0Y-129.0
X102.32Y-122.84
X103.0Y-46.0
X103.0Y-129.0
X103.04Y-111.71
X103.07Y-77.35
X103.39Y-63.63
X103.4Y-91.95
X103.46Y-79.74
X103.46Y-102.4
X103.62Y-55.87
X103.71Y-71.5
X103.97Y-95.95
X104.04Y-105.89
X104.06Y-82.49
X104.18Y-50.71
X104.3Y-68.751
X105.0Y-129.0
X105.87Y-111.64
X106.0Y-46.0
X106.09Y-114.98
X106.3Y-74.0
X106.3Y-123.0
X106.88Y-127.42
X106.95Y-90.9
X107.0Y-46.0
X107.0Y-129.0
X107.03Y-93.67
X107.51Y-59.51
X107.52Y-119.48
X107.61Y-84.43
X108.03Y-95.44
X108.19Y-113.24
X108.19Y-117.45
X108.49Y-55.05
X108.54Y-86.28
X108.63Y-109.32
X108.78Y-80.25
X109.0Y-46.0
X109.0Y-129.0
X109.24Y-64.26
X110.02Y-78.23
X110.06Y-50.63
X110.4Y-102.39
X111.0Y-129.0
X111.3Y-100.81
X111.41Y-90.93
X111.82Y-118.47
X112.0Y-46.0
X112.1Y-84.25
X112.46Y-56.96
X112.64Y-88.72
X112.7Y-110.7
X113.0Y-46.0
X113.0Y-129.0
X113.3Y-103.15
X113.56Y-74.99
X113.81Y-67.3
X113.98Y-114.63
X114.0Y-129.0
X114.17Y-98.89
X114.23Y-82.35
X114.63Y-93.44
X114.74Y-95.64
X115.0Y-46.0
X115.0Y-87.56
X115.7Y-99.85
X116.0Y-129.0
X116.58Y-126.52
X116.85Y-78.1
X116.88Y-89.7
X116.92Y-68.42
X117.0Y-46.0
X117.0Y-129.0
X117.07Y-73.25
X117.4Y-94.15
X117.64Y-76.08
X118.22Y-91.72
X118.34Y-56.55
X118.53Y-108.36
X118.53Y-114.03
X118.61Y-122.62
X119.0Y-46.0
X119.0Y-129.0
X119.06Y-111.59
X119.16Y-52.35
X119.2Y-99.4
X119.62Y-102.08
X119.9Y-106.37
X119.96Y-79.64
X120.04Y-75.89
X120.04Y-118.69
X120.25Y-88.5
X120.31Y-72.05
X121.0Y-46.0
X121.0Y-129.0
X121.76Y-81.88
X121.94Y-125.5
X121.97Y-94.01
X122.05Y-101.06
X122.24Y-63.96
X122.76Y-58.68
X123.0Y-46.0
X123.0Y-129.0
X123.52Y-79.26
X123.74Y-119.62
X123.95Y-110.87
X124.46Y-68.07
X124.53Y-86.04
X124.57Y-82.0
X124.6Y-72.69
X124.6Y-99.15
X124.85Y-92.96
X125.0Y-129.0
X125.81Y-125.51
X125.91Y-116.09
X125.93Y-104.25
X126.0Y-46.0
X126.48Y-81.36
X126.56Y-108.39
X126.9Y-101.9
X126.95Y-113.7
X127.0Y-129.0
X127.38Y-97.32
X127.79Y-75.63
X127.93Y-87.52
X128.46Y-122.47
X128.49Y-55.01
X129.0Y-46.0
X129.0Y-129.0
X129.73Y-71.57
X129.89Y-79.56
X130.23Y-77.41
X130.44Y-100.47
X130.58Y-64.66
X131.0Y-92.01
X131.0Y-129.0
X131.25Y-70.07
X131.26Y-115.43
X131.42Y-86.23
X131.56Y-59.35
X131.8Y-81.16
X132.0Y-46.0
X132.38Y-102.91
X132.512Y-118.335
X132.88Y-123.11
X133.0Y-46.0
X133.0Y-129.0
X133.07Y-89.41
X133.09Y-94.26
X133.102Y-111.355
X133.55Y-77.15
X133.62Y-125.24
X133.76Y-74.25
X134.03Y-59.24
X135.0Y-46.0
X135.0Y-84.12
X135.0Y-129.0
X135.07Y-79.42
X135.15Y-56.02
X135.32Y-92.64
X135.83Y-111.17
X135.98Y-77.2
X136.23Y-97.57
X136.3Y-74.27
X136.94Y-51.84
X137.0Y-129.0
X137.01Y-92.01
X137.64Y-86.26
X137.66Y-72.94
X137.7Y-63.51
X137.85Y-110.5
X138.67Y-53.85
X139.0Y-46.0
X139.0Y-129.0
X139.12Y-114.63
X139.73Y-80.7
X139.86Y-94.18
X140.55Y-115.47
X140.72Y-103.34
X140.96Y-126.63
X141.0Y-46.0
X141.0Y-129.0
X141.3Y-98.22
X141.49Y-55.62
X141.56Y-59.99
X141.79Y-86.76
X141.98Y-125.03
X142.0Y-121.5
X142.16Y-71.21
X142.53Y-67.42
X142.55Y-82.12
X142.62Y-80.61
X142.96Y-93.38
X143.0Y-46.0
X143.0Y-129.0
X143.14Y-89.68
X143.39Y-56.58
X143.39Y-61.22
X143.5Y-116.06
X144.01Y-104.77
X144.04Y-53.07
X144.12Y-50.46
X144.39Y-75.84
X144.52Y-96.67
X144.62Y-121.04
X145.0Y-46.0
X145.0Y-129.0
X145.58Y-88.03
X145.77Y-104.26
X146.03Y-107.3
X146.03Y-110.75
X146.82Y-97.62
X146.9Y-54.87
X147.0Y-129.0
X147.06Y-91.75
X148.0Y-46.0
X148.56Y-112.86
X148.91Y-121.32
X148.97Y-57.79
X149.0Y-129.0
X149.06Y-108.81
X149.41Y-67.07
X149.55Y-91.97
X149.58Y-72.04
X149.65Y-103.17
X150.32Y-112.94
X150.35Y-87.78
X150.38Y-76.78
X150.4Y-84.56
X150.66Y-96.45
X150.75Y-106.29
X150.79Y-97.9
X151.0Y-129.0
X151.49Y-117.43
X152.03Y-56.85
X152.09Y-126.06
X152.89Y-53.25
X153.0Y-129.0
X153.07Y-103.1
X153.08Y-66.59
X153.3Y-78.11
X153.56Y-46.2
X154.95Y-73.78
X155.0Y-129.0
X155.29Y-116.01
X155.51Y-103.87
X155.63Y-96.59
X155.91Y-108.48
X156.15Y-100.55
X156.42Y-84.53
X156.69Y-126.79
X156.89Y-99.63
X156.91Y-91.51
X157.0Y-129.0
X157.07Y-120.59
X158.04Y-53.6
X158.3Y-46.35
X158.33Y-57.24
X158.77Y-48.45
X158.81Y-103.1
X158.94Y-112.58
X159.0Y-129.0
X159.33Y-107.36
X159.6Y-54.57
X159.73Y-102.45
X159.94Y-88.64
X159.97Y-67.04
X160.12Y-76.51
X160.23Y-96.93
X160.37Y-59.86
X160.91Y-126.46
X161.0Y-129.0
X161.22Y-54.78
X161.47Y-98.88
X161.52Y-112.47
X162.12Y-86.75
X162.33Y-102.77
X162.7Y-109.77
X162.87Y-120.17
X163.1Y-128.98
X163.24Y-91.09
X163.52Y-46.7
X163.57Y-96.97
X164.35Y-105.36
X164.47Y-99.37
X164.58Y-118.2
X165.1Y-128.98
X165.36Y-103.52
X165.46Y-113.14
X165.46Y-126.63
X166.47Y-54.93
X166.96Y-67.53
X166.98Y-98.43
X167.31Y-121.63
X167.56Y-127.8
X167.56Y-128.8
X167.61Y-71.16
X167.69Y-75.01
X167.91Y-102.77
X167.91Y-107.61
X168.04Y-46.73
X168.56Y-127.8
X168.56Y-128.8
X168.7Y-97.19
X168.78Y-89.86
X168.99Y-54.32
X169.13Y-63.98
X169.33Y-115.33
X169.36Y-110.38
X169.47Y-119.82
X169.56Y-105.81
X169.56Y-127.8
X169.56Y-128.8
X169.61Y-57.46
X169.98Y-81.32
X170.31Y-99.44
X170.56Y-127.8
X170.56Y-128.8
X170.57Y-117.86
X170.89Y-93.34
X170.94Y-95.47
X171.11Y-125.77
X171.56Y-127.8
X171.56Y-128.8
X172.56Y-127.8
X172.56Y-128.8
X172.586Y-45.993
X172.83Y-84.99
X173.51Y-116.32
X173.51Y-117.32
X173.56Y-127.8
X173.56Y-128.8
X173.78Y-63.54
X174.18Y-73.08
X174.34Y-67.94
X174.37Y-79.9
X174.51Y-116.32
X174.51Y-117.32
X174.56Y-128.8
X174.56Y-127.8
X174.761Y-56.36
X174.86Y-125.9
X175.34Y-121.06
X175.48Y-116.37
X175.48Y-117.37
X175.53Y-58.77
X175.56Y-127.8
X175.56Y-128.8
X175.72Y-97.07
X175.81Y-100.05
X175.9Y-107.71
X176.3Y-94.44
X176.37Y-103.26
X176.48Y-116.37
X176.48Y-117.37
X176.5Y-110.41
X176.56Y-127.8
X176.56Y-128.8
X176.69Y-86.94
X177.1Y-114.35
X177.37Y-105.59
X177.48Y-116.37
X177.48Y-117.37
X177.56Y-71.87
X177.68Y-127.85
X177.68Y-128.85
X178.069Y-46.148
X178.07Y-81.21
X178.2Y-95.89
X178.48Y-116.37
X178.48Y-117.37
X178.6Y-91.66
X178.68Y-127.85
X178.68Y-128.85
X178.72Y-107.35
X179.48Y-116.37
X179.48Y-117.37
X179.68Y-127.85
X179.68Y-128.85
X180.32Y-107.86
X180.48Y-113.01
X180.48Y-114.01
X180.48Y-115.01
X180.48Y-116.37
X180.48Y-117.37
X180.68Y-127.85
X180.68Y-128.85
X180.73Y-50.68
X180.98Y-75.3
X180.98Y-76.3
X180.98Y-77.3
X180.98Y-78.3
X180.98Y-79.3
X180.98Y-80.3
X180.98Y-81.3
X180.98Y-82.3
X180.98Y-83.3
X180.98Y-84.3
X180.98Y-85.3
X180.98Y-86.3
X180.99Y-87.46
X180.99Y-88.46
X180.99Y-89.46
X180.99Y-90.46
X180.99Y-91.46
X180.99Y-92.46
X180.99Y-93.46
X180.99Y-94.46
X180.99Y-95.46
X180.99Y-96.46
X181.03Y-97.4
X181.03Y-98.4
X181.03Y-99.4
X181.03Y-100.4
X181.03Y-101.4
X181.03Y-102.4
X181.03Y-103.4
X181.48Y-113.01
X181.48Y-114.01
X181.48Y-115.01
X181.48Y-116.37
X181.48Y-117.37
X181.68Y-127.85
X181.68Y-128.85
X181.98Y-75.3
X181.98Y-76.3
X181.98Y-77.3
X181.98Y-78.3
X181.98Y-79.3
X181.98Y-80.3
X181.98Y-81.3
X181.98Y-82.3
X181.98Y-83.3
X181.98Y-84.3
X181.98Y-85.3
X181.98Y-86.3
X181.99Y-87.46
X181.99Y-88.46
X181.99Y-89.46
X181.99Y-90.46
X181.99Y-91.46
X181.99Y-92.46
X181.99Y-93.46
X181.99Y-94.46
X181.99Y-95.46
X181.99Y-96.46
X182.03Y-97.4
X182.03Y-98.4
X182.03Y-99.4
X182.03Y-100.4
X182.03Y-101.4
X182.03Y-102.4
X182.03Y-103.4
X182.48Y-117.37
X182.48Y-116.37
X182.59Y-115.05
X182.59Y-114.05
X182.68Y-127.85
X182.68Y-128.85
X183.26Y-75.57
X183.26Y-76.57
X183.26Y-77.57
X183.26Y-78.57
X183.26Y-79.57
X183.26Y-80.57
X183.26Y-81.57
X183.26Y-82.57
X183.26Y-83.57
X183.26Y-84.57
X183.26Y-85.57
X183.26Y-86.57
X183.27Y-87.73
X183.27Y-88.73
X183.27Y-89.73
X183.27Y-90.73
X183.27Y-91.73
X183.27Y-92.73
X183.27Y-93.73
X183.27Y-94.73
X183.27Y-95.73
X183.27Y-96.73
X183.27Y-97.73
X183.27Y-98.73
X183.36Y-119.45
X183.48Y-116.37
X183.48Y-117.37
X183.59Y-114.05
X183.59Y-115.05
X183.68Y-127.85
X183.68Y-128.85
X183.77Y-126.4
X183.89Y-101.88
X184.26Y-75.57
X184.26Y-76.57
X184.26Y-77.57
X184.26Y-78.57
X184.26Y-79.57
X184.26Y-80.57
X184.26Y-81.57
X184.26Y-82.57
X184.26Y-83.57
X184.26Y-84.57
X184.26Y-85.57
X184.26Y-86.57
X184.27Y-87.73
X184.27Y-88.73
X184.27Y-89.73
X184.27Y-90.73
X184.27Y-91.73
X184.27Y-92.73
X184.27Y-93.73
X184.27Y-94.73
X184.27Y-95.73
X184.27Y-96.73
X184.27Y-97.73
X184.27Y-98.73
X184.48Y-116.37
X184.48Y-117.37
X184.59Y-114.05
X184.59Y-115.05
X184.68Y-128.85
X184.68Y-127.85
X185.49Y-116.44
X185.49Y-117.44
X185.6Y-114.12
X185.6Y-115.12
X185.68Y-127.85
X185.68Y-128.85
X185.86Y-56.59
X185.92Y-98.73
X186.09Y-78.46
X186.16Y-50.45
X186.27Y-105.39
X186.33Y-92.36
X186.49Y-116.44
X186.49Y-117.44
X186.6Y-114.12
X186.6Y-115.12
X186.68Y-127.85
X186.68Y-128.85
X186.73Y-83.67
X186.92Y-66.74
X187.0Y-60.64
X187.04Y-74.5
X187.49Y-117.44
X187.49Y-116.44
X187.6Y-115.12
X187.6Y-114.12
X187.8Y-127.8
X187.8Y-128.8
X188.04Y-80.81
X188.29Y-111.97
X188.36Y-126.76
X188.49Y-116.44
X188.49Y-117.44
X188.6Y-114.12
X188.6Y-115.12
X188.8Y-87.38
X188.8Y-127.8
X188.8Y-128.8
X189.2Y-48.54
X189.49Y-116.44
X189.49Y-117.44
X189.6Y-114.12
X189.6Y-115.12
X189.6Y-120.35
X189.8Y-127.8
X189.8Y-128.8
X189.94Y-57.79
X190.02Y-69.98
X190.49Y-117.44
X190.49Y-116.44
X190.6Y-115.12
X190.6Y-114.12
X190.61Y-76.96
X190.8Y-127.8
X190.8Y-128.8
X191.49Y-116.44
X191.49Y-117.44
X191.57Y-96.22
X191.6Y-114.12
X191.6Y-115.12
X191.72Y-102.36
X191.8Y-127.8
X191.8Y-128.8
X192.0Y-53.19
X192.17Y-99.59
X192.2Y-65.19
X192.38Y-82.03
X192.45Y-125.99
X192.49Y-116.44
X192.49Y-117.44
X192.6Y-114.12
X192.6Y-115.12
X192.75Y-122.77
X192.77Y-91.28
X192.8Y-127.8
X192.8Y-128.8
X193.49Y-116.44
X193.49Y-117.44
X193.6Y-114.12
X193.6Y-115.12
X193.67Y-103.71
X193.8Y-127.8
X193.8Y-128.8
X193.83Y-70.2
X193.98Y-112.02
X194.19Y-88.92
X194.27Y-90.71
X194.37Y-62.9
X194.49Y-116.44
X194.49Y-117.44
X194.6Y-114.12
X194.6Y-115.12
X194.67Y-101.07
X194.8Y-128.8
X194.8Y-127.8
X195.2Y-106.59
X195.46Y-117.49
X195.46Y-116.49
X195.47Y-54.59
X195.57Y-115.17
X195.57Y-114.17
X195.67Y-119.4
X195.68Y-61.05
X195.8Y-127.8
X195.8Y-128.8
X196.23Y-65.41
X196.46Y-116.49
X196.46Y-117.49
X196.51Y-101.52
X196.55Y-94.91
X196.57Y-114.17
X196.57Y-115.17
X196.8Y-127.8
X196.8Y-128.8
X197.03Y-104.94
X197.68Y-127.75
X197.68Y-128.75
X197.93Y-72.1
X198.68Y-127.75
X198.68Y-128.75
X198.95Y-59.36
X199.1Y-98.43
X199.12Y-54.47
X199.44Y-102.88
X199.57Y-49.64
X199.68Y-127.75
X199.68Y-128.75
X199.82Y-113.63
X199.82Y-114.63
X199.95Y-77.14
X200.07Y-92.81
X200.18Y-96.22
X200.68Y-127.75
X200.68Y-128.75
X200.82Y-113.63
X200.82Y-114.63
X201.65Y-106.44
X201.66Y-108.05
X201.68Y-88.28
X201.68Y-98.06
X201.68Y-127.75
X201.68Y-128.75
X201.79Y-113.68
X201.79Y-114.68
X201.98Y-102.55
X202.31Y-61.33
X202.65Y-82.96
X202.68Y-127.75
X202.68Y-128.75
X202.79Y-113.68
X202.79Y-114.68
X203.68Y-127.75
X203.68Y-128.75
X203.7Y-90.19
X203.79Y-113.68
X203.79Y-114.68
X203.86Y-63.51
X204.07Y-70.19
X204.27Y-73.31
X204.68Y-128.75
X204.68Y-127.75
X204.79Y-113.68
X204.79Y-114.68
X205.16Y-85.1
X205.68Y-127.75
X205.68Y-128.75
X205.73Y-124.14
X205.79Y-113.68
X205.79Y-114.68
X206.14Y-52.85
X206.18Y-92.55
X206.42Y-57.17
X206.65Y-49.36
X206.66Y-97.72
X206.68Y-127.75
X206.68Y-128.75
X206.79Y-113.68
X206.79Y-114.68
X206.81Y-65.93
X207.26Y-107.64
X207.27Y-117.77
X207.54Y-61.23
X207.64Y-104.09
X207.65Y-127.8
X207.65Y-128.8
X207.67Y-80.98
X207.75Y-74.71
X207.79Y-113.68
X207.79Y-114.68
X207.94Y-99.52
X207.972Y-122.871
X208.2Y-105.51
X208.36Y-64.14
X208.65Y-127.8
X208.65Y-128.8
X208.79Y-114.68
X208.79Y-113.68
X208.89Y-52.85
X209.36Y-81.13
X209.49Y-90.75
X209.54Y-92.05
X209.65Y-127.8
X209.65Y-128.8
X209.79Y-113.68
X209.79Y-114.68
X210.19Y-69.14
X210.65Y-127.8
X210.65Y-128.8
X210.79Y-113.68
X210.79Y-114.68
X211.42Y-60.43
X211.54Y-55.6
X211.57Y-96.59
X211.65Y-127.8
X211.65Y-128.8
X211.85Y-113.68
X211.85Y-114.68
X211.87Y-109.89
X212.06Y-95.02
X212.36Y-105.32
X212.65Y-127.8
X212.65Y-128.8
X212.85Y-113.68
X212.85Y-114.68
X213.0Y-63.01
X213.16Y-68.97
X213.45Y-52.56
X213.596Y-118.46
X213.65Y-127.8
X213.65Y-128.8
X213.85Y-114.68
X213.85Y-113.68
X214.12Y-107.31
X214.65Y-128.8
X214.65Y-127.8
X214.76Y-113.68
X214.76Y-114.68
X214.9Y-111.46
X215.13Y-58.58
X215.13Y-117.29
X215.21Y-87.19
X215.22Y-97.18
X215.22Y-100.77
X215.24Y-81.55
X215.27Y-91.04
X215.65Y-127.8
X215.65Y-128.8
X215.75Y-66.27
X215.76Y-113.68
X215.76Y-114.68
X216.42Y-51.27
X216.65Y-127.8
X216.65Y-128.8
X216.76Y-114.68
X216.76Y-113.68
X217.49Y-75.43
X217.63Y-102.4
X217.63Y-103.4
X217.63Y-104.4
X217.63Y-105.4
X217.63Y-106.4
X217.63Y-107.4
X217.63Y-108.4
X217.63Y-109.4
X217.63Y-110.4
X217.63Y-111.4
X217.63Y-122.84
X217.63Y-123.84
X217.63Y-124.84
X217.63Y-125.84
X217.63Y-126.84
X217.63Y-127.84
X217.63Y-128.84
X217.66Y-67.56
X217.67Y-92.16
X217.67Y-93.16
X217.67Y-94.16
X217.67Y-95.16
X217.67Y-96.16
X217.67Y-97.16
X217.67Y-98.16
X217.67Y-99.16
X217.67Y-100.16
X217.67Y-101.16
X217.68Y-112.66
X217.68Y-113.66
X217.68Y-114.66
X217.68Y-115.66
X217.68Y-116.66
X217.68Y-117.66
X217.68Y-118.66
X217.68Y-119.66
X217.68Y-120.66
X217.68Y-121.66
X217.71Y-81.89
X217.71Y-82.89
X217.71Y-83.89
X217.71Y-84.89
X217.71Y-85.89
X217.71Y-86.89
X217.71Y-87.89
X217.71Y-88.89
X217.71Y-89.89
X217.71Y-90.89
X217.83Y-57.73
X218.0Y-47.0
X218.63Y-102.4
X218.63Y-103.4
X218.63Y-104.4
X218.63Y-105.4
X218.63Y-106.4
X218.63Y-107.4
X218.63Y-108.4
X218.63Y-109.4
X218.63Y-110.4
X218.63Y-111.4
X218.63Y-122.84
X218.63Y-123.84
X218.63Y-124.84
X218.63Y-125.84
X218.63Y-126.84
X218.63Y-127.84
X218.63Y-128.84
X218.67Y-92.16
X218.67Y-93.16
X218.67Y-94.16
X218.67Y-95.16
X218.67Y-96.16
X218.67Y-97.16
X218.67Y-98.16
X218.67Y-99.16
X218.67Y-100.16
X218.67Y-101.16
X218.68Y-112.66
X218.68Y-113.66
X218.68Y-114.66
X218.68Y-115.66
X218.68Y-116.66
X218.68Y-117.66
X218.68Y-118.66
X218.68Y-119.66
X218.68Y-120.66
X218.68Y-121.66
X218.71Y-81.89
X218.71Y-82.89
X218.71Y-83.89
X218.71Y-84.89
X218.71Y-85.89
X218.71Y-86.89
X218.71Y-87.89
X218.71Y-88.89
X218.71Y-89.89
X218.71Y-90.89
T2
X52.6Y-50.0
X52.6Y-123.0
X53.303Y-48.303
X53.303Y-51.697
X53.303Y-121.303
X53.303Y-124.697
X55.0Y-47.6
X55.0Y-52.4
X55.0Y-120.6
X55.0Y-125.4
X56.697Y-48.303
X56.697Y-51.697
X56.697Y-121.303
X56.697Y-124.697
X57.4Y-50.0
X57.4Y-123.0
X157.6Y-117.0
X158.303Y-115.303
X158.303Y-118.697
X160.0Y-114.6
X160.0Y-119.4
X161.697Y-115.303
X161.697Y-118.697
X162.4Y-117.0
X173.1Y-50.0
X173.803Y-48.303
X173.803Y-51.697
X175.5Y-47.6
X175.5Y-52.4
X177.197Y-48.303
X177.197Y-51.697
X177.9Y-50.0
X210.6Y-123.0
X211.303Y-121.303
X211.303Y-124.697
X213.0Y-120.6
X213.0Y-125.4
X214.697Y-121.303
X214.697Y-124.697
X215.4Y-123.0
T4
X157.5Y-73.71
X157.5Y-81.33
X160.04Y-73.71
X160.04Y-81.33
X162.58Y-73.71
X162.58Y-81.33
X165.12Y-73.71
X165.12Y-81.33
T5
X52.557Y-59.82
X52.557Y-62.36
X52.557Y-64.9
X52.557Y-67.44
X52.557Y-69.98
X53.362Y-85.011
X53.362Y-87.551
X53.362Y-90.091
X53.362Y-92.631
X53.362Y-95.171
X55.097Y-59.82
X55.097Y-62.36
X55.097Y-64.9
X55.097Y-67.44
X55.097Y-69.98
X55.902Y-85.011
X55.902Y-87.551
X55.902Y-90.091
X55.902Y-92.631
X55.902Y-95.171
X72.3Y-102.325
X72.3Y-104.865
X72.3Y-107.405
X72.3Y-109.945
X72.3Y-112.485
X72.3Y-115.025
X72.675Y-76.995
X72.675Y-79.535
X72.675Y-82.075
X73.0Y-86.91
X73.0Y-89.45
X73.0Y-91.99
X73.0Y-94.53
X184.43Y-63.69
X184.43Y-66.23
X184.43Y-68.77
X184.43Y-71.31
T6
X195.68Y-48.44
X195.68Y-75.94
X211.37Y-48.52
X211.37Y-76.02
T7
X114.5Y-50.7
X117.0Y-48.2
X117.0Y-60.5
X122.0Y-50.7
X127.0Y-48.2
X127.0Y-60.5
X129.5Y-50.7
X134.0Y-50.7
X136.5Y-48.2
X136.5Y-60.5
X141.5Y-50.7
X146.5Y-48.2
X146.5Y-60.5
X149.0Y-50.7
X153.5Y-50.7
X156.0Y-48.2
X156.0Y-60.5
X161.0Y-50.7
X166.0Y-48.2
X166.0Y-60.5
X168.5Y-50.7
T8
X64.2Y-67.45
T9
X55.0Y-50.0
X55.0Y-123.0
X160.0Y-117.0
X175.5Y-50.0
X213.0Y-123.0
T3
X63.38Y-46.6G85X63.38Y-46.0
G05
X63.38Y-51.03G85X63.38Y-49.93
G05
X72.02Y-46.6G85X72.02Y-46.0
G05
X72.02Y-51.03G85X72.02Y-49.93
G05
T4
X181.685Y-48.7G85X180.885Y-48.7
G05
X181.685Y-54.3G85X180.885Y-54.3
G05
X183.885Y-46.2G85X183.085Y-46.2
G05
X183.885Y-52.4G85X183.085Y-52.4
G05
X183.885Y-58.0G85X183.085Y-58.0
G05
T0
M30
