%TF.GenerationSoftware,KiCad,Pcbnew,(6.0.0)*%
%TF.CreationDate,2023-05-12T18:21:32+02:00*%
%TF.ProjectId,main_func,6d61696e-5f66-4756-9e63-2e6b69636164,rev?*%
%TF.SameCoordinates,Original*%
%TF.FileFunction,Legend,Top*%
%TF.FilePolarity,Positive*%
%FSLAX46Y46*%
G04 Gerber Fmt 4.6, Leading zero omitted, Abs format (unit mm)*
G04 Created by KiCad (PCBNEW (6.0.0)) date 2023-05-12 18:21:32*
%MOMM*%
%LPD*%
G01*
G04 APERTURE LIST*
%ADD10C,0.300000*%
%ADD11C,0.150000*%
%ADD12C,0.254000*%
%ADD13C,0.120000*%
%ADD14C,0.127000*%
%ADD15C,0.152400*%
%ADD16C,0.200000*%
G04 APERTURE END LIST*
D10*
X76457142Y-67985714D02*
X76385714Y-68057142D01*
X76171428Y-68128571D01*
X76028571Y-68128571D01*
X75814285Y-68057142D01*
X75671428Y-67914285D01*
X75600000Y-67771428D01*
X75528571Y-67485714D01*
X75528571Y-67271428D01*
X75600000Y-66985714D01*
X75671428Y-66842857D01*
X75814285Y-66700000D01*
X76028571Y-66628571D01*
X76171428Y-66628571D01*
X76385714Y-66700000D01*
X76457142Y-66771428D01*
X77100000Y-68128571D02*
X77100000Y-66628571D01*
X77742857Y-68128571D02*
X77742857Y-67342857D01*
X77671428Y-67200000D01*
X77528571Y-67128571D01*
X77314285Y-67128571D01*
X77171428Y-67200000D01*
X77100000Y-67271428D01*
X79100000Y-68128571D02*
X79100000Y-67342857D01*
X79028571Y-67200000D01*
X78885714Y-67128571D01*
X78600000Y-67128571D01*
X78457142Y-67200000D01*
X79100000Y-68057142D02*
X78957142Y-68128571D01*
X78600000Y-68128571D01*
X78457142Y-68057142D01*
X78385714Y-67914285D01*
X78385714Y-67771428D01*
X78457142Y-67628571D01*
X78600000Y-67557142D01*
X78957142Y-67557142D01*
X79100000Y-67485714D01*
X79814285Y-68128571D02*
X79814285Y-67128571D01*
X79814285Y-67414285D02*
X79885714Y-67271428D01*
X79957142Y-67200000D01*
X80100000Y-67128571D01*
X80242857Y-67128571D01*
X81385714Y-67128571D02*
X81385714Y-68342857D01*
X81314285Y-68485714D01*
X81242857Y-68557142D01*
X81100000Y-68628571D01*
X80885714Y-68628571D01*
X80742857Y-68557142D01*
X81385714Y-68057142D02*
X81242857Y-68128571D01*
X80957142Y-68128571D01*
X80814285Y-68057142D01*
X80742857Y-67985714D01*
X80671428Y-67842857D01*
X80671428Y-67414285D01*
X80742857Y-67271428D01*
X80814285Y-67200000D01*
X80957142Y-67128571D01*
X81242857Y-67128571D01*
X81385714Y-67200000D01*
X82671428Y-68057142D02*
X82528571Y-68128571D01*
X82242857Y-68128571D01*
X82100000Y-68057142D01*
X82028571Y-67914285D01*
X82028571Y-67342857D01*
X82100000Y-67200000D01*
X82242857Y-67128571D01*
X82528571Y-67128571D01*
X82671428Y-67200000D01*
X82742857Y-67342857D01*
X82742857Y-67485714D01*
X82028571Y-67628571D01*
X83385714Y-68128571D02*
X83385714Y-67128571D01*
X83385714Y-67414285D02*
X83457142Y-67271428D01*
X83528571Y-67200000D01*
X83671428Y-67128571D01*
X83814285Y-67128571D01*
X62828571Y-70828571D02*
X62828571Y-72042857D01*
X62899999Y-72185714D01*
X62971428Y-72257142D01*
X63114285Y-72328571D01*
X63399999Y-72328571D01*
X63542857Y-72257142D01*
X63614285Y-72185714D01*
X63685714Y-72042857D01*
X63685714Y-70828571D01*
X64328571Y-72257142D02*
X64542857Y-72328571D01*
X64899999Y-72328571D01*
X65042857Y-72257142D01*
X65114285Y-72185714D01*
X65185714Y-72042857D01*
X65185714Y-71900000D01*
X65114285Y-71757142D01*
X65042857Y-71685714D01*
X64899999Y-71614285D01*
X64614285Y-71542857D01*
X64471428Y-71471428D01*
X64399999Y-71400000D01*
X64328571Y-71257142D01*
X64328571Y-71114285D01*
X64399999Y-70971428D01*
X64471428Y-70900000D01*
X64614285Y-70828571D01*
X64971428Y-70828571D01*
X65185714Y-70900000D01*
X66328571Y-71542857D02*
X66542857Y-71614285D01*
X66614285Y-71685714D01*
X66685714Y-71828571D01*
X66685714Y-72042857D01*
X66614285Y-72185714D01*
X66542857Y-72257142D01*
X66399999Y-72328571D01*
X65828571Y-72328571D01*
X65828571Y-70828571D01*
X66328571Y-70828571D01*
X66471428Y-70900000D01*
X66542857Y-70971428D01*
X66614285Y-71114285D01*
X66614285Y-71257142D01*
X66542857Y-71400000D01*
X66471428Y-71471428D01*
X66328571Y-71542857D01*
X65828571Y-71542857D01*
X68400000Y-72257142D02*
X68542857Y-72328571D01*
X68828571Y-72328571D01*
X68971428Y-72257142D01*
X69042857Y-72114285D01*
X69042857Y-72042857D01*
X68971428Y-71900000D01*
X68828571Y-71828571D01*
X68614285Y-71828571D01*
X68471428Y-71757142D01*
X68400000Y-71614285D01*
X68400000Y-71542857D01*
X68471428Y-71400000D01*
X68614285Y-71328571D01*
X68828571Y-71328571D01*
X68971428Y-71400000D01*
X70328571Y-71328571D02*
X70328571Y-72328571D01*
X69685714Y-71328571D02*
X69685714Y-72114285D01*
X69757142Y-72257142D01*
X69900000Y-72328571D01*
X70114285Y-72328571D01*
X70257142Y-72257142D01*
X70328571Y-72185714D01*
X71042857Y-71328571D02*
X71042857Y-72828571D01*
X71042857Y-71400000D02*
X71185714Y-71328571D01*
X71471428Y-71328571D01*
X71614285Y-71400000D01*
X71685714Y-71471428D01*
X71757142Y-71614285D01*
X71757142Y-72042857D01*
X71685714Y-72185714D01*
X71614285Y-72257142D01*
X71471428Y-72328571D01*
X71185714Y-72328571D01*
X71042857Y-72257142D01*
X72400000Y-71328571D02*
X72400000Y-72828571D01*
X72400000Y-71400000D02*
X72542857Y-71328571D01*
X72828571Y-71328571D01*
X72971428Y-71400000D01*
X73042857Y-71471428D01*
X73114285Y-71614285D01*
X73114285Y-72042857D01*
X73042857Y-72185714D01*
X72971428Y-72257142D01*
X72828571Y-72328571D01*
X72542857Y-72328571D01*
X72400000Y-72257142D01*
X73971428Y-72328571D02*
X73828571Y-72257142D01*
X73757142Y-72114285D01*
X73757142Y-70828571D01*
X74400000Y-71328571D02*
X74757142Y-72328571D01*
X75114285Y-71328571D02*
X74757142Y-72328571D01*
X74614285Y-72685714D01*
X74542857Y-72757142D01*
X74400000Y-72828571D01*
D11*
%TO.C,C10*%
X217117142Y-80507142D02*
X217069523Y-80554761D01*
X216926666Y-80602380D01*
X216831428Y-80602380D01*
X216688571Y-80554761D01*
X216593333Y-80459523D01*
X216545714Y-80364285D01*
X216498095Y-80173809D01*
X216498095Y-80030952D01*
X216545714Y-79840476D01*
X216593333Y-79745238D01*
X216688571Y-79650000D01*
X216831428Y-79602380D01*
X216926666Y-79602380D01*
X217069523Y-79650000D01*
X217117142Y-79697619D01*
X218069523Y-80602380D02*
X217498095Y-80602380D01*
X217783809Y-80602380D02*
X217783809Y-79602380D01*
X217688571Y-79745238D01*
X217593333Y-79840476D01*
X217498095Y-79888095D01*
X218688571Y-79602380D02*
X218783809Y-79602380D01*
X218879047Y-79650000D01*
X218926666Y-79697619D01*
X218974285Y-79792857D01*
X219021904Y-79983333D01*
X219021904Y-80221428D01*
X218974285Y-80411904D01*
X218926666Y-80507142D01*
X218879047Y-80554761D01*
X218783809Y-80602380D01*
X218688571Y-80602380D01*
X218593333Y-80554761D01*
X218545714Y-80507142D01*
X218498095Y-80411904D01*
X218450476Y-80221428D01*
X218450476Y-79983333D01*
X218498095Y-79792857D01*
X218545714Y-79697619D01*
X218593333Y-79650000D01*
X218688571Y-79602380D01*
%TO.C,C36*%
X109257142Y-84307142D02*
X109209523Y-84354761D01*
X109066666Y-84402380D01*
X108971428Y-84402380D01*
X108828571Y-84354761D01*
X108733333Y-84259523D01*
X108685714Y-84164285D01*
X108638095Y-83973809D01*
X108638095Y-83830952D01*
X108685714Y-83640476D01*
X108733333Y-83545238D01*
X108828571Y-83450000D01*
X108971428Y-83402380D01*
X109066666Y-83402380D01*
X109209523Y-83450000D01*
X109257142Y-83497619D01*
X109590476Y-83402380D02*
X110209523Y-83402380D01*
X109876190Y-83783333D01*
X110019047Y-83783333D01*
X110114285Y-83830952D01*
X110161904Y-83878571D01*
X110209523Y-83973809D01*
X110209523Y-84211904D01*
X110161904Y-84307142D01*
X110114285Y-84354761D01*
X110019047Y-84402380D01*
X109733333Y-84402380D01*
X109638095Y-84354761D01*
X109590476Y-84307142D01*
X111066666Y-83402380D02*
X110876190Y-83402380D01*
X110780952Y-83450000D01*
X110733333Y-83497619D01*
X110638095Y-83640476D01*
X110590476Y-83830952D01*
X110590476Y-84211904D01*
X110638095Y-84307142D01*
X110685714Y-84354761D01*
X110780952Y-84402380D01*
X110971428Y-84402380D01*
X111066666Y-84354761D01*
X111114285Y-84307142D01*
X111161904Y-84211904D01*
X111161904Y-83973809D01*
X111114285Y-83878571D01*
X111066666Y-83830952D01*
X110971428Y-83783333D01*
X110780952Y-83783333D01*
X110685714Y-83830952D01*
X110638095Y-83878571D01*
X110590476Y-83973809D01*
%TO.C,F1*%
X67228457Y-61183863D02*
X67228457Y-61517727D01*
X67753100Y-61517727D02*
X66751509Y-61517727D01*
X66751509Y-61040779D01*
X67753100Y-60134577D02*
X67753100Y-60706915D01*
X67753100Y-60420746D02*
X66751509Y-60420746D01*
X66894594Y-60516136D01*
X66989983Y-60611525D01*
X67037678Y-60706915D01*
%TO.C,R29*%
X93157142Y-115002380D02*
X92823809Y-114526190D01*
X92585714Y-115002380D02*
X92585714Y-114002380D01*
X92966666Y-114002380D01*
X93061904Y-114050000D01*
X93109523Y-114097619D01*
X93157142Y-114192857D01*
X93157142Y-114335714D01*
X93109523Y-114430952D01*
X93061904Y-114478571D01*
X92966666Y-114526190D01*
X92585714Y-114526190D01*
X93538095Y-114097619D02*
X93585714Y-114050000D01*
X93680952Y-114002380D01*
X93919047Y-114002380D01*
X94014285Y-114050000D01*
X94061904Y-114097619D01*
X94109523Y-114192857D01*
X94109523Y-114288095D01*
X94061904Y-114430952D01*
X93490476Y-115002380D01*
X94109523Y-115002380D01*
X94585714Y-115002380D02*
X94776190Y-115002380D01*
X94871428Y-114954761D01*
X94919047Y-114907142D01*
X95014285Y-114764285D01*
X95061904Y-114573809D01*
X95061904Y-114192857D01*
X95014285Y-114097619D01*
X94966666Y-114050000D01*
X94871428Y-114002380D01*
X94680952Y-114002380D01*
X94585714Y-114050000D01*
X94538095Y-114097619D01*
X94490476Y-114192857D01*
X94490476Y-114430952D01*
X94538095Y-114526190D01*
X94585714Y-114573809D01*
X94680952Y-114621428D01*
X94871428Y-114621428D01*
X94966666Y-114573809D01*
X95014285Y-114526190D01*
X95061904Y-114430952D01*
%TO.C,C2*%
X213223333Y-89207142D02*
X213175714Y-89254761D01*
X213032857Y-89302380D01*
X212937619Y-89302380D01*
X212794761Y-89254761D01*
X212699523Y-89159523D01*
X212651904Y-89064285D01*
X212604285Y-88873809D01*
X212604285Y-88730952D01*
X212651904Y-88540476D01*
X212699523Y-88445238D01*
X212794761Y-88350000D01*
X212937619Y-88302380D01*
X213032857Y-88302380D01*
X213175714Y-88350000D01*
X213223333Y-88397619D01*
X213604285Y-88397619D02*
X213651904Y-88350000D01*
X213747142Y-88302380D01*
X213985238Y-88302380D01*
X214080476Y-88350000D01*
X214128095Y-88397619D01*
X214175714Y-88492857D01*
X214175714Y-88588095D01*
X214128095Y-88730952D01*
X213556666Y-89302380D01*
X214175714Y-89302380D01*
%TO.C,R19*%
X81457142Y-58002380D02*
X81123809Y-57526190D01*
X80885714Y-58002380D02*
X80885714Y-57002380D01*
X81266666Y-57002380D01*
X81361904Y-57050000D01*
X81409523Y-57097619D01*
X81457142Y-57192857D01*
X81457142Y-57335714D01*
X81409523Y-57430952D01*
X81361904Y-57478571D01*
X81266666Y-57526190D01*
X80885714Y-57526190D01*
X82409523Y-58002380D02*
X81838095Y-58002380D01*
X82123809Y-58002380D02*
X82123809Y-57002380D01*
X82028571Y-57145238D01*
X81933333Y-57240476D01*
X81838095Y-57288095D01*
X82885714Y-58002380D02*
X83076190Y-58002380D01*
X83171428Y-57954761D01*
X83219047Y-57907142D01*
X83314285Y-57764285D01*
X83361904Y-57573809D01*
X83361904Y-57192857D01*
X83314285Y-57097619D01*
X83266666Y-57050000D01*
X83171428Y-57002380D01*
X82980952Y-57002380D01*
X82885714Y-57050000D01*
X82838095Y-57097619D01*
X82790476Y-57192857D01*
X82790476Y-57430952D01*
X82838095Y-57526190D01*
X82885714Y-57573809D01*
X82980952Y-57621428D01*
X83171428Y-57621428D01*
X83266666Y-57573809D01*
X83314285Y-57526190D01*
X83361904Y-57430952D01*
%TO.C,R16*%
X74202380Y-58792857D02*
X73726190Y-59126190D01*
X74202380Y-59364285D02*
X73202380Y-59364285D01*
X73202380Y-58983333D01*
X73250000Y-58888095D01*
X73297619Y-58840476D01*
X73392857Y-58792857D01*
X73535714Y-58792857D01*
X73630952Y-58840476D01*
X73678571Y-58888095D01*
X73726190Y-58983333D01*
X73726190Y-59364285D01*
X74202380Y-57840476D02*
X74202380Y-58411904D01*
X74202380Y-58126190D02*
X73202380Y-58126190D01*
X73345238Y-58221428D01*
X73440476Y-58316666D01*
X73488095Y-58411904D01*
X73202380Y-56983333D02*
X73202380Y-57173809D01*
X73250000Y-57269047D01*
X73297619Y-57316666D01*
X73440476Y-57411904D01*
X73630952Y-57459523D01*
X74011904Y-57459523D01*
X74107142Y-57411904D01*
X74154761Y-57364285D01*
X74202380Y-57269047D01*
X74202380Y-57078571D01*
X74154761Y-56983333D01*
X74107142Y-56935714D01*
X74011904Y-56888095D01*
X73773809Y-56888095D01*
X73678571Y-56935714D01*
X73630952Y-56983333D01*
X73583333Y-57078571D01*
X73583333Y-57269047D01*
X73630952Y-57364285D01*
X73678571Y-57411904D01*
X73773809Y-57459523D01*
%TO.C,H4*%
X209158095Y-119692380D02*
X209158095Y-118692380D01*
X209158095Y-119168571D02*
X209729523Y-119168571D01*
X209729523Y-119692380D02*
X209729523Y-118692380D01*
X210634285Y-119025714D02*
X210634285Y-119692380D01*
X210396190Y-118644761D02*
X210158095Y-119359047D01*
X210777142Y-119359047D01*
%TO.C,C12*%
X188787142Y-91107142D02*
X188739523Y-91154761D01*
X188596666Y-91202380D01*
X188501428Y-91202380D01*
X188358571Y-91154761D01*
X188263333Y-91059523D01*
X188215714Y-90964285D01*
X188168095Y-90773809D01*
X188168095Y-90630952D01*
X188215714Y-90440476D01*
X188263333Y-90345238D01*
X188358571Y-90250000D01*
X188501428Y-90202380D01*
X188596666Y-90202380D01*
X188739523Y-90250000D01*
X188787142Y-90297619D01*
X189739523Y-91202380D02*
X189168095Y-91202380D01*
X189453809Y-91202380D02*
X189453809Y-90202380D01*
X189358571Y-90345238D01*
X189263333Y-90440476D01*
X189168095Y-90488095D01*
X190120476Y-90297619D02*
X190168095Y-90250000D01*
X190263333Y-90202380D01*
X190501428Y-90202380D01*
X190596666Y-90250000D01*
X190644285Y-90297619D01*
X190691904Y-90392857D01*
X190691904Y-90488095D01*
X190644285Y-90630952D01*
X190072857Y-91202380D01*
X190691904Y-91202380D01*
%TO.C,R33*%
X144067142Y-86532380D02*
X143733809Y-86056190D01*
X143495714Y-86532380D02*
X143495714Y-85532380D01*
X143876666Y-85532380D01*
X143971904Y-85580000D01*
X144019523Y-85627619D01*
X144067142Y-85722857D01*
X144067142Y-85865714D01*
X144019523Y-85960952D01*
X143971904Y-86008571D01*
X143876666Y-86056190D01*
X143495714Y-86056190D01*
X144400476Y-85532380D02*
X145019523Y-85532380D01*
X144686190Y-85913333D01*
X144829047Y-85913333D01*
X144924285Y-85960952D01*
X144971904Y-86008571D01*
X145019523Y-86103809D01*
X145019523Y-86341904D01*
X144971904Y-86437142D01*
X144924285Y-86484761D01*
X144829047Y-86532380D01*
X144543333Y-86532380D01*
X144448095Y-86484761D01*
X144400476Y-86437142D01*
X145352857Y-85532380D02*
X145971904Y-85532380D01*
X145638571Y-85913333D01*
X145781428Y-85913333D01*
X145876666Y-85960952D01*
X145924285Y-86008571D01*
X145971904Y-86103809D01*
X145971904Y-86341904D01*
X145924285Y-86437142D01*
X145876666Y-86484761D01*
X145781428Y-86532380D01*
X145495714Y-86532380D01*
X145400476Y-86484761D01*
X145352857Y-86437142D01*
%TO.C,R34*%
X59807142Y-94362380D02*
X59473809Y-93886190D01*
X59235714Y-94362380D02*
X59235714Y-93362380D01*
X59616666Y-93362380D01*
X59711904Y-93410000D01*
X59759523Y-93457619D01*
X59807142Y-93552857D01*
X59807142Y-93695714D01*
X59759523Y-93790952D01*
X59711904Y-93838571D01*
X59616666Y-93886190D01*
X59235714Y-93886190D01*
X60140476Y-93362380D02*
X60759523Y-93362380D01*
X60426190Y-93743333D01*
X60569047Y-93743333D01*
X60664285Y-93790952D01*
X60711904Y-93838571D01*
X60759523Y-93933809D01*
X60759523Y-94171904D01*
X60711904Y-94267142D01*
X60664285Y-94314761D01*
X60569047Y-94362380D01*
X60283333Y-94362380D01*
X60188095Y-94314761D01*
X60140476Y-94267142D01*
X61616666Y-93695714D02*
X61616666Y-94362380D01*
X61378571Y-93314761D02*
X61140476Y-94029047D01*
X61759523Y-94029047D01*
%TO.C,J9*%
X67586666Y-99007380D02*
X67586666Y-99721666D01*
X67539047Y-99864523D01*
X67443809Y-99959761D01*
X67300952Y-100007380D01*
X67205714Y-100007380D01*
X68110476Y-100007380D02*
X68300952Y-100007380D01*
X68396190Y-99959761D01*
X68443809Y-99912142D01*
X68539047Y-99769285D01*
X68586666Y-99578809D01*
X68586666Y-99197857D01*
X68539047Y-99102619D01*
X68491428Y-99055000D01*
X68396190Y-99007380D01*
X68205714Y-99007380D01*
X68110476Y-99055000D01*
X68062857Y-99102619D01*
X68015238Y-99197857D01*
X68015238Y-99435952D01*
X68062857Y-99531190D01*
X68110476Y-99578809D01*
X68205714Y-99626428D01*
X68396190Y-99626428D01*
X68491428Y-99578809D01*
X68539047Y-99531190D01*
X68586666Y-99435952D01*
%TO.C,C11*%
X202177142Y-80307142D02*
X202129523Y-80354761D01*
X201986666Y-80402380D01*
X201891428Y-80402380D01*
X201748571Y-80354761D01*
X201653333Y-80259523D01*
X201605714Y-80164285D01*
X201558095Y-79973809D01*
X201558095Y-79830952D01*
X201605714Y-79640476D01*
X201653333Y-79545238D01*
X201748571Y-79450000D01*
X201891428Y-79402380D01*
X201986666Y-79402380D01*
X202129523Y-79450000D01*
X202177142Y-79497619D01*
X203129523Y-80402380D02*
X202558095Y-80402380D01*
X202843809Y-80402380D02*
X202843809Y-79402380D01*
X202748571Y-79545238D01*
X202653333Y-79640476D01*
X202558095Y-79688095D01*
X204081904Y-80402380D02*
X203510476Y-80402380D01*
X203796190Y-80402380D02*
X203796190Y-79402380D01*
X203700952Y-79545238D01*
X203605714Y-79640476D01*
X203510476Y-79688095D01*
%TO.C,C14*%
X197047142Y-86427142D02*
X196999523Y-86474761D01*
X196856666Y-86522380D01*
X196761428Y-86522380D01*
X196618571Y-86474761D01*
X196523333Y-86379523D01*
X196475714Y-86284285D01*
X196428095Y-86093809D01*
X196428095Y-85950952D01*
X196475714Y-85760476D01*
X196523333Y-85665238D01*
X196618571Y-85570000D01*
X196761428Y-85522380D01*
X196856666Y-85522380D01*
X196999523Y-85570000D01*
X197047142Y-85617619D01*
X197999523Y-86522380D02*
X197428095Y-86522380D01*
X197713809Y-86522380D02*
X197713809Y-85522380D01*
X197618571Y-85665238D01*
X197523333Y-85760476D01*
X197428095Y-85808095D01*
X198856666Y-85855714D02*
X198856666Y-86522380D01*
X198618571Y-85474761D02*
X198380476Y-86189047D01*
X198999523Y-86189047D01*
%TO.C,U8*%
X121198095Y-47262380D02*
X121198095Y-48071904D01*
X121245714Y-48167142D01*
X121293333Y-48214761D01*
X121388571Y-48262380D01*
X121579047Y-48262380D01*
X121674285Y-48214761D01*
X121721904Y-48167142D01*
X121769523Y-48071904D01*
X121769523Y-47262380D01*
X122388571Y-47690952D02*
X122293333Y-47643333D01*
X122245714Y-47595714D01*
X122198095Y-47500476D01*
X122198095Y-47452857D01*
X122245714Y-47357619D01*
X122293333Y-47310000D01*
X122388571Y-47262380D01*
X122579047Y-47262380D01*
X122674285Y-47310000D01*
X122721904Y-47357619D01*
X122769523Y-47452857D01*
X122769523Y-47500476D01*
X122721904Y-47595714D01*
X122674285Y-47643333D01*
X122579047Y-47690952D01*
X122388571Y-47690952D01*
X122293333Y-47738571D01*
X122245714Y-47786190D01*
X122198095Y-47881428D01*
X122198095Y-48071904D01*
X122245714Y-48167142D01*
X122293333Y-48214761D01*
X122388571Y-48262380D01*
X122579047Y-48262380D01*
X122674285Y-48214761D01*
X122721904Y-48167142D01*
X122769523Y-48071904D01*
X122769523Y-47881428D01*
X122721904Y-47786190D01*
X122674285Y-47738571D01*
X122579047Y-47690952D01*
X115721904Y-65664761D02*
X115721904Y-63664761D01*
X116388571Y-65093333D01*
X117055238Y-63664761D01*
X117055238Y-65664761D01*
X118007619Y-65664761D02*
X118007619Y-63664761D01*
X118960000Y-65664761D02*
X118960000Y-63664761D01*
X119436190Y-63664761D01*
X119721904Y-63760000D01*
X119912380Y-63950476D01*
X120007619Y-64140952D01*
X120102857Y-64521904D01*
X120102857Y-64807619D01*
X120007619Y-65188571D01*
X119912380Y-65379047D01*
X119721904Y-65569523D01*
X119436190Y-65664761D01*
X118960000Y-65664761D01*
X120960000Y-65664761D02*
X120960000Y-63664761D01*
X121436190Y-65855238D02*
X122960000Y-65855238D01*
X123817142Y-63664761D02*
X124198095Y-63664761D01*
X124388571Y-63760000D01*
X124579047Y-63950476D01*
X124674285Y-64331428D01*
X124674285Y-64998095D01*
X124579047Y-65379047D01*
X124388571Y-65569523D01*
X124198095Y-65664761D01*
X123817142Y-65664761D01*
X123626666Y-65569523D01*
X123436190Y-65379047D01*
X123340952Y-64998095D01*
X123340952Y-64331428D01*
X123436190Y-63950476D01*
X123626666Y-63760000D01*
X123817142Y-63664761D01*
X125531428Y-63664761D02*
X125531428Y-65283809D01*
X125626666Y-65474285D01*
X125721904Y-65569523D01*
X125912380Y-65664761D01*
X126293333Y-65664761D01*
X126483809Y-65569523D01*
X126579047Y-65474285D01*
X126674285Y-65283809D01*
X126674285Y-63664761D01*
X127340952Y-63664761D02*
X128483809Y-63664761D01*
X127912380Y-65664761D02*
X127912380Y-63664761D01*
%TO.C,C31*%
X105857142Y-103227142D02*
X105809523Y-103274761D01*
X105666666Y-103322380D01*
X105571428Y-103322380D01*
X105428571Y-103274761D01*
X105333333Y-103179523D01*
X105285714Y-103084285D01*
X105238095Y-102893809D01*
X105238095Y-102750952D01*
X105285714Y-102560476D01*
X105333333Y-102465238D01*
X105428571Y-102370000D01*
X105571428Y-102322380D01*
X105666666Y-102322380D01*
X105809523Y-102370000D01*
X105857142Y-102417619D01*
X106190476Y-102322380D02*
X106809523Y-102322380D01*
X106476190Y-102703333D01*
X106619047Y-102703333D01*
X106714285Y-102750952D01*
X106761904Y-102798571D01*
X106809523Y-102893809D01*
X106809523Y-103131904D01*
X106761904Y-103227142D01*
X106714285Y-103274761D01*
X106619047Y-103322380D01*
X106333333Y-103322380D01*
X106238095Y-103274761D01*
X106190476Y-103227142D01*
X107761904Y-103322380D02*
X107190476Y-103322380D01*
X107476190Y-103322380D02*
X107476190Y-102322380D01*
X107380952Y-102465238D01*
X107285714Y-102560476D01*
X107190476Y-102608095D01*
%TO.C,R13*%
X172667142Y-96532380D02*
X172333809Y-96056190D01*
X172095714Y-96532380D02*
X172095714Y-95532380D01*
X172476666Y-95532380D01*
X172571904Y-95580000D01*
X172619523Y-95627619D01*
X172667142Y-95722857D01*
X172667142Y-95865714D01*
X172619523Y-95960952D01*
X172571904Y-96008571D01*
X172476666Y-96056190D01*
X172095714Y-96056190D01*
X173619523Y-96532380D02*
X173048095Y-96532380D01*
X173333809Y-96532380D02*
X173333809Y-95532380D01*
X173238571Y-95675238D01*
X173143333Y-95770476D01*
X173048095Y-95818095D01*
X173952857Y-95532380D02*
X174571904Y-95532380D01*
X174238571Y-95913333D01*
X174381428Y-95913333D01*
X174476666Y-95960952D01*
X174524285Y-96008571D01*
X174571904Y-96103809D01*
X174571904Y-96341904D01*
X174524285Y-96437142D01*
X174476666Y-96484761D01*
X174381428Y-96532380D01*
X174095714Y-96532380D01*
X174000476Y-96484761D01*
X173952857Y-96437142D01*
%TO.C,R11*%
X172797142Y-103732380D02*
X172463809Y-103256190D01*
X172225714Y-103732380D02*
X172225714Y-102732380D01*
X172606666Y-102732380D01*
X172701904Y-102780000D01*
X172749523Y-102827619D01*
X172797142Y-102922857D01*
X172797142Y-103065714D01*
X172749523Y-103160952D01*
X172701904Y-103208571D01*
X172606666Y-103256190D01*
X172225714Y-103256190D01*
X173749523Y-103732380D02*
X173178095Y-103732380D01*
X173463809Y-103732380D02*
X173463809Y-102732380D01*
X173368571Y-102875238D01*
X173273333Y-102970476D01*
X173178095Y-103018095D01*
X174701904Y-103732380D02*
X174130476Y-103732380D01*
X174416190Y-103732380D02*
X174416190Y-102732380D01*
X174320952Y-102875238D01*
X174225714Y-102970476D01*
X174130476Y-103018095D01*
%TO.C,H2*%
X58388095Y-125942380D02*
X58388095Y-124942380D01*
X58388095Y-125418571D02*
X58959523Y-125418571D01*
X58959523Y-125942380D02*
X58959523Y-124942380D01*
X59388095Y-125037619D02*
X59435714Y-124990000D01*
X59530952Y-124942380D01*
X59769047Y-124942380D01*
X59864285Y-124990000D01*
X59911904Y-125037619D01*
X59959523Y-125132857D01*
X59959523Y-125228095D01*
X59911904Y-125370952D01*
X59340476Y-125942380D01*
X59959523Y-125942380D01*
%TO.C,U3*%
X198268095Y-108862380D02*
X198268095Y-109671904D01*
X198315714Y-109767142D01*
X198363333Y-109814761D01*
X198458571Y-109862380D01*
X198649047Y-109862380D01*
X198744285Y-109814761D01*
X198791904Y-109767142D01*
X198839523Y-109671904D01*
X198839523Y-108862380D01*
X199220476Y-108862380D02*
X199839523Y-108862380D01*
X199506190Y-109243333D01*
X199649047Y-109243333D01*
X199744285Y-109290952D01*
X199791904Y-109338571D01*
X199839523Y-109433809D01*
X199839523Y-109671904D01*
X199791904Y-109767142D01*
X199744285Y-109814761D01*
X199649047Y-109862380D01*
X199363333Y-109862380D01*
X199268095Y-109814761D01*
X199220476Y-109767142D01*
%TO.C,C33*%
X100586431Y-71974909D02*
X100538812Y-72022528D01*
X100395955Y-72070147D01*
X100300717Y-72070147D01*
X100157860Y-72022528D01*
X100062622Y-71927290D01*
X100015003Y-71832052D01*
X99967384Y-71641576D01*
X99967384Y-71498719D01*
X100015003Y-71308243D01*
X100062622Y-71213005D01*
X100157860Y-71117767D01*
X100300717Y-71070147D01*
X100395955Y-71070147D01*
X100538812Y-71117767D01*
X100586431Y-71165386D01*
X100919765Y-71070147D02*
X101538812Y-71070147D01*
X101205479Y-71451100D01*
X101348336Y-71451100D01*
X101443574Y-71498719D01*
X101491193Y-71546338D01*
X101538812Y-71641576D01*
X101538812Y-71879671D01*
X101491193Y-71974909D01*
X101443574Y-72022528D01*
X101348336Y-72070147D01*
X101062622Y-72070147D01*
X100967384Y-72022528D01*
X100919765Y-71974909D01*
X101872146Y-71070147D02*
X102491193Y-71070147D01*
X102157860Y-71451100D01*
X102300717Y-71451100D01*
X102395955Y-71498719D01*
X102443574Y-71546338D01*
X102491193Y-71641576D01*
X102491193Y-71879671D01*
X102443574Y-71974909D01*
X102395955Y-72022528D01*
X102300717Y-72070147D01*
X102015003Y-72070147D01*
X101919765Y-72022528D01*
X101872146Y-71974909D01*
%TO.C,C35*%
X99397969Y-94057106D02*
X99397969Y-94124450D01*
X99330625Y-94259137D01*
X99263282Y-94326480D01*
X99128595Y-94393824D01*
X98993908Y-94393824D01*
X98892893Y-94360152D01*
X98724534Y-94259137D01*
X98623519Y-94158122D01*
X98522503Y-93989763D01*
X98488832Y-93888748D01*
X98488832Y-93754061D01*
X98556175Y-93619374D01*
X98623519Y-93552030D01*
X98758206Y-93484687D01*
X98825549Y-93484687D01*
X98993908Y-93181641D02*
X99431641Y-92743908D01*
X99465312Y-93248984D01*
X99566328Y-93147969D01*
X99667343Y-93114297D01*
X99734687Y-93114297D01*
X99835702Y-93147969D01*
X100004061Y-93316328D01*
X100037732Y-93417343D01*
X100037732Y-93484687D01*
X100004061Y-93585702D01*
X99802030Y-93787732D01*
X99701015Y-93821404D01*
X99633671Y-93821404D01*
X100071404Y-92104145D02*
X99734687Y-92440862D01*
X100037732Y-92811251D01*
X100037732Y-92743908D01*
X100071404Y-92642893D01*
X100239763Y-92474534D01*
X100340778Y-92440862D01*
X100408122Y-92440862D01*
X100509137Y-92474534D01*
X100677496Y-92642893D01*
X100711167Y-92743908D01*
X100711167Y-92811251D01*
X100677496Y-92912267D01*
X100509137Y-93080625D01*
X100408122Y-93114297D01*
X100340778Y-93114297D01*
%TO.C,R28*%
X172727142Y-92712380D02*
X172393809Y-92236190D01*
X172155714Y-92712380D02*
X172155714Y-91712380D01*
X172536666Y-91712380D01*
X172631904Y-91760000D01*
X172679523Y-91807619D01*
X172727142Y-91902857D01*
X172727142Y-92045714D01*
X172679523Y-92140952D01*
X172631904Y-92188571D01*
X172536666Y-92236190D01*
X172155714Y-92236190D01*
X173108095Y-91807619D02*
X173155714Y-91760000D01*
X173250952Y-91712380D01*
X173489047Y-91712380D01*
X173584285Y-91760000D01*
X173631904Y-91807619D01*
X173679523Y-91902857D01*
X173679523Y-91998095D01*
X173631904Y-92140952D01*
X173060476Y-92712380D01*
X173679523Y-92712380D01*
X174250952Y-92140952D02*
X174155714Y-92093333D01*
X174108095Y-92045714D01*
X174060476Y-91950476D01*
X174060476Y-91902857D01*
X174108095Y-91807619D01*
X174155714Y-91760000D01*
X174250952Y-91712380D01*
X174441428Y-91712380D01*
X174536666Y-91760000D01*
X174584285Y-91807619D01*
X174631904Y-91902857D01*
X174631904Y-91950476D01*
X174584285Y-92045714D01*
X174536666Y-92093333D01*
X174441428Y-92140952D01*
X174250952Y-92140952D01*
X174155714Y-92188571D01*
X174108095Y-92236190D01*
X174060476Y-92331428D01*
X174060476Y-92521904D01*
X174108095Y-92617142D01*
X174155714Y-92664761D01*
X174250952Y-92712380D01*
X174441428Y-92712380D01*
X174536666Y-92664761D01*
X174584285Y-92617142D01*
X174631904Y-92521904D01*
X174631904Y-92331428D01*
X174584285Y-92236190D01*
X174536666Y-92188571D01*
X174441428Y-92140952D01*
%TO.C,D5*%
X84361904Y-49502380D02*
X84361904Y-48502380D01*
X84600000Y-48502380D01*
X84742857Y-48550000D01*
X84838095Y-48645238D01*
X84885714Y-48740476D01*
X84933333Y-48930952D01*
X84933333Y-49073809D01*
X84885714Y-49264285D01*
X84838095Y-49359523D01*
X84742857Y-49454761D01*
X84600000Y-49502380D01*
X84361904Y-49502380D01*
X85838095Y-48502380D02*
X85361904Y-48502380D01*
X85314285Y-48978571D01*
X85361904Y-48930952D01*
X85457142Y-48883333D01*
X85695238Y-48883333D01*
X85790476Y-48930952D01*
X85838095Y-48978571D01*
X85885714Y-49073809D01*
X85885714Y-49311904D01*
X85838095Y-49407142D01*
X85790476Y-49454761D01*
X85695238Y-49502380D01*
X85457142Y-49502380D01*
X85361904Y-49454761D01*
X85314285Y-49407142D01*
%TO.C,L5*%
X141343334Y-113639879D02*
X140867143Y-113639879D01*
X140867143Y-112639879D01*
X142152858Y-112639879D02*
X141676667Y-112639879D01*
X141629048Y-113116070D01*
X141676667Y-113068451D01*
X141771905Y-113020832D01*
X142010001Y-113020832D01*
X142105239Y-113068451D01*
X142152858Y-113116070D01*
X142200477Y-113211308D01*
X142200477Y-113449403D01*
X142152858Y-113544641D01*
X142105239Y-113592260D01*
X142010001Y-113639879D01*
X141771905Y-113639879D01*
X141676667Y-113592260D01*
X141629048Y-113544641D01*
%TO.C,R14*%
X197867142Y-83242380D02*
X197533809Y-82766190D01*
X197295714Y-83242380D02*
X197295714Y-82242380D01*
X197676666Y-82242380D01*
X197771904Y-82290000D01*
X197819523Y-82337619D01*
X197867142Y-82432857D01*
X197867142Y-82575714D01*
X197819523Y-82670952D01*
X197771904Y-82718571D01*
X197676666Y-82766190D01*
X197295714Y-82766190D01*
X198819523Y-83242380D02*
X198248095Y-83242380D01*
X198533809Y-83242380D02*
X198533809Y-82242380D01*
X198438571Y-82385238D01*
X198343333Y-82480476D01*
X198248095Y-82528095D01*
X199676666Y-82575714D02*
X199676666Y-83242380D01*
X199438571Y-82194761D02*
X199200476Y-82909047D01*
X199819523Y-82909047D01*
%TO.C,D1*%
X76052380Y-77688095D02*
X75052380Y-77688095D01*
X75052380Y-77450000D01*
X75100000Y-77307142D01*
X75195238Y-77211904D01*
X75290476Y-77164285D01*
X75480952Y-77116666D01*
X75623809Y-77116666D01*
X75814285Y-77164285D01*
X75909523Y-77211904D01*
X76004761Y-77307142D01*
X76052380Y-77450000D01*
X76052380Y-77688095D01*
X76052380Y-76164285D02*
X76052380Y-76735714D01*
X76052380Y-76450000D02*
X75052380Y-76450000D01*
X75195238Y-76545238D01*
X75290476Y-76640476D01*
X75338095Y-76735714D01*
%TO.C,R20*%
X81257142Y-54402380D02*
X80923809Y-53926190D01*
X80685714Y-54402380D02*
X80685714Y-53402380D01*
X81066666Y-53402380D01*
X81161904Y-53450000D01*
X81209523Y-53497619D01*
X81257142Y-53592857D01*
X81257142Y-53735714D01*
X81209523Y-53830952D01*
X81161904Y-53878571D01*
X81066666Y-53926190D01*
X80685714Y-53926190D01*
X81638095Y-53497619D02*
X81685714Y-53450000D01*
X81780952Y-53402380D01*
X82019047Y-53402380D01*
X82114285Y-53450000D01*
X82161904Y-53497619D01*
X82209523Y-53592857D01*
X82209523Y-53688095D01*
X82161904Y-53830952D01*
X81590476Y-54402380D01*
X82209523Y-54402380D01*
X82828571Y-53402380D02*
X82923809Y-53402380D01*
X83019047Y-53450000D01*
X83066666Y-53497619D01*
X83114285Y-53592857D01*
X83161904Y-53783333D01*
X83161904Y-54021428D01*
X83114285Y-54211904D01*
X83066666Y-54307142D01*
X83019047Y-54354761D01*
X82923809Y-54402380D01*
X82828571Y-54402380D01*
X82733333Y-54354761D01*
X82685714Y-54307142D01*
X82638095Y-54211904D01*
X82590476Y-54021428D01*
X82590476Y-53783333D01*
X82638095Y-53592857D01*
X82685714Y-53497619D01*
X82733333Y-53450000D01*
X82828571Y-53402380D01*
%TO.C,H1*%
X54238095Y-46252380D02*
X54238095Y-45252380D01*
X54238095Y-45728571D02*
X54809523Y-45728571D01*
X54809523Y-46252380D02*
X54809523Y-45252380D01*
X55809523Y-46252380D02*
X55238095Y-46252380D01*
X55523809Y-46252380D02*
X55523809Y-45252380D01*
X55428571Y-45395238D01*
X55333333Y-45490476D01*
X55238095Y-45538095D01*
%TO.C,C22*%
X145099642Y-125514643D02*
X145052023Y-125562262D01*
X144909166Y-125609881D01*
X144813928Y-125609881D01*
X144671071Y-125562262D01*
X144575833Y-125467024D01*
X144528214Y-125371786D01*
X144480595Y-125181310D01*
X144480595Y-125038453D01*
X144528214Y-124847977D01*
X144575833Y-124752739D01*
X144671071Y-124657501D01*
X144813928Y-124609881D01*
X144909166Y-124609881D01*
X145052023Y-124657501D01*
X145099642Y-124705120D01*
X145480595Y-124705120D02*
X145528214Y-124657501D01*
X145623452Y-124609881D01*
X145861547Y-124609881D01*
X145956785Y-124657501D01*
X146004404Y-124705120D01*
X146052023Y-124800358D01*
X146052023Y-124895596D01*
X146004404Y-125038453D01*
X145432976Y-125609881D01*
X146052023Y-125609881D01*
X146432976Y-124705120D02*
X146480595Y-124657501D01*
X146575833Y-124609881D01*
X146813928Y-124609881D01*
X146909166Y-124657501D01*
X146956785Y-124705120D01*
X147004404Y-124800358D01*
X147004404Y-124895596D01*
X146956785Y-125038453D01*
X146385357Y-125609881D01*
X147004404Y-125609881D01*
%TO.C,TP3*%
X62938095Y-64152380D02*
X63509523Y-64152380D01*
X63223809Y-65152380D02*
X63223809Y-64152380D01*
X63842857Y-65152380D02*
X63842857Y-64152380D01*
X64223809Y-64152380D01*
X64319047Y-64200000D01*
X64366666Y-64247619D01*
X64414285Y-64342857D01*
X64414285Y-64485714D01*
X64366666Y-64580952D01*
X64319047Y-64628571D01*
X64223809Y-64676190D01*
X63842857Y-64676190D01*
X64747619Y-64152380D02*
X65366666Y-64152380D01*
X65033333Y-64533333D01*
X65176190Y-64533333D01*
X65271428Y-64580952D01*
X65319047Y-64628571D01*
X65366666Y-64723809D01*
X65366666Y-64961904D01*
X65319047Y-65057142D01*
X65271428Y-65104761D01*
X65176190Y-65152380D01*
X64890476Y-65152380D01*
X64795238Y-65104761D01*
X64747619Y-65057142D01*
%TO.C,C18*%
X135077143Y-105924641D02*
X135029524Y-105972260D01*
X134886667Y-106019879D01*
X134791429Y-106019879D01*
X134648572Y-105972260D01*
X134553334Y-105877022D01*
X134505715Y-105781784D01*
X134458096Y-105591308D01*
X134458096Y-105448451D01*
X134505715Y-105257975D01*
X134553334Y-105162737D01*
X134648572Y-105067499D01*
X134791429Y-105019879D01*
X134886667Y-105019879D01*
X135029524Y-105067499D01*
X135077143Y-105115118D01*
X136029524Y-106019879D02*
X135458096Y-106019879D01*
X135743810Y-106019879D02*
X135743810Y-105019879D01*
X135648572Y-105162737D01*
X135553334Y-105257975D01*
X135458096Y-105305594D01*
X136600953Y-105448451D02*
X136505715Y-105400832D01*
X136458096Y-105353213D01*
X136410477Y-105257975D01*
X136410477Y-105210356D01*
X136458096Y-105115118D01*
X136505715Y-105067499D01*
X136600953Y-105019879D01*
X136791429Y-105019879D01*
X136886667Y-105067499D01*
X136934286Y-105115118D01*
X136981905Y-105210356D01*
X136981905Y-105257975D01*
X136934286Y-105353213D01*
X136886667Y-105400832D01*
X136791429Y-105448451D01*
X136600953Y-105448451D01*
X136505715Y-105496070D01*
X136458096Y-105543689D01*
X136410477Y-105638927D01*
X136410477Y-105829403D01*
X136458096Y-105924641D01*
X136505715Y-105972260D01*
X136600953Y-106019879D01*
X136791429Y-106019879D01*
X136886667Y-105972260D01*
X136934286Y-105924641D01*
X136981905Y-105829403D01*
X136981905Y-105638927D01*
X136934286Y-105543689D01*
X136886667Y-105496070D01*
X136791429Y-105448451D01*
%TO.C,L3*%
X99123333Y-114342380D02*
X98647142Y-114342380D01*
X98647142Y-113342380D01*
X99361428Y-113342380D02*
X99980476Y-113342380D01*
X99647142Y-113723333D01*
X99790000Y-113723333D01*
X99885238Y-113770952D01*
X99932857Y-113818571D01*
X99980476Y-113913809D01*
X99980476Y-114151904D01*
X99932857Y-114247142D01*
X99885238Y-114294761D01*
X99790000Y-114342380D01*
X99504285Y-114342380D01*
X99409047Y-114294761D01*
X99361428Y-114247142D01*
%TO.C,C23*%
X92957142Y-107027142D02*
X92909523Y-107074761D01*
X92766666Y-107122380D01*
X92671428Y-107122380D01*
X92528571Y-107074761D01*
X92433333Y-106979523D01*
X92385714Y-106884285D01*
X92338095Y-106693809D01*
X92338095Y-106550952D01*
X92385714Y-106360476D01*
X92433333Y-106265238D01*
X92528571Y-106170000D01*
X92671428Y-106122380D01*
X92766666Y-106122380D01*
X92909523Y-106170000D01*
X92957142Y-106217619D01*
X93338095Y-106217619D02*
X93385714Y-106170000D01*
X93480952Y-106122380D01*
X93719047Y-106122380D01*
X93814285Y-106170000D01*
X93861904Y-106217619D01*
X93909523Y-106312857D01*
X93909523Y-106408095D01*
X93861904Y-106550952D01*
X93290476Y-107122380D01*
X93909523Y-107122380D01*
X94242857Y-106122380D02*
X94861904Y-106122380D01*
X94528571Y-106503333D01*
X94671428Y-106503333D01*
X94766666Y-106550952D01*
X94814285Y-106598571D01*
X94861904Y-106693809D01*
X94861904Y-106931904D01*
X94814285Y-107027142D01*
X94766666Y-107074761D01*
X94671428Y-107122380D01*
X94385714Y-107122380D01*
X94290476Y-107074761D01*
X94242857Y-107027142D01*
%TO.C,R18*%
X68957142Y-62402380D02*
X68623809Y-61926190D01*
X68385714Y-62402380D02*
X68385714Y-61402380D01*
X68766666Y-61402380D01*
X68861904Y-61450000D01*
X68909523Y-61497619D01*
X68957142Y-61592857D01*
X68957142Y-61735714D01*
X68909523Y-61830952D01*
X68861904Y-61878571D01*
X68766666Y-61926190D01*
X68385714Y-61926190D01*
X69909523Y-62402380D02*
X69338095Y-62402380D01*
X69623809Y-62402380D02*
X69623809Y-61402380D01*
X69528571Y-61545238D01*
X69433333Y-61640476D01*
X69338095Y-61688095D01*
X70480952Y-61830952D02*
X70385714Y-61783333D01*
X70338095Y-61735714D01*
X70290476Y-61640476D01*
X70290476Y-61592857D01*
X70338095Y-61497619D01*
X70385714Y-61450000D01*
X70480952Y-61402380D01*
X70671428Y-61402380D01*
X70766666Y-61450000D01*
X70814285Y-61497619D01*
X70861904Y-61592857D01*
X70861904Y-61640476D01*
X70814285Y-61735714D01*
X70766666Y-61783333D01*
X70671428Y-61830952D01*
X70480952Y-61830952D01*
X70385714Y-61878571D01*
X70338095Y-61926190D01*
X70290476Y-62021428D01*
X70290476Y-62211904D01*
X70338095Y-62307142D01*
X70385714Y-62354761D01*
X70480952Y-62402380D01*
X70671428Y-62402380D01*
X70766666Y-62354761D01*
X70814285Y-62307142D01*
X70861904Y-62211904D01*
X70861904Y-62021428D01*
X70814285Y-61926190D01*
X70766666Y-61878571D01*
X70671428Y-61830952D01*
%TO.C,U11*%
X146751904Y-80112380D02*
X146751904Y-80921904D01*
X146799523Y-81017142D01*
X146847142Y-81064761D01*
X146942380Y-81112380D01*
X147132857Y-81112380D01*
X147228095Y-81064761D01*
X147275714Y-81017142D01*
X147323333Y-80921904D01*
X147323333Y-80112380D01*
X148323333Y-81112380D02*
X147751904Y-81112380D01*
X148037619Y-81112380D02*
X148037619Y-80112380D01*
X147942380Y-80255238D01*
X147847142Y-80350476D01*
X147751904Y-80398095D01*
X149275714Y-81112380D02*
X148704285Y-81112380D01*
X148990000Y-81112380D02*
X148990000Y-80112380D01*
X148894761Y-80255238D01*
X148799523Y-80350476D01*
X148704285Y-80398095D01*
%TO.C,R37*%
X134377142Y-113149880D02*
X134043809Y-112673690D01*
X133805714Y-113149880D02*
X133805714Y-112149880D01*
X134186666Y-112149880D01*
X134281904Y-112197500D01*
X134329523Y-112245119D01*
X134377142Y-112340357D01*
X134377142Y-112483214D01*
X134329523Y-112578452D01*
X134281904Y-112626071D01*
X134186666Y-112673690D01*
X133805714Y-112673690D01*
X134710476Y-112149880D02*
X135329523Y-112149880D01*
X134996190Y-112530833D01*
X135139047Y-112530833D01*
X135234285Y-112578452D01*
X135281904Y-112626071D01*
X135329523Y-112721309D01*
X135329523Y-112959404D01*
X135281904Y-113054642D01*
X135234285Y-113102261D01*
X135139047Y-113149880D01*
X134853333Y-113149880D01*
X134758095Y-113102261D01*
X134710476Y-113054642D01*
X135662857Y-112149880D02*
X136329523Y-112149880D01*
X135900952Y-113149880D01*
%TO.C,U4*%
X186098095Y-102462380D02*
X186098095Y-103271904D01*
X186145714Y-103367142D01*
X186193333Y-103414761D01*
X186288571Y-103462380D01*
X186479047Y-103462380D01*
X186574285Y-103414761D01*
X186621904Y-103367142D01*
X186669523Y-103271904D01*
X186669523Y-102462380D01*
X187574285Y-102795714D02*
X187574285Y-103462380D01*
X187336190Y-102414761D02*
X187098095Y-103129047D01*
X187717142Y-103129047D01*
X190065350Y-110142680D02*
X190065350Y-110380776D01*
X189827254Y-110285538D02*
X190065350Y-110380776D01*
X190303445Y-110285538D01*
X189922492Y-110571252D02*
X190065350Y-110380776D01*
X190208207Y-110571252D01*
X190065350Y-111237919D02*
X190065350Y-110999823D01*
X190303445Y-111095061D02*
X190065350Y-110999823D01*
X189827254Y-111095061D01*
X190208207Y-110809347D02*
X190065350Y-110999823D01*
X189922492Y-110809347D01*
%TO.C,R32*%
X87557142Y-54252380D02*
X87223809Y-53776190D01*
X86985714Y-54252380D02*
X86985714Y-53252380D01*
X87366666Y-53252380D01*
X87461904Y-53300000D01*
X87509523Y-53347619D01*
X87557142Y-53442857D01*
X87557142Y-53585714D01*
X87509523Y-53680952D01*
X87461904Y-53728571D01*
X87366666Y-53776190D01*
X86985714Y-53776190D01*
X87890476Y-53252380D02*
X88509523Y-53252380D01*
X88176190Y-53633333D01*
X88319047Y-53633333D01*
X88414285Y-53680952D01*
X88461904Y-53728571D01*
X88509523Y-53823809D01*
X88509523Y-54061904D01*
X88461904Y-54157142D01*
X88414285Y-54204761D01*
X88319047Y-54252380D01*
X88033333Y-54252380D01*
X87938095Y-54204761D01*
X87890476Y-54157142D01*
X88890476Y-53347619D02*
X88938095Y-53300000D01*
X89033333Y-53252380D01*
X89271428Y-53252380D01*
X89366666Y-53300000D01*
X89414285Y-53347619D01*
X89461904Y-53442857D01*
X89461904Y-53538095D01*
X89414285Y-53680952D01*
X88842857Y-54252380D01*
X89461904Y-54252380D01*
%TO.C,D8*%
X63652380Y-118988095D02*
X62652380Y-118988095D01*
X62652380Y-118750000D01*
X62700000Y-118607142D01*
X62795238Y-118511904D01*
X62890476Y-118464285D01*
X63080952Y-118416666D01*
X63223809Y-118416666D01*
X63414285Y-118464285D01*
X63509523Y-118511904D01*
X63604761Y-118607142D01*
X63652380Y-118750000D01*
X63652380Y-118988095D01*
X63080952Y-117845238D02*
X63033333Y-117940476D01*
X62985714Y-117988095D01*
X62890476Y-118035714D01*
X62842857Y-118035714D01*
X62747619Y-117988095D01*
X62700000Y-117940476D01*
X62652380Y-117845238D01*
X62652380Y-117654761D01*
X62700000Y-117559523D01*
X62747619Y-117511904D01*
X62842857Y-117464285D01*
X62890476Y-117464285D01*
X62985714Y-117511904D01*
X63033333Y-117559523D01*
X63080952Y-117654761D01*
X63080952Y-117845238D01*
X63128571Y-117940476D01*
X63176190Y-117988095D01*
X63271428Y-118035714D01*
X63461904Y-118035714D01*
X63557142Y-117988095D01*
X63604761Y-117940476D01*
X63652380Y-117845238D01*
X63652380Y-117654761D01*
X63604761Y-117559523D01*
X63557142Y-117511904D01*
X63461904Y-117464285D01*
X63271428Y-117464285D01*
X63176190Y-117511904D01*
X63128571Y-117559523D01*
X63080952Y-117654761D01*
%TO.C,R10*%
X191397142Y-86412380D02*
X191063809Y-85936190D01*
X190825714Y-86412380D02*
X190825714Y-85412380D01*
X191206666Y-85412380D01*
X191301904Y-85460000D01*
X191349523Y-85507619D01*
X191397142Y-85602857D01*
X191397142Y-85745714D01*
X191349523Y-85840952D01*
X191301904Y-85888571D01*
X191206666Y-85936190D01*
X190825714Y-85936190D01*
X192349523Y-86412380D02*
X191778095Y-86412380D01*
X192063809Y-86412380D02*
X192063809Y-85412380D01*
X191968571Y-85555238D01*
X191873333Y-85650476D01*
X191778095Y-85698095D01*
X192968571Y-85412380D02*
X193063809Y-85412380D01*
X193159047Y-85460000D01*
X193206666Y-85507619D01*
X193254285Y-85602857D01*
X193301904Y-85793333D01*
X193301904Y-86031428D01*
X193254285Y-86221904D01*
X193206666Y-86317142D01*
X193159047Y-86364761D01*
X193063809Y-86412380D01*
X192968571Y-86412380D01*
X192873333Y-86364761D01*
X192825714Y-86317142D01*
X192778095Y-86221904D01*
X192730476Y-86031428D01*
X192730476Y-85793333D01*
X192778095Y-85602857D01*
X192825714Y-85507619D01*
X192873333Y-85460000D01*
X192968571Y-85412380D01*
%TO.C,R6*%
X173193333Y-111282380D02*
X172860000Y-110806190D01*
X172621904Y-111282380D02*
X172621904Y-110282380D01*
X173002857Y-110282380D01*
X173098095Y-110330000D01*
X173145714Y-110377619D01*
X173193333Y-110472857D01*
X173193333Y-110615714D01*
X173145714Y-110710952D01*
X173098095Y-110758571D01*
X173002857Y-110806190D01*
X172621904Y-110806190D01*
X174050476Y-110282380D02*
X173860000Y-110282380D01*
X173764761Y-110330000D01*
X173717142Y-110377619D01*
X173621904Y-110520476D01*
X173574285Y-110710952D01*
X173574285Y-111091904D01*
X173621904Y-111187142D01*
X173669523Y-111234761D01*
X173764761Y-111282380D01*
X173955238Y-111282380D01*
X174050476Y-111234761D01*
X174098095Y-111187142D01*
X174145714Y-111091904D01*
X174145714Y-110853809D01*
X174098095Y-110758571D01*
X174050476Y-110710952D01*
X173955238Y-110663333D01*
X173764761Y-110663333D01*
X173669523Y-110710952D01*
X173621904Y-110758571D01*
X173574285Y-110853809D01*
%TO.C,U12*%
X137072381Y-118535593D02*
X137881905Y-118535593D01*
X137977143Y-118487974D01*
X138024762Y-118440355D01*
X138072381Y-118345117D01*
X138072381Y-118154640D01*
X138024762Y-118059402D01*
X137977143Y-118011783D01*
X137881905Y-117964164D01*
X137072381Y-117964164D01*
X138072381Y-116964164D02*
X138072381Y-117535593D01*
X138072381Y-117249878D02*
X137072381Y-117249878D01*
X137215239Y-117345117D01*
X137310477Y-117440355D01*
X137358096Y-117535593D01*
X137167620Y-116583212D02*
X137120001Y-116535593D01*
X137072381Y-116440355D01*
X137072381Y-116202259D01*
X137120001Y-116107021D01*
X137167620Y-116059402D01*
X137262858Y-116011783D01*
X137358096Y-116011783D01*
X137500953Y-116059402D01*
X138072381Y-116630831D01*
X138072381Y-116011783D01*
%TO.C,R31*%
X96757142Y-127002380D02*
X96423809Y-126526190D01*
X96185714Y-127002380D02*
X96185714Y-126002380D01*
X96566666Y-126002380D01*
X96661904Y-126050000D01*
X96709523Y-126097619D01*
X96757142Y-126192857D01*
X96757142Y-126335714D01*
X96709523Y-126430952D01*
X96661904Y-126478571D01*
X96566666Y-126526190D01*
X96185714Y-126526190D01*
X97090476Y-126002380D02*
X97709523Y-126002380D01*
X97376190Y-126383333D01*
X97519047Y-126383333D01*
X97614285Y-126430952D01*
X97661904Y-126478571D01*
X97709523Y-126573809D01*
X97709523Y-126811904D01*
X97661904Y-126907142D01*
X97614285Y-126954761D01*
X97519047Y-127002380D01*
X97233333Y-127002380D01*
X97138095Y-126954761D01*
X97090476Y-126907142D01*
X98661904Y-127002380D02*
X98090476Y-127002380D01*
X98376190Y-127002380D02*
X98376190Y-126002380D01*
X98280952Y-126145238D01*
X98185714Y-126240476D01*
X98090476Y-126288095D01*
%TO.C,C1*%
X202283333Y-94657142D02*
X202235714Y-94704761D01*
X202092857Y-94752380D01*
X201997619Y-94752380D01*
X201854761Y-94704761D01*
X201759523Y-94609523D01*
X201711904Y-94514285D01*
X201664285Y-94323809D01*
X201664285Y-94180952D01*
X201711904Y-93990476D01*
X201759523Y-93895238D01*
X201854761Y-93800000D01*
X201997619Y-93752380D01*
X202092857Y-93752380D01*
X202235714Y-93800000D01*
X202283333Y-93847619D01*
X203235714Y-94752380D02*
X202664285Y-94752380D01*
X202950000Y-94752380D02*
X202950000Y-93752380D01*
X202854761Y-93895238D01*
X202759523Y-93990476D01*
X202664285Y-94038095D01*
%TO.C,C25*%
X180807142Y-126257142D02*
X180759523Y-126304761D01*
X180616666Y-126352380D01*
X180521428Y-126352380D01*
X180378571Y-126304761D01*
X180283333Y-126209523D01*
X180235714Y-126114285D01*
X180188095Y-125923809D01*
X180188095Y-125780952D01*
X180235714Y-125590476D01*
X180283333Y-125495238D01*
X180378571Y-125400000D01*
X180521428Y-125352380D01*
X180616666Y-125352380D01*
X180759523Y-125400000D01*
X180807142Y-125447619D01*
X181188095Y-125447619D02*
X181235714Y-125400000D01*
X181330952Y-125352380D01*
X181569047Y-125352380D01*
X181664285Y-125400000D01*
X181711904Y-125447619D01*
X181759523Y-125542857D01*
X181759523Y-125638095D01*
X181711904Y-125780952D01*
X181140476Y-126352380D01*
X181759523Y-126352380D01*
X182664285Y-125352380D02*
X182188095Y-125352380D01*
X182140476Y-125828571D01*
X182188095Y-125780952D01*
X182283333Y-125733333D01*
X182521428Y-125733333D01*
X182616666Y-125780952D01*
X182664285Y-125828571D01*
X182711904Y-125923809D01*
X182711904Y-126161904D01*
X182664285Y-126257142D01*
X182616666Y-126304761D01*
X182521428Y-126352380D01*
X182283333Y-126352380D01*
X182188095Y-126304761D01*
X182140476Y-126257142D01*
%TO.C,U1*%
X212478095Y-101842380D02*
X212478095Y-102651904D01*
X212525714Y-102747142D01*
X212573333Y-102794761D01*
X212668571Y-102842380D01*
X212859047Y-102842380D01*
X212954285Y-102794761D01*
X213001904Y-102747142D01*
X213049523Y-102651904D01*
X213049523Y-101842380D01*
X214049523Y-102842380D02*
X213478095Y-102842380D01*
X213763809Y-102842380D02*
X213763809Y-101842380D01*
X213668571Y-101985238D01*
X213573333Y-102080476D01*
X213478095Y-102128095D01*
%TO.C,Q1*%
X83204761Y-76297619D02*
X83109523Y-76250000D01*
X83014285Y-76154761D01*
X82871428Y-76011904D01*
X82776190Y-75964285D01*
X82680952Y-75964285D01*
X82728571Y-76202380D02*
X82633333Y-76154761D01*
X82538095Y-76059523D01*
X82490476Y-75869047D01*
X82490476Y-75535714D01*
X82538095Y-75345238D01*
X82633333Y-75250000D01*
X82728571Y-75202380D01*
X82919047Y-75202380D01*
X83014285Y-75250000D01*
X83109523Y-75345238D01*
X83157142Y-75535714D01*
X83157142Y-75869047D01*
X83109523Y-76059523D01*
X83014285Y-76154761D01*
X82919047Y-76202380D01*
X82728571Y-76202380D01*
X84109523Y-76202380D02*
X83538095Y-76202380D01*
X83823809Y-76202380D02*
X83823809Y-75202380D01*
X83728571Y-75345238D01*
X83633333Y-75440476D01*
X83538095Y-75488095D01*
%TO.C,U10*%
X140221904Y-47262380D02*
X140221904Y-48071904D01*
X140269523Y-48167142D01*
X140317142Y-48214761D01*
X140412380Y-48262380D01*
X140602857Y-48262380D01*
X140698095Y-48214761D01*
X140745714Y-48167142D01*
X140793333Y-48071904D01*
X140793333Y-47262380D01*
X141793333Y-48262380D02*
X141221904Y-48262380D01*
X141507619Y-48262380D02*
X141507619Y-47262380D01*
X141412380Y-47405238D01*
X141317142Y-47500476D01*
X141221904Y-47548095D01*
X142412380Y-47262380D02*
X142507619Y-47262380D01*
X142602857Y-47310000D01*
X142650476Y-47357619D01*
X142698095Y-47452857D01*
X142745714Y-47643333D01*
X142745714Y-47881428D01*
X142698095Y-48071904D01*
X142650476Y-48167142D01*
X142602857Y-48214761D01*
X142507619Y-48262380D01*
X142412380Y-48262380D01*
X142317142Y-48214761D01*
X142269523Y-48167142D01*
X142221904Y-48071904D01*
X142174285Y-47881428D01*
X142174285Y-47643333D01*
X142221904Y-47452857D01*
X142269523Y-47357619D01*
X142317142Y-47310000D01*
X142412380Y-47262380D01*
X132811904Y-66294761D02*
X132811904Y-64294761D01*
X133478571Y-65723333D01*
X134145238Y-64294761D01*
X134145238Y-66294761D01*
X135097619Y-66294761D02*
X135097619Y-64294761D01*
X136050000Y-66294761D02*
X136050000Y-64294761D01*
X136526190Y-64294761D01*
X136811904Y-64390000D01*
X137002380Y-64580476D01*
X137097619Y-64770952D01*
X137192857Y-65151904D01*
X137192857Y-65437619D01*
X137097619Y-65818571D01*
X137002380Y-66009047D01*
X136811904Y-66199523D01*
X136526190Y-66294761D01*
X136050000Y-66294761D01*
X138050000Y-66294761D02*
X138050000Y-64294761D01*
X138526190Y-66485238D02*
X140050000Y-66485238D01*
X140240476Y-64294761D02*
X141383333Y-64294761D01*
X140811904Y-66294761D02*
X140811904Y-64294761D01*
X142050000Y-66294761D02*
X142050000Y-64294761D01*
X142050000Y-65247142D02*
X143192857Y-65247142D01*
X143192857Y-66294761D02*
X143192857Y-64294761D01*
X145288095Y-66294761D02*
X144621428Y-65342380D01*
X144145238Y-66294761D02*
X144145238Y-64294761D01*
X144907142Y-64294761D01*
X145097619Y-64390000D01*
X145192857Y-64485238D01*
X145288095Y-64675714D01*
X145288095Y-64961428D01*
X145192857Y-65151904D01*
X145097619Y-65247142D01*
X144907142Y-65342380D01*
X144145238Y-65342380D01*
X146145238Y-64294761D02*
X146145238Y-65913809D01*
X146240476Y-66104285D01*
X146335714Y-66199523D01*
X146526190Y-66294761D01*
X146907142Y-66294761D01*
X147097619Y-66199523D01*
X147192857Y-66104285D01*
X147288095Y-65913809D01*
X147288095Y-64294761D01*
%TO.C,J2*%
X55441667Y-101573380D02*
X55441667Y-102287666D01*
X55394048Y-102430523D01*
X55298810Y-102525761D01*
X55155953Y-102573380D01*
X55060715Y-102573380D01*
X55870239Y-101668619D02*
X55917858Y-101621000D01*
X56013096Y-101573380D01*
X56251191Y-101573380D01*
X56346429Y-101621000D01*
X56394048Y-101668619D01*
X56441667Y-101763857D01*
X56441667Y-101859095D01*
X56394048Y-102001952D01*
X55822620Y-102573380D01*
X56441667Y-102573380D01*
%TO.C,H5*%
X174738095Y-46252380D02*
X174738095Y-45252380D01*
X174738095Y-45728571D02*
X175309523Y-45728571D01*
X175309523Y-46252380D02*
X175309523Y-45252380D01*
X176261904Y-45252380D02*
X175785714Y-45252380D01*
X175738095Y-45728571D01*
X175785714Y-45680952D01*
X175880952Y-45633333D01*
X176119047Y-45633333D01*
X176214285Y-45680952D01*
X176261904Y-45728571D01*
X176309523Y-45823809D01*
X176309523Y-46061904D01*
X176261904Y-46157142D01*
X176214285Y-46204761D01*
X176119047Y-46252380D01*
X175880952Y-46252380D01*
X175785714Y-46204761D01*
X175738095Y-46157142D01*
%TO.C,R27*%
X155107142Y-71632380D02*
X154773809Y-71156190D01*
X154535714Y-71632380D02*
X154535714Y-70632380D01*
X154916666Y-70632380D01*
X155011904Y-70680000D01*
X155059523Y-70727619D01*
X155107142Y-70822857D01*
X155107142Y-70965714D01*
X155059523Y-71060952D01*
X155011904Y-71108571D01*
X154916666Y-71156190D01*
X154535714Y-71156190D01*
X155488095Y-70727619D02*
X155535714Y-70680000D01*
X155630952Y-70632380D01*
X155869047Y-70632380D01*
X155964285Y-70680000D01*
X156011904Y-70727619D01*
X156059523Y-70822857D01*
X156059523Y-70918095D01*
X156011904Y-71060952D01*
X155440476Y-71632380D01*
X156059523Y-71632380D01*
X156392857Y-70632380D02*
X157059523Y-70632380D01*
X156630952Y-71632380D01*
%TO.C,U9*%
X160198095Y-47262380D02*
X160198095Y-48071904D01*
X160245714Y-48167142D01*
X160293333Y-48214761D01*
X160388571Y-48262380D01*
X160579047Y-48262380D01*
X160674285Y-48214761D01*
X160721904Y-48167142D01*
X160769523Y-48071904D01*
X160769523Y-47262380D01*
X161293333Y-48262380D02*
X161483809Y-48262380D01*
X161579047Y-48214761D01*
X161626666Y-48167142D01*
X161721904Y-48024285D01*
X161769523Y-47833809D01*
X161769523Y-47452857D01*
X161721904Y-47357619D01*
X161674285Y-47310000D01*
X161579047Y-47262380D01*
X161388571Y-47262380D01*
X161293333Y-47310000D01*
X161245714Y-47357619D01*
X161198095Y-47452857D01*
X161198095Y-47690952D01*
X161245714Y-47786190D01*
X161293333Y-47833809D01*
X161388571Y-47881428D01*
X161579047Y-47881428D01*
X161674285Y-47833809D01*
X161721904Y-47786190D01*
X161769523Y-47690952D01*
X156635238Y-65564761D02*
X156635238Y-63564761D01*
X157301904Y-64993333D01*
X157968571Y-63564761D01*
X157968571Y-65564761D01*
X158920952Y-65564761D02*
X158920952Y-63564761D01*
X159873333Y-65564761D02*
X159873333Y-63564761D01*
X160349523Y-63564761D01*
X160635238Y-63660000D01*
X160825714Y-63850476D01*
X160920952Y-64040952D01*
X161016190Y-64421904D01*
X161016190Y-64707619D01*
X160920952Y-65088571D01*
X160825714Y-65279047D01*
X160635238Y-65469523D01*
X160349523Y-65564761D01*
X159873333Y-65564761D01*
X161873333Y-65564761D02*
X161873333Y-63564761D01*
X162349523Y-65755238D02*
X163873333Y-65755238D01*
X164349523Y-65564761D02*
X164349523Y-63564761D01*
X165301904Y-65564761D02*
X165301904Y-63564761D01*
X166444761Y-65564761D01*
X166444761Y-63564761D01*
%TO.C,R26*%
X127387142Y-67172380D02*
X127053809Y-66696190D01*
X126815714Y-67172380D02*
X126815714Y-66172380D01*
X127196666Y-66172380D01*
X127291904Y-66220000D01*
X127339523Y-66267619D01*
X127387142Y-66362857D01*
X127387142Y-66505714D01*
X127339523Y-66600952D01*
X127291904Y-66648571D01*
X127196666Y-66696190D01*
X126815714Y-66696190D01*
X127768095Y-66267619D02*
X127815714Y-66220000D01*
X127910952Y-66172380D01*
X128149047Y-66172380D01*
X128244285Y-66220000D01*
X128291904Y-66267619D01*
X128339523Y-66362857D01*
X128339523Y-66458095D01*
X128291904Y-66600952D01*
X127720476Y-67172380D01*
X128339523Y-67172380D01*
X129196666Y-66172380D02*
X129006190Y-66172380D01*
X128910952Y-66220000D01*
X128863333Y-66267619D01*
X128768095Y-66410476D01*
X128720476Y-66600952D01*
X128720476Y-66981904D01*
X128768095Y-67077142D01*
X128815714Y-67124761D01*
X128910952Y-67172380D01*
X129101428Y-67172380D01*
X129196666Y-67124761D01*
X129244285Y-67077142D01*
X129291904Y-66981904D01*
X129291904Y-66743809D01*
X129244285Y-66648571D01*
X129196666Y-66600952D01*
X129101428Y-66553333D01*
X128910952Y-66553333D01*
X128815714Y-66600952D01*
X128768095Y-66648571D01*
X128720476Y-66743809D01*
%TO.C,C7*%
X202359642Y-117606665D02*
X202407261Y-117654284D01*
X202454880Y-117797141D01*
X202454880Y-117892379D01*
X202407261Y-118035237D01*
X202312023Y-118130475D01*
X202216785Y-118178094D01*
X202026309Y-118225713D01*
X201883452Y-118225713D01*
X201692976Y-118178094D01*
X201597738Y-118130475D01*
X201502500Y-118035237D01*
X201454880Y-117892379D01*
X201454880Y-117797141D01*
X201502500Y-117654284D01*
X201550119Y-117606665D01*
X201454880Y-117273332D02*
X201454880Y-116606665D01*
X202454880Y-117035237D01*
%TO.C,C8*%
X202359644Y-120706667D02*
X202407263Y-120754286D01*
X202454882Y-120897143D01*
X202454882Y-120992381D01*
X202407263Y-121135239D01*
X202312025Y-121230477D01*
X202216787Y-121278096D01*
X202026311Y-121325715D01*
X201883454Y-121325715D01*
X201692978Y-121278096D01*
X201597740Y-121230477D01*
X201502502Y-121135239D01*
X201454882Y-120992381D01*
X201454882Y-120897143D01*
X201502502Y-120754286D01*
X201550121Y-120706667D01*
X201883454Y-120135239D02*
X201835835Y-120230477D01*
X201788216Y-120278096D01*
X201692978Y-120325715D01*
X201645359Y-120325715D01*
X201550121Y-120278096D01*
X201502502Y-120230477D01*
X201454882Y-120135239D01*
X201454882Y-119944762D01*
X201502502Y-119849524D01*
X201550121Y-119801905D01*
X201645359Y-119754286D01*
X201692978Y-119754286D01*
X201788216Y-119801905D01*
X201835835Y-119849524D01*
X201883454Y-119944762D01*
X201883454Y-120135239D01*
X201931073Y-120230477D01*
X201978692Y-120278096D01*
X202073930Y-120325715D01*
X202264406Y-120325715D01*
X202359644Y-120278096D01*
X202407263Y-120230477D01*
X202454882Y-120135239D01*
X202454882Y-119944762D01*
X202407263Y-119849524D01*
X202359644Y-119801905D01*
X202264406Y-119754286D01*
X202073930Y-119754286D01*
X201978692Y-119801905D01*
X201931073Y-119849524D01*
X201883454Y-119944762D01*
%TO.C,C13*%
X203597142Y-110297142D02*
X203549523Y-110344761D01*
X203406666Y-110392380D01*
X203311428Y-110392380D01*
X203168571Y-110344761D01*
X203073333Y-110249523D01*
X203025714Y-110154285D01*
X202978095Y-109963809D01*
X202978095Y-109820952D01*
X203025714Y-109630476D01*
X203073333Y-109535238D01*
X203168571Y-109440000D01*
X203311428Y-109392380D01*
X203406666Y-109392380D01*
X203549523Y-109440000D01*
X203597142Y-109487619D01*
X204549523Y-110392380D02*
X203978095Y-110392380D01*
X204263809Y-110392380D02*
X204263809Y-109392380D01*
X204168571Y-109535238D01*
X204073333Y-109630476D01*
X203978095Y-109678095D01*
X204882857Y-109392380D02*
X205501904Y-109392380D01*
X205168571Y-109773333D01*
X205311428Y-109773333D01*
X205406666Y-109820952D01*
X205454285Y-109868571D01*
X205501904Y-109963809D01*
X205501904Y-110201904D01*
X205454285Y-110297142D01*
X205406666Y-110344761D01*
X205311428Y-110392380D01*
X205025714Y-110392380D01*
X204930476Y-110344761D01*
X204882857Y-110297142D01*
%TO.C,U5*%
X153948095Y-81152380D02*
X153948095Y-81961904D01*
X153995714Y-82057142D01*
X154043333Y-82104761D01*
X154138571Y-82152380D01*
X154329047Y-82152380D01*
X154424285Y-82104761D01*
X154471904Y-82057142D01*
X154519523Y-81961904D01*
X154519523Y-81152380D01*
X155471904Y-81152380D02*
X154995714Y-81152380D01*
X154948095Y-81628571D01*
X154995714Y-81580952D01*
X155090952Y-81533333D01*
X155329047Y-81533333D01*
X155424285Y-81580952D01*
X155471904Y-81628571D01*
X155519523Y-81723809D01*
X155519523Y-81961904D01*
X155471904Y-82057142D01*
X155424285Y-82104761D01*
X155329047Y-82152380D01*
X155090952Y-82152380D01*
X154995714Y-82104761D01*
X154948095Y-82057142D01*
%TO.C,R5*%
X173163333Y-114892380D02*
X172830000Y-114416190D01*
X172591904Y-114892380D02*
X172591904Y-113892380D01*
X172972857Y-113892380D01*
X173068095Y-113940000D01*
X173115714Y-113987619D01*
X173163333Y-114082857D01*
X173163333Y-114225714D01*
X173115714Y-114320952D01*
X173068095Y-114368571D01*
X172972857Y-114416190D01*
X172591904Y-114416190D01*
X174068095Y-113892380D02*
X173591904Y-113892380D01*
X173544285Y-114368571D01*
X173591904Y-114320952D01*
X173687142Y-114273333D01*
X173925238Y-114273333D01*
X174020476Y-114320952D01*
X174068095Y-114368571D01*
X174115714Y-114463809D01*
X174115714Y-114701904D01*
X174068095Y-114797142D01*
X174020476Y-114844761D01*
X173925238Y-114892380D01*
X173687142Y-114892380D01*
X173591904Y-114844761D01*
X173544285Y-114797142D01*
%TO.C,H3*%
X159238095Y-113252380D02*
X159238095Y-112252380D01*
X159238095Y-112728571D02*
X159809523Y-112728571D01*
X159809523Y-113252380D02*
X159809523Y-112252380D01*
X160190476Y-112252380D02*
X160809523Y-112252380D01*
X160476190Y-112633333D01*
X160619047Y-112633333D01*
X160714285Y-112680952D01*
X160761904Y-112728571D01*
X160809523Y-112823809D01*
X160809523Y-113061904D01*
X160761904Y-113157142D01*
X160714285Y-113204761D01*
X160619047Y-113252380D01*
X160333333Y-113252380D01*
X160238095Y-113204761D01*
X160190476Y-113157142D01*
%TO.C,C30*%
X93957142Y-102827142D02*
X93909523Y-102874761D01*
X93766666Y-102922380D01*
X93671428Y-102922380D01*
X93528571Y-102874761D01*
X93433333Y-102779523D01*
X93385714Y-102684285D01*
X93338095Y-102493809D01*
X93338095Y-102350952D01*
X93385714Y-102160476D01*
X93433333Y-102065238D01*
X93528571Y-101970000D01*
X93671428Y-101922380D01*
X93766666Y-101922380D01*
X93909523Y-101970000D01*
X93957142Y-102017619D01*
X94290476Y-101922380D02*
X94909523Y-101922380D01*
X94576190Y-102303333D01*
X94719047Y-102303333D01*
X94814285Y-102350952D01*
X94861904Y-102398571D01*
X94909523Y-102493809D01*
X94909523Y-102731904D01*
X94861904Y-102827142D01*
X94814285Y-102874761D01*
X94719047Y-102922380D01*
X94433333Y-102922380D01*
X94338095Y-102874761D01*
X94290476Y-102827142D01*
X95528571Y-101922380D02*
X95623809Y-101922380D01*
X95719047Y-101970000D01*
X95766666Y-102017619D01*
X95814285Y-102112857D01*
X95861904Y-102303333D01*
X95861904Y-102541428D01*
X95814285Y-102731904D01*
X95766666Y-102827142D01*
X95719047Y-102874761D01*
X95623809Y-102922380D01*
X95528571Y-102922380D01*
X95433333Y-102874761D01*
X95385714Y-102827142D01*
X95338095Y-102731904D01*
X95290476Y-102541428D01*
X95290476Y-102303333D01*
X95338095Y-102112857D01*
X95385714Y-102017619D01*
X95433333Y-101970000D01*
X95528571Y-101922380D01*
%TO.C,J1*%
X73546666Y-48582380D02*
X73546666Y-49296666D01*
X73499047Y-49439523D01*
X73403809Y-49534761D01*
X73260952Y-49582380D01*
X73165714Y-49582380D01*
X74546666Y-49582380D02*
X73975238Y-49582380D01*
X74260952Y-49582380D02*
X74260952Y-48582380D01*
X74165714Y-48725238D01*
X74070476Y-48820476D01*
X73975238Y-48868095D01*
%TO.C,D4*%
X160931904Y-71832380D02*
X160931904Y-70832380D01*
X161170000Y-70832380D01*
X161312857Y-70880000D01*
X161408095Y-70975238D01*
X161455714Y-71070476D01*
X161503333Y-71260952D01*
X161503333Y-71403809D01*
X161455714Y-71594285D01*
X161408095Y-71689523D01*
X161312857Y-71784761D01*
X161170000Y-71832380D01*
X160931904Y-71832380D01*
X162360476Y-71165714D02*
X162360476Y-71832380D01*
X162122380Y-70784761D02*
X161884285Y-71499047D01*
X162503333Y-71499047D01*
%TO.C,R8*%
X187663333Y-98022380D02*
X187330000Y-97546190D01*
X187091904Y-98022380D02*
X187091904Y-97022380D01*
X187472857Y-97022380D01*
X187568095Y-97070000D01*
X187615714Y-97117619D01*
X187663333Y-97212857D01*
X187663333Y-97355714D01*
X187615714Y-97450952D01*
X187568095Y-97498571D01*
X187472857Y-97546190D01*
X187091904Y-97546190D01*
X188234761Y-97450952D02*
X188139523Y-97403333D01*
X188091904Y-97355714D01*
X188044285Y-97260476D01*
X188044285Y-97212857D01*
X188091904Y-97117619D01*
X188139523Y-97070000D01*
X188234761Y-97022380D01*
X188425238Y-97022380D01*
X188520476Y-97070000D01*
X188568095Y-97117619D01*
X188615714Y-97212857D01*
X188615714Y-97260476D01*
X188568095Y-97355714D01*
X188520476Y-97403333D01*
X188425238Y-97450952D01*
X188234761Y-97450952D01*
X188139523Y-97498571D01*
X188091904Y-97546190D01*
X188044285Y-97641428D01*
X188044285Y-97831904D01*
X188091904Y-97927142D01*
X188139523Y-97974761D01*
X188234761Y-98022380D01*
X188425238Y-98022380D01*
X188520476Y-97974761D01*
X188568095Y-97927142D01*
X188615714Y-97831904D01*
X188615714Y-97641428D01*
X188568095Y-97546190D01*
X188520476Y-97498571D01*
X188425238Y-97450952D01*
%TO.C,C6*%
X202459645Y-124406664D02*
X202507264Y-124454283D01*
X202554883Y-124597140D01*
X202554883Y-124692378D01*
X202507264Y-124835236D01*
X202412026Y-124930474D01*
X202316788Y-124978093D01*
X202126312Y-125025712D01*
X201983455Y-125025712D01*
X201792979Y-124978093D01*
X201697741Y-124930474D01*
X201602503Y-124835236D01*
X201554883Y-124692378D01*
X201554883Y-124597140D01*
X201602503Y-124454283D01*
X201650122Y-124406664D01*
X201554883Y-123549521D02*
X201554883Y-123739998D01*
X201602503Y-123835236D01*
X201650122Y-123882855D01*
X201792979Y-123978093D01*
X201983455Y-124025712D01*
X202364407Y-124025712D01*
X202459645Y-123978093D01*
X202507264Y-123930474D01*
X202554883Y-123835236D01*
X202554883Y-123644759D01*
X202507264Y-123549521D01*
X202459645Y-123501902D01*
X202364407Y-123454283D01*
X202126312Y-123454283D01*
X202031074Y-123501902D01*
X201983455Y-123549521D01*
X201935836Y-123644759D01*
X201935836Y-123835236D01*
X201983455Y-123930474D01*
X202031074Y-123978093D01*
X202126312Y-124025712D01*
%TO.C,C5*%
X185323333Y-126097142D02*
X185275714Y-126144761D01*
X185132857Y-126192380D01*
X185037619Y-126192380D01*
X184894761Y-126144761D01*
X184799523Y-126049523D01*
X184751904Y-125954285D01*
X184704285Y-125763809D01*
X184704285Y-125620952D01*
X184751904Y-125430476D01*
X184799523Y-125335238D01*
X184894761Y-125240000D01*
X185037619Y-125192380D01*
X185132857Y-125192380D01*
X185275714Y-125240000D01*
X185323333Y-125287619D01*
X186228095Y-125192380D02*
X185751904Y-125192380D01*
X185704285Y-125668571D01*
X185751904Y-125620952D01*
X185847142Y-125573333D01*
X186085238Y-125573333D01*
X186180476Y-125620952D01*
X186228095Y-125668571D01*
X186275714Y-125763809D01*
X186275714Y-126001904D01*
X186228095Y-126097142D01*
X186180476Y-126144761D01*
X186085238Y-126192380D01*
X185847142Y-126192380D01*
X185751904Y-126144761D01*
X185704285Y-126097142D01*
%TO.C,J5*%
X68281666Y-96252380D02*
X68281666Y-96966666D01*
X68234047Y-97109523D01*
X68138809Y-97204761D01*
X67995952Y-97252380D01*
X67900714Y-97252380D01*
X69234047Y-96252380D02*
X68757857Y-96252380D01*
X68710238Y-96728571D01*
X68757857Y-96680952D01*
X68853095Y-96633333D01*
X69091190Y-96633333D01*
X69186428Y-96680952D01*
X69234047Y-96728571D01*
X69281666Y-96823809D01*
X69281666Y-97061904D01*
X69234047Y-97157142D01*
X69186428Y-97204761D01*
X69091190Y-97252380D01*
X68853095Y-97252380D01*
X68757857Y-97204761D01*
X68710238Y-97157142D01*
%TO.C,C15*%
X134057142Y-72007142D02*
X134009523Y-72054761D01*
X133866666Y-72102380D01*
X133771428Y-72102380D01*
X133628571Y-72054761D01*
X133533333Y-71959523D01*
X133485714Y-71864285D01*
X133438095Y-71673809D01*
X133438095Y-71530952D01*
X133485714Y-71340476D01*
X133533333Y-71245238D01*
X133628571Y-71150000D01*
X133771428Y-71102380D01*
X133866666Y-71102380D01*
X134009523Y-71150000D01*
X134057142Y-71197619D01*
X135009523Y-72102380D02*
X134438095Y-72102380D01*
X134723809Y-72102380D02*
X134723809Y-71102380D01*
X134628571Y-71245238D01*
X134533333Y-71340476D01*
X134438095Y-71388095D01*
X135914285Y-71102380D02*
X135438095Y-71102380D01*
X135390476Y-71578571D01*
X135438095Y-71530952D01*
X135533333Y-71483333D01*
X135771428Y-71483333D01*
X135866666Y-71530952D01*
X135914285Y-71578571D01*
X135961904Y-71673809D01*
X135961904Y-71911904D01*
X135914285Y-72007142D01*
X135866666Y-72054761D01*
X135771428Y-72102380D01*
X135533333Y-72102380D01*
X135438095Y-72054761D01*
X135390476Y-72007142D01*
%TO.C,U7*%
X95918932Y-86108563D02*
X96491352Y-85536143D01*
X96525024Y-85435128D01*
X96525024Y-85367784D01*
X96491352Y-85266769D01*
X96356665Y-85132082D01*
X96255650Y-85098410D01*
X96188306Y-85098410D01*
X96087291Y-85132082D01*
X95514871Y-85704502D01*
X95245497Y-85435128D02*
X94774093Y-84963723D01*
X95784245Y-84559662D01*
%TO.C,C16*%
X166727142Y-86777142D02*
X166679523Y-86824761D01*
X166536666Y-86872380D01*
X166441428Y-86872380D01*
X166298571Y-86824761D01*
X166203333Y-86729523D01*
X166155714Y-86634285D01*
X166108095Y-86443809D01*
X166108095Y-86300952D01*
X166155714Y-86110476D01*
X166203333Y-86015238D01*
X166298571Y-85920000D01*
X166441428Y-85872380D01*
X166536666Y-85872380D01*
X166679523Y-85920000D01*
X166727142Y-85967619D01*
X167679523Y-86872380D02*
X167108095Y-86872380D01*
X167393809Y-86872380D02*
X167393809Y-85872380D01*
X167298571Y-86015238D01*
X167203333Y-86110476D01*
X167108095Y-86158095D01*
X168536666Y-85872380D02*
X168346190Y-85872380D01*
X168250952Y-85920000D01*
X168203333Y-85967619D01*
X168108095Y-86110476D01*
X168060476Y-86300952D01*
X168060476Y-86681904D01*
X168108095Y-86777142D01*
X168155714Y-86824761D01*
X168250952Y-86872380D01*
X168441428Y-86872380D01*
X168536666Y-86824761D01*
X168584285Y-86777142D01*
X168631904Y-86681904D01*
X168631904Y-86443809D01*
X168584285Y-86348571D01*
X168536666Y-86300952D01*
X168441428Y-86253333D01*
X168250952Y-86253333D01*
X168155714Y-86300952D01*
X168108095Y-86348571D01*
X168060476Y-86443809D01*
%TO.C,D7*%
X145234878Y-118685593D02*
X144234878Y-118685593D01*
X144234878Y-118447498D01*
X144282498Y-118304640D01*
X144377736Y-118209402D01*
X144472974Y-118161783D01*
X144663450Y-118114164D01*
X144806307Y-118114164D01*
X144996783Y-118161783D01*
X145092021Y-118209402D01*
X145187259Y-118304640D01*
X145234878Y-118447498D01*
X145234878Y-118685593D01*
X144234878Y-117780831D02*
X144234878Y-117114164D01*
X145234878Y-117542736D01*
%TO.C,R35*%
X59777142Y-88612380D02*
X59443809Y-88136190D01*
X59205714Y-88612380D02*
X59205714Y-87612380D01*
X59586666Y-87612380D01*
X59681904Y-87660000D01*
X59729523Y-87707619D01*
X59777142Y-87802857D01*
X59777142Y-87945714D01*
X59729523Y-88040952D01*
X59681904Y-88088571D01*
X59586666Y-88136190D01*
X59205714Y-88136190D01*
X60110476Y-87612380D02*
X60729523Y-87612380D01*
X60396190Y-87993333D01*
X60539047Y-87993333D01*
X60634285Y-88040952D01*
X60681904Y-88088571D01*
X60729523Y-88183809D01*
X60729523Y-88421904D01*
X60681904Y-88517142D01*
X60634285Y-88564761D01*
X60539047Y-88612380D01*
X60253333Y-88612380D01*
X60158095Y-88564761D01*
X60110476Y-88517142D01*
X61634285Y-87612380D02*
X61158095Y-87612380D01*
X61110476Y-88088571D01*
X61158095Y-88040952D01*
X61253333Y-87993333D01*
X61491428Y-87993333D01*
X61586666Y-88040952D01*
X61634285Y-88088571D01*
X61681904Y-88183809D01*
X61681904Y-88421904D01*
X61634285Y-88517142D01*
X61586666Y-88564761D01*
X61491428Y-88612380D01*
X61253333Y-88612380D01*
X61158095Y-88564761D01*
X61110476Y-88517142D01*
%TO.C,R21*%
X77457142Y-94137380D02*
X77123809Y-93661190D01*
X76885714Y-94137380D02*
X76885714Y-93137380D01*
X77266666Y-93137380D01*
X77361904Y-93185000D01*
X77409523Y-93232619D01*
X77457142Y-93327857D01*
X77457142Y-93470714D01*
X77409523Y-93565952D01*
X77361904Y-93613571D01*
X77266666Y-93661190D01*
X76885714Y-93661190D01*
X77838095Y-93232619D02*
X77885714Y-93185000D01*
X77980952Y-93137380D01*
X78219047Y-93137380D01*
X78314285Y-93185000D01*
X78361904Y-93232619D01*
X78409523Y-93327857D01*
X78409523Y-93423095D01*
X78361904Y-93565952D01*
X77790476Y-94137380D01*
X78409523Y-94137380D01*
X79361904Y-94137380D02*
X78790476Y-94137380D01*
X79076190Y-94137380D02*
X79076190Y-93137380D01*
X78980952Y-93280238D01*
X78885714Y-93375476D01*
X78790476Y-93423095D01*
%TO.C,R23*%
X121037142Y-70282380D02*
X120703809Y-69806190D01*
X120465714Y-70282380D02*
X120465714Y-69282380D01*
X120846666Y-69282380D01*
X120941904Y-69330000D01*
X120989523Y-69377619D01*
X121037142Y-69472857D01*
X121037142Y-69615714D01*
X120989523Y-69710952D01*
X120941904Y-69758571D01*
X120846666Y-69806190D01*
X120465714Y-69806190D01*
X121418095Y-69377619D02*
X121465714Y-69330000D01*
X121560952Y-69282380D01*
X121799047Y-69282380D01*
X121894285Y-69330000D01*
X121941904Y-69377619D01*
X121989523Y-69472857D01*
X121989523Y-69568095D01*
X121941904Y-69710952D01*
X121370476Y-70282380D01*
X121989523Y-70282380D01*
X122322857Y-69282380D02*
X122941904Y-69282380D01*
X122608571Y-69663333D01*
X122751428Y-69663333D01*
X122846666Y-69710952D01*
X122894285Y-69758571D01*
X122941904Y-69853809D01*
X122941904Y-70091904D01*
X122894285Y-70187142D01*
X122846666Y-70234761D01*
X122751428Y-70282380D01*
X122465714Y-70282380D01*
X122370476Y-70234761D01*
X122322857Y-70187142D01*
%TO.C,C28*%
X112057142Y-125769642D02*
X112009523Y-125817261D01*
X111866666Y-125864880D01*
X111771428Y-125864880D01*
X111628571Y-125817261D01*
X111533333Y-125722023D01*
X111485714Y-125626785D01*
X111438095Y-125436309D01*
X111438095Y-125293452D01*
X111485714Y-125102976D01*
X111533333Y-125007738D01*
X111628571Y-124912500D01*
X111771428Y-124864880D01*
X111866666Y-124864880D01*
X112009523Y-124912500D01*
X112057142Y-124960119D01*
X112438095Y-124960119D02*
X112485714Y-124912500D01*
X112580952Y-124864880D01*
X112819047Y-124864880D01*
X112914285Y-124912500D01*
X112961904Y-124960119D01*
X113009523Y-125055357D01*
X113009523Y-125150595D01*
X112961904Y-125293452D01*
X112390476Y-125864880D01*
X113009523Y-125864880D01*
X113580952Y-125293452D02*
X113485714Y-125245833D01*
X113438095Y-125198214D01*
X113390476Y-125102976D01*
X113390476Y-125055357D01*
X113438095Y-124960119D01*
X113485714Y-124912500D01*
X113580952Y-124864880D01*
X113771428Y-124864880D01*
X113866666Y-124912500D01*
X113914285Y-124960119D01*
X113961904Y-125055357D01*
X113961904Y-125102976D01*
X113914285Y-125198214D01*
X113866666Y-125245833D01*
X113771428Y-125293452D01*
X113580952Y-125293452D01*
X113485714Y-125341071D01*
X113438095Y-125388690D01*
X113390476Y-125483928D01*
X113390476Y-125674404D01*
X113438095Y-125769642D01*
X113485714Y-125817261D01*
X113580952Y-125864880D01*
X113771428Y-125864880D01*
X113866666Y-125817261D01*
X113914285Y-125769642D01*
X113961904Y-125674404D01*
X113961904Y-125483928D01*
X113914285Y-125388690D01*
X113866666Y-125341071D01*
X113771428Y-125293452D01*
%TO.C,R30*%
X98557142Y-119852380D02*
X98223809Y-119376190D01*
X97985714Y-119852380D02*
X97985714Y-118852380D01*
X98366666Y-118852380D01*
X98461904Y-118900000D01*
X98509523Y-118947619D01*
X98557142Y-119042857D01*
X98557142Y-119185714D01*
X98509523Y-119280952D01*
X98461904Y-119328571D01*
X98366666Y-119376190D01*
X97985714Y-119376190D01*
X98890476Y-118852380D02*
X99509523Y-118852380D01*
X99176190Y-119233333D01*
X99319047Y-119233333D01*
X99414285Y-119280952D01*
X99461904Y-119328571D01*
X99509523Y-119423809D01*
X99509523Y-119661904D01*
X99461904Y-119757142D01*
X99414285Y-119804761D01*
X99319047Y-119852380D01*
X99033333Y-119852380D01*
X98938095Y-119804761D01*
X98890476Y-119757142D01*
X100128571Y-118852380D02*
X100223809Y-118852380D01*
X100319047Y-118900000D01*
X100366666Y-118947619D01*
X100414285Y-119042857D01*
X100461904Y-119233333D01*
X100461904Y-119471428D01*
X100414285Y-119661904D01*
X100366666Y-119757142D01*
X100319047Y-119804761D01*
X100223809Y-119852380D01*
X100128571Y-119852380D01*
X100033333Y-119804761D01*
X99985714Y-119757142D01*
X99938095Y-119661904D01*
X99890476Y-119471428D01*
X99890476Y-119233333D01*
X99938095Y-119042857D01*
X99985714Y-118947619D01*
X100033333Y-118900000D01*
X100128571Y-118852380D01*
%TO.C,L2*%
X87656666Y-113737619D02*
X88132857Y-113737619D01*
X88132857Y-114737619D01*
X87370952Y-114642380D02*
X87323333Y-114690000D01*
X87228095Y-114737619D01*
X86990000Y-114737619D01*
X86894761Y-114690000D01*
X86847142Y-114642380D01*
X86799523Y-114547142D01*
X86799523Y-114451904D01*
X86847142Y-114309047D01*
X87418571Y-113737619D01*
X86799523Y-113737619D01*
D12*
%TO.C,IC1*%
X79360238Y-66624523D02*
X79360238Y-65354523D01*
X80690714Y-66503571D02*
X80630238Y-66564047D01*
X80448809Y-66624523D01*
X80327857Y-66624523D01*
X80146428Y-66564047D01*
X80025476Y-66443095D01*
X79965000Y-66322142D01*
X79904523Y-66080238D01*
X79904523Y-65898809D01*
X79965000Y-65656904D01*
X80025476Y-65535952D01*
X80146428Y-65415000D01*
X80327857Y-65354523D01*
X80448809Y-65354523D01*
X80630238Y-65415000D01*
X80690714Y-65475476D01*
X81900238Y-66624523D02*
X81174523Y-66624523D01*
X81537380Y-66624523D02*
X81537380Y-65354523D01*
X81416428Y-65535952D01*
X81295476Y-65656904D01*
X81174523Y-65717380D01*
D11*
%TO.C,C27*%
X107857142Y-125769642D02*
X107809523Y-125817261D01*
X107666666Y-125864880D01*
X107571428Y-125864880D01*
X107428571Y-125817261D01*
X107333333Y-125722023D01*
X107285714Y-125626785D01*
X107238095Y-125436309D01*
X107238095Y-125293452D01*
X107285714Y-125102976D01*
X107333333Y-125007738D01*
X107428571Y-124912500D01*
X107571428Y-124864880D01*
X107666666Y-124864880D01*
X107809523Y-124912500D01*
X107857142Y-124960119D01*
X108238095Y-124960119D02*
X108285714Y-124912500D01*
X108380952Y-124864880D01*
X108619047Y-124864880D01*
X108714285Y-124912500D01*
X108761904Y-124960119D01*
X108809523Y-125055357D01*
X108809523Y-125150595D01*
X108761904Y-125293452D01*
X108190476Y-125864880D01*
X108809523Y-125864880D01*
X109142857Y-124864880D02*
X109809523Y-124864880D01*
X109380952Y-125864880D01*
%TO.C,C24*%
X177617142Y-126297142D02*
X177569523Y-126344761D01*
X177426666Y-126392380D01*
X177331428Y-126392380D01*
X177188571Y-126344761D01*
X177093333Y-126249523D01*
X177045714Y-126154285D01*
X176998095Y-125963809D01*
X176998095Y-125820952D01*
X177045714Y-125630476D01*
X177093333Y-125535238D01*
X177188571Y-125440000D01*
X177331428Y-125392380D01*
X177426666Y-125392380D01*
X177569523Y-125440000D01*
X177617142Y-125487619D01*
X177998095Y-125487619D02*
X178045714Y-125440000D01*
X178140952Y-125392380D01*
X178379047Y-125392380D01*
X178474285Y-125440000D01*
X178521904Y-125487619D01*
X178569523Y-125582857D01*
X178569523Y-125678095D01*
X178521904Y-125820952D01*
X177950476Y-126392380D01*
X178569523Y-126392380D01*
X179426666Y-125725714D02*
X179426666Y-126392380D01*
X179188571Y-125344761D02*
X178950476Y-126059047D01*
X179569523Y-126059047D01*
%TO.C,C21*%
X88457142Y-123307142D02*
X88409523Y-123354761D01*
X88266666Y-123402380D01*
X88171428Y-123402380D01*
X88028571Y-123354761D01*
X87933333Y-123259523D01*
X87885714Y-123164285D01*
X87838095Y-122973809D01*
X87838095Y-122830952D01*
X87885714Y-122640476D01*
X87933333Y-122545238D01*
X88028571Y-122450000D01*
X88171428Y-122402380D01*
X88266666Y-122402380D01*
X88409523Y-122450000D01*
X88457142Y-122497619D01*
X88838095Y-122497619D02*
X88885714Y-122450000D01*
X88980952Y-122402380D01*
X89219047Y-122402380D01*
X89314285Y-122450000D01*
X89361904Y-122497619D01*
X89409523Y-122592857D01*
X89409523Y-122688095D01*
X89361904Y-122830952D01*
X88790476Y-123402380D01*
X89409523Y-123402380D01*
X90361904Y-123402380D02*
X89790476Y-123402380D01*
X90076190Y-123402380D02*
X90076190Y-122402380D01*
X89980952Y-122545238D01*
X89885714Y-122640476D01*
X89790476Y-122688095D01*
%TO.C,J4*%
X179486666Y-59432380D02*
X179486666Y-60146666D01*
X179439047Y-60289523D01*
X179343809Y-60384761D01*
X179200952Y-60432380D01*
X179105714Y-60432380D01*
X180391428Y-59765714D02*
X180391428Y-60432380D01*
X180153333Y-59384761D02*
X179915238Y-60099047D01*
X180534285Y-60099047D01*
%TO.C,D6*%
X102952380Y-120438095D02*
X101952380Y-120438095D01*
X101952380Y-120200000D01*
X102000000Y-120057142D01*
X102095238Y-119961904D01*
X102190476Y-119914285D01*
X102380952Y-119866666D01*
X102523809Y-119866666D01*
X102714285Y-119914285D01*
X102809523Y-119961904D01*
X102904761Y-120057142D01*
X102952380Y-120200000D01*
X102952380Y-120438095D01*
X101952380Y-119009523D02*
X101952380Y-119200000D01*
X102000000Y-119295238D01*
X102047619Y-119342857D01*
X102190476Y-119438095D01*
X102380952Y-119485714D01*
X102761904Y-119485714D01*
X102857142Y-119438095D01*
X102904761Y-119390476D01*
X102952380Y-119295238D01*
X102952380Y-119104761D01*
X102904761Y-119009523D01*
X102857142Y-118961904D01*
X102761904Y-118914285D01*
X102523809Y-118914285D01*
X102428571Y-118961904D01*
X102380952Y-119009523D01*
X102333333Y-119104761D01*
X102333333Y-119295238D01*
X102380952Y-119390476D01*
X102428571Y-119438095D01*
X102523809Y-119485714D01*
%TO.C,SW2*%
X115966666Y-119854761D02*
X116109523Y-119902380D01*
X116347619Y-119902380D01*
X116442857Y-119854761D01*
X116490476Y-119807142D01*
X116538095Y-119711904D01*
X116538095Y-119616666D01*
X116490476Y-119521428D01*
X116442857Y-119473809D01*
X116347619Y-119426190D01*
X116157142Y-119378571D01*
X116061904Y-119330952D01*
X116014285Y-119283333D01*
X115966666Y-119188095D01*
X115966666Y-119092857D01*
X116014285Y-118997619D01*
X116061904Y-118950000D01*
X116157142Y-118902380D01*
X116395238Y-118902380D01*
X116538095Y-118950000D01*
X116871428Y-118902380D02*
X117109523Y-119902380D01*
X117300000Y-119188095D01*
X117490476Y-119902380D01*
X117728571Y-118902380D01*
X118061904Y-118997619D02*
X118109523Y-118950000D01*
X118204761Y-118902380D01*
X118442857Y-118902380D01*
X118538095Y-118950000D01*
X118585714Y-118997619D01*
X118633333Y-119092857D01*
X118633333Y-119188095D01*
X118585714Y-119330952D01*
X118014285Y-119902380D01*
X118633333Y-119902380D01*
%TO.C,C19*%
X71757142Y-67155357D02*
X71804761Y-67202976D01*
X71852380Y-67345833D01*
X71852380Y-67441071D01*
X71804761Y-67583928D01*
X71709523Y-67679166D01*
X71614285Y-67726785D01*
X71423809Y-67774404D01*
X71280952Y-67774404D01*
X71090476Y-67726785D01*
X70995238Y-67679166D01*
X70900000Y-67583928D01*
X70852380Y-67441071D01*
X70852380Y-67345833D01*
X70900000Y-67202976D01*
X70947619Y-67155357D01*
X71852380Y-66202976D02*
X71852380Y-66774404D01*
X71852380Y-66488690D02*
X70852380Y-66488690D01*
X70995238Y-66583928D01*
X71090476Y-66679166D01*
X71138095Y-66774404D01*
X71852380Y-65726785D02*
X71852380Y-65536309D01*
X71804761Y-65441071D01*
X71757142Y-65393452D01*
X71614285Y-65298214D01*
X71423809Y-65250595D01*
X71042857Y-65250595D01*
X70947619Y-65298214D01*
X70900000Y-65345833D01*
X70852380Y-65441071D01*
X70852380Y-65631547D01*
X70900000Y-65726785D01*
X70947619Y-65774404D01*
X71042857Y-65822023D01*
X71280952Y-65822023D01*
X71376190Y-65774404D01*
X71423809Y-65726785D01*
X71471428Y-65631547D01*
X71471428Y-65441071D01*
X71423809Y-65345833D01*
X71376190Y-65298214D01*
X71280952Y-65250595D01*
%TO.C,J3*%
X53076666Y-76192380D02*
X53076666Y-76906666D01*
X53029047Y-77049523D01*
X52933809Y-77144761D01*
X52790952Y-77192380D01*
X52695714Y-77192380D01*
X53457619Y-76192380D02*
X54076666Y-76192380D01*
X53743333Y-76573333D01*
X53886190Y-76573333D01*
X53981428Y-76620952D01*
X54029047Y-76668571D01*
X54076666Y-76763809D01*
X54076666Y-77001904D01*
X54029047Y-77097142D01*
X53981428Y-77144761D01*
X53886190Y-77192380D01*
X53600476Y-77192380D01*
X53505238Y-77144761D01*
X53457619Y-77097142D01*
%TO.C,U2*%
X192258095Y-97042380D02*
X192258095Y-97851904D01*
X192305714Y-97947142D01*
X192353333Y-97994761D01*
X192448571Y-98042380D01*
X192639047Y-98042380D01*
X192734285Y-97994761D01*
X192781904Y-97947142D01*
X192829523Y-97851904D01*
X192829523Y-97042380D01*
X193258095Y-97137619D02*
X193305714Y-97090000D01*
X193400952Y-97042380D01*
X193639047Y-97042380D01*
X193734285Y-97090000D01*
X193781904Y-97137619D01*
X193829523Y-97232857D01*
X193829523Y-97328095D01*
X193781904Y-97470952D01*
X193210476Y-98042380D01*
X193829523Y-98042380D01*
%TO.C,C17*%
X129139642Y-118790357D02*
X129187261Y-118837976D01*
X129234880Y-118980833D01*
X129234880Y-119076071D01*
X129187261Y-119218928D01*
X129092023Y-119314166D01*
X128996785Y-119361785D01*
X128806309Y-119409404D01*
X128663452Y-119409404D01*
X128472976Y-119361785D01*
X128377738Y-119314166D01*
X128282500Y-119218928D01*
X128234880Y-119076071D01*
X128234880Y-118980833D01*
X128282500Y-118837976D01*
X128330119Y-118790357D01*
X129234880Y-117837976D02*
X129234880Y-118409404D01*
X129234880Y-118123690D02*
X128234880Y-118123690D01*
X128377738Y-118218928D01*
X128472976Y-118314166D01*
X128520595Y-118409404D01*
X128234880Y-117504642D02*
X128234880Y-116837976D01*
X129234880Y-117266547D01*
%TO.C,R15*%
X67752380Y-58692857D02*
X67276190Y-59026190D01*
X67752380Y-59264285D02*
X66752380Y-59264285D01*
X66752380Y-58883333D01*
X66800000Y-58788095D01*
X66847619Y-58740476D01*
X66942857Y-58692857D01*
X67085714Y-58692857D01*
X67180952Y-58740476D01*
X67228571Y-58788095D01*
X67276190Y-58883333D01*
X67276190Y-59264285D01*
X67752380Y-57740476D02*
X67752380Y-58311904D01*
X67752380Y-58026190D02*
X66752380Y-58026190D01*
X66895238Y-58121428D01*
X66990476Y-58216666D01*
X67038095Y-58311904D01*
X66752380Y-56835714D02*
X66752380Y-57311904D01*
X67228571Y-57359523D01*
X67180952Y-57311904D01*
X67133333Y-57216666D01*
X67133333Y-56978571D01*
X67180952Y-56883333D01*
X67228571Y-56835714D01*
X67323809Y-56788095D01*
X67561904Y-56788095D01*
X67657142Y-56835714D01*
X67704761Y-56883333D01*
X67752380Y-56978571D01*
X67752380Y-57216666D01*
X67704761Y-57311904D01*
X67657142Y-57359523D01*
%TO.C,R7*%
X173173333Y-107502380D02*
X172840000Y-107026190D01*
X172601904Y-107502380D02*
X172601904Y-106502380D01*
X172982857Y-106502380D01*
X173078095Y-106550000D01*
X173125714Y-106597619D01*
X173173333Y-106692857D01*
X173173333Y-106835714D01*
X173125714Y-106930952D01*
X173078095Y-106978571D01*
X172982857Y-107026190D01*
X172601904Y-107026190D01*
X173506666Y-106502380D02*
X174173333Y-106502380D01*
X173744761Y-107502380D01*
%TO.C,Y1*%
X99023809Y-102576190D02*
X99023809Y-103052380D01*
X98690476Y-102052380D02*
X99023809Y-102576190D01*
X99357142Y-102052380D01*
X100214285Y-103052380D02*
X99642857Y-103052380D01*
X99928571Y-103052380D02*
X99928571Y-102052380D01*
X99833333Y-102195238D01*
X99738095Y-102290476D01*
X99642857Y-102338095D01*
%TO.C,R2*%
X208703333Y-94153630D02*
X208370000Y-93677440D01*
X208131904Y-94153630D02*
X208131904Y-93153630D01*
X208512857Y-93153630D01*
X208608095Y-93201250D01*
X208655714Y-93248869D01*
X208703333Y-93344107D01*
X208703333Y-93486964D01*
X208655714Y-93582202D01*
X208608095Y-93629821D01*
X208512857Y-93677440D01*
X208131904Y-93677440D01*
X209084285Y-93248869D02*
X209131904Y-93201250D01*
X209227142Y-93153630D01*
X209465238Y-93153630D01*
X209560476Y-93201250D01*
X209608095Y-93248869D01*
X209655714Y-93344107D01*
X209655714Y-93439345D01*
X209608095Y-93582202D01*
X209036666Y-94153630D01*
X209655714Y-94153630D01*
%TO.C,C32*%
X122557142Y-97457142D02*
X122509523Y-97504761D01*
X122366666Y-97552380D01*
X122271428Y-97552380D01*
X122128571Y-97504761D01*
X122033333Y-97409523D01*
X121985714Y-97314285D01*
X121938095Y-97123809D01*
X121938095Y-96980952D01*
X121985714Y-96790476D01*
X122033333Y-96695238D01*
X122128571Y-96600000D01*
X122271428Y-96552380D01*
X122366666Y-96552380D01*
X122509523Y-96600000D01*
X122557142Y-96647619D01*
X122890476Y-96552380D02*
X123509523Y-96552380D01*
X123176190Y-96933333D01*
X123319047Y-96933333D01*
X123414285Y-96980952D01*
X123461904Y-97028571D01*
X123509523Y-97123809D01*
X123509523Y-97361904D01*
X123461904Y-97457142D01*
X123414285Y-97504761D01*
X123319047Y-97552380D01*
X123033333Y-97552380D01*
X122938095Y-97504761D01*
X122890476Y-97457142D01*
X123890476Y-96647619D02*
X123938095Y-96600000D01*
X124033333Y-96552380D01*
X124271428Y-96552380D01*
X124366666Y-96600000D01*
X124414285Y-96647619D01*
X124461904Y-96742857D01*
X124461904Y-96838095D01*
X124414285Y-96980952D01*
X123842857Y-97552380D01*
X124461904Y-97552380D01*
%TO.C,R25*%
X141512380Y-69602857D02*
X141036190Y-69936190D01*
X141512380Y-70174285D02*
X140512380Y-70174285D01*
X140512380Y-69793333D01*
X140560000Y-69698095D01*
X140607619Y-69650476D01*
X140702857Y-69602857D01*
X140845714Y-69602857D01*
X140940952Y-69650476D01*
X140988571Y-69698095D01*
X141036190Y-69793333D01*
X141036190Y-70174285D01*
X140607619Y-69221904D02*
X140560000Y-69174285D01*
X140512380Y-69079047D01*
X140512380Y-68840952D01*
X140560000Y-68745714D01*
X140607619Y-68698095D01*
X140702857Y-68650476D01*
X140798095Y-68650476D01*
X140940952Y-68698095D01*
X141512380Y-69269523D01*
X141512380Y-68650476D01*
X140512380Y-67745714D02*
X140512380Y-68221904D01*
X140988571Y-68269523D01*
X140940952Y-68221904D01*
X140893333Y-68126666D01*
X140893333Y-67888571D01*
X140940952Y-67793333D01*
X140988571Y-67745714D01*
X141083809Y-67698095D01*
X141321904Y-67698095D01*
X141417142Y-67745714D01*
X141464761Y-67793333D01*
X141512380Y-67888571D01*
X141512380Y-68126666D01*
X141464761Y-68221904D01*
X141417142Y-68269523D01*
%TO.C,R3*%
X207253333Y-87472380D02*
X206920000Y-86996190D01*
X206681904Y-87472380D02*
X206681904Y-86472380D01*
X207062857Y-86472380D01*
X207158095Y-86520000D01*
X207205714Y-86567619D01*
X207253333Y-86662857D01*
X207253333Y-86805714D01*
X207205714Y-86900952D01*
X207158095Y-86948571D01*
X207062857Y-86996190D01*
X206681904Y-86996190D01*
X207586666Y-86472380D02*
X208205714Y-86472380D01*
X207872380Y-86853333D01*
X208015238Y-86853333D01*
X208110476Y-86900952D01*
X208158095Y-86948571D01*
X208205714Y-87043809D01*
X208205714Y-87281904D01*
X208158095Y-87377142D01*
X208110476Y-87424761D01*
X208015238Y-87472380D01*
X207729523Y-87472380D01*
X207634285Y-87424761D01*
X207586666Y-87377142D01*
%TO.C,C29*%
X108397969Y-73157106D02*
X108397969Y-73224450D01*
X108330625Y-73359137D01*
X108263282Y-73426480D01*
X108128595Y-73493824D01*
X107993908Y-73493824D01*
X107892893Y-73460152D01*
X107724534Y-73359137D01*
X107623519Y-73258122D01*
X107522503Y-73089763D01*
X107488832Y-72988748D01*
X107488832Y-72854061D01*
X107556175Y-72719374D01*
X107623519Y-72652030D01*
X107758206Y-72584687D01*
X107825549Y-72584687D01*
X108094923Y-72315312D02*
X108094923Y-72247969D01*
X108128595Y-72146954D01*
X108296954Y-71978595D01*
X108397969Y-71944923D01*
X108465312Y-71944923D01*
X108566328Y-71978595D01*
X108633671Y-72045938D01*
X108701015Y-72180625D01*
X108701015Y-72988748D01*
X109138748Y-72551015D01*
X109475465Y-72214297D02*
X109610152Y-72079610D01*
X109643824Y-71978595D01*
X109643824Y-71911251D01*
X109610152Y-71742893D01*
X109509137Y-71574534D01*
X109239763Y-71305160D01*
X109138748Y-71271488D01*
X109071404Y-71271488D01*
X108970389Y-71305160D01*
X108835702Y-71439847D01*
X108802030Y-71540862D01*
X108802030Y-71608206D01*
X108835702Y-71709221D01*
X109004061Y-71877580D01*
X109105076Y-71911251D01*
X109172419Y-71911251D01*
X109273435Y-71877580D01*
X109408122Y-71742893D01*
X109441793Y-71641877D01*
X109441793Y-71574534D01*
X109408122Y-71473519D01*
%TO.C,J6*%
X184096666Y-60812380D02*
X184096666Y-61526666D01*
X184049047Y-61669523D01*
X183953809Y-61764761D01*
X183810952Y-61812380D01*
X183715714Y-61812380D01*
X185001428Y-60812380D02*
X184810952Y-60812380D01*
X184715714Y-60860000D01*
X184668095Y-60907619D01*
X184572857Y-61050476D01*
X184525238Y-61240952D01*
X184525238Y-61621904D01*
X184572857Y-61717142D01*
X184620476Y-61764761D01*
X184715714Y-61812380D01*
X184906190Y-61812380D01*
X185001428Y-61764761D01*
X185049047Y-61717142D01*
X185096666Y-61621904D01*
X185096666Y-61383809D01*
X185049047Y-61288571D01*
X185001428Y-61240952D01*
X184906190Y-61193333D01*
X184715714Y-61193333D01*
X184620476Y-61240952D01*
X184572857Y-61288571D01*
X184525238Y-61383809D01*
%TO.C,R1*%
X206193333Y-100162380D02*
X205860000Y-99686190D01*
X205621904Y-100162380D02*
X205621904Y-99162380D01*
X206002857Y-99162380D01*
X206098095Y-99210000D01*
X206145714Y-99257619D01*
X206193333Y-99352857D01*
X206193333Y-99495714D01*
X206145714Y-99590952D01*
X206098095Y-99638571D01*
X206002857Y-99686190D01*
X205621904Y-99686190D01*
X207145714Y-100162380D02*
X206574285Y-100162380D01*
X206860000Y-100162380D02*
X206860000Y-99162380D01*
X206764761Y-99305238D01*
X206669523Y-99400476D01*
X206574285Y-99448095D01*
%TO.C,C34*%
X89857142Y-81392857D02*
X89904761Y-81440476D01*
X89952380Y-81583333D01*
X89952380Y-81678571D01*
X89904761Y-81821428D01*
X89809523Y-81916666D01*
X89714285Y-81964285D01*
X89523809Y-82011904D01*
X89380952Y-82011904D01*
X89190476Y-81964285D01*
X89095238Y-81916666D01*
X89000000Y-81821428D01*
X88952380Y-81678571D01*
X88952380Y-81583333D01*
X89000000Y-81440476D01*
X89047619Y-81392857D01*
X88952380Y-81059523D02*
X88952380Y-80440476D01*
X89333333Y-80773809D01*
X89333333Y-80630952D01*
X89380952Y-80535714D01*
X89428571Y-80488095D01*
X89523809Y-80440476D01*
X89761904Y-80440476D01*
X89857142Y-80488095D01*
X89904761Y-80535714D01*
X89952380Y-80630952D01*
X89952380Y-80916666D01*
X89904761Y-81011904D01*
X89857142Y-81059523D01*
X89285714Y-79583333D02*
X89952380Y-79583333D01*
X88904761Y-79821428D02*
X89619047Y-80059523D01*
X89619047Y-79440476D01*
%TO.C,D9*%
X65552380Y-128088095D02*
X64552380Y-128088095D01*
X64552380Y-127850000D01*
X64600000Y-127707142D01*
X64695238Y-127611904D01*
X64790476Y-127564285D01*
X64980952Y-127516666D01*
X65123809Y-127516666D01*
X65314285Y-127564285D01*
X65409523Y-127611904D01*
X65504761Y-127707142D01*
X65552380Y-127850000D01*
X65552380Y-128088095D01*
X65552380Y-127040476D02*
X65552380Y-126850000D01*
X65504761Y-126754761D01*
X65457142Y-126707142D01*
X65314285Y-126611904D01*
X65123809Y-126564285D01*
X64742857Y-126564285D01*
X64647619Y-126611904D01*
X64600000Y-126659523D01*
X64552380Y-126754761D01*
X64552380Y-126945238D01*
X64600000Y-127040476D01*
X64647619Y-127088095D01*
X64742857Y-127135714D01*
X64980952Y-127135714D01*
X65076190Y-127088095D01*
X65123809Y-127040476D01*
X65171428Y-126945238D01*
X65171428Y-126754761D01*
X65123809Y-126659523D01*
X65076190Y-126611904D01*
X64980952Y-126564285D01*
%TO.C,C26*%
X102957142Y-126907142D02*
X102909523Y-126954761D01*
X102766666Y-127002380D01*
X102671428Y-127002380D01*
X102528571Y-126954761D01*
X102433333Y-126859523D01*
X102385714Y-126764285D01*
X102338095Y-126573809D01*
X102338095Y-126430952D01*
X102385714Y-126240476D01*
X102433333Y-126145238D01*
X102528571Y-126050000D01*
X102671428Y-126002380D01*
X102766666Y-126002380D01*
X102909523Y-126050000D01*
X102957142Y-126097619D01*
X103338095Y-126097619D02*
X103385714Y-126050000D01*
X103480952Y-126002380D01*
X103719047Y-126002380D01*
X103814285Y-126050000D01*
X103861904Y-126097619D01*
X103909523Y-126192857D01*
X103909523Y-126288095D01*
X103861904Y-126430952D01*
X103290476Y-127002380D01*
X103909523Y-127002380D01*
X104766666Y-126002380D02*
X104576190Y-126002380D01*
X104480952Y-126050000D01*
X104433333Y-126097619D01*
X104338095Y-126240476D01*
X104290476Y-126430952D01*
X104290476Y-126811904D01*
X104338095Y-126907142D01*
X104385714Y-126954761D01*
X104480952Y-127002380D01*
X104671428Y-127002380D01*
X104766666Y-126954761D01*
X104814285Y-126907142D01*
X104861904Y-126811904D01*
X104861904Y-126573809D01*
X104814285Y-126478571D01*
X104766666Y-126430952D01*
X104671428Y-126383333D01*
X104480952Y-126383333D01*
X104385714Y-126430952D01*
X104338095Y-126478571D01*
X104290476Y-126573809D01*
%TO.C,D2*%
X75461904Y-49702380D02*
X75461904Y-48702380D01*
X75700000Y-48702380D01*
X75842857Y-48750000D01*
X75938095Y-48845238D01*
X75985714Y-48940476D01*
X76033333Y-49130952D01*
X76033333Y-49273809D01*
X75985714Y-49464285D01*
X75938095Y-49559523D01*
X75842857Y-49654761D01*
X75700000Y-49702380D01*
X75461904Y-49702380D01*
X76414285Y-48797619D02*
X76461904Y-48750000D01*
X76557142Y-48702380D01*
X76795238Y-48702380D01*
X76890476Y-48750000D01*
X76938095Y-48797619D01*
X76985714Y-48892857D01*
X76985714Y-48988095D01*
X76938095Y-49130952D01*
X76366666Y-49702380D01*
X76985714Y-49702380D01*
%TO.C,R12*%
X172667142Y-100082380D02*
X172333809Y-99606190D01*
X172095714Y-100082380D02*
X172095714Y-99082380D01*
X172476666Y-99082380D01*
X172571904Y-99130000D01*
X172619523Y-99177619D01*
X172667142Y-99272857D01*
X172667142Y-99415714D01*
X172619523Y-99510952D01*
X172571904Y-99558571D01*
X172476666Y-99606190D01*
X172095714Y-99606190D01*
X173619523Y-100082380D02*
X173048095Y-100082380D01*
X173333809Y-100082380D02*
X173333809Y-99082380D01*
X173238571Y-99225238D01*
X173143333Y-99320476D01*
X173048095Y-99368095D01*
X174000476Y-99177619D02*
X174048095Y-99130000D01*
X174143333Y-99082380D01*
X174381428Y-99082380D01*
X174476666Y-99130000D01*
X174524285Y-99177619D01*
X174571904Y-99272857D01*
X174571904Y-99368095D01*
X174524285Y-99510952D01*
X173952857Y-100082380D01*
X174571904Y-100082380D01*
%TO.C,R22*%
X77557142Y-97987380D02*
X77223809Y-97511190D01*
X76985714Y-97987380D02*
X76985714Y-96987380D01*
X77366666Y-96987380D01*
X77461904Y-97035000D01*
X77509523Y-97082619D01*
X77557142Y-97177857D01*
X77557142Y-97320714D01*
X77509523Y-97415952D01*
X77461904Y-97463571D01*
X77366666Y-97511190D01*
X76985714Y-97511190D01*
X77938095Y-97082619D02*
X77985714Y-97035000D01*
X78080952Y-96987380D01*
X78319047Y-96987380D01*
X78414285Y-97035000D01*
X78461904Y-97082619D01*
X78509523Y-97177857D01*
X78509523Y-97273095D01*
X78461904Y-97415952D01*
X77890476Y-97987380D01*
X78509523Y-97987380D01*
X78890476Y-97082619D02*
X78938095Y-97035000D01*
X79033333Y-96987380D01*
X79271428Y-96987380D01*
X79366666Y-97035000D01*
X79414285Y-97082619D01*
X79461904Y-97177857D01*
X79461904Y-97273095D01*
X79414285Y-97415952D01*
X78842857Y-97987380D01*
X79461904Y-97987380D01*
%TO.C,R24*%
X144017142Y-70452380D02*
X143683809Y-69976190D01*
X143445714Y-70452380D02*
X143445714Y-69452380D01*
X143826666Y-69452380D01*
X143921904Y-69500000D01*
X143969523Y-69547619D01*
X144017142Y-69642857D01*
X144017142Y-69785714D01*
X143969523Y-69880952D01*
X143921904Y-69928571D01*
X143826666Y-69976190D01*
X143445714Y-69976190D01*
X144398095Y-69547619D02*
X144445714Y-69500000D01*
X144540952Y-69452380D01*
X144779047Y-69452380D01*
X144874285Y-69500000D01*
X144921904Y-69547619D01*
X144969523Y-69642857D01*
X144969523Y-69738095D01*
X144921904Y-69880952D01*
X144350476Y-70452380D01*
X144969523Y-70452380D01*
X145826666Y-69785714D02*
X145826666Y-70452380D01*
X145588571Y-69404761D02*
X145350476Y-70119047D01*
X145969523Y-70119047D01*
%TO.C,L1*%
X192450121Y-120373331D02*
X192450121Y-119897140D01*
X193450121Y-119897140D01*
X192450121Y-121230474D02*
X192450121Y-120659045D01*
X192450121Y-120944759D02*
X193450121Y-120944759D01*
X193307263Y-120849521D01*
X193212025Y-120754283D01*
X193164406Y-120659045D01*
%TO.C,R40*%
X111652380Y-98092857D02*
X111176190Y-98426190D01*
X111652380Y-98664285D02*
X110652380Y-98664285D01*
X110652380Y-98283333D01*
X110700000Y-98188095D01*
X110747619Y-98140476D01*
X110842857Y-98092857D01*
X110985714Y-98092857D01*
X111080952Y-98140476D01*
X111128571Y-98188095D01*
X111176190Y-98283333D01*
X111176190Y-98664285D01*
X110985714Y-97235714D02*
X111652380Y-97235714D01*
X110604761Y-97473809D02*
X111319047Y-97711904D01*
X111319047Y-97092857D01*
X110652380Y-96521428D02*
X110652380Y-96426190D01*
X110700000Y-96330952D01*
X110747619Y-96283333D01*
X110842857Y-96235714D01*
X111033333Y-96188095D01*
X111271428Y-96188095D01*
X111461904Y-96235714D01*
X111557142Y-96283333D01*
X111604761Y-96330952D01*
X111652380Y-96426190D01*
X111652380Y-96521428D01*
X111604761Y-96616666D01*
X111557142Y-96664285D01*
X111461904Y-96711904D01*
X111271428Y-96759523D01*
X111033333Y-96759523D01*
X110842857Y-96711904D01*
X110747619Y-96664285D01*
X110700000Y-96616666D01*
X110652380Y-96521428D01*
%TO.C,R39*%
X138239642Y-125199880D02*
X137906309Y-124723690D01*
X137668214Y-125199880D02*
X137668214Y-124199880D01*
X138049166Y-124199880D01*
X138144404Y-124247500D01*
X138192023Y-124295119D01*
X138239642Y-124390357D01*
X138239642Y-124533214D01*
X138192023Y-124628452D01*
X138144404Y-124676071D01*
X138049166Y-124723690D01*
X137668214Y-124723690D01*
X138572976Y-124199880D02*
X139192023Y-124199880D01*
X138858690Y-124580833D01*
X139001547Y-124580833D01*
X139096785Y-124628452D01*
X139144404Y-124676071D01*
X139192023Y-124771309D01*
X139192023Y-125009404D01*
X139144404Y-125104642D01*
X139096785Y-125152261D01*
X139001547Y-125199880D01*
X138715833Y-125199880D01*
X138620595Y-125152261D01*
X138572976Y-125104642D01*
X139668214Y-125199880D02*
X139858690Y-125199880D01*
X139953928Y-125152261D01*
X140001547Y-125104642D01*
X140096785Y-124961785D01*
X140144404Y-124771309D01*
X140144404Y-124390357D01*
X140096785Y-124295119D01*
X140049166Y-124247500D01*
X139953928Y-124199880D01*
X139763452Y-124199880D01*
X139668214Y-124247500D01*
X139620595Y-124295119D01*
X139572976Y-124390357D01*
X139572976Y-124628452D01*
X139620595Y-124723690D01*
X139668214Y-124771309D01*
X139763452Y-124818928D01*
X139953928Y-124818928D01*
X140049166Y-124771309D01*
X140096785Y-124723690D01*
X140144404Y-124628452D01*
%TO.C,R4*%
X209083333Y-84892380D02*
X208750000Y-84416190D01*
X208511904Y-84892380D02*
X208511904Y-83892380D01*
X208892857Y-83892380D01*
X208988095Y-83940000D01*
X209035714Y-83987619D01*
X209083333Y-84082857D01*
X209083333Y-84225714D01*
X209035714Y-84320952D01*
X208988095Y-84368571D01*
X208892857Y-84416190D01*
X208511904Y-84416190D01*
X209940476Y-84225714D02*
X209940476Y-84892380D01*
X209702380Y-83844761D02*
X209464285Y-84559047D01*
X210083333Y-84559047D01*
%TO.C,C20*%
X79237142Y-88677857D02*
X79284761Y-88725476D01*
X79332380Y-88868333D01*
X79332380Y-88963571D01*
X79284761Y-89106428D01*
X79189523Y-89201666D01*
X79094285Y-89249285D01*
X78903809Y-89296904D01*
X78760952Y-89296904D01*
X78570476Y-89249285D01*
X78475238Y-89201666D01*
X78380000Y-89106428D01*
X78332380Y-88963571D01*
X78332380Y-88868333D01*
X78380000Y-88725476D01*
X78427619Y-88677857D01*
X78427619Y-88296904D02*
X78380000Y-88249285D01*
X78332380Y-88154047D01*
X78332380Y-87915952D01*
X78380000Y-87820714D01*
X78427619Y-87773095D01*
X78522857Y-87725476D01*
X78618095Y-87725476D01*
X78760952Y-87773095D01*
X79332380Y-88344523D01*
X79332380Y-87725476D01*
X78332380Y-87106428D02*
X78332380Y-87011190D01*
X78380000Y-86915952D01*
X78427619Y-86868333D01*
X78522857Y-86820714D01*
X78713333Y-86773095D01*
X78951428Y-86773095D01*
X79141904Y-86820714D01*
X79237142Y-86868333D01*
X79284761Y-86915952D01*
X79332380Y-87011190D01*
X79332380Y-87106428D01*
X79284761Y-87201666D01*
X79237142Y-87249285D01*
X79141904Y-87296904D01*
X78951428Y-87344523D01*
X78713333Y-87344523D01*
X78522857Y-87296904D01*
X78427619Y-87249285D01*
X78380000Y-87201666D01*
X78332380Y-87106428D01*
%TO.C,R41*%
X68657142Y-120902380D02*
X68323809Y-120426190D01*
X68085714Y-120902380D02*
X68085714Y-119902380D01*
X68466666Y-119902380D01*
X68561904Y-119950000D01*
X68609523Y-119997619D01*
X68657142Y-120092857D01*
X68657142Y-120235714D01*
X68609523Y-120330952D01*
X68561904Y-120378571D01*
X68466666Y-120426190D01*
X68085714Y-120426190D01*
X69514285Y-120235714D02*
X69514285Y-120902380D01*
X69276190Y-119854761D02*
X69038095Y-120569047D01*
X69657142Y-120569047D01*
X70561904Y-120902380D02*
X69990476Y-120902380D01*
X70276190Y-120902380D02*
X70276190Y-119902380D01*
X70180952Y-120045238D01*
X70085714Y-120140476D01*
X69990476Y-120188095D01*
%TO.C,C9*%
X204013333Y-106677142D02*
X203965714Y-106724761D01*
X203822857Y-106772380D01*
X203727619Y-106772380D01*
X203584761Y-106724761D01*
X203489523Y-106629523D01*
X203441904Y-106534285D01*
X203394285Y-106343809D01*
X203394285Y-106200952D01*
X203441904Y-106010476D01*
X203489523Y-105915238D01*
X203584761Y-105820000D01*
X203727619Y-105772380D01*
X203822857Y-105772380D01*
X203965714Y-105820000D01*
X204013333Y-105867619D01*
X204489523Y-106772380D02*
X204680000Y-106772380D01*
X204775238Y-106724761D01*
X204822857Y-106677142D01*
X204918095Y-106534285D01*
X204965714Y-106343809D01*
X204965714Y-105962857D01*
X204918095Y-105867619D01*
X204870476Y-105820000D01*
X204775238Y-105772380D01*
X204584761Y-105772380D01*
X204489523Y-105820000D01*
X204441904Y-105867619D01*
X204394285Y-105962857D01*
X204394285Y-106200952D01*
X204441904Y-106296190D01*
X204489523Y-106343809D01*
X204584761Y-106391428D01*
X204775238Y-106391428D01*
X204870476Y-106343809D01*
X204918095Y-106296190D01*
X204965714Y-106200952D01*
%TO.C,U6*%
X95152380Y-121011904D02*
X95961904Y-121011904D01*
X96057142Y-120964285D01*
X96104761Y-120916666D01*
X96152380Y-120821428D01*
X96152380Y-120630952D01*
X96104761Y-120535714D01*
X96057142Y-120488095D01*
X95961904Y-120440476D01*
X95152380Y-120440476D01*
X95152380Y-119535714D02*
X95152380Y-119726190D01*
X95200000Y-119821428D01*
X95247619Y-119869047D01*
X95390476Y-119964285D01*
X95580952Y-120011904D01*
X95961904Y-120011904D01*
X96057142Y-119964285D01*
X96104761Y-119916666D01*
X96152380Y-119821428D01*
X96152380Y-119630952D01*
X96104761Y-119535714D01*
X96057142Y-119488095D01*
X95961904Y-119440476D01*
X95723809Y-119440476D01*
X95628571Y-119488095D01*
X95580952Y-119535714D01*
X95533333Y-119630952D01*
X95533333Y-119821428D01*
X95580952Y-119916666D01*
X95628571Y-119964285D01*
X95723809Y-120011904D01*
%TO.C,R9*%
X193143333Y-93082380D02*
X192810000Y-92606190D01*
X192571904Y-93082380D02*
X192571904Y-92082380D01*
X192952857Y-92082380D01*
X193048095Y-92130000D01*
X193095714Y-92177619D01*
X193143333Y-92272857D01*
X193143333Y-92415714D01*
X193095714Y-92510952D01*
X193048095Y-92558571D01*
X192952857Y-92606190D01*
X192571904Y-92606190D01*
X193619523Y-93082380D02*
X193810000Y-93082380D01*
X193905238Y-93034761D01*
X193952857Y-92987142D01*
X194048095Y-92844285D01*
X194095714Y-92653809D01*
X194095714Y-92272857D01*
X194048095Y-92177619D01*
X194000476Y-92130000D01*
X193905238Y-92082380D01*
X193714761Y-92082380D01*
X193619523Y-92130000D01*
X193571904Y-92177619D01*
X193524285Y-92272857D01*
X193524285Y-92510952D01*
X193571904Y-92606190D01*
X193619523Y-92653809D01*
X193714761Y-92701428D01*
X193905238Y-92701428D01*
X194000476Y-92653809D01*
X194048095Y-92606190D01*
X194095714Y-92510952D01*
%TO.C,D3*%
X80061904Y-49402380D02*
X80061904Y-48402380D01*
X80300000Y-48402380D01*
X80442857Y-48450000D01*
X80538095Y-48545238D01*
X80585714Y-48640476D01*
X80633333Y-48830952D01*
X80633333Y-48973809D01*
X80585714Y-49164285D01*
X80538095Y-49259523D01*
X80442857Y-49354761D01*
X80300000Y-49402380D01*
X80061904Y-49402380D01*
X80966666Y-48402380D02*
X81585714Y-48402380D01*
X81252380Y-48783333D01*
X81395238Y-48783333D01*
X81490476Y-48830952D01*
X81538095Y-48878571D01*
X81585714Y-48973809D01*
X81585714Y-49211904D01*
X81538095Y-49307142D01*
X81490476Y-49354761D01*
X81395238Y-49402380D01*
X81109523Y-49402380D01*
X81014285Y-49354761D01*
X80966666Y-49307142D01*
%TO.C,SW1*%
X66956666Y-84749761D02*
X67099523Y-84797380D01*
X67337619Y-84797380D01*
X67432857Y-84749761D01*
X67480476Y-84702142D01*
X67528095Y-84606904D01*
X67528095Y-84511666D01*
X67480476Y-84416428D01*
X67432857Y-84368809D01*
X67337619Y-84321190D01*
X67147142Y-84273571D01*
X67051904Y-84225952D01*
X67004285Y-84178333D01*
X66956666Y-84083095D01*
X66956666Y-83987857D01*
X67004285Y-83892619D01*
X67051904Y-83845000D01*
X67147142Y-83797380D01*
X67385238Y-83797380D01*
X67528095Y-83845000D01*
X67861428Y-83797380D02*
X68099523Y-84797380D01*
X68290000Y-84083095D01*
X68480476Y-84797380D01*
X68718571Y-83797380D01*
X69623333Y-84797380D02*
X69051904Y-84797380D01*
X69337619Y-84797380D02*
X69337619Y-83797380D01*
X69242380Y-83940238D01*
X69147142Y-84035476D01*
X69051904Y-84083095D01*
%TO.C,R36*%
X97230947Y-90328190D02*
X97129932Y-90900609D01*
X97635008Y-90732251D02*
X96927901Y-91439357D01*
X96658527Y-91169983D01*
X96624855Y-91068968D01*
X96624855Y-91001625D01*
X96658527Y-90900609D01*
X96759542Y-90799594D01*
X96860558Y-90765922D01*
X96927901Y-90765922D01*
X97028916Y-90799594D01*
X97298290Y-91068968D01*
X96288138Y-90799594D02*
X95850405Y-90361861D01*
X96355481Y-90328190D01*
X96254466Y-90227174D01*
X96220794Y-90126159D01*
X96220794Y-90058815D01*
X96254466Y-89957800D01*
X96422825Y-89789441D01*
X96523840Y-89755770D01*
X96591184Y-89755770D01*
X96692199Y-89789441D01*
X96894229Y-89991472D01*
X96927901Y-90092487D01*
X96927901Y-90159831D01*
X95244313Y-89755770D02*
X95379000Y-89890457D01*
X95480016Y-89924128D01*
X95547359Y-89924128D01*
X95715718Y-89890457D01*
X95884077Y-89789441D01*
X96153451Y-89520067D01*
X96187122Y-89419052D01*
X96187122Y-89351709D01*
X96153451Y-89250693D01*
X96018764Y-89116006D01*
X95917748Y-89082335D01*
X95850405Y-89082335D01*
X95749390Y-89116006D01*
X95581031Y-89284365D01*
X95547359Y-89385380D01*
X95547359Y-89452724D01*
X95581031Y-89553739D01*
X95715718Y-89688426D01*
X95816733Y-89722098D01*
X95884077Y-89722098D01*
X95985092Y-89688426D01*
%TO.C,R17*%
X80857142Y-71502380D02*
X80523809Y-71026190D01*
X80285714Y-71502380D02*
X80285714Y-70502380D01*
X80666666Y-70502380D01*
X80761904Y-70550000D01*
X80809523Y-70597619D01*
X80857142Y-70692857D01*
X80857142Y-70835714D01*
X80809523Y-70930952D01*
X80761904Y-70978571D01*
X80666666Y-71026190D01*
X80285714Y-71026190D01*
X81809523Y-71502380D02*
X81238095Y-71502380D01*
X81523809Y-71502380D02*
X81523809Y-70502380D01*
X81428571Y-70645238D01*
X81333333Y-70740476D01*
X81238095Y-70788095D01*
X82142857Y-70502380D02*
X82809523Y-70502380D01*
X82380952Y-71502380D01*
%TO.C,R38*%
X140239642Y-118199879D02*
X139906309Y-117723689D01*
X139668214Y-118199879D02*
X139668214Y-117199879D01*
X140049166Y-117199879D01*
X140144404Y-117247499D01*
X140192023Y-117295118D01*
X140239642Y-117390356D01*
X140239642Y-117533213D01*
X140192023Y-117628451D01*
X140144404Y-117676070D01*
X140049166Y-117723689D01*
X139668214Y-117723689D01*
X140572976Y-117199879D02*
X141192023Y-117199879D01*
X140858690Y-117580832D01*
X141001547Y-117580832D01*
X141096785Y-117628451D01*
X141144404Y-117676070D01*
X141192023Y-117771308D01*
X141192023Y-118009403D01*
X141144404Y-118104641D01*
X141096785Y-118152260D01*
X141001547Y-118199879D01*
X140715833Y-118199879D01*
X140620595Y-118152260D01*
X140572976Y-118104641D01*
X141763452Y-117628451D02*
X141668214Y-117580832D01*
X141620595Y-117533213D01*
X141572976Y-117437975D01*
X141572976Y-117390356D01*
X141620595Y-117295118D01*
X141668214Y-117247499D01*
X141763452Y-117199879D01*
X141953928Y-117199879D01*
X142049166Y-117247499D01*
X142096785Y-117295118D01*
X142144404Y-117390356D01*
X142144404Y-117437975D01*
X142096785Y-117533213D01*
X142049166Y-117580832D01*
X141953928Y-117628451D01*
X141763452Y-117628451D01*
X141668214Y-117676070D01*
X141620595Y-117723689D01*
X141572976Y-117818927D01*
X141572976Y-118009403D01*
X141620595Y-118104641D01*
X141668214Y-118152260D01*
X141763452Y-118199879D01*
X141953928Y-118199879D01*
X142049166Y-118152260D01*
X142096785Y-118104641D01*
X142144404Y-118009403D01*
X142144404Y-117818927D01*
X142096785Y-117723689D01*
X142049166Y-117676070D01*
X141953928Y-117628451D01*
%TO.C,L4*%
X126360118Y-110900834D02*
X126360118Y-110424643D01*
X127360118Y-110424643D01*
X127026784Y-111662739D02*
X126360118Y-111662739D01*
X127407737Y-111424643D02*
X126693451Y-111186548D01*
X126693451Y-111805596D01*
%TO.C,R42*%
X68657142Y-127652380D02*
X68323809Y-127176190D01*
X68085714Y-127652380D02*
X68085714Y-126652380D01*
X68466666Y-126652380D01*
X68561904Y-126700000D01*
X68609523Y-126747619D01*
X68657142Y-126842857D01*
X68657142Y-126985714D01*
X68609523Y-127080952D01*
X68561904Y-127128571D01*
X68466666Y-127176190D01*
X68085714Y-127176190D01*
X69514285Y-126985714D02*
X69514285Y-127652380D01*
X69276190Y-126604761D02*
X69038095Y-127319047D01*
X69657142Y-127319047D01*
X69990476Y-126747619D02*
X70038095Y-126700000D01*
X70133333Y-126652380D01*
X70371428Y-126652380D01*
X70466666Y-126700000D01*
X70514285Y-126747619D01*
X70561904Y-126842857D01*
X70561904Y-126938095D01*
X70514285Y-127080952D01*
X69942857Y-127652380D01*
X70561904Y-127652380D01*
D13*
%TO.C,C10*%
X218990000Y-78890000D02*
X203750000Y-78890000D01*
X218990000Y-45650000D02*
X203750000Y-45650000D01*
X218990000Y-45650000D02*
X218990000Y-78890000D01*
X203750000Y-45650000D02*
X203750000Y-78890000D01*
%TO.C,C36*%
X111335000Y-81311252D02*
X111335000Y-80788748D01*
X109865000Y-81311252D02*
X109865000Y-80788748D01*
D14*
%TO.C,F1*%
X65900000Y-58250000D02*
X65900000Y-60450000D01*
X62700000Y-60450000D02*
X62700000Y-58250000D01*
X66263500Y-55750000D02*
G75*
G03*
X66263500Y-55750000I-63500J0D01*
G01*
D13*
%TO.C,R29*%
X92672936Y-115615000D02*
X93127064Y-115615000D01*
X92672936Y-117085000D02*
X93127064Y-117085000D01*
%TO.C,C2*%
X210635000Y-90012502D02*
X210635000Y-89489998D01*
X212105000Y-90012502D02*
X212105000Y-89489998D01*
%TO.C,R19*%
X78372936Y-56815000D02*
X78827064Y-56815000D01*
X78372936Y-58285000D02*
X78827064Y-58285000D01*
%TO.C,R16*%
X72835000Y-57922936D02*
X72835000Y-58377064D01*
X71365000Y-57922936D02*
X71365000Y-58377064D01*
%TO.C,C12*%
X189075000Y-93603751D02*
X189075000Y-93081247D01*
X190545000Y-93603751D02*
X190545000Y-93081247D01*
%TO.C,R33*%
X145175000Y-83357064D02*
X145175000Y-82902936D01*
X143705000Y-83357064D02*
X143705000Y-82902936D01*
%TO.C,R34*%
X59335000Y-91337064D02*
X59335000Y-90882936D01*
X60805000Y-91337064D02*
X60805000Y-90882936D01*
%TO.C,J9*%
X62210000Y-108675000D02*
X70840000Y-108675000D01*
X62210000Y-103358805D02*
X70840000Y-103358805D01*
X72300000Y-100995000D02*
X73410000Y-100995000D01*
X62210000Y-101823570D02*
X70840000Y-101823570D01*
X62210000Y-103004520D02*
X70840000Y-103004520D01*
X62210000Y-101587380D02*
X70840000Y-101587380D01*
X70840000Y-104505000D02*
X71250000Y-104505000D01*
X62210000Y-116355000D02*
X70840000Y-116355000D01*
X70840000Y-112845000D02*
X71250000Y-112845000D01*
X70840000Y-109585000D02*
X71250000Y-109585000D01*
X62210000Y-102650235D02*
X70840000Y-102650235D01*
X70840000Y-100995000D02*
X70840000Y-116355000D01*
X70840000Y-115385000D02*
X71250000Y-115385000D01*
X62210000Y-102886425D02*
X70840000Y-102886425D01*
X70840000Y-101965000D02*
X71190000Y-101965000D01*
X62210000Y-102532140D02*
X70840000Y-102532140D01*
X62210000Y-101115000D02*
X70840000Y-101115000D01*
X70840000Y-107045000D02*
X71250000Y-107045000D01*
X70840000Y-112125000D02*
X71250000Y-112125000D01*
X70840000Y-110305000D02*
X71250000Y-110305000D01*
X70840000Y-102685000D02*
X71190000Y-102685000D01*
X62210000Y-103595000D02*
X70840000Y-103595000D01*
X62210000Y-103476900D02*
X70840000Y-103476900D01*
X70840000Y-114665000D02*
X71250000Y-114665000D01*
X62210000Y-106135000D02*
X70840000Y-106135000D01*
X62210000Y-113755000D02*
X70840000Y-113755000D01*
X70840000Y-105225000D02*
X71250000Y-105225000D01*
X70840000Y-107765000D02*
X71250000Y-107765000D01*
X62210000Y-101469285D02*
X70840000Y-101469285D01*
X62210000Y-111215000D02*
X70840000Y-111215000D01*
X62210000Y-102414045D02*
X70840000Y-102414045D01*
X62210000Y-101705475D02*
X70840000Y-101705475D01*
X62210000Y-102177855D02*
X70840000Y-102177855D01*
X62210000Y-100995000D02*
X70840000Y-100995000D01*
X62210000Y-102768330D02*
X70840000Y-102768330D01*
X62210000Y-101941665D02*
X70840000Y-101941665D01*
X62210000Y-101233095D02*
X70840000Y-101233095D01*
X62210000Y-102295950D02*
X70840000Y-102295950D01*
X62210000Y-102059760D02*
X70840000Y-102059760D01*
X62210000Y-103240710D02*
X70840000Y-103240710D01*
X73410000Y-100995000D02*
X73410000Y-102325000D01*
X62210000Y-101351190D02*
X70840000Y-101351190D01*
X62210000Y-100995000D02*
X62210000Y-116355000D01*
X62210000Y-103122615D02*
X70840000Y-103122615D01*
%TO.C,C11*%
X203300000Y-45570000D02*
X188060000Y-45570000D01*
X203300000Y-78810000D02*
X188060000Y-78810000D01*
X188060000Y-45570000D02*
X188060000Y-78810000D01*
X203300000Y-45570000D02*
X203300000Y-78810000D01*
%TO.C,C14*%
X195275000Y-88841252D02*
X195275000Y-88318748D01*
X196745000Y-88841252D02*
X196745000Y-88318748D01*
%TO.C,U8*%
X111500000Y-45000000D02*
X132500000Y-45000000D01*
X132500000Y-45000000D02*
X132500000Y-63000000D01*
X132500000Y-63000000D02*
X111500000Y-63000000D01*
X111500000Y-63000000D02*
X111500000Y-45000000D01*
X111500000Y-45000000D02*
X113000000Y-45000000D01*
X113000000Y-45000000D02*
X113000000Y-63000000D01*
X113000000Y-63000000D02*
X111500000Y-63000000D01*
X111500000Y-63000000D02*
X111500000Y-45000000D01*
X131000000Y-45000000D02*
X132500000Y-45000000D01*
X132500000Y-45000000D02*
X132500000Y-63000000D01*
X132500000Y-63000000D02*
X131000000Y-63000000D01*
X131000000Y-63000000D02*
X131000000Y-45000000D01*
%TO.C,C31*%
X106238748Y-105285000D02*
X106761252Y-105285000D01*
X106238748Y-103815000D02*
X106761252Y-103815000D01*
%TO.C,R13*%
X173537064Y-95165000D02*
X173082936Y-95165000D01*
X173537064Y-93695000D02*
X173082936Y-93695000D01*
%TO.C,R11*%
X173667064Y-102365000D02*
X173212936Y-102365000D01*
X173667064Y-100895000D02*
X173212936Y-100895000D01*
%TO.C,U3*%
X197597500Y-106330000D02*
X197597500Y-108130000D01*
X197597500Y-106330000D02*
X197597500Y-105530000D01*
X200717500Y-106330000D02*
X200717500Y-107130000D01*
X200717500Y-106330000D02*
X200717500Y-105530000D01*
%TO.C,C33*%
X101038748Y-70585000D02*
X101561252Y-70585000D01*
X101038748Y-69115000D02*
X101561252Y-69115000D01*
%TO.C,C35*%
X101865010Y-89945543D02*
X101495543Y-90315010D01*
X102904457Y-90984990D02*
X102534990Y-91354457D01*
%TO.C,R28*%
X173597064Y-91345000D02*
X173142936Y-91345000D01*
X173597064Y-89875000D02*
X173142936Y-89875000D01*
%TO.C,D5*%
X84340000Y-45990000D02*
X84340000Y-47910000D01*
X84340000Y-47910000D02*
X87200000Y-47910000D01*
X87200000Y-45990000D02*
X84340000Y-45990000D01*
%TO.C,L5*%
X143420001Y-112047499D02*
X139820001Y-112047499D01*
X139820001Y-112047499D02*
X139820001Y-106447499D01*
X139820001Y-106447499D02*
X143420001Y-106447499D01*
X143420001Y-106447499D02*
X143420001Y-112047499D01*
%TO.C,R14*%
X195275000Y-83307064D02*
X195275000Y-82852936D01*
X196745000Y-83307064D02*
X196745000Y-82852936D01*
%TO.C,D1*%
X76400000Y-80200000D02*
X78400000Y-80200000D01*
X78400000Y-80200000D02*
X78400000Y-76300000D01*
X76400000Y-80200000D02*
X76400000Y-76300000D01*
%TO.C,R20*%
X78272936Y-53015000D02*
X78727064Y-53015000D01*
X78272936Y-54485000D02*
X78727064Y-54485000D01*
%TO.C,C22*%
X145943754Y-122212500D02*
X145421250Y-122212500D01*
X145943754Y-123682500D02*
X145421250Y-123682500D01*
D11*
%TO.C,TP3*%
X65950000Y-67450000D02*
G75*
G03*
X65950000Y-67450000I-1750000J0D01*
G01*
D13*
%TO.C,C18*%
X135458749Y-107982499D02*
X135981253Y-107982499D01*
X135458749Y-106512499D02*
X135981253Y-106512499D01*
%TO.C,L3*%
X101200000Y-112750000D02*
X97600000Y-112750000D01*
X97600000Y-112750000D02*
X97600000Y-107150000D01*
X97600000Y-107150000D02*
X101200000Y-107150000D01*
X101200000Y-107150000D02*
X101200000Y-112750000D01*
%TO.C,C23*%
X93338748Y-109085000D02*
X93861252Y-109085000D01*
X93338748Y-107615000D02*
X93861252Y-107615000D01*
%TO.C,R18*%
X73327064Y-62385000D02*
X72872936Y-62385000D01*
X73327064Y-60915000D02*
X72872936Y-60915000D01*
%TO.C,U11*%
X138735000Y-75890000D02*
X138735000Y-73940000D01*
X138735000Y-75890000D02*
X138735000Y-79340000D01*
X147605000Y-75890000D02*
X147605000Y-73940000D01*
X147605000Y-75890000D02*
X147605000Y-77840000D01*
%TO.C,R37*%
X134792936Y-113612500D02*
X135247064Y-113612500D01*
X134792936Y-115082500D02*
X135247064Y-115082500D01*
D15*
%TO.C,U4*%
X185337503Y-109598900D02*
X188842497Y-109598900D01*
X188842497Y-104341100D02*
X185337503Y-104341100D01*
G36*
X183387201Y-105573000D02*
G01*
X183133201Y-105573000D01*
X183133201Y-105192000D01*
X183387201Y-105192000D01*
X183387201Y-105573000D01*
G37*
D13*
%TO.C,R32*%
X88427064Y-52885000D02*
X87972936Y-52885000D01*
X88427064Y-51415000D02*
X87972936Y-51415000D01*
%TO.C,D8*%
X64160000Y-123110000D02*
X64160000Y-120250000D01*
X62240000Y-123110000D02*
X64160000Y-123110000D01*
X62240000Y-120250000D02*
X62240000Y-123110000D01*
%TO.C,R10*%
X193045000Y-88807064D02*
X193045000Y-88352936D01*
X191575000Y-88807064D02*
X191575000Y-88352936D01*
%TO.C,R6*%
X173132936Y-108085000D02*
X173587064Y-108085000D01*
X173132936Y-109555000D02*
X173587064Y-109555000D01*
%TO.C,U12*%
X136580000Y-118347498D02*
X136580000Y-117547498D01*
X136580000Y-118347498D02*
X136580000Y-119147498D01*
X133460000Y-118347498D02*
X133460000Y-117547498D01*
X133460000Y-118347498D02*
X133460000Y-120147498D01*
%TO.C,R31*%
X97527064Y-125585000D02*
X97072936Y-125585000D01*
X97527064Y-124115000D02*
X97072936Y-124115000D01*
%TO.C,C1*%
X203735000Y-94575001D02*
X203735000Y-94052497D01*
X205205000Y-94575001D02*
X205205000Y-94052497D01*
%TO.C,C25*%
X182053749Y-122893751D02*
X182053749Y-122371247D01*
X180583749Y-122893751D02*
X180583749Y-122371247D01*
%TO.C,U1*%
X212030000Y-99751250D02*
X212030000Y-97951250D01*
X212030000Y-99751250D02*
X212030000Y-100551250D01*
X208910000Y-99751250D02*
X208910000Y-100551250D01*
X208910000Y-99751250D02*
X208910000Y-98951250D01*
%TO.C,Q1*%
X84060000Y-79830000D02*
X84060000Y-78900000D01*
X84060000Y-79830000D02*
X82600000Y-79830000D01*
X84060000Y-76670000D02*
X84060000Y-77600000D01*
X84060000Y-76670000D02*
X80900000Y-76670000D01*
%TO.C,U10*%
X131000000Y-45000000D02*
X152000000Y-45000000D01*
X152000000Y-45000000D02*
X152000000Y-63000000D01*
X152000000Y-63000000D02*
X131000000Y-63000000D01*
X131000000Y-63000000D02*
X131000000Y-45000000D01*
X131000000Y-45000000D02*
X132500000Y-45000000D01*
X132500000Y-45000000D02*
X132500000Y-63000000D01*
X132500000Y-63000000D02*
X131000000Y-63000000D01*
X131000000Y-63000000D02*
X131000000Y-45000000D01*
X150500000Y-45000000D02*
X152000000Y-45000000D01*
X152000000Y-45000000D02*
X152000000Y-63000000D01*
X152000000Y-63000000D02*
X150500000Y-63000000D01*
X150500000Y-63000000D02*
X150500000Y-45000000D01*
%TO.C,J2*%
X57252500Y-95171000D02*
X58252500Y-95671000D01*
X42512500Y-79801000D02*
X51632500Y-79801000D01*
X42512500Y-100381000D02*
X42512500Y-79801000D01*
X51632500Y-92141000D02*
X42512500Y-92141000D01*
X51632500Y-88041000D02*
X42512500Y-88041000D01*
X58252500Y-95671000D02*
X58252500Y-94671000D01*
X51632500Y-100381000D02*
X42512500Y-100381000D01*
X51632500Y-79801000D02*
X51632500Y-100381000D01*
X58252500Y-94671000D02*
X57252500Y-95171000D01*
%TO.C,R27*%
X155015000Y-68132936D02*
X155015000Y-68587064D01*
X156485000Y-68132936D02*
X156485000Y-68587064D01*
%TO.C,U9*%
X150500000Y-45000000D02*
X171500000Y-45000000D01*
X171500000Y-45000000D02*
X171500000Y-63000000D01*
X171500000Y-63000000D02*
X150500000Y-63000000D01*
X150500000Y-63000000D02*
X150500000Y-45000000D01*
X170000000Y-45000000D02*
X171500000Y-45000000D01*
X171500000Y-45000000D02*
X171500000Y-63000000D01*
X171500000Y-63000000D02*
X170000000Y-63000000D01*
X170000000Y-63000000D02*
X170000000Y-45000000D01*
X150500000Y-45000000D02*
X152000000Y-45000000D01*
X152000000Y-45000000D02*
X152000000Y-63000000D01*
X152000000Y-63000000D02*
X150500000Y-63000000D01*
X150500000Y-63000000D02*
X150500000Y-45000000D01*
%TO.C,R26*%
X127802936Y-67635000D02*
X128257064Y-67635000D01*
X127802936Y-69105000D02*
X128257064Y-69105000D01*
%TO.C,C7*%
X198941248Y-116504998D02*
X199463752Y-116504998D01*
X198941248Y-117974998D02*
X199463752Y-117974998D01*
%TO.C,C8*%
X198941250Y-121275001D02*
X199463754Y-121275001D01*
X198941250Y-119805001D02*
X199463754Y-119805001D01*
%TO.C,C13*%
X203936248Y-108785000D02*
X204458752Y-108785000D01*
X203936248Y-107315000D02*
X204458752Y-107315000D01*
%TO.C,U5*%
X156170000Y-80170000D02*
X166450000Y-80170000D01*
X166450000Y-76520000D02*
X166450000Y-74870000D01*
X156170000Y-74870000D02*
X156170000Y-80170000D01*
X166450000Y-74870000D02*
X156170000Y-74870000D01*
X166450000Y-80170000D02*
X166450000Y-78520000D01*
X166450000Y-76520000D02*
G75*
G03*
X166450000Y-78520000I0J-1000000D01*
G01*
%TO.C,R5*%
X173092936Y-111795000D02*
X173547064Y-111795000D01*
X173092936Y-113265000D02*
X173547064Y-113265000D01*
%TO.C,C30*%
X94338748Y-104885000D02*
X94861252Y-104885000D01*
X94338748Y-103415000D02*
X94861252Y-103415000D01*
%TO.C,J1*%
X72400000Y-45350000D02*
X72400000Y-43450000D01*
X63000000Y-49250000D02*
X63000000Y-47250000D01*
X63000000Y-45350000D02*
X63000000Y-43450000D01*
X72400000Y-43450000D02*
X63000000Y-43450000D01*
X72400000Y-49250000D02*
X72400000Y-47250000D01*
%TO.C,D4*%
X163920000Y-70380000D02*
X163920000Y-68380000D01*
X163920000Y-68380000D02*
X160020000Y-68380000D01*
X163920000Y-70380000D02*
X160020000Y-70380000D01*
%TO.C,R8*%
X190545000Y-98969564D02*
X190545000Y-98515436D01*
X189075000Y-98969564D02*
X189075000Y-98515436D01*
%TO.C,C6*%
X198941251Y-125074997D02*
X199463755Y-125074997D01*
X198941251Y-123604997D02*
X199463755Y-123604997D01*
%TO.C,C5*%
X184583748Y-122931251D02*
X184583748Y-122408747D01*
X186053748Y-122931251D02*
X186053748Y-122408747D01*
%TO.C,J5*%
X62900000Y-89830000D02*
X62900000Y-89070000D01*
X68900000Y-94490000D02*
X62900000Y-94490000D01*
X68900000Y-87290000D02*
X62900000Y-87290000D01*
X71560000Y-93260000D02*
X68900000Y-93260000D01*
X68900000Y-94730000D02*
X62900000Y-94730000D01*
X71957071Y-92370000D02*
X71560000Y-92370000D01*
X71957071Y-89070000D02*
X71560000Y-89070000D01*
X68900000Y-94610000D02*
X62900000Y-94610000D01*
X62900000Y-86530000D02*
X68900000Y-86530000D01*
X62900000Y-91610000D02*
X68900000Y-91610000D01*
X74270000Y-95800000D02*
X73000000Y-95800000D01*
X71957071Y-91610000D02*
X71560000Y-91610000D01*
X71957071Y-86530000D02*
X71560000Y-86530000D01*
X68900000Y-95860000D02*
X71560000Y-95860000D01*
X68900000Y-94850000D02*
X62900000Y-94850000D01*
X71560000Y-90720000D02*
X68900000Y-90720000D01*
X71957071Y-87290000D02*
X71560000Y-87290000D01*
X71890000Y-94150000D02*
X71560000Y-94150000D01*
X68900000Y-94250000D02*
X62900000Y-94250000D01*
X62900000Y-94150000D02*
X68900000Y-94150000D01*
X71560000Y-88180000D02*
X68900000Y-88180000D01*
X62900000Y-87290000D02*
X62900000Y-86530000D01*
X71957071Y-89830000D02*
X71560000Y-89830000D01*
X71890000Y-94910000D02*
X71560000Y-94910000D01*
X68900000Y-92370000D02*
X62900000Y-92370000D01*
X62900000Y-94910000D02*
X62900000Y-94150000D01*
X68900000Y-85580000D02*
X68900000Y-95860000D01*
X68900000Y-94910000D02*
X62900000Y-94910000D01*
X68900000Y-94370000D02*
X62900000Y-94370000D01*
X68900000Y-89830000D02*
X62900000Y-89830000D01*
X74270000Y-94530000D02*
X74270000Y-95800000D01*
X71560000Y-85580000D02*
X68900000Y-85580000D01*
X62900000Y-89070000D02*
X68900000Y-89070000D01*
X71560000Y-95860000D02*
X71560000Y-85580000D01*
X62900000Y-92370000D02*
X62900000Y-91610000D01*
%TO.C,C15*%
X134961252Y-69235000D02*
X134438748Y-69235000D01*
X134961252Y-70705000D02*
X134438748Y-70705000D01*
%TO.C,U7*%
X100328249Y-86504880D02*
X101000000Y-87176631D01*
X101000000Y-87176631D02*
X101671751Y-86504880D01*
X93773369Y-79950000D02*
X94445120Y-79278249D01*
X108226631Y-79950000D02*
X107554880Y-80621751D01*
X101000000Y-72723369D02*
X100328249Y-73395120D01*
X101671751Y-73395120D02*
X101000000Y-72723369D01*
X94445120Y-80621751D02*
X93773369Y-79950000D01*
X107554880Y-79278249D02*
X108226631Y-79950000D01*
X101671751Y-86504880D02*
X102619275Y-87452403D01*
%TO.C,C16*%
X165918748Y-83785000D02*
X166441252Y-83785000D01*
X165918748Y-85255000D02*
X166441252Y-85255000D01*
%TO.C,D7*%
X145782498Y-120197498D02*
X145782498Y-116297498D01*
X145782498Y-120197498D02*
X147782498Y-120197498D01*
X147782498Y-120197498D02*
X147782498Y-116297498D01*
%TO.C,R35*%
X59405000Y-85192936D02*
X59405000Y-85647064D01*
X60875000Y-85192936D02*
X60875000Y-85647064D01*
%TO.C,R21*%
X78327064Y-91300000D02*
X77872936Y-91300000D01*
X78327064Y-92770000D02*
X77872936Y-92770000D01*
%TO.C,R23*%
X121907064Y-68915000D02*
X121452936Y-68915000D01*
X121907064Y-67445000D02*
X121452936Y-67445000D01*
%TO.C,C28*%
X113235000Y-122113748D02*
X113235000Y-122636252D01*
X111765000Y-122113748D02*
X111765000Y-122636252D01*
%TO.C,R30*%
X99527064Y-122135000D02*
X99072936Y-122135000D01*
X99527064Y-120665000D02*
X99072936Y-120665000D01*
%TO.C,L2*%
X89400000Y-113050000D02*
X85800000Y-113050000D01*
X85800000Y-113050000D02*
X85800000Y-107450000D01*
X85800000Y-107450000D02*
X89400000Y-107450000D01*
X89400000Y-107450000D02*
X89400000Y-113050000D01*
D16*
%TO.C,IC1*%
X76925000Y-59545000D02*
X78450000Y-59545000D01*
D13*
%TO.C,C27*%
X107665000Y-122151248D02*
X107665000Y-122673752D01*
X109135000Y-122151248D02*
X109135000Y-122673752D01*
%TO.C,C24*%
X177683748Y-122931251D02*
X177683748Y-122408747D01*
X179153748Y-122931251D02*
X179153748Y-122408747D01*
%TO.C,C21*%
X89735000Y-119788748D02*
X89735000Y-120311252D01*
X88265000Y-119788748D02*
X88265000Y-120311252D01*
%TO.C,J4*%
X187285000Y-45000000D02*
X179185000Y-45000000D01*
X179185000Y-45000000D02*
X179185000Y-59000000D01*
X179185000Y-59000000D02*
X187285000Y-59000000D01*
X187285000Y-59000000D02*
X187285000Y-45000000D01*
X185385000Y-41000000D02*
X179385000Y-41000000D01*
X179385000Y-41000000D02*
X179385000Y-45000000D01*
X179385000Y-45000000D02*
X185385000Y-45000000D01*
X185385000Y-45000000D02*
X185385000Y-41000000D01*
%TO.C,D6*%
X105500000Y-121950000D02*
X105500000Y-118050000D01*
X103500000Y-121950000D02*
X105500000Y-121950000D01*
X103500000Y-121950000D02*
X103500000Y-118050000D01*
%TO.C,SW2*%
X110500000Y-104650000D02*
X124500000Y-104650000D01*
X124500000Y-104650000D02*
X124500000Y-116650000D01*
X124500000Y-116650000D02*
X110500000Y-116650000D01*
X110500000Y-116650000D02*
X110500000Y-104650000D01*
%TO.C,C19*%
X72465000Y-64788748D02*
X72465000Y-65311252D01*
X73935000Y-64788748D02*
X73935000Y-65311252D01*
%TO.C,J3*%
X56447500Y-69980000D02*
X57447500Y-70480000D01*
X41707500Y-54610000D02*
X50827500Y-54610000D01*
X41707500Y-75190000D02*
X41707500Y-54610000D01*
X50827500Y-62850000D02*
X41707500Y-62850000D01*
X50827500Y-75190000D02*
X41707500Y-75190000D01*
X57447500Y-69480000D02*
X56447500Y-69980000D01*
X57447500Y-70480000D02*
X57447500Y-69480000D01*
X50827500Y-66950000D02*
X41707500Y-66950000D01*
X50827500Y-54610000D02*
X50827500Y-75190000D01*
%TO.C,U2*%
X194150000Y-98517500D02*
X194150000Y-99317500D01*
X197270000Y-98517500D02*
X197270000Y-99317500D01*
X194150000Y-98517500D02*
X194150000Y-97717500D01*
X197270000Y-98517500D02*
X197270000Y-96717500D01*
%TO.C,C17*%
X131517500Y-117886248D02*
X131517500Y-118408752D01*
X130047500Y-117886248D02*
X130047500Y-118408752D01*
%TO.C,R15*%
X68165000Y-57922936D02*
X68165000Y-58377064D01*
X69635000Y-57922936D02*
X69635000Y-58377064D01*
%TO.C,R7*%
X173252936Y-105835000D02*
X173707064Y-105835000D01*
X173252936Y-104365000D02*
X173707064Y-104365000D01*
%TO.C,Y1*%
X93600000Y-101600000D02*
X109575000Y-101600000D01*
X109575000Y-96500000D02*
X93600000Y-96500000D01*
X109575000Y-101600000D02*
X109575000Y-96500000D01*
%TO.C,R2*%
X208242936Y-94616250D02*
X208697064Y-94616250D01*
X208242936Y-96086250D02*
X208697064Y-96086250D01*
%TO.C,C32*%
X119138748Y-97785000D02*
X119661252Y-97785000D01*
X119138748Y-96315000D02*
X119661252Y-96315000D01*
%TO.C,R25*%
X140145000Y-68732936D02*
X140145000Y-69187064D01*
X138675000Y-68732936D02*
X138675000Y-69187064D01*
%TO.C,R3*%
X206735000Y-89978314D02*
X206735000Y-89524186D01*
X208205000Y-89978314D02*
X208205000Y-89524186D01*
%TO.C,C29*%
X106695543Y-70515010D02*
X107065010Y-70145543D01*
X107734990Y-71554457D02*
X108104457Y-71184990D01*
%TO.C,J6*%
X183100000Y-64960000D02*
X183100000Y-72640000D01*
X183100000Y-64960000D02*
X185760000Y-64960000D01*
X183100000Y-63690000D02*
X183100000Y-62360000D01*
X183100000Y-62360000D02*
X184430000Y-62360000D01*
X185760000Y-64960000D02*
X185760000Y-72640000D01*
X183100000Y-72640000D02*
X185760000Y-72640000D01*
%TO.C,R1*%
X203735000Y-99940814D02*
X203735000Y-99486686D01*
X205205000Y-99940814D02*
X205205000Y-99486686D01*
%TO.C,C34*%
X92035000Y-80411252D02*
X92035000Y-79888748D01*
X90565000Y-80411252D02*
X90565000Y-79888748D01*
%TO.C,D9*%
X64060000Y-128310000D02*
X64060000Y-125450000D01*
X62140000Y-125450000D02*
X62140000Y-128310000D01*
X62140000Y-128310000D02*
X64060000Y-128310000D01*
%TO.C,C26*%
X103761252Y-125585000D02*
X103238748Y-125585000D01*
X103761252Y-124115000D02*
X103238748Y-124115000D01*
%TO.C,D2*%
X74240000Y-48010000D02*
X77100000Y-48010000D01*
X74240000Y-46090000D02*
X74240000Y-48010000D01*
X77100000Y-46090000D02*
X74240000Y-46090000D01*
%TO.C,R12*%
X173537064Y-98715000D02*
X173082936Y-98715000D01*
X173537064Y-97245000D02*
X173082936Y-97245000D01*
%TO.C,R22*%
X77872936Y-94800000D02*
X78327064Y-94800000D01*
X77872936Y-96270000D02*
X78327064Y-96270000D01*
%TO.C,R24*%
X146197064Y-68985000D02*
X145742936Y-68985000D01*
X146197064Y-67515000D02*
X145742936Y-67515000D01*
%TO.C,L1*%
X189902502Y-125439998D02*
X195502502Y-125439998D01*
X195502502Y-125439998D02*
X195502502Y-121839998D01*
X195502502Y-121839998D02*
X189902502Y-121839998D01*
X189902502Y-121839998D02*
X189902502Y-125439998D01*
%TO.C,R40*%
X113572936Y-97885000D02*
X114027064Y-97885000D01*
X113572936Y-96415000D02*
X114027064Y-96415000D01*
%TO.C,R39*%
X139209564Y-123682500D02*
X138755436Y-123682500D01*
X139209564Y-122212500D02*
X138755436Y-122212500D01*
%TO.C,R4*%
X210635000Y-84678314D02*
X210635000Y-84224186D01*
X212105000Y-84678314D02*
X212105000Y-84224186D01*
%TO.C,C20*%
X77935000Y-87773748D02*
X77935000Y-88296252D01*
X76465000Y-87773748D02*
X76465000Y-88296252D01*
%TO.C,R41*%
X69527064Y-123085000D02*
X69072936Y-123085000D01*
X69527064Y-121615000D02*
X69072936Y-121615000D01*
%TO.C,C9*%
X203936248Y-103795000D02*
X204458752Y-103795000D01*
X203936248Y-105265000D02*
X204458752Y-105265000D01*
%TO.C,U6*%
X94460000Y-120150000D02*
X94460000Y-120950000D01*
X94460000Y-120150000D02*
X94460000Y-119350000D01*
X91340000Y-120150000D02*
X91340000Y-119350000D01*
X91340000Y-120150000D02*
X91340000Y-121950000D01*
%TO.C,R9*%
X193082936Y-93545000D02*
X193537064Y-93545000D01*
X193082936Y-95015000D02*
X193537064Y-95015000D01*
%TO.C,D3*%
X79500000Y-47910000D02*
X82360000Y-47910000D01*
X82360000Y-47910000D02*
X82360000Y-45990000D01*
X82360000Y-45990000D02*
X79500000Y-45990000D01*
%TO.C,SW1*%
X62575000Y-82455000D02*
X62575000Y-81695000D01*
X68575000Y-79915000D02*
X62575000Y-79915000D01*
X71235000Y-83405000D02*
X71235000Y-75665000D01*
X71235000Y-78265000D02*
X68575000Y-78265000D01*
X62575000Y-81695000D02*
X68575000Y-81695000D01*
X73945000Y-83345000D02*
X72675000Y-83345000D01*
X71565000Y-81695000D02*
X71235000Y-81695000D01*
X68575000Y-81795000D02*
X62575000Y-81795000D01*
X62575000Y-79915000D02*
X62575000Y-79155000D01*
X62575000Y-76615000D02*
X68575000Y-76615000D01*
X71235000Y-80805000D02*
X68575000Y-80805000D01*
X71565000Y-82455000D02*
X71235000Y-82455000D01*
X71632071Y-79155000D02*
X71235000Y-79155000D01*
X71235000Y-75665000D02*
X68575000Y-75665000D01*
X68575000Y-82395000D02*
X62575000Y-82395000D01*
X68575000Y-75665000D02*
X68575000Y-83405000D01*
X68575000Y-82155000D02*
X62575000Y-82155000D01*
X68575000Y-82275000D02*
X62575000Y-82275000D01*
X68575000Y-77375000D02*
X62575000Y-77375000D01*
X68575000Y-82455000D02*
X62575000Y-82455000D01*
X73945000Y-82075000D02*
X73945000Y-83345000D01*
X68575000Y-82035000D02*
X62575000Y-82035000D01*
X68575000Y-83405000D02*
X71235000Y-83405000D01*
X71632071Y-76615000D02*
X71235000Y-76615000D01*
X71632071Y-79915000D02*
X71235000Y-79915000D01*
X71632071Y-77375000D02*
X71235000Y-77375000D01*
X62575000Y-79155000D02*
X68575000Y-79155000D01*
X62575000Y-77375000D02*
X62575000Y-76615000D01*
X68575000Y-81915000D02*
X62575000Y-81915000D01*
%TO.C,R36*%
X97119718Y-89209165D02*
X97440835Y-89530282D01*
X98159165Y-88169718D02*
X98480282Y-88490835D01*
%TO.C,R17*%
X82027064Y-72515000D02*
X81572936Y-72515000D01*
X82027064Y-73985000D02*
X81572936Y-73985000D01*
%TO.C,R38*%
X141209564Y-120282499D02*
X140755436Y-120282499D01*
X141209564Y-118812499D02*
X140755436Y-118812499D01*
%TO.C,L4*%
X131532499Y-111867501D02*
X127932499Y-111867501D01*
X127932499Y-111867501D02*
X127932499Y-106267501D01*
X127932499Y-106267501D02*
X131532499Y-106267501D01*
X131532499Y-106267501D02*
X131532499Y-111867501D01*
%TO.C,R42*%
X69527064Y-124815000D02*
X69072936Y-124815000D01*
X69527064Y-126285000D02*
X69072936Y-126285000D01*
%TD*%
M02*
