%TF.GenerationSoftware,KiCad,Pcbnew,(6.0.0)*%
%TF.CreationDate,2023-05-12T18:21:32+02:00*%
%TF.ProjectId,main_func,6d61696e-5f66-4756-9e63-2e6b69636164,rev?*%
%TF.SameCoordinates,Original*%
%TF.FileFunction,Soldermask,Top*%
%TF.FilePolarity,Negative*%
%FSLAX46Y46*%
G04 Gerber Fmt 4.6, Leading zero omitted, Abs format (unit mm)*
G04 Created by KiCad (PCBNEW (6.0.0)) date 2023-05-12 18:21:32*
%MOMM*%
%LPD*%
G01*
G04 APERTURE LIST*
G04 Aperture macros list*
%AMRoundRect*
0 Rectangle with rounded corners*
0 $1 Rounding radius*
0 $2 $3 $4 $5 $6 $7 $8 $9 X,Y pos of 4 corners*
0 Add a 4 corners polygon primitive as box body*
4,1,4,$2,$3,$4,$5,$6,$7,$8,$9,$2,$3,0*
0 Add four circle primitives for the rounded corners*
1,1,$1+$1,$2,$3*
1,1,$1+$1,$4,$5*
1,1,$1+$1,$6,$7*
1,1,$1+$1,$8,$9*
0 Add four rect primitives between the rounded corners*
20,1,$1+$1,$2,$3,$4,$5,0*
20,1,$1+$1,$4,$5,$6,$7,0*
20,1,$1+$1,$6,$7,$8,$9,0*
20,1,$1+$1,$8,$9,$2,$3,0*%
G04 Aperture macros list end*
%ADD10C,2.400000*%
%ADD11RoundRect,0.250000X0.475000X-0.337500X0.475000X0.337500X-0.475000X0.337500X-0.475000X-0.337500X0*%
%ADD12R,3.150000X1.780000*%
%ADD13RoundRect,0.250000X-0.350000X-0.450000X0.350000X-0.450000X0.350000X0.450000X-0.350000X0.450000X0*%
%ADD14RoundRect,0.250000X-0.450000X0.350000X-0.450000X-0.350000X0.450000X-0.350000X0.450000X0.350000X0*%
%ADD15C,0.800000*%
%ADD16C,6.400000*%
%ADD17RoundRect,0.250000X0.450000X-0.350000X0.450000X0.350000X-0.450000X0.350000X-0.450000X-0.350000X0*%
%ADD18R,1.700000X1.700000*%
%ADD19O,1.700000X1.700000*%
%ADD20C,2.000000*%
%ADD21RoundRect,0.250000X-0.337500X-0.475000X0.337500X-0.475000X0.337500X0.475000X-0.337500X0.475000X0*%
%ADD22RoundRect,0.250000X0.350000X0.450000X-0.350000X0.450000X-0.350000X-0.450000X0.350000X-0.450000X0*%
%ADD23RoundRect,0.150000X0.150000X-0.512500X0.150000X0.512500X-0.150000X0.512500X-0.150000X-0.512500X0*%
%ADD24RoundRect,0.250000X-0.097227X0.574524X-0.574524X0.097227X0.097227X-0.574524X0.574524X-0.097227X0*%
%ADD25RoundRect,0.250000X-0.325000X-0.450000X0.325000X-0.450000X0.325000X0.450000X-0.325000X0.450000X0*%
%ADD26R,2.500000X1.500000*%
%ADD27R,1.200000X0.900000*%
%ADD28RoundRect,0.250000X0.337500X0.475000X-0.337500X0.475000X-0.337500X-0.475000X0.337500X-0.475000X0*%
%ADD29C,2.800000*%
%ADD30RoundRect,0.150000X0.150000X-0.825000X0.150000X0.825000X-0.150000X0.825000X-0.150000X-0.825000X0*%
%ADD31R,1.454899X0.354800*%
%ADD32RoundRect,0.250000X0.450000X-0.325000X0.450000X0.325000X-0.450000X0.325000X-0.450000X-0.325000X0*%
%ADD33RoundRect,0.150000X-0.150000X0.512500X-0.150000X-0.512500X0.150000X-0.512500X0.150000X0.512500X0*%
%ADD34R,1.900000X0.800000*%
%ADD35RoundRect,0.250000X0.600000X0.600000X-0.600000X0.600000X-0.600000X-0.600000X0.600000X-0.600000X0*%
%ADD36C,1.700000*%
%ADD37R,1.600000X1.600000*%
%ADD38O,1.600000X1.600000*%
%ADD39C,0.650000*%
%ADD40R,0.600000X1.450000*%
%ADD41R,0.300000X1.450000*%
%ADD42O,1.000000X2.100000*%
%ADD43O,1.000000X1.600000*%
%ADD44R,0.900000X1.200000*%
%ADD45RoundRect,0.075000X0.548008X-0.441942X-0.441942X0.548008X-0.548008X0.441942X0.441942X-0.548008X0*%
%ADD46RoundRect,0.075000X0.548008X0.441942X0.441942X0.548008X-0.548008X-0.441942X-0.441942X-0.548008X0*%
%ADD47RoundRect,0.250000X-0.475000X0.337500X-0.475000X-0.337500X0.475000X-0.337500X0.475000X0.337500X0*%
%ADD48R,1.525000X0.700000*%
%ADD49R,2.513000X3.402000*%
%ADD50RoundRect,0.375000X-0.625000X0.375000X-0.625000X-0.375000X0.625000X-0.375000X0.625000X0.375000X0*%
%ADD51R,2.100000X1.100000*%
%ADD52R,7.875000X2.000000*%
%ADD53RoundRect,0.250000X0.097227X-0.574524X0.574524X-0.097227X-0.097227X0.574524X-0.574524X0.097227X0*%
%ADD54R,1.500000X2.500000*%
%ADD55RoundRect,0.250000X0.325000X0.450000X-0.325000X0.450000X-0.325000X-0.450000X0.325000X-0.450000X0*%
%ADD56RoundRect,0.250000X-0.565685X-0.070711X-0.070711X-0.565685X0.565685X0.070711X0.070711X0.565685X0*%
G04 APERTURE END LIST*
D10*
%TO.C,C10*%
X211370000Y-48520000D03*
X211370000Y-76020000D03*
%TD*%
D11*
%TO.C,C36*%
X110600000Y-82087500D03*
X110600000Y-80012500D03*
%TD*%
D12*
%TO.C,F1*%
X64300000Y-56735000D03*
X64300000Y-61965000D03*
%TD*%
D13*
%TO.C,R29*%
X91900000Y-116350000D03*
X93900000Y-116350000D03*
%TD*%
D11*
%TO.C,C2*%
X211370000Y-90788750D03*
X211370000Y-88713750D03*
%TD*%
D13*
%TO.C,R19*%
X77600000Y-57550000D03*
X79600000Y-57550000D03*
%TD*%
D14*
%TO.C,R16*%
X72100000Y-57150000D03*
X72100000Y-59150000D03*
%TD*%
D15*
%TO.C,H4*%
X213000000Y-120600000D03*
X215400000Y-123000000D03*
X211302944Y-124697056D03*
X213000000Y-125400000D03*
X214697056Y-121302944D03*
X210600000Y-123000000D03*
X214697056Y-124697056D03*
X211302944Y-121302944D03*
D16*
X213000000Y-123000000D03*
%TD*%
D11*
%TO.C,C12*%
X189810000Y-94379999D03*
X189810000Y-92304999D03*
%TD*%
D17*
%TO.C,R33*%
X144440000Y-84130000D03*
X144440000Y-82130000D03*
%TD*%
%TO.C,R34*%
X60070000Y-92110000D03*
X60070000Y-90110000D03*
%TD*%
D18*
%TO.C,J9*%
X72300000Y-102325000D03*
D19*
X72300000Y-104865000D03*
X72300000Y-107405000D03*
X72300000Y-109945000D03*
X72300000Y-112485000D03*
X72300000Y-115025000D03*
%TD*%
D10*
%TO.C,C11*%
X195680000Y-48440000D03*
X195680000Y-75940000D03*
%TD*%
D11*
%TO.C,C14*%
X196010000Y-89617500D03*
X196010000Y-87542500D03*
%TD*%
D20*
%TO.C,U8*%
X129500000Y-50700000D03*
X122000000Y-50700000D03*
X114500000Y-50700000D03*
X127000000Y-48200000D03*
X117000000Y-48200000D03*
X117000000Y-60500000D03*
X127000000Y-60500000D03*
%TD*%
D21*
%TO.C,C31*%
X105462500Y-104550000D03*
X107537500Y-104550000D03*
%TD*%
D22*
%TO.C,R13*%
X174310000Y-94430000D03*
X172310000Y-94430000D03*
%TD*%
%TO.C,R11*%
X174440000Y-101630000D03*
X172440000Y-101630000D03*
%TD*%
D15*
%TO.C,H2*%
X53302944Y-121302944D03*
X55000000Y-120600000D03*
X57400000Y-123000000D03*
X53302944Y-124697056D03*
X52600000Y-123000000D03*
X55000000Y-125400000D03*
D16*
X55000000Y-123000000D03*
D15*
X56697056Y-124697056D03*
X56697056Y-121302944D03*
%TD*%
D23*
%TO.C,U3*%
X198207500Y-107467500D03*
X199157500Y-107467500D03*
X200107500Y-107467500D03*
X200107500Y-105192500D03*
X198207500Y-105192500D03*
%TD*%
D21*
%TO.C,C33*%
X100262500Y-69850000D03*
X102337500Y-69850000D03*
%TD*%
D24*
%TO.C,C35*%
X102933623Y-89916377D03*
X101466377Y-91383623D03*
%TD*%
D22*
%TO.C,R28*%
X174370000Y-90610000D03*
X172370000Y-90610000D03*
%TD*%
D25*
%TO.C,D5*%
X85175000Y-46950000D03*
X87225000Y-46950000D03*
%TD*%
D26*
%TO.C,L5*%
X141620001Y-111097499D03*
X141620001Y-107397499D03*
%TD*%
D17*
%TO.C,R14*%
X196010000Y-84080000D03*
X196010000Y-82080000D03*
%TD*%
D27*
%TO.C,D1*%
X77400000Y-79600000D03*
X77400000Y-76300000D03*
%TD*%
D13*
%TO.C,R20*%
X77500000Y-53750000D03*
X79500000Y-53750000D03*
%TD*%
D16*
%TO.C,H1*%
X55000000Y-50000000D03*
D15*
X53302944Y-48302944D03*
X56697056Y-51697056D03*
X53302944Y-51697056D03*
X56697056Y-48302944D03*
X55000000Y-47600000D03*
X57400000Y-50000000D03*
X52600000Y-50000000D03*
X55000000Y-52400000D03*
%TD*%
D28*
%TO.C,C22*%
X146720002Y-122947500D03*
X144645002Y-122947500D03*
%TD*%
D29*
%TO.C,TP3*%
X64200000Y-67450000D03*
%TD*%
D21*
%TO.C,C18*%
X134682501Y-107247499D03*
X136757501Y-107247499D03*
%TD*%
D26*
%TO.C,L3*%
X99400000Y-111800000D03*
X99400000Y-108100000D03*
%TD*%
D21*
%TO.C,C23*%
X92562500Y-108350000D03*
X94637500Y-108350000D03*
%TD*%
D22*
%TO.C,R18*%
X74100000Y-61650000D03*
X72100000Y-61650000D03*
%TD*%
D30*
%TO.C,U11*%
X139360000Y-78365000D03*
X140630000Y-78365000D03*
X141900000Y-78365000D03*
X143170000Y-78365000D03*
X144440000Y-78365000D03*
X145710000Y-78365000D03*
X146980000Y-78365000D03*
X146980000Y-73415000D03*
X145710000Y-73415000D03*
X144440000Y-73415000D03*
X143170000Y-73415000D03*
X141900000Y-73415000D03*
X140630000Y-73415000D03*
X139360000Y-73415000D03*
%TD*%
D13*
%TO.C,R37*%
X134020000Y-114347500D03*
X136020000Y-114347500D03*
%TD*%
D31*
%TO.C,U4*%
X189811348Y-109192500D03*
X189811348Y-108557500D03*
X189811348Y-107922500D03*
X189811348Y-107287500D03*
X189811348Y-106652500D03*
X189811348Y-106017500D03*
X189811348Y-105382500D03*
X189811348Y-104747500D03*
X184368652Y-104747500D03*
X184368652Y-105382500D03*
X184368652Y-106017500D03*
X184368652Y-106652500D03*
X184368652Y-107287500D03*
X184368652Y-107922500D03*
X184368652Y-108557500D03*
X184368652Y-109192500D03*
%TD*%
D22*
%TO.C,R32*%
X89200000Y-52150000D03*
X87200000Y-52150000D03*
%TD*%
D32*
%TO.C,D8*%
X63200000Y-122275000D03*
X63200000Y-120225000D03*
%TD*%
D17*
%TO.C,R10*%
X192310000Y-89580000D03*
X192310000Y-87580000D03*
%TD*%
D13*
%TO.C,R6*%
X172360000Y-108820000D03*
X174360000Y-108820000D03*
%TD*%
D23*
%TO.C,U12*%
X134070000Y-119484998D03*
X135020000Y-119484998D03*
X135970000Y-119484998D03*
X135970000Y-117209998D03*
X134070000Y-117209998D03*
%TD*%
D22*
%TO.C,R31*%
X98300000Y-124850000D03*
X96300000Y-124850000D03*
%TD*%
D11*
%TO.C,C1*%
X204470000Y-95351249D03*
X204470000Y-93276249D03*
%TD*%
%TO.C,C25*%
X181318749Y-123669999D03*
X181318749Y-121594999D03*
%TD*%
D33*
%TO.C,U1*%
X211420000Y-98613750D03*
X210470000Y-98613750D03*
X209520000Y-98613750D03*
X209520000Y-100888750D03*
X211420000Y-100888750D03*
%TD*%
D34*
%TO.C,Q1*%
X81800000Y-77300000D03*
X81800000Y-79200000D03*
X84800000Y-78250000D03*
%TD*%
D20*
%TO.C,U10*%
X149000000Y-50700000D03*
X141500000Y-50700000D03*
X134000000Y-50700000D03*
X146500000Y-48200000D03*
X136500000Y-48200000D03*
X136500000Y-60500000D03*
X146500000Y-60500000D03*
%TD*%
D35*
%TO.C,J2*%
X55902500Y-95171000D03*
D36*
X53362500Y-95171000D03*
X55902500Y-92631000D03*
X53362500Y-92631000D03*
X55902500Y-90091000D03*
X53362500Y-90091000D03*
X55902500Y-87551000D03*
X53362500Y-87551000D03*
X55902500Y-85011000D03*
X53362500Y-85011000D03*
%TD*%
D15*
%TO.C,H5*%
X173802944Y-51697056D03*
X175500000Y-52400000D03*
X173802944Y-48302944D03*
D16*
X175500000Y-50000000D03*
D15*
X177900000Y-50000000D03*
X175500000Y-47600000D03*
X177197056Y-48302944D03*
X177197056Y-51697056D03*
X173100000Y-50000000D03*
%TD*%
D14*
%TO.C,R27*%
X155750000Y-67360000D03*
X155750000Y-69360000D03*
%TD*%
D20*
%TO.C,U9*%
X168500000Y-50700000D03*
X161000000Y-50700000D03*
X153500000Y-50700000D03*
X166000000Y-48200000D03*
X156000000Y-48200000D03*
X156000000Y-60500000D03*
X166000000Y-60500000D03*
%TD*%
D13*
%TO.C,R26*%
X127030000Y-68370000D03*
X129030000Y-68370000D03*
%TD*%
D21*
%TO.C,C7*%
X198165000Y-117239998D03*
X200240000Y-117239998D03*
%TD*%
%TO.C,C8*%
X198165002Y-120540001D03*
X200240002Y-120540001D03*
%TD*%
%TO.C,C13*%
X203160000Y-108050000D03*
X205235000Y-108050000D03*
%TD*%
D37*
%TO.C,U5*%
X165120000Y-73710000D03*
D38*
X162580000Y-73710000D03*
X160040000Y-73710000D03*
X157500000Y-73710000D03*
X157500000Y-81330000D03*
X160040000Y-81330000D03*
X162580000Y-81330000D03*
X165120000Y-81330000D03*
%TD*%
D13*
%TO.C,R5*%
X172320000Y-112530000D03*
X174320000Y-112530000D03*
%TD*%
D15*
%TO.C,H3*%
X157600000Y-117000000D03*
X158302944Y-115302944D03*
D16*
X160000000Y-117000000D03*
D15*
X160000000Y-119400000D03*
X161697056Y-118697056D03*
X162400000Y-117000000D03*
X158302944Y-118697056D03*
X160000000Y-114600000D03*
X161697056Y-115302944D03*
%TD*%
D21*
%TO.C,C30*%
X93562500Y-104150000D03*
X95637500Y-104150000D03*
%TD*%
D39*
%TO.C,J1*%
X70590000Y-49950000D03*
X64810000Y-49950000D03*
D40*
X70950000Y-51395000D03*
X70150000Y-51395000D03*
D41*
X68950000Y-51395000D03*
X67950000Y-51395000D03*
X67450000Y-51395000D03*
X66450000Y-51395000D03*
D40*
X65250000Y-51395000D03*
X64450000Y-51395000D03*
X64450000Y-51395000D03*
X65250000Y-51395000D03*
D41*
X65950000Y-51395000D03*
X66950000Y-51395000D03*
X68450000Y-51395000D03*
X69450000Y-51395000D03*
D40*
X70150000Y-51395000D03*
X70950000Y-51395000D03*
D42*
X72020000Y-50480000D03*
D43*
X63380000Y-46300000D03*
X72020000Y-46300000D03*
D42*
X63380000Y-50480000D03*
%TD*%
D44*
%TO.C,D4*%
X163320000Y-69380000D03*
X160020000Y-69380000D03*
%TD*%
D17*
%TO.C,R8*%
X189810000Y-99742500D03*
X189810000Y-97742500D03*
%TD*%
D21*
%TO.C,C6*%
X198165003Y-124339997D03*
X200240003Y-124339997D03*
%TD*%
D11*
%TO.C,C5*%
X185318748Y-123707499D03*
X185318748Y-121632499D03*
%TD*%
D18*
%TO.C,J5*%
X73000000Y-94530000D03*
D19*
X73000000Y-91990000D03*
X73000000Y-89450000D03*
X73000000Y-86910000D03*
%TD*%
D28*
%TO.C,C15*%
X135737500Y-69970000D03*
X133662500Y-69970000D03*
%TD*%
D45*
%TO.C,U7*%
X102361181Y-86614481D03*
X102714734Y-86260928D03*
X103068287Y-85907375D03*
X103421841Y-85553821D03*
X103775394Y-85200268D03*
X104128948Y-84846714D03*
X104482501Y-84493161D03*
X104836054Y-84139608D03*
X105189608Y-83786054D03*
X105543161Y-83432501D03*
X105896714Y-83078948D03*
X106250268Y-82725394D03*
X106603821Y-82371841D03*
X106957375Y-82018287D03*
X107310928Y-81664734D03*
X107664481Y-81311181D03*
D46*
X107664481Y-78588819D03*
X107310928Y-78235266D03*
X106957375Y-77881713D03*
X106603821Y-77528159D03*
X106250268Y-77174606D03*
X105896714Y-76821052D03*
X105543161Y-76467499D03*
X105189608Y-76113946D03*
X104836054Y-75760392D03*
X104482501Y-75406839D03*
X104128948Y-75053286D03*
X103775394Y-74699732D03*
X103421841Y-74346179D03*
X103068287Y-73992625D03*
X102714734Y-73639072D03*
X102361181Y-73285519D03*
D45*
X99638819Y-73285519D03*
X99285266Y-73639072D03*
X98931713Y-73992625D03*
X98578159Y-74346179D03*
X98224606Y-74699732D03*
X97871052Y-75053286D03*
X97517499Y-75406839D03*
X97163946Y-75760392D03*
X96810392Y-76113946D03*
X96456839Y-76467499D03*
X96103286Y-76821052D03*
X95749732Y-77174606D03*
X95396179Y-77528159D03*
X95042625Y-77881713D03*
X94689072Y-78235266D03*
X94335519Y-78588819D03*
D46*
X94335519Y-81311181D03*
X94689072Y-81664734D03*
X95042625Y-82018287D03*
X95396179Y-82371841D03*
X95749732Y-82725394D03*
X96103286Y-83078948D03*
X96456839Y-83432501D03*
X96810392Y-83786054D03*
X97163946Y-84139608D03*
X97517499Y-84493161D03*
X97871052Y-84846714D03*
X98224606Y-85200268D03*
X98578159Y-85553821D03*
X98931713Y-85907375D03*
X99285266Y-86260928D03*
X99638819Y-86614481D03*
%TD*%
D21*
%TO.C,C16*%
X165142500Y-84520000D03*
X167217500Y-84520000D03*
%TD*%
D27*
%TO.C,D7*%
X146782498Y-119597498D03*
X146782498Y-116297498D03*
%TD*%
D14*
%TO.C,R35*%
X60140000Y-84420000D03*
X60140000Y-86420000D03*
%TD*%
D22*
%TO.C,R21*%
X79100000Y-92035000D03*
X77100000Y-92035000D03*
%TD*%
%TO.C,R23*%
X122680000Y-68180000D03*
X120680000Y-68180000D03*
%TD*%
D47*
%TO.C,C28*%
X112500000Y-121337500D03*
X112500000Y-123412500D03*
%TD*%
D22*
%TO.C,R30*%
X100300000Y-121400000D03*
X98300000Y-121400000D03*
%TD*%
D26*
%TO.C,L2*%
X87600000Y-112100000D03*
X87600000Y-108400000D03*
%TD*%
D48*
%TO.C,IC1*%
X77688000Y-60245000D03*
X77688000Y-61515000D03*
X77688000Y-62785000D03*
X77688000Y-64055000D03*
X83112000Y-64055000D03*
X83112000Y-62785000D03*
X83112000Y-61515000D03*
X83112000Y-60245000D03*
D49*
X80400000Y-62150000D03*
%TD*%
D47*
%TO.C,C27*%
X108400000Y-121375000D03*
X108400000Y-123450000D03*
%TD*%
D11*
%TO.C,C24*%
X178418748Y-123707499D03*
X178418748Y-121632499D03*
%TD*%
D47*
%TO.C,C21*%
X89000000Y-119012500D03*
X89000000Y-121087500D03*
%TD*%
D50*
%TO.C,J4*%
X183485000Y-46200000D03*
X181285000Y-48700000D03*
X183485000Y-58000000D03*
X181285000Y-54300000D03*
X183485000Y-52400000D03*
%TD*%
D27*
%TO.C,D6*%
X104500000Y-121350000D03*
X104500000Y-118050000D03*
%TD*%
D51*
%TO.C,SW2*%
X112950000Y-108400000D03*
X122050000Y-108400000D03*
X112950000Y-112900000D03*
X122050000Y-112900000D03*
%TD*%
D47*
%TO.C,C19*%
X73200000Y-64012500D03*
X73200000Y-66087500D03*
%TD*%
D35*
%TO.C,J3*%
X55097500Y-69980000D03*
D36*
X52557500Y-69980000D03*
X55097500Y-67440000D03*
X52557500Y-67440000D03*
X55097500Y-64900000D03*
X52557500Y-64900000D03*
X55097500Y-62360000D03*
X52557500Y-62360000D03*
X55097500Y-59820000D03*
X52557500Y-59820000D03*
%TD*%
D33*
%TO.C,U2*%
X196660000Y-97380000D03*
X195710000Y-97380000D03*
X194760000Y-97380000D03*
X194760000Y-99655000D03*
X196660000Y-99655000D03*
%TD*%
D47*
%TO.C,C17*%
X130782500Y-117110000D03*
X130782500Y-119185000D03*
%TD*%
D14*
%TO.C,R15*%
X68900000Y-57150000D03*
X68900000Y-59150000D03*
%TD*%
D13*
%TO.C,R7*%
X172480000Y-105100000D03*
X174480000Y-105100000D03*
%TD*%
D52*
%TO.C,Y1*%
X105437500Y-99050000D03*
X93562500Y-99050000D03*
%TD*%
D13*
%TO.C,R2*%
X207470000Y-95351250D03*
X209470000Y-95351250D03*
%TD*%
D21*
%TO.C,C32*%
X118362500Y-97050000D03*
X120437500Y-97050000D03*
%TD*%
D14*
%TO.C,R25*%
X139410000Y-67960000D03*
X139410000Y-69960000D03*
%TD*%
D17*
%TO.C,R3*%
X207470000Y-90751250D03*
X207470000Y-88751250D03*
%TD*%
D53*
%TO.C,C29*%
X106666377Y-71583623D03*
X108133623Y-70116377D03*
%TD*%
D18*
%TO.C,J6*%
X184430000Y-63690000D03*
D19*
X184430000Y-66230000D03*
X184430000Y-68770000D03*
X184430000Y-71310000D03*
%TD*%
D17*
%TO.C,R1*%
X204470000Y-100713750D03*
X204470000Y-98713750D03*
%TD*%
D11*
%TO.C,C34*%
X91300000Y-81187500D03*
X91300000Y-79112500D03*
%TD*%
D32*
%TO.C,D9*%
X63100000Y-127475000D03*
X63100000Y-125425000D03*
%TD*%
D28*
%TO.C,C26*%
X104537500Y-124850000D03*
X102462500Y-124850000D03*
%TD*%
D25*
%TO.C,D2*%
X75075000Y-47050000D03*
X77125000Y-47050000D03*
%TD*%
D22*
%TO.C,R12*%
X174310000Y-97980000D03*
X172310000Y-97980000D03*
%TD*%
D13*
%TO.C,R22*%
X77100000Y-95535000D03*
X79100000Y-95535000D03*
%TD*%
D22*
%TO.C,R24*%
X146970000Y-68250000D03*
X144970000Y-68250000D03*
%TD*%
D54*
%TO.C,L1*%
X190852502Y-123639998D03*
X194552502Y-123639998D03*
%TD*%
D13*
%TO.C,R40*%
X112800000Y-97150000D03*
X114800000Y-97150000D03*
%TD*%
D22*
%TO.C,R39*%
X139982500Y-122947500D03*
X137982500Y-122947500D03*
%TD*%
D17*
%TO.C,R4*%
X211370000Y-85451250D03*
X211370000Y-83451250D03*
%TD*%
D47*
%TO.C,C20*%
X77200000Y-86997500D03*
X77200000Y-89072500D03*
%TD*%
D22*
%TO.C,R41*%
X70300000Y-122350000D03*
X68300000Y-122350000D03*
%TD*%
D21*
%TO.C,C9*%
X203160000Y-104530000D03*
X205235000Y-104530000D03*
%TD*%
D23*
%TO.C,U6*%
X91950000Y-121287500D03*
X92900000Y-121287500D03*
X93850000Y-121287500D03*
X93850000Y-119012500D03*
X91950000Y-119012500D03*
%TD*%
D13*
%TO.C,R9*%
X192310000Y-94280000D03*
X194310000Y-94280000D03*
%TD*%
D55*
%TO.C,D3*%
X81525000Y-46950000D03*
X79475000Y-46950000D03*
%TD*%
D18*
%TO.C,SW1*%
X72675000Y-82075000D03*
D19*
X72675000Y-79535000D03*
X72675000Y-76995000D03*
%TD*%
D56*
%TO.C,R36*%
X97092893Y-88142893D03*
X98507107Y-89557107D03*
%TD*%
D22*
%TO.C,R17*%
X82800000Y-73250000D03*
X80800000Y-73250000D03*
%TD*%
%TO.C,R38*%
X141982500Y-119547499D03*
X139982500Y-119547499D03*
%TD*%
D26*
%TO.C,L4*%
X129732499Y-110917501D03*
X129732499Y-107217501D03*
%TD*%
D22*
%TO.C,R42*%
X70300000Y-125550000D03*
X68300000Y-125550000D03*
%TD*%
M02*
