%TF.GenerationSoftware,KiCad,Pcbnew,(6.0.0)*%
%TF.CreationDate,2023-05-12T18:21:01+02:00*%
%TF.ProjectId,main_func,6d61696e-5f66-4756-9e63-2e6b69636164,rev?*%
%TF.SameCoordinates,Original*%
%TF.FileFunction,Soldermask,Bot*%
%TF.FilePolarity,Negative*%
%FSLAX46Y46*%
G04 Gerber Fmt 4.6, Leading zero omitted, Abs format (unit mm)*
G04 Created by KiCad (PCBNEW (6.0.0)) date 2023-05-12 18:21:01*
%MOMM*%
%LPD*%
G01*
G04 APERTURE LIST*
G04 Aperture macros list*
%AMRoundRect*
0 Rectangle with rounded corners*
0 $1 Rounding radius*
0 $2 $3 $4 $5 $6 $7 $8 $9 X,Y pos of 4 corners*
0 Add a 4 corners polygon primitive as box body*
4,1,4,$2,$3,$4,$5,$6,$7,$8,$9,$2,$3,0*
0 Add four circle primitives for the rounded corners*
1,1,$1+$1,$2,$3*
1,1,$1+$1,$4,$5*
1,1,$1+$1,$6,$7*
1,1,$1+$1,$8,$9*
0 Add four rect primitives between the rounded corners*
20,1,$1+$1,$2,$3,$4,$5,0*
20,1,$1+$1,$4,$5,$6,$7,0*
20,1,$1+$1,$6,$7,$8,$9,0*
20,1,$1+$1,$8,$9,$2,$3,0*%
G04 Aperture macros list end*
%ADD10C,2.400000*%
%ADD11C,0.800000*%
%ADD12C,6.400000*%
%ADD13R,1.700000X1.700000*%
%ADD14O,1.700000X1.700000*%
%ADD15C,2.000000*%
%ADD16C,2.800000*%
%ADD17RoundRect,0.250000X0.600000X0.600000X-0.600000X0.600000X-0.600000X-0.600000X0.600000X-0.600000X0*%
%ADD18C,1.700000*%
%ADD19R,1.600000X1.600000*%
%ADD20O,1.600000X1.600000*%
%ADD21C,0.650000*%
%ADD22O,1.000000X2.100000*%
%ADD23O,1.000000X1.600000*%
%ADD24RoundRect,0.375000X-0.625000X0.375000X-0.625000X-0.375000X0.625000X-0.375000X0.625000X0.375000X0*%
G04 APERTURE END LIST*
D10*
%TO.C,C10*%
X211370000Y-48520000D03*
X211370000Y-76020000D03*
%TD*%
D11*
%TO.C,H4*%
X213000000Y-120600000D03*
X215400000Y-123000000D03*
X211302944Y-124697056D03*
X213000000Y-125400000D03*
X214697056Y-121302944D03*
X210600000Y-123000000D03*
X214697056Y-124697056D03*
X211302944Y-121302944D03*
D12*
X213000000Y-123000000D03*
%TD*%
D13*
%TO.C,J9*%
X72300000Y-102325000D03*
D14*
X72300000Y-104865000D03*
X72300000Y-107405000D03*
X72300000Y-109945000D03*
X72300000Y-112485000D03*
X72300000Y-115025000D03*
%TD*%
D10*
%TO.C,C11*%
X195680000Y-48440000D03*
X195680000Y-75940000D03*
%TD*%
D15*
%TO.C,U8*%
X129500000Y-50700000D03*
X122000000Y-50700000D03*
X114500000Y-50700000D03*
X127000000Y-48200000D03*
X117000000Y-48200000D03*
X117000000Y-60500000D03*
X127000000Y-60500000D03*
%TD*%
D11*
%TO.C,H2*%
X53302944Y-121302944D03*
X55000000Y-120600000D03*
X57400000Y-123000000D03*
X53302944Y-124697056D03*
X52600000Y-123000000D03*
X55000000Y-125400000D03*
D12*
X55000000Y-123000000D03*
D11*
X56697056Y-124697056D03*
X56697056Y-121302944D03*
%TD*%
D12*
%TO.C,H1*%
X55000000Y-50000000D03*
D11*
X53302944Y-48302944D03*
X56697056Y-51697056D03*
X53302944Y-51697056D03*
X56697056Y-48302944D03*
X55000000Y-47600000D03*
X57400000Y-50000000D03*
X52600000Y-50000000D03*
X55000000Y-52400000D03*
%TD*%
D16*
%TO.C,TP3*%
X64200000Y-67450000D03*
%TD*%
D15*
%TO.C,U10*%
X149000000Y-50700000D03*
X141500000Y-50700000D03*
X134000000Y-50700000D03*
X146500000Y-48200000D03*
X136500000Y-48200000D03*
X136500000Y-60500000D03*
X146500000Y-60500000D03*
%TD*%
D17*
%TO.C,J2*%
X55902500Y-95171000D03*
D18*
X53362500Y-95171000D03*
X55902500Y-92631000D03*
X53362500Y-92631000D03*
X55902500Y-90091000D03*
X53362500Y-90091000D03*
X55902500Y-87551000D03*
X53362500Y-87551000D03*
X55902500Y-85011000D03*
X53362500Y-85011000D03*
%TD*%
D11*
%TO.C,H5*%
X173802944Y-51697056D03*
X175500000Y-52400000D03*
X173802944Y-48302944D03*
D12*
X175500000Y-50000000D03*
D11*
X177900000Y-50000000D03*
X175500000Y-47600000D03*
X177197056Y-48302944D03*
X177197056Y-51697056D03*
X173100000Y-50000000D03*
%TD*%
D15*
%TO.C,U9*%
X168500000Y-50700000D03*
X161000000Y-50700000D03*
X153500000Y-50700000D03*
X166000000Y-48200000D03*
X156000000Y-48200000D03*
X156000000Y-60500000D03*
X166000000Y-60500000D03*
%TD*%
D19*
%TO.C,U5*%
X165120000Y-73710000D03*
D20*
X162580000Y-73710000D03*
X160040000Y-73710000D03*
X157500000Y-73710000D03*
X157500000Y-81330000D03*
X160040000Y-81330000D03*
X162580000Y-81330000D03*
X165120000Y-81330000D03*
%TD*%
D11*
%TO.C,H3*%
X157600000Y-117000000D03*
X158302944Y-115302944D03*
D12*
X160000000Y-117000000D03*
D11*
X160000000Y-119400000D03*
X161697056Y-118697056D03*
X162400000Y-117000000D03*
X158302944Y-118697056D03*
X160000000Y-114600000D03*
X161697056Y-115302944D03*
%TD*%
D21*
%TO.C,J1*%
X70590000Y-49950000D03*
X64810000Y-49950000D03*
D22*
X72020000Y-50480000D03*
D23*
X63380000Y-46300000D03*
X72020000Y-46300000D03*
D22*
X63380000Y-50480000D03*
%TD*%
D13*
%TO.C,J5*%
X73000000Y-94530000D03*
D14*
X73000000Y-91990000D03*
X73000000Y-89450000D03*
X73000000Y-86910000D03*
%TD*%
D24*
%TO.C,J4*%
X183485000Y-46200000D03*
X181285000Y-48700000D03*
X183485000Y-58000000D03*
X181285000Y-54300000D03*
X183485000Y-52400000D03*
%TD*%
D17*
%TO.C,J3*%
X55097500Y-69980000D03*
D18*
X52557500Y-69980000D03*
X55097500Y-67440000D03*
X52557500Y-67440000D03*
X55097500Y-64900000D03*
X52557500Y-64900000D03*
X55097500Y-62360000D03*
X52557500Y-62360000D03*
X55097500Y-59820000D03*
X52557500Y-59820000D03*
%TD*%
D13*
%TO.C,J6*%
X184430000Y-63690000D03*
D14*
X184430000Y-66230000D03*
X184430000Y-68770000D03*
X184430000Y-71310000D03*
%TD*%
D13*
%TO.C,SW1*%
X72675000Y-82075000D03*
D14*
X72675000Y-79535000D03*
X72675000Y-76995000D03*
%TD*%
M02*
