M48
; DRILL file {KiCad (6.0.0)} date Fri May 12 18:24:33 2023
; FORMAT={-:-/ absolute / metric / decimal}
; #@! TF.CreationDate,2023-05-12T18:24:33+02:00
; #@! TF.GenerationSoftware,Kicad,Pcbnew,(6.0.0)
; #@! TF.FileFunction,Plated,1,2,PTH
FMAT,2
METRIC
; #@! TA.AperFunction,Plated,PTH,ViaDrill
T1C0.400
; #@! TA.AperFunction,Plated,PTH,ComponentDrill
T2C0.500
; #@! TA.AperFunction,Plated,PTH,ComponentDrill
T3C1.000
; #@! TA.AperFunction,Plated,PTH,ComponentDrill
T4C1.500
; #@! TA.AperFunction,Plated,PTH,ComponentDrill
T5C3.200
%
G90
G05
T1
X51.0Y-24.0
X51.0Y-26.0
X51.0Y-28.0
X51.0Y-30.0
X51.0Y-32.0
X51.0Y-34.0
X51.0Y-36.0
X51.0Y-38.0
X51.0Y-40.0
X51.0Y-42.0
X51.0Y-44.0
X51.0Y-46.0
X51.0Y-48.0
X51.0Y-50.0
X51.0Y-52.0
X51.0Y-54.0
X51.0Y-56.0
X51.0Y-58.0
X51.0Y-60.0
X51.0Y-62.0
X51.0Y-64.0
X51.0Y-66.0
X51.0Y-68.0
X51.0Y-70.0
X51.0Y-72.0
X51.0Y-74.0
X51.0Y-76.0
X51.0Y-78.0
X51.0Y-80.0
X51.0Y-82.0
X51.0Y-84.0
X51.0Y-86.0
X51.0Y-88.0
X51.0Y-90.0
X51.0Y-92.0
X51.0Y-94.0
X51.0Y-96.0
X51.0Y-98.0
X51.0Y-100.0
X51.0Y-102.0
X51.0Y-104.0
X51.0Y-106.0
X51.0Y-108.0
X51.0Y-110.0
X51.0Y-112.0
X51.0Y-114.0
X51.0Y-116.0
X51.0Y-118.0
X51.0Y-120.0
X51.0Y-122.0
X51.0Y-124.0
X51.0Y-126.0
X51.0Y-128.0
X51.0Y-130.0
X51.0Y-132.0
X51.0Y-134.0
X51.0Y-136.0
X51.0Y-138.0
X51.0Y-140.0
X51.0Y-142.0
X51.0Y-144.0
X51.0Y-146.0
X51.0Y-148.0
X51.0Y-150.0
X51.0Y-152.0
X51.0Y-154.0
X51.0Y-156.0
X51.0Y-158.0
X51.0Y-160.0
X51.0Y-162.0
X51.0Y-164.0
X52.63Y-83.697
X53.0Y-24.0
X53.0Y-164.0
X53.372Y-93.894
X54.093Y-161.587
X54.192Y-42.532
X54.206Y-72.134
X54.208Y-34.82
X54.27Y-66.756
X54.483Y-53.859
X55.0Y-24.0
X55.0Y-164.0
X55.496Y-27.35
X56.158Y-158.941
X57.0Y-24.0
X57.0Y-164.0
X57.116Y-87.957
X57.255Y-153.67
X57.349Y-34.498
X57.696Y-93.894
X58.353Y-160.963
X59.0Y-24.0
X59.0Y-164.0
X59.82Y-28.017
X61.0Y-24.0
X61.0Y-164.0
X61.235Y-155.843
X62.74Y-148.631
X63.0Y-24.0
X63.0Y-164.0
X63.235Y-142.592
X63.27Y-94.382
X63.591Y-137.613
X63.764Y-77.161
X63.781Y-72.821
X63.783Y-41.434
X63.928Y-52.422
X63.946Y-127.222
X64.025Y-47.243
X64.043Y-132.256
X64.045Y-101.449
X64.118Y-161.2
X64.136Y-62.462
X64.183Y-82.84
X64.201Y-67.625
X64.316Y-33.567
X64.405Y-56.988
X64.441Y-158.037
X64.929Y-87.144
X65.0Y-24.0
X65.0Y-164.0
X66.398Y-154.875
X66.646Y-137.268
X67.0Y-24.0
X67.0Y-164.0
X67.078Y-98.255
X67.207Y-96.157
X67.855Y-89.446
X68.593Y-132.805
X68.828Y-142.629
X68.888Y-118.267
X69.0Y-24.0
X69.0Y-164.0
X69.307Y-113.136
X69.372Y-108.344
X69.533Y-122.978
X69.543Y-46.226
X69.798Y-87.955
X70.027Y-52.954
X70.172Y-41.87
X70.25Y-76.58
X70.377Y-152.808
X70.444Y-72.385
X70.593Y-148.55
X70.619Y-34.039
X70.637Y-82.679
X70.658Y-127.771
X70.757Y-100.836
X70.796Y-140.822
X71.0Y-24.0
X71.0Y-164.0
X71.154Y-57.493
X71.863Y-67.673
X71.97Y-150.357
X72.251Y-62.43
X72.251Y-77.645
X72.308Y-122.946
X72.48Y-86.821
X72.689Y-41.628
X72.786Y-52.422
X73.0Y-24.0
X73.0Y-164.0
X73.186Y-82.291
X73.509Y-72.707
X73.807Y-137.745
X73.962Y-117.984
X74.624Y-113.063
X74.735Y-57.654
X74.964Y-46.952
X75.0Y-24.0
X75.0Y-164.0
X75.043Y-108.416
X75.981Y-43.322
X76.317Y-66.899
X76.968Y-150.858
X77.0Y-24.0
X77.0Y-164.0
X77.12Y-134.648
X77.239Y-54.261
X77.829Y-143.092
X77.893Y-157.678
X78.014Y-39.538
X78.062Y-47.63
X78.127Y-93.663
X78.156Y-97.539
X78.446Y-63.043
X78.543Y-82.727
X78.892Y-140.833
X79.0Y-24.0
X79.0Y-164.0
X79.009Y-27.876
X79.04Y-88.44
X79.307Y-138.553
X79.415Y-103.202
X79.795Y-107.15
X80.235Y-31.264
X80.347Y-131.163
X80.576Y-77.823
X80.724Y-41.216
X80.867Y-67.544
X81.0Y-24.0
X81.0Y-164.0
X81.512Y-87.084
X81.562Y-102.704
X82.384Y-98.797
X82.709Y-92.727
X82.997Y-83.05
X83.0Y-24.0
X83.0Y-164.0
X83.661Y-45.605
X83.847Y-158.985
X83.884Y-142.235
X84.32Y-102.654
X84.868Y-73.563
X84.887Y-53.826
X85.0Y-24.0
X85.0Y-164.0
X85.129Y-49.615
X85.159Y-138.252
X85.449Y-78.629
X85.542Y-131.811
X85.688Y-33.459
X85.952Y-57.214
X86.454Y-36.087
X86.816Y-152.483
X87.0Y-24.0
X87.0Y-164.0
X87.256Y-73.628
X87.453Y-97.245
X87.579Y-83.05
X88.205Y-38.008
X88.353Y-77.242
X88.528Y-29.328
X88.868Y-142.272
X88.929Y-159.324
X89.0Y-24.0
X89.0Y-164.0
X89.07Y-99.86
X89.389Y-61.764
X89.902Y-94.022
X89.93Y-90.81
X89.947Y-131.472
X90.238Y-51.417
X90.257Y-87.116
X90.3Y-100.8
X90.322Y-78.307
X90.334Y-138.345
X90.406Y-43.799
X90.683Y-41.904
X91.0Y-24.0
X91.0Y-164.0
X91.11Y-56.329
X91.321Y-46.376
X92.0Y-82.921
X92.13Y-101.569
X92.328Y-96.002
X92.798Y-43.78
X92.86Y-80.18
X92.972Y-34.473
X93.0Y-24.0
X93.0Y-164.0
X93.031Y-148.706
X93.188Y-90.538
X93.21Y-85.11
X93.411Y-55.146
X93.46Y-65.3
X93.48Y-124.308
X93.627Y-26.327
X93.67Y-60.201
X93.79Y-127.22
X93.94Y-102.37
X94.025Y-142.337
X94.182Y-52.027
X94.565Y-97.529
X95.0Y-24.0
X95.0Y-164.0
X95.417Y-137.861
X95.423Y-48.025
X95.465Y-133.021
X95.485Y-87.148
X95.67Y-103.17
X96.916Y-154.629
X97.0Y-24.0
X97.0Y-164.0
X97.159Y-121.356
X97.2Y-70.0
X97.208Y-125.906
X97.32Y-104.02
X97.699Y-44.799
X97.85Y-49.525
X97.86Y-54.899
X97.976Y-39.226
X98.054Y-52.156
X98.075Y-57.625
X98.847Y-28.424
X98.93Y-104.769
X99.0Y-24.0
X99.0Y-164.0
X99.112Y-142.265
X99.848Y-34.773
X100.008Y-97.594
X100.016Y-131.23
X100.161Y-138.346
X100.165Y-110.433
X100.223Y-95.701
X100.235Y-37.548
X100.257Y-117.725
X100.352Y-161.357
X100.417Y-91.398
X100.46Y-105.569
X101.0Y-24.0
X101.0Y-164.0
X101.27Y-70.12
X101.343Y-40.315
X101.4Y-48.375
X101.411Y-85.175
X101.461Y-53.051
X101.5Y-65.95
X101.502Y-72.546
X101.52Y-106.96
X101.992Y-43.525
X102.107Y-50.491
X102.877Y-57.792
X103.0Y-24.0
X103.0Y-164.0
X103.017Y-59.185
X103.089Y-86.821
X103.51Y-108.92
X103.548Y-119.565
X103.704Y-148.633
X104.05Y-77.285
X104.17Y-142.245
X104.225Y-157.098
X104.245Y-104.795
X104.78Y-79.1
X104.848Y-102.794
X104.9Y-96.26
X105.0Y-24.0
X105.0Y-164.0
X105.009Y-68.42
X105.244Y-57.964
X105.247Y-112.466
X105.275Y-40.375
X105.343Y-91.936
X105.534Y-130.843
X105.665Y-100.965
X105.703Y-85.401
X105.881Y-90.021
X106.066Y-138.249
X106.07Y-109.21
X106.4Y-79.98
X106.452Y-49.114
X106.991Y-45.381
X106.993Y-71.228
X107.0Y-24.0
X107.0Y-164.0
X107.069Y-77.774
X107.18Y-63.203
X107.558Y-102.536
X107.69Y-68.142
X107.821Y-114.391
X107.97Y-80.76
X108.213Y-27.408
X108.225Y-104.838
X108.24Y-109.52
X108.28Y-115.68
X108.625Y-53.288
X108.84Y-90.76
X109.0Y-24.0
X109.0Y-164.0
X109.068Y-62.38
X109.086Y-100.492
X109.172Y-71.179
X109.2Y-81.559
X109.213Y-77.479
X109.219Y-142.207
X109.607Y-69.049
X109.765Y-119.533
X109.875Y-55.7
X109.939Y-138.2
X110.285Y-94.985
X110.303Y-48.834
X110.35Y-40.225
X110.406Y-122.565
X110.446Y-45.171
X110.568Y-129.681
X110.71Y-82.4
X110.802Y-89.531
X110.927Y-50.297
X111.0Y-24.0
X111.0Y-164.0
X111.29Y-112.71
X111.315Y-43.348
X111.498Y-85.287
X111.543Y-77.472
X111.931Y-57.873
X112.003Y-53.997
X112.01Y-109.52
X112.05Y-83.17
X112.48Y-91.822
X112.9Y-104.0
X113.0Y-24.0
X113.0Y-164.0
X113.569Y-77.317
X113.601Y-123.017
X114.002Y-156.226
X114.334Y-142.238
X114.389Y-161.599
X114.4Y-103.55
X114.919Y-88.105
X115.0Y-24.0
X115.0Y-164.0
X115.122Y-44.252
X115.311Y-138.588
X115.416Y-68.275
X115.441Y-75.45
X115.505Y-129.391
X116.162Y-59.35
X116.23Y-42.606
X116.24Y-74.46
X116.281Y-116.807
X116.34Y-102.82
X116.344Y-125.631
X116.563Y-27.771
X116.9Y-80.833
X117.0Y-24.0
X117.0Y-164.0
X117.14Y-75.39
X117.449Y-69.775
X117.597Y-113.272
X117.88Y-102.11
X118.066Y-118.786
X118.166Y-39.229
X118.176Y-83.213
X118.414Y-55.033
X119.0Y-24.0
X119.0Y-164.0
X119.221Y-80.124
X119.4Y-101.33
X119.719Y-61.071
X119.773Y-98.244
X120.152Y-129.488
X120.216Y-120.306
X120.249Y-134.812
X120.339Y-27.262
X120.611Y-46.946
X121.0Y-24.0
X121.0Y-164.0
X121.02Y-152.3
X121.05Y-100.45
X121.055Y-112.659
X121.573Y-30.893
X122.275Y-45.295
X122.77Y-47.812
X122.862Y-138.007
X123.0Y-24.0
X123.0Y-164.0
X123.015Y-71.857
X123.126Y-159.923
X123.609Y-36.905
X123.716Y-40.24
X123.856Y-86.125
X123.927Y-123.728
X123.927Y-132.779
X124.167Y-89.127
X124.397Y-91.759
X124.508Y-105.044
X124.612Y-61.402
X124.75Y-111.288
X125.0Y-24.0
X125.0Y-164.0
X125.304Y-156.075
X125.525Y-121.695
X125.863Y-137.329
X125.96Y-108.093
X126.009Y-115.209
X126.222Y-86.053
X126.258Y-63.58
X126.438Y-27.045
X126.685Y-41.875
X127.0Y-24.0
X127.0Y-164.0
X127.517Y-72.97
X127.77Y-84.88
X128.281Y-152.009
X128.33Y-100.81
X128.485Y-56.706
X128.533Y-61.692
X129.0Y-24.0
X129.0Y-164.0
X129.152Y-159.56
X129.271Y-53.088
X129.501Y-63.822
X130.268Y-138.346
X130.286Y-46.358
X130.54Y-99.84
X130.794Y-30.312
X131.0Y-24.0
X131.0Y-164.0
X131.428Y-85.436
X131.553Y-89.241
X131.644Y-41.616
X131.789Y-75.813
X131.8Y-80.0
X131.829Y-97.405
X131.883Y-38.153
X132.183Y-26.604
X132.354Y-47.396
X132.696Y-72.534
X132.737Y-112.498
X133.0Y-24.0
X133.0Y-164.0
X133.544Y-123.882
X133.634Y-130.228
X133.81Y-87.19
X133.898Y-116.177
X133.905Y-105.252
X133.963Y-127.496
X134.07Y-138.99
X134.148Y-74.567
X134.306Y-66.035
X134.361Y-32.267
X134.403Y-60.323
X134.403Y-72.182
X134.733Y-97.857
X135.0Y-24.0
X135.0Y-164.0
X135.068Y-39.983
X135.125Y-133.014
X135.153Y-49.255
X135.157Y-120.533
X135.16Y-29.653
X135.41Y-138.82
X135.45Y-78.84
X135.842Y-52.18
X135.849Y-88.775
X135.939Y-68.493
X136.16Y-77.78
X136.3Y-82.01
X136.63Y-144.24
X136.65Y-80.62
X136.725Y-83.15
X136.76Y-138.83
X137.0Y-24.0
X137.0Y-164.0
X137.317Y-108.229
X137.358Y-100.955
X137.647Y-150.775
X137.937Y-154.478
X137.968Y-37.324
X138.082Y-145.62
X138.287Y-135.112
X138.345Y-27.045
X138.57Y-87.85
X138.635Y-31.183
X138.65Y-65.201
X138.747Y-62.732
X139.0Y-24.0
X139.0Y-164.0
X139.004Y-86.494
X139.025Y-59.875
X139.775Y-88.8
X139.775Y-110.8
X140.65Y-141.1
X140.71Y-151.44
X140.863Y-50.554
X140.96Y-67.83
X141.0Y-24.0
X141.0Y-164.0
X141.186Y-44.649
X142.418Y-137.951
X142.667Y-55.617
X142.83Y-120.962
X142.842Y-95.166
X142.95Y-83.26
X143.0Y-24.0
X143.0Y-164.0
X143.074Y-26.604
X143.31Y-80.03
X143.46Y-128.122
X143.665Y-101.459
X143.735Y-71.381
X143.75Y-74.86
X143.783Y-104.738
X143.818Y-145.547
X143.974Y-50.099
X144.413Y-55.394
X144.7Y-67.85
X144.744Y-45.917
X144.897Y-75.931
X144.949Y-78.901
X145.0Y-24.0
X145.0Y-164.0
X145.15Y-77.9
X145.616Y-42.971
X146.21Y-66.3
X146.317Y-62.598
X146.831Y-131.32
X147.0Y-24.0
X147.0Y-164.0
X147.036Y-32.903
X147.148Y-114.851
X147.285Y-48.005
X147.366Y-72.333
X147.414Y-75.479
X147.444Y-124.06
X147.521Y-143.151
X147.556Y-43.323
X147.634Y-89.406
X147.866Y-27.62
X147.944Y-105.062
X147.975Y-53.025
X147.975Y-81.05
X147.995Y-39.615
X148.175Y-141.191
X148.312Y-95.021
X148.476Y-68.831
X148.85Y-82.025
X148.911Y-55.762
X149.0Y-24.0
X149.0Y-164.0
X149.917Y-155.712
X151.0Y-24.0
X151.0Y-164.0
X151.152Y-152.227
X151.152Y-160.722
X151.3Y-135.7
X151.428Y-44.145
X151.48Y-62.846
X151.528Y-66.96
X151.528Y-71.413
X151.925Y-74.65
X152.677Y-101.471
X152.78Y-32.161
X153.0Y-24.0
X153.0Y-164.0
X153.026Y-54.988
X153.225Y-124.022
X153.384Y-57.04
X153.642Y-71.591
X154.312Y-43.965
X154.491Y-154.55
X154.709Y-140.029
X154.806Y-104.762
X155.0Y-24.0
X155.0Y-164.0
X155.025Y-98.975
X155.707Y-32.557
X155.904Y-93.468
X156.699Y-77.011
X156.742Y-144.749
X157.0Y-24.0
X157.0Y-164.0
X157.232Y-27.402
X157.291Y-129.153
X157.388Y-116.568
X158.0Y-119.025
X158.853Y-62.152
X159.0Y-24.0
X159.0Y-164.0
X159.437Y-87.329
X159.572Y-46.643
X159.75Y-150.95
X159.84Y-96.243
X160.437Y-121.505
X160.748Y-157.032
X161.0Y-24.0
X161.0Y-164.0
X161.3Y-68.45
X162.175Y-50.55
X162.175Y-100.525
X162.68Y-105.505
X163.0Y-24.0
X163.0Y-164.0
X163.003Y-92.661
X163.347Y-43.126
X164.13Y-56.953
X164.45Y-160.735
X164.855Y-63.023
X164.993Y-37.059
X165.0Y-24.0
X165.0Y-164.0
X165.245Y-88.006
X165.388Y-54.942
X165.6Y-146.419
X165.616Y-111.485
X165.745Y-148.597
X166.197Y-121.408
X167.0Y-24.0
X167.0Y-164.0
X167.187Y-75.462
X167.324Y-32.993
X167.649Y-129.927
X167.875Y-91.855
X168.091Y-37.35
X168.114Y-63.733
X168.214Y-87.684
X168.225Y-152.575
X168.55Y-57.266
X168.559Y-27.33
X168.843Y-101.568
X169.0Y-24.0
X169.0Y-164.0
X169.731Y-109.307
X171.0Y-24.0
X171.0Y-164.0
X171.025Y-33.35
X171.025Y-39.675
X171.025Y-67.9
X171.025Y-89.75
X171.025Y-114.8
X171.493Y-159.21
X172.6Y-84.425
X172.625Y-43.884
X172.651Y-101.439
X172.772Y-120.884
X172.834Y-76.269
X172.842Y-31.904
X172.909Y-98.466
X172.942Y-94.21
X172.955Y-62.927
X173.0Y-24.0
X173.0Y-164.0
X173.063Y-108.332
X173.175Y-129.017
X173.205Y-48.313
X173.205Y-57.026
X173.213Y-66.347
X173.224Y-115.754
X173.278Y-53.976
X173.577Y-37.479
X174.978Y-156.814
X175.0Y-24.0
X175.0Y-164.0
X175.475Y-140.78
X175.747Y-27.693
X176.273Y-115.754
X176.297Y-89.334
X176.375Y-64.153
X176.513Y-82.327
X176.588Y-144.652
X176.763Y-39.019
X177.0Y-24.0
X177.0Y-164.0
X177.054Y-54.63
X177.395Y-99.079
X177.577Y-76.398
X179.0Y-24.0
X179.0Y-164.0
X179.067Y-129.945
X179.285Y-122.104
X180.684Y-57.461
X181.0Y-24.0
X181.0Y-164.0
X181.005Y-158.411
X181.75Y-69.475
X181.825Y-113.05
X183.0Y-24.0
X183.0Y-164.0
X183.08Y-28.782
X184.332Y-87.108
X184.337Y-73.768
X184.361Y-115.992
X184.72Y-148.718
X185.0Y-24.0
X185.0Y-164.0
X186.546Y-127.259
X187.0Y-24.0
X187.0Y-164.0
X187.25Y-100.55
X187.3Y-50.975
X187.624Y-145.475
X187.661Y-67.479
X188.104Y-111.313
X188.235Y-27.983
X188.38Y-43.013
X188.809Y-160.541
X188.95Y-82.375
X189.0Y-24.0
X189.0Y-164.0
X189.011Y-94.013
X189.21Y-62.832
X189.366Y-87.817
X189.813Y-121.958
X189.919Y-75.446
X190.202Y-106.085
X190.307Y-71.416
X191.0Y-24.0
X191.0Y-164.0
X192.01Y-54.847
X192.212Y-152.812
X192.331Y-116.605
X192.341Y-90.011
X192.591Y-31.904
X192.654Y-108.279
X192.809Y-57.461
X193.0Y-24.0
X193.0Y-164.0
X193.045Y-141.893
X193.189Y-62.789
X194.697Y-43.013
X194.945Y-116.411
X195.0Y-24.0
X195.0Y-164.0
X195.525Y-91.625
X195.814Y-39.175
X196.004Y-51.508
X196.875Y-57.243
X197.0Y-24.0
X197.0Y-164.0
X197.02Y-38.148
X197.051Y-76.479
X197.074Y-129.8
X197.471Y-65.295
X197.674Y-49.62
X197.674Y-54.194
X197.676Y-93.733
X197.746Y-32.993
X198.374Y-71.953
X198.951Y-145.281
X199.0Y-24.0
X199.0Y-164.0
X199.25Y-100.125
X199.76Y-125.08
X199.955Y-75.898
X200.975Y-113.225
X201.0Y-24.0
X201.0Y-164.0
X201.601Y-64.973
X203.0Y-24.0
X203.0Y-164.0
X203.4Y-106.214
X203.452Y-149.008
X203.495Y-96.814
X203.561Y-116.508
X204.734Y-159.524
X205.0Y-24.0
X205.0Y-164.0
X205.047Y-57.002
X205.35Y-100.3
X205.725Y-51.15
X205.894Y-43.107
X205.904Y-93.114
X206.112Y-54.549
X206.294Y-130.453
X206.656Y-26.977
X206.725Y-69.675
X206.727Y-120.827
X207.0Y-24.0
X207.0Y-164.0
X207.498Y-107.892
X208.0Y-82.075
X208.1Y-113.3
X208.507Y-62.262
X208.534Y-145.62
X209.0Y-24.0
X209.0Y-164.0
X209.709Y-72.864
X210.299Y-46.301
X211.0Y-24.0
X211.0Y-164.0
X211.1Y-49.1
X211.153Y-92.834
X211.241Y-107.15
X211.3Y-99.575
X211.923Y-141.167
X212.112Y-152.838
X212.479Y-159.476
X213.0Y-24.0
X213.0Y-164.0
X213.089Y-63.391
X213.784Y-43.687
X214.205Y-92.356
X214.214Y-116.503
X214.221Y-145.003
X214.311Y-109.953
X215.0Y-24.0
X215.0Y-164.0
X216.835Y-158.605
X217.0Y-24.0
X217.0Y-164.0
X217.018Y-73.977
X217.063Y-32.398
X217.513Y-145.681
X217.789Y-28.962
X217.8Y-62.714
X217.802Y-37.927
X217.826Y-57.647
X218.875Y-100.225
X219.0Y-24.0
X219.0Y-164.0
X219.287Y-93.905
X219.635Y-110.598
X220.025Y-112.975
X220.216Y-121.44
X220.404Y-127.519
X221.0Y-24.0
X221.0Y-164.0
X221.44Y-54.904
X221.529Y-40.977
X222.097Y-32.689
X222.117Y-58.099
X222.16Y-148.537
X222.184Y-117.891
X222.245Y-76.591
X222.342Y-72.477
X222.378Y-106.016
X222.389Y-159.264
X222.507Y-115.696
X222.772Y-97.293
X223.0Y-24.0
X223.0Y-164.0
X223.05Y-51.1
X223.684Y-64.279
X225.0Y-24.0
X225.0Y-164.0
X225.1Y-100.475
X225.1Y-123.646
X225.193Y-88.387
X225.195Y-28.865
X226.136Y-64.322
X226.805Y-42.187
X226.844Y-73.251
X226.95Y-81.85
X227.0Y-24.0
X227.0Y-164.0
X227.05Y-51.1
X227.129Y-93.711
X227.175Y-113.225
X227.375Y-130.52
X227.442Y-54.033
X227.581Y-145.632
X228.445Y-106.403
X228.578Y-79.633
X229.0Y-24.0
X229.0Y-164.0
X230.275Y-89.452
X230.378Y-57.518
X230.542Y-110.017
X230.612Y-152.838
X230.969Y-141.857
X231.0Y-24.0
X231.0Y-164.0
X231.306Y-43.494
X231.625Y-69.425
X231.828Y-162.604
X233.0Y-24.0
X233.0Y-164.0
X233.324Y-92.308
X233.429Y-61.827
X233.502Y-108.028
X234.356Y-46.785
X235.0Y-24.0
X235.0Y-164.0
X235.15Y-101.025
X235.3Y-49.05
X235.59Y-26.47
X236.032Y-79.504
X236.439Y-145.778
X236.62Y-157.159
X237.0Y-24.0
X237.0Y-164.0
X237.148Y-92.985
X237.732Y-63.978
X237.744Y-43.397
X238.875Y-113.225
X239.0Y-24.0
X239.0Y-164.0
X240.387Y-152.838
X241.0Y-24.0
X241.0Y-164.0
X241.327Y-148.488
X241.456Y-96.47
X241.86Y-115.288
X242.221Y-32.133
X242.283Y-122.533
X242.633Y-57.458
X242.767Y-127.712
X242.778Y-48.625
X243.0Y-24.0
X243.0Y-164.0
X243.165Y-40.396
X243.679Y-62.554
X244.15Y-100.3
X244.293Y-71.146
X244.824Y-159.119
X244.925Y-107.059
X245.0Y-24.0
X245.0Y-164.0
X245.087Y-93.518
X245.78Y-62.299
X246.311Y-41.17
X246.699Y-54.602
X246.893Y-58.039
X247.0Y-24.0
X247.0Y-164.0
X247.152Y-104.575
X247.231Y-47.802
X247.294Y-72.695
X247.426Y-138.517
X247.594Y-32.811
X247.668Y-146.31
X248.075Y-51.075
X248.197Y-79.31
X248.635Y-65.929
X249.0Y-24.0
X249.0Y-164.0
X250.121Y-92.646
X250.533Y-127.426
X251.0Y-24.0
X251.0Y-164.0
X251.249Y-63.896
X251.394Y-38.895
X251.424Y-71.211
X251.539Y-31.393
X252.05Y-51.1
X252.507Y-48.528
X253.0Y-24.0
X253.0Y-164.0
X253.972Y-94.669
X254.123Y-84.808
X255.0Y-24.0
X255.0Y-164.0
X255.279Y-159.192
X256.151Y-79.748
X257.0Y-24.0
X257.0Y-164.0
X257.025Y-69.3
X257.675Y-135.667
X257.705Y-110.074
X258.243Y-28.115
X258.915Y-98.796
X259.0Y-24.0
X259.0Y-164.0
X259.459Y-62.231
X259.781Y-126.084
X259.814Y-71.751
X260.375Y-49.175
X260.652Y-144.671
X260.943Y-90.204
X261.0Y-24.0
X261.0Y-164.0
X262.013Y-83.646
X262.236Y-27.182
X263.0Y-24.0
X263.0Y-164.0
X263.137Y-63.361
X263.484Y-159.918
X263.834Y-43.397
X263.847Y-126.447
X264.995Y-36.378
X265.0Y-24.0
X265.0Y-164.0
X265.074Y-60.069
X265.88Y-151.132
X265.963Y-48.431
X266.514Y-93.907
X267.0Y-24.0
X267.0Y-164.0
X267.077Y-32.651
X267.259Y-133.998
X267.827Y-42.83
X268.093Y-36.62
X268.111Y-103.056
X268.63Y-115.22
X268.766Y-116.512
X269.0Y-24.0
X269.0Y-26.0
X269.0Y-28.0
X269.0Y-30.0
X269.0Y-32.0
X269.0Y-34.0
X269.0Y-36.0
X269.0Y-38.0
X269.0Y-40.0
X269.0Y-42.0
X269.0Y-44.0
X269.0Y-46.0
X269.0Y-48.0
X269.0Y-50.0
X269.0Y-52.0
X269.0Y-54.0
X269.0Y-56.0
X269.0Y-58.0
X269.0Y-60.0
X269.0Y-62.0
X269.0Y-64.0
X269.0Y-66.0
X269.0Y-68.0
X269.0Y-70.0
X269.0Y-72.0
X269.0Y-74.0
X269.0Y-76.0
X269.0Y-78.0
X269.0Y-80.0
X269.0Y-82.0
X269.0Y-84.0
X269.0Y-86.0
X269.0Y-88.0
X269.0Y-90.0
X269.0Y-92.0
X269.0Y-94.0
X269.0Y-96.0
X269.0Y-98.0
X269.0Y-100.0
X269.0Y-102.0
X269.0Y-104.0
X269.0Y-106.0
X269.0Y-108.0
X269.0Y-110.0
X269.0Y-112.0
X269.0Y-114.0
X269.0Y-118.0
X269.0Y-120.0
X269.0Y-122.0
X269.0Y-124.0
X269.0Y-126.0
X269.0Y-128.0
X269.0Y-130.0
X269.0Y-132.0
X269.0Y-134.0
X269.0Y-136.0
X269.0Y-138.0
X269.0Y-140.0
X269.0Y-142.0
X269.0Y-144.0
X269.0Y-146.0
X269.0Y-148.0
X269.0Y-150.0
X269.0Y-152.0
X269.0Y-154.0
X269.0Y-156.0
X269.0Y-158.0
X269.0Y-160.0
X269.0Y-162.0
X269.0Y-164.0
T2
X66.6Y-28.0
X66.6Y-160.0
X67.303Y-26.303
X67.303Y-29.697
X67.303Y-158.303
X67.303Y-161.697
X69.0Y-25.6
X69.0Y-30.4
X69.0Y-157.6
X69.0Y-162.4
X70.697Y-26.303
X70.697Y-29.697
X70.697Y-158.303
X70.697Y-161.697
X71.4Y-28.0
X71.4Y-160.0
X195.6Y-28.0
X195.6Y-160.0
X196.303Y-26.303
X196.303Y-29.697
X196.303Y-158.303
X196.303Y-161.697
X198.0Y-25.6
X198.0Y-30.4
X198.0Y-157.6
X198.0Y-162.4
X199.697Y-26.303
X199.697Y-29.697
X199.697Y-158.303
X199.697Y-161.697
X200.4Y-28.0
X200.4Y-160.0
X237.6Y-160.0
X238.303Y-158.303
X238.303Y-161.697
X240.0Y-157.6
X240.0Y-162.4
X241.697Y-158.303
X241.697Y-161.697
X242.4Y-160.0
X244.6Y-28.0
X245.303Y-26.303
X245.303Y-29.697
X247.0Y-25.6
X247.0Y-30.4
X248.697Y-26.303
X248.697Y-29.697
X249.4Y-28.0
T3
X56.667Y-37.04
X56.667Y-39.58
X56.667Y-42.12
X56.667Y-44.66
X56.667Y-47.2
X56.667Y-49.74
X56.667Y-52.28
X56.667Y-54.82
X56.667Y-57.36
X56.667Y-59.9
X56.667Y-62.44
X56.667Y-64.98
X56.667Y-67.52
X56.667Y-70.06
X56.667Y-72.6
X56.667Y-75.14
X56.667Y-77.68
X56.667Y-80.22
X56.667Y-82.76
X56.667Y-85.3
X56.867Y-103.01
X56.867Y-105.55
X56.867Y-108.09
X56.867Y-110.63
X56.867Y-113.17
X56.867Y-115.71
X56.867Y-118.25
X56.867Y-120.79
X56.867Y-123.33
X56.867Y-125.87
X56.867Y-128.41
X56.867Y-130.95
X56.867Y-133.49
X56.867Y-136.03
X56.867Y-138.57
X56.867Y-141.11
X56.867Y-143.65
X56.867Y-146.19
X56.867Y-148.73
X56.867Y-151.27
X59.207Y-37.04
X59.207Y-39.58
X59.207Y-42.12
X59.207Y-44.66
X59.207Y-47.2
X59.207Y-49.74
X59.207Y-52.28
X59.207Y-54.82
X59.207Y-57.36
X59.207Y-59.9
X59.207Y-62.44
X59.207Y-64.98
X59.207Y-67.52
X59.207Y-70.06
X59.207Y-72.6
X59.207Y-75.14
X59.207Y-77.68
X59.207Y-80.22
X59.207Y-82.76
X59.207Y-85.3
X59.407Y-103.01
X59.407Y-105.55
X59.407Y-108.09
X59.407Y-110.63
X59.407Y-113.17
X59.407Y-115.71
X59.407Y-118.25
X59.407Y-120.79
X59.407Y-123.33
X59.407Y-125.87
X59.407Y-128.41
X59.407Y-130.95
X59.407Y-133.49
X59.407Y-136.03
X59.407Y-138.57
X59.407Y-141.11
X59.407Y-143.65
X59.407Y-146.19
X59.407Y-148.73
X59.407Y-151.27
X75.38Y-93.2
X75.38Y-95.74
X75.38Y-98.28
X75.38Y-100.82
X75.38Y-103.36
X80.01Y-143.362
X80.01Y-145.903
X82.55Y-143.362
X82.55Y-145.903
X85.09Y-143.362
X85.09Y-145.903
X87.63Y-143.362
X87.63Y-145.903
X90.17Y-143.362
X90.17Y-145.903
X92.71Y-143.362
X92.71Y-145.903
X95.25Y-143.362
X95.25Y-145.903
X97.79Y-143.362
X97.79Y-145.903
X100.33Y-143.362
X100.33Y-145.903
X102.87Y-143.362
X102.87Y-145.903
X105.41Y-143.362
X105.41Y-145.903
X107.95Y-143.362
X107.95Y-145.903
X110.49Y-143.362
X110.49Y-145.903
X113.03Y-143.362
X113.03Y-145.903
X115.57Y-143.362
X115.57Y-145.903
X118.11Y-143.362
X118.11Y-145.903
X120.65Y-143.362
X120.65Y-145.903
X123.19Y-143.362
X123.19Y-145.903
X125.73Y-143.362
X125.73Y-145.903
X127.01Y-92.45
X128.27Y-143.362
X128.27Y-145.903
X129.55Y-92.45
X132.09Y-92.45
X133.09Y-157.3
X133.09Y-159.84
X134.63Y-92.45
X135.63Y-157.3
X135.63Y-159.84
X137.17Y-92.45
X138.17Y-157.3
X138.17Y-159.84
X140.71Y-157.3
X140.71Y-159.84
X143.25Y-157.3
X143.25Y-159.84
T4
X155.76Y-38.03
X155.76Y-63.03
X155.76Y-88.03
X156.76Y-113.03
X161.76Y-140.03
X162.11Y-35.49
X162.11Y-60.49
X162.11Y-85.49
X163.11Y-110.49
X168.11Y-137.49
X180.76Y-38.03
X180.76Y-63.03
X180.76Y-88.03
X180.76Y-107.03
X180.76Y-140.03
X187.11Y-35.49
X187.11Y-60.49
X187.11Y-85.49
X187.11Y-104.49
X187.11Y-137.49
X199.76Y-88.03
X199.76Y-107.03
X199.76Y-140.03
X205.76Y-38.03
X205.76Y-63.03
X206.11Y-85.49
X206.11Y-104.49
X206.11Y-137.49
X212.11Y-35.49
X212.11Y-60.49
X218.76Y-88.03
X218.76Y-107.03
X218.76Y-140.03
X225.11Y-85.49
X225.11Y-104.49
X225.11Y-137.49
X230.76Y-38.03
X230.76Y-63.03
X237.11Y-35.49
X237.11Y-60.49
X237.76Y-88.03
X237.76Y-107.03
X237.76Y-140.03
X244.11Y-85.49
X244.11Y-104.49
X244.11Y-137.49
X255.76Y-38.03
X255.76Y-63.03
X262.11Y-35.49
X262.11Y-60.49
T5
X69.0Y-28.0
X69.0Y-160.0
X198.0Y-28.0
X198.0Y-160.0
X240.0Y-160.0
X247.0Y-28.0
T0
M30
