%TF.GenerationSoftware,KiCad,Pcbnew,(6.0.0)*%
%TF.CreationDate,2023-05-12T18:24:35+02:00*%
%TF.ProjectId,Pot.butt_pcb,506f742e-6275-4747-945f-7063622e6b69,rev?*%
%TF.SameCoordinates,Original*%
%TF.FileFunction,Legend,Bot*%
%TF.FilePolarity,Positive*%
%FSLAX46Y46*%
G04 Gerber Fmt 4.6, Leading zero omitted, Abs format (unit mm)*
G04 Created by KiCad (PCBNEW (6.0.0)) date 2023-05-12 18:24:35*
%MOMM*%
%LPD*%
G01*
G04 APERTURE LIST*
%ADD10C,0.150000*%
%ADD11C,0.120000*%
G04 APERTURE END LIST*
D10*
%TO.C,C46*%
X218052857Y-114927142D02*
X218100476Y-114974761D01*
X218243333Y-115022380D01*
X218338571Y-115022380D01*
X218481428Y-114974761D01*
X218576666Y-114879523D01*
X218624285Y-114784285D01*
X218671904Y-114593809D01*
X218671904Y-114450952D01*
X218624285Y-114260476D01*
X218576666Y-114165238D01*
X218481428Y-114070000D01*
X218338571Y-114022380D01*
X218243333Y-114022380D01*
X218100476Y-114070000D01*
X218052857Y-114117619D01*
X217195714Y-114355714D02*
X217195714Y-115022380D01*
X217433809Y-113974761D02*
X217671904Y-114689047D01*
X217052857Y-114689047D01*
X216243333Y-114022380D02*
X216433809Y-114022380D01*
X216529047Y-114070000D01*
X216576666Y-114117619D01*
X216671904Y-114260476D01*
X216719523Y-114450952D01*
X216719523Y-114831904D01*
X216671904Y-114927142D01*
X216624285Y-114974761D01*
X216529047Y-115022380D01*
X216338571Y-115022380D01*
X216243333Y-114974761D01*
X216195714Y-114927142D01*
X216148095Y-114831904D01*
X216148095Y-114593809D01*
X216195714Y-114498571D01*
X216243333Y-114450952D01*
X216338571Y-114403333D01*
X216529047Y-114403333D01*
X216624285Y-114450952D01*
X216671904Y-114498571D01*
X216719523Y-114593809D01*
%TO.C,D3*%
X152248095Y-86912380D02*
X152248095Y-85912380D01*
X152010000Y-85912380D01*
X151867142Y-85960000D01*
X151771904Y-86055238D01*
X151724285Y-86150476D01*
X151676666Y-86340952D01*
X151676666Y-86483809D01*
X151724285Y-86674285D01*
X151771904Y-86769523D01*
X151867142Y-86864761D01*
X152010000Y-86912380D01*
X152248095Y-86912380D01*
X151343333Y-85912380D02*
X150724285Y-85912380D01*
X151057619Y-86293333D01*
X150914761Y-86293333D01*
X150819523Y-86340952D01*
X150771904Y-86388571D01*
X150724285Y-86483809D01*
X150724285Y-86721904D01*
X150771904Y-86817142D01*
X150819523Y-86864761D01*
X150914761Y-86912380D01*
X151200476Y-86912380D01*
X151295714Y-86864761D01*
X151343333Y-86817142D01*
%TO.C,C30*%
X190317857Y-156957142D02*
X190365476Y-157004761D01*
X190508333Y-157052380D01*
X190603571Y-157052380D01*
X190746428Y-157004761D01*
X190841666Y-156909523D01*
X190889285Y-156814285D01*
X190936904Y-156623809D01*
X190936904Y-156480952D01*
X190889285Y-156290476D01*
X190841666Y-156195238D01*
X190746428Y-156100000D01*
X190603571Y-156052380D01*
X190508333Y-156052380D01*
X190365476Y-156100000D01*
X190317857Y-156147619D01*
X189984523Y-156052380D02*
X189365476Y-156052380D01*
X189698809Y-156433333D01*
X189555952Y-156433333D01*
X189460714Y-156480952D01*
X189413095Y-156528571D01*
X189365476Y-156623809D01*
X189365476Y-156861904D01*
X189413095Y-156957142D01*
X189460714Y-157004761D01*
X189555952Y-157052380D01*
X189841666Y-157052380D01*
X189936904Y-157004761D01*
X189984523Y-156957142D01*
X188746428Y-156052380D02*
X188651190Y-156052380D01*
X188555952Y-156100000D01*
X188508333Y-156147619D01*
X188460714Y-156242857D01*
X188413095Y-156433333D01*
X188413095Y-156671428D01*
X188460714Y-156861904D01*
X188508333Y-156957142D01*
X188555952Y-157004761D01*
X188651190Y-157052380D01*
X188746428Y-157052380D01*
X188841666Y-157004761D01*
X188889285Y-156957142D01*
X188936904Y-156861904D01*
X188984523Y-156671428D01*
X188984523Y-156433333D01*
X188936904Y-156242857D01*
X188889285Y-156147619D01*
X188841666Y-156100000D01*
X188746428Y-156052380D01*
%TO.C,R8*%
X91492380Y-135333333D02*
X91016190Y-135000000D01*
X91492380Y-134761904D02*
X90492380Y-134761904D01*
X90492380Y-135142857D01*
X90540000Y-135238095D01*
X90587619Y-135285714D01*
X90682857Y-135333333D01*
X90825714Y-135333333D01*
X90920952Y-135285714D01*
X90968571Y-135238095D01*
X91016190Y-135142857D01*
X91016190Y-134761904D01*
X90920952Y-135904761D02*
X90873333Y-135809523D01*
X90825714Y-135761904D01*
X90730476Y-135714285D01*
X90682857Y-135714285D01*
X90587619Y-135761904D01*
X90540000Y-135809523D01*
X90492380Y-135904761D01*
X90492380Y-136095238D01*
X90540000Y-136190476D01*
X90587619Y-136238095D01*
X90682857Y-136285714D01*
X90730476Y-136285714D01*
X90825714Y-136238095D01*
X90873333Y-136190476D01*
X90920952Y-136095238D01*
X90920952Y-135904761D01*
X90968571Y-135809523D01*
X91016190Y-135761904D01*
X91111428Y-135714285D01*
X91301904Y-135714285D01*
X91397142Y-135761904D01*
X91444761Y-135809523D01*
X91492380Y-135904761D01*
X91492380Y-136095238D01*
X91444761Y-136190476D01*
X91397142Y-136238095D01*
X91301904Y-136285714D01*
X91111428Y-136285714D01*
X91016190Y-136238095D01*
X90968571Y-136190476D01*
X90920952Y-136095238D01*
%TO.C,R29*%
X116882380Y-134817142D02*
X116406190Y-134483809D01*
X116882380Y-134245714D02*
X115882380Y-134245714D01*
X115882380Y-134626666D01*
X115930000Y-134721904D01*
X115977619Y-134769523D01*
X116072857Y-134817142D01*
X116215714Y-134817142D01*
X116310952Y-134769523D01*
X116358571Y-134721904D01*
X116406190Y-134626666D01*
X116406190Y-134245714D01*
X115977619Y-135198095D02*
X115930000Y-135245714D01*
X115882380Y-135340952D01*
X115882380Y-135579047D01*
X115930000Y-135674285D01*
X115977619Y-135721904D01*
X116072857Y-135769523D01*
X116168095Y-135769523D01*
X116310952Y-135721904D01*
X116882380Y-135150476D01*
X116882380Y-135769523D01*
X116882380Y-136245714D02*
X116882380Y-136436190D01*
X116834761Y-136531428D01*
X116787142Y-136579047D01*
X116644285Y-136674285D01*
X116453809Y-136721904D01*
X116072857Y-136721904D01*
X115977619Y-136674285D01*
X115930000Y-136626666D01*
X115882380Y-136531428D01*
X115882380Y-136340952D01*
X115930000Y-136245714D01*
X115977619Y-136198095D01*
X116072857Y-136150476D01*
X116310952Y-136150476D01*
X116406190Y-136198095D01*
X116453809Y-136245714D01*
X116501428Y-136340952D01*
X116501428Y-136531428D01*
X116453809Y-136626666D01*
X116406190Y-136674285D01*
X116310952Y-136721904D01*
%TO.C,C23*%
X65877142Y-47277142D02*
X65924761Y-47229523D01*
X65972380Y-47086666D01*
X65972380Y-46991428D01*
X65924761Y-46848571D01*
X65829523Y-46753333D01*
X65734285Y-46705714D01*
X65543809Y-46658095D01*
X65400952Y-46658095D01*
X65210476Y-46705714D01*
X65115238Y-46753333D01*
X65020000Y-46848571D01*
X64972380Y-46991428D01*
X64972380Y-47086666D01*
X65020000Y-47229523D01*
X65067619Y-47277142D01*
X65067619Y-47658095D02*
X65020000Y-47705714D01*
X64972380Y-47800952D01*
X64972380Y-48039047D01*
X65020000Y-48134285D01*
X65067619Y-48181904D01*
X65162857Y-48229523D01*
X65258095Y-48229523D01*
X65400952Y-48181904D01*
X65972380Y-47610476D01*
X65972380Y-48229523D01*
X64972380Y-48562857D02*
X64972380Y-49181904D01*
X65353333Y-48848571D01*
X65353333Y-48991428D01*
X65400952Y-49086666D01*
X65448571Y-49134285D01*
X65543809Y-49181904D01*
X65781904Y-49181904D01*
X65877142Y-49134285D01*
X65924761Y-49086666D01*
X65972380Y-48991428D01*
X65972380Y-48705714D01*
X65924761Y-48610476D01*
X65877142Y-48562857D01*
%TO.C,C34*%
X210167857Y-157032142D02*
X210215476Y-157079761D01*
X210358333Y-157127380D01*
X210453571Y-157127380D01*
X210596428Y-157079761D01*
X210691666Y-156984523D01*
X210739285Y-156889285D01*
X210786904Y-156698809D01*
X210786904Y-156555952D01*
X210739285Y-156365476D01*
X210691666Y-156270238D01*
X210596428Y-156175000D01*
X210453571Y-156127380D01*
X210358333Y-156127380D01*
X210215476Y-156175000D01*
X210167857Y-156222619D01*
X209834523Y-156127380D02*
X209215476Y-156127380D01*
X209548809Y-156508333D01*
X209405952Y-156508333D01*
X209310714Y-156555952D01*
X209263095Y-156603571D01*
X209215476Y-156698809D01*
X209215476Y-156936904D01*
X209263095Y-157032142D01*
X209310714Y-157079761D01*
X209405952Y-157127380D01*
X209691666Y-157127380D01*
X209786904Y-157079761D01*
X209834523Y-157032142D01*
X208358333Y-156460714D02*
X208358333Y-157127380D01*
X208596428Y-156079761D02*
X208834523Y-156794047D01*
X208215476Y-156794047D01*
%TO.C,C44*%
X265592857Y-55232142D02*
X265640476Y-55279761D01*
X265783333Y-55327380D01*
X265878571Y-55327380D01*
X266021428Y-55279761D01*
X266116666Y-55184523D01*
X266164285Y-55089285D01*
X266211904Y-54898809D01*
X266211904Y-54755952D01*
X266164285Y-54565476D01*
X266116666Y-54470238D01*
X266021428Y-54375000D01*
X265878571Y-54327380D01*
X265783333Y-54327380D01*
X265640476Y-54375000D01*
X265592857Y-54422619D01*
X264735714Y-54660714D02*
X264735714Y-55327380D01*
X264973809Y-54279761D02*
X265211904Y-54994047D01*
X264592857Y-54994047D01*
X263783333Y-54660714D02*
X263783333Y-55327380D01*
X264021428Y-54279761D02*
X264259523Y-54994047D01*
X263640476Y-54994047D01*
%TO.C,C7*%
X64587142Y-118783333D02*
X64634761Y-118735714D01*
X64682380Y-118592857D01*
X64682380Y-118497619D01*
X64634761Y-118354761D01*
X64539523Y-118259523D01*
X64444285Y-118211904D01*
X64253809Y-118164285D01*
X64110952Y-118164285D01*
X63920476Y-118211904D01*
X63825238Y-118259523D01*
X63730000Y-118354761D01*
X63682380Y-118497619D01*
X63682380Y-118592857D01*
X63730000Y-118735714D01*
X63777619Y-118783333D01*
X63682380Y-119116666D02*
X63682380Y-119783333D01*
X64682380Y-119354761D01*
%TO.C,C24*%
X65947142Y-67457142D02*
X65994761Y-67409523D01*
X66042380Y-67266666D01*
X66042380Y-67171428D01*
X65994761Y-67028571D01*
X65899523Y-66933333D01*
X65804285Y-66885714D01*
X65613809Y-66838095D01*
X65470952Y-66838095D01*
X65280476Y-66885714D01*
X65185238Y-66933333D01*
X65090000Y-67028571D01*
X65042380Y-67171428D01*
X65042380Y-67266666D01*
X65090000Y-67409523D01*
X65137619Y-67457142D01*
X65137619Y-67838095D02*
X65090000Y-67885714D01*
X65042380Y-67980952D01*
X65042380Y-68219047D01*
X65090000Y-68314285D01*
X65137619Y-68361904D01*
X65232857Y-68409523D01*
X65328095Y-68409523D01*
X65470952Y-68361904D01*
X66042380Y-67790476D01*
X66042380Y-68409523D01*
X65375714Y-69266666D02*
X66042380Y-69266666D01*
X64994761Y-69028571D02*
X65709047Y-68790476D01*
X65709047Y-69409523D01*
%TO.C,C37*%
X247392857Y-103237142D02*
X247440476Y-103284761D01*
X247583333Y-103332380D01*
X247678571Y-103332380D01*
X247821428Y-103284761D01*
X247916666Y-103189523D01*
X247964285Y-103094285D01*
X248011904Y-102903809D01*
X248011904Y-102760952D01*
X247964285Y-102570476D01*
X247916666Y-102475238D01*
X247821428Y-102380000D01*
X247678571Y-102332380D01*
X247583333Y-102332380D01*
X247440476Y-102380000D01*
X247392857Y-102427619D01*
X247059523Y-102332380D02*
X246440476Y-102332380D01*
X246773809Y-102713333D01*
X246630952Y-102713333D01*
X246535714Y-102760952D01*
X246488095Y-102808571D01*
X246440476Y-102903809D01*
X246440476Y-103141904D01*
X246488095Y-103237142D01*
X246535714Y-103284761D01*
X246630952Y-103332380D01*
X246916666Y-103332380D01*
X247011904Y-103284761D01*
X247059523Y-103237142D01*
X246107142Y-102332380D02*
X245440476Y-102332380D01*
X245869047Y-103332380D01*
%TO.C,C27*%
X165542857Y-53237142D02*
X165590476Y-53284761D01*
X165733333Y-53332380D01*
X165828571Y-53332380D01*
X165971428Y-53284761D01*
X166066666Y-53189523D01*
X166114285Y-53094285D01*
X166161904Y-52903809D01*
X166161904Y-52760952D01*
X166114285Y-52570476D01*
X166066666Y-52475238D01*
X165971428Y-52380000D01*
X165828571Y-52332380D01*
X165733333Y-52332380D01*
X165590476Y-52380000D01*
X165542857Y-52427619D01*
X165161904Y-52427619D02*
X165114285Y-52380000D01*
X165019047Y-52332380D01*
X164780952Y-52332380D01*
X164685714Y-52380000D01*
X164638095Y-52427619D01*
X164590476Y-52522857D01*
X164590476Y-52618095D01*
X164638095Y-52760952D01*
X165209523Y-53332380D01*
X164590476Y-53332380D01*
X164257142Y-52332380D02*
X163590476Y-52332380D01*
X164019047Y-53332380D01*
%TO.C,D12*%
X202734285Y-61922380D02*
X202734285Y-60922380D01*
X202496190Y-60922380D01*
X202353333Y-60970000D01*
X202258095Y-61065238D01*
X202210476Y-61160476D01*
X202162857Y-61350952D01*
X202162857Y-61493809D01*
X202210476Y-61684285D01*
X202258095Y-61779523D01*
X202353333Y-61874761D01*
X202496190Y-61922380D01*
X202734285Y-61922380D01*
X201210476Y-61922380D02*
X201781904Y-61922380D01*
X201496190Y-61922380D02*
X201496190Y-60922380D01*
X201591428Y-61065238D01*
X201686666Y-61160476D01*
X201781904Y-61208095D01*
X200829523Y-61017619D02*
X200781904Y-60970000D01*
X200686666Y-60922380D01*
X200448571Y-60922380D01*
X200353333Y-60970000D01*
X200305714Y-61017619D01*
X200258095Y-61112857D01*
X200258095Y-61208095D01*
X200305714Y-61350952D01*
X200877142Y-61922380D01*
X200258095Y-61922380D01*
%TO.C,D5*%
X158258095Y-138922380D02*
X158258095Y-137922380D01*
X158020000Y-137922380D01*
X157877142Y-137970000D01*
X157781904Y-138065238D01*
X157734285Y-138160476D01*
X157686666Y-138350952D01*
X157686666Y-138493809D01*
X157734285Y-138684285D01*
X157781904Y-138779523D01*
X157877142Y-138874761D01*
X158020000Y-138922380D01*
X158258095Y-138922380D01*
X156781904Y-137922380D02*
X157258095Y-137922380D01*
X157305714Y-138398571D01*
X157258095Y-138350952D01*
X157162857Y-138303333D01*
X156924761Y-138303333D01*
X156829523Y-138350952D01*
X156781904Y-138398571D01*
X156734285Y-138493809D01*
X156734285Y-138731904D01*
X156781904Y-138827142D01*
X156829523Y-138874761D01*
X156924761Y-138922380D01*
X157162857Y-138922380D01*
X157258095Y-138874761D01*
X157305714Y-138827142D01*
%TO.C,C25*%
X65957142Y-72727142D02*
X66004761Y-72679523D01*
X66052380Y-72536666D01*
X66052380Y-72441428D01*
X66004761Y-72298571D01*
X65909523Y-72203333D01*
X65814285Y-72155714D01*
X65623809Y-72108095D01*
X65480952Y-72108095D01*
X65290476Y-72155714D01*
X65195238Y-72203333D01*
X65100000Y-72298571D01*
X65052380Y-72441428D01*
X65052380Y-72536666D01*
X65100000Y-72679523D01*
X65147619Y-72727142D01*
X65147619Y-73108095D02*
X65100000Y-73155714D01*
X65052380Y-73250952D01*
X65052380Y-73489047D01*
X65100000Y-73584285D01*
X65147619Y-73631904D01*
X65242857Y-73679523D01*
X65338095Y-73679523D01*
X65480952Y-73631904D01*
X66052380Y-73060476D01*
X66052380Y-73679523D01*
X65052380Y-74584285D02*
X65052380Y-74108095D01*
X65528571Y-74060476D01*
X65480952Y-74108095D01*
X65433333Y-74203333D01*
X65433333Y-74441428D01*
X65480952Y-74536666D01*
X65528571Y-74584285D01*
X65623809Y-74631904D01*
X65861904Y-74631904D01*
X65957142Y-74584285D01*
X66004761Y-74536666D01*
X66052380Y-74441428D01*
X66052380Y-74203333D01*
X66004761Y-74108095D01*
X65957142Y-74060476D01*
%TO.C,C42*%
X247342857Y-156969642D02*
X247390476Y-157017261D01*
X247533333Y-157064880D01*
X247628571Y-157064880D01*
X247771428Y-157017261D01*
X247866666Y-156922023D01*
X247914285Y-156826785D01*
X247961904Y-156636309D01*
X247961904Y-156493452D01*
X247914285Y-156302976D01*
X247866666Y-156207738D01*
X247771428Y-156112500D01*
X247628571Y-156064880D01*
X247533333Y-156064880D01*
X247390476Y-156112500D01*
X247342857Y-156160119D01*
X246485714Y-156398214D02*
X246485714Y-157064880D01*
X246723809Y-156017261D02*
X246961904Y-156731547D01*
X246342857Y-156731547D01*
X246009523Y-156160119D02*
X245961904Y-156112500D01*
X245866666Y-156064880D01*
X245628571Y-156064880D01*
X245533333Y-156112500D01*
X245485714Y-156160119D01*
X245438095Y-156255357D01*
X245438095Y-156350595D01*
X245485714Y-156493452D01*
X246057142Y-157064880D01*
X245438095Y-157064880D01*
%TO.C,C31*%
X190430357Y-103212142D02*
X190477976Y-103259761D01*
X190620833Y-103307380D01*
X190716071Y-103307380D01*
X190858928Y-103259761D01*
X190954166Y-103164523D01*
X191001785Y-103069285D01*
X191049404Y-102878809D01*
X191049404Y-102735952D01*
X191001785Y-102545476D01*
X190954166Y-102450238D01*
X190858928Y-102355000D01*
X190716071Y-102307380D01*
X190620833Y-102307380D01*
X190477976Y-102355000D01*
X190430357Y-102402619D01*
X190097023Y-102307380D02*
X189477976Y-102307380D01*
X189811309Y-102688333D01*
X189668452Y-102688333D01*
X189573214Y-102735952D01*
X189525595Y-102783571D01*
X189477976Y-102878809D01*
X189477976Y-103116904D01*
X189525595Y-103212142D01*
X189573214Y-103259761D01*
X189668452Y-103307380D01*
X189954166Y-103307380D01*
X190049404Y-103259761D01*
X190097023Y-103212142D01*
X188525595Y-103307380D02*
X189097023Y-103307380D01*
X188811309Y-103307380D02*
X188811309Y-102307380D01*
X188906547Y-102450238D01*
X189001785Y-102545476D01*
X189097023Y-102593095D01*
%TO.C,C19*%
X65817142Y-37097142D02*
X65864761Y-37049523D01*
X65912380Y-36906666D01*
X65912380Y-36811428D01*
X65864761Y-36668571D01*
X65769523Y-36573333D01*
X65674285Y-36525714D01*
X65483809Y-36478095D01*
X65340952Y-36478095D01*
X65150476Y-36525714D01*
X65055238Y-36573333D01*
X64960000Y-36668571D01*
X64912380Y-36811428D01*
X64912380Y-36906666D01*
X64960000Y-37049523D01*
X65007619Y-37097142D01*
X65912380Y-38049523D02*
X65912380Y-37478095D01*
X65912380Y-37763809D02*
X64912380Y-37763809D01*
X65055238Y-37668571D01*
X65150476Y-37573333D01*
X65198095Y-37478095D01*
X65912380Y-38525714D02*
X65912380Y-38716190D01*
X65864761Y-38811428D01*
X65817142Y-38859047D01*
X65674285Y-38954285D01*
X65483809Y-39001904D01*
X65102857Y-39001904D01*
X65007619Y-38954285D01*
X64960000Y-38906666D01*
X64912380Y-38811428D01*
X64912380Y-38620952D01*
X64960000Y-38525714D01*
X65007619Y-38478095D01*
X65102857Y-38430476D01*
X65340952Y-38430476D01*
X65436190Y-38478095D01*
X65483809Y-38525714D01*
X65531428Y-38620952D01*
X65531428Y-38811428D01*
X65483809Y-38906666D01*
X65436190Y-38954285D01*
X65340952Y-39001904D01*
%TO.C,C1*%
X78577142Y-91323333D02*
X78624761Y-91275714D01*
X78672380Y-91132857D01*
X78672380Y-91037619D01*
X78624761Y-90894761D01*
X78529523Y-90799523D01*
X78434285Y-90751904D01*
X78243809Y-90704285D01*
X78100952Y-90704285D01*
X77910476Y-90751904D01*
X77815238Y-90799523D01*
X77720000Y-90894761D01*
X77672380Y-91037619D01*
X77672380Y-91132857D01*
X77720000Y-91275714D01*
X77767619Y-91323333D01*
X78672380Y-92275714D02*
X78672380Y-91704285D01*
X78672380Y-91990000D02*
X77672380Y-91990000D01*
X77815238Y-91894761D01*
X77910476Y-91799523D01*
X77958095Y-91704285D01*
%TO.C,D1*%
X152188095Y-36952380D02*
X152188095Y-35952380D01*
X151950000Y-35952380D01*
X151807142Y-36000000D01*
X151711904Y-36095238D01*
X151664285Y-36190476D01*
X151616666Y-36380952D01*
X151616666Y-36523809D01*
X151664285Y-36714285D01*
X151711904Y-36809523D01*
X151807142Y-36904761D01*
X151950000Y-36952380D01*
X152188095Y-36952380D01*
X150664285Y-36952380D02*
X151235714Y-36952380D01*
X150950000Y-36952380D02*
X150950000Y-35952380D01*
X151045238Y-36095238D01*
X151140476Y-36190476D01*
X151235714Y-36238095D01*
%TO.C,D11*%
X202744285Y-36922380D02*
X202744285Y-35922380D01*
X202506190Y-35922380D01*
X202363333Y-35970000D01*
X202268095Y-36065238D01*
X202220476Y-36160476D01*
X202172857Y-36350952D01*
X202172857Y-36493809D01*
X202220476Y-36684285D01*
X202268095Y-36779523D01*
X202363333Y-36874761D01*
X202506190Y-36922380D01*
X202744285Y-36922380D01*
X201220476Y-36922380D02*
X201791904Y-36922380D01*
X201506190Y-36922380D02*
X201506190Y-35922380D01*
X201601428Y-36065238D01*
X201696666Y-36160476D01*
X201791904Y-36208095D01*
X200268095Y-36922380D02*
X200839523Y-36922380D01*
X200553809Y-36922380D02*
X200553809Y-35922380D01*
X200649047Y-36065238D01*
X200744285Y-36160476D01*
X200839523Y-36208095D01*
%TO.C,D9*%
X177248095Y-105922380D02*
X177248095Y-104922380D01*
X177010000Y-104922380D01*
X176867142Y-104970000D01*
X176771904Y-105065238D01*
X176724285Y-105160476D01*
X176676666Y-105350952D01*
X176676666Y-105493809D01*
X176724285Y-105684285D01*
X176771904Y-105779523D01*
X176867142Y-105874761D01*
X177010000Y-105922380D01*
X177248095Y-105922380D01*
X176200476Y-105922380D02*
X176010000Y-105922380D01*
X175914761Y-105874761D01*
X175867142Y-105827142D01*
X175771904Y-105684285D01*
X175724285Y-105493809D01*
X175724285Y-105112857D01*
X175771904Y-105017619D01*
X175819523Y-104970000D01*
X175914761Y-104922380D01*
X176105238Y-104922380D01*
X176200476Y-104970000D01*
X176248095Y-105017619D01*
X176295714Y-105112857D01*
X176295714Y-105350952D01*
X176248095Y-105446190D01*
X176200476Y-105493809D01*
X176105238Y-105541428D01*
X175914761Y-105541428D01*
X175819523Y-105493809D01*
X175771904Y-105446190D01*
X175724285Y-105350952D01*
%TO.C,D15*%
X196734285Y-138922380D02*
X196734285Y-137922380D01*
X196496190Y-137922380D01*
X196353333Y-137970000D01*
X196258095Y-138065238D01*
X196210476Y-138160476D01*
X196162857Y-138350952D01*
X196162857Y-138493809D01*
X196210476Y-138684285D01*
X196258095Y-138779523D01*
X196353333Y-138874761D01*
X196496190Y-138922380D01*
X196734285Y-138922380D01*
X195210476Y-138922380D02*
X195781904Y-138922380D01*
X195496190Y-138922380D02*
X195496190Y-137922380D01*
X195591428Y-138065238D01*
X195686666Y-138160476D01*
X195781904Y-138208095D01*
X194305714Y-137922380D02*
X194781904Y-137922380D01*
X194829523Y-138398571D01*
X194781904Y-138350952D01*
X194686666Y-138303333D01*
X194448571Y-138303333D01*
X194353333Y-138350952D01*
X194305714Y-138398571D01*
X194258095Y-138493809D01*
X194258095Y-138731904D01*
X194305714Y-138827142D01*
X194353333Y-138874761D01*
X194448571Y-138922380D01*
X194686666Y-138922380D01*
X194781904Y-138874761D01*
X194829523Y-138827142D01*
%TO.C,D13*%
X196734285Y-86912380D02*
X196734285Y-85912380D01*
X196496190Y-85912380D01*
X196353333Y-85960000D01*
X196258095Y-86055238D01*
X196210476Y-86150476D01*
X196162857Y-86340952D01*
X196162857Y-86483809D01*
X196210476Y-86674285D01*
X196258095Y-86769523D01*
X196353333Y-86864761D01*
X196496190Y-86912380D01*
X196734285Y-86912380D01*
X195210476Y-86912380D02*
X195781904Y-86912380D01*
X195496190Y-86912380D02*
X195496190Y-85912380D01*
X195591428Y-86055238D01*
X195686666Y-86150476D01*
X195781904Y-86198095D01*
X194877142Y-85912380D02*
X194258095Y-85912380D01*
X194591428Y-86293333D01*
X194448571Y-86293333D01*
X194353333Y-86340952D01*
X194305714Y-86388571D01*
X194258095Y-86483809D01*
X194258095Y-86721904D01*
X194305714Y-86817142D01*
X194353333Y-86864761D01*
X194448571Y-86912380D01*
X194734285Y-86912380D01*
X194829523Y-86864761D01*
X194877142Y-86817142D01*
%TO.C,D8*%
X177258095Y-86912380D02*
X177258095Y-85912380D01*
X177020000Y-85912380D01*
X176877142Y-85960000D01*
X176781904Y-86055238D01*
X176734285Y-86150476D01*
X176686666Y-86340952D01*
X176686666Y-86483809D01*
X176734285Y-86674285D01*
X176781904Y-86769523D01*
X176877142Y-86864761D01*
X177020000Y-86912380D01*
X177258095Y-86912380D01*
X176115238Y-86340952D02*
X176210476Y-86293333D01*
X176258095Y-86245714D01*
X176305714Y-86150476D01*
X176305714Y-86102857D01*
X176258095Y-86007619D01*
X176210476Y-85960000D01*
X176115238Y-85912380D01*
X175924761Y-85912380D01*
X175829523Y-85960000D01*
X175781904Y-86007619D01*
X175734285Y-86102857D01*
X175734285Y-86150476D01*
X175781904Y-86245714D01*
X175829523Y-86293333D01*
X175924761Y-86340952D01*
X176115238Y-86340952D01*
X176210476Y-86388571D01*
X176258095Y-86436190D01*
X176305714Y-86531428D01*
X176305714Y-86721904D01*
X176258095Y-86817142D01*
X176210476Y-86864761D01*
X176115238Y-86912380D01*
X175924761Y-86912380D01*
X175829523Y-86864761D01*
X175781904Y-86817142D01*
X175734285Y-86721904D01*
X175734285Y-86531428D01*
X175781904Y-86436190D01*
X175829523Y-86388571D01*
X175924761Y-86340952D01*
%TO.C,J6*%
X133822380Y-144299166D02*
X134536666Y-144299166D01*
X134679523Y-144251547D01*
X134774761Y-144156309D01*
X134822380Y-144013452D01*
X134822380Y-143918214D01*
X133822380Y-145203928D02*
X133822380Y-145013452D01*
X133870000Y-144918214D01*
X133917619Y-144870595D01*
X134060476Y-144775357D01*
X134250952Y-144727738D01*
X134631904Y-144727738D01*
X134727142Y-144775357D01*
X134774761Y-144822976D01*
X134822380Y-144918214D01*
X134822380Y-145108690D01*
X134774761Y-145203928D01*
X134727142Y-145251547D01*
X134631904Y-145299166D01*
X134393809Y-145299166D01*
X134298571Y-145251547D01*
X134250952Y-145203928D01*
X134203333Y-145108690D01*
X134203333Y-144918214D01*
X134250952Y-144822976D01*
X134298571Y-144775357D01*
X134393809Y-144727738D01*
%TO.C,D16*%
X227734285Y-36922380D02*
X227734285Y-35922380D01*
X227496190Y-35922380D01*
X227353333Y-35970000D01*
X227258095Y-36065238D01*
X227210476Y-36160476D01*
X227162857Y-36350952D01*
X227162857Y-36493809D01*
X227210476Y-36684285D01*
X227258095Y-36779523D01*
X227353333Y-36874761D01*
X227496190Y-36922380D01*
X227734285Y-36922380D01*
X226210476Y-36922380D02*
X226781904Y-36922380D01*
X226496190Y-36922380D02*
X226496190Y-35922380D01*
X226591428Y-36065238D01*
X226686666Y-36160476D01*
X226781904Y-36208095D01*
X225353333Y-35922380D02*
X225543809Y-35922380D01*
X225639047Y-35970000D01*
X225686666Y-36017619D01*
X225781904Y-36160476D01*
X225829523Y-36350952D01*
X225829523Y-36731904D01*
X225781904Y-36827142D01*
X225734285Y-36874761D01*
X225639047Y-36922380D01*
X225448571Y-36922380D01*
X225353333Y-36874761D01*
X225305714Y-36827142D01*
X225258095Y-36731904D01*
X225258095Y-36493809D01*
X225305714Y-36398571D01*
X225353333Y-36350952D01*
X225448571Y-36303333D01*
X225639047Y-36303333D01*
X225734285Y-36350952D01*
X225781904Y-36398571D01*
X225829523Y-36493809D01*
%TO.C,C11*%
X67527142Y-143447142D02*
X67574761Y-143399523D01*
X67622380Y-143256666D01*
X67622380Y-143161428D01*
X67574761Y-143018571D01*
X67479523Y-142923333D01*
X67384285Y-142875714D01*
X67193809Y-142828095D01*
X67050952Y-142828095D01*
X66860476Y-142875714D01*
X66765238Y-142923333D01*
X66670000Y-143018571D01*
X66622380Y-143161428D01*
X66622380Y-143256666D01*
X66670000Y-143399523D01*
X66717619Y-143447142D01*
X67622380Y-144399523D02*
X67622380Y-143828095D01*
X67622380Y-144113809D02*
X66622380Y-144113809D01*
X66765238Y-144018571D01*
X66860476Y-143923333D01*
X66908095Y-143828095D01*
X67622380Y-145351904D02*
X67622380Y-144780476D01*
X67622380Y-145066190D02*
X66622380Y-145066190D01*
X66765238Y-144970952D01*
X66860476Y-144875714D01*
X66908095Y-144780476D01*
%TO.C,D20*%
X215734285Y-138922380D02*
X215734285Y-137922380D01*
X215496190Y-137922380D01*
X215353333Y-137970000D01*
X215258095Y-138065238D01*
X215210476Y-138160476D01*
X215162857Y-138350952D01*
X215162857Y-138493809D01*
X215210476Y-138684285D01*
X215258095Y-138779523D01*
X215353333Y-138874761D01*
X215496190Y-138922380D01*
X215734285Y-138922380D01*
X214781904Y-138017619D02*
X214734285Y-137970000D01*
X214639047Y-137922380D01*
X214400952Y-137922380D01*
X214305714Y-137970000D01*
X214258095Y-138017619D01*
X214210476Y-138112857D01*
X214210476Y-138208095D01*
X214258095Y-138350952D01*
X214829523Y-138922380D01*
X214210476Y-138922380D01*
X213591428Y-137922380D02*
X213496190Y-137922380D01*
X213400952Y-137970000D01*
X213353333Y-138017619D01*
X213305714Y-138112857D01*
X213258095Y-138303333D01*
X213258095Y-138541428D01*
X213305714Y-138731904D01*
X213353333Y-138827142D01*
X213400952Y-138874761D01*
X213496190Y-138922380D01*
X213591428Y-138922380D01*
X213686666Y-138874761D01*
X213734285Y-138827142D01*
X213781904Y-138731904D01*
X213829523Y-138541428D01*
X213829523Y-138303333D01*
X213781904Y-138112857D01*
X213734285Y-138017619D01*
X213686666Y-137970000D01*
X213591428Y-137922380D01*
%TO.C,C40*%
X238327142Y-51507142D02*
X238374761Y-51459523D01*
X238422380Y-51316666D01*
X238422380Y-51221428D01*
X238374761Y-51078571D01*
X238279523Y-50983333D01*
X238184285Y-50935714D01*
X237993809Y-50888095D01*
X237850952Y-50888095D01*
X237660476Y-50935714D01*
X237565238Y-50983333D01*
X237470000Y-51078571D01*
X237422380Y-51221428D01*
X237422380Y-51316666D01*
X237470000Y-51459523D01*
X237517619Y-51507142D01*
X237755714Y-52364285D02*
X238422380Y-52364285D01*
X237374761Y-52126190D02*
X238089047Y-51888095D01*
X238089047Y-52507142D01*
X237422380Y-53078571D02*
X237422380Y-53173809D01*
X237470000Y-53269047D01*
X237517619Y-53316666D01*
X237612857Y-53364285D01*
X237803333Y-53411904D01*
X238041428Y-53411904D01*
X238231904Y-53364285D01*
X238327142Y-53316666D01*
X238374761Y-53269047D01*
X238422380Y-53173809D01*
X238422380Y-53078571D01*
X238374761Y-52983333D01*
X238327142Y-52935714D01*
X238231904Y-52888095D01*
X238041428Y-52840476D01*
X237803333Y-52840476D01*
X237612857Y-52888095D01*
X237517619Y-52935714D01*
X237470000Y-52983333D01*
X237422380Y-53078571D01*
%TO.C,D22*%
X252724285Y-61912380D02*
X252724285Y-60912380D01*
X252486190Y-60912380D01*
X252343333Y-60960000D01*
X252248095Y-61055238D01*
X252200476Y-61150476D01*
X252152857Y-61340952D01*
X252152857Y-61483809D01*
X252200476Y-61674285D01*
X252248095Y-61769523D01*
X252343333Y-61864761D01*
X252486190Y-61912380D01*
X252724285Y-61912380D01*
X251771904Y-61007619D02*
X251724285Y-60960000D01*
X251629047Y-60912380D01*
X251390952Y-60912380D01*
X251295714Y-60960000D01*
X251248095Y-61007619D01*
X251200476Y-61102857D01*
X251200476Y-61198095D01*
X251248095Y-61340952D01*
X251819523Y-61912380D01*
X251200476Y-61912380D01*
X250819523Y-61007619D02*
X250771904Y-60960000D01*
X250676666Y-60912380D01*
X250438571Y-60912380D01*
X250343333Y-60960000D01*
X250295714Y-61007619D01*
X250248095Y-61102857D01*
X250248095Y-61198095D01*
X250295714Y-61340952D01*
X250867142Y-61912380D01*
X250248095Y-61912380D01*
%TO.C,C32*%
X190542857Y-53237142D02*
X190590476Y-53284761D01*
X190733333Y-53332380D01*
X190828571Y-53332380D01*
X190971428Y-53284761D01*
X191066666Y-53189523D01*
X191114285Y-53094285D01*
X191161904Y-52903809D01*
X191161904Y-52760952D01*
X191114285Y-52570476D01*
X191066666Y-52475238D01*
X190971428Y-52380000D01*
X190828571Y-52332380D01*
X190733333Y-52332380D01*
X190590476Y-52380000D01*
X190542857Y-52427619D01*
X190209523Y-52332380D02*
X189590476Y-52332380D01*
X189923809Y-52713333D01*
X189780952Y-52713333D01*
X189685714Y-52760952D01*
X189638095Y-52808571D01*
X189590476Y-52903809D01*
X189590476Y-53141904D01*
X189638095Y-53237142D01*
X189685714Y-53284761D01*
X189780952Y-53332380D01*
X190066666Y-53332380D01*
X190161904Y-53284761D01*
X190209523Y-53237142D01*
X189209523Y-52427619D02*
X189161904Y-52380000D01*
X189066666Y-52332380D01*
X188828571Y-52332380D01*
X188733333Y-52380000D01*
X188685714Y-52427619D01*
X188638095Y-52522857D01*
X188638095Y-52618095D01*
X188685714Y-52760952D01*
X189257142Y-53332380D01*
X188638095Y-53332380D01*
%TO.C,C50*%
X198832857Y-115097142D02*
X198880476Y-115144761D01*
X199023333Y-115192380D01*
X199118571Y-115192380D01*
X199261428Y-115144761D01*
X199356666Y-115049523D01*
X199404285Y-114954285D01*
X199451904Y-114763809D01*
X199451904Y-114620952D01*
X199404285Y-114430476D01*
X199356666Y-114335238D01*
X199261428Y-114240000D01*
X199118571Y-114192380D01*
X199023333Y-114192380D01*
X198880476Y-114240000D01*
X198832857Y-114287619D01*
X197928095Y-114192380D02*
X198404285Y-114192380D01*
X198451904Y-114668571D01*
X198404285Y-114620952D01*
X198309047Y-114573333D01*
X198070952Y-114573333D01*
X197975714Y-114620952D01*
X197928095Y-114668571D01*
X197880476Y-114763809D01*
X197880476Y-115001904D01*
X197928095Y-115097142D01*
X197975714Y-115144761D01*
X198070952Y-115192380D01*
X198309047Y-115192380D01*
X198404285Y-115144761D01*
X198451904Y-115097142D01*
X197261428Y-114192380D02*
X197166190Y-114192380D01*
X197070952Y-114240000D01*
X197023333Y-114287619D01*
X196975714Y-114382857D01*
X196928095Y-114573333D01*
X196928095Y-114811428D01*
X196975714Y-115001904D01*
X197023333Y-115097142D01*
X197070952Y-115144761D01*
X197166190Y-115192380D01*
X197261428Y-115192380D01*
X197356666Y-115144761D01*
X197404285Y-115097142D01*
X197451904Y-115001904D01*
X197499523Y-114811428D01*
X197499523Y-114573333D01*
X197451904Y-114382857D01*
X197404285Y-114287619D01*
X197356666Y-114240000D01*
X197261428Y-114192380D01*
%TO.C,D25*%
X234734285Y-138922380D02*
X234734285Y-137922380D01*
X234496190Y-137922380D01*
X234353333Y-137970000D01*
X234258095Y-138065238D01*
X234210476Y-138160476D01*
X234162857Y-138350952D01*
X234162857Y-138493809D01*
X234210476Y-138684285D01*
X234258095Y-138779523D01*
X234353333Y-138874761D01*
X234496190Y-138922380D01*
X234734285Y-138922380D01*
X233781904Y-138017619D02*
X233734285Y-137970000D01*
X233639047Y-137922380D01*
X233400952Y-137922380D01*
X233305714Y-137970000D01*
X233258095Y-138017619D01*
X233210476Y-138112857D01*
X233210476Y-138208095D01*
X233258095Y-138350952D01*
X233829523Y-138922380D01*
X233210476Y-138922380D01*
X232305714Y-137922380D02*
X232781904Y-137922380D01*
X232829523Y-138398571D01*
X232781904Y-138350952D01*
X232686666Y-138303333D01*
X232448571Y-138303333D01*
X232353333Y-138350952D01*
X232305714Y-138398571D01*
X232258095Y-138493809D01*
X232258095Y-138731904D01*
X232305714Y-138827142D01*
X232353333Y-138874761D01*
X232448571Y-138922380D01*
X232686666Y-138922380D01*
X232781904Y-138874761D01*
X232829523Y-138827142D01*
%TO.C,C49*%
X229992857Y-71367142D02*
X230040476Y-71414761D01*
X230183333Y-71462380D01*
X230278571Y-71462380D01*
X230421428Y-71414761D01*
X230516666Y-71319523D01*
X230564285Y-71224285D01*
X230611904Y-71033809D01*
X230611904Y-70890952D01*
X230564285Y-70700476D01*
X230516666Y-70605238D01*
X230421428Y-70510000D01*
X230278571Y-70462380D01*
X230183333Y-70462380D01*
X230040476Y-70510000D01*
X229992857Y-70557619D01*
X229135714Y-70795714D02*
X229135714Y-71462380D01*
X229373809Y-70414761D02*
X229611904Y-71129047D01*
X228992857Y-71129047D01*
X228564285Y-71462380D02*
X228373809Y-71462380D01*
X228278571Y-71414761D01*
X228230952Y-71367142D01*
X228135714Y-71224285D01*
X228088095Y-71033809D01*
X228088095Y-70652857D01*
X228135714Y-70557619D01*
X228183333Y-70510000D01*
X228278571Y-70462380D01*
X228469047Y-70462380D01*
X228564285Y-70510000D01*
X228611904Y-70557619D01*
X228659523Y-70652857D01*
X228659523Y-70890952D01*
X228611904Y-70986190D01*
X228564285Y-71033809D01*
X228469047Y-71081428D01*
X228278571Y-71081428D01*
X228183333Y-71033809D01*
X228135714Y-70986190D01*
X228088095Y-70890952D01*
%TO.C,C36*%
X215567857Y-55332142D02*
X215615476Y-55379761D01*
X215758333Y-55427380D01*
X215853571Y-55427380D01*
X215996428Y-55379761D01*
X216091666Y-55284523D01*
X216139285Y-55189285D01*
X216186904Y-54998809D01*
X216186904Y-54855952D01*
X216139285Y-54665476D01*
X216091666Y-54570238D01*
X215996428Y-54475000D01*
X215853571Y-54427380D01*
X215758333Y-54427380D01*
X215615476Y-54475000D01*
X215567857Y-54522619D01*
X215234523Y-54427380D02*
X214615476Y-54427380D01*
X214948809Y-54808333D01*
X214805952Y-54808333D01*
X214710714Y-54855952D01*
X214663095Y-54903571D01*
X214615476Y-54998809D01*
X214615476Y-55236904D01*
X214663095Y-55332142D01*
X214710714Y-55379761D01*
X214805952Y-55427380D01*
X215091666Y-55427380D01*
X215186904Y-55379761D01*
X215234523Y-55332142D01*
X213758333Y-54427380D02*
X213948809Y-54427380D01*
X214044047Y-54475000D01*
X214091666Y-54522619D01*
X214186904Y-54665476D01*
X214234523Y-54855952D01*
X214234523Y-55236904D01*
X214186904Y-55332142D01*
X214139285Y-55379761D01*
X214044047Y-55427380D01*
X213853571Y-55427380D01*
X213758333Y-55379761D01*
X213710714Y-55332142D01*
X213663095Y-55236904D01*
X213663095Y-54998809D01*
X213710714Y-54903571D01*
X213758333Y-54855952D01*
X213853571Y-54808333D01*
X214044047Y-54808333D01*
X214139285Y-54855952D01*
X214186904Y-54903571D01*
X214234523Y-54998809D01*
%TO.C,R5*%
X101682380Y-135333333D02*
X101206190Y-135000000D01*
X101682380Y-134761904D02*
X100682380Y-134761904D01*
X100682380Y-135142857D01*
X100730000Y-135238095D01*
X100777619Y-135285714D01*
X100872857Y-135333333D01*
X101015714Y-135333333D01*
X101110952Y-135285714D01*
X101158571Y-135238095D01*
X101206190Y-135142857D01*
X101206190Y-134761904D01*
X100682380Y-136238095D02*
X100682380Y-135761904D01*
X101158571Y-135714285D01*
X101110952Y-135761904D01*
X101063333Y-135857142D01*
X101063333Y-136095238D01*
X101110952Y-136190476D01*
X101158571Y-136238095D01*
X101253809Y-136285714D01*
X101491904Y-136285714D01*
X101587142Y-136238095D01*
X101634761Y-136190476D01*
X101682380Y-136095238D01*
X101682380Y-135857142D01*
X101634761Y-135761904D01*
X101587142Y-135714285D01*
%TO.C,D4*%
X153258095Y-111922380D02*
X153258095Y-110922380D01*
X153020000Y-110922380D01*
X152877142Y-110970000D01*
X152781904Y-111065238D01*
X152734285Y-111160476D01*
X152686666Y-111350952D01*
X152686666Y-111493809D01*
X152734285Y-111684285D01*
X152781904Y-111779523D01*
X152877142Y-111874761D01*
X153020000Y-111922380D01*
X153258095Y-111922380D01*
X151829523Y-111255714D02*
X151829523Y-111922380D01*
X152067619Y-110874761D02*
X152305714Y-111589047D01*
X151686666Y-111589047D01*
%TO.C,D6*%
X177238095Y-36922380D02*
X177238095Y-35922380D01*
X177000000Y-35922380D01*
X176857142Y-35970000D01*
X176761904Y-36065238D01*
X176714285Y-36160476D01*
X176666666Y-36350952D01*
X176666666Y-36493809D01*
X176714285Y-36684285D01*
X176761904Y-36779523D01*
X176857142Y-36874761D01*
X177000000Y-36922380D01*
X177238095Y-36922380D01*
X175809523Y-35922380D02*
X176000000Y-35922380D01*
X176095238Y-35970000D01*
X176142857Y-36017619D01*
X176238095Y-36160476D01*
X176285714Y-36350952D01*
X176285714Y-36731904D01*
X176238095Y-36827142D01*
X176190476Y-36874761D01*
X176095238Y-36922380D01*
X175904761Y-36922380D01*
X175809523Y-36874761D01*
X175761904Y-36827142D01*
X175714285Y-36731904D01*
X175714285Y-36493809D01*
X175761904Y-36398571D01*
X175809523Y-36350952D01*
X175904761Y-36303333D01*
X176095238Y-36303333D01*
X176190476Y-36350952D01*
X176238095Y-36398571D01*
X176285714Y-36493809D01*
%TO.C,D2*%
X152258095Y-61912380D02*
X152258095Y-60912380D01*
X152020000Y-60912380D01*
X151877142Y-60960000D01*
X151781904Y-61055238D01*
X151734285Y-61150476D01*
X151686666Y-61340952D01*
X151686666Y-61483809D01*
X151734285Y-61674285D01*
X151781904Y-61769523D01*
X151877142Y-61864761D01*
X152020000Y-61912380D01*
X152258095Y-61912380D01*
X151305714Y-61007619D02*
X151258095Y-60960000D01*
X151162857Y-60912380D01*
X150924761Y-60912380D01*
X150829523Y-60960000D01*
X150781904Y-61007619D01*
X150734285Y-61102857D01*
X150734285Y-61198095D01*
X150781904Y-61340952D01*
X151353333Y-61912380D01*
X150734285Y-61912380D01*
%TO.C,D19*%
X215724285Y-105922380D02*
X215724285Y-104922380D01*
X215486190Y-104922380D01*
X215343333Y-104970000D01*
X215248095Y-105065238D01*
X215200476Y-105160476D01*
X215152857Y-105350952D01*
X215152857Y-105493809D01*
X215200476Y-105684285D01*
X215248095Y-105779523D01*
X215343333Y-105874761D01*
X215486190Y-105922380D01*
X215724285Y-105922380D01*
X214200476Y-105922380D02*
X214771904Y-105922380D01*
X214486190Y-105922380D02*
X214486190Y-104922380D01*
X214581428Y-105065238D01*
X214676666Y-105160476D01*
X214771904Y-105208095D01*
X213724285Y-105922380D02*
X213533809Y-105922380D01*
X213438571Y-105874761D01*
X213390952Y-105827142D01*
X213295714Y-105684285D01*
X213248095Y-105493809D01*
X213248095Y-105112857D01*
X213295714Y-105017619D01*
X213343333Y-104970000D01*
X213438571Y-104922380D01*
X213629047Y-104922380D01*
X213724285Y-104970000D01*
X213771904Y-105017619D01*
X213819523Y-105112857D01*
X213819523Y-105350952D01*
X213771904Y-105446190D01*
X213724285Y-105493809D01*
X213629047Y-105541428D01*
X213438571Y-105541428D01*
X213343333Y-105493809D01*
X213295714Y-105446190D01*
X213248095Y-105350952D01*
%TO.C,C6*%
X66497142Y-83253333D02*
X66544761Y-83205714D01*
X66592380Y-83062857D01*
X66592380Y-82967619D01*
X66544761Y-82824761D01*
X66449523Y-82729523D01*
X66354285Y-82681904D01*
X66163809Y-82634285D01*
X66020952Y-82634285D01*
X65830476Y-82681904D01*
X65735238Y-82729523D01*
X65640000Y-82824761D01*
X65592380Y-82967619D01*
X65592380Y-83062857D01*
X65640000Y-83205714D01*
X65687619Y-83253333D01*
X65592380Y-84110476D02*
X65592380Y-83920000D01*
X65640000Y-83824761D01*
X65687619Y-83777142D01*
X65830476Y-83681904D01*
X66020952Y-83634285D01*
X66401904Y-83634285D01*
X66497142Y-83681904D01*
X66544761Y-83729523D01*
X66592380Y-83824761D01*
X66592380Y-84015238D01*
X66544761Y-84110476D01*
X66497142Y-84158095D01*
X66401904Y-84205714D01*
X66163809Y-84205714D01*
X66068571Y-84158095D01*
X66020952Y-84110476D01*
X65973333Y-84015238D01*
X65973333Y-83824761D01*
X66020952Y-83729523D01*
X66068571Y-83681904D01*
X66163809Y-83634285D01*
%TO.C,C4*%
X64907142Y-114033333D02*
X64954761Y-113985714D01*
X65002380Y-113842857D01*
X65002380Y-113747619D01*
X64954761Y-113604761D01*
X64859523Y-113509523D01*
X64764285Y-113461904D01*
X64573809Y-113414285D01*
X64430952Y-113414285D01*
X64240476Y-113461904D01*
X64145238Y-113509523D01*
X64050000Y-113604761D01*
X64002380Y-113747619D01*
X64002380Y-113842857D01*
X64050000Y-113985714D01*
X64097619Y-114033333D01*
X64335714Y-114890476D02*
X65002380Y-114890476D01*
X63954761Y-114652380D02*
X64669047Y-114414285D01*
X64669047Y-115033333D01*
%TO.C,C5*%
X67367142Y-133523333D02*
X67414761Y-133475714D01*
X67462380Y-133332857D01*
X67462380Y-133237619D01*
X67414761Y-133094761D01*
X67319523Y-132999523D01*
X67224285Y-132951904D01*
X67033809Y-132904285D01*
X66890952Y-132904285D01*
X66700476Y-132951904D01*
X66605238Y-132999523D01*
X66510000Y-133094761D01*
X66462380Y-133237619D01*
X66462380Y-133332857D01*
X66510000Y-133475714D01*
X66557619Y-133523333D01*
X66462380Y-134428095D02*
X66462380Y-133951904D01*
X66938571Y-133904285D01*
X66890952Y-133951904D01*
X66843333Y-134047142D01*
X66843333Y-134285238D01*
X66890952Y-134380476D01*
X66938571Y-134428095D01*
X67033809Y-134475714D01*
X67271904Y-134475714D01*
X67367142Y-134428095D01*
X67414761Y-134380476D01*
X67462380Y-134285238D01*
X67462380Y-134047142D01*
X67414761Y-133951904D01*
X67367142Y-133904285D01*
%TO.C,R7*%
X106712380Y-135333333D02*
X106236190Y-135000000D01*
X106712380Y-134761904D02*
X105712380Y-134761904D01*
X105712380Y-135142857D01*
X105760000Y-135238095D01*
X105807619Y-135285714D01*
X105902857Y-135333333D01*
X106045714Y-135333333D01*
X106140952Y-135285714D01*
X106188571Y-135238095D01*
X106236190Y-135142857D01*
X106236190Y-134761904D01*
X105712380Y-135666666D02*
X105712380Y-136333333D01*
X106712380Y-135904761D01*
%TO.C,D7*%
X177248095Y-61912380D02*
X177248095Y-60912380D01*
X177010000Y-60912380D01*
X176867142Y-60960000D01*
X176771904Y-61055238D01*
X176724285Y-61150476D01*
X176676666Y-61340952D01*
X176676666Y-61483809D01*
X176724285Y-61674285D01*
X176771904Y-61769523D01*
X176867142Y-61864761D01*
X177010000Y-61912380D01*
X177248095Y-61912380D01*
X176343333Y-60912380D02*
X175676666Y-60912380D01*
X176105238Y-61912380D01*
%TO.C,D21*%
X252724285Y-36912380D02*
X252724285Y-35912380D01*
X252486190Y-35912380D01*
X252343333Y-35960000D01*
X252248095Y-36055238D01*
X252200476Y-36150476D01*
X252152857Y-36340952D01*
X252152857Y-36483809D01*
X252200476Y-36674285D01*
X252248095Y-36769523D01*
X252343333Y-36864761D01*
X252486190Y-36912380D01*
X252724285Y-36912380D01*
X251771904Y-36007619D02*
X251724285Y-35960000D01*
X251629047Y-35912380D01*
X251390952Y-35912380D01*
X251295714Y-35960000D01*
X251248095Y-36007619D01*
X251200476Y-36102857D01*
X251200476Y-36198095D01*
X251248095Y-36340952D01*
X251819523Y-36912380D01*
X251200476Y-36912380D01*
X250248095Y-36912380D02*
X250819523Y-36912380D01*
X250533809Y-36912380D02*
X250533809Y-35912380D01*
X250629047Y-36055238D01*
X250724285Y-36150476D01*
X250819523Y-36198095D01*
%TO.C,C9*%
X64717142Y-103833333D02*
X64764761Y-103785714D01*
X64812380Y-103642857D01*
X64812380Y-103547619D01*
X64764761Y-103404761D01*
X64669523Y-103309523D01*
X64574285Y-103261904D01*
X64383809Y-103214285D01*
X64240952Y-103214285D01*
X64050476Y-103261904D01*
X63955238Y-103309523D01*
X63860000Y-103404761D01*
X63812380Y-103547619D01*
X63812380Y-103642857D01*
X63860000Y-103785714D01*
X63907619Y-103833333D01*
X64812380Y-104309523D02*
X64812380Y-104500000D01*
X64764761Y-104595238D01*
X64717142Y-104642857D01*
X64574285Y-104738095D01*
X64383809Y-104785714D01*
X64002857Y-104785714D01*
X63907619Y-104738095D01*
X63860000Y-104690476D01*
X63812380Y-104595238D01*
X63812380Y-104404761D01*
X63860000Y-104309523D01*
X63907619Y-104261904D01*
X64002857Y-104214285D01*
X64240952Y-104214285D01*
X64336190Y-104261904D01*
X64383809Y-104309523D01*
X64431428Y-104404761D01*
X64431428Y-104595238D01*
X64383809Y-104690476D01*
X64336190Y-104738095D01*
X64240952Y-104785714D01*
%TO.C,C45*%
X205117857Y-67877142D02*
X205165476Y-67924761D01*
X205308333Y-67972380D01*
X205403571Y-67972380D01*
X205546428Y-67924761D01*
X205641666Y-67829523D01*
X205689285Y-67734285D01*
X205736904Y-67543809D01*
X205736904Y-67400952D01*
X205689285Y-67210476D01*
X205641666Y-67115238D01*
X205546428Y-67020000D01*
X205403571Y-66972380D01*
X205308333Y-66972380D01*
X205165476Y-67020000D01*
X205117857Y-67067619D01*
X204260714Y-67305714D02*
X204260714Y-67972380D01*
X204498809Y-66924761D02*
X204736904Y-67639047D01*
X204117857Y-67639047D01*
X203260714Y-66972380D02*
X203736904Y-66972380D01*
X203784523Y-67448571D01*
X203736904Y-67400952D01*
X203641666Y-67353333D01*
X203403571Y-67353333D01*
X203308333Y-67400952D01*
X203260714Y-67448571D01*
X203213095Y-67543809D01*
X203213095Y-67781904D01*
X203260714Y-67877142D01*
X203308333Y-67924761D01*
X203403571Y-67972380D01*
X203641666Y-67972380D01*
X203736904Y-67924761D01*
X203784523Y-67877142D01*
%TO.C,C48*%
X254942857Y-67952142D02*
X254990476Y-67999761D01*
X255133333Y-68047380D01*
X255228571Y-68047380D01*
X255371428Y-67999761D01*
X255466666Y-67904523D01*
X255514285Y-67809285D01*
X255561904Y-67618809D01*
X255561904Y-67475952D01*
X255514285Y-67285476D01*
X255466666Y-67190238D01*
X255371428Y-67095000D01*
X255228571Y-67047380D01*
X255133333Y-67047380D01*
X254990476Y-67095000D01*
X254942857Y-67142619D01*
X254085714Y-67380714D02*
X254085714Y-68047380D01*
X254323809Y-66999761D02*
X254561904Y-67714047D01*
X253942857Y-67714047D01*
X253419047Y-67475952D02*
X253514285Y-67428333D01*
X253561904Y-67380714D01*
X253609523Y-67285476D01*
X253609523Y-67237857D01*
X253561904Y-67142619D01*
X253514285Y-67095000D01*
X253419047Y-67047380D01*
X253228571Y-67047380D01*
X253133333Y-67095000D01*
X253085714Y-67142619D01*
X253038095Y-67237857D01*
X253038095Y-67285476D01*
X253085714Y-67380714D01*
X253133333Y-67428333D01*
X253228571Y-67475952D01*
X253419047Y-67475952D01*
X253514285Y-67523571D01*
X253561904Y-67571190D01*
X253609523Y-67666428D01*
X253609523Y-67856904D01*
X253561904Y-67952142D01*
X253514285Y-67999761D01*
X253419047Y-68047380D01*
X253228571Y-68047380D01*
X253133333Y-67999761D01*
X253085714Y-67952142D01*
X253038095Y-67856904D01*
X253038095Y-67666428D01*
X253085714Y-67571190D01*
X253133333Y-67523571D01*
X253228571Y-67475952D01*
%TO.C,C12*%
X64897142Y-108177142D02*
X64944761Y-108129523D01*
X64992380Y-107986666D01*
X64992380Y-107891428D01*
X64944761Y-107748571D01*
X64849523Y-107653333D01*
X64754285Y-107605714D01*
X64563809Y-107558095D01*
X64420952Y-107558095D01*
X64230476Y-107605714D01*
X64135238Y-107653333D01*
X64040000Y-107748571D01*
X63992380Y-107891428D01*
X63992380Y-107986666D01*
X64040000Y-108129523D01*
X64087619Y-108177142D01*
X64992380Y-109129523D02*
X64992380Y-108558095D01*
X64992380Y-108843809D02*
X63992380Y-108843809D01*
X64135238Y-108748571D01*
X64230476Y-108653333D01*
X64278095Y-108558095D01*
X64087619Y-109510476D02*
X64040000Y-109558095D01*
X63992380Y-109653333D01*
X63992380Y-109891428D01*
X64040000Y-109986666D01*
X64087619Y-110034285D01*
X64182857Y-110081904D01*
X64278095Y-110081904D01*
X64420952Y-110034285D01*
X64992380Y-109462857D01*
X64992380Y-110081904D01*
%TO.C,C13*%
X64707142Y-128447142D02*
X64754761Y-128399523D01*
X64802380Y-128256666D01*
X64802380Y-128161428D01*
X64754761Y-128018571D01*
X64659523Y-127923333D01*
X64564285Y-127875714D01*
X64373809Y-127828095D01*
X64230952Y-127828095D01*
X64040476Y-127875714D01*
X63945238Y-127923333D01*
X63850000Y-128018571D01*
X63802380Y-128161428D01*
X63802380Y-128256666D01*
X63850000Y-128399523D01*
X63897619Y-128447142D01*
X64802380Y-129399523D02*
X64802380Y-128828095D01*
X64802380Y-129113809D02*
X63802380Y-129113809D01*
X63945238Y-129018571D01*
X64040476Y-128923333D01*
X64088095Y-128828095D01*
X63802380Y-129732857D02*
X63802380Y-130351904D01*
X64183333Y-130018571D01*
X64183333Y-130161428D01*
X64230952Y-130256666D01*
X64278571Y-130304285D01*
X64373809Y-130351904D01*
X64611904Y-130351904D01*
X64707142Y-130304285D01*
X64754761Y-130256666D01*
X64802380Y-130161428D01*
X64802380Y-129875714D01*
X64754761Y-129780476D01*
X64707142Y-129732857D01*
%TO.C,C39*%
X154802857Y-70687142D02*
X154850476Y-70734761D01*
X154993333Y-70782380D01*
X155088571Y-70782380D01*
X155231428Y-70734761D01*
X155326666Y-70639523D01*
X155374285Y-70544285D01*
X155421904Y-70353809D01*
X155421904Y-70210952D01*
X155374285Y-70020476D01*
X155326666Y-69925238D01*
X155231428Y-69830000D01*
X155088571Y-69782380D01*
X154993333Y-69782380D01*
X154850476Y-69830000D01*
X154802857Y-69877619D01*
X154469523Y-69782380D02*
X153850476Y-69782380D01*
X154183809Y-70163333D01*
X154040952Y-70163333D01*
X153945714Y-70210952D01*
X153898095Y-70258571D01*
X153850476Y-70353809D01*
X153850476Y-70591904D01*
X153898095Y-70687142D01*
X153945714Y-70734761D01*
X154040952Y-70782380D01*
X154326666Y-70782380D01*
X154421904Y-70734761D01*
X154469523Y-70687142D01*
X153374285Y-70782380D02*
X153183809Y-70782380D01*
X153088571Y-70734761D01*
X153040952Y-70687142D01*
X152945714Y-70544285D01*
X152898095Y-70353809D01*
X152898095Y-69972857D01*
X152945714Y-69877619D01*
X152993333Y-69830000D01*
X153088571Y-69782380D01*
X153279047Y-69782380D01*
X153374285Y-69830000D01*
X153421904Y-69877619D01*
X153469523Y-69972857D01*
X153469523Y-70210952D01*
X153421904Y-70306190D01*
X153374285Y-70353809D01*
X153279047Y-70401428D01*
X153088571Y-70401428D01*
X152993333Y-70353809D01*
X152945714Y-70306190D01*
X152898095Y-70210952D01*
%TO.C,C26*%
X65757142Y-52257142D02*
X65804761Y-52209523D01*
X65852380Y-52066666D01*
X65852380Y-51971428D01*
X65804761Y-51828571D01*
X65709523Y-51733333D01*
X65614285Y-51685714D01*
X65423809Y-51638095D01*
X65280952Y-51638095D01*
X65090476Y-51685714D01*
X64995238Y-51733333D01*
X64900000Y-51828571D01*
X64852380Y-51971428D01*
X64852380Y-52066666D01*
X64900000Y-52209523D01*
X64947619Y-52257142D01*
X64947619Y-52638095D02*
X64900000Y-52685714D01*
X64852380Y-52780952D01*
X64852380Y-53019047D01*
X64900000Y-53114285D01*
X64947619Y-53161904D01*
X65042857Y-53209523D01*
X65138095Y-53209523D01*
X65280952Y-53161904D01*
X65852380Y-52590476D01*
X65852380Y-53209523D01*
X64852380Y-54066666D02*
X64852380Y-53876190D01*
X64900000Y-53780952D01*
X64947619Y-53733333D01*
X65090476Y-53638095D01*
X65280952Y-53590476D01*
X65661904Y-53590476D01*
X65757142Y-53638095D01*
X65804761Y-53685714D01*
X65852380Y-53780952D01*
X65852380Y-53971428D01*
X65804761Y-54066666D01*
X65757142Y-54114285D01*
X65661904Y-54161904D01*
X65423809Y-54161904D01*
X65328571Y-54114285D01*
X65280952Y-54066666D01*
X65233333Y-53971428D01*
X65233333Y-53780952D01*
X65280952Y-53685714D01*
X65328571Y-53638095D01*
X65423809Y-53590476D01*
%TO.C,C20*%
X66007142Y-57447142D02*
X66054761Y-57399523D01*
X66102380Y-57256666D01*
X66102380Y-57161428D01*
X66054761Y-57018571D01*
X65959523Y-56923333D01*
X65864285Y-56875714D01*
X65673809Y-56828095D01*
X65530952Y-56828095D01*
X65340476Y-56875714D01*
X65245238Y-56923333D01*
X65150000Y-57018571D01*
X65102380Y-57161428D01*
X65102380Y-57256666D01*
X65150000Y-57399523D01*
X65197619Y-57447142D01*
X65197619Y-57828095D02*
X65150000Y-57875714D01*
X65102380Y-57970952D01*
X65102380Y-58209047D01*
X65150000Y-58304285D01*
X65197619Y-58351904D01*
X65292857Y-58399523D01*
X65388095Y-58399523D01*
X65530952Y-58351904D01*
X66102380Y-57780476D01*
X66102380Y-58399523D01*
X65102380Y-59018571D02*
X65102380Y-59113809D01*
X65150000Y-59209047D01*
X65197619Y-59256666D01*
X65292857Y-59304285D01*
X65483333Y-59351904D01*
X65721428Y-59351904D01*
X65911904Y-59304285D01*
X66007142Y-59256666D01*
X66054761Y-59209047D01*
X66102380Y-59113809D01*
X66102380Y-59018571D01*
X66054761Y-58923333D01*
X66007142Y-58875714D01*
X65911904Y-58828095D01*
X65721428Y-58780476D01*
X65483333Y-58780476D01*
X65292857Y-58828095D01*
X65197619Y-58875714D01*
X65150000Y-58923333D01*
X65102380Y-59018571D01*
%TO.C,D23*%
X234734285Y-86922380D02*
X234734285Y-85922380D01*
X234496190Y-85922380D01*
X234353333Y-85970000D01*
X234258095Y-86065238D01*
X234210476Y-86160476D01*
X234162857Y-86350952D01*
X234162857Y-86493809D01*
X234210476Y-86684285D01*
X234258095Y-86779523D01*
X234353333Y-86874761D01*
X234496190Y-86922380D01*
X234734285Y-86922380D01*
X233781904Y-86017619D02*
X233734285Y-85970000D01*
X233639047Y-85922380D01*
X233400952Y-85922380D01*
X233305714Y-85970000D01*
X233258095Y-86017619D01*
X233210476Y-86112857D01*
X233210476Y-86208095D01*
X233258095Y-86350952D01*
X233829523Y-86922380D01*
X233210476Y-86922380D01*
X232877142Y-85922380D02*
X232258095Y-85922380D01*
X232591428Y-86303333D01*
X232448571Y-86303333D01*
X232353333Y-86350952D01*
X232305714Y-86398571D01*
X232258095Y-86493809D01*
X232258095Y-86731904D01*
X232305714Y-86827142D01*
X232353333Y-86874761D01*
X232448571Y-86922380D01*
X232734285Y-86922380D01*
X232829523Y-86874761D01*
X232877142Y-86827142D01*
%TO.C,D18*%
X215734285Y-86902380D02*
X215734285Y-85902380D01*
X215496190Y-85902380D01*
X215353333Y-85950000D01*
X215258095Y-86045238D01*
X215210476Y-86140476D01*
X215162857Y-86330952D01*
X215162857Y-86473809D01*
X215210476Y-86664285D01*
X215258095Y-86759523D01*
X215353333Y-86854761D01*
X215496190Y-86902380D01*
X215734285Y-86902380D01*
X214210476Y-86902380D02*
X214781904Y-86902380D01*
X214496190Y-86902380D02*
X214496190Y-85902380D01*
X214591428Y-86045238D01*
X214686666Y-86140476D01*
X214781904Y-86188095D01*
X213639047Y-86330952D02*
X213734285Y-86283333D01*
X213781904Y-86235714D01*
X213829523Y-86140476D01*
X213829523Y-86092857D01*
X213781904Y-85997619D01*
X213734285Y-85950000D01*
X213639047Y-85902380D01*
X213448571Y-85902380D01*
X213353333Y-85950000D01*
X213305714Y-85997619D01*
X213258095Y-86092857D01*
X213258095Y-86140476D01*
X213305714Y-86235714D01*
X213353333Y-86283333D01*
X213448571Y-86330952D01*
X213639047Y-86330952D01*
X213734285Y-86378571D01*
X213781904Y-86426190D01*
X213829523Y-86521428D01*
X213829523Y-86711904D01*
X213781904Y-86807142D01*
X213734285Y-86854761D01*
X213639047Y-86902380D01*
X213448571Y-86902380D01*
X213353333Y-86854761D01*
X213305714Y-86807142D01*
X213258095Y-86711904D01*
X213258095Y-86521428D01*
X213305714Y-86426190D01*
X213353333Y-86378571D01*
X213448571Y-86330952D01*
%TO.C,C47*%
X156062857Y-120977142D02*
X156110476Y-121024761D01*
X156253333Y-121072380D01*
X156348571Y-121072380D01*
X156491428Y-121024761D01*
X156586666Y-120929523D01*
X156634285Y-120834285D01*
X156681904Y-120643809D01*
X156681904Y-120500952D01*
X156634285Y-120310476D01*
X156586666Y-120215238D01*
X156491428Y-120120000D01*
X156348571Y-120072380D01*
X156253333Y-120072380D01*
X156110476Y-120120000D01*
X156062857Y-120167619D01*
X155205714Y-120405714D02*
X155205714Y-121072380D01*
X155443809Y-120024761D02*
X155681904Y-120739047D01*
X155062857Y-120739047D01*
X154777142Y-120072380D02*
X154110476Y-120072380D01*
X154539047Y-121072380D01*
%TO.C,R28*%
X96512380Y-134927142D02*
X96036190Y-134593809D01*
X96512380Y-134355714D02*
X95512380Y-134355714D01*
X95512380Y-134736666D01*
X95560000Y-134831904D01*
X95607619Y-134879523D01*
X95702857Y-134927142D01*
X95845714Y-134927142D01*
X95940952Y-134879523D01*
X95988571Y-134831904D01*
X96036190Y-134736666D01*
X96036190Y-134355714D01*
X95607619Y-135308095D02*
X95560000Y-135355714D01*
X95512380Y-135450952D01*
X95512380Y-135689047D01*
X95560000Y-135784285D01*
X95607619Y-135831904D01*
X95702857Y-135879523D01*
X95798095Y-135879523D01*
X95940952Y-135831904D01*
X96512380Y-135260476D01*
X96512380Y-135879523D01*
X95940952Y-136450952D02*
X95893333Y-136355714D01*
X95845714Y-136308095D01*
X95750476Y-136260476D01*
X95702857Y-136260476D01*
X95607619Y-136308095D01*
X95560000Y-136355714D01*
X95512380Y-136450952D01*
X95512380Y-136641428D01*
X95560000Y-136736666D01*
X95607619Y-136784285D01*
X95702857Y-136831904D01*
X95750476Y-136831904D01*
X95845714Y-136784285D01*
X95893333Y-136736666D01*
X95940952Y-136641428D01*
X95940952Y-136450952D01*
X95988571Y-136355714D01*
X96036190Y-136308095D01*
X96131428Y-136260476D01*
X96321904Y-136260476D01*
X96417142Y-136308095D01*
X96464761Y-136355714D01*
X96512380Y-136450952D01*
X96512380Y-136641428D01*
X96464761Y-136736666D01*
X96417142Y-136784285D01*
X96321904Y-136831904D01*
X96131428Y-136831904D01*
X96036190Y-136784285D01*
X95988571Y-136736666D01*
X95940952Y-136641428D01*
%TO.C,J4*%
X58270833Y-90852380D02*
X58270833Y-91566666D01*
X58318452Y-91709523D01*
X58413690Y-91804761D01*
X58556547Y-91852380D01*
X58651785Y-91852380D01*
X57366071Y-91185714D02*
X57366071Y-91852380D01*
X57604166Y-90804761D02*
X57842261Y-91519047D01*
X57223214Y-91519047D01*
%TO.C,C3*%
X66397142Y-78703333D02*
X66444761Y-78655714D01*
X66492380Y-78512857D01*
X66492380Y-78417619D01*
X66444761Y-78274761D01*
X66349523Y-78179523D01*
X66254285Y-78131904D01*
X66063809Y-78084285D01*
X65920952Y-78084285D01*
X65730476Y-78131904D01*
X65635238Y-78179523D01*
X65540000Y-78274761D01*
X65492380Y-78417619D01*
X65492380Y-78512857D01*
X65540000Y-78655714D01*
X65587619Y-78703333D01*
X65492380Y-79036666D02*
X65492380Y-79655714D01*
X65873333Y-79322380D01*
X65873333Y-79465238D01*
X65920952Y-79560476D01*
X65968571Y-79608095D01*
X66063809Y-79655714D01*
X66301904Y-79655714D01*
X66397142Y-79608095D01*
X66444761Y-79560476D01*
X66492380Y-79465238D01*
X66492380Y-79179523D01*
X66444761Y-79084285D01*
X66397142Y-79036666D01*
%TO.C,C28*%
X209492857Y-103212142D02*
X209540476Y-103259761D01*
X209683333Y-103307380D01*
X209778571Y-103307380D01*
X209921428Y-103259761D01*
X210016666Y-103164523D01*
X210064285Y-103069285D01*
X210111904Y-102878809D01*
X210111904Y-102735952D01*
X210064285Y-102545476D01*
X210016666Y-102450238D01*
X209921428Y-102355000D01*
X209778571Y-102307380D01*
X209683333Y-102307380D01*
X209540476Y-102355000D01*
X209492857Y-102402619D01*
X209111904Y-102402619D02*
X209064285Y-102355000D01*
X208969047Y-102307380D01*
X208730952Y-102307380D01*
X208635714Y-102355000D01*
X208588095Y-102402619D01*
X208540476Y-102497857D01*
X208540476Y-102593095D01*
X208588095Y-102735952D01*
X209159523Y-103307380D01*
X208540476Y-103307380D01*
X207969047Y-102735952D02*
X208064285Y-102688333D01*
X208111904Y-102640714D01*
X208159523Y-102545476D01*
X208159523Y-102497857D01*
X208111904Y-102402619D01*
X208064285Y-102355000D01*
X207969047Y-102307380D01*
X207778571Y-102307380D01*
X207683333Y-102355000D01*
X207635714Y-102402619D01*
X207588095Y-102497857D01*
X207588095Y-102545476D01*
X207635714Y-102640714D01*
X207683333Y-102688333D01*
X207778571Y-102735952D01*
X207969047Y-102735952D01*
X208064285Y-102783571D01*
X208111904Y-102831190D01*
X208159523Y-102926428D01*
X208159523Y-103116904D01*
X208111904Y-103212142D01*
X208064285Y-103259761D01*
X207969047Y-103307380D01*
X207778571Y-103307380D01*
X207683333Y-103259761D01*
X207635714Y-103212142D01*
X207588095Y-103116904D01*
X207588095Y-102926428D01*
X207635714Y-102831190D01*
X207683333Y-102783571D01*
X207778571Y-102735952D01*
%TO.C,C29*%
X171417857Y-155212142D02*
X171465476Y-155259761D01*
X171608333Y-155307380D01*
X171703571Y-155307380D01*
X171846428Y-155259761D01*
X171941666Y-155164523D01*
X171989285Y-155069285D01*
X172036904Y-154878809D01*
X172036904Y-154735952D01*
X171989285Y-154545476D01*
X171941666Y-154450238D01*
X171846428Y-154355000D01*
X171703571Y-154307380D01*
X171608333Y-154307380D01*
X171465476Y-154355000D01*
X171417857Y-154402619D01*
X171036904Y-154402619D02*
X170989285Y-154355000D01*
X170894047Y-154307380D01*
X170655952Y-154307380D01*
X170560714Y-154355000D01*
X170513095Y-154402619D01*
X170465476Y-154497857D01*
X170465476Y-154593095D01*
X170513095Y-154735952D01*
X171084523Y-155307380D01*
X170465476Y-155307380D01*
X169989285Y-155307380D02*
X169798809Y-155307380D01*
X169703571Y-155259761D01*
X169655952Y-155212142D01*
X169560714Y-155069285D01*
X169513095Y-154878809D01*
X169513095Y-154497857D01*
X169560714Y-154402619D01*
X169608333Y-154355000D01*
X169703571Y-154307380D01*
X169894047Y-154307380D01*
X169989285Y-154355000D01*
X170036904Y-154402619D01*
X170084523Y-154497857D01*
X170084523Y-154735952D01*
X170036904Y-154831190D01*
X169989285Y-154878809D01*
X169894047Y-154926428D01*
X169703571Y-154926428D01*
X169608333Y-154878809D01*
X169560714Y-154831190D01*
X169513095Y-154735952D01*
%TO.C,R6*%
X86422380Y-135333333D02*
X85946190Y-135000000D01*
X86422380Y-134761904D02*
X85422380Y-134761904D01*
X85422380Y-135142857D01*
X85470000Y-135238095D01*
X85517619Y-135285714D01*
X85612857Y-135333333D01*
X85755714Y-135333333D01*
X85850952Y-135285714D01*
X85898571Y-135238095D01*
X85946190Y-135142857D01*
X85946190Y-134761904D01*
X85422380Y-136190476D02*
X85422380Y-136000000D01*
X85470000Y-135904761D01*
X85517619Y-135857142D01*
X85660476Y-135761904D01*
X85850952Y-135714285D01*
X86231904Y-135714285D01*
X86327142Y-135761904D01*
X86374761Y-135809523D01*
X86422380Y-135904761D01*
X86422380Y-136095238D01*
X86374761Y-136190476D01*
X86327142Y-136238095D01*
X86231904Y-136285714D01*
X85993809Y-136285714D01*
X85898571Y-136238095D01*
X85850952Y-136190476D01*
X85803333Y-136095238D01*
X85803333Y-135904761D01*
X85850952Y-135809523D01*
X85898571Y-135761904D01*
X85993809Y-135714285D01*
%TO.C,R19*%
X73282380Y-88687142D02*
X72806190Y-88353809D01*
X73282380Y-88115714D02*
X72282380Y-88115714D01*
X72282380Y-88496666D01*
X72330000Y-88591904D01*
X72377619Y-88639523D01*
X72472857Y-88687142D01*
X72615714Y-88687142D01*
X72710952Y-88639523D01*
X72758571Y-88591904D01*
X72806190Y-88496666D01*
X72806190Y-88115714D01*
X73282380Y-89639523D02*
X73282380Y-89068095D01*
X73282380Y-89353809D02*
X72282380Y-89353809D01*
X72425238Y-89258571D01*
X72520476Y-89163333D01*
X72568095Y-89068095D01*
X73282380Y-90115714D02*
X73282380Y-90306190D01*
X73234761Y-90401428D01*
X73187142Y-90449047D01*
X73044285Y-90544285D01*
X72853809Y-90591904D01*
X72472857Y-90591904D01*
X72377619Y-90544285D01*
X72330000Y-90496666D01*
X72282380Y-90401428D01*
X72282380Y-90210952D01*
X72330000Y-90115714D01*
X72377619Y-90068095D01*
X72472857Y-90020476D01*
X72710952Y-90020476D01*
X72806190Y-90068095D01*
X72853809Y-90115714D01*
X72901428Y-90210952D01*
X72901428Y-90401428D01*
X72853809Y-90496666D01*
X72806190Y-90544285D01*
X72710952Y-90591904D01*
%TO.C,C35*%
X165417857Y-103212142D02*
X165465476Y-103259761D01*
X165608333Y-103307380D01*
X165703571Y-103307380D01*
X165846428Y-103259761D01*
X165941666Y-103164523D01*
X165989285Y-103069285D01*
X166036904Y-102878809D01*
X166036904Y-102735952D01*
X165989285Y-102545476D01*
X165941666Y-102450238D01*
X165846428Y-102355000D01*
X165703571Y-102307380D01*
X165608333Y-102307380D01*
X165465476Y-102355000D01*
X165417857Y-102402619D01*
X165084523Y-102307380D02*
X164465476Y-102307380D01*
X164798809Y-102688333D01*
X164655952Y-102688333D01*
X164560714Y-102735952D01*
X164513095Y-102783571D01*
X164465476Y-102878809D01*
X164465476Y-103116904D01*
X164513095Y-103212142D01*
X164560714Y-103259761D01*
X164655952Y-103307380D01*
X164941666Y-103307380D01*
X165036904Y-103259761D01*
X165084523Y-103212142D01*
X163560714Y-102307380D02*
X164036904Y-102307380D01*
X164084523Y-102783571D01*
X164036904Y-102735952D01*
X163941666Y-102688333D01*
X163703571Y-102688333D01*
X163608333Y-102735952D01*
X163560714Y-102783571D01*
X163513095Y-102878809D01*
X163513095Y-103116904D01*
X163560714Y-103212142D01*
X163608333Y-103259761D01*
X163703571Y-103307380D01*
X163941666Y-103307380D01*
X164036904Y-103259761D01*
X164084523Y-103212142D01*
%TO.C,J5*%
X58470833Y-156822380D02*
X58470833Y-157536666D01*
X58518452Y-157679523D01*
X58613690Y-157774761D01*
X58756547Y-157822380D01*
X58851785Y-157822380D01*
X57518452Y-156822380D02*
X57994642Y-156822380D01*
X58042261Y-157298571D01*
X57994642Y-157250952D01*
X57899404Y-157203333D01*
X57661309Y-157203333D01*
X57566071Y-157250952D01*
X57518452Y-157298571D01*
X57470833Y-157393809D01*
X57470833Y-157631904D01*
X57518452Y-157727142D01*
X57566071Y-157774761D01*
X57661309Y-157822380D01*
X57899404Y-157822380D01*
X57994642Y-157774761D01*
X58042261Y-157727142D01*
%TO.C,D24*%
X234734285Y-105912380D02*
X234734285Y-104912380D01*
X234496190Y-104912380D01*
X234353333Y-104960000D01*
X234258095Y-105055238D01*
X234210476Y-105150476D01*
X234162857Y-105340952D01*
X234162857Y-105483809D01*
X234210476Y-105674285D01*
X234258095Y-105769523D01*
X234353333Y-105864761D01*
X234496190Y-105912380D01*
X234734285Y-105912380D01*
X233781904Y-105007619D02*
X233734285Y-104960000D01*
X233639047Y-104912380D01*
X233400952Y-104912380D01*
X233305714Y-104960000D01*
X233258095Y-105007619D01*
X233210476Y-105102857D01*
X233210476Y-105198095D01*
X233258095Y-105340952D01*
X233829523Y-105912380D01*
X233210476Y-105912380D01*
X232353333Y-105245714D02*
X232353333Y-105912380D01*
X232591428Y-104864761D02*
X232829523Y-105579047D01*
X232210476Y-105579047D01*
%TO.C,C38*%
X228342857Y-156957142D02*
X228390476Y-157004761D01*
X228533333Y-157052380D01*
X228628571Y-157052380D01*
X228771428Y-157004761D01*
X228866666Y-156909523D01*
X228914285Y-156814285D01*
X228961904Y-156623809D01*
X228961904Y-156480952D01*
X228914285Y-156290476D01*
X228866666Y-156195238D01*
X228771428Y-156100000D01*
X228628571Y-156052380D01*
X228533333Y-156052380D01*
X228390476Y-156100000D01*
X228342857Y-156147619D01*
X228009523Y-156052380D02*
X227390476Y-156052380D01*
X227723809Y-156433333D01*
X227580952Y-156433333D01*
X227485714Y-156480952D01*
X227438095Y-156528571D01*
X227390476Y-156623809D01*
X227390476Y-156861904D01*
X227438095Y-156957142D01*
X227485714Y-157004761D01*
X227580952Y-157052380D01*
X227866666Y-157052380D01*
X227961904Y-157004761D01*
X228009523Y-156957142D01*
X226819047Y-156480952D02*
X226914285Y-156433333D01*
X226961904Y-156385714D01*
X227009523Y-156290476D01*
X227009523Y-156242857D01*
X226961904Y-156147619D01*
X226914285Y-156100000D01*
X226819047Y-156052380D01*
X226628571Y-156052380D01*
X226533333Y-156100000D01*
X226485714Y-156147619D01*
X226438095Y-156242857D01*
X226438095Y-156290476D01*
X226485714Y-156385714D01*
X226533333Y-156433333D01*
X226628571Y-156480952D01*
X226819047Y-156480952D01*
X226914285Y-156528571D01*
X226961904Y-156576190D01*
X227009523Y-156671428D01*
X227009523Y-156861904D01*
X226961904Y-156957142D01*
X226914285Y-157004761D01*
X226819047Y-157052380D01*
X226628571Y-157052380D01*
X226533333Y-157004761D01*
X226485714Y-156957142D01*
X226438095Y-156861904D01*
X226438095Y-156671428D01*
X226485714Y-156576190D01*
X226533333Y-156528571D01*
X226628571Y-156480952D01*
%TO.C,D10*%
X177734285Y-138912380D02*
X177734285Y-137912380D01*
X177496190Y-137912380D01*
X177353333Y-137960000D01*
X177258095Y-138055238D01*
X177210476Y-138150476D01*
X177162857Y-138340952D01*
X177162857Y-138483809D01*
X177210476Y-138674285D01*
X177258095Y-138769523D01*
X177353333Y-138864761D01*
X177496190Y-138912380D01*
X177734285Y-138912380D01*
X176210476Y-138912380D02*
X176781904Y-138912380D01*
X176496190Y-138912380D02*
X176496190Y-137912380D01*
X176591428Y-138055238D01*
X176686666Y-138150476D01*
X176781904Y-138198095D01*
X175591428Y-137912380D02*
X175496190Y-137912380D01*
X175400952Y-137960000D01*
X175353333Y-138007619D01*
X175305714Y-138102857D01*
X175258095Y-138293333D01*
X175258095Y-138531428D01*
X175305714Y-138721904D01*
X175353333Y-138817142D01*
X175400952Y-138864761D01*
X175496190Y-138912380D01*
X175591428Y-138912380D01*
X175686666Y-138864761D01*
X175734285Y-138817142D01*
X175781904Y-138721904D01*
X175829523Y-138531428D01*
X175829523Y-138293333D01*
X175781904Y-138102857D01*
X175734285Y-138007619D01*
X175686666Y-137960000D01*
X175591428Y-137912380D01*
%TO.C,C51*%
X179572857Y-114797142D02*
X179620476Y-114844761D01*
X179763333Y-114892380D01*
X179858571Y-114892380D01*
X180001428Y-114844761D01*
X180096666Y-114749523D01*
X180144285Y-114654285D01*
X180191904Y-114463809D01*
X180191904Y-114320952D01*
X180144285Y-114130476D01*
X180096666Y-114035238D01*
X180001428Y-113940000D01*
X179858571Y-113892380D01*
X179763333Y-113892380D01*
X179620476Y-113940000D01*
X179572857Y-113987619D01*
X178668095Y-113892380D02*
X179144285Y-113892380D01*
X179191904Y-114368571D01*
X179144285Y-114320952D01*
X179049047Y-114273333D01*
X178810952Y-114273333D01*
X178715714Y-114320952D01*
X178668095Y-114368571D01*
X178620476Y-114463809D01*
X178620476Y-114701904D01*
X178668095Y-114797142D01*
X178715714Y-114844761D01*
X178810952Y-114892380D01*
X179049047Y-114892380D01*
X179144285Y-114844761D01*
X179191904Y-114797142D01*
X177668095Y-114892380D02*
X178239523Y-114892380D01*
X177953809Y-114892380D02*
X177953809Y-113892380D01*
X178049047Y-114035238D01*
X178144285Y-114130476D01*
X178239523Y-114178095D01*
%TO.C,D14*%
X196734285Y-105922380D02*
X196734285Y-104922380D01*
X196496190Y-104922380D01*
X196353333Y-104970000D01*
X196258095Y-105065238D01*
X196210476Y-105160476D01*
X196162857Y-105350952D01*
X196162857Y-105493809D01*
X196210476Y-105684285D01*
X196258095Y-105779523D01*
X196353333Y-105874761D01*
X196496190Y-105922380D01*
X196734285Y-105922380D01*
X195210476Y-105922380D02*
X195781904Y-105922380D01*
X195496190Y-105922380D02*
X195496190Y-104922380D01*
X195591428Y-105065238D01*
X195686666Y-105160476D01*
X195781904Y-105208095D01*
X194353333Y-105255714D02*
X194353333Y-105922380D01*
X194591428Y-104874761D02*
X194829523Y-105589047D01*
X194210476Y-105589047D01*
%TO.C,C43*%
X180042857Y-71147142D02*
X180090476Y-71194761D01*
X180233333Y-71242380D01*
X180328571Y-71242380D01*
X180471428Y-71194761D01*
X180566666Y-71099523D01*
X180614285Y-71004285D01*
X180661904Y-70813809D01*
X180661904Y-70670952D01*
X180614285Y-70480476D01*
X180566666Y-70385238D01*
X180471428Y-70290000D01*
X180328571Y-70242380D01*
X180233333Y-70242380D01*
X180090476Y-70290000D01*
X180042857Y-70337619D01*
X179185714Y-70575714D02*
X179185714Y-71242380D01*
X179423809Y-70194761D02*
X179661904Y-70909047D01*
X179042857Y-70909047D01*
X178757142Y-70242380D02*
X178138095Y-70242380D01*
X178471428Y-70623333D01*
X178328571Y-70623333D01*
X178233333Y-70670952D01*
X178185714Y-70718571D01*
X178138095Y-70813809D01*
X178138095Y-71051904D01*
X178185714Y-71147142D01*
X178233333Y-71194761D01*
X178328571Y-71242380D01*
X178614285Y-71242380D01*
X178709523Y-71194761D01*
X178757142Y-71147142D01*
%TO.C,C22*%
X65977142Y-62357142D02*
X66024761Y-62309523D01*
X66072380Y-62166666D01*
X66072380Y-62071428D01*
X66024761Y-61928571D01*
X65929523Y-61833333D01*
X65834285Y-61785714D01*
X65643809Y-61738095D01*
X65500952Y-61738095D01*
X65310476Y-61785714D01*
X65215238Y-61833333D01*
X65120000Y-61928571D01*
X65072380Y-62071428D01*
X65072380Y-62166666D01*
X65120000Y-62309523D01*
X65167619Y-62357142D01*
X65167619Y-62738095D02*
X65120000Y-62785714D01*
X65072380Y-62880952D01*
X65072380Y-63119047D01*
X65120000Y-63214285D01*
X65167619Y-63261904D01*
X65262857Y-63309523D01*
X65358095Y-63309523D01*
X65500952Y-63261904D01*
X66072380Y-62690476D01*
X66072380Y-63309523D01*
X65167619Y-63690476D02*
X65120000Y-63738095D01*
X65072380Y-63833333D01*
X65072380Y-64071428D01*
X65120000Y-64166666D01*
X65167619Y-64214285D01*
X65262857Y-64261904D01*
X65358095Y-64261904D01*
X65500952Y-64214285D01*
X66072380Y-63642857D01*
X66072380Y-64261904D01*
%TO.C,D17*%
X227724285Y-61922380D02*
X227724285Y-60922380D01*
X227486190Y-60922380D01*
X227343333Y-60970000D01*
X227248095Y-61065238D01*
X227200476Y-61160476D01*
X227152857Y-61350952D01*
X227152857Y-61493809D01*
X227200476Y-61684285D01*
X227248095Y-61779523D01*
X227343333Y-61874761D01*
X227486190Y-61922380D01*
X227724285Y-61922380D01*
X226200476Y-61922380D02*
X226771904Y-61922380D01*
X226486190Y-61922380D02*
X226486190Y-60922380D01*
X226581428Y-61065238D01*
X226676666Y-61160476D01*
X226771904Y-61208095D01*
X225867142Y-60922380D02*
X225200476Y-60922380D01*
X225629047Y-61922380D01*
%TO.C,C8*%
X67427142Y-139543333D02*
X67474761Y-139495714D01*
X67522380Y-139352857D01*
X67522380Y-139257619D01*
X67474761Y-139114761D01*
X67379523Y-139019523D01*
X67284285Y-138971904D01*
X67093809Y-138924285D01*
X66950952Y-138924285D01*
X66760476Y-138971904D01*
X66665238Y-139019523D01*
X66570000Y-139114761D01*
X66522380Y-139257619D01*
X66522380Y-139352857D01*
X66570000Y-139495714D01*
X66617619Y-139543333D01*
X66950952Y-140114761D02*
X66903333Y-140019523D01*
X66855714Y-139971904D01*
X66760476Y-139924285D01*
X66712857Y-139924285D01*
X66617619Y-139971904D01*
X66570000Y-140019523D01*
X66522380Y-140114761D01*
X66522380Y-140305238D01*
X66570000Y-140400476D01*
X66617619Y-140448095D01*
X66712857Y-140495714D01*
X66760476Y-140495714D01*
X66855714Y-140448095D01*
X66903333Y-140400476D01*
X66950952Y-140305238D01*
X66950952Y-140114761D01*
X66998571Y-140019523D01*
X67046190Y-139971904D01*
X67141428Y-139924285D01*
X67331904Y-139924285D01*
X67427142Y-139971904D01*
X67474761Y-140019523D01*
X67522380Y-140114761D01*
X67522380Y-140305238D01*
X67474761Y-140400476D01*
X67427142Y-140448095D01*
X67331904Y-140495714D01*
X67141428Y-140495714D01*
X67046190Y-140448095D01*
X66998571Y-140400476D01*
X66950952Y-140305238D01*
%TO.C,C33*%
X228305357Y-103237142D02*
X228352976Y-103284761D01*
X228495833Y-103332380D01*
X228591071Y-103332380D01*
X228733928Y-103284761D01*
X228829166Y-103189523D01*
X228876785Y-103094285D01*
X228924404Y-102903809D01*
X228924404Y-102760952D01*
X228876785Y-102570476D01*
X228829166Y-102475238D01*
X228733928Y-102380000D01*
X228591071Y-102332380D01*
X228495833Y-102332380D01*
X228352976Y-102380000D01*
X228305357Y-102427619D01*
X227972023Y-102332380D02*
X227352976Y-102332380D01*
X227686309Y-102713333D01*
X227543452Y-102713333D01*
X227448214Y-102760952D01*
X227400595Y-102808571D01*
X227352976Y-102903809D01*
X227352976Y-103141904D01*
X227400595Y-103237142D01*
X227448214Y-103284761D01*
X227543452Y-103332380D01*
X227829166Y-103332380D01*
X227924404Y-103284761D01*
X227972023Y-103237142D01*
X227019642Y-102332380D02*
X226400595Y-102332380D01*
X226733928Y-102713333D01*
X226591071Y-102713333D01*
X226495833Y-102760952D01*
X226448214Y-102808571D01*
X226400595Y-102903809D01*
X226400595Y-103141904D01*
X226448214Y-103237142D01*
X226495833Y-103284761D01*
X226591071Y-103332380D01*
X226876785Y-103332380D01*
X226972023Y-103284761D01*
X227019642Y-103237142D01*
%TO.C,R4*%
X81302380Y-135333333D02*
X80826190Y-135000000D01*
X81302380Y-134761904D02*
X80302380Y-134761904D01*
X80302380Y-135142857D01*
X80350000Y-135238095D01*
X80397619Y-135285714D01*
X80492857Y-135333333D01*
X80635714Y-135333333D01*
X80730952Y-135285714D01*
X80778571Y-135238095D01*
X80826190Y-135142857D01*
X80826190Y-134761904D01*
X80635714Y-136190476D02*
X81302380Y-136190476D01*
X80254761Y-135952380D02*
X80969047Y-135714285D01*
X80969047Y-136333333D01*
%TO.C,C21*%
X65907142Y-42127142D02*
X65954761Y-42079523D01*
X66002380Y-41936666D01*
X66002380Y-41841428D01*
X65954761Y-41698571D01*
X65859523Y-41603333D01*
X65764285Y-41555714D01*
X65573809Y-41508095D01*
X65430952Y-41508095D01*
X65240476Y-41555714D01*
X65145238Y-41603333D01*
X65050000Y-41698571D01*
X65002380Y-41841428D01*
X65002380Y-41936666D01*
X65050000Y-42079523D01*
X65097619Y-42127142D01*
X65097619Y-42508095D02*
X65050000Y-42555714D01*
X65002380Y-42650952D01*
X65002380Y-42889047D01*
X65050000Y-42984285D01*
X65097619Y-43031904D01*
X65192857Y-43079523D01*
X65288095Y-43079523D01*
X65430952Y-43031904D01*
X66002380Y-42460476D01*
X66002380Y-43079523D01*
X66002380Y-44031904D02*
X66002380Y-43460476D01*
X66002380Y-43746190D02*
X65002380Y-43746190D01*
X65145238Y-43650952D01*
X65240476Y-43555714D01*
X65288095Y-43460476D01*
%TO.C,C41*%
X237032857Y-114887142D02*
X237080476Y-114934761D01*
X237223333Y-114982380D01*
X237318571Y-114982380D01*
X237461428Y-114934761D01*
X237556666Y-114839523D01*
X237604285Y-114744285D01*
X237651904Y-114553809D01*
X237651904Y-114410952D01*
X237604285Y-114220476D01*
X237556666Y-114125238D01*
X237461428Y-114030000D01*
X237318571Y-113982380D01*
X237223333Y-113982380D01*
X237080476Y-114030000D01*
X237032857Y-114077619D01*
X236175714Y-114315714D02*
X236175714Y-114982380D01*
X236413809Y-113934761D02*
X236651904Y-114649047D01*
X236032857Y-114649047D01*
X235128095Y-114982380D02*
X235699523Y-114982380D01*
X235413809Y-114982380D02*
X235413809Y-113982380D01*
X235509047Y-114125238D01*
X235604285Y-114220476D01*
X235699523Y-114268095D01*
%TO.C,C10*%
X64797142Y-123457142D02*
X64844761Y-123409523D01*
X64892380Y-123266666D01*
X64892380Y-123171428D01*
X64844761Y-123028571D01*
X64749523Y-122933333D01*
X64654285Y-122885714D01*
X64463809Y-122838095D01*
X64320952Y-122838095D01*
X64130476Y-122885714D01*
X64035238Y-122933333D01*
X63940000Y-123028571D01*
X63892380Y-123171428D01*
X63892380Y-123266666D01*
X63940000Y-123409523D01*
X63987619Y-123457142D01*
X64892380Y-124409523D02*
X64892380Y-123838095D01*
X64892380Y-124123809D02*
X63892380Y-124123809D01*
X64035238Y-124028571D01*
X64130476Y-123933333D01*
X64178095Y-123838095D01*
X63892380Y-125028571D02*
X63892380Y-125123809D01*
X63940000Y-125219047D01*
X63987619Y-125266666D01*
X64082857Y-125314285D01*
X64273333Y-125361904D01*
X64511428Y-125361904D01*
X64701904Y-125314285D01*
X64797142Y-125266666D01*
X64844761Y-125219047D01*
X64892380Y-125123809D01*
X64892380Y-125028571D01*
X64844761Y-124933333D01*
X64797142Y-124885714D01*
X64701904Y-124838095D01*
X64511428Y-124790476D01*
X64273333Y-124790476D01*
X64082857Y-124838095D01*
X63987619Y-124885714D01*
X63940000Y-124933333D01*
X63892380Y-125028571D01*
%TO.C,R27*%
X111702380Y-135067142D02*
X111226190Y-134733809D01*
X111702380Y-134495714D02*
X110702380Y-134495714D01*
X110702380Y-134876666D01*
X110750000Y-134971904D01*
X110797619Y-135019523D01*
X110892857Y-135067142D01*
X111035714Y-135067142D01*
X111130952Y-135019523D01*
X111178571Y-134971904D01*
X111226190Y-134876666D01*
X111226190Y-134495714D01*
X110797619Y-135448095D02*
X110750000Y-135495714D01*
X110702380Y-135590952D01*
X110702380Y-135829047D01*
X110750000Y-135924285D01*
X110797619Y-135971904D01*
X110892857Y-136019523D01*
X110988095Y-136019523D01*
X111130952Y-135971904D01*
X111702380Y-135400476D01*
X111702380Y-136019523D01*
X110702380Y-136352857D02*
X110702380Y-137019523D01*
X111702380Y-136590952D01*
D11*
%TO.C,C46*%
X217786252Y-113285000D02*
X217263748Y-113285000D01*
X217786252Y-111815000D02*
X217263748Y-111815000D01*
%TO.C,D3*%
X153260000Y-85460000D02*
X148960000Y-85460000D01*
X148960000Y-83460000D02*
X153260000Y-83460000D01*
X148960000Y-85460000D02*
X148960000Y-83460000D01*
%TO.C,C30*%
X190460000Y-153588748D02*
X190460000Y-154111252D01*
X188990000Y-153588748D02*
X188990000Y-154111252D01*
%TO.C,R8*%
X91955000Y-135272936D02*
X91955000Y-135727064D01*
X93425000Y-135272936D02*
X93425000Y-135727064D01*
%TO.C,R29*%
X118855000Y-135272936D02*
X118855000Y-135727064D01*
X117385000Y-135272936D02*
X117385000Y-135727064D01*
%TO.C,C23*%
X68045000Y-48891252D02*
X68045000Y-48368748D01*
X66575000Y-48891252D02*
X66575000Y-48368748D01*
%TO.C,C34*%
X208765000Y-153613748D02*
X208765000Y-154136252D01*
X210235000Y-153613748D02*
X210235000Y-154136252D01*
%TO.C,C44*%
X265710000Y-51838748D02*
X265710000Y-52361252D01*
X264240000Y-51838748D02*
X264240000Y-52361252D01*
%TO.C,C7*%
X65585000Y-120018752D02*
X65585000Y-119496248D01*
X67055000Y-120018752D02*
X67055000Y-119496248D01*
%TO.C,C24*%
X68195000Y-69241252D02*
X68195000Y-68718748D01*
X66725000Y-69241252D02*
X66725000Y-68718748D01*
%TO.C,C37*%
X246488748Y-100465000D02*
X247011252Y-100465000D01*
X246488748Y-101935000D02*
X247011252Y-101935000D01*
%TO.C,C27*%
X164638748Y-51935000D02*
X165161252Y-51935000D01*
X164638748Y-50465000D02*
X165161252Y-50465000D01*
%TO.C,D12*%
X198970000Y-60470000D02*
X198970000Y-58470000D01*
X198970000Y-58470000D02*
X203270000Y-58470000D01*
X203270000Y-60470000D02*
X198970000Y-60470000D01*
%TO.C,D5*%
X154970000Y-137470000D02*
X154970000Y-135470000D01*
X154970000Y-135470000D02*
X159270000Y-135470000D01*
X159270000Y-137470000D02*
X154970000Y-137470000D01*
%TO.C,C25*%
X68215000Y-74333752D02*
X68215000Y-73811248D01*
X66745000Y-74333752D02*
X66745000Y-73811248D01*
%TO.C,C42*%
X247435000Y-153601248D02*
X247435000Y-154123752D01*
X245965000Y-153601248D02*
X245965000Y-154123752D01*
%TO.C,C31*%
X189526248Y-101910000D02*
X190048752Y-101910000D01*
X189526248Y-100440000D02*
X190048752Y-100440000D01*
%TO.C,C19*%
X67985000Y-38741252D02*
X67985000Y-38218748D01*
X66515000Y-38741252D02*
X66515000Y-38218748D01*
%TO.C,C1*%
X79165000Y-91228748D02*
X79165000Y-91751252D01*
X80635000Y-91228748D02*
X80635000Y-91751252D01*
%TO.C,D1*%
X148900000Y-33500000D02*
X153200000Y-33500000D01*
X148900000Y-35500000D02*
X148900000Y-33500000D01*
X153200000Y-35500000D02*
X148900000Y-35500000D01*
%TO.C,D11*%
X198980000Y-35470000D02*
X198980000Y-33470000D01*
X198980000Y-33470000D02*
X203280000Y-33470000D01*
X203280000Y-35470000D02*
X198980000Y-35470000D01*
%TO.C,D9*%
X178260000Y-104470000D02*
X173960000Y-104470000D01*
X173960000Y-104470000D02*
X173960000Y-102470000D01*
X173960000Y-102470000D02*
X178260000Y-102470000D01*
%TO.C,D15*%
X197270000Y-137470000D02*
X192970000Y-137470000D01*
X192970000Y-137470000D02*
X192970000Y-135470000D01*
X192970000Y-135470000D02*
X197270000Y-135470000D01*
%TO.C,D13*%
X192970000Y-83460000D02*
X197270000Y-83460000D01*
X192970000Y-85460000D02*
X192970000Y-83460000D01*
X197270000Y-85460000D02*
X192970000Y-85460000D01*
%TO.C,D8*%
X173970000Y-83460000D02*
X178270000Y-83460000D01*
X173970000Y-85460000D02*
X173970000Y-83460000D01*
X178270000Y-85460000D02*
X173970000Y-85460000D01*
%TO.C,J6*%
X132180000Y-147882500D02*
X132180000Y-141382500D01*
X106190000Y-149192500D02*
X106190000Y-147882500D01*
X76100000Y-141382500D02*
X76100000Y-147882500D01*
X76100000Y-147882500D02*
X102090000Y-147882500D01*
X74800000Y-140072500D02*
X74800000Y-149192500D01*
X127770000Y-150582500D02*
X128270000Y-149582500D01*
X74800000Y-149192500D02*
X133480000Y-149192500D01*
X133480000Y-140072500D02*
X74800000Y-140072500D01*
X128270000Y-149582500D02*
X128770000Y-150582500D01*
X102090000Y-147882500D02*
X102090000Y-147882500D01*
X132180000Y-141382500D02*
X76100000Y-141382500D01*
X102090000Y-147882500D02*
X102090000Y-149192500D01*
X106190000Y-147882500D02*
X132180000Y-147882500D01*
X133480000Y-149192500D02*
X133480000Y-140072500D01*
X128770000Y-150582500D02*
X127770000Y-150582500D01*
%TO.C,D16*%
X223970000Y-35470000D02*
X223970000Y-33470000D01*
X223970000Y-33470000D02*
X228270000Y-33470000D01*
X228270000Y-35470000D02*
X223970000Y-35470000D01*
%TO.C,C11*%
X65875000Y-144386248D02*
X65875000Y-144908752D01*
X64405000Y-144386248D02*
X64405000Y-144908752D01*
%TO.C,D20*%
X216270000Y-137470000D02*
X211970000Y-137470000D01*
X211970000Y-135470000D02*
X216270000Y-135470000D01*
X211970000Y-137470000D02*
X211970000Y-135470000D01*
%TO.C,C40*%
X240385000Y-51888748D02*
X240385000Y-52411252D01*
X238915000Y-51888748D02*
X238915000Y-52411252D01*
%TO.C,D22*%
X248960000Y-60460000D02*
X248960000Y-58460000D01*
X253260000Y-60460000D02*
X248960000Y-60460000D01*
X248960000Y-58460000D02*
X253260000Y-58460000D01*
%TO.C,C32*%
X189638748Y-50465000D02*
X190161252Y-50465000D01*
X189638748Y-51935000D02*
X190161252Y-51935000D01*
%TO.C,C50*%
X198786252Y-113310000D02*
X198263748Y-113310000D01*
X198786252Y-111840000D02*
X198263748Y-111840000D01*
%TO.C,D25*%
X230970000Y-135470000D02*
X235270000Y-135470000D01*
X235270000Y-137470000D02*
X230970000Y-137470000D01*
X230970000Y-137470000D02*
X230970000Y-135470000D01*
%TO.C,C49*%
X229561252Y-68040000D02*
X229038748Y-68040000D01*
X229561252Y-69510000D02*
X229038748Y-69510000D01*
%TO.C,C36*%
X214015000Y-51913748D02*
X214015000Y-52436252D01*
X215485000Y-51913748D02*
X215485000Y-52436252D01*
%TO.C,R5*%
X102145000Y-135272936D02*
X102145000Y-135727064D01*
X103615000Y-135272936D02*
X103615000Y-135727064D01*
%TO.C,D4*%
X149970000Y-108470000D02*
X154270000Y-108470000D01*
X154270000Y-110470000D02*
X149970000Y-110470000D01*
X149970000Y-110470000D02*
X149970000Y-108470000D01*
%TO.C,D6*%
X178250000Y-35470000D02*
X173950000Y-35470000D01*
X173950000Y-33470000D02*
X178250000Y-33470000D01*
X173950000Y-35470000D02*
X173950000Y-33470000D01*
%TO.C,D2*%
X148970000Y-58460000D02*
X153270000Y-58460000D01*
X148970000Y-60460000D02*
X148970000Y-58460000D01*
X153270000Y-60460000D02*
X148970000Y-60460000D01*
%TO.C,D19*%
X211960000Y-104470000D02*
X211960000Y-102470000D01*
X211960000Y-102470000D02*
X216260000Y-102470000D01*
X216260000Y-104470000D02*
X211960000Y-104470000D01*
%TO.C,C6*%
X67085000Y-84481252D02*
X67085000Y-83958748D01*
X68555000Y-84481252D02*
X68555000Y-83958748D01*
%TO.C,C4*%
X65605000Y-114941252D02*
X65605000Y-114418748D01*
X67075000Y-114941252D02*
X67075000Y-114418748D01*
%TO.C,C5*%
X64085000Y-135241252D02*
X64085000Y-134718748D01*
X65555000Y-135241252D02*
X65555000Y-134718748D01*
%TO.C,R7*%
X107175000Y-135272936D02*
X107175000Y-135727064D01*
X108645000Y-135272936D02*
X108645000Y-135727064D01*
%TO.C,D7*%
X173960000Y-58460000D02*
X178260000Y-58460000D01*
X178260000Y-60460000D02*
X173960000Y-60460000D01*
X173960000Y-60460000D02*
X173960000Y-58460000D01*
%TO.C,D21*%
X253260000Y-35460000D02*
X248960000Y-35460000D01*
X248960000Y-33460000D02*
X253260000Y-33460000D01*
X248960000Y-35460000D02*
X248960000Y-33460000D01*
%TO.C,C9*%
X65605000Y-104723752D02*
X65605000Y-104201248D01*
X67075000Y-104723752D02*
X67075000Y-104201248D01*
%TO.C,C45*%
X204736252Y-68465000D02*
X204213748Y-68465000D01*
X204736252Y-69935000D02*
X204213748Y-69935000D01*
%TO.C,C48*%
X254561252Y-68540000D02*
X254038748Y-68540000D01*
X254561252Y-70010000D02*
X254038748Y-70010000D01*
%TO.C,C12*%
X67075000Y-109851252D02*
X67075000Y-109328748D01*
X65605000Y-109851252D02*
X65605000Y-109328748D01*
%TO.C,C13*%
X65535000Y-130181252D02*
X65535000Y-129658748D01*
X67005000Y-130181252D02*
X67005000Y-129658748D01*
%TO.C,C39*%
X154711252Y-67465000D02*
X154188748Y-67465000D01*
X154711252Y-68935000D02*
X154188748Y-68935000D01*
%TO.C,C26*%
X66615000Y-53991252D02*
X66615000Y-53468748D01*
X68085000Y-53991252D02*
X68085000Y-53468748D01*
%TO.C,C20*%
X66665000Y-59081252D02*
X66665000Y-58558748D01*
X68135000Y-59081252D02*
X68135000Y-58558748D01*
%TO.C,D23*%
X235270000Y-85470000D02*
X230970000Y-85470000D01*
X230970000Y-83470000D02*
X235270000Y-83470000D01*
X230970000Y-85470000D02*
X230970000Y-83470000D01*
%TO.C,D18*%
X211970000Y-85450000D02*
X211970000Y-83450000D01*
X216270000Y-85450000D02*
X211970000Y-85450000D01*
X211970000Y-83450000D02*
X216270000Y-83450000D01*
%TO.C,C47*%
X155686252Y-117815000D02*
X155163748Y-117815000D01*
X155686252Y-119285000D02*
X155163748Y-119285000D01*
%TO.C,R28*%
X98485000Y-135272936D02*
X98485000Y-135727064D01*
X97015000Y-135272936D02*
X97015000Y-135727064D01*
%TO.C,J4*%
X51987500Y-84800000D02*
X52987500Y-85300000D01*
X53377500Y-31830000D02*
X53377500Y-90510000D01*
X53377500Y-63220000D02*
X54687500Y-63220000D01*
X54687500Y-59120000D02*
X53377500Y-59120000D01*
X51987500Y-85800000D02*
X51987500Y-84800000D01*
X61187500Y-33130000D02*
X54687500Y-33130000D01*
X61187500Y-89210000D02*
X61187500Y-33130000D01*
X54687500Y-63220000D02*
X54687500Y-89210000D01*
X53377500Y-90510000D02*
X62497500Y-90510000D01*
X62497500Y-90510000D02*
X62497500Y-31830000D01*
X52987500Y-85300000D02*
X51987500Y-85800000D01*
X54687500Y-33130000D02*
X54687500Y-59120000D01*
X62497500Y-31830000D02*
X53377500Y-31830000D01*
X54687500Y-59120000D02*
X54687500Y-59120000D01*
X54687500Y-89210000D02*
X61187500Y-89210000D01*
%TO.C,C3*%
X67085000Y-79381252D02*
X67085000Y-78858748D01*
X68555000Y-79381252D02*
X68555000Y-78858748D01*
%TO.C,C28*%
X208588748Y-100440000D02*
X209111252Y-100440000D01*
X208588748Y-101910000D02*
X209111252Y-101910000D01*
%TO.C,C29*%
X170513748Y-152440000D02*
X171036252Y-152440000D01*
X170513748Y-153910000D02*
X171036252Y-153910000D01*
%TO.C,R6*%
X88355000Y-135272936D02*
X88355000Y-135727064D01*
X86885000Y-135272936D02*
X86885000Y-135727064D01*
%TO.C,R19*%
X73925000Y-89212936D02*
X73925000Y-89667064D01*
X75395000Y-89212936D02*
X75395000Y-89667064D01*
%TO.C,C35*%
X164513748Y-101910000D02*
X165036252Y-101910000D01*
X164513748Y-100440000D02*
X165036252Y-100440000D01*
%TO.C,J5*%
X54887500Y-129190000D02*
X54887500Y-155180000D01*
X54887500Y-125090000D02*
X54887500Y-125090000D01*
X61387500Y-155180000D02*
X61387500Y-99100000D01*
X53187500Y-151270000D02*
X52187500Y-151770000D01*
X53577500Y-156480000D02*
X62697500Y-156480000D01*
X62697500Y-97800000D02*
X53577500Y-97800000D01*
X52187500Y-150770000D02*
X53187500Y-151270000D01*
X53577500Y-97800000D02*
X53577500Y-156480000D01*
X54887500Y-99100000D02*
X54887500Y-125090000D01*
X54887500Y-125090000D02*
X53577500Y-125090000D01*
X62697500Y-156480000D02*
X62697500Y-97800000D01*
X53577500Y-129190000D02*
X54887500Y-129190000D01*
X54887500Y-155180000D02*
X61387500Y-155180000D01*
X61387500Y-99100000D02*
X54887500Y-99100000D01*
X52187500Y-151770000D02*
X52187500Y-150770000D01*
%TO.C,D24*%
X235270000Y-104460000D02*
X230970000Y-104460000D01*
X230970000Y-104460000D02*
X230970000Y-102460000D01*
X230970000Y-102460000D02*
X235270000Y-102460000D01*
%TO.C,C38*%
X228435000Y-153613748D02*
X228435000Y-154136252D01*
X226965000Y-153613748D02*
X226965000Y-154136252D01*
%TO.C,D10*%
X173970000Y-135460000D02*
X178270000Y-135460000D01*
X173970000Y-137460000D02*
X173970000Y-135460000D01*
X178270000Y-137460000D02*
X173970000Y-137460000D01*
%TO.C,C51*%
X179711252Y-113285000D02*
X179188748Y-113285000D01*
X179711252Y-111815000D02*
X179188748Y-111815000D01*
%TO.C,D14*%
X192970000Y-102470000D02*
X197270000Y-102470000D01*
X197270000Y-104470000D02*
X192970000Y-104470000D01*
X192970000Y-104470000D02*
X192970000Y-102470000D01*
%TO.C,C43*%
X179773752Y-67965000D02*
X179251248Y-67965000D01*
X179773752Y-69435000D02*
X179251248Y-69435000D01*
%TO.C,C22*%
X66685000Y-64121252D02*
X66685000Y-63598748D01*
X68155000Y-64121252D02*
X68155000Y-63598748D01*
%TO.C,D17*%
X223960000Y-60470000D02*
X223960000Y-58470000D01*
X228260000Y-60470000D02*
X223960000Y-60470000D01*
X223960000Y-58470000D02*
X228260000Y-58470000D01*
%TO.C,C8*%
X64455000Y-140171252D02*
X64455000Y-139648748D01*
X65925000Y-140171252D02*
X65925000Y-139648748D01*
%TO.C,C33*%
X227401248Y-100465000D02*
X227923752Y-100465000D01*
X227401248Y-101935000D02*
X227923752Y-101935000D01*
%TO.C,R4*%
X83235000Y-135272936D02*
X83235000Y-135727064D01*
X81765000Y-135272936D02*
X81765000Y-135727064D01*
%TO.C,C21*%
X66585000Y-43841252D02*
X66585000Y-43318748D01*
X68055000Y-43841252D02*
X68055000Y-43318748D01*
%TO.C,C41*%
X236711252Y-113310000D02*
X236188748Y-113310000D01*
X236711252Y-111840000D02*
X236188748Y-111840000D01*
%TO.C,C10*%
X67035000Y-125101252D02*
X67035000Y-124578748D01*
X65565000Y-125101252D02*
X65565000Y-124578748D01*
%TO.C,R27*%
X113735000Y-135272936D02*
X113735000Y-135727064D01*
X112265000Y-135272936D02*
X112265000Y-135727064D01*
%TD*%
M02*
