%TF.GenerationSoftware,KiCad,Pcbnew,(6.0.0)*%
%TF.CreationDate,2023-05-12T18:24:35+02:00*%
%TF.ProjectId,Pot.butt_pcb,506f742e-6275-4747-945f-7063622e6b69,rev?*%
%TF.SameCoordinates,Original*%
%TF.FileFunction,Legend,Top*%
%TF.FilePolarity,Positive*%
%FSLAX46Y46*%
G04 Gerber Fmt 4.6, Leading zero omitted, Abs format (unit mm)*
G04 Created by KiCad (PCBNEW (6.0.0)) date 2023-05-12 18:24:35*
%MOMM*%
%LPD*%
G01*
G04 APERTURE LIST*
%ADD10C,0.300000*%
%ADD11C,0.150000*%
%ADD12C,0.120000*%
%ADD13C,0.152400*%
G04 APERTURE END LIST*
D10*
X157641428Y-125748571D02*
X157927142Y-125748571D01*
X158070000Y-125820000D01*
X158212857Y-125962857D01*
X158284285Y-126248571D01*
X158284285Y-126748571D01*
X158212857Y-127034285D01*
X158070000Y-127177142D01*
X157927142Y-127248571D01*
X157641428Y-127248571D01*
X157498571Y-127177142D01*
X157355714Y-127034285D01*
X157284285Y-126748571D01*
X157284285Y-126248571D01*
X157355714Y-125962857D01*
X157498571Y-125820000D01*
X157641428Y-125748571D01*
X158712857Y-125748571D02*
X159570000Y-125748571D01*
X159141428Y-127248571D02*
X159141428Y-125748571D01*
X160070000Y-127248571D02*
X160070000Y-125748571D01*
X160070000Y-126462857D02*
X160927142Y-126462857D01*
X160927142Y-127248571D02*
X160927142Y-125748571D01*
X161641428Y-126462857D02*
X162141428Y-126462857D01*
X162355714Y-127248571D02*
X161641428Y-127248571D01*
X161641428Y-125748571D01*
X162355714Y-125748571D01*
X163855714Y-127248571D02*
X163355714Y-126534285D01*
X162998571Y-127248571D02*
X162998571Y-125748571D01*
X163570000Y-125748571D01*
X163712857Y-125820000D01*
X163784285Y-125891428D01*
X163855714Y-126034285D01*
X163855714Y-126248571D01*
X163784285Y-126391428D01*
X163712857Y-126462857D01*
X163570000Y-126534285D01*
X162998571Y-126534285D01*
X179570000Y-76248571D02*
X179855714Y-76248571D01*
X179998571Y-76320000D01*
X180141428Y-76462857D01*
X180212857Y-76748571D01*
X180212857Y-77248571D01*
X180141428Y-77534285D01*
X179998571Y-77677142D01*
X179855714Y-77748571D01*
X179570000Y-77748571D01*
X179427142Y-77677142D01*
X179284285Y-77534285D01*
X179212857Y-77248571D01*
X179212857Y-76748571D01*
X179284285Y-76462857D01*
X179427142Y-76320000D01*
X179570000Y-76248571D01*
X180784285Y-77677142D02*
X180998571Y-77748571D01*
X181355714Y-77748571D01*
X181498571Y-77677142D01*
X181570000Y-77605714D01*
X181641428Y-77462857D01*
X181641428Y-77320000D01*
X181570000Y-77177142D01*
X181498571Y-77105714D01*
X181355714Y-77034285D01*
X181070000Y-76962857D01*
X180927142Y-76891428D01*
X180855714Y-76820000D01*
X180784285Y-76677142D01*
X180784285Y-76534285D01*
X180855714Y-76391428D01*
X180927142Y-76320000D01*
X181070000Y-76248571D01*
X181427142Y-76248571D01*
X181641428Y-76320000D01*
X183141428Y-77605714D02*
X183070000Y-77677142D01*
X182855714Y-77748571D01*
X182712857Y-77748571D01*
X182498571Y-77677142D01*
X182355714Y-77534285D01*
X182284285Y-77391428D01*
X182212857Y-77105714D01*
X182212857Y-76891428D01*
X182284285Y-76605714D01*
X182355714Y-76462857D01*
X182498571Y-76320000D01*
X182712857Y-76248571D01*
X182855714Y-76248571D01*
X183070000Y-76320000D01*
X183141428Y-76391428D01*
X183712857Y-76391428D02*
X183784285Y-76320000D01*
X183927142Y-76248571D01*
X184284285Y-76248571D01*
X184427142Y-76320000D01*
X184498571Y-76391428D01*
X184570000Y-76534285D01*
X184570000Y-76677142D01*
X184498571Y-76891428D01*
X183641428Y-77748571D01*
X184570000Y-77748571D01*
X187212857Y-77748571D02*
X186712857Y-77034285D01*
X186355714Y-77748571D02*
X186355714Y-76248571D01*
X186927142Y-76248571D01*
X187070000Y-76320000D01*
X187141428Y-76391428D01*
X187212857Y-76534285D01*
X187212857Y-76748571D01*
X187141428Y-76891428D01*
X187070000Y-76962857D01*
X186927142Y-77034285D01*
X186355714Y-77034285D01*
X187784285Y-77320000D02*
X188498571Y-77320000D01*
X187641428Y-77748571D02*
X188141428Y-76248571D01*
X188641428Y-77748571D01*
X189141428Y-77748571D02*
X189141428Y-76248571D01*
X189998571Y-77748571D01*
X189998571Y-76248571D01*
X191498571Y-76320000D02*
X191355714Y-76248571D01*
X191141428Y-76248571D01*
X190927142Y-76320000D01*
X190784285Y-76462857D01*
X190712857Y-76605714D01*
X190641428Y-76891428D01*
X190641428Y-77105714D01*
X190712857Y-77391428D01*
X190784285Y-77534285D01*
X190927142Y-77677142D01*
X191141428Y-77748571D01*
X191284285Y-77748571D01*
X191498571Y-77677142D01*
X191570000Y-77605714D01*
X191570000Y-77105714D01*
X191284285Y-77105714D01*
X192212857Y-76962857D02*
X192712857Y-76962857D01*
X192927142Y-77748571D02*
X192212857Y-77748571D01*
X192212857Y-76248571D01*
X192927142Y-76248571D01*
X201248571Y-77320000D02*
X201962857Y-77320000D01*
X201105714Y-77748571D02*
X201605714Y-76248571D01*
X202105714Y-77748571D01*
X203462857Y-77748571D02*
X202962857Y-77034285D01*
X202605714Y-77748571D02*
X202605714Y-76248571D01*
X203177142Y-76248571D01*
X203320000Y-76320000D01*
X203391428Y-76391428D01*
X203462857Y-76534285D01*
X203462857Y-76748571D01*
X203391428Y-76891428D01*
X203320000Y-76962857D01*
X203177142Y-77034285D01*
X202605714Y-77034285D01*
X204105714Y-77748571D02*
X204105714Y-76248571D01*
X204677142Y-76248571D01*
X204820000Y-76320000D01*
X204891428Y-76391428D01*
X204962857Y-76534285D01*
X204962857Y-76748571D01*
X204891428Y-76891428D01*
X204820000Y-76962857D01*
X204677142Y-77034285D01*
X204105714Y-77034285D01*
X205605714Y-76962857D02*
X206105714Y-76962857D01*
X206320000Y-77748571D02*
X205605714Y-77748571D01*
X205605714Y-76248571D01*
X206320000Y-76248571D01*
X207748571Y-76320000D02*
X207605714Y-76248571D01*
X207391428Y-76248571D01*
X207177142Y-76320000D01*
X207034285Y-76462857D01*
X206962857Y-76605714D01*
X206891428Y-76891428D01*
X206891428Y-77105714D01*
X206962857Y-77391428D01*
X207034285Y-77534285D01*
X207177142Y-77677142D01*
X207391428Y-77748571D01*
X207534285Y-77748571D01*
X207748571Y-77677142D01*
X207820000Y-77605714D01*
X207820000Y-77105714D01*
X207534285Y-77105714D01*
X209248571Y-76320000D02*
X209105714Y-76248571D01*
X208891428Y-76248571D01*
X208677142Y-76320000D01*
X208534285Y-76462857D01*
X208462857Y-76605714D01*
X208391428Y-76891428D01*
X208391428Y-77105714D01*
X208462857Y-77391428D01*
X208534285Y-77534285D01*
X208677142Y-77677142D01*
X208891428Y-77748571D01*
X209034285Y-77748571D01*
X209248571Y-77677142D01*
X209320000Y-77605714D01*
X209320000Y-77105714D01*
X209034285Y-77105714D01*
X209962857Y-77748571D02*
X209962857Y-76248571D01*
X210962857Y-76248571D02*
X211248571Y-76248571D01*
X211391428Y-76320000D01*
X211534285Y-76462857D01*
X211605714Y-76748571D01*
X211605714Y-77248571D01*
X211534285Y-77534285D01*
X211391428Y-77677142D01*
X211248571Y-77748571D01*
X210962857Y-77748571D01*
X210820000Y-77677142D01*
X210677142Y-77534285D01*
X210605714Y-77248571D01*
X210605714Y-76748571D01*
X210677142Y-76462857D01*
X210820000Y-76320000D01*
X210962857Y-76248571D01*
X213391428Y-77748571D02*
X213391428Y-76248571D01*
X213891428Y-77320000D01*
X214391428Y-76248571D01*
X214391428Y-77748571D01*
X215391428Y-76248571D02*
X215677142Y-76248571D01*
X215820000Y-76320000D01*
X215962857Y-76462857D01*
X216034285Y-76748571D01*
X216034285Y-77248571D01*
X215962857Y-77534285D01*
X215820000Y-77677142D01*
X215677142Y-77748571D01*
X215391428Y-77748571D01*
X215248571Y-77677142D01*
X215105714Y-77534285D01*
X215034285Y-77248571D01*
X215034285Y-76748571D01*
X215105714Y-76462857D01*
X215248571Y-76320000D01*
X215391428Y-76248571D01*
X216677142Y-77748571D02*
X216677142Y-76248571D01*
X217034285Y-76248571D01*
X217248571Y-76320000D01*
X217391428Y-76462857D01*
X217462857Y-76605714D01*
X217534285Y-76891428D01*
X217534285Y-77105714D01*
X217462857Y-77391428D01*
X217391428Y-77534285D01*
X217248571Y-77677142D01*
X217034285Y-77748571D01*
X216677142Y-77748571D01*
X218177142Y-76962857D02*
X218677142Y-76962857D01*
X218891428Y-77748571D02*
X218177142Y-77748571D01*
X218177142Y-76248571D01*
X218891428Y-76248571D01*
X250212857Y-77320000D02*
X250927142Y-77320000D01*
X250070000Y-77748571D02*
X250570000Y-76248571D01*
X251070000Y-77748571D01*
X252427142Y-77748571D02*
X251927142Y-77034285D01*
X251570000Y-77748571D02*
X251570000Y-76248571D01*
X252141428Y-76248571D01*
X252284285Y-76320000D01*
X252355714Y-76391428D01*
X252427142Y-76534285D01*
X252427142Y-76748571D01*
X252355714Y-76891428D01*
X252284285Y-76962857D01*
X252141428Y-77034285D01*
X251570000Y-77034285D01*
X253070000Y-77748571D02*
X253070000Y-76248571D01*
X253641428Y-76248571D01*
X253784285Y-76320000D01*
X253855714Y-76391428D01*
X253927142Y-76534285D01*
X253927142Y-76748571D01*
X253855714Y-76891428D01*
X253784285Y-76962857D01*
X253641428Y-77034285D01*
X253070000Y-77034285D01*
X254570000Y-76962857D02*
X255070000Y-76962857D01*
X255284285Y-77748571D02*
X254570000Y-77748571D01*
X254570000Y-76248571D01*
X255284285Y-76248571D01*
X256712857Y-76320000D02*
X256570000Y-76248571D01*
X256355714Y-76248571D01*
X256141428Y-76320000D01*
X255998571Y-76462857D01*
X255927142Y-76605714D01*
X255855714Y-76891428D01*
X255855714Y-77105714D01*
X255927142Y-77391428D01*
X255998571Y-77534285D01*
X256141428Y-77677142D01*
X256355714Y-77748571D01*
X256498571Y-77748571D01*
X256712857Y-77677142D01*
X256784285Y-77605714D01*
X256784285Y-77105714D01*
X256498571Y-77105714D01*
X258212857Y-76320000D02*
X258070000Y-76248571D01*
X257855714Y-76248571D01*
X257641428Y-76320000D01*
X257498571Y-76462857D01*
X257427142Y-76605714D01*
X257355714Y-76891428D01*
X257355714Y-77105714D01*
X257427142Y-77391428D01*
X257498571Y-77534285D01*
X257641428Y-77677142D01*
X257855714Y-77748571D01*
X257998571Y-77748571D01*
X258212857Y-77677142D01*
X258284285Y-77605714D01*
X258284285Y-77105714D01*
X257998571Y-77105714D01*
X258927142Y-77748571D02*
X258927142Y-76248571D01*
X259927142Y-76248571D02*
X260212857Y-76248571D01*
X260355714Y-76320000D01*
X260498571Y-76462857D01*
X260570000Y-76748571D01*
X260570000Y-77248571D01*
X260498571Y-77534285D01*
X260355714Y-77677142D01*
X260212857Y-77748571D01*
X259927142Y-77748571D01*
X259784285Y-77677142D01*
X259641428Y-77534285D01*
X259570000Y-77248571D01*
X259570000Y-76748571D01*
X259641428Y-76462857D01*
X259784285Y-76320000D01*
X259927142Y-76248571D01*
X263212857Y-77748571D02*
X262712857Y-77034285D01*
X262355714Y-77748571D02*
X262355714Y-76248571D01*
X262927142Y-76248571D01*
X263070000Y-76320000D01*
X263141428Y-76391428D01*
X263212857Y-76534285D01*
X263212857Y-76748571D01*
X263141428Y-76891428D01*
X263070000Y-76962857D01*
X262927142Y-77034285D01*
X262355714Y-77034285D01*
X263784285Y-77320000D02*
X264498571Y-77320000D01*
X263641428Y-77748571D02*
X264141428Y-76248571D01*
X264641428Y-77748571D01*
X265141428Y-77748571D02*
X265141428Y-76248571D01*
X265998571Y-77748571D01*
X265998571Y-76248571D01*
X267498571Y-76320000D02*
X267355714Y-76248571D01*
X267141428Y-76248571D01*
X266927142Y-76320000D01*
X266784285Y-76462857D01*
X266712857Y-76605714D01*
X266641428Y-76891428D01*
X266641428Y-77105714D01*
X266712857Y-77391428D01*
X266784285Y-77534285D01*
X266927142Y-77677142D01*
X267141428Y-77748571D01*
X267284285Y-77748571D01*
X267498571Y-77677142D01*
X267570000Y-77605714D01*
X267570000Y-77105714D01*
X267284285Y-77105714D01*
X268212857Y-76962857D02*
X268712857Y-76962857D01*
X268927142Y-77748571D02*
X268212857Y-77748571D01*
X268212857Y-76248571D01*
X268927142Y-76248571D01*
X151320000Y-52248571D02*
X151605714Y-52248571D01*
X151748571Y-52320000D01*
X151891428Y-52462857D01*
X151962857Y-52748571D01*
X151962857Y-53248571D01*
X151891428Y-53534285D01*
X151748571Y-53677142D01*
X151605714Y-53748571D01*
X151320000Y-53748571D01*
X151177142Y-53677142D01*
X151034285Y-53534285D01*
X150962857Y-53248571D01*
X150962857Y-52748571D01*
X151034285Y-52462857D01*
X151177142Y-52320000D01*
X151320000Y-52248571D01*
X152534285Y-53677142D02*
X152748571Y-53748571D01*
X153105714Y-53748571D01*
X153248571Y-53677142D01*
X153320000Y-53605714D01*
X153391428Y-53462857D01*
X153391428Y-53320000D01*
X153320000Y-53177142D01*
X153248571Y-53105714D01*
X153105714Y-53034285D01*
X152820000Y-52962857D01*
X152677142Y-52891428D01*
X152605714Y-52820000D01*
X152534285Y-52677142D01*
X152534285Y-52534285D01*
X152605714Y-52391428D01*
X152677142Y-52320000D01*
X152820000Y-52248571D01*
X153177142Y-52248571D01*
X153391428Y-52320000D01*
X154891428Y-53605714D02*
X154820000Y-53677142D01*
X154605714Y-53748571D01*
X154462857Y-53748571D01*
X154248571Y-53677142D01*
X154105714Y-53534285D01*
X154034285Y-53391428D01*
X153962857Y-53105714D01*
X153962857Y-52891428D01*
X154034285Y-52605714D01*
X154105714Y-52462857D01*
X154248571Y-52320000D01*
X154462857Y-52248571D01*
X154605714Y-52248571D01*
X154820000Y-52320000D01*
X154891428Y-52391428D01*
X156320000Y-53748571D02*
X155462857Y-53748571D01*
X155891428Y-53748571D02*
X155891428Y-52248571D01*
X155748571Y-52462857D01*
X155605714Y-52605714D01*
X155462857Y-52677142D01*
X157962857Y-52248571D02*
X158320000Y-53748571D01*
X158605714Y-52677142D01*
X158891428Y-53748571D01*
X159248571Y-52248571D01*
X159748571Y-53320000D02*
X160462857Y-53320000D01*
X159605714Y-53748571D02*
X160105714Y-52248571D01*
X160605714Y-53748571D01*
X160891428Y-52248571D02*
X161391428Y-53748571D01*
X161891428Y-52248571D01*
X162391428Y-52962857D02*
X162891428Y-52962857D01*
X163105714Y-53748571D02*
X162391428Y-53748571D01*
X162391428Y-52248571D01*
X163105714Y-52248571D01*
X164248571Y-52962857D02*
X163748571Y-52962857D01*
X163748571Y-53748571D02*
X163748571Y-52248571D01*
X164462857Y-52248571D01*
X165320000Y-52248571D02*
X165605714Y-52248571D01*
X165748571Y-52320000D01*
X165891428Y-52462857D01*
X165962857Y-52748571D01*
X165962857Y-53248571D01*
X165891428Y-53534285D01*
X165748571Y-53677142D01*
X165605714Y-53748571D01*
X165320000Y-53748571D01*
X165177142Y-53677142D01*
X165034285Y-53534285D01*
X164962857Y-53248571D01*
X164962857Y-52748571D01*
X165034285Y-52462857D01*
X165177142Y-52320000D01*
X165320000Y-52248571D01*
X167462857Y-53748571D02*
X166962857Y-53034285D01*
X166605714Y-53748571D02*
X166605714Y-52248571D01*
X167177142Y-52248571D01*
X167320000Y-52320000D01*
X167391428Y-52391428D01*
X167462857Y-52534285D01*
X167462857Y-52748571D01*
X167391428Y-52891428D01*
X167320000Y-52962857D01*
X167177142Y-53034285D01*
X166605714Y-53034285D01*
X168105714Y-53748571D02*
X168105714Y-52248571D01*
X168605714Y-53320000D01*
X169105714Y-52248571D01*
X169105714Y-53748571D01*
X230105714Y-53248571D02*
X230105714Y-51748571D01*
X230962857Y-53248571D01*
X230962857Y-51748571D01*
X231962857Y-51748571D02*
X232248571Y-51748571D01*
X232391428Y-51820000D01*
X232534285Y-51962857D01*
X232605714Y-52248571D01*
X232605714Y-52748571D01*
X232534285Y-53034285D01*
X232391428Y-53177142D01*
X232248571Y-53248571D01*
X231962857Y-53248571D01*
X231820000Y-53177142D01*
X231677142Y-53034285D01*
X231605714Y-52748571D01*
X231605714Y-52248571D01*
X231677142Y-51962857D01*
X231820000Y-51820000D01*
X231962857Y-51748571D01*
X233248571Y-53248571D02*
X233248571Y-51748571D01*
X233891428Y-53177142D02*
X234105714Y-53248571D01*
X234462857Y-53248571D01*
X234605714Y-53177142D01*
X234677142Y-53105714D01*
X234748571Y-52962857D01*
X234748571Y-52820000D01*
X234677142Y-52677142D01*
X234605714Y-52605714D01*
X234462857Y-52534285D01*
X234177142Y-52462857D01*
X234034285Y-52391428D01*
X233962857Y-52320000D01*
X233891428Y-52177142D01*
X233891428Y-52034285D01*
X233962857Y-51891428D01*
X234034285Y-51820000D01*
X234177142Y-51748571D01*
X234534285Y-51748571D01*
X234748571Y-51820000D01*
X235391428Y-52462857D02*
X235891428Y-52462857D01*
X236105714Y-53248571D02*
X235391428Y-53248571D01*
X235391428Y-51748571D01*
X236105714Y-51748571D01*
X154748571Y-103177142D02*
X154962857Y-103248571D01*
X155320000Y-103248571D01*
X155462857Y-103177142D01*
X155534285Y-103105714D01*
X155605714Y-102962857D01*
X155605714Y-102820000D01*
X155534285Y-102677142D01*
X155462857Y-102605714D01*
X155320000Y-102534285D01*
X155034285Y-102462857D01*
X154891428Y-102391428D01*
X154820000Y-102320000D01*
X154748571Y-102177142D01*
X154748571Y-102034285D01*
X154820000Y-101891428D01*
X154891428Y-101820000D01*
X155034285Y-101748571D01*
X155391428Y-101748571D01*
X155605714Y-101820000D01*
X156177142Y-102820000D02*
X156891428Y-102820000D01*
X156034285Y-103248571D02*
X156534285Y-101748571D01*
X157034285Y-103248571D01*
X157320000Y-101748571D02*
X157820000Y-103248571D01*
X158320000Y-101748571D01*
X158820000Y-102462857D02*
X159320000Y-102462857D01*
X159534285Y-103248571D02*
X158820000Y-103248571D01*
X158820000Y-101748571D01*
X159534285Y-101748571D01*
X161248571Y-101677142D02*
X159962857Y-103605714D01*
X161748571Y-103248571D02*
X161748571Y-101748571D01*
X162320000Y-101748571D01*
X162462857Y-101820000D01*
X162534285Y-101891428D01*
X162605714Y-102034285D01*
X162605714Y-102248571D01*
X162534285Y-102391428D01*
X162462857Y-102462857D01*
X162320000Y-102534285D01*
X161748571Y-102534285D01*
X163962857Y-103248571D02*
X163248571Y-103248571D01*
X163248571Y-101748571D01*
X164391428Y-102820000D02*
X165105714Y-102820000D01*
X164248571Y-103248571D02*
X164748571Y-101748571D01*
X165248571Y-103248571D01*
X166034285Y-102534285D02*
X166034285Y-103248571D01*
X165534285Y-101748571D02*
X166034285Y-102534285D01*
X166534285Y-101748571D01*
X203641428Y-155748571D02*
X203927142Y-155748571D01*
X204070000Y-155820000D01*
X204212857Y-155962857D01*
X204284285Y-156248571D01*
X204284285Y-156748571D01*
X204212857Y-157034285D01*
X204070000Y-157177142D01*
X203927142Y-157248571D01*
X203641428Y-157248571D01*
X203498571Y-157177142D01*
X203355714Y-157034285D01*
X203284285Y-156748571D01*
X203284285Y-156248571D01*
X203355714Y-155962857D01*
X203498571Y-155820000D01*
X203641428Y-155748571D01*
X204712857Y-155748571D02*
X205570000Y-155748571D01*
X205141428Y-157248571D02*
X205141428Y-155748571D01*
X206070000Y-157248571D02*
X206070000Y-155748571D01*
X206070000Y-156462857D02*
X206927142Y-156462857D01*
X206927142Y-157248571D02*
X206927142Y-155748571D01*
X207641428Y-156462857D02*
X208141428Y-156462857D01*
X208355714Y-157248571D02*
X207641428Y-157248571D01*
X207641428Y-155748571D01*
X208355714Y-155748571D01*
X209855714Y-157248571D02*
X209355714Y-156534285D01*
X208998571Y-157248571D02*
X208998571Y-155748571D01*
X209570000Y-155748571D01*
X209712857Y-155820000D01*
X209784285Y-155891428D01*
X209855714Y-156034285D01*
X209855714Y-156248571D01*
X209784285Y-156391428D01*
X209712857Y-156462857D01*
X209570000Y-156534285D01*
X208998571Y-156534285D01*
X177980000Y-52288571D02*
X178265714Y-52288571D01*
X178408571Y-52360000D01*
X178551428Y-52502857D01*
X178622857Y-52788571D01*
X178622857Y-53288571D01*
X178551428Y-53574285D01*
X178408571Y-53717142D01*
X178265714Y-53788571D01*
X177980000Y-53788571D01*
X177837142Y-53717142D01*
X177694285Y-53574285D01*
X177622857Y-53288571D01*
X177622857Y-52788571D01*
X177694285Y-52502857D01*
X177837142Y-52360000D01*
X177980000Y-52288571D01*
X179194285Y-53717142D02*
X179408571Y-53788571D01*
X179765714Y-53788571D01*
X179908571Y-53717142D01*
X179980000Y-53645714D01*
X180051428Y-53502857D01*
X180051428Y-53360000D01*
X179980000Y-53217142D01*
X179908571Y-53145714D01*
X179765714Y-53074285D01*
X179480000Y-53002857D01*
X179337142Y-52931428D01*
X179265714Y-52860000D01*
X179194285Y-52717142D01*
X179194285Y-52574285D01*
X179265714Y-52431428D01*
X179337142Y-52360000D01*
X179480000Y-52288571D01*
X179837142Y-52288571D01*
X180051428Y-52360000D01*
X181551428Y-53645714D02*
X181480000Y-53717142D01*
X181265714Y-53788571D01*
X181122857Y-53788571D01*
X180908571Y-53717142D01*
X180765714Y-53574285D01*
X180694285Y-53431428D01*
X180622857Y-53145714D01*
X180622857Y-52931428D01*
X180694285Y-52645714D01*
X180765714Y-52502857D01*
X180908571Y-52360000D01*
X181122857Y-52288571D01*
X181265714Y-52288571D01*
X181480000Y-52360000D01*
X181551428Y-52431428D01*
X182980000Y-53788571D02*
X182122857Y-53788571D01*
X182551428Y-53788571D02*
X182551428Y-52288571D01*
X182408571Y-52502857D01*
X182265714Y-52645714D01*
X182122857Y-52717142D01*
X185622857Y-53788571D02*
X185122857Y-53074285D01*
X184765714Y-53788571D02*
X184765714Y-52288571D01*
X185337142Y-52288571D01*
X185480000Y-52360000D01*
X185551428Y-52431428D01*
X185622857Y-52574285D01*
X185622857Y-52788571D01*
X185551428Y-52931428D01*
X185480000Y-53002857D01*
X185337142Y-53074285D01*
X184765714Y-53074285D01*
X186194285Y-53360000D02*
X186908571Y-53360000D01*
X186051428Y-53788571D02*
X186551428Y-52288571D01*
X187051428Y-53788571D01*
X187551428Y-53788571D02*
X187551428Y-52288571D01*
X188408571Y-53788571D01*
X188408571Y-52288571D01*
X189908571Y-52360000D02*
X189765714Y-52288571D01*
X189551428Y-52288571D01*
X189337142Y-52360000D01*
X189194285Y-52502857D01*
X189122857Y-52645714D01*
X189051428Y-52931428D01*
X189051428Y-53145714D01*
X189122857Y-53431428D01*
X189194285Y-53574285D01*
X189337142Y-53717142D01*
X189551428Y-53788571D01*
X189694285Y-53788571D01*
X189908571Y-53717142D01*
X189980000Y-53645714D01*
X189980000Y-53145714D01*
X189694285Y-53145714D01*
X190622857Y-53002857D02*
X191122857Y-53002857D01*
X191337142Y-53788571D02*
X190622857Y-53788571D01*
X190622857Y-52288571D01*
X191337142Y-52288571D01*
X150820000Y-76248571D02*
X151105714Y-76248571D01*
X151248571Y-76320000D01*
X151391428Y-76462857D01*
X151462857Y-76748571D01*
X151462857Y-77248571D01*
X151391428Y-77534285D01*
X151248571Y-77677142D01*
X151105714Y-77748571D01*
X150820000Y-77748571D01*
X150677142Y-77677142D01*
X150534285Y-77534285D01*
X150462857Y-77248571D01*
X150462857Y-76748571D01*
X150534285Y-76462857D01*
X150677142Y-76320000D01*
X150820000Y-76248571D01*
X152034285Y-77677142D02*
X152248571Y-77748571D01*
X152605714Y-77748571D01*
X152748571Y-77677142D01*
X152820000Y-77605714D01*
X152891428Y-77462857D01*
X152891428Y-77320000D01*
X152820000Y-77177142D01*
X152748571Y-77105714D01*
X152605714Y-77034285D01*
X152320000Y-76962857D01*
X152177142Y-76891428D01*
X152105714Y-76820000D01*
X152034285Y-76677142D01*
X152034285Y-76534285D01*
X152105714Y-76391428D01*
X152177142Y-76320000D01*
X152320000Y-76248571D01*
X152677142Y-76248571D01*
X152891428Y-76320000D01*
X154391428Y-77605714D02*
X154320000Y-77677142D01*
X154105714Y-77748571D01*
X153962857Y-77748571D01*
X153748571Y-77677142D01*
X153605714Y-77534285D01*
X153534285Y-77391428D01*
X153462857Y-77105714D01*
X153462857Y-76891428D01*
X153534285Y-76605714D01*
X153605714Y-76462857D01*
X153748571Y-76320000D01*
X153962857Y-76248571D01*
X154105714Y-76248571D01*
X154320000Y-76320000D01*
X154391428Y-76391428D01*
X154962857Y-76391428D02*
X155034285Y-76320000D01*
X155177142Y-76248571D01*
X155534285Y-76248571D01*
X155677142Y-76320000D01*
X155748571Y-76391428D01*
X155820000Y-76534285D01*
X155820000Y-76677142D01*
X155748571Y-76891428D01*
X154891428Y-77748571D01*
X155820000Y-77748571D01*
X157462857Y-76248571D02*
X157820000Y-77748571D01*
X158105714Y-76677142D01*
X158391428Y-77748571D01*
X158748571Y-76248571D01*
X159248571Y-77320000D02*
X159962857Y-77320000D01*
X159105714Y-77748571D02*
X159605714Y-76248571D01*
X160105714Y-77748571D01*
X160391428Y-76248571D02*
X160891428Y-77748571D01*
X161391428Y-76248571D01*
X161891428Y-76962857D02*
X162391428Y-76962857D01*
X162605714Y-77748571D02*
X161891428Y-77748571D01*
X161891428Y-76248571D01*
X162605714Y-76248571D01*
X163748571Y-76962857D02*
X163248571Y-76962857D01*
X163248571Y-77748571D02*
X163248571Y-76248571D01*
X163962857Y-76248571D01*
X164820000Y-76248571D02*
X165105714Y-76248571D01*
X165248571Y-76320000D01*
X165391428Y-76462857D01*
X165462857Y-76748571D01*
X165462857Y-77248571D01*
X165391428Y-77534285D01*
X165248571Y-77677142D01*
X165105714Y-77748571D01*
X164820000Y-77748571D01*
X164677142Y-77677142D01*
X164534285Y-77534285D01*
X164462857Y-77248571D01*
X164462857Y-76748571D01*
X164534285Y-76462857D01*
X164677142Y-76320000D01*
X164820000Y-76248571D01*
X166962857Y-77748571D02*
X166462857Y-77034285D01*
X166105714Y-77748571D02*
X166105714Y-76248571D01*
X166677142Y-76248571D01*
X166820000Y-76320000D01*
X166891428Y-76391428D01*
X166962857Y-76534285D01*
X166962857Y-76748571D01*
X166891428Y-76891428D01*
X166820000Y-76962857D01*
X166677142Y-77034285D01*
X166105714Y-77034285D01*
X167605714Y-77748571D02*
X167605714Y-76248571D01*
X168105714Y-77320000D01*
X168605714Y-76248571D01*
X168605714Y-77748571D01*
X226177142Y-77320000D02*
X226891428Y-77320000D01*
X226034285Y-77748571D02*
X226534285Y-76248571D01*
X227034285Y-77748571D01*
X228391428Y-77748571D02*
X227891428Y-77034285D01*
X227534285Y-77748571D02*
X227534285Y-76248571D01*
X228105714Y-76248571D01*
X228248571Y-76320000D01*
X228320000Y-76391428D01*
X228391428Y-76534285D01*
X228391428Y-76748571D01*
X228320000Y-76891428D01*
X228248571Y-76962857D01*
X228105714Y-77034285D01*
X227534285Y-77034285D01*
X229034285Y-77748571D02*
X229034285Y-76248571D01*
X229605714Y-76248571D01*
X229748571Y-76320000D01*
X229820000Y-76391428D01*
X229891428Y-76534285D01*
X229891428Y-76748571D01*
X229820000Y-76891428D01*
X229748571Y-76962857D01*
X229605714Y-77034285D01*
X229034285Y-77034285D01*
X230534285Y-76962857D02*
X231034285Y-76962857D01*
X231248571Y-77748571D02*
X230534285Y-77748571D01*
X230534285Y-76248571D01*
X231248571Y-76248571D01*
X232677142Y-76320000D02*
X232534285Y-76248571D01*
X232320000Y-76248571D01*
X232105714Y-76320000D01*
X231962857Y-76462857D01*
X231891428Y-76605714D01*
X231820000Y-76891428D01*
X231820000Y-77105714D01*
X231891428Y-77391428D01*
X231962857Y-77534285D01*
X232105714Y-77677142D01*
X232320000Y-77748571D01*
X232462857Y-77748571D01*
X232677142Y-77677142D01*
X232748571Y-77605714D01*
X232748571Y-77105714D01*
X232462857Y-77105714D01*
X234177142Y-76320000D02*
X234034285Y-76248571D01*
X233820000Y-76248571D01*
X233605714Y-76320000D01*
X233462857Y-76462857D01*
X233391428Y-76605714D01*
X233320000Y-76891428D01*
X233320000Y-77105714D01*
X233391428Y-77391428D01*
X233462857Y-77534285D01*
X233605714Y-77677142D01*
X233820000Y-77748571D01*
X233962857Y-77748571D01*
X234177142Y-77677142D01*
X234248571Y-77605714D01*
X234248571Y-77105714D01*
X233962857Y-77105714D01*
X234891428Y-77748571D02*
X234891428Y-76248571D01*
X235891428Y-76248571D02*
X236177142Y-76248571D01*
X236320000Y-76320000D01*
X236462857Y-76462857D01*
X236534285Y-76748571D01*
X236534285Y-77248571D01*
X236462857Y-77534285D01*
X236320000Y-77677142D01*
X236177142Y-77748571D01*
X235891428Y-77748571D01*
X235748571Y-77677142D01*
X235605714Y-77534285D01*
X235534285Y-77248571D01*
X235534285Y-76748571D01*
X235605714Y-76462857D01*
X235748571Y-76320000D01*
X235891428Y-76248571D01*
X239177142Y-77748571D02*
X238677142Y-77034285D01*
X238320000Y-77748571D02*
X238320000Y-76248571D01*
X238891428Y-76248571D01*
X239034285Y-76320000D01*
X239105714Y-76391428D01*
X239177142Y-76534285D01*
X239177142Y-76748571D01*
X239105714Y-76891428D01*
X239034285Y-76962857D01*
X238891428Y-77034285D01*
X238320000Y-77034285D01*
X239748571Y-77320000D02*
X240462857Y-77320000D01*
X239605714Y-77748571D02*
X240105714Y-76248571D01*
X240605714Y-77748571D01*
X240891428Y-76248571D02*
X241748571Y-76248571D01*
X241320000Y-77748571D02*
X241320000Y-76248571D01*
X242248571Y-76962857D02*
X242748571Y-76962857D01*
X242962857Y-77748571D02*
X242248571Y-77748571D01*
X242248571Y-76248571D01*
X242962857Y-76248571D01*
X256034285Y-53248571D02*
X256034285Y-51748571D01*
X256534285Y-52820000D01*
X257034285Y-51748571D01*
X257034285Y-53248571D01*
X257748571Y-51748571D02*
X257748571Y-52962857D01*
X257820000Y-53105714D01*
X257891428Y-53177142D01*
X258034285Y-53248571D01*
X258320000Y-53248571D01*
X258462857Y-53177142D01*
X258534285Y-53105714D01*
X258605714Y-52962857D01*
X258605714Y-51748571D01*
X259105714Y-51748571D02*
X259962857Y-51748571D01*
X259534285Y-53248571D02*
X259534285Y-51748571D01*
X260462857Y-52462857D02*
X260962857Y-52462857D01*
X261177142Y-53248571D02*
X260462857Y-53248571D01*
X260462857Y-51748571D01*
X261177142Y-51748571D01*
X118635769Y-42440995D02*
X119778626Y-42440995D01*
X119207198Y-43012424D02*
X119207198Y-41869567D01*
X121207198Y-41512424D02*
X120492912Y-41512424D01*
X120421483Y-42226710D01*
X120492912Y-42155281D01*
X120635769Y-42083853D01*
X120992912Y-42083853D01*
X121135769Y-42155281D01*
X121207198Y-42226710D01*
X121278626Y-42369567D01*
X121278626Y-42726710D01*
X121207198Y-42869567D01*
X121135769Y-42940995D01*
X120992912Y-43012424D01*
X120635769Y-43012424D01*
X120492912Y-42940995D01*
X120421483Y-42869567D01*
X121707198Y-41512424D02*
X122207198Y-43012424D01*
X122707198Y-41512424D01*
X202677142Y-53248571D02*
X201962857Y-53248571D01*
X201962857Y-51748571D01*
X203677142Y-52462857D02*
X203177142Y-52462857D01*
X203177142Y-53248571D02*
X203177142Y-51748571D01*
X203891428Y-51748571D01*
X204748571Y-51748571D02*
X205034285Y-51748571D01*
X205177142Y-51820000D01*
X205320000Y-51962857D01*
X205391428Y-52248571D01*
X205391428Y-52748571D01*
X205320000Y-53034285D01*
X205177142Y-53177142D01*
X205034285Y-53248571D01*
X204748571Y-53248571D01*
X204605714Y-53177142D01*
X204462857Y-53034285D01*
X204391428Y-52748571D01*
X204391428Y-52248571D01*
X204462857Y-51962857D01*
X204605714Y-51820000D01*
X204748571Y-51748571D01*
X207034285Y-51748571D02*
X207391428Y-53248571D01*
X207677142Y-52177142D01*
X207962857Y-53248571D01*
X208320000Y-51748571D01*
X208820000Y-52820000D02*
X209534285Y-52820000D01*
X208677142Y-53248571D02*
X209177142Y-51748571D01*
X209677142Y-53248571D01*
X209962857Y-51748571D02*
X210462857Y-53248571D01*
X210962857Y-51748571D01*
X211462857Y-52462857D02*
X211962857Y-52462857D01*
X212177142Y-53248571D02*
X211462857Y-53248571D01*
X211462857Y-51748571D01*
X212177142Y-51748571D01*
X213320000Y-52462857D02*
X212820000Y-52462857D01*
X212820000Y-53248571D02*
X212820000Y-51748571D01*
X213534285Y-51748571D01*
X214391428Y-51748571D02*
X214677142Y-51748571D01*
X214820000Y-51820000D01*
X214962857Y-51962857D01*
X215034285Y-52248571D01*
X215034285Y-52748571D01*
X214962857Y-53034285D01*
X214820000Y-53177142D01*
X214677142Y-53248571D01*
X214391428Y-53248571D01*
X214248571Y-53177142D01*
X214105714Y-53034285D01*
X214034285Y-52748571D01*
X214034285Y-52248571D01*
X214105714Y-51962857D01*
X214248571Y-51820000D01*
X214391428Y-51748571D01*
X216534285Y-53248571D02*
X216034285Y-52534285D01*
X215677142Y-53248571D02*
X215677142Y-51748571D01*
X216248571Y-51748571D01*
X216391428Y-51820000D01*
X216462857Y-51891428D01*
X216534285Y-52034285D01*
X216534285Y-52248571D01*
X216462857Y-52391428D01*
X216391428Y-52462857D01*
X216248571Y-52534285D01*
X215677142Y-52534285D01*
X217177142Y-53248571D02*
X217177142Y-51748571D01*
X217677142Y-52820000D01*
X218177142Y-51748571D01*
X218177142Y-53248571D01*
X204248571Y-124177142D02*
X204462857Y-124248571D01*
X204820000Y-124248571D01*
X204962857Y-124177142D01*
X205034285Y-124105714D01*
X205105714Y-123962857D01*
X205105714Y-123820000D01*
X205034285Y-123677142D01*
X204962857Y-123605714D01*
X204820000Y-123534285D01*
X204534285Y-123462857D01*
X204391428Y-123391428D01*
X204320000Y-123320000D01*
X204248571Y-123177142D01*
X204248571Y-123034285D01*
X204320000Y-122891428D01*
X204391428Y-122820000D01*
X204534285Y-122748571D01*
X204891428Y-122748571D01*
X205105714Y-122820000D01*
X205748571Y-123462857D02*
X206248571Y-123462857D01*
X206462857Y-124248571D02*
X205748571Y-124248571D01*
X205748571Y-122748571D01*
X206462857Y-122748571D01*
X208105714Y-124391428D02*
X207962857Y-124320000D01*
X207820000Y-124177142D01*
X207605714Y-123962857D01*
X207462857Y-123891428D01*
X207320000Y-123891428D01*
X207391428Y-124248571D02*
X207248571Y-124177142D01*
X207105714Y-124034285D01*
X207034285Y-123748571D01*
X207034285Y-123248571D01*
X207105714Y-122962857D01*
X207248571Y-122820000D01*
X207391428Y-122748571D01*
X207677142Y-122748571D01*
X207820000Y-122820000D01*
X207962857Y-122962857D01*
X208034285Y-123248571D01*
X208034285Y-123748571D01*
X207962857Y-124034285D01*
X207820000Y-124177142D01*
X207677142Y-124248571D01*
X207391428Y-124248571D01*
X208677142Y-122748571D02*
X208677142Y-123962857D01*
X208748571Y-124105714D01*
X208820000Y-124177142D01*
X208962857Y-124248571D01*
X209248571Y-124248571D01*
X209391428Y-124177142D01*
X209462857Y-124105714D01*
X209534285Y-123962857D01*
X209534285Y-122748571D01*
X210248571Y-123462857D02*
X210748571Y-123462857D01*
X210962857Y-124248571D02*
X210248571Y-124248571D01*
X210248571Y-122748571D01*
X210962857Y-122748571D01*
X211605714Y-124248571D02*
X211605714Y-122748571D01*
X212462857Y-124248571D01*
X212462857Y-122748571D01*
X214034285Y-124105714D02*
X213962857Y-124177142D01*
X213748571Y-124248571D01*
X213605714Y-124248571D01*
X213391428Y-124177142D01*
X213248571Y-124034285D01*
X213177142Y-123891428D01*
X213105714Y-123605714D01*
X213105714Y-123391428D01*
X213177142Y-123105714D01*
X213248571Y-122962857D01*
X213391428Y-122820000D01*
X213605714Y-122748571D01*
X213748571Y-122748571D01*
X213962857Y-122820000D01*
X214034285Y-122891428D01*
X214677142Y-123462857D02*
X215177142Y-123462857D01*
X215391428Y-124248571D02*
X214677142Y-124248571D01*
X214677142Y-122748571D01*
X215391428Y-122748571D01*
X216891428Y-124248571D02*
X216391428Y-123534285D01*
X216034285Y-124248571D02*
X216034285Y-122748571D01*
X216605714Y-122748571D01*
X216748571Y-122820000D01*
X216820000Y-122891428D01*
X216891428Y-123034285D01*
X216891428Y-123248571D01*
X216820000Y-123391428D01*
X216748571Y-123462857D01*
X216605714Y-123534285D01*
X216034285Y-123534285D01*
X118914341Y-57690995D02*
X120057198Y-57690995D01*
X119485769Y-58262424D02*
X119485769Y-57119567D01*
X120628626Y-56762424D02*
X121557198Y-56762424D01*
X121057198Y-57333853D01*
X121271483Y-57333853D01*
X121414341Y-57405281D01*
X121485769Y-57476710D01*
X121557198Y-57619567D01*
X121557198Y-57976710D01*
X121485769Y-58119567D01*
X121414341Y-58190995D01*
X121271483Y-58262424D01*
X120842912Y-58262424D01*
X120700055Y-58190995D01*
X120628626Y-58119567D01*
X122200055Y-58119567D02*
X122271483Y-58190995D01*
X122200055Y-58262424D01*
X122128626Y-58190995D01*
X122200055Y-58119567D01*
X122200055Y-58262424D01*
X122771483Y-56762424D02*
X123700055Y-56762424D01*
X123200055Y-57333853D01*
X123414341Y-57333853D01*
X123557198Y-57405281D01*
X123628626Y-57476710D01*
X123700055Y-57619567D01*
X123700055Y-57976710D01*
X123628626Y-58119567D01*
X123557198Y-58190995D01*
X123414341Y-58262424D01*
X122985769Y-58262424D01*
X122842912Y-58190995D01*
X122771483Y-58119567D01*
X124128626Y-56762424D02*
X124628626Y-58262424D01*
X125128626Y-56762424D01*
D11*
%TO.C,SW14*%
X158760476Y-107974761D02*
X158903333Y-108022380D01*
X159141428Y-108022380D01*
X159236666Y-107974761D01*
X159284285Y-107927142D01*
X159331904Y-107831904D01*
X159331904Y-107736666D01*
X159284285Y-107641428D01*
X159236666Y-107593809D01*
X159141428Y-107546190D01*
X158950952Y-107498571D01*
X158855714Y-107450952D01*
X158808095Y-107403333D01*
X158760476Y-107308095D01*
X158760476Y-107212857D01*
X158808095Y-107117619D01*
X158855714Y-107070000D01*
X158950952Y-107022380D01*
X159189047Y-107022380D01*
X159331904Y-107070000D01*
X159665238Y-107022380D02*
X159903333Y-108022380D01*
X160093809Y-107308095D01*
X160284285Y-108022380D01*
X160522380Y-107022380D01*
X161427142Y-108022380D02*
X160855714Y-108022380D01*
X161141428Y-108022380D02*
X161141428Y-107022380D01*
X161046190Y-107165238D01*
X160950952Y-107260476D01*
X160855714Y-107308095D01*
X162284285Y-107355714D02*
X162284285Y-108022380D01*
X162046190Y-106974761D02*
X161808095Y-107689047D01*
X162427142Y-107689047D01*
%TO.C,D32*%
X183355714Y-51322380D02*
X183355714Y-50322380D01*
X183593809Y-50322380D01*
X183736666Y-50370000D01*
X183831904Y-50465238D01*
X183879523Y-50560476D01*
X183927142Y-50750952D01*
X183927142Y-50893809D01*
X183879523Y-51084285D01*
X183831904Y-51179523D01*
X183736666Y-51274761D01*
X183593809Y-51322380D01*
X183355714Y-51322380D01*
X184260476Y-50322380D02*
X184879523Y-50322380D01*
X184546190Y-50703333D01*
X184689047Y-50703333D01*
X184784285Y-50750952D01*
X184831904Y-50798571D01*
X184879523Y-50893809D01*
X184879523Y-51131904D01*
X184831904Y-51227142D01*
X184784285Y-51274761D01*
X184689047Y-51322380D01*
X184403333Y-51322380D01*
X184308095Y-51274761D01*
X184260476Y-51227142D01*
X185260476Y-50417619D02*
X185308095Y-50370000D01*
X185403333Y-50322380D01*
X185641428Y-50322380D01*
X185736666Y-50370000D01*
X185784285Y-50417619D01*
X185831904Y-50512857D01*
X185831904Y-50608095D01*
X185784285Y-50750952D01*
X185212857Y-51322380D01*
X185831904Y-51322380D01*
X189005714Y-49422380D02*
X188434285Y-49422380D01*
X188720000Y-49422380D02*
X188720000Y-48422380D01*
X188624761Y-48565238D01*
X188529523Y-48660476D01*
X188434285Y-48708095D01*
%TO.C,SW18*%
X182760476Y-82974761D02*
X182903333Y-83022380D01*
X183141428Y-83022380D01*
X183236666Y-82974761D01*
X183284285Y-82927142D01*
X183331904Y-82831904D01*
X183331904Y-82736666D01*
X183284285Y-82641428D01*
X183236666Y-82593809D01*
X183141428Y-82546190D01*
X182950952Y-82498571D01*
X182855714Y-82450952D01*
X182808095Y-82403333D01*
X182760476Y-82308095D01*
X182760476Y-82212857D01*
X182808095Y-82117619D01*
X182855714Y-82070000D01*
X182950952Y-82022380D01*
X183189047Y-82022380D01*
X183331904Y-82070000D01*
X183665238Y-82022380D02*
X183903333Y-83022380D01*
X184093809Y-82308095D01*
X184284285Y-83022380D01*
X184522380Y-82022380D01*
X185427142Y-83022380D02*
X184855714Y-83022380D01*
X185141428Y-83022380D02*
X185141428Y-82022380D01*
X185046190Y-82165238D01*
X184950952Y-82260476D01*
X184855714Y-82308095D01*
X185998571Y-82450952D02*
X185903333Y-82403333D01*
X185855714Y-82355714D01*
X185808095Y-82260476D01*
X185808095Y-82212857D01*
X185855714Y-82117619D01*
X185903333Y-82070000D01*
X185998571Y-82022380D01*
X186189047Y-82022380D01*
X186284285Y-82070000D01*
X186331904Y-82117619D01*
X186379523Y-82212857D01*
X186379523Y-82260476D01*
X186331904Y-82355714D01*
X186284285Y-82403333D01*
X186189047Y-82450952D01*
X185998571Y-82450952D01*
X185903333Y-82498571D01*
X185855714Y-82546190D01*
X185808095Y-82641428D01*
X185808095Y-82831904D01*
X185855714Y-82927142D01*
X185903333Y-82974761D01*
X185998571Y-83022380D01*
X186189047Y-83022380D01*
X186284285Y-82974761D01*
X186331904Y-82927142D01*
X186379523Y-82831904D01*
X186379523Y-82641428D01*
X186331904Y-82546190D01*
X186284285Y-82498571D01*
X186189047Y-82450952D01*
%TO.C,R16*%
X143757142Y-84277380D02*
X143423809Y-83801190D01*
X143185714Y-84277380D02*
X143185714Y-83277380D01*
X143566666Y-83277380D01*
X143661904Y-83325000D01*
X143709523Y-83372619D01*
X143757142Y-83467857D01*
X143757142Y-83610714D01*
X143709523Y-83705952D01*
X143661904Y-83753571D01*
X143566666Y-83801190D01*
X143185714Y-83801190D01*
X144709523Y-84277380D02*
X144138095Y-84277380D01*
X144423809Y-84277380D02*
X144423809Y-83277380D01*
X144328571Y-83420238D01*
X144233333Y-83515476D01*
X144138095Y-83563095D01*
X145566666Y-83277380D02*
X145376190Y-83277380D01*
X145280952Y-83325000D01*
X145233333Y-83372619D01*
X145138095Y-83515476D01*
X145090476Y-83705952D01*
X145090476Y-84086904D01*
X145138095Y-84182142D01*
X145185714Y-84229761D01*
X145280952Y-84277380D01*
X145471428Y-84277380D01*
X145566666Y-84229761D01*
X145614285Y-84182142D01*
X145661904Y-84086904D01*
X145661904Y-83848809D01*
X145614285Y-83753571D01*
X145566666Y-83705952D01*
X145471428Y-83658333D01*
X145280952Y-83658333D01*
X145185714Y-83705952D01*
X145138095Y-83753571D01*
X145090476Y-83848809D01*
%TO.C,D45*%
X159355714Y-119322380D02*
X159355714Y-118322380D01*
X159593809Y-118322380D01*
X159736666Y-118370000D01*
X159831904Y-118465238D01*
X159879523Y-118560476D01*
X159927142Y-118750952D01*
X159927142Y-118893809D01*
X159879523Y-119084285D01*
X159831904Y-119179523D01*
X159736666Y-119274761D01*
X159593809Y-119322380D01*
X159355714Y-119322380D01*
X160784285Y-118655714D02*
X160784285Y-119322380D01*
X160546190Y-118274761D02*
X160308095Y-118989047D01*
X160927142Y-118989047D01*
X161784285Y-118322380D02*
X161308095Y-118322380D01*
X161260476Y-118798571D01*
X161308095Y-118750952D01*
X161403333Y-118703333D01*
X161641428Y-118703333D01*
X161736666Y-118750952D01*
X161784285Y-118798571D01*
X161831904Y-118893809D01*
X161831904Y-119131904D01*
X161784285Y-119227142D01*
X161736666Y-119274761D01*
X161641428Y-119322380D01*
X161403333Y-119322380D01*
X161308095Y-119274761D01*
X161260476Y-119227142D01*
X156705714Y-121222380D02*
X156134285Y-121222380D01*
X156420000Y-121222380D02*
X156420000Y-120222380D01*
X156324761Y-120365238D01*
X156229523Y-120460476D01*
X156134285Y-120508095D01*
%TO.C,SW15*%
X163760476Y-134974761D02*
X163903333Y-135022380D01*
X164141428Y-135022380D01*
X164236666Y-134974761D01*
X164284285Y-134927142D01*
X164331904Y-134831904D01*
X164331904Y-134736666D01*
X164284285Y-134641428D01*
X164236666Y-134593809D01*
X164141428Y-134546190D01*
X163950952Y-134498571D01*
X163855714Y-134450952D01*
X163808095Y-134403333D01*
X163760476Y-134308095D01*
X163760476Y-134212857D01*
X163808095Y-134117619D01*
X163855714Y-134070000D01*
X163950952Y-134022380D01*
X164189047Y-134022380D01*
X164331904Y-134070000D01*
X164665238Y-134022380D02*
X164903333Y-135022380D01*
X165093809Y-134308095D01*
X165284285Y-135022380D01*
X165522380Y-134022380D01*
X166427142Y-135022380D02*
X165855714Y-135022380D01*
X166141428Y-135022380D02*
X166141428Y-134022380D01*
X166046190Y-134165238D01*
X165950952Y-134260476D01*
X165855714Y-134308095D01*
X167331904Y-134022380D02*
X166855714Y-134022380D01*
X166808095Y-134498571D01*
X166855714Y-134450952D01*
X166950952Y-134403333D01*
X167189047Y-134403333D01*
X167284285Y-134450952D01*
X167331904Y-134498571D01*
X167379523Y-134593809D01*
X167379523Y-134831904D01*
X167331904Y-134927142D01*
X167284285Y-134974761D01*
X167189047Y-135022380D01*
X166950952Y-135022380D01*
X166855714Y-134974761D01*
X166808095Y-134927142D01*
%TO.C,SW27*%
X232760476Y-57974761D02*
X232903333Y-58022380D01*
X233141428Y-58022380D01*
X233236666Y-57974761D01*
X233284285Y-57927142D01*
X233331904Y-57831904D01*
X233331904Y-57736666D01*
X233284285Y-57641428D01*
X233236666Y-57593809D01*
X233141428Y-57546190D01*
X232950952Y-57498571D01*
X232855714Y-57450952D01*
X232808095Y-57403333D01*
X232760476Y-57308095D01*
X232760476Y-57212857D01*
X232808095Y-57117619D01*
X232855714Y-57070000D01*
X232950952Y-57022380D01*
X233189047Y-57022380D01*
X233331904Y-57070000D01*
X233665238Y-57022380D02*
X233903333Y-58022380D01*
X234093809Y-57308095D01*
X234284285Y-58022380D01*
X234522380Y-57022380D01*
X234855714Y-57117619D02*
X234903333Y-57070000D01*
X234998571Y-57022380D01*
X235236666Y-57022380D01*
X235331904Y-57070000D01*
X235379523Y-57117619D01*
X235427142Y-57212857D01*
X235427142Y-57308095D01*
X235379523Y-57450952D01*
X234808095Y-58022380D01*
X235427142Y-58022380D01*
X235760476Y-57022380D02*
X236427142Y-57022380D01*
X235998571Y-58022380D01*
%TO.C,D48*%
X233355714Y-69322380D02*
X233355714Y-68322380D01*
X233593809Y-68322380D01*
X233736666Y-68370000D01*
X233831904Y-68465238D01*
X233879523Y-68560476D01*
X233927142Y-68750952D01*
X233927142Y-68893809D01*
X233879523Y-69084285D01*
X233831904Y-69179523D01*
X233736666Y-69274761D01*
X233593809Y-69322380D01*
X233355714Y-69322380D01*
X234784285Y-68655714D02*
X234784285Y-69322380D01*
X234546190Y-68274761D02*
X234308095Y-68989047D01*
X234927142Y-68989047D01*
X235450952Y-68750952D02*
X235355714Y-68703333D01*
X235308095Y-68655714D01*
X235260476Y-68560476D01*
X235260476Y-68512857D01*
X235308095Y-68417619D01*
X235355714Y-68370000D01*
X235450952Y-68322380D01*
X235641428Y-68322380D01*
X235736666Y-68370000D01*
X235784285Y-68417619D01*
X235831904Y-68512857D01*
X235831904Y-68560476D01*
X235784285Y-68655714D01*
X235736666Y-68703333D01*
X235641428Y-68750952D01*
X235450952Y-68750952D01*
X235355714Y-68798571D01*
X235308095Y-68846190D01*
X235260476Y-68941428D01*
X235260476Y-69131904D01*
X235308095Y-69227142D01*
X235355714Y-69274761D01*
X235450952Y-69322380D01*
X235641428Y-69322380D01*
X235736666Y-69274761D01*
X235784285Y-69227142D01*
X235831904Y-69131904D01*
X235831904Y-68941428D01*
X235784285Y-68846190D01*
X235736666Y-68798571D01*
X235641428Y-68750952D01*
X230705714Y-71222380D02*
X230134285Y-71222380D01*
X230420000Y-71222380D02*
X230420000Y-70222380D01*
X230324761Y-70365238D01*
X230229523Y-70460476D01*
X230134285Y-70508095D01*
%TO.C,R14*%
X143057142Y-34277380D02*
X142723809Y-33801190D01*
X142485714Y-34277380D02*
X142485714Y-33277380D01*
X142866666Y-33277380D01*
X142961904Y-33325000D01*
X143009523Y-33372619D01*
X143057142Y-33467857D01*
X143057142Y-33610714D01*
X143009523Y-33705952D01*
X142961904Y-33753571D01*
X142866666Y-33801190D01*
X142485714Y-33801190D01*
X144009523Y-34277380D02*
X143438095Y-34277380D01*
X143723809Y-34277380D02*
X143723809Y-33277380D01*
X143628571Y-33420238D01*
X143533333Y-33515476D01*
X143438095Y-33563095D01*
X144866666Y-33610714D02*
X144866666Y-34277380D01*
X144628571Y-33229761D02*
X144390476Y-33944047D01*
X145009523Y-33944047D01*
%TO.C,D43*%
X258355714Y-51322380D02*
X258355714Y-50322380D01*
X258593809Y-50322380D01*
X258736666Y-50370000D01*
X258831904Y-50465238D01*
X258879523Y-50560476D01*
X258927142Y-50750952D01*
X258927142Y-50893809D01*
X258879523Y-51084285D01*
X258831904Y-51179523D01*
X258736666Y-51274761D01*
X258593809Y-51322380D01*
X258355714Y-51322380D01*
X259784285Y-50655714D02*
X259784285Y-51322380D01*
X259546190Y-50274761D02*
X259308095Y-50989047D01*
X259927142Y-50989047D01*
X260212857Y-50322380D02*
X260831904Y-50322380D01*
X260498571Y-50703333D01*
X260641428Y-50703333D01*
X260736666Y-50750952D01*
X260784285Y-50798571D01*
X260831904Y-50893809D01*
X260831904Y-51131904D01*
X260784285Y-51227142D01*
X260736666Y-51274761D01*
X260641428Y-51322380D01*
X260355714Y-51322380D01*
X260260476Y-51274761D01*
X260212857Y-51227142D01*
X264005714Y-49422380D02*
X263434285Y-49422380D01*
X263720000Y-49422380D02*
X263720000Y-48422380D01*
X263624761Y-48565238D01*
X263529523Y-48660476D01*
X263434285Y-48708095D01*
%TO.C,SW17*%
X182760476Y-57974761D02*
X182903333Y-58022380D01*
X183141428Y-58022380D01*
X183236666Y-57974761D01*
X183284285Y-57927142D01*
X183331904Y-57831904D01*
X183331904Y-57736666D01*
X183284285Y-57641428D01*
X183236666Y-57593809D01*
X183141428Y-57546190D01*
X182950952Y-57498571D01*
X182855714Y-57450952D01*
X182808095Y-57403333D01*
X182760476Y-57308095D01*
X182760476Y-57212857D01*
X182808095Y-57117619D01*
X182855714Y-57070000D01*
X182950952Y-57022380D01*
X183189047Y-57022380D01*
X183331904Y-57070000D01*
X183665238Y-57022380D02*
X183903333Y-58022380D01*
X184093809Y-57308095D01*
X184284285Y-58022380D01*
X184522380Y-57022380D01*
X185427142Y-58022380D02*
X184855714Y-58022380D01*
X185141428Y-58022380D02*
X185141428Y-57022380D01*
X185046190Y-57165238D01*
X184950952Y-57260476D01*
X184855714Y-57308095D01*
X185760476Y-57022380D02*
X186427142Y-57022380D01*
X185998571Y-58022380D01*
%TO.C,R22*%
X103966721Y-35076710D02*
X103490531Y-35410043D01*
X103966721Y-35648138D02*
X102966721Y-35648138D01*
X102966721Y-35267186D01*
X103014341Y-35171948D01*
X103061960Y-35124329D01*
X103157198Y-35076710D01*
X103300055Y-35076710D01*
X103395293Y-35124329D01*
X103442912Y-35171948D01*
X103490531Y-35267186D01*
X103490531Y-35648138D01*
X103061960Y-34695757D02*
X103014341Y-34648138D01*
X102966721Y-34552900D01*
X102966721Y-34314805D01*
X103014341Y-34219567D01*
X103061960Y-34171948D01*
X103157198Y-34124329D01*
X103252436Y-34124329D01*
X103395293Y-34171948D01*
X103966721Y-34743376D01*
X103966721Y-34124329D01*
X103061960Y-33743376D02*
X103014341Y-33695757D01*
X102966721Y-33600519D01*
X102966721Y-33362424D01*
X103014341Y-33267186D01*
X103061960Y-33219567D01*
X103157198Y-33171948D01*
X103252436Y-33171948D01*
X103395293Y-33219567D01*
X103966721Y-33790995D01*
X103966721Y-33171948D01*
%TO.C,SW25*%
X201760476Y-134974761D02*
X201903333Y-135022380D01*
X202141428Y-135022380D01*
X202236666Y-134974761D01*
X202284285Y-134927142D01*
X202331904Y-134831904D01*
X202331904Y-134736666D01*
X202284285Y-134641428D01*
X202236666Y-134593809D01*
X202141428Y-134546190D01*
X201950952Y-134498571D01*
X201855714Y-134450952D01*
X201808095Y-134403333D01*
X201760476Y-134308095D01*
X201760476Y-134212857D01*
X201808095Y-134117619D01*
X201855714Y-134070000D01*
X201950952Y-134022380D01*
X202189047Y-134022380D01*
X202331904Y-134070000D01*
X202665238Y-134022380D02*
X202903333Y-135022380D01*
X203093809Y-134308095D01*
X203284285Y-135022380D01*
X203522380Y-134022380D01*
X203855714Y-134117619D02*
X203903333Y-134070000D01*
X203998571Y-134022380D01*
X204236666Y-134022380D01*
X204331904Y-134070000D01*
X204379523Y-134117619D01*
X204427142Y-134212857D01*
X204427142Y-134308095D01*
X204379523Y-134450952D01*
X203808095Y-135022380D01*
X204427142Y-135022380D01*
X205331904Y-134022380D02*
X204855714Y-134022380D01*
X204808095Y-134498571D01*
X204855714Y-134450952D01*
X204950952Y-134403333D01*
X205189047Y-134403333D01*
X205284285Y-134450952D01*
X205331904Y-134498571D01*
X205379523Y-134593809D01*
X205379523Y-134831904D01*
X205331904Y-134927142D01*
X205284285Y-134974761D01*
X205189047Y-135022380D01*
X204950952Y-135022380D01*
X204855714Y-134974761D01*
X204808095Y-134927142D01*
%TO.C,D42*%
X240355714Y-113322380D02*
X240355714Y-112322380D01*
X240593809Y-112322380D01*
X240736666Y-112370000D01*
X240831904Y-112465238D01*
X240879523Y-112560476D01*
X240927142Y-112750952D01*
X240927142Y-112893809D01*
X240879523Y-113084285D01*
X240831904Y-113179523D01*
X240736666Y-113274761D01*
X240593809Y-113322380D01*
X240355714Y-113322380D01*
X241784285Y-112655714D02*
X241784285Y-113322380D01*
X241546190Y-112274761D02*
X241308095Y-112989047D01*
X241927142Y-112989047D01*
X242260476Y-112417619D02*
X242308095Y-112370000D01*
X242403333Y-112322380D01*
X242641428Y-112322380D01*
X242736666Y-112370000D01*
X242784285Y-112417619D01*
X242831904Y-112512857D01*
X242831904Y-112608095D01*
X242784285Y-112750952D01*
X242212857Y-113322380D01*
X242831904Y-113322380D01*
X240960714Y-115277380D02*
X240389285Y-115277380D01*
X240675000Y-115277380D02*
X240675000Y-114277380D01*
X240579761Y-114420238D01*
X240484523Y-114515476D01*
X240389285Y-114563095D01*
%TO.C,C57*%
X120521483Y-38940995D02*
X120473864Y-38988614D01*
X120331007Y-39036233D01*
X120235769Y-39036233D01*
X120092912Y-38988614D01*
X119997674Y-38893376D01*
X119950055Y-38798138D01*
X119902436Y-38607662D01*
X119902436Y-38464805D01*
X119950055Y-38274329D01*
X119997674Y-38179091D01*
X120092912Y-38083853D01*
X120235769Y-38036233D01*
X120331007Y-38036233D01*
X120473864Y-38083853D01*
X120521483Y-38131472D01*
X121426245Y-38036233D02*
X120950055Y-38036233D01*
X120902436Y-38512424D01*
X120950055Y-38464805D01*
X121045293Y-38417186D01*
X121283388Y-38417186D01*
X121378626Y-38464805D01*
X121426245Y-38512424D01*
X121473864Y-38607662D01*
X121473864Y-38845757D01*
X121426245Y-38940995D01*
X121378626Y-38988614D01*
X121283388Y-39036233D01*
X121045293Y-39036233D01*
X120950055Y-38988614D01*
X120902436Y-38940995D01*
X121807198Y-38036233D02*
X122473864Y-38036233D01*
X122045293Y-39036233D01*
%TO.C,SW33*%
X239760476Y-82974761D02*
X239903333Y-83022380D01*
X240141428Y-83022380D01*
X240236666Y-82974761D01*
X240284285Y-82927142D01*
X240331904Y-82831904D01*
X240331904Y-82736666D01*
X240284285Y-82641428D01*
X240236666Y-82593809D01*
X240141428Y-82546190D01*
X239950952Y-82498571D01*
X239855714Y-82450952D01*
X239808095Y-82403333D01*
X239760476Y-82308095D01*
X239760476Y-82212857D01*
X239808095Y-82117619D01*
X239855714Y-82070000D01*
X239950952Y-82022380D01*
X240189047Y-82022380D01*
X240331904Y-82070000D01*
X240665238Y-82022380D02*
X240903333Y-83022380D01*
X241093809Y-82308095D01*
X241284285Y-83022380D01*
X241522380Y-82022380D01*
X241808095Y-82022380D02*
X242427142Y-82022380D01*
X242093809Y-82403333D01*
X242236666Y-82403333D01*
X242331904Y-82450952D01*
X242379523Y-82498571D01*
X242427142Y-82593809D01*
X242427142Y-82831904D01*
X242379523Y-82927142D01*
X242331904Y-82974761D01*
X242236666Y-83022380D01*
X241950952Y-83022380D01*
X241855714Y-82974761D01*
X241808095Y-82927142D01*
X242760476Y-82022380D02*
X243379523Y-82022380D01*
X243046190Y-82403333D01*
X243189047Y-82403333D01*
X243284285Y-82450952D01*
X243331904Y-82498571D01*
X243379523Y-82593809D01*
X243379523Y-82831904D01*
X243331904Y-82927142D01*
X243284285Y-82974761D01*
X243189047Y-83022380D01*
X242903333Y-83022380D01*
X242808095Y-82974761D01*
X242760476Y-82927142D01*
%TO.C,SW13*%
X157760476Y-82974761D02*
X157903333Y-83022380D01*
X158141428Y-83022380D01*
X158236666Y-82974761D01*
X158284285Y-82927142D01*
X158331904Y-82831904D01*
X158331904Y-82736666D01*
X158284285Y-82641428D01*
X158236666Y-82593809D01*
X158141428Y-82546190D01*
X157950952Y-82498571D01*
X157855714Y-82450952D01*
X157808095Y-82403333D01*
X157760476Y-82308095D01*
X157760476Y-82212857D01*
X157808095Y-82117619D01*
X157855714Y-82070000D01*
X157950952Y-82022380D01*
X158189047Y-82022380D01*
X158331904Y-82070000D01*
X158665238Y-82022380D02*
X158903333Y-83022380D01*
X159093809Y-82308095D01*
X159284285Y-83022380D01*
X159522380Y-82022380D01*
X160427142Y-83022380D02*
X159855714Y-83022380D01*
X160141428Y-83022380D02*
X160141428Y-82022380D01*
X160046190Y-82165238D01*
X159950952Y-82260476D01*
X159855714Y-82308095D01*
X160760476Y-82022380D02*
X161379523Y-82022380D01*
X161046190Y-82403333D01*
X161189047Y-82403333D01*
X161284285Y-82450952D01*
X161331904Y-82498571D01*
X161379523Y-82593809D01*
X161379523Y-82831904D01*
X161331904Y-82927142D01*
X161284285Y-82974761D01*
X161189047Y-83022380D01*
X160903333Y-83022380D01*
X160808095Y-82974761D01*
X160760476Y-82927142D01*
%TO.C,R20*%
X75857142Y-70312380D02*
X75523809Y-69836190D01*
X75285714Y-70312380D02*
X75285714Y-69312380D01*
X75666666Y-69312380D01*
X75761904Y-69360000D01*
X75809523Y-69407619D01*
X75857142Y-69502857D01*
X75857142Y-69645714D01*
X75809523Y-69740952D01*
X75761904Y-69788571D01*
X75666666Y-69836190D01*
X75285714Y-69836190D01*
X76238095Y-69407619D02*
X76285714Y-69360000D01*
X76380952Y-69312380D01*
X76619047Y-69312380D01*
X76714285Y-69360000D01*
X76761904Y-69407619D01*
X76809523Y-69502857D01*
X76809523Y-69598095D01*
X76761904Y-69740952D01*
X76190476Y-70312380D01*
X76809523Y-70312380D01*
X77428571Y-69312380D02*
X77523809Y-69312380D01*
X77619047Y-69360000D01*
X77666666Y-69407619D01*
X77714285Y-69502857D01*
X77761904Y-69693333D01*
X77761904Y-69931428D01*
X77714285Y-70121904D01*
X77666666Y-70217142D01*
X77619047Y-70264761D01*
X77523809Y-70312380D01*
X77428571Y-70312380D01*
X77333333Y-70264761D01*
X77285714Y-70217142D01*
X77238095Y-70121904D01*
X77190476Y-69931428D01*
X77190476Y-69693333D01*
X77238095Y-69502857D01*
X77285714Y-69407619D01*
X77333333Y-69360000D01*
X77428571Y-69312380D01*
%TO.C,C55*%
X93271483Y-40626710D02*
X93319102Y-40674329D01*
X93366721Y-40817186D01*
X93366721Y-40912424D01*
X93319102Y-41055281D01*
X93223864Y-41150519D01*
X93128626Y-41198138D01*
X92938150Y-41245757D01*
X92795293Y-41245757D01*
X92604817Y-41198138D01*
X92509579Y-41150519D01*
X92414341Y-41055281D01*
X92366721Y-40912424D01*
X92366721Y-40817186D01*
X92414341Y-40674329D01*
X92461960Y-40626710D01*
X92366721Y-39721948D02*
X92366721Y-40198138D01*
X92842912Y-40245757D01*
X92795293Y-40198138D01*
X92747674Y-40102900D01*
X92747674Y-39864805D01*
X92795293Y-39769567D01*
X92842912Y-39721948D01*
X92938150Y-39674329D01*
X93176245Y-39674329D01*
X93271483Y-39721948D01*
X93319102Y-39769567D01*
X93366721Y-39864805D01*
X93366721Y-40102900D01*
X93319102Y-40198138D01*
X93271483Y-40245757D01*
X92366721Y-38769567D02*
X92366721Y-39245757D01*
X92842912Y-39293376D01*
X92795293Y-39245757D01*
X92747674Y-39150519D01*
X92747674Y-38912424D01*
X92795293Y-38817186D01*
X92842912Y-38769567D01*
X92938150Y-38721948D01*
X93176245Y-38721948D01*
X93271483Y-38769567D01*
X93319102Y-38817186D01*
X93366721Y-38912424D01*
X93366721Y-39150519D01*
X93319102Y-39245757D01*
X93271483Y-39293376D01*
%TO.C,SW10*%
X87480476Y-67184761D02*
X87623333Y-67232380D01*
X87861428Y-67232380D01*
X87956666Y-67184761D01*
X88004285Y-67137142D01*
X88051904Y-67041904D01*
X88051904Y-66946666D01*
X88004285Y-66851428D01*
X87956666Y-66803809D01*
X87861428Y-66756190D01*
X87670952Y-66708571D01*
X87575714Y-66660952D01*
X87528095Y-66613333D01*
X87480476Y-66518095D01*
X87480476Y-66422857D01*
X87528095Y-66327619D01*
X87575714Y-66280000D01*
X87670952Y-66232380D01*
X87909047Y-66232380D01*
X88051904Y-66280000D01*
X88385238Y-66232380D02*
X88623333Y-67232380D01*
X88813809Y-66518095D01*
X89004285Y-67232380D01*
X89242380Y-66232380D01*
X90147142Y-67232380D02*
X89575714Y-67232380D01*
X89861428Y-67232380D02*
X89861428Y-66232380D01*
X89766190Y-66375238D01*
X89670952Y-66470476D01*
X89575714Y-66518095D01*
X90766190Y-66232380D02*
X90861428Y-66232380D01*
X90956666Y-66280000D01*
X91004285Y-66327619D01*
X91051904Y-66422857D01*
X91099523Y-66613333D01*
X91099523Y-66851428D01*
X91051904Y-67041904D01*
X91004285Y-67137142D01*
X90956666Y-67184761D01*
X90861428Y-67232380D01*
X90766190Y-67232380D01*
X90670952Y-67184761D01*
X90623333Y-67137142D01*
X90575714Y-67041904D01*
X90528095Y-66851428D01*
X90528095Y-66613333D01*
X90575714Y-66422857D01*
X90623333Y-66327619D01*
X90670952Y-66280000D01*
X90766190Y-66232380D01*
%TO.C,R11*%
X140757142Y-116052380D02*
X140423809Y-115576190D01*
X140185714Y-116052380D02*
X140185714Y-115052380D01*
X140566666Y-115052380D01*
X140661904Y-115100000D01*
X140709523Y-115147619D01*
X140757142Y-115242857D01*
X140757142Y-115385714D01*
X140709523Y-115480952D01*
X140661904Y-115528571D01*
X140566666Y-115576190D01*
X140185714Y-115576190D01*
X141709523Y-116052380D02*
X141138095Y-116052380D01*
X141423809Y-116052380D02*
X141423809Y-115052380D01*
X141328571Y-115195238D01*
X141233333Y-115290476D01*
X141138095Y-115338095D01*
X142661904Y-116052380D02*
X142090476Y-116052380D01*
X142376190Y-116052380D02*
X142376190Y-115052380D01*
X142280952Y-115195238D01*
X142185714Y-115290476D01*
X142090476Y-115338095D01*
%TO.C,C64*%
X111857142Y-62257144D02*
X111809523Y-62304763D01*
X111666666Y-62352382D01*
X111571428Y-62352382D01*
X111428571Y-62304763D01*
X111333333Y-62209525D01*
X111285714Y-62114287D01*
X111238095Y-61923811D01*
X111238095Y-61780954D01*
X111285714Y-61590478D01*
X111333333Y-61495240D01*
X111428571Y-61400002D01*
X111571428Y-61352382D01*
X111666666Y-61352382D01*
X111809523Y-61400002D01*
X111857142Y-61447621D01*
X112714285Y-61352382D02*
X112523809Y-61352382D01*
X112428571Y-61400002D01*
X112380952Y-61447621D01*
X112285714Y-61590478D01*
X112238095Y-61780954D01*
X112238095Y-62161906D01*
X112285714Y-62257144D01*
X112333333Y-62304763D01*
X112428571Y-62352382D01*
X112619047Y-62352382D01*
X112714285Y-62304763D01*
X112761904Y-62257144D01*
X112809523Y-62161906D01*
X112809523Y-61923811D01*
X112761904Y-61828573D01*
X112714285Y-61780954D01*
X112619047Y-61733335D01*
X112428571Y-61733335D01*
X112333333Y-61780954D01*
X112285714Y-61828573D01*
X112238095Y-61923811D01*
X113666666Y-61685716D02*
X113666666Y-62352382D01*
X113428571Y-61304763D02*
X113190476Y-62019049D01*
X113809523Y-62019049D01*
%TO.C,L5*%
X124408333Y-67602380D02*
X123932142Y-67602380D01*
X123932142Y-66602380D01*
X125217857Y-66602380D02*
X124741666Y-66602380D01*
X124694047Y-67078571D01*
X124741666Y-67030952D01*
X124836904Y-66983333D01*
X125075000Y-66983333D01*
X125170238Y-67030952D01*
X125217857Y-67078571D01*
X125265476Y-67173809D01*
X125265476Y-67411904D01*
X125217857Y-67507142D01*
X125170238Y-67554761D01*
X125075000Y-67602380D01*
X124836904Y-67602380D01*
X124741666Y-67554761D01*
X124694047Y-67507142D01*
%TO.C,J3*%
X126312380Y-89733333D02*
X127026666Y-89733333D01*
X127169523Y-89780952D01*
X127264761Y-89876190D01*
X127312380Y-90019047D01*
X127312380Y-90114285D01*
X126312380Y-89352380D02*
X126312380Y-88733333D01*
X126693333Y-89066666D01*
X126693333Y-88923809D01*
X126740952Y-88828571D01*
X126788571Y-88780952D01*
X126883809Y-88733333D01*
X127121904Y-88733333D01*
X127217142Y-88780952D01*
X127264761Y-88828571D01*
X127312380Y-88923809D01*
X127312380Y-89209523D01*
X127264761Y-89304761D01*
X127217142Y-89352380D01*
%TO.C,C53*%
X107621483Y-43915995D02*
X107573864Y-43963614D01*
X107431007Y-44011233D01*
X107335769Y-44011233D01*
X107192912Y-43963614D01*
X107097674Y-43868376D01*
X107050055Y-43773138D01*
X107002436Y-43582662D01*
X107002436Y-43439805D01*
X107050055Y-43249329D01*
X107097674Y-43154091D01*
X107192912Y-43058853D01*
X107335769Y-43011233D01*
X107431007Y-43011233D01*
X107573864Y-43058853D01*
X107621483Y-43106472D01*
X108526245Y-43011233D02*
X108050055Y-43011233D01*
X108002436Y-43487424D01*
X108050055Y-43439805D01*
X108145293Y-43392186D01*
X108383388Y-43392186D01*
X108478626Y-43439805D01*
X108526245Y-43487424D01*
X108573864Y-43582662D01*
X108573864Y-43820757D01*
X108526245Y-43915995D01*
X108478626Y-43963614D01*
X108383388Y-44011233D01*
X108145293Y-44011233D01*
X108050055Y-43963614D01*
X108002436Y-43915995D01*
X108907198Y-43011233D02*
X109526245Y-43011233D01*
X109192912Y-43392186D01*
X109335769Y-43392186D01*
X109431007Y-43439805D01*
X109478626Y-43487424D01*
X109526245Y-43582662D01*
X109526245Y-43820757D01*
X109478626Y-43915995D01*
X109431007Y-43963614D01*
X109335769Y-44011233D01*
X109050055Y-44011233D01*
X108954817Y-43963614D01*
X108907198Y-43915995D01*
%TO.C,SW24*%
X197690476Y-101974761D02*
X197833333Y-102022380D01*
X198071428Y-102022380D01*
X198166666Y-101974761D01*
X198214285Y-101927142D01*
X198261904Y-101831904D01*
X198261904Y-101736666D01*
X198214285Y-101641428D01*
X198166666Y-101593809D01*
X198071428Y-101546190D01*
X197880952Y-101498571D01*
X197785714Y-101450952D01*
X197738095Y-101403333D01*
X197690476Y-101308095D01*
X197690476Y-101212857D01*
X197738095Y-101117619D01*
X197785714Y-101070000D01*
X197880952Y-101022380D01*
X198119047Y-101022380D01*
X198261904Y-101070000D01*
X198595238Y-101022380D02*
X198833333Y-102022380D01*
X199023809Y-101308095D01*
X199214285Y-102022380D01*
X199452380Y-101022380D01*
X199785714Y-101117619D02*
X199833333Y-101070000D01*
X199928571Y-101022380D01*
X200166666Y-101022380D01*
X200261904Y-101070000D01*
X200309523Y-101117619D01*
X200357142Y-101212857D01*
X200357142Y-101308095D01*
X200309523Y-101450952D01*
X199738095Y-102022380D01*
X200357142Y-102022380D01*
X201214285Y-101355714D02*
X201214285Y-102022380D01*
X200976190Y-100974761D02*
X200738095Y-101689047D01*
X201357142Y-101689047D01*
%TO.C,C65*%
X112487142Y-72297142D02*
X112439523Y-72344761D01*
X112296666Y-72392380D01*
X112201428Y-72392380D01*
X112058571Y-72344761D01*
X111963333Y-72249523D01*
X111915714Y-72154285D01*
X111868095Y-71963809D01*
X111868095Y-71820952D01*
X111915714Y-71630476D01*
X111963333Y-71535238D01*
X112058571Y-71440000D01*
X112201428Y-71392380D01*
X112296666Y-71392380D01*
X112439523Y-71440000D01*
X112487142Y-71487619D01*
X113344285Y-71392380D02*
X113153809Y-71392380D01*
X113058571Y-71440000D01*
X113010952Y-71487619D01*
X112915714Y-71630476D01*
X112868095Y-71820952D01*
X112868095Y-72201904D01*
X112915714Y-72297142D01*
X112963333Y-72344761D01*
X113058571Y-72392380D01*
X113249047Y-72392380D01*
X113344285Y-72344761D01*
X113391904Y-72297142D01*
X113439523Y-72201904D01*
X113439523Y-71963809D01*
X113391904Y-71868571D01*
X113344285Y-71820952D01*
X113249047Y-71773333D01*
X113058571Y-71773333D01*
X112963333Y-71820952D01*
X112915714Y-71868571D01*
X112868095Y-71963809D01*
X114344285Y-71392380D02*
X113868095Y-71392380D01*
X113820476Y-71868571D01*
X113868095Y-71820952D01*
X113963333Y-71773333D01*
X114201428Y-71773333D01*
X114296666Y-71820952D01*
X114344285Y-71868571D01*
X114391904Y-71963809D01*
X114391904Y-72201904D01*
X114344285Y-72297142D01*
X114296666Y-72344761D01*
X114201428Y-72392380D01*
X113963333Y-72392380D01*
X113868095Y-72344761D01*
X113820476Y-72297142D01*
%TO.C,C62*%
X127407144Y-66357143D02*
X127359525Y-66404762D01*
X127216668Y-66452381D01*
X127121430Y-66452381D01*
X126978573Y-66404762D01*
X126883335Y-66309524D01*
X126835716Y-66214286D01*
X126788097Y-66023810D01*
X126788097Y-65880953D01*
X126835716Y-65690477D01*
X126883335Y-65595239D01*
X126978573Y-65500001D01*
X127121430Y-65452381D01*
X127216668Y-65452381D01*
X127359525Y-65500001D01*
X127407144Y-65547620D01*
X128264287Y-65452381D02*
X128073811Y-65452381D01*
X127978573Y-65500001D01*
X127930954Y-65547620D01*
X127835716Y-65690477D01*
X127788097Y-65880953D01*
X127788097Y-66261905D01*
X127835716Y-66357143D01*
X127883335Y-66404762D01*
X127978573Y-66452381D01*
X128169049Y-66452381D01*
X128264287Y-66404762D01*
X128311906Y-66357143D01*
X128359525Y-66261905D01*
X128359525Y-66023810D01*
X128311906Y-65928572D01*
X128264287Y-65880953D01*
X128169049Y-65833334D01*
X127978573Y-65833334D01*
X127883335Y-65880953D01*
X127835716Y-65928572D01*
X127788097Y-66023810D01*
X128740478Y-65547620D02*
X128788097Y-65500001D01*
X128883335Y-65452381D01*
X129121430Y-65452381D01*
X129216668Y-65500001D01*
X129264287Y-65547620D01*
X129311906Y-65642858D01*
X129311906Y-65738096D01*
X129264287Y-65880953D01*
X128692859Y-66452381D01*
X129311906Y-66452381D01*
%TO.C,R9*%
X142458333Y-41627380D02*
X142125000Y-41151190D01*
X141886904Y-41627380D02*
X141886904Y-40627380D01*
X142267857Y-40627380D01*
X142363095Y-40675000D01*
X142410714Y-40722619D01*
X142458333Y-40817857D01*
X142458333Y-40960714D01*
X142410714Y-41055952D01*
X142363095Y-41103571D01*
X142267857Y-41151190D01*
X141886904Y-41151190D01*
X142934523Y-41627380D02*
X143125000Y-41627380D01*
X143220238Y-41579761D01*
X143267857Y-41532142D01*
X143363095Y-41389285D01*
X143410714Y-41198809D01*
X143410714Y-40817857D01*
X143363095Y-40722619D01*
X143315476Y-40675000D01*
X143220238Y-40627380D01*
X143029761Y-40627380D01*
X142934523Y-40675000D01*
X142886904Y-40722619D01*
X142839285Y-40817857D01*
X142839285Y-41055952D01*
X142886904Y-41151190D01*
X142934523Y-41198809D01*
X143029761Y-41246428D01*
X143220238Y-41246428D01*
X143315476Y-41198809D01*
X143363095Y-41151190D01*
X143410714Y-41055952D01*
%TO.C,SW16*%
X182760476Y-32974761D02*
X182903333Y-33022380D01*
X183141428Y-33022380D01*
X183236666Y-32974761D01*
X183284285Y-32927142D01*
X183331904Y-32831904D01*
X183331904Y-32736666D01*
X183284285Y-32641428D01*
X183236666Y-32593809D01*
X183141428Y-32546190D01*
X182950952Y-32498571D01*
X182855714Y-32450952D01*
X182808095Y-32403333D01*
X182760476Y-32308095D01*
X182760476Y-32212857D01*
X182808095Y-32117619D01*
X182855714Y-32070000D01*
X182950952Y-32022380D01*
X183189047Y-32022380D01*
X183331904Y-32070000D01*
X183665238Y-32022380D02*
X183903333Y-33022380D01*
X184093809Y-32308095D01*
X184284285Y-33022380D01*
X184522380Y-32022380D01*
X185427142Y-33022380D02*
X184855714Y-33022380D01*
X185141428Y-33022380D02*
X185141428Y-32022380D01*
X185046190Y-32165238D01*
X184950952Y-32260476D01*
X184855714Y-32308095D01*
X186284285Y-32022380D02*
X186093809Y-32022380D01*
X185998571Y-32070000D01*
X185950952Y-32117619D01*
X185855714Y-32260476D01*
X185808095Y-32450952D01*
X185808095Y-32831904D01*
X185855714Y-32927142D01*
X185903333Y-32974761D01*
X185998571Y-33022380D01*
X186189047Y-33022380D01*
X186284285Y-32974761D01*
X186331904Y-32927142D01*
X186379523Y-32831904D01*
X186379523Y-32593809D01*
X186331904Y-32498571D01*
X186284285Y-32450952D01*
X186189047Y-32403333D01*
X185998571Y-32403333D01*
X185903333Y-32450952D01*
X185855714Y-32498571D01*
X185808095Y-32593809D01*
%TO.C,D38*%
X240355714Y-101322380D02*
X240355714Y-100322380D01*
X240593809Y-100322380D01*
X240736666Y-100370000D01*
X240831904Y-100465238D01*
X240879523Y-100560476D01*
X240927142Y-100750952D01*
X240927142Y-100893809D01*
X240879523Y-101084285D01*
X240831904Y-101179523D01*
X240736666Y-101274761D01*
X240593809Y-101322380D01*
X240355714Y-101322380D01*
X241260476Y-100322380D02*
X241879523Y-100322380D01*
X241546190Y-100703333D01*
X241689047Y-100703333D01*
X241784285Y-100750952D01*
X241831904Y-100798571D01*
X241879523Y-100893809D01*
X241879523Y-101131904D01*
X241831904Y-101227142D01*
X241784285Y-101274761D01*
X241689047Y-101322380D01*
X241403333Y-101322380D01*
X241308095Y-101274761D01*
X241260476Y-101227142D01*
X242450952Y-100750952D02*
X242355714Y-100703333D01*
X242308095Y-100655714D01*
X242260476Y-100560476D01*
X242260476Y-100512857D01*
X242308095Y-100417619D01*
X242355714Y-100370000D01*
X242450952Y-100322380D01*
X242641428Y-100322380D01*
X242736666Y-100370000D01*
X242784285Y-100417619D01*
X242831904Y-100512857D01*
X242831904Y-100560476D01*
X242784285Y-100655714D01*
X242736666Y-100703333D01*
X242641428Y-100750952D01*
X242450952Y-100750952D01*
X242355714Y-100798571D01*
X242308095Y-100846190D01*
X242260476Y-100941428D01*
X242260476Y-101131904D01*
X242308095Y-101227142D01*
X242355714Y-101274761D01*
X242450952Y-101322380D01*
X242641428Y-101322380D01*
X242736666Y-101274761D01*
X242784285Y-101227142D01*
X242831904Y-101131904D01*
X242831904Y-100941428D01*
X242784285Y-100846190D01*
X242736666Y-100798571D01*
X242641428Y-100750952D01*
X246005714Y-99422380D02*
X245434285Y-99422380D01*
X245720000Y-99422380D02*
X245720000Y-98422380D01*
X245624761Y-98565238D01*
X245529523Y-98660476D01*
X245434285Y-98708095D01*
%TO.C,D31*%
X202355714Y-153322380D02*
X202355714Y-152322380D01*
X202593809Y-152322380D01*
X202736666Y-152370000D01*
X202831904Y-152465238D01*
X202879523Y-152560476D01*
X202927142Y-152750952D01*
X202927142Y-152893809D01*
X202879523Y-153084285D01*
X202831904Y-153179523D01*
X202736666Y-153274761D01*
X202593809Y-153322380D01*
X202355714Y-153322380D01*
X203260476Y-152322380D02*
X203879523Y-152322380D01*
X203546190Y-152703333D01*
X203689047Y-152703333D01*
X203784285Y-152750952D01*
X203831904Y-152798571D01*
X203879523Y-152893809D01*
X203879523Y-153131904D01*
X203831904Y-153227142D01*
X203784285Y-153274761D01*
X203689047Y-153322380D01*
X203403333Y-153322380D01*
X203308095Y-153274761D01*
X203260476Y-153227142D01*
X204831904Y-153322380D02*
X204260476Y-153322380D01*
X204546190Y-153322380D02*
X204546190Y-152322380D01*
X204450952Y-152465238D01*
X204355714Y-152560476D01*
X204260476Y-152608095D01*
X204760714Y-151527380D02*
X204189285Y-151527380D01*
X204475000Y-151527380D02*
X204475000Y-150527380D01*
X204379761Y-150670238D01*
X204284523Y-150765476D01*
X204189285Y-150813095D01*
%TO.C,U2*%
X113231156Y-85778210D02*
X112658736Y-86350630D01*
X112625064Y-86451645D01*
X112625064Y-86518989D01*
X112658736Y-86620004D01*
X112793423Y-86754691D01*
X112894438Y-86788363D01*
X112961782Y-86788363D01*
X113062797Y-86754691D01*
X113635217Y-86182271D01*
X113870919Y-86552661D02*
X113938262Y-86552661D01*
X114039278Y-86586332D01*
X114207636Y-86754691D01*
X114241308Y-86855706D01*
X114241308Y-86923050D01*
X114207636Y-87024065D01*
X114140293Y-87091409D01*
X114005606Y-87158752D01*
X113197484Y-87158752D01*
X113635217Y-87596485D01*
X122418619Y-76423600D02*
X122180523Y-76423600D01*
X122275761Y-76185504D02*
X122180523Y-76423600D01*
X122275761Y-76661695D01*
X121990047Y-76280742D02*
X122180523Y-76423600D01*
X121990047Y-76566457D01*
X121323380Y-76423600D02*
X121561476Y-76423600D01*
X121466238Y-76661695D02*
X121561476Y-76423600D01*
X121466238Y-76185504D01*
X121751952Y-76566457D02*
X121561476Y-76423600D01*
X121751952Y-76280742D01*
%TO.C,R13*%
X140857142Y-65877380D02*
X140523809Y-65401190D01*
X140285714Y-65877380D02*
X140285714Y-64877380D01*
X140666666Y-64877380D01*
X140761904Y-64925000D01*
X140809523Y-64972619D01*
X140857142Y-65067857D01*
X140857142Y-65210714D01*
X140809523Y-65305952D01*
X140761904Y-65353571D01*
X140666666Y-65401190D01*
X140285714Y-65401190D01*
X141809523Y-65877380D02*
X141238095Y-65877380D01*
X141523809Y-65877380D02*
X141523809Y-64877380D01*
X141428571Y-65020238D01*
X141333333Y-65115476D01*
X141238095Y-65163095D01*
X142142857Y-64877380D02*
X142761904Y-64877380D01*
X142428571Y-65258333D01*
X142571428Y-65258333D01*
X142666666Y-65305952D01*
X142714285Y-65353571D01*
X142761904Y-65448809D01*
X142761904Y-65686904D01*
X142714285Y-65782142D01*
X142666666Y-65829761D01*
X142571428Y-65877380D01*
X142285714Y-65877380D01*
X142190476Y-65829761D01*
X142142857Y-65782142D01*
%TO.C,R25*%
X112016721Y-34876710D02*
X111540531Y-35210043D01*
X112016721Y-35448138D02*
X111016721Y-35448138D01*
X111016721Y-35067186D01*
X111064341Y-34971948D01*
X111111960Y-34924329D01*
X111207198Y-34876710D01*
X111350055Y-34876710D01*
X111445293Y-34924329D01*
X111492912Y-34971948D01*
X111540531Y-35067186D01*
X111540531Y-35448138D01*
X111111960Y-34495757D02*
X111064341Y-34448138D01*
X111016721Y-34352900D01*
X111016721Y-34114805D01*
X111064341Y-34019567D01*
X111111960Y-33971948D01*
X111207198Y-33924329D01*
X111302436Y-33924329D01*
X111445293Y-33971948D01*
X112016721Y-34543376D01*
X112016721Y-33924329D01*
X111016721Y-33019567D02*
X111016721Y-33495757D01*
X111492912Y-33543376D01*
X111445293Y-33495757D01*
X111397674Y-33400519D01*
X111397674Y-33162424D01*
X111445293Y-33067186D01*
X111492912Y-33019567D01*
X111588150Y-32971948D01*
X111826245Y-32971948D01*
X111921483Y-33019567D01*
X111969102Y-33067186D01*
X112016721Y-33162424D01*
X112016721Y-33400519D01*
X111969102Y-33495757D01*
X111921483Y-33543376D01*
%TO.C,D44*%
X208355714Y-69322380D02*
X208355714Y-68322380D01*
X208593809Y-68322380D01*
X208736666Y-68370000D01*
X208831904Y-68465238D01*
X208879523Y-68560476D01*
X208927142Y-68750952D01*
X208927142Y-68893809D01*
X208879523Y-69084285D01*
X208831904Y-69179523D01*
X208736666Y-69274761D01*
X208593809Y-69322380D01*
X208355714Y-69322380D01*
X209784285Y-68655714D02*
X209784285Y-69322380D01*
X209546190Y-68274761D02*
X209308095Y-68989047D01*
X209927142Y-68989047D01*
X210736666Y-68655714D02*
X210736666Y-69322380D01*
X210498571Y-68274761D02*
X210260476Y-68989047D01*
X210879523Y-68989047D01*
X209185714Y-71272380D02*
X208614285Y-71272380D01*
X208900000Y-71272380D02*
X208900000Y-70272380D01*
X208804761Y-70415238D01*
X208709523Y-70510476D01*
X208614285Y-70558095D01*
%TO.C,C2*%
X107043333Y-92787142D02*
X106995714Y-92834761D01*
X106852857Y-92882380D01*
X106757619Y-92882380D01*
X106614761Y-92834761D01*
X106519523Y-92739523D01*
X106471904Y-92644285D01*
X106424285Y-92453809D01*
X106424285Y-92310952D01*
X106471904Y-92120476D01*
X106519523Y-92025238D01*
X106614761Y-91930000D01*
X106757619Y-91882380D01*
X106852857Y-91882380D01*
X106995714Y-91930000D01*
X107043333Y-91977619D01*
X107424285Y-91977619D02*
X107471904Y-91930000D01*
X107567142Y-91882380D01*
X107805238Y-91882380D01*
X107900476Y-91930000D01*
X107948095Y-91977619D01*
X107995714Y-92072857D01*
X107995714Y-92168095D01*
X107948095Y-92310952D01*
X107376666Y-92882380D01*
X107995714Y-92882380D01*
%TO.C,D53*%
X116065714Y-99932380D02*
X116065714Y-98932380D01*
X116303809Y-98932380D01*
X116446666Y-98980000D01*
X116541904Y-99075238D01*
X116589523Y-99170476D01*
X116637142Y-99360952D01*
X116637142Y-99503809D01*
X116589523Y-99694285D01*
X116541904Y-99789523D01*
X116446666Y-99884761D01*
X116303809Y-99932380D01*
X116065714Y-99932380D01*
X117541904Y-98932380D02*
X117065714Y-98932380D01*
X117018095Y-99408571D01*
X117065714Y-99360952D01*
X117160952Y-99313333D01*
X117399047Y-99313333D01*
X117494285Y-99360952D01*
X117541904Y-99408571D01*
X117589523Y-99503809D01*
X117589523Y-99741904D01*
X117541904Y-99837142D01*
X117494285Y-99884761D01*
X117399047Y-99932380D01*
X117160952Y-99932380D01*
X117065714Y-99884761D01*
X117018095Y-99837142D01*
X117922857Y-98932380D02*
X118541904Y-98932380D01*
X118208571Y-99313333D01*
X118351428Y-99313333D01*
X118446666Y-99360952D01*
X118494285Y-99408571D01*
X118541904Y-99503809D01*
X118541904Y-99741904D01*
X118494285Y-99837142D01*
X118446666Y-99884761D01*
X118351428Y-99932380D01*
X118065714Y-99932380D01*
X117970476Y-99884761D01*
X117922857Y-99837142D01*
%TO.C,SW23*%
X201760476Y-82974761D02*
X201903333Y-83022380D01*
X202141428Y-83022380D01*
X202236666Y-82974761D01*
X202284285Y-82927142D01*
X202331904Y-82831904D01*
X202331904Y-82736666D01*
X202284285Y-82641428D01*
X202236666Y-82593809D01*
X202141428Y-82546190D01*
X201950952Y-82498571D01*
X201855714Y-82450952D01*
X201808095Y-82403333D01*
X201760476Y-82308095D01*
X201760476Y-82212857D01*
X201808095Y-82117619D01*
X201855714Y-82070000D01*
X201950952Y-82022380D01*
X202189047Y-82022380D01*
X202331904Y-82070000D01*
X202665238Y-82022380D02*
X202903333Y-83022380D01*
X203093809Y-82308095D01*
X203284285Y-83022380D01*
X203522380Y-82022380D01*
X203855714Y-82117619D02*
X203903333Y-82070000D01*
X203998571Y-82022380D01*
X204236666Y-82022380D01*
X204331904Y-82070000D01*
X204379523Y-82117619D01*
X204427142Y-82212857D01*
X204427142Y-82308095D01*
X204379523Y-82450952D01*
X203808095Y-83022380D01*
X204427142Y-83022380D01*
X204760476Y-82022380D02*
X205379523Y-82022380D01*
X205046190Y-82403333D01*
X205189047Y-82403333D01*
X205284285Y-82450952D01*
X205331904Y-82498571D01*
X205379523Y-82593809D01*
X205379523Y-82831904D01*
X205331904Y-82927142D01*
X205284285Y-82974761D01*
X205189047Y-83022380D01*
X204903333Y-83022380D01*
X204808095Y-82974761D01*
X204760476Y-82927142D01*
%TO.C,D52*%
X119591721Y-33473138D02*
X118591721Y-33473138D01*
X118591721Y-33235043D01*
X118639341Y-33092186D01*
X118734579Y-32996948D01*
X118829817Y-32949329D01*
X119020293Y-32901710D01*
X119163150Y-32901710D01*
X119353626Y-32949329D01*
X119448864Y-32996948D01*
X119544102Y-33092186D01*
X119591721Y-33235043D01*
X119591721Y-33473138D01*
X118591721Y-31996948D02*
X118591721Y-32473138D01*
X119067912Y-32520757D01*
X119020293Y-32473138D01*
X118972674Y-32377900D01*
X118972674Y-32139805D01*
X119020293Y-32044567D01*
X119067912Y-31996948D01*
X119163150Y-31949329D01*
X119401245Y-31949329D01*
X119496483Y-31996948D01*
X119544102Y-32044567D01*
X119591721Y-32139805D01*
X119591721Y-32377900D01*
X119544102Y-32473138D01*
X119496483Y-32520757D01*
X118686960Y-31568376D02*
X118639341Y-31520757D01*
X118591721Y-31425519D01*
X118591721Y-31187424D01*
X118639341Y-31092186D01*
X118686960Y-31044567D01*
X118782198Y-30996948D01*
X118877436Y-30996948D01*
X119020293Y-31044567D01*
X119591721Y-31615995D01*
X119591721Y-30996948D01*
%TO.C,R24*%
X114371483Y-57436233D02*
X114038150Y-56960043D01*
X113800055Y-57436233D02*
X113800055Y-56436233D01*
X114181007Y-56436233D01*
X114276245Y-56483853D01*
X114323864Y-56531472D01*
X114371483Y-56626710D01*
X114371483Y-56769567D01*
X114323864Y-56864805D01*
X114276245Y-56912424D01*
X114181007Y-56960043D01*
X113800055Y-56960043D01*
X114752436Y-56531472D02*
X114800055Y-56483853D01*
X114895293Y-56436233D01*
X115133388Y-56436233D01*
X115228626Y-56483853D01*
X115276245Y-56531472D01*
X115323864Y-56626710D01*
X115323864Y-56721948D01*
X115276245Y-56864805D01*
X114704817Y-57436233D01*
X115323864Y-57436233D01*
X116181007Y-56769567D02*
X116181007Y-57436233D01*
X115942912Y-56388614D02*
X115704817Y-57102900D01*
X116323864Y-57102900D01*
%TO.C,J1*%
X145056666Y-154559880D02*
X145056666Y-155274166D01*
X145009047Y-155417023D01*
X144913809Y-155512261D01*
X144770952Y-155559880D01*
X144675714Y-155559880D01*
X146056666Y-155559880D02*
X145485238Y-155559880D01*
X145770952Y-155559880D02*
X145770952Y-154559880D01*
X145675714Y-154702738D01*
X145580476Y-154797976D01*
X145485238Y-154845595D01*
%TO.C,SW1*%
X82686666Y-100124761D02*
X82829523Y-100172380D01*
X83067619Y-100172380D01*
X83162857Y-100124761D01*
X83210476Y-100077142D01*
X83258095Y-99981904D01*
X83258095Y-99886666D01*
X83210476Y-99791428D01*
X83162857Y-99743809D01*
X83067619Y-99696190D01*
X82877142Y-99648571D01*
X82781904Y-99600952D01*
X82734285Y-99553333D01*
X82686666Y-99458095D01*
X82686666Y-99362857D01*
X82734285Y-99267619D01*
X82781904Y-99220000D01*
X82877142Y-99172380D01*
X83115238Y-99172380D01*
X83258095Y-99220000D01*
X83591428Y-99172380D02*
X83829523Y-100172380D01*
X84020000Y-99458095D01*
X84210476Y-100172380D01*
X84448571Y-99172380D01*
X85353333Y-100172380D02*
X84781904Y-100172380D01*
X85067619Y-100172380D02*
X85067619Y-99172380D01*
X84972380Y-99315238D01*
X84877142Y-99410476D01*
X84781904Y-99458095D01*
%TO.C,SW32*%
X257760476Y-57974761D02*
X257903333Y-58022380D01*
X258141428Y-58022380D01*
X258236666Y-57974761D01*
X258284285Y-57927142D01*
X258331904Y-57831904D01*
X258331904Y-57736666D01*
X258284285Y-57641428D01*
X258236666Y-57593809D01*
X258141428Y-57546190D01*
X257950952Y-57498571D01*
X257855714Y-57450952D01*
X257808095Y-57403333D01*
X257760476Y-57308095D01*
X257760476Y-57212857D01*
X257808095Y-57117619D01*
X257855714Y-57070000D01*
X257950952Y-57022380D01*
X258189047Y-57022380D01*
X258331904Y-57070000D01*
X258665238Y-57022380D02*
X258903333Y-58022380D01*
X259093809Y-57308095D01*
X259284285Y-58022380D01*
X259522380Y-57022380D01*
X259808095Y-57022380D02*
X260427142Y-57022380D01*
X260093809Y-57403333D01*
X260236666Y-57403333D01*
X260331904Y-57450952D01*
X260379523Y-57498571D01*
X260427142Y-57593809D01*
X260427142Y-57831904D01*
X260379523Y-57927142D01*
X260331904Y-57974761D01*
X260236666Y-58022380D01*
X259950952Y-58022380D01*
X259855714Y-57974761D01*
X259808095Y-57927142D01*
X260808095Y-57117619D02*
X260855714Y-57070000D01*
X260950952Y-57022380D01*
X261189047Y-57022380D01*
X261284285Y-57070000D01*
X261331904Y-57117619D01*
X261379523Y-57212857D01*
X261379523Y-57308095D01*
X261331904Y-57450952D01*
X260760476Y-58022380D01*
X261379523Y-58022380D01*
%TO.C,H5*%
X197238095Y-156252380D02*
X197238095Y-155252380D01*
X197238095Y-155728571D02*
X197809523Y-155728571D01*
X197809523Y-156252380D02*
X197809523Y-155252380D01*
X198761904Y-155252380D02*
X198285714Y-155252380D01*
X198238095Y-155728571D01*
X198285714Y-155680952D01*
X198380952Y-155633333D01*
X198619047Y-155633333D01*
X198714285Y-155680952D01*
X198761904Y-155728571D01*
X198809523Y-155823809D01*
X198809523Y-156061904D01*
X198761904Y-156157142D01*
X198714285Y-156204761D01*
X198619047Y-156252380D01*
X198380952Y-156252380D01*
X198285714Y-156204761D01*
X198238095Y-156157142D01*
%TO.C,R1*%
X113053333Y-94432380D02*
X112720000Y-93956190D01*
X112481904Y-94432380D02*
X112481904Y-93432380D01*
X112862857Y-93432380D01*
X112958095Y-93480000D01*
X113005714Y-93527619D01*
X113053333Y-93622857D01*
X113053333Y-93765714D01*
X113005714Y-93860952D01*
X112958095Y-93908571D01*
X112862857Y-93956190D01*
X112481904Y-93956190D01*
X114005714Y-94432380D02*
X113434285Y-94432380D01*
X113720000Y-94432380D02*
X113720000Y-93432380D01*
X113624761Y-93575238D01*
X113529523Y-93670476D01*
X113434285Y-93718095D01*
%TO.C,SW20*%
X182760476Y-134974761D02*
X182903333Y-135022380D01*
X183141428Y-135022380D01*
X183236666Y-134974761D01*
X183284285Y-134927142D01*
X183331904Y-134831904D01*
X183331904Y-134736666D01*
X183284285Y-134641428D01*
X183236666Y-134593809D01*
X183141428Y-134546190D01*
X182950952Y-134498571D01*
X182855714Y-134450952D01*
X182808095Y-134403333D01*
X182760476Y-134308095D01*
X182760476Y-134212857D01*
X182808095Y-134117619D01*
X182855714Y-134070000D01*
X182950952Y-134022380D01*
X183189047Y-134022380D01*
X183331904Y-134070000D01*
X183665238Y-134022380D02*
X183903333Y-135022380D01*
X184093809Y-134308095D01*
X184284285Y-135022380D01*
X184522380Y-134022380D01*
X184855714Y-134117619D02*
X184903333Y-134070000D01*
X184998571Y-134022380D01*
X185236666Y-134022380D01*
X185331904Y-134070000D01*
X185379523Y-134117619D01*
X185427142Y-134212857D01*
X185427142Y-134308095D01*
X185379523Y-134450952D01*
X184808095Y-135022380D01*
X185427142Y-135022380D01*
X186046190Y-134022380D02*
X186141428Y-134022380D01*
X186236666Y-134070000D01*
X186284285Y-134117619D01*
X186331904Y-134212857D01*
X186379523Y-134403333D01*
X186379523Y-134641428D01*
X186331904Y-134831904D01*
X186284285Y-134927142D01*
X186236666Y-134974761D01*
X186141428Y-135022380D01*
X186046190Y-135022380D01*
X185950952Y-134974761D01*
X185903333Y-134927142D01*
X185855714Y-134831904D01*
X185808095Y-134641428D01*
X185808095Y-134403333D01*
X185855714Y-134212857D01*
X185903333Y-134117619D01*
X185950952Y-134070000D01*
X186046190Y-134022380D01*
%TO.C,R17*%
X142757142Y-109277380D02*
X142423809Y-108801190D01*
X142185714Y-109277380D02*
X142185714Y-108277380D01*
X142566666Y-108277380D01*
X142661904Y-108325000D01*
X142709523Y-108372619D01*
X142757142Y-108467857D01*
X142757142Y-108610714D01*
X142709523Y-108705952D01*
X142661904Y-108753571D01*
X142566666Y-108801190D01*
X142185714Y-108801190D01*
X143709523Y-109277380D02*
X143138095Y-109277380D01*
X143423809Y-109277380D02*
X143423809Y-108277380D01*
X143328571Y-108420238D01*
X143233333Y-108515476D01*
X143138095Y-108563095D01*
X144042857Y-108277380D02*
X144709523Y-108277380D01*
X144280952Y-109277380D01*
%TO.C,C16*%
X79867142Y-76087142D02*
X79819523Y-76134761D01*
X79676666Y-76182380D01*
X79581428Y-76182380D01*
X79438571Y-76134761D01*
X79343333Y-76039523D01*
X79295714Y-75944285D01*
X79248095Y-75753809D01*
X79248095Y-75610952D01*
X79295714Y-75420476D01*
X79343333Y-75325238D01*
X79438571Y-75230000D01*
X79581428Y-75182380D01*
X79676666Y-75182380D01*
X79819523Y-75230000D01*
X79867142Y-75277619D01*
X80819523Y-76182380D02*
X80248095Y-76182380D01*
X80533809Y-76182380D02*
X80533809Y-75182380D01*
X80438571Y-75325238D01*
X80343333Y-75420476D01*
X80248095Y-75468095D01*
X81676666Y-75182380D02*
X81486190Y-75182380D01*
X81390952Y-75230000D01*
X81343333Y-75277619D01*
X81248095Y-75420476D01*
X81200476Y-75610952D01*
X81200476Y-75991904D01*
X81248095Y-76087142D01*
X81295714Y-76134761D01*
X81390952Y-76182380D01*
X81581428Y-76182380D01*
X81676666Y-76134761D01*
X81724285Y-76087142D01*
X81771904Y-75991904D01*
X81771904Y-75753809D01*
X81724285Y-75658571D01*
X81676666Y-75610952D01*
X81581428Y-75563333D01*
X81390952Y-75563333D01*
X81295714Y-75610952D01*
X81248095Y-75658571D01*
X81200476Y-75753809D01*
%TO.C,C54*%
X94691483Y-57226710D02*
X94739102Y-57274329D01*
X94786721Y-57417186D01*
X94786721Y-57512424D01*
X94739102Y-57655281D01*
X94643864Y-57750519D01*
X94548626Y-57798138D01*
X94358150Y-57845757D01*
X94215293Y-57845757D01*
X94024817Y-57798138D01*
X93929579Y-57750519D01*
X93834341Y-57655281D01*
X93786721Y-57512424D01*
X93786721Y-57417186D01*
X93834341Y-57274329D01*
X93881960Y-57226710D01*
X93786721Y-56321948D02*
X93786721Y-56798138D01*
X94262912Y-56845757D01*
X94215293Y-56798138D01*
X94167674Y-56702900D01*
X94167674Y-56464805D01*
X94215293Y-56369567D01*
X94262912Y-56321948D01*
X94358150Y-56274329D01*
X94596245Y-56274329D01*
X94691483Y-56321948D01*
X94739102Y-56369567D01*
X94786721Y-56464805D01*
X94786721Y-56702900D01*
X94739102Y-56798138D01*
X94691483Y-56845757D01*
X94120055Y-55417186D02*
X94786721Y-55417186D01*
X93739102Y-55655281D02*
X94453388Y-55893376D01*
X94453388Y-55274329D01*
%TO.C,H2*%
X202068095Y-30212380D02*
X202068095Y-29212380D01*
X202068095Y-29688571D02*
X202639523Y-29688571D01*
X202639523Y-30212380D02*
X202639523Y-29212380D01*
X203068095Y-29307619D02*
X203115714Y-29260000D01*
X203210952Y-29212380D01*
X203449047Y-29212380D01*
X203544285Y-29260000D01*
X203591904Y-29307619D01*
X203639523Y-29402857D01*
X203639523Y-29498095D01*
X203591904Y-29640952D01*
X203020476Y-30212380D01*
X203639523Y-30212380D01*
%TO.C,SW29*%
X217165476Y-102029761D02*
X217308333Y-102077380D01*
X217546428Y-102077380D01*
X217641666Y-102029761D01*
X217689285Y-101982142D01*
X217736904Y-101886904D01*
X217736904Y-101791666D01*
X217689285Y-101696428D01*
X217641666Y-101648809D01*
X217546428Y-101601190D01*
X217355952Y-101553571D01*
X217260714Y-101505952D01*
X217213095Y-101458333D01*
X217165476Y-101363095D01*
X217165476Y-101267857D01*
X217213095Y-101172619D01*
X217260714Y-101125000D01*
X217355952Y-101077380D01*
X217594047Y-101077380D01*
X217736904Y-101125000D01*
X218070238Y-101077380D02*
X218308333Y-102077380D01*
X218498809Y-101363095D01*
X218689285Y-102077380D01*
X218927380Y-101077380D01*
X219260714Y-101172619D02*
X219308333Y-101125000D01*
X219403571Y-101077380D01*
X219641666Y-101077380D01*
X219736904Y-101125000D01*
X219784523Y-101172619D01*
X219832142Y-101267857D01*
X219832142Y-101363095D01*
X219784523Y-101505952D01*
X219213095Y-102077380D01*
X219832142Y-102077380D01*
X220308333Y-102077380D02*
X220498809Y-102077380D01*
X220594047Y-102029761D01*
X220641666Y-101982142D01*
X220736904Y-101839285D01*
X220784523Y-101648809D01*
X220784523Y-101267857D01*
X220736904Y-101172619D01*
X220689285Y-101125000D01*
X220594047Y-101077380D01*
X220403571Y-101077380D01*
X220308333Y-101125000D01*
X220260714Y-101172619D01*
X220213095Y-101267857D01*
X220213095Y-101505952D01*
X220260714Y-101601190D01*
X220308333Y-101648809D01*
X220403571Y-101696428D01*
X220594047Y-101696428D01*
X220689285Y-101648809D01*
X220736904Y-101601190D01*
X220784523Y-101505952D01*
%TO.C,C60*%
X125016483Y-47001710D02*
X125064102Y-47049329D01*
X125111721Y-47192186D01*
X125111721Y-47287424D01*
X125064102Y-47430281D01*
X124968864Y-47525519D01*
X124873626Y-47573138D01*
X124683150Y-47620757D01*
X124540293Y-47620757D01*
X124349817Y-47573138D01*
X124254579Y-47525519D01*
X124159341Y-47430281D01*
X124111721Y-47287424D01*
X124111721Y-47192186D01*
X124159341Y-47049329D01*
X124206960Y-47001710D01*
X124111721Y-46144567D02*
X124111721Y-46335043D01*
X124159341Y-46430281D01*
X124206960Y-46477900D01*
X124349817Y-46573138D01*
X124540293Y-46620757D01*
X124921245Y-46620757D01*
X125016483Y-46573138D01*
X125064102Y-46525519D01*
X125111721Y-46430281D01*
X125111721Y-46239805D01*
X125064102Y-46144567D01*
X125016483Y-46096948D01*
X124921245Y-46049329D01*
X124683150Y-46049329D01*
X124587912Y-46096948D01*
X124540293Y-46144567D01*
X124492674Y-46239805D01*
X124492674Y-46430281D01*
X124540293Y-46525519D01*
X124587912Y-46573138D01*
X124683150Y-46620757D01*
X124111721Y-45430281D02*
X124111721Y-45335043D01*
X124159341Y-45239805D01*
X124206960Y-45192186D01*
X124302198Y-45144567D01*
X124492674Y-45096948D01*
X124730769Y-45096948D01*
X124921245Y-45144567D01*
X125016483Y-45192186D01*
X125064102Y-45239805D01*
X125111721Y-45335043D01*
X125111721Y-45430281D01*
X125064102Y-45525519D01*
X125016483Y-45573138D01*
X124921245Y-45620757D01*
X124730769Y-45668376D01*
X124492674Y-45668376D01*
X124302198Y-45620757D01*
X124206960Y-45573138D01*
X124159341Y-45525519D01*
X124111721Y-45430281D01*
%TO.C,U1*%
X101068095Y-108132380D02*
X101068095Y-108941904D01*
X101115714Y-109037142D01*
X101163333Y-109084761D01*
X101258571Y-109132380D01*
X101449047Y-109132380D01*
X101544285Y-109084761D01*
X101591904Y-109037142D01*
X101639523Y-108941904D01*
X101639523Y-108132380D01*
X102639523Y-109132380D02*
X102068095Y-109132380D01*
X102353809Y-109132380D02*
X102353809Y-108132380D01*
X102258571Y-108275238D01*
X102163333Y-108370476D01*
X102068095Y-108418095D01*
X109652871Y-97589940D02*
X109890967Y-97589940D01*
X109795729Y-97828035D02*
X109890967Y-97589940D01*
X109795729Y-97351844D01*
X110081443Y-97732797D02*
X109890967Y-97589940D01*
X110081443Y-97447082D01*
X110762252Y-97604082D02*
X110524156Y-97604082D01*
X110619394Y-97365986D02*
X110524156Y-97604082D01*
X110619394Y-97842177D01*
X110333680Y-97461224D02*
X110524156Y-97604082D01*
X110333680Y-97746939D01*
%TO.C,H1*%
X71978095Y-32222380D02*
X71978095Y-31222380D01*
X71978095Y-31698571D02*
X72549523Y-31698571D01*
X72549523Y-32222380D02*
X72549523Y-31222380D01*
X73549523Y-32222380D02*
X72978095Y-32222380D01*
X73263809Y-32222380D02*
X73263809Y-31222380D01*
X73168571Y-31365238D01*
X73073333Y-31460476D01*
X72978095Y-31508095D01*
%TO.C,D36*%
X209185714Y-51322380D02*
X209185714Y-50322380D01*
X209423809Y-50322380D01*
X209566666Y-50370000D01*
X209661904Y-50465238D01*
X209709523Y-50560476D01*
X209757142Y-50750952D01*
X209757142Y-50893809D01*
X209709523Y-51084285D01*
X209661904Y-51179523D01*
X209566666Y-51274761D01*
X209423809Y-51322380D01*
X209185714Y-51322380D01*
X210090476Y-50322380D02*
X210709523Y-50322380D01*
X210376190Y-50703333D01*
X210519047Y-50703333D01*
X210614285Y-50750952D01*
X210661904Y-50798571D01*
X210709523Y-50893809D01*
X210709523Y-51131904D01*
X210661904Y-51227142D01*
X210614285Y-51274761D01*
X210519047Y-51322380D01*
X210233333Y-51322380D01*
X210138095Y-51274761D01*
X210090476Y-51227142D01*
X211566666Y-50322380D02*
X211376190Y-50322380D01*
X211280952Y-50370000D01*
X211233333Y-50417619D01*
X211138095Y-50560476D01*
X211090476Y-50750952D01*
X211090476Y-51131904D01*
X211138095Y-51227142D01*
X211185714Y-51274761D01*
X211280952Y-51322380D01*
X211471428Y-51322380D01*
X211566666Y-51274761D01*
X211614285Y-51227142D01*
X211661904Y-51131904D01*
X211661904Y-50893809D01*
X211614285Y-50798571D01*
X211566666Y-50750952D01*
X211471428Y-50703333D01*
X211280952Y-50703333D01*
X211185714Y-50750952D01*
X211138095Y-50798571D01*
X211090476Y-50893809D01*
X214885714Y-49502380D02*
X214314285Y-49502380D01*
X214600000Y-49502380D02*
X214600000Y-48502380D01*
X214504761Y-48645238D01*
X214409523Y-48740476D01*
X214314285Y-48788095D01*
%TO.C,D37*%
X157635714Y-69347380D02*
X157635714Y-68347380D01*
X157873809Y-68347380D01*
X158016666Y-68395000D01*
X158111904Y-68490238D01*
X158159523Y-68585476D01*
X158207142Y-68775952D01*
X158207142Y-68918809D01*
X158159523Y-69109285D01*
X158111904Y-69204523D01*
X158016666Y-69299761D01*
X157873809Y-69347380D01*
X157635714Y-69347380D01*
X158540476Y-68347380D02*
X159159523Y-68347380D01*
X158826190Y-68728333D01*
X158969047Y-68728333D01*
X159064285Y-68775952D01*
X159111904Y-68823571D01*
X159159523Y-68918809D01*
X159159523Y-69156904D01*
X159111904Y-69252142D01*
X159064285Y-69299761D01*
X158969047Y-69347380D01*
X158683333Y-69347380D01*
X158588095Y-69299761D01*
X158540476Y-69252142D01*
X159492857Y-68347380D02*
X160159523Y-68347380D01*
X159730952Y-69347380D01*
X155705714Y-71222380D02*
X155134285Y-71222380D01*
X155420000Y-71222380D02*
X155420000Y-70222380D01*
X155324761Y-70365238D01*
X155229523Y-70460476D01*
X155134285Y-70508095D01*
%TO.C,R10*%
X142807142Y-91602380D02*
X142473809Y-91126190D01*
X142235714Y-91602380D02*
X142235714Y-90602380D01*
X142616666Y-90602380D01*
X142711904Y-90650000D01*
X142759523Y-90697619D01*
X142807142Y-90792857D01*
X142807142Y-90935714D01*
X142759523Y-91030952D01*
X142711904Y-91078571D01*
X142616666Y-91126190D01*
X142235714Y-91126190D01*
X143759523Y-91602380D02*
X143188095Y-91602380D01*
X143473809Y-91602380D02*
X143473809Y-90602380D01*
X143378571Y-90745238D01*
X143283333Y-90840476D01*
X143188095Y-90888095D01*
X144378571Y-90602380D02*
X144473809Y-90602380D01*
X144569047Y-90650000D01*
X144616666Y-90697619D01*
X144664285Y-90792857D01*
X144711904Y-90983333D01*
X144711904Y-91221428D01*
X144664285Y-91411904D01*
X144616666Y-91507142D01*
X144569047Y-91554761D01*
X144473809Y-91602380D01*
X144378571Y-91602380D01*
X144283333Y-91554761D01*
X144235714Y-91507142D01*
X144188095Y-91411904D01*
X144140476Y-91221428D01*
X144140476Y-90983333D01*
X144188095Y-90792857D01*
X144235714Y-90697619D01*
X144283333Y-90650000D01*
X144378571Y-90602380D01*
%TO.C,D55*%
X128985714Y-72162380D02*
X128985714Y-71162380D01*
X129223809Y-71162380D01*
X129366666Y-71210000D01*
X129461904Y-71305238D01*
X129509523Y-71400476D01*
X129557142Y-71590952D01*
X129557142Y-71733809D01*
X129509523Y-71924285D01*
X129461904Y-72019523D01*
X129366666Y-72114761D01*
X129223809Y-72162380D01*
X128985714Y-72162380D01*
X130461904Y-71162380D02*
X129985714Y-71162380D01*
X129938095Y-71638571D01*
X129985714Y-71590952D01*
X130080952Y-71543333D01*
X130319047Y-71543333D01*
X130414285Y-71590952D01*
X130461904Y-71638571D01*
X130509523Y-71733809D01*
X130509523Y-71971904D01*
X130461904Y-72067142D01*
X130414285Y-72114761D01*
X130319047Y-72162380D01*
X130080952Y-72162380D01*
X129985714Y-72114761D01*
X129938095Y-72067142D01*
X131414285Y-71162380D02*
X130938095Y-71162380D01*
X130890476Y-71638571D01*
X130938095Y-71590952D01*
X131033333Y-71543333D01*
X131271428Y-71543333D01*
X131366666Y-71590952D01*
X131414285Y-71638571D01*
X131461904Y-71733809D01*
X131461904Y-71971904D01*
X131414285Y-72067142D01*
X131366666Y-72114761D01*
X131271428Y-72162380D01*
X131033333Y-72162380D01*
X130938095Y-72114761D01*
X130890476Y-72067142D01*
%TO.C,R26*%
X113721483Y-42086233D02*
X113388150Y-41610043D01*
X113150055Y-42086233D02*
X113150055Y-41086233D01*
X113531007Y-41086233D01*
X113626245Y-41133853D01*
X113673864Y-41181472D01*
X113721483Y-41276710D01*
X113721483Y-41419567D01*
X113673864Y-41514805D01*
X113626245Y-41562424D01*
X113531007Y-41610043D01*
X113150055Y-41610043D01*
X114102436Y-41181472D02*
X114150055Y-41133853D01*
X114245293Y-41086233D01*
X114483388Y-41086233D01*
X114578626Y-41133853D01*
X114626245Y-41181472D01*
X114673864Y-41276710D01*
X114673864Y-41371948D01*
X114626245Y-41514805D01*
X114054817Y-42086233D01*
X114673864Y-42086233D01*
X115531007Y-41086233D02*
X115340531Y-41086233D01*
X115245293Y-41133853D01*
X115197674Y-41181472D01*
X115102436Y-41324329D01*
X115054817Y-41514805D01*
X115054817Y-41895757D01*
X115102436Y-41990995D01*
X115150055Y-42038614D01*
X115245293Y-42086233D01*
X115435769Y-42086233D01*
X115531007Y-42038614D01*
X115578626Y-41990995D01*
X115626245Y-41895757D01*
X115626245Y-41657662D01*
X115578626Y-41562424D01*
X115531007Y-41514805D01*
X115435769Y-41467186D01*
X115245293Y-41467186D01*
X115150055Y-41514805D01*
X115102436Y-41562424D01*
X115054817Y-41657662D01*
%TO.C,H6*%
X68238095Y-156252380D02*
X68238095Y-155252380D01*
X68238095Y-155728571D02*
X68809523Y-155728571D01*
X68809523Y-156252380D02*
X68809523Y-155252380D01*
X69714285Y-155252380D02*
X69523809Y-155252380D01*
X69428571Y-155300000D01*
X69380952Y-155347619D01*
X69285714Y-155490476D01*
X69238095Y-155680952D01*
X69238095Y-156061904D01*
X69285714Y-156157142D01*
X69333333Y-156204761D01*
X69428571Y-156252380D01*
X69619047Y-156252380D01*
X69714285Y-156204761D01*
X69761904Y-156157142D01*
X69809523Y-156061904D01*
X69809523Y-155823809D01*
X69761904Y-155728571D01*
X69714285Y-155680952D01*
X69619047Y-155633333D01*
X69428571Y-155633333D01*
X69333333Y-155680952D01*
X69285714Y-155728571D01*
X69238095Y-155823809D01*
%TO.C,SW22*%
X207760476Y-57974761D02*
X207903333Y-58022380D01*
X208141428Y-58022380D01*
X208236666Y-57974761D01*
X208284285Y-57927142D01*
X208331904Y-57831904D01*
X208331904Y-57736666D01*
X208284285Y-57641428D01*
X208236666Y-57593809D01*
X208141428Y-57546190D01*
X207950952Y-57498571D01*
X207855714Y-57450952D01*
X207808095Y-57403333D01*
X207760476Y-57308095D01*
X207760476Y-57212857D01*
X207808095Y-57117619D01*
X207855714Y-57070000D01*
X207950952Y-57022380D01*
X208189047Y-57022380D01*
X208331904Y-57070000D01*
X208665238Y-57022380D02*
X208903333Y-58022380D01*
X209093809Y-57308095D01*
X209284285Y-58022380D01*
X209522380Y-57022380D01*
X209855714Y-57117619D02*
X209903333Y-57070000D01*
X209998571Y-57022380D01*
X210236666Y-57022380D01*
X210331904Y-57070000D01*
X210379523Y-57117619D01*
X210427142Y-57212857D01*
X210427142Y-57308095D01*
X210379523Y-57450952D01*
X209808095Y-58022380D01*
X210427142Y-58022380D01*
X210808095Y-57117619D02*
X210855714Y-57070000D01*
X210950952Y-57022380D01*
X211189047Y-57022380D01*
X211284285Y-57070000D01*
X211331904Y-57117619D01*
X211379523Y-57212857D01*
X211379523Y-57308095D01*
X211331904Y-57450952D01*
X210760476Y-58022380D01*
X211379523Y-58022380D01*
%TO.C,SW35*%
X239760476Y-134974761D02*
X239903333Y-135022380D01*
X240141428Y-135022380D01*
X240236666Y-134974761D01*
X240284285Y-134927142D01*
X240331904Y-134831904D01*
X240331904Y-134736666D01*
X240284285Y-134641428D01*
X240236666Y-134593809D01*
X240141428Y-134546190D01*
X239950952Y-134498571D01*
X239855714Y-134450952D01*
X239808095Y-134403333D01*
X239760476Y-134308095D01*
X239760476Y-134212857D01*
X239808095Y-134117619D01*
X239855714Y-134070000D01*
X239950952Y-134022380D01*
X240189047Y-134022380D01*
X240331904Y-134070000D01*
X240665238Y-134022380D02*
X240903333Y-135022380D01*
X241093809Y-134308095D01*
X241284285Y-135022380D01*
X241522380Y-134022380D01*
X241808095Y-134022380D02*
X242427142Y-134022380D01*
X242093809Y-134403333D01*
X242236666Y-134403333D01*
X242331904Y-134450952D01*
X242379523Y-134498571D01*
X242427142Y-134593809D01*
X242427142Y-134831904D01*
X242379523Y-134927142D01*
X242331904Y-134974761D01*
X242236666Y-135022380D01*
X241950952Y-135022380D01*
X241855714Y-134974761D01*
X241808095Y-134927142D01*
X243331904Y-134022380D02*
X242855714Y-134022380D01*
X242808095Y-134498571D01*
X242855714Y-134450952D01*
X242950952Y-134403333D01*
X243189047Y-134403333D01*
X243284285Y-134450952D01*
X243331904Y-134498571D01*
X243379523Y-134593809D01*
X243379523Y-134831904D01*
X243331904Y-134927142D01*
X243284285Y-134974761D01*
X243189047Y-135022380D01*
X242950952Y-135022380D01*
X242855714Y-134974761D01*
X242808095Y-134927142D01*
%TO.C,D49*%
X183355714Y-113322380D02*
X183355714Y-112322380D01*
X183593809Y-112322380D01*
X183736666Y-112370000D01*
X183831904Y-112465238D01*
X183879523Y-112560476D01*
X183927142Y-112750952D01*
X183927142Y-112893809D01*
X183879523Y-113084285D01*
X183831904Y-113179523D01*
X183736666Y-113274761D01*
X183593809Y-113322380D01*
X183355714Y-113322380D01*
X184784285Y-112655714D02*
X184784285Y-113322380D01*
X184546190Y-112274761D02*
X184308095Y-112989047D01*
X184927142Y-112989047D01*
X185355714Y-113322380D02*
X185546190Y-113322380D01*
X185641428Y-113274761D01*
X185689047Y-113227142D01*
X185784285Y-113084285D01*
X185831904Y-112893809D01*
X185831904Y-112512857D01*
X185784285Y-112417619D01*
X185736666Y-112370000D01*
X185641428Y-112322380D01*
X185450952Y-112322380D01*
X185355714Y-112370000D01*
X185308095Y-112417619D01*
X185260476Y-112512857D01*
X185260476Y-112750952D01*
X185308095Y-112846190D01*
X185355714Y-112893809D01*
X185450952Y-112941428D01*
X185641428Y-112941428D01*
X185736666Y-112893809D01*
X185784285Y-112846190D01*
X185831904Y-112750952D01*
X180705714Y-115222380D02*
X180134285Y-115222380D01*
X180420000Y-115222380D02*
X180420000Y-114222380D01*
X180324761Y-114365238D01*
X180229523Y-114460476D01*
X180134285Y-114508095D01*
%TO.C,D40*%
X233355714Y-51322380D02*
X233355714Y-50322380D01*
X233593809Y-50322380D01*
X233736666Y-50370000D01*
X233831904Y-50465238D01*
X233879523Y-50560476D01*
X233927142Y-50750952D01*
X233927142Y-50893809D01*
X233879523Y-51084285D01*
X233831904Y-51179523D01*
X233736666Y-51274761D01*
X233593809Y-51322380D01*
X233355714Y-51322380D01*
X234784285Y-50655714D02*
X234784285Y-51322380D01*
X234546190Y-50274761D02*
X234308095Y-50989047D01*
X234927142Y-50989047D01*
X235498571Y-50322380D02*
X235593809Y-50322380D01*
X235689047Y-50370000D01*
X235736666Y-50417619D01*
X235784285Y-50512857D01*
X235831904Y-50703333D01*
X235831904Y-50941428D01*
X235784285Y-51131904D01*
X235736666Y-51227142D01*
X235689047Y-51274761D01*
X235593809Y-51322380D01*
X235498571Y-51322380D01*
X235403333Y-51274761D01*
X235355714Y-51227142D01*
X235308095Y-51131904D01*
X235260476Y-50941428D01*
X235260476Y-50703333D01*
X235308095Y-50512857D01*
X235355714Y-50417619D01*
X235403333Y-50370000D01*
X235498571Y-50322380D01*
X239005714Y-49422380D02*
X238434285Y-49422380D01*
X238720000Y-49422380D02*
X238720000Y-48422380D01*
X238624761Y-48565238D01*
X238529523Y-48660476D01*
X238434285Y-48708095D01*
%TO.C,R18*%
X144757142Y-136277380D02*
X144423809Y-135801190D01*
X144185714Y-136277380D02*
X144185714Y-135277380D01*
X144566666Y-135277380D01*
X144661904Y-135325000D01*
X144709523Y-135372619D01*
X144757142Y-135467857D01*
X144757142Y-135610714D01*
X144709523Y-135705952D01*
X144661904Y-135753571D01*
X144566666Y-135801190D01*
X144185714Y-135801190D01*
X145709523Y-136277380D02*
X145138095Y-136277380D01*
X145423809Y-136277380D02*
X145423809Y-135277380D01*
X145328571Y-135420238D01*
X145233333Y-135515476D01*
X145138095Y-135563095D01*
X146280952Y-135705952D02*
X146185714Y-135658333D01*
X146138095Y-135610714D01*
X146090476Y-135515476D01*
X146090476Y-135467857D01*
X146138095Y-135372619D01*
X146185714Y-135325000D01*
X146280952Y-135277380D01*
X146471428Y-135277380D01*
X146566666Y-135325000D01*
X146614285Y-135372619D01*
X146661904Y-135467857D01*
X146661904Y-135515476D01*
X146614285Y-135610714D01*
X146566666Y-135658333D01*
X146471428Y-135705952D01*
X146280952Y-135705952D01*
X146185714Y-135753571D01*
X146138095Y-135801190D01*
X146090476Y-135896428D01*
X146090476Y-136086904D01*
X146138095Y-136182142D01*
X146185714Y-136229761D01*
X146280952Y-136277380D01*
X146471428Y-136277380D01*
X146566666Y-136229761D01*
X146614285Y-136182142D01*
X146661904Y-136086904D01*
X146661904Y-135896428D01*
X146614285Y-135801190D01*
X146566666Y-135753571D01*
X146471428Y-135705952D01*
%TO.C,C61*%
X124316483Y-31976710D02*
X124364102Y-32024329D01*
X124411721Y-32167186D01*
X124411721Y-32262424D01*
X124364102Y-32405281D01*
X124268864Y-32500519D01*
X124173626Y-32548138D01*
X123983150Y-32595757D01*
X123840293Y-32595757D01*
X123649817Y-32548138D01*
X123554579Y-32500519D01*
X123459341Y-32405281D01*
X123411721Y-32262424D01*
X123411721Y-32167186D01*
X123459341Y-32024329D01*
X123506960Y-31976710D01*
X123411721Y-31119567D02*
X123411721Y-31310043D01*
X123459341Y-31405281D01*
X123506960Y-31452900D01*
X123649817Y-31548138D01*
X123840293Y-31595757D01*
X124221245Y-31595757D01*
X124316483Y-31548138D01*
X124364102Y-31500519D01*
X124411721Y-31405281D01*
X124411721Y-31214805D01*
X124364102Y-31119567D01*
X124316483Y-31071948D01*
X124221245Y-31024329D01*
X123983150Y-31024329D01*
X123887912Y-31071948D01*
X123840293Y-31119567D01*
X123792674Y-31214805D01*
X123792674Y-31405281D01*
X123840293Y-31500519D01*
X123887912Y-31548138D01*
X123983150Y-31595757D01*
X124411721Y-30071948D02*
X124411721Y-30643376D01*
X124411721Y-30357662D02*
X123411721Y-30357662D01*
X123554579Y-30452900D01*
X123649817Y-30548138D01*
X123697436Y-30643376D01*
%TO.C,D50*%
X202355714Y-113322380D02*
X202355714Y-112322380D01*
X202593809Y-112322380D01*
X202736666Y-112370000D01*
X202831904Y-112465238D01*
X202879523Y-112560476D01*
X202927142Y-112750952D01*
X202927142Y-112893809D01*
X202879523Y-113084285D01*
X202831904Y-113179523D01*
X202736666Y-113274761D01*
X202593809Y-113322380D01*
X202355714Y-113322380D01*
X203831904Y-112322380D02*
X203355714Y-112322380D01*
X203308095Y-112798571D01*
X203355714Y-112750952D01*
X203450952Y-112703333D01*
X203689047Y-112703333D01*
X203784285Y-112750952D01*
X203831904Y-112798571D01*
X203879523Y-112893809D01*
X203879523Y-113131904D01*
X203831904Y-113227142D01*
X203784285Y-113274761D01*
X203689047Y-113322380D01*
X203450952Y-113322380D01*
X203355714Y-113274761D01*
X203308095Y-113227142D01*
X204498571Y-112322380D02*
X204593809Y-112322380D01*
X204689047Y-112370000D01*
X204736666Y-112417619D01*
X204784285Y-112512857D01*
X204831904Y-112703333D01*
X204831904Y-112941428D01*
X204784285Y-113131904D01*
X204736666Y-113227142D01*
X204689047Y-113274761D01*
X204593809Y-113322380D01*
X204498571Y-113322380D01*
X204403333Y-113274761D01*
X204355714Y-113227142D01*
X204308095Y-113131904D01*
X204260476Y-112941428D01*
X204260476Y-112703333D01*
X204308095Y-112512857D01*
X204355714Y-112417619D01*
X204403333Y-112370000D01*
X204498571Y-112322380D01*
X203385714Y-115227380D02*
X202814285Y-115227380D01*
X203100000Y-115227380D02*
X203100000Y-114227380D01*
X203004761Y-114370238D01*
X202909523Y-114465476D01*
X202814285Y-114513095D01*
%TO.C,R21*%
X104116721Y-50226710D02*
X103640531Y-50560043D01*
X104116721Y-50798138D02*
X103116721Y-50798138D01*
X103116721Y-50417186D01*
X103164341Y-50321948D01*
X103211960Y-50274329D01*
X103307198Y-50226710D01*
X103450055Y-50226710D01*
X103545293Y-50274329D01*
X103592912Y-50321948D01*
X103640531Y-50417186D01*
X103640531Y-50798138D01*
X103211960Y-49845757D02*
X103164341Y-49798138D01*
X103116721Y-49702900D01*
X103116721Y-49464805D01*
X103164341Y-49369567D01*
X103211960Y-49321948D01*
X103307198Y-49274329D01*
X103402436Y-49274329D01*
X103545293Y-49321948D01*
X104116721Y-49893376D01*
X104116721Y-49274329D01*
X104116721Y-48321948D02*
X104116721Y-48893376D01*
X104116721Y-48607662D02*
X103116721Y-48607662D01*
X103259579Y-48702900D01*
X103354817Y-48798138D01*
X103402436Y-48893376D01*
%TO.C,H4*%
X239238095Y-156252380D02*
X239238095Y-155252380D01*
X239238095Y-155728571D02*
X239809523Y-155728571D01*
X239809523Y-156252380D02*
X239809523Y-155252380D01*
X240714285Y-155585714D02*
X240714285Y-156252380D01*
X240476190Y-155204761D02*
X240238095Y-155919047D01*
X240857142Y-155919047D01*
%TO.C,SW26*%
X232760476Y-32974761D02*
X232903333Y-33022380D01*
X233141428Y-33022380D01*
X233236666Y-32974761D01*
X233284285Y-32927142D01*
X233331904Y-32831904D01*
X233331904Y-32736666D01*
X233284285Y-32641428D01*
X233236666Y-32593809D01*
X233141428Y-32546190D01*
X232950952Y-32498571D01*
X232855714Y-32450952D01*
X232808095Y-32403333D01*
X232760476Y-32308095D01*
X232760476Y-32212857D01*
X232808095Y-32117619D01*
X232855714Y-32070000D01*
X232950952Y-32022380D01*
X233189047Y-32022380D01*
X233331904Y-32070000D01*
X233665238Y-32022380D02*
X233903333Y-33022380D01*
X234093809Y-32308095D01*
X234284285Y-33022380D01*
X234522380Y-32022380D01*
X234855714Y-32117619D02*
X234903333Y-32070000D01*
X234998571Y-32022380D01*
X235236666Y-32022380D01*
X235331904Y-32070000D01*
X235379523Y-32117619D01*
X235427142Y-32212857D01*
X235427142Y-32308095D01*
X235379523Y-32450952D01*
X234808095Y-33022380D01*
X235427142Y-33022380D01*
X236284285Y-32022380D02*
X236093809Y-32022380D01*
X235998571Y-32070000D01*
X235950952Y-32117619D01*
X235855714Y-32260476D01*
X235808095Y-32450952D01*
X235808095Y-32831904D01*
X235855714Y-32927142D01*
X235903333Y-32974761D01*
X235998571Y-33022380D01*
X236189047Y-33022380D01*
X236284285Y-32974761D01*
X236331904Y-32927142D01*
X236379523Y-32831904D01*
X236379523Y-32593809D01*
X236331904Y-32498571D01*
X236284285Y-32450952D01*
X236189047Y-32403333D01*
X235998571Y-32403333D01*
X235903333Y-32450952D01*
X235855714Y-32498571D01*
X235808095Y-32593809D01*
%TO.C,SW11*%
X157760476Y-32974761D02*
X157903333Y-33022380D01*
X158141428Y-33022380D01*
X158236666Y-32974761D01*
X158284285Y-32927142D01*
X158331904Y-32831904D01*
X158331904Y-32736666D01*
X158284285Y-32641428D01*
X158236666Y-32593809D01*
X158141428Y-32546190D01*
X157950952Y-32498571D01*
X157855714Y-32450952D01*
X157808095Y-32403333D01*
X157760476Y-32308095D01*
X157760476Y-32212857D01*
X157808095Y-32117619D01*
X157855714Y-32070000D01*
X157950952Y-32022380D01*
X158189047Y-32022380D01*
X158331904Y-32070000D01*
X158665238Y-32022380D02*
X158903333Y-33022380D01*
X159093809Y-32308095D01*
X159284285Y-33022380D01*
X159522380Y-32022380D01*
X160427142Y-33022380D02*
X159855714Y-33022380D01*
X160141428Y-33022380D02*
X160141428Y-32022380D01*
X160046190Y-32165238D01*
X159950952Y-32260476D01*
X159855714Y-32308095D01*
X161379523Y-33022380D02*
X160808095Y-33022380D01*
X161093809Y-33022380D02*
X161093809Y-32022380D01*
X160998571Y-32165238D01*
X160903333Y-32260476D01*
X160808095Y-32308095D01*
%TO.C,D54*%
X147690714Y-145394880D02*
X147690714Y-144394880D01*
X147928809Y-144394880D01*
X148071666Y-144442500D01*
X148166904Y-144537738D01*
X148214523Y-144632976D01*
X148262142Y-144823452D01*
X148262142Y-144966309D01*
X148214523Y-145156785D01*
X148166904Y-145252023D01*
X148071666Y-145347261D01*
X147928809Y-145394880D01*
X147690714Y-145394880D01*
X149166904Y-144394880D02*
X148690714Y-144394880D01*
X148643095Y-144871071D01*
X148690714Y-144823452D01*
X148785952Y-144775833D01*
X149024047Y-144775833D01*
X149119285Y-144823452D01*
X149166904Y-144871071D01*
X149214523Y-144966309D01*
X149214523Y-145204404D01*
X149166904Y-145299642D01*
X149119285Y-145347261D01*
X149024047Y-145394880D01*
X148785952Y-145394880D01*
X148690714Y-145347261D01*
X148643095Y-145299642D01*
X150071666Y-144728214D02*
X150071666Y-145394880D01*
X149833571Y-144347261D02*
X149595476Y-145061547D01*
X150214523Y-145061547D01*
%TO.C,U4*%
X107588095Y-34752380D02*
X107588095Y-35561904D01*
X107635714Y-35657142D01*
X107683333Y-35704761D01*
X107778571Y-35752380D01*
X107969047Y-35752380D01*
X108064285Y-35704761D01*
X108111904Y-35657142D01*
X108159523Y-35561904D01*
X108159523Y-34752380D01*
X109064285Y-35085714D02*
X109064285Y-35752380D01*
X108826190Y-34704761D02*
X108588095Y-35419047D01*
X109207142Y-35419047D01*
%TO.C,H3*%
X251218095Y-29992380D02*
X251218095Y-28992380D01*
X251218095Y-29468571D02*
X251789523Y-29468571D01*
X251789523Y-29992380D02*
X251789523Y-28992380D01*
X252170476Y-28992380D02*
X252789523Y-28992380D01*
X252456190Y-29373333D01*
X252599047Y-29373333D01*
X252694285Y-29420952D01*
X252741904Y-29468571D01*
X252789523Y-29563809D01*
X252789523Y-29801904D01*
X252741904Y-29897142D01*
X252694285Y-29944761D01*
X252599047Y-29992380D01*
X252313333Y-29992380D01*
X252218095Y-29944761D01*
X252170476Y-29897142D01*
%TO.C,J2*%
X70666666Y-89882380D02*
X70666666Y-90596666D01*
X70619047Y-90739523D01*
X70523809Y-90834761D01*
X70380952Y-90882380D01*
X70285714Y-90882380D01*
X71095238Y-89977619D02*
X71142857Y-89930000D01*
X71238095Y-89882380D01*
X71476190Y-89882380D01*
X71571428Y-89930000D01*
X71619047Y-89977619D01*
X71666666Y-90072857D01*
X71666666Y-90168095D01*
X71619047Y-90310952D01*
X71047619Y-90882380D01*
X71666666Y-90882380D01*
%TO.C,D35*%
X183355714Y-153322380D02*
X183355714Y-152322380D01*
X183593809Y-152322380D01*
X183736666Y-152370000D01*
X183831904Y-152465238D01*
X183879523Y-152560476D01*
X183927142Y-152750952D01*
X183927142Y-152893809D01*
X183879523Y-153084285D01*
X183831904Y-153179523D01*
X183736666Y-153274761D01*
X183593809Y-153322380D01*
X183355714Y-153322380D01*
X184260476Y-152322380D02*
X184879523Y-152322380D01*
X184546190Y-152703333D01*
X184689047Y-152703333D01*
X184784285Y-152750952D01*
X184831904Y-152798571D01*
X184879523Y-152893809D01*
X184879523Y-153131904D01*
X184831904Y-153227142D01*
X184784285Y-153274761D01*
X184689047Y-153322380D01*
X184403333Y-153322380D01*
X184308095Y-153274761D01*
X184260476Y-153227142D01*
X185784285Y-152322380D02*
X185308095Y-152322380D01*
X185260476Y-152798571D01*
X185308095Y-152750952D01*
X185403333Y-152703333D01*
X185641428Y-152703333D01*
X185736666Y-152750952D01*
X185784285Y-152798571D01*
X185831904Y-152893809D01*
X185831904Y-153131904D01*
X185784285Y-153227142D01*
X185736666Y-153274761D01*
X185641428Y-153322380D01*
X185403333Y-153322380D01*
X185308095Y-153274761D01*
X185260476Y-153227142D01*
X185785714Y-151502380D02*
X185214285Y-151502380D01*
X185500000Y-151502380D02*
X185500000Y-150502380D01*
X185404761Y-150645238D01*
X185309523Y-150740476D01*
X185214285Y-150788095D01*
%TO.C,D28*%
X183355714Y-101322380D02*
X183355714Y-100322380D01*
X183593809Y-100322380D01*
X183736666Y-100370000D01*
X183831904Y-100465238D01*
X183879523Y-100560476D01*
X183927142Y-100750952D01*
X183927142Y-100893809D01*
X183879523Y-101084285D01*
X183831904Y-101179523D01*
X183736666Y-101274761D01*
X183593809Y-101322380D01*
X183355714Y-101322380D01*
X184308095Y-100417619D02*
X184355714Y-100370000D01*
X184450952Y-100322380D01*
X184689047Y-100322380D01*
X184784285Y-100370000D01*
X184831904Y-100417619D01*
X184879523Y-100512857D01*
X184879523Y-100608095D01*
X184831904Y-100750952D01*
X184260476Y-101322380D01*
X184879523Y-101322380D01*
X185450952Y-100750952D02*
X185355714Y-100703333D01*
X185308095Y-100655714D01*
X185260476Y-100560476D01*
X185260476Y-100512857D01*
X185308095Y-100417619D01*
X185355714Y-100370000D01*
X185450952Y-100322380D01*
X185641428Y-100322380D01*
X185736666Y-100370000D01*
X185784285Y-100417619D01*
X185831904Y-100512857D01*
X185831904Y-100560476D01*
X185784285Y-100655714D01*
X185736666Y-100703333D01*
X185641428Y-100750952D01*
X185450952Y-100750952D01*
X185355714Y-100798571D01*
X185308095Y-100846190D01*
X185260476Y-100941428D01*
X185260476Y-101131904D01*
X185308095Y-101227142D01*
X185355714Y-101274761D01*
X185450952Y-101322380D01*
X185641428Y-101322380D01*
X185736666Y-101274761D01*
X185784285Y-101227142D01*
X185831904Y-101131904D01*
X185831904Y-100941428D01*
X185784285Y-100846190D01*
X185736666Y-100798571D01*
X185641428Y-100750952D01*
X185785714Y-99602380D02*
X185214285Y-99602380D01*
X185500000Y-99602380D02*
X185500000Y-98602380D01*
X185404761Y-98745238D01*
X185309523Y-98840476D01*
X185214285Y-98888095D01*
%TO.C,D39*%
X164355714Y-153322380D02*
X164355714Y-152322380D01*
X164593809Y-152322380D01*
X164736666Y-152370000D01*
X164831904Y-152465238D01*
X164879523Y-152560476D01*
X164927142Y-152750952D01*
X164927142Y-152893809D01*
X164879523Y-153084285D01*
X164831904Y-153179523D01*
X164736666Y-153274761D01*
X164593809Y-153322380D01*
X164355714Y-153322380D01*
X165260476Y-152322380D02*
X165879523Y-152322380D01*
X165546190Y-152703333D01*
X165689047Y-152703333D01*
X165784285Y-152750952D01*
X165831904Y-152798571D01*
X165879523Y-152893809D01*
X165879523Y-153131904D01*
X165831904Y-153227142D01*
X165784285Y-153274761D01*
X165689047Y-153322380D01*
X165403333Y-153322380D01*
X165308095Y-153274761D01*
X165260476Y-153227142D01*
X166355714Y-153322380D02*
X166546190Y-153322380D01*
X166641428Y-153274761D01*
X166689047Y-153227142D01*
X166784285Y-153084285D01*
X166831904Y-152893809D01*
X166831904Y-152512857D01*
X166784285Y-152417619D01*
X166736666Y-152370000D01*
X166641428Y-152322380D01*
X166450952Y-152322380D01*
X166355714Y-152370000D01*
X166308095Y-152417619D01*
X166260476Y-152512857D01*
X166260476Y-152750952D01*
X166308095Y-152846190D01*
X166355714Y-152893809D01*
X166450952Y-152941428D01*
X166641428Y-152941428D01*
X166736666Y-152893809D01*
X166784285Y-152846190D01*
X166831904Y-152750952D01*
X170005714Y-151422380D02*
X169434285Y-151422380D01*
X169720000Y-151422380D02*
X169720000Y-150422380D01*
X169624761Y-150565238D01*
X169529523Y-150660476D01*
X169434285Y-150708095D01*
%TO.C,D30*%
X240355714Y-153322380D02*
X240355714Y-152322380D01*
X240593809Y-152322380D01*
X240736666Y-152370000D01*
X240831904Y-152465238D01*
X240879523Y-152560476D01*
X240927142Y-152750952D01*
X240927142Y-152893809D01*
X240879523Y-153084285D01*
X240831904Y-153179523D01*
X240736666Y-153274761D01*
X240593809Y-153322380D01*
X240355714Y-153322380D01*
X241260476Y-152322380D02*
X241879523Y-152322380D01*
X241546190Y-152703333D01*
X241689047Y-152703333D01*
X241784285Y-152750952D01*
X241831904Y-152798571D01*
X241879523Y-152893809D01*
X241879523Y-153131904D01*
X241831904Y-153227142D01*
X241784285Y-153274761D01*
X241689047Y-153322380D01*
X241403333Y-153322380D01*
X241308095Y-153274761D01*
X241260476Y-153227142D01*
X242498571Y-152322380D02*
X242593809Y-152322380D01*
X242689047Y-152370000D01*
X242736666Y-152417619D01*
X242784285Y-152512857D01*
X242831904Y-152703333D01*
X242831904Y-152941428D01*
X242784285Y-153131904D01*
X242736666Y-153227142D01*
X242689047Y-153274761D01*
X242593809Y-153322380D01*
X242498571Y-153322380D01*
X242403333Y-153274761D01*
X242355714Y-153227142D01*
X242308095Y-153131904D01*
X242260476Y-152941428D01*
X242260476Y-152703333D01*
X242308095Y-152512857D01*
X242355714Y-152417619D01*
X242403333Y-152370000D01*
X242498571Y-152322380D01*
X245935714Y-151577380D02*
X245364285Y-151577380D01*
X245650000Y-151577380D02*
X245650000Y-150577380D01*
X245554761Y-150720238D01*
X245459523Y-150815476D01*
X245364285Y-150863095D01*
%TO.C,C63*%
X116082142Y-62507142D02*
X116034523Y-62554761D01*
X115891666Y-62602380D01*
X115796428Y-62602380D01*
X115653571Y-62554761D01*
X115558333Y-62459523D01*
X115510714Y-62364285D01*
X115463095Y-62173809D01*
X115463095Y-62030952D01*
X115510714Y-61840476D01*
X115558333Y-61745238D01*
X115653571Y-61650000D01*
X115796428Y-61602380D01*
X115891666Y-61602380D01*
X116034523Y-61650000D01*
X116082142Y-61697619D01*
X116939285Y-61602380D02*
X116748809Y-61602380D01*
X116653571Y-61650000D01*
X116605952Y-61697619D01*
X116510714Y-61840476D01*
X116463095Y-62030952D01*
X116463095Y-62411904D01*
X116510714Y-62507142D01*
X116558333Y-62554761D01*
X116653571Y-62602380D01*
X116844047Y-62602380D01*
X116939285Y-62554761D01*
X116986904Y-62507142D01*
X117034523Y-62411904D01*
X117034523Y-62173809D01*
X116986904Y-62078571D01*
X116939285Y-62030952D01*
X116844047Y-61983333D01*
X116653571Y-61983333D01*
X116558333Y-62030952D01*
X116510714Y-62078571D01*
X116463095Y-62173809D01*
X117367857Y-61602380D02*
X117986904Y-61602380D01*
X117653571Y-61983333D01*
X117796428Y-61983333D01*
X117891666Y-62030952D01*
X117939285Y-62078571D01*
X117986904Y-62173809D01*
X117986904Y-62411904D01*
X117939285Y-62507142D01*
X117891666Y-62554761D01*
X117796428Y-62602380D01*
X117510714Y-62602380D01*
X117415476Y-62554761D01*
X117367857Y-62507142D01*
%TO.C,U3*%
X107802436Y-49986233D02*
X107802436Y-50795757D01*
X107850055Y-50890995D01*
X107897674Y-50938614D01*
X107992912Y-50986233D01*
X108183388Y-50986233D01*
X108278626Y-50938614D01*
X108326245Y-50890995D01*
X108373864Y-50795757D01*
X108373864Y-49986233D01*
X108754817Y-49986233D02*
X109373864Y-49986233D01*
X109040531Y-50367186D01*
X109183388Y-50367186D01*
X109278626Y-50414805D01*
X109326245Y-50462424D01*
X109373864Y-50557662D01*
X109373864Y-50795757D01*
X109326245Y-50890995D01*
X109278626Y-50938614D01*
X109183388Y-50986233D01*
X108897674Y-50986233D01*
X108802436Y-50938614D01*
X108754817Y-50890995D01*
%TO.C,SW28*%
X220760476Y-82974761D02*
X220903333Y-83022380D01*
X221141428Y-83022380D01*
X221236666Y-82974761D01*
X221284285Y-82927142D01*
X221331904Y-82831904D01*
X221331904Y-82736666D01*
X221284285Y-82641428D01*
X221236666Y-82593809D01*
X221141428Y-82546190D01*
X220950952Y-82498571D01*
X220855714Y-82450952D01*
X220808095Y-82403333D01*
X220760476Y-82308095D01*
X220760476Y-82212857D01*
X220808095Y-82117619D01*
X220855714Y-82070000D01*
X220950952Y-82022380D01*
X221189047Y-82022380D01*
X221331904Y-82070000D01*
X221665238Y-82022380D02*
X221903333Y-83022380D01*
X222093809Y-82308095D01*
X222284285Y-83022380D01*
X222522380Y-82022380D01*
X222855714Y-82117619D02*
X222903333Y-82070000D01*
X222998571Y-82022380D01*
X223236666Y-82022380D01*
X223331904Y-82070000D01*
X223379523Y-82117619D01*
X223427142Y-82212857D01*
X223427142Y-82308095D01*
X223379523Y-82450952D01*
X222808095Y-83022380D01*
X223427142Y-83022380D01*
X223998571Y-82450952D02*
X223903333Y-82403333D01*
X223855714Y-82355714D01*
X223808095Y-82260476D01*
X223808095Y-82212857D01*
X223855714Y-82117619D01*
X223903333Y-82070000D01*
X223998571Y-82022380D01*
X224189047Y-82022380D01*
X224284285Y-82070000D01*
X224331904Y-82117619D01*
X224379523Y-82212857D01*
X224379523Y-82260476D01*
X224331904Y-82355714D01*
X224284285Y-82403333D01*
X224189047Y-82450952D01*
X223998571Y-82450952D01*
X223903333Y-82498571D01*
X223855714Y-82546190D01*
X223808095Y-82641428D01*
X223808095Y-82831904D01*
X223855714Y-82927142D01*
X223903333Y-82974761D01*
X223998571Y-83022380D01*
X224189047Y-83022380D01*
X224284285Y-82974761D01*
X224331904Y-82927142D01*
X224379523Y-82831904D01*
X224379523Y-82641428D01*
X224331904Y-82546190D01*
X224284285Y-82498571D01*
X224189047Y-82450952D01*
%TO.C,SW34*%
X236290476Y-101974761D02*
X236433333Y-102022380D01*
X236671428Y-102022380D01*
X236766666Y-101974761D01*
X236814285Y-101927142D01*
X236861904Y-101831904D01*
X236861904Y-101736666D01*
X236814285Y-101641428D01*
X236766666Y-101593809D01*
X236671428Y-101546190D01*
X236480952Y-101498571D01*
X236385714Y-101450952D01*
X236338095Y-101403333D01*
X236290476Y-101308095D01*
X236290476Y-101212857D01*
X236338095Y-101117619D01*
X236385714Y-101070000D01*
X236480952Y-101022380D01*
X236719047Y-101022380D01*
X236861904Y-101070000D01*
X237195238Y-101022380D02*
X237433333Y-102022380D01*
X237623809Y-101308095D01*
X237814285Y-102022380D01*
X238052380Y-101022380D01*
X238338095Y-101022380D02*
X238957142Y-101022380D01*
X238623809Y-101403333D01*
X238766666Y-101403333D01*
X238861904Y-101450952D01*
X238909523Y-101498571D01*
X238957142Y-101593809D01*
X238957142Y-101831904D01*
X238909523Y-101927142D01*
X238861904Y-101974761D01*
X238766666Y-102022380D01*
X238480952Y-102022380D01*
X238385714Y-101974761D01*
X238338095Y-101927142D01*
X239814285Y-101355714D02*
X239814285Y-102022380D01*
X239576190Y-100974761D02*
X239338095Y-101689047D01*
X239957142Y-101689047D01*
%TO.C,L3*%
X93297674Y-48661233D02*
X92821483Y-48661233D01*
X92821483Y-47661233D01*
X93535769Y-47661233D02*
X94154817Y-47661233D01*
X93821483Y-48042186D01*
X93964341Y-48042186D01*
X94059579Y-48089805D01*
X94107198Y-48137424D01*
X94154817Y-48232662D01*
X94154817Y-48470757D01*
X94107198Y-48565995D01*
X94059579Y-48613614D01*
X93964341Y-48661233D01*
X93678626Y-48661233D01*
X93583388Y-48613614D01*
X93535769Y-48565995D01*
%TO.C,SW21*%
X207760476Y-32974761D02*
X207903333Y-33022380D01*
X208141428Y-33022380D01*
X208236666Y-32974761D01*
X208284285Y-32927142D01*
X208331904Y-32831904D01*
X208331904Y-32736666D01*
X208284285Y-32641428D01*
X208236666Y-32593809D01*
X208141428Y-32546190D01*
X207950952Y-32498571D01*
X207855714Y-32450952D01*
X207808095Y-32403333D01*
X207760476Y-32308095D01*
X207760476Y-32212857D01*
X207808095Y-32117619D01*
X207855714Y-32070000D01*
X207950952Y-32022380D01*
X208189047Y-32022380D01*
X208331904Y-32070000D01*
X208665238Y-32022380D02*
X208903333Y-33022380D01*
X209093809Y-32308095D01*
X209284285Y-33022380D01*
X209522380Y-32022380D01*
X209855714Y-32117619D02*
X209903333Y-32070000D01*
X209998571Y-32022380D01*
X210236666Y-32022380D01*
X210331904Y-32070000D01*
X210379523Y-32117619D01*
X210427142Y-32212857D01*
X210427142Y-32308095D01*
X210379523Y-32450952D01*
X209808095Y-33022380D01*
X210427142Y-33022380D01*
X211379523Y-33022380D02*
X210808095Y-33022380D01*
X211093809Y-33022380D02*
X211093809Y-32022380D01*
X210998571Y-32165238D01*
X210903333Y-32260476D01*
X210808095Y-32308095D01*
%TO.C,D34*%
X221355714Y-101322380D02*
X221355714Y-100322380D01*
X221593809Y-100322380D01*
X221736666Y-100370000D01*
X221831904Y-100465238D01*
X221879523Y-100560476D01*
X221927142Y-100750952D01*
X221927142Y-100893809D01*
X221879523Y-101084285D01*
X221831904Y-101179523D01*
X221736666Y-101274761D01*
X221593809Y-101322380D01*
X221355714Y-101322380D01*
X222260476Y-100322380D02*
X222879523Y-100322380D01*
X222546190Y-100703333D01*
X222689047Y-100703333D01*
X222784285Y-100750952D01*
X222831904Y-100798571D01*
X222879523Y-100893809D01*
X222879523Y-101131904D01*
X222831904Y-101227142D01*
X222784285Y-101274761D01*
X222689047Y-101322380D01*
X222403333Y-101322380D01*
X222308095Y-101274761D01*
X222260476Y-101227142D01*
X223736666Y-100655714D02*
X223736666Y-101322380D01*
X223498571Y-100274761D02*
X223260476Y-100989047D01*
X223879523Y-100989047D01*
X223910714Y-99477380D02*
X223339285Y-99477380D01*
X223625000Y-99477380D02*
X223625000Y-98477380D01*
X223529761Y-98620238D01*
X223434523Y-98715476D01*
X223339285Y-98763095D01*
%TO.C,C14*%
X65277142Y-152577142D02*
X65229523Y-152624761D01*
X65086666Y-152672380D01*
X64991428Y-152672380D01*
X64848571Y-152624761D01*
X64753333Y-152529523D01*
X64705714Y-152434285D01*
X64658095Y-152243809D01*
X64658095Y-152100952D01*
X64705714Y-151910476D01*
X64753333Y-151815238D01*
X64848571Y-151720000D01*
X64991428Y-151672380D01*
X65086666Y-151672380D01*
X65229523Y-151720000D01*
X65277142Y-151767619D01*
X66229523Y-152672380D02*
X65658095Y-152672380D01*
X65943809Y-152672380D02*
X65943809Y-151672380D01*
X65848571Y-151815238D01*
X65753333Y-151910476D01*
X65658095Y-151958095D01*
X67086666Y-152005714D02*
X67086666Y-152672380D01*
X66848571Y-151624761D02*
X66610476Y-152339047D01*
X67229523Y-152339047D01*
%TO.C,D29*%
X202060714Y-101402380D02*
X202060714Y-100402380D01*
X202298809Y-100402380D01*
X202441666Y-100450000D01*
X202536904Y-100545238D01*
X202584523Y-100640476D01*
X202632142Y-100830952D01*
X202632142Y-100973809D01*
X202584523Y-101164285D01*
X202536904Y-101259523D01*
X202441666Y-101354761D01*
X202298809Y-101402380D01*
X202060714Y-101402380D01*
X203013095Y-100497619D02*
X203060714Y-100450000D01*
X203155952Y-100402380D01*
X203394047Y-100402380D01*
X203489285Y-100450000D01*
X203536904Y-100497619D01*
X203584523Y-100592857D01*
X203584523Y-100688095D01*
X203536904Y-100830952D01*
X202965476Y-101402380D01*
X203584523Y-101402380D01*
X204060714Y-101402380D02*
X204251190Y-101402380D01*
X204346428Y-101354761D01*
X204394047Y-101307142D01*
X204489285Y-101164285D01*
X204536904Y-100973809D01*
X204536904Y-100592857D01*
X204489285Y-100497619D01*
X204441666Y-100450000D01*
X204346428Y-100402380D01*
X204155952Y-100402380D01*
X204060714Y-100450000D01*
X204013095Y-100497619D01*
X203965476Y-100592857D01*
X203965476Y-100830952D01*
X204013095Y-100926190D01*
X204060714Y-100973809D01*
X204155952Y-101021428D01*
X204346428Y-101021428D01*
X204441666Y-100973809D01*
X204489285Y-100926190D01*
X204536904Y-100830952D01*
X208005714Y-99422380D02*
X207434285Y-99422380D01*
X207720000Y-99422380D02*
X207720000Y-98422380D01*
X207624761Y-98565238D01*
X207529523Y-98660476D01*
X207434285Y-98708095D01*
%TO.C,D47*%
X258355714Y-69322380D02*
X258355714Y-68322380D01*
X258593809Y-68322380D01*
X258736666Y-68370000D01*
X258831904Y-68465238D01*
X258879523Y-68560476D01*
X258927142Y-68750952D01*
X258927142Y-68893809D01*
X258879523Y-69084285D01*
X258831904Y-69179523D01*
X258736666Y-69274761D01*
X258593809Y-69322380D01*
X258355714Y-69322380D01*
X259784285Y-68655714D02*
X259784285Y-69322380D01*
X259546190Y-68274761D02*
X259308095Y-68989047D01*
X259927142Y-68989047D01*
X260212857Y-68322380D02*
X260879523Y-68322380D01*
X260450952Y-69322380D01*
X255705714Y-71222380D02*
X255134285Y-71222380D01*
X255420000Y-71222380D02*
X255420000Y-70222380D01*
X255324761Y-70365238D01*
X255229523Y-70460476D01*
X255134285Y-70508095D01*
%TO.C,D33*%
X158355714Y-101322380D02*
X158355714Y-100322380D01*
X158593809Y-100322380D01*
X158736666Y-100370000D01*
X158831904Y-100465238D01*
X158879523Y-100560476D01*
X158927142Y-100750952D01*
X158927142Y-100893809D01*
X158879523Y-101084285D01*
X158831904Y-101179523D01*
X158736666Y-101274761D01*
X158593809Y-101322380D01*
X158355714Y-101322380D01*
X159260476Y-100322380D02*
X159879523Y-100322380D01*
X159546190Y-100703333D01*
X159689047Y-100703333D01*
X159784285Y-100750952D01*
X159831904Y-100798571D01*
X159879523Y-100893809D01*
X159879523Y-101131904D01*
X159831904Y-101227142D01*
X159784285Y-101274761D01*
X159689047Y-101322380D01*
X159403333Y-101322380D01*
X159308095Y-101274761D01*
X159260476Y-101227142D01*
X160212857Y-100322380D02*
X160831904Y-100322380D01*
X160498571Y-100703333D01*
X160641428Y-100703333D01*
X160736666Y-100750952D01*
X160784285Y-100798571D01*
X160831904Y-100893809D01*
X160831904Y-101131904D01*
X160784285Y-101227142D01*
X160736666Y-101274761D01*
X160641428Y-101322380D01*
X160355714Y-101322380D01*
X160260476Y-101274761D01*
X160212857Y-101227142D01*
X164005714Y-99422380D02*
X163434285Y-99422380D01*
X163720000Y-99422380D02*
X163720000Y-98422380D01*
X163624761Y-98565238D01*
X163529523Y-98660476D01*
X163434285Y-98708095D01*
%TO.C,R2*%
X143642380Y-149736666D02*
X143166190Y-150070000D01*
X143642380Y-150308095D02*
X142642380Y-150308095D01*
X142642380Y-149927142D01*
X142690000Y-149831904D01*
X142737619Y-149784285D01*
X142832857Y-149736666D01*
X142975714Y-149736666D01*
X143070952Y-149784285D01*
X143118571Y-149831904D01*
X143166190Y-149927142D01*
X143166190Y-150308095D01*
X142737619Y-149355714D02*
X142690000Y-149308095D01*
X142642380Y-149212857D01*
X142642380Y-148974761D01*
X142690000Y-148879523D01*
X142737619Y-148831904D01*
X142832857Y-148784285D01*
X142928095Y-148784285D01*
X143070952Y-148831904D01*
X143642380Y-149403333D01*
X143642380Y-148784285D01*
%TO.C,L2*%
X97722674Y-42611233D02*
X97246483Y-42611233D01*
X97246483Y-41611233D01*
X98008388Y-41706472D02*
X98056007Y-41658853D01*
X98151245Y-41611233D01*
X98389341Y-41611233D01*
X98484579Y-41658853D01*
X98532198Y-41706472D01*
X98579817Y-41801710D01*
X98579817Y-41896948D01*
X98532198Y-42039805D01*
X97960769Y-42611233D01*
X98579817Y-42611233D01*
%TO.C,R23*%
X112741721Y-50251710D02*
X112265531Y-50585043D01*
X112741721Y-50823138D02*
X111741721Y-50823138D01*
X111741721Y-50442186D01*
X111789341Y-50346948D01*
X111836960Y-50299329D01*
X111932198Y-50251710D01*
X112075055Y-50251710D01*
X112170293Y-50299329D01*
X112217912Y-50346948D01*
X112265531Y-50442186D01*
X112265531Y-50823138D01*
X111836960Y-49870757D02*
X111789341Y-49823138D01*
X111741721Y-49727900D01*
X111741721Y-49489805D01*
X111789341Y-49394567D01*
X111836960Y-49346948D01*
X111932198Y-49299329D01*
X112027436Y-49299329D01*
X112170293Y-49346948D01*
X112741721Y-49918376D01*
X112741721Y-49299329D01*
X111741721Y-48965995D02*
X111741721Y-48346948D01*
X112122674Y-48680281D01*
X112122674Y-48537424D01*
X112170293Y-48442186D01*
X112217912Y-48394567D01*
X112313150Y-48346948D01*
X112551245Y-48346948D01*
X112646483Y-48394567D01*
X112694102Y-48442186D01*
X112741721Y-48537424D01*
X112741721Y-48823138D01*
X112694102Y-48918376D01*
X112646483Y-48965995D01*
%TO.C,R3*%
X124953333Y-72192380D02*
X124620000Y-71716190D01*
X124381904Y-72192380D02*
X124381904Y-71192380D01*
X124762857Y-71192380D01*
X124858095Y-71240000D01*
X124905714Y-71287619D01*
X124953333Y-71382857D01*
X124953333Y-71525714D01*
X124905714Y-71620952D01*
X124858095Y-71668571D01*
X124762857Y-71716190D01*
X124381904Y-71716190D01*
X125286666Y-71192380D02*
X125905714Y-71192380D01*
X125572380Y-71573333D01*
X125715238Y-71573333D01*
X125810476Y-71620952D01*
X125858095Y-71668571D01*
X125905714Y-71763809D01*
X125905714Y-72001904D01*
X125858095Y-72097142D01*
X125810476Y-72144761D01*
X125715238Y-72192380D01*
X125429523Y-72192380D01*
X125334285Y-72144761D01*
X125286666Y-72097142D01*
%TO.C,R15*%
X142857142Y-59277380D02*
X142523809Y-58801190D01*
X142285714Y-59277380D02*
X142285714Y-58277380D01*
X142666666Y-58277380D01*
X142761904Y-58325000D01*
X142809523Y-58372619D01*
X142857142Y-58467857D01*
X142857142Y-58610714D01*
X142809523Y-58705952D01*
X142761904Y-58753571D01*
X142666666Y-58801190D01*
X142285714Y-58801190D01*
X143809523Y-59277380D02*
X143238095Y-59277380D01*
X143523809Y-59277380D02*
X143523809Y-58277380D01*
X143428571Y-58420238D01*
X143333333Y-58515476D01*
X143238095Y-58563095D01*
X144714285Y-58277380D02*
X144238095Y-58277380D01*
X144190476Y-58753571D01*
X144238095Y-58705952D01*
X144333333Y-58658333D01*
X144571428Y-58658333D01*
X144666666Y-58705952D01*
X144714285Y-58753571D01*
X144761904Y-58848809D01*
X144761904Y-59086904D01*
X144714285Y-59182142D01*
X144666666Y-59229761D01*
X144571428Y-59277380D01*
X144333333Y-59277380D01*
X144238095Y-59229761D01*
X144190476Y-59182142D01*
%TO.C,C58*%
X125771483Y-54465995D02*
X125723864Y-54513614D01*
X125581007Y-54561233D01*
X125485769Y-54561233D01*
X125342912Y-54513614D01*
X125247674Y-54418376D01*
X125200055Y-54323138D01*
X125152436Y-54132662D01*
X125152436Y-53989805D01*
X125200055Y-53799329D01*
X125247674Y-53704091D01*
X125342912Y-53608853D01*
X125485769Y-53561233D01*
X125581007Y-53561233D01*
X125723864Y-53608853D01*
X125771483Y-53656472D01*
X126676245Y-53561233D02*
X126200055Y-53561233D01*
X126152436Y-54037424D01*
X126200055Y-53989805D01*
X126295293Y-53942186D01*
X126533388Y-53942186D01*
X126628626Y-53989805D01*
X126676245Y-54037424D01*
X126723864Y-54132662D01*
X126723864Y-54370757D01*
X126676245Y-54465995D01*
X126628626Y-54513614D01*
X126533388Y-54561233D01*
X126295293Y-54561233D01*
X126200055Y-54513614D01*
X126152436Y-54465995D01*
X127295293Y-53989805D02*
X127200055Y-53942186D01*
X127152436Y-53894567D01*
X127104817Y-53799329D01*
X127104817Y-53751710D01*
X127152436Y-53656472D01*
X127200055Y-53608853D01*
X127295293Y-53561233D01*
X127485769Y-53561233D01*
X127581007Y-53608853D01*
X127628626Y-53656472D01*
X127676245Y-53751710D01*
X127676245Y-53799329D01*
X127628626Y-53894567D01*
X127581007Y-53942186D01*
X127485769Y-53989805D01*
X127295293Y-53989805D01*
X127200055Y-54037424D01*
X127152436Y-54085043D01*
X127104817Y-54180281D01*
X127104817Y-54370757D01*
X127152436Y-54465995D01*
X127200055Y-54513614D01*
X127295293Y-54561233D01*
X127485769Y-54561233D01*
X127581007Y-54513614D01*
X127628626Y-54465995D01*
X127676245Y-54370757D01*
X127676245Y-54180281D01*
X127628626Y-54085043D01*
X127581007Y-54037424D01*
X127485769Y-53989805D01*
%TO.C,SW30*%
X220760476Y-134974761D02*
X220903333Y-135022380D01*
X221141428Y-135022380D01*
X221236666Y-134974761D01*
X221284285Y-134927142D01*
X221331904Y-134831904D01*
X221331904Y-134736666D01*
X221284285Y-134641428D01*
X221236666Y-134593809D01*
X221141428Y-134546190D01*
X220950952Y-134498571D01*
X220855714Y-134450952D01*
X220808095Y-134403333D01*
X220760476Y-134308095D01*
X220760476Y-134212857D01*
X220808095Y-134117619D01*
X220855714Y-134070000D01*
X220950952Y-134022380D01*
X221189047Y-134022380D01*
X221331904Y-134070000D01*
X221665238Y-134022380D02*
X221903333Y-135022380D01*
X222093809Y-134308095D01*
X222284285Y-135022380D01*
X222522380Y-134022380D01*
X222808095Y-134022380D02*
X223427142Y-134022380D01*
X223093809Y-134403333D01*
X223236666Y-134403333D01*
X223331904Y-134450952D01*
X223379523Y-134498571D01*
X223427142Y-134593809D01*
X223427142Y-134831904D01*
X223379523Y-134927142D01*
X223331904Y-134974761D01*
X223236666Y-135022380D01*
X222950952Y-135022380D01*
X222855714Y-134974761D01*
X222808095Y-134927142D01*
X224046190Y-134022380D02*
X224141428Y-134022380D01*
X224236666Y-134070000D01*
X224284285Y-134117619D01*
X224331904Y-134212857D01*
X224379523Y-134403333D01*
X224379523Y-134641428D01*
X224331904Y-134831904D01*
X224284285Y-134927142D01*
X224236666Y-134974761D01*
X224141428Y-135022380D01*
X224046190Y-135022380D01*
X223950952Y-134974761D01*
X223903333Y-134927142D01*
X223855714Y-134831904D01*
X223808095Y-134641428D01*
X223808095Y-134403333D01*
X223855714Y-134212857D01*
X223903333Y-134117619D01*
X223950952Y-134070000D01*
X224046190Y-134022380D01*
%TO.C,D41*%
X183355714Y-69322380D02*
X183355714Y-68322380D01*
X183593809Y-68322380D01*
X183736666Y-68370000D01*
X183831904Y-68465238D01*
X183879523Y-68560476D01*
X183927142Y-68750952D01*
X183927142Y-68893809D01*
X183879523Y-69084285D01*
X183831904Y-69179523D01*
X183736666Y-69274761D01*
X183593809Y-69322380D01*
X183355714Y-69322380D01*
X184784285Y-68655714D02*
X184784285Y-69322380D01*
X184546190Y-68274761D02*
X184308095Y-68989047D01*
X184927142Y-68989047D01*
X185831904Y-69322380D02*
X185260476Y-69322380D01*
X185546190Y-69322380D02*
X185546190Y-68322380D01*
X185450952Y-68465238D01*
X185355714Y-68560476D01*
X185260476Y-68608095D01*
X180705714Y-71222380D02*
X180134285Y-71222380D01*
X180420000Y-71222380D02*
X180420000Y-70222380D01*
X180324761Y-70365238D01*
X180229523Y-70460476D01*
X180134285Y-70508095D01*
%TO.C,D46*%
X221355714Y-113322380D02*
X221355714Y-112322380D01*
X221593809Y-112322380D01*
X221736666Y-112370000D01*
X221831904Y-112465238D01*
X221879523Y-112560476D01*
X221927142Y-112750952D01*
X221927142Y-112893809D01*
X221879523Y-113084285D01*
X221831904Y-113179523D01*
X221736666Y-113274761D01*
X221593809Y-113322380D01*
X221355714Y-113322380D01*
X222784285Y-112655714D02*
X222784285Y-113322380D01*
X222546190Y-112274761D02*
X222308095Y-112989047D01*
X222927142Y-112989047D01*
X223736666Y-112322380D02*
X223546190Y-112322380D01*
X223450952Y-112370000D01*
X223403333Y-112417619D01*
X223308095Y-112560476D01*
X223260476Y-112750952D01*
X223260476Y-113131904D01*
X223308095Y-113227142D01*
X223355714Y-113274761D01*
X223450952Y-113322380D01*
X223641428Y-113322380D01*
X223736666Y-113274761D01*
X223784285Y-113227142D01*
X223831904Y-113131904D01*
X223831904Y-112893809D01*
X223784285Y-112798571D01*
X223736666Y-112750952D01*
X223641428Y-112703333D01*
X223450952Y-112703333D01*
X223355714Y-112750952D01*
X223308095Y-112798571D01*
X223260476Y-112893809D01*
X222110714Y-115177380D02*
X221539285Y-115177380D01*
X221825000Y-115177380D02*
X221825000Y-114177380D01*
X221729761Y-114320238D01*
X221634523Y-114415476D01*
X221539285Y-114463095D01*
%TO.C,D27*%
X158355714Y-51322380D02*
X158355714Y-50322380D01*
X158593809Y-50322380D01*
X158736666Y-50370000D01*
X158831904Y-50465238D01*
X158879523Y-50560476D01*
X158927142Y-50750952D01*
X158927142Y-50893809D01*
X158879523Y-51084285D01*
X158831904Y-51179523D01*
X158736666Y-51274761D01*
X158593809Y-51322380D01*
X158355714Y-51322380D01*
X159308095Y-50417619D02*
X159355714Y-50370000D01*
X159450952Y-50322380D01*
X159689047Y-50322380D01*
X159784285Y-50370000D01*
X159831904Y-50417619D01*
X159879523Y-50512857D01*
X159879523Y-50608095D01*
X159831904Y-50750952D01*
X159260476Y-51322380D01*
X159879523Y-51322380D01*
X160212857Y-50322380D02*
X160879523Y-50322380D01*
X160450952Y-51322380D01*
X164005714Y-49422380D02*
X163434285Y-49422380D01*
X163720000Y-49422380D02*
X163720000Y-48422380D01*
X163624761Y-48565238D01*
X163529523Y-48660476D01*
X163434285Y-48708095D01*
%TO.C,D26*%
X221355714Y-153322380D02*
X221355714Y-152322380D01*
X221593809Y-152322380D01*
X221736666Y-152370000D01*
X221831904Y-152465238D01*
X221879523Y-152560476D01*
X221927142Y-152750952D01*
X221927142Y-152893809D01*
X221879523Y-153084285D01*
X221831904Y-153179523D01*
X221736666Y-153274761D01*
X221593809Y-153322380D01*
X221355714Y-153322380D01*
X222308095Y-152417619D02*
X222355714Y-152370000D01*
X222450952Y-152322380D01*
X222689047Y-152322380D01*
X222784285Y-152370000D01*
X222831904Y-152417619D01*
X222879523Y-152512857D01*
X222879523Y-152608095D01*
X222831904Y-152750952D01*
X222260476Y-153322380D01*
X222879523Y-153322380D01*
X223736666Y-152322380D02*
X223546190Y-152322380D01*
X223450952Y-152370000D01*
X223403333Y-152417619D01*
X223308095Y-152560476D01*
X223260476Y-152750952D01*
X223260476Y-153131904D01*
X223308095Y-153227142D01*
X223355714Y-153274761D01*
X223450952Y-153322380D01*
X223641428Y-153322380D01*
X223736666Y-153274761D01*
X223784285Y-153227142D01*
X223831904Y-153131904D01*
X223831904Y-152893809D01*
X223784285Y-152798571D01*
X223736666Y-152750952D01*
X223641428Y-152703333D01*
X223450952Y-152703333D01*
X223355714Y-152750952D01*
X223308095Y-152798571D01*
X223260476Y-152893809D01*
X223785714Y-151577380D02*
X223214285Y-151577380D01*
X223500000Y-151577380D02*
X223500000Y-150577380D01*
X223404761Y-150720238D01*
X223309523Y-150815476D01*
X223214285Y-150863095D01*
%TO.C,L1*%
X97872674Y-60186233D02*
X97396483Y-60186233D01*
X97396483Y-59186233D01*
X98729817Y-60186233D02*
X98158388Y-60186233D01*
X98444102Y-60186233D02*
X98444102Y-59186233D01*
X98348864Y-59329091D01*
X98253626Y-59424329D01*
X98158388Y-59471948D01*
%TO.C,C52*%
X108171483Y-60040995D02*
X108123864Y-60088614D01*
X107981007Y-60136233D01*
X107885769Y-60136233D01*
X107742912Y-60088614D01*
X107647674Y-59993376D01*
X107600055Y-59898138D01*
X107552436Y-59707662D01*
X107552436Y-59564805D01*
X107600055Y-59374329D01*
X107647674Y-59279091D01*
X107742912Y-59183853D01*
X107885769Y-59136233D01*
X107981007Y-59136233D01*
X108123864Y-59183853D01*
X108171483Y-59231472D01*
X109076245Y-59136233D02*
X108600055Y-59136233D01*
X108552436Y-59612424D01*
X108600055Y-59564805D01*
X108695293Y-59517186D01*
X108933388Y-59517186D01*
X109028626Y-59564805D01*
X109076245Y-59612424D01*
X109123864Y-59707662D01*
X109123864Y-59945757D01*
X109076245Y-60040995D01*
X109028626Y-60088614D01*
X108933388Y-60136233D01*
X108695293Y-60136233D01*
X108600055Y-60088614D01*
X108552436Y-60040995D01*
X109504817Y-59231472D02*
X109552436Y-59183853D01*
X109647674Y-59136233D01*
X109885769Y-59136233D01*
X109981007Y-59183853D01*
X110028626Y-59231472D01*
X110076245Y-59326710D01*
X110076245Y-59421948D01*
X110028626Y-59564805D01*
X109457198Y-60136233D01*
X110076245Y-60136233D01*
%TO.C,SW19*%
X179365476Y-101954761D02*
X179508333Y-102002380D01*
X179746428Y-102002380D01*
X179841666Y-101954761D01*
X179889285Y-101907142D01*
X179936904Y-101811904D01*
X179936904Y-101716666D01*
X179889285Y-101621428D01*
X179841666Y-101573809D01*
X179746428Y-101526190D01*
X179555952Y-101478571D01*
X179460714Y-101430952D01*
X179413095Y-101383333D01*
X179365476Y-101288095D01*
X179365476Y-101192857D01*
X179413095Y-101097619D01*
X179460714Y-101050000D01*
X179555952Y-101002380D01*
X179794047Y-101002380D01*
X179936904Y-101050000D01*
X180270238Y-101002380D02*
X180508333Y-102002380D01*
X180698809Y-101288095D01*
X180889285Y-102002380D01*
X181127380Y-101002380D01*
X182032142Y-102002380D02*
X181460714Y-102002380D01*
X181746428Y-102002380D02*
X181746428Y-101002380D01*
X181651190Y-101145238D01*
X181555952Y-101240476D01*
X181460714Y-101288095D01*
X182508333Y-102002380D02*
X182698809Y-102002380D01*
X182794047Y-101954761D01*
X182841666Y-101907142D01*
X182936904Y-101764285D01*
X182984523Y-101573809D01*
X182984523Y-101192857D01*
X182936904Y-101097619D01*
X182889285Y-101050000D01*
X182794047Y-101002380D01*
X182603571Y-101002380D01*
X182508333Y-101050000D01*
X182460714Y-101097619D01*
X182413095Y-101192857D01*
X182413095Y-101430952D01*
X182460714Y-101526190D01*
X182508333Y-101573809D01*
X182603571Y-101621428D01*
X182794047Y-101621428D01*
X182889285Y-101573809D01*
X182936904Y-101526190D01*
X182984523Y-101430952D01*
%TO.C,R12*%
X142757142Y-143102380D02*
X142423809Y-142626190D01*
X142185714Y-143102380D02*
X142185714Y-142102380D01*
X142566666Y-142102380D01*
X142661904Y-142150000D01*
X142709523Y-142197619D01*
X142757142Y-142292857D01*
X142757142Y-142435714D01*
X142709523Y-142530952D01*
X142661904Y-142578571D01*
X142566666Y-142626190D01*
X142185714Y-142626190D01*
X143709523Y-143102380D02*
X143138095Y-143102380D01*
X143423809Y-143102380D02*
X143423809Y-142102380D01*
X143328571Y-142245238D01*
X143233333Y-142340476D01*
X143138095Y-142388095D01*
X144090476Y-142197619D02*
X144138095Y-142150000D01*
X144233333Y-142102380D01*
X144471428Y-142102380D01*
X144566666Y-142150000D01*
X144614285Y-142197619D01*
X144661904Y-142292857D01*
X144661904Y-142388095D01*
X144614285Y-142530952D01*
X144042857Y-143102380D01*
X144661904Y-143102380D01*
%TO.C,C56*%
X121221483Y-54565995D02*
X121173864Y-54613614D01*
X121031007Y-54661233D01*
X120935769Y-54661233D01*
X120792912Y-54613614D01*
X120697674Y-54518376D01*
X120650055Y-54423138D01*
X120602436Y-54232662D01*
X120602436Y-54089805D01*
X120650055Y-53899329D01*
X120697674Y-53804091D01*
X120792912Y-53708853D01*
X120935769Y-53661233D01*
X121031007Y-53661233D01*
X121173864Y-53708853D01*
X121221483Y-53756472D01*
X122126245Y-53661233D02*
X121650055Y-53661233D01*
X121602436Y-54137424D01*
X121650055Y-54089805D01*
X121745293Y-54042186D01*
X121983388Y-54042186D01*
X122078626Y-54089805D01*
X122126245Y-54137424D01*
X122173864Y-54232662D01*
X122173864Y-54470757D01*
X122126245Y-54565995D01*
X122078626Y-54613614D01*
X121983388Y-54661233D01*
X121745293Y-54661233D01*
X121650055Y-54613614D01*
X121602436Y-54565995D01*
X123031007Y-53661233D02*
X122840531Y-53661233D01*
X122745293Y-53708853D01*
X122697674Y-53756472D01*
X122602436Y-53899329D01*
X122554817Y-54089805D01*
X122554817Y-54470757D01*
X122602436Y-54565995D01*
X122650055Y-54613614D01*
X122745293Y-54661233D01*
X122935769Y-54661233D01*
X123031007Y-54613614D01*
X123078626Y-54565995D01*
X123126245Y-54470757D01*
X123126245Y-54232662D01*
X123078626Y-54137424D01*
X123031007Y-54089805D01*
X122935769Y-54042186D01*
X122745293Y-54042186D01*
X122650055Y-54089805D01*
X122602436Y-54137424D01*
X122554817Y-54232662D01*
%TO.C,L4*%
X91522674Y-32711233D02*
X91046483Y-32711233D01*
X91046483Y-31711233D01*
X92284579Y-32044567D02*
X92284579Y-32711233D01*
X92046483Y-31663614D02*
X91808388Y-32377900D01*
X92427436Y-32377900D01*
%TO.C,C17*%
X119091579Y-71896949D02*
X119043960Y-71944568D01*
X118901103Y-71992187D01*
X118805865Y-71992187D01*
X118663008Y-71944568D01*
X118567770Y-71849330D01*
X118520151Y-71754092D01*
X118472532Y-71563616D01*
X118472532Y-71420759D01*
X118520151Y-71230283D01*
X118567770Y-71135045D01*
X118663008Y-71039807D01*
X118805865Y-70992187D01*
X118901103Y-70992187D01*
X119043960Y-71039807D01*
X119091579Y-71087426D01*
X120043960Y-71992187D02*
X119472532Y-71992187D01*
X119758246Y-71992187D02*
X119758246Y-70992187D01*
X119663008Y-71135045D01*
X119567770Y-71230283D01*
X119472532Y-71277902D01*
X120377294Y-70992187D02*
X121043960Y-70992187D01*
X120615389Y-71992187D01*
%TO.C,SW31*%
X257760476Y-32974761D02*
X257903333Y-33022380D01*
X258141428Y-33022380D01*
X258236666Y-32974761D01*
X258284285Y-32927142D01*
X258331904Y-32831904D01*
X258331904Y-32736666D01*
X258284285Y-32641428D01*
X258236666Y-32593809D01*
X258141428Y-32546190D01*
X257950952Y-32498571D01*
X257855714Y-32450952D01*
X257808095Y-32403333D01*
X257760476Y-32308095D01*
X257760476Y-32212857D01*
X257808095Y-32117619D01*
X257855714Y-32070000D01*
X257950952Y-32022380D01*
X258189047Y-32022380D01*
X258331904Y-32070000D01*
X258665238Y-32022380D02*
X258903333Y-33022380D01*
X259093809Y-32308095D01*
X259284285Y-33022380D01*
X259522380Y-32022380D01*
X259808095Y-32022380D02*
X260427142Y-32022380D01*
X260093809Y-32403333D01*
X260236666Y-32403333D01*
X260331904Y-32450952D01*
X260379523Y-32498571D01*
X260427142Y-32593809D01*
X260427142Y-32831904D01*
X260379523Y-32927142D01*
X260331904Y-32974761D01*
X260236666Y-33022380D01*
X259950952Y-33022380D01*
X259855714Y-32974761D01*
X259808095Y-32927142D01*
X261379523Y-33022380D02*
X260808095Y-33022380D01*
X261093809Y-33022380D02*
X261093809Y-32022380D01*
X260998571Y-32165238D01*
X260903333Y-32260476D01*
X260808095Y-32308095D01*
%TO.C,SW12*%
X157760476Y-57974761D02*
X157903333Y-58022380D01*
X158141428Y-58022380D01*
X158236666Y-57974761D01*
X158284285Y-57927142D01*
X158331904Y-57831904D01*
X158331904Y-57736666D01*
X158284285Y-57641428D01*
X158236666Y-57593809D01*
X158141428Y-57546190D01*
X157950952Y-57498571D01*
X157855714Y-57450952D01*
X157808095Y-57403333D01*
X157760476Y-57308095D01*
X157760476Y-57212857D01*
X157808095Y-57117619D01*
X157855714Y-57070000D01*
X157950952Y-57022380D01*
X158189047Y-57022380D01*
X158331904Y-57070000D01*
X158665238Y-57022380D02*
X158903333Y-58022380D01*
X159093809Y-57308095D01*
X159284285Y-58022380D01*
X159522380Y-57022380D01*
X160427142Y-58022380D02*
X159855714Y-58022380D01*
X160141428Y-58022380D02*
X160141428Y-57022380D01*
X160046190Y-57165238D01*
X159950952Y-57260476D01*
X159855714Y-57308095D01*
X160808095Y-57117619D02*
X160855714Y-57070000D01*
X160950952Y-57022380D01*
X161189047Y-57022380D01*
X161284285Y-57070000D01*
X161331904Y-57117619D01*
X161379523Y-57212857D01*
X161379523Y-57308095D01*
X161331904Y-57450952D01*
X160760476Y-58022380D01*
X161379523Y-58022380D01*
%TO.C,C59*%
X125196483Y-39065995D02*
X125148864Y-39113614D01*
X125006007Y-39161233D01*
X124910769Y-39161233D01*
X124767912Y-39113614D01*
X124672674Y-39018376D01*
X124625055Y-38923138D01*
X124577436Y-38732662D01*
X124577436Y-38589805D01*
X124625055Y-38399329D01*
X124672674Y-38304091D01*
X124767912Y-38208853D01*
X124910769Y-38161233D01*
X125006007Y-38161233D01*
X125148864Y-38208853D01*
X125196483Y-38256472D01*
X126101245Y-38161233D02*
X125625055Y-38161233D01*
X125577436Y-38637424D01*
X125625055Y-38589805D01*
X125720293Y-38542186D01*
X125958388Y-38542186D01*
X126053626Y-38589805D01*
X126101245Y-38637424D01*
X126148864Y-38732662D01*
X126148864Y-38970757D01*
X126101245Y-39065995D01*
X126053626Y-39113614D01*
X125958388Y-39161233D01*
X125720293Y-39161233D01*
X125625055Y-39113614D01*
X125577436Y-39065995D01*
X126625055Y-39161233D02*
X126815531Y-39161233D01*
X126910769Y-39113614D01*
X126958388Y-39065995D01*
X127053626Y-38923138D01*
X127101245Y-38732662D01*
X127101245Y-38351710D01*
X127053626Y-38256472D01*
X127006007Y-38208853D01*
X126910769Y-38161233D01*
X126720293Y-38161233D01*
X126625055Y-38208853D01*
X126577436Y-38256472D01*
X126529817Y-38351710D01*
X126529817Y-38589805D01*
X126577436Y-38685043D01*
X126625055Y-38732662D01*
X126720293Y-38780281D01*
X126910769Y-38780281D01*
X127006007Y-38732662D01*
X127053626Y-38685043D01*
X127101245Y-38589805D01*
%TO.C,D51*%
X116625714Y-45912380D02*
X116625714Y-44912380D01*
X116863809Y-44912380D01*
X117006666Y-44960000D01*
X117101904Y-45055238D01*
X117149523Y-45150476D01*
X117197142Y-45340952D01*
X117197142Y-45483809D01*
X117149523Y-45674285D01*
X117101904Y-45769523D01*
X117006666Y-45864761D01*
X116863809Y-45912380D01*
X116625714Y-45912380D01*
X118101904Y-44912380D02*
X117625714Y-44912380D01*
X117578095Y-45388571D01*
X117625714Y-45340952D01*
X117720952Y-45293333D01*
X117959047Y-45293333D01*
X118054285Y-45340952D01*
X118101904Y-45388571D01*
X118149523Y-45483809D01*
X118149523Y-45721904D01*
X118101904Y-45817142D01*
X118054285Y-45864761D01*
X117959047Y-45912380D01*
X117720952Y-45912380D01*
X117625714Y-45864761D01*
X117578095Y-45817142D01*
X119101904Y-45912380D02*
X118530476Y-45912380D01*
X118816190Y-45912380D02*
X118816190Y-44912380D01*
X118720952Y-45055238D01*
X118625714Y-45150476D01*
X118530476Y-45198095D01*
D12*
%TO.C,SW14*%
X153470000Y-108470000D02*
X153470000Y-122670000D01*
X167670000Y-108470000D02*
X153470000Y-108470000D01*
X153470000Y-122670000D02*
X167670000Y-122670000D01*
X167670000Y-122670000D02*
X167670000Y-108470000D01*
%TO.C,D32*%
X188220000Y-44620000D02*
X180920000Y-44620000D01*
X180920000Y-44620000D02*
X180920000Y-45770000D01*
X188220000Y-50120000D02*
X180920000Y-50120000D01*
%TO.C,SW18*%
X177470000Y-83470000D02*
X177470000Y-97670000D01*
X177470000Y-97670000D02*
X191670000Y-97670000D01*
X191670000Y-83470000D02*
X177470000Y-83470000D01*
X191670000Y-97670000D02*
X191670000Y-83470000D01*
%TO.C,R16*%
X144172936Y-84740000D02*
X144627064Y-84740000D01*
X144172936Y-86210000D02*
X144627064Y-86210000D01*
%TO.C,D45*%
X164220000Y-125120000D02*
X164220000Y-123970000D01*
X156920000Y-125120000D02*
X164220000Y-125120000D01*
X156920000Y-119620000D02*
X164220000Y-119620000D01*
%TO.C,SW15*%
X158470000Y-135470000D02*
X158470000Y-149670000D01*
X158470000Y-149670000D02*
X172670000Y-149670000D01*
X172670000Y-135470000D02*
X158470000Y-135470000D01*
X172670000Y-149670000D02*
X172670000Y-135470000D01*
%TO.C,SW27*%
X241670000Y-58470000D02*
X227470000Y-58470000D01*
X227470000Y-58470000D02*
X227470000Y-72670000D01*
X227470000Y-72670000D02*
X241670000Y-72670000D01*
X241670000Y-72670000D02*
X241670000Y-58470000D01*
%TO.C,D48*%
X230920000Y-75120000D02*
X238220000Y-75120000D01*
X238220000Y-75120000D02*
X238220000Y-73970000D01*
X230920000Y-69620000D02*
X238220000Y-69620000D01*
%TO.C,R14*%
X143472936Y-36210000D02*
X143927064Y-36210000D01*
X143472936Y-34740000D02*
X143927064Y-34740000D01*
%TO.C,D43*%
X263220000Y-44620000D02*
X255920000Y-44620000D01*
X255920000Y-44620000D02*
X255920000Y-45770000D01*
X263220000Y-50120000D02*
X255920000Y-50120000D01*
%TO.C,SW17*%
X177470000Y-58470000D02*
X177470000Y-72670000D01*
X191670000Y-72670000D02*
X191670000Y-58470000D01*
X177470000Y-72670000D02*
X191670000Y-72670000D01*
X191670000Y-58470000D02*
X177470000Y-58470000D01*
%TO.C,R22*%
X104260000Y-37952063D02*
X104260000Y-37497935D01*
X102790000Y-37952063D02*
X102790000Y-37497935D01*
%TO.C,SW25*%
X196470000Y-149670000D02*
X210670000Y-149670000D01*
X210670000Y-149670000D02*
X210670000Y-135470000D01*
X210670000Y-135470000D02*
X196470000Y-135470000D01*
X196470000Y-135470000D02*
X196470000Y-149670000D01*
%TO.C,D42*%
X237920000Y-119120000D02*
X245220000Y-119120000D01*
X245220000Y-119120000D02*
X245220000Y-117970000D01*
X237920000Y-113620000D02*
X245220000Y-113620000D01*
%TO.C,C57*%
X121974341Y-35572601D02*
X121974341Y-36095105D01*
X120504341Y-35572601D02*
X120504341Y-36095105D01*
%TO.C,SW33*%
X234470000Y-97670000D02*
X248670000Y-97670000D01*
X248670000Y-97670000D02*
X248670000Y-83470000D01*
X248670000Y-83470000D02*
X234470000Y-83470000D01*
X234470000Y-83470000D02*
X234470000Y-97670000D01*
%TO.C,SW13*%
X152470000Y-83470000D02*
X152470000Y-97670000D01*
X166670000Y-83470000D02*
X152470000Y-83470000D01*
X152470000Y-97670000D02*
X166670000Y-97670000D01*
X166670000Y-97670000D02*
X166670000Y-83470000D01*
%TO.C,R20*%
X75585000Y-73007064D02*
X75585000Y-72552936D01*
X77055000Y-73007064D02*
X77055000Y-72552936D01*
%TO.C,C55*%
X95524341Y-40220105D02*
X95524341Y-39697601D01*
X94054341Y-40220105D02*
X94054341Y-39697601D01*
%TO.C,SW10*%
X82420000Y-68040000D02*
X96420000Y-68040000D01*
X96420000Y-68040000D02*
X96420000Y-80040000D01*
X96420000Y-80040000D02*
X82420000Y-80040000D01*
X82420000Y-80040000D02*
X82420000Y-68040000D01*
%TO.C,R11*%
X141627064Y-114685000D02*
X141172936Y-114685000D01*
X141627064Y-113215000D02*
X141172936Y-113215000D01*
%TO.C,C64*%
X113535000Y-65136254D02*
X113535000Y-64613750D01*
X112065000Y-65136254D02*
X112065000Y-64613750D01*
%TO.C,L5*%
X123375000Y-70600000D02*
X119775000Y-70600000D01*
X119775000Y-70600000D02*
X119775000Y-65000000D01*
X119775000Y-65000000D02*
X123375000Y-65000000D01*
X123375000Y-65000000D02*
X123375000Y-70600000D01*
%TO.C,J3*%
X127099045Y-102540000D02*
X127099045Y-93910000D01*
X132450000Y-93910000D02*
X132450000Y-93500000D01*
X125680000Y-93910000D02*
X138500000Y-93910000D01*
X126154285Y-102540000D02*
X126154285Y-93910000D01*
X134990000Y-93910000D02*
X134990000Y-93500000D01*
X127571425Y-102540000D02*
X127571425Y-93910000D01*
X126272380Y-102540000D02*
X126272380Y-93910000D01*
X125680000Y-102540000D02*
X125680000Y-93910000D01*
X126036190Y-102540000D02*
X126036190Y-93910000D01*
X134270000Y-93910000D02*
X134270000Y-93500000D01*
X137530000Y-93910000D02*
X137530000Y-93500000D01*
X136810000Y-93910000D02*
X136810000Y-93500000D01*
X126508570Y-102540000D02*
X126508570Y-93910000D01*
X125800000Y-102540000D02*
X125800000Y-93910000D01*
X133360000Y-102540000D02*
X133360000Y-93910000D01*
X128280000Y-102540000D02*
X128280000Y-93910000D01*
X129190000Y-93910000D02*
X129190000Y-93500000D01*
X135900000Y-102540000D02*
X135900000Y-93910000D01*
X126390475Y-102540000D02*
X126390475Y-93910000D01*
X127925710Y-102540000D02*
X127925710Y-93910000D01*
X125680000Y-92450000D02*
X125680000Y-91340000D01*
X126862855Y-102540000D02*
X126862855Y-93910000D01*
X125918095Y-102540000D02*
X125918095Y-93910000D01*
X126626665Y-102540000D02*
X126626665Y-93910000D01*
X127689520Y-102540000D02*
X127689520Y-93910000D01*
X130820000Y-102540000D02*
X130820000Y-93910000D01*
X127807615Y-102540000D02*
X127807615Y-93910000D01*
X127453330Y-102540000D02*
X127453330Y-93910000D01*
X131730000Y-93910000D02*
X131730000Y-93500000D01*
X128043805Y-102540000D02*
X128043805Y-93910000D01*
X126980950Y-102540000D02*
X126980950Y-93910000D01*
X129910000Y-93910000D02*
X129910000Y-93500000D01*
X125680000Y-91340000D02*
X127010000Y-91340000D01*
X127335235Y-102540000D02*
X127335235Y-93910000D01*
X127370000Y-93910000D02*
X127370000Y-93560000D01*
X128161900Y-102540000D02*
X128161900Y-93910000D01*
X125680000Y-102540000D02*
X138500000Y-102540000D01*
X127217140Y-102540000D02*
X127217140Y-93910000D01*
X126650000Y-93910000D02*
X126650000Y-93560000D01*
X126744760Y-102540000D02*
X126744760Y-93910000D01*
X138500000Y-102540000D02*
X138500000Y-93910000D01*
%TO.C,C53*%
X107928089Y-40923853D02*
X108450593Y-40923853D01*
X107928089Y-42393853D02*
X108450593Y-42393853D01*
%TO.C,SW24*%
X196470000Y-116670000D02*
X210670000Y-116670000D01*
X210670000Y-102470000D02*
X196470000Y-102470000D01*
X196470000Y-102470000D02*
X196470000Y-116670000D01*
X210670000Y-116670000D02*
X210670000Y-102470000D01*
%TO.C,C65*%
X113535000Y-68913748D02*
X113535000Y-69436252D01*
X112065000Y-68913748D02*
X112065000Y-69436252D01*
%TO.C,C62*%
X127490002Y-69036253D02*
X127490002Y-68513749D01*
X128960002Y-69036253D02*
X128960002Y-68513749D01*
%TO.C,R9*%
X141927064Y-38315000D02*
X141472936Y-38315000D01*
X141927064Y-39785000D02*
X141472936Y-39785000D01*
%TO.C,SW16*%
X177470000Y-33470000D02*
X177470000Y-47670000D01*
X177470000Y-47670000D02*
X191670000Y-47670000D01*
X191670000Y-33470000D02*
X177470000Y-33470000D01*
X191670000Y-47670000D02*
X191670000Y-33470000D01*
%TO.C,D38*%
X237920000Y-94620000D02*
X237920000Y-95770000D01*
X245220000Y-100120000D02*
X237920000Y-100120000D01*
X245220000Y-94620000D02*
X237920000Y-94620000D01*
%TO.C,D31*%
X207220000Y-146620000D02*
X199920000Y-146620000D01*
X207220000Y-152120000D02*
X199920000Y-152120000D01*
X199920000Y-146620000D02*
X199920000Y-147770000D01*
D13*
%TO.C,U2*%
X114903261Y-78277800D02*
X114657800Y-78277800D01*
X114657800Y-85542200D02*
X114903261Y-85542200D01*
X121922200Y-78523261D02*
X121922200Y-78277800D01*
X114657800Y-78277800D02*
X114657800Y-78523261D01*
X121922200Y-85542200D02*
X121922200Y-85296739D01*
X121676739Y-85542200D02*
X121922200Y-85542200D01*
X114657800Y-85296739D02*
X114657800Y-85542200D01*
X121922200Y-78277800D02*
X121676739Y-78277800D01*
G36*
X118080501Y-87269400D02*
G01*
X117699501Y-87269400D01*
X117699501Y-87015400D01*
X118080501Y-87015400D01*
X118080501Y-87269400D01*
G37*
G36*
X123649400Y-80900500D02*
G01*
X123395400Y-80900500D01*
X123395400Y-80519500D01*
X123649400Y-80519500D01*
X123649400Y-80900500D01*
G37*
G36*
X113184600Y-80100499D02*
G01*
X112930600Y-80100499D01*
X112930600Y-79719499D01*
X113184600Y-79719499D01*
X113184600Y-80100499D01*
G37*
D12*
%TO.C,R13*%
X141727064Y-64510000D02*
X141272936Y-64510000D01*
X141727064Y-63040000D02*
X141272936Y-63040000D01*
%TO.C,R25*%
X112554341Y-35606789D02*
X112554341Y-36060917D01*
X114024341Y-35606789D02*
X114024341Y-36060917D01*
%TO.C,D44*%
X205920000Y-75120000D02*
X213220000Y-75120000D01*
X213220000Y-75120000D02*
X213220000Y-73970000D01*
X205920000Y-69620000D02*
X213220000Y-69620000D01*
%TO.C,C2*%
X107431252Y-93515000D02*
X106908748Y-93515000D01*
X107431252Y-94985000D02*
X106908748Y-94985000D01*
%TO.C,D53*%
X117810000Y-97750000D02*
X117810000Y-94890000D01*
X117810000Y-94890000D02*
X115890000Y-94890000D01*
X115890000Y-94890000D02*
X115890000Y-97750000D01*
%TO.C,SW23*%
X196470000Y-97670000D02*
X210670000Y-97670000D01*
X210670000Y-83470000D02*
X196470000Y-83470000D01*
X196470000Y-83470000D02*
X196470000Y-97670000D01*
X210670000Y-97670000D02*
X210670000Y-83470000D01*
%TO.C,D52*%
X118114341Y-35383853D02*
X118114341Y-31483853D01*
X116114341Y-35383853D02*
X118114341Y-35383853D01*
X116114341Y-35383853D02*
X116114341Y-31483853D01*
%TO.C,R24*%
X114687277Y-55943853D02*
X115141405Y-55943853D01*
X114687277Y-54473853D02*
X115141405Y-54473853D01*
%TO.C,J1*%
X127880000Y-161570000D02*
X148460000Y-161570000D01*
X148460000Y-170690000D02*
X127880000Y-170690000D01*
X140220000Y-161570000D02*
X140220000Y-170690000D01*
X148460000Y-161570000D02*
X148460000Y-170690000D01*
X136120000Y-161570000D02*
X136120000Y-170690000D01*
X127880000Y-170690000D02*
X127880000Y-161570000D01*
X142750000Y-154950000D02*
X143250000Y-155950000D01*
X143750000Y-154950000D02*
X142750000Y-154950000D01*
X143250000Y-155950000D02*
X143750000Y-154950000D01*
%TO.C,SW1*%
X84820000Y-86850000D02*
X98820000Y-86850000D01*
X98820000Y-86850000D02*
X98820000Y-98850000D01*
X98820000Y-98850000D02*
X84820000Y-98850000D01*
X84820000Y-98850000D02*
X84820000Y-86850000D01*
%TO.C,SW32*%
X266670000Y-72670000D02*
X266670000Y-58470000D01*
X266670000Y-58470000D02*
X252470000Y-58470000D01*
X252470000Y-72670000D02*
X266670000Y-72670000D01*
X252470000Y-58470000D02*
X252470000Y-72670000D01*
%TO.C,R1*%
X112455000Y-97007064D02*
X112455000Y-96552936D01*
X113925000Y-97007064D02*
X113925000Y-96552936D01*
%TO.C,SW20*%
X191670000Y-135470000D02*
X177470000Y-135470000D01*
X177470000Y-149670000D02*
X191670000Y-149670000D01*
X191670000Y-149670000D02*
X191670000Y-135470000D01*
X177470000Y-135470000D02*
X177470000Y-149670000D01*
%TO.C,R17*%
X143172936Y-109740000D02*
X143627064Y-109740000D01*
X143172936Y-111210000D02*
X143627064Y-111210000D01*
%TO.C,C16*%
X81225000Y-72568748D02*
X81225000Y-73091252D01*
X79755000Y-72568748D02*
X79755000Y-73091252D01*
%TO.C,C54*%
X95279341Y-56845105D02*
X95279341Y-56322601D01*
X96749341Y-56845105D02*
X96749341Y-56322601D01*
%TO.C,SW29*%
X229670000Y-102470000D02*
X215470000Y-102470000D01*
X215470000Y-116670000D02*
X229670000Y-116670000D01*
X229670000Y-116670000D02*
X229670000Y-102470000D01*
X215470000Y-102470000D02*
X215470000Y-116670000D01*
%TO.C,C60*%
X125604341Y-46620105D02*
X125604341Y-46097601D01*
X127074341Y-46620105D02*
X127074341Y-46097601D01*
D13*
%TO.C,U1*%
X102887800Y-99087800D02*
X102887800Y-99333261D01*
X110152200Y-99333261D02*
X110152200Y-99087800D01*
X102887800Y-106106739D02*
X102887800Y-106352200D01*
X103133261Y-99087800D02*
X102887800Y-99087800D01*
X109906739Y-106352200D02*
X110152200Y-106352200D01*
X110152200Y-106352200D02*
X110152200Y-106106739D01*
X102887800Y-106352200D02*
X103133261Y-106352200D01*
X110152200Y-99087800D02*
X109906739Y-99087800D01*
G36*
X111879400Y-101710500D02*
G01*
X111625400Y-101710500D01*
X111625400Y-101329500D01*
X111879400Y-101329500D01*
X111879400Y-101710500D01*
G37*
G36*
X106310501Y-108079400D02*
G01*
X105929501Y-108079400D01*
X105929501Y-107825400D01*
X106310501Y-107825400D01*
X106310501Y-108079400D01*
G37*
G36*
X101414600Y-100910499D02*
G01*
X101160600Y-100910499D01*
X101160600Y-100529499D01*
X101414600Y-100529499D01*
X101414600Y-100910499D01*
G37*
D12*
%TO.C,D36*%
X206750000Y-44620000D02*
X206750000Y-45770000D01*
X214050000Y-50120000D02*
X206750000Y-50120000D01*
X214050000Y-44620000D02*
X206750000Y-44620000D01*
%TO.C,D37*%
X155920000Y-75120000D02*
X163220000Y-75120000D01*
X155920000Y-69620000D02*
X163220000Y-69620000D01*
X163220000Y-75120000D02*
X163220000Y-73970000D01*
%TO.C,R10*%
X142627064Y-89610000D02*
X142172936Y-89610000D01*
X142627064Y-88140000D02*
X142172936Y-88140000D01*
%TO.C,D55*%
X128500000Y-72542500D02*
X128500000Y-75402500D01*
X130420000Y-75402500D02*
X130420000Y-72542500D01*
X130420000Y-72542500D02*
X128500000Y-72542500D01*
%TO.C,R26*%
X114037277Y-40543853D02*
X114491405Y-40543853D01*
X114037277Y-39073853D02*
X114491405Y-39073853D01*
%TO.C,SW22*%
X216670000Y-58470000D02*
X202470000Y-58470000D01*
X202470000Y-72670000D02*
X216670000Y-72670000D01*
X202470000Y-58470000D02*
X202470000Y-72670000D01*
X216670000Y-72670000D02*
X216670000Y-58470000D01*
%TO.C,SW35*%
X234470000Y-135470000D02*
X234470000Y-149670000D01*
X248670000Y-149670000D02*
X248670000Y-135470000D01*
X248670000Y-135470000D02*
X234470000Y-135470000D01*
X234470000Y-149670000D02*
X248670000Y-149670000D01*
%TO.C,D49*%
X180920000Y-119120000D02*
X188220000Y-119120000D01*
X188220000Y-119120000D02*
X188220000Y-117970000D01*
X180920000Y-113620000D02*
X188220000Y-113620000D01*
%TO.C,D40*%
X238220000Y-50120000D02*
X230920000Y-50120000D01*
X230920000Y-44620000D02*
X230920000Y-45770000D01*
X238220000Y-44620000D02*
X230920000Y-44620000D01*
%TO.C,R18*%
X145172936Y-138210000D02*
X145627064Y-138210000D01*
X145172936Y-136740000D02*
X145627064Y-136740000D01*
%TO.C,C61*%
X124904341Y-31595105D02*
X124904341Y-31072601D01*
X126374341Y-31595105D02*
X126374341Y-31072601D01*
%TO.C,D50*%
X199920000Y-119120000D02*
X207220000Y-119120000D01*
X207220000Y-119120000D02*
X207220000Y-117970000D01*
X199920000Y-113620000D02*
X207220000Y-113620000D01*
%TO.C,R21*%
X104349341Y-53385917D02*
X104349341Y-52931789D01*
X102879341Y-53385917D02*
X102879341Y-52931789D01*
%TO.C,SW26*%
X241670000Y-33470000D02*
X227470000Y-33470000D01*
X241670000Y-47670000D02*
X241670000Y-33470000D01*
X227470000Y-33470000D02*
X227470000Y-47670000D01*
X227470000Y-47670000D02*
X241670000Y-47670000D01*
%TO.C,SW11*%
X166670000Y-33470000D02*
X152470000Y-33470000D01*
X152470000Y-33470000D02*
X152470000Y-47670000D01*
X152470000Y-47670000D02*
X166670000Y-47670000D01*
X166670000Y-47670000D02*
X166670000Y-33470000D01*
%TO.C,D54*%
X149540000Y-145682500D02*
X147620000Y-145682500D01*
X147620000Y-145682500D02*
X147620000Y-148542500D01*
X149540000Y-148542500D02*
X149540000Y-145682500D01*
%TO.C,U4*%
X108300000Y-36215000D02*
X109100000Y-36215000D01*
X108300000Y-39335000D02*
X107500000Y-39335000D01*
X108300000Y-36215000D02*
X107500000Y-36215000D01*
X108300000Y-39335000D02*
X110100000Y-39335000D01*
%TO.C,J2*%
X65290000Y-93997615D02*
X73920000Y-93997615D01*
X73920000Y-92840000D02*
X74270000Y-92840000D01*
X65290000Y-93879520D02*
X73920000Y-93879520D01*
X65290000Y-102090000D02*
X73920000Y-102090000D01*
X76490000Y-91870000D02*
X76490000Y-93200000D01*
X73920000Y-95380000D02*
X74330000Y-95380000D01*
X65290000Y-92108095D02*
X73920000Y-92108095D01*
X65290000Y-93407140D02*
X73920000Y-93407140D01*
X65290000Y-104690000D02*
X73920000Y-104690000D01*
X65290000Y-93643330D02*
X73920000Y-93643330D01*
X65290000Y-94351900D02*
X73920000Y-94351900D01*
X73920000Y-93560000D02*
X74270000Y-93560000D01*
X73920000Y-98640000D02*
X74330000Y-98640000D01*
X73920000Y-103720000D02*
X74330000Y-103720000D01*
X75380000Y-91870000D02*
X76490000Y-91870000D01*
X65290000Y-97010000D02*
X73920000Y-97010000D01*
X65290000Y-92580475D02*
X73920000Y-92580475D01*
X65290000Y-92934760D02*
X73920000Y-92934760D01*
X65290000Y-92698570D02*
X73920000Y-92698570D01*
X65290000Y-93761425D02*
X73920000Y-93761425D01*
X65290000Y-93289045D02*
X73920000Y-93289045D01*
X65290000Y-91870000D02*
X65290000Y-104690000D01*
X65290000Y-92344285D02*
X73920000Y-92344285D01*
X73920000Y-97920000D02*
X74330000Y-97920000D01*
X65290000Y-94115710D02*
X73920000Y-94115710D01*
X73920000Y-103000000D02*
X74330000Y-103000000D01*
X65290000Y-91990000D02*
X73920000Y-91990000D01*
X65290000Y-92226190D02*
X73920000Y-92226190D01*
X65290000Y-93170950D02*
X73920000Y-93170950D01*
X65290000Y-93525235D02*
X73920000Y-93525235D01*
X65290000Y-94233805D02*
X73920000Y-94233805D01*
X65290000Y-94470000D02*
X73920000Y-94470000D01*
X73920000Y-96100000D02*
X74330000Y-96100000D01*
X73920000Y-100460000D02*
X74330000Y-100460000D01*
X65290000Y-92462380D02*
X73920000Y-92462380D01*
X73920000Y-101180000D02*
X74330000Y-101180000D01*
X65290000Y-99550000D02*
X73920000Y-99550000D01*
X65290000Y-91870000D02*
X73920000Y-91870000D01*
X73920000Y-91870000D02*
X73920000Y-104690000D01*
X65290000Y-93052855D02*
X73920000Y-93052855D01*
X65290000Y-92816665D02*
X73920000Y-92816665D01*
%TO.C,D35*%
X188220000Y-146620000D02*
X180920000Y-146620000D01*
X180920000Y-146620000D02*
X180920000Y-147770000D01*
X188220000Y-152120000D02*
X180920000Y-152120000D01*
%TO.C,D28*%
X180920000Y-94620000D02*
X180920000Y-95770000D01*
X188220000Y-100120000D02*
X180920000Y-100120000D01*
X188220000Y-94620000D02*
X180920000Y-94620000D01*
%TO.C,D39*%
X169220000Y-152120000D02*
X161920000Y-152120000D01*
X161920000Y-146620000D02*
X161920000Y-147770000D01*
X169220000Y-146620000D02*
X161920000Y-146620000D01*
%TO.C,D30*%
X245220000Y-146620000D02*
X237920000Y-146620000D01*
X245220000Y-152120000D02*
X237920000Y-152120000D01*
X237920000Y-146620000D02*
X237920000Y-147770000D01*
%TO.C,C63*%
X117660000Y-65161252D02*
X117660000Y-64638748D01*
X116190000Y-65161252D02*
X116190000Y-64638748D01*
%TO.C,U3*%
X108714341Y-51623853D02*
X109514341Y-51623853D01*
X108714341Y-54743853D02*
X107914341Y-54743853D01*
X108714341Y-51623853D02*
X107914341Y-51623853D01*
X108714341Y-54743853D02*
X110514341Y-54743853D01*
%TO.C,SW28*%
X215470000Y-97670000D02*
X229670000Y-97670000D01*
X215470000Y-83470000D02*
X215470000Y-97670000D01*
X229670000Y-97670000D02*
X229670000Y-83470000D01*
X229670000Y-83470000D02*
X215470000Y-83470000D01*
%TO.C,SW34*%
X234470000Y-116670000D02*
X248670000Y-116670000D01*
X234470000Y-102470000D02*
X234470000Y-116670000D01*
X248670000Y-102470000D02*
X234470000Y-102470000D01*
X248670000Y-116670000D02*
X248670000Y-102470000D01*
%TO.C,L3*%
X96964341Y-49558853D02*
X91364341Y-49558853D01*
X91364341Y-49558853D02*
X91364341Y-53158853D01*
X91364341Y-53158853D02*
X96964341Y-53158853D01*
X96964341Y-53158853D02*
X96964341Y-49558853D01*
%TO.C,SW21*%
X216670000Y-47670000D02*
X216670000Y-33470000D01*
X216670000Y-33470000D02*
X202470000Y-33470000D01*
X202470000Y-33470000D02*
X202470000Y-47670000D01*
X202470000Y-47670000D02*
X216670000Y-47670000D01*
%TO.C,D34*%
X226220000Y-100120000D02*
X218920000Y-100120000D01*
X218920000Y-94620000D02*
X218920000Y-95770000D01*
X226220000Y-94620000D02*
X218920000Y-94620000D01*
%TO.C,C14*%
X66545000Y-149008748D02*
X66545000Y-149531252D01*
X65075000Y-149008748D02*
X65075000Y-149531252D01*
%TO.C,D29*%
X207220000Y-94620000D02*
X199920000Y-94620000D01*
X207220000Y-100120000D02*
X199920000Y-100120000D01*
X199920000Y-94620000D02*
X199920000Y-95770000D01*
%TO.C,D47*%
X255920000Y-69620000D02*
X263220000Y-69620000D01*
X263220000Y-75120000D02*
X263220000Y-73970000D01*
X255920000Y-75120000D02*
X263220000Y-75120000D01*
%TO.C,D33*%
X163220000Y-94620000D02*
X155920000Y-94620000D01*
X155920000Y-94620000D02*
X155920000Y-95770000D01*
X163220000Y-100120000D02*
X155920000Y-100120000D01*
%TO.C,R2*%
X144105000Y-149797064D02*
X144105000Y-149342936D01*
X145575000Y-149797064D02*
X145575000Y-149342936D01*
%TO.C,L2*%
X100589341Y-43058853D02*
X94989341Y-43058853D01*
X94989341Y-43058853D02*
X94989341Y-46658853D01*
X94989341Y-46658853D02*
X100589341Y-46658853D01*
X100589341Y-46658853D02*
X100589341Y-43058853D01*
%TO.C,R23*%
X114674341Y-51056789D02*
X114674341Y-51510917D01*
X113204341Y-51056789D02*
X113204341Y-51510917D01*
%TO.C,R3*%
X125855000Y-74212936D02*
X125855000Y-74667064D01*
X124385000Y-74212936D02*
X124385000Y-74667064D01*
%TO.C,R15*%
X143272936Y-59740000D02*
X143727064Y-59740000D01*
X143272936Y-61210000D02*
X143727064Y-61210000D01*
%TO.C,C58*%
X127074341Y-51072601D02*
X127074341Y-51595105D01*
X125604341Y-51072601D02*
X125604341Y-51595105D01*
%TO.C,SW30*%
X215470000Y-135470000D02*
X215470000Y-149670000D01*
X215470000Y-149670000D02*
X229670000Y-149670000D01*
X229670000Y-135470000D02*
X215470000Y-135470000D01*
X229670000Y-149670000D02*
X229670000Y-135470000D01*
%TO.C,D41*%
X180920000Y-75120000D02*
X188220000Y-75120000D01*
X180920000Y-69620000D02*
X188220000Y-69620000D01*
X188220000Y-75120000D02*
X188220000Y-73970000D01*
%TO.C,D46*%
X218920000Y-119120000D02*
X226220000Y-119120000D01*
X218920000Y-113620000D02*
X226220000Y-113620000D01*
X226220000Y-119120000D02*
X226220000Y-117970000D01*
%TO.C,D27*%
X163220000Y-44620000D02*
X155920000Y-44620000D01*
X155920000Y-44620000D02*
X155920000Y-45770000D01*
X163220000Y-50120000D02*
X155920000Y-50120000D01*
%TO.C,D26*%
X226220000Y-146620000D02*
X218920000Y-146620000D01*
X226220000Y-152120000D02*
X218920000Y-152120000D01*
X218920000Y-146620000D02*
X218920000Y-147770000D01*
%TO.C,L1*%
X100664341Y-60608853D02*
X95064341Y-60608853D01*
X95064341Y-60608853D02*
X95064341Y-64208853D01*
X95064341Y-64208853D02*
X100664341Y-64208853D01*
X100664341Y-64208853D02*
X100664341Y-60608853D01*
%TO.C,C52*%
X108353089Y-56923853D02*
X108875593Y-56923853D01*
X108353089Y-58393853D02*
X108875593Y-58393853D01*
%TO.C,SW19*%
X177470000Y-116670000D02*
X191670000Y-116670000D01*
X177470000Y-102470000D02*
X177470000Y-116670000D01*
X191670000Y-102470000D02*
X177470000Y-102470000D01*
X191670000Y-116670000D02*
X191670000Y-102470000D01*
%TO.C,R12*%
X143627064Y-141735000D02*
X143172936Y-141735000D01*
X143627064Y-140265000D02*
X143172936Y-140265000D01*
%TO.C,C56*%
X122624341Y-51072601D02*
X122624341Y-51595105D01*
X121154341Y-51072601D02*
X121154341Y-51595105D01*
%TO.C,L4*%
X95739341Y-33183853D02*
X90139341Y-33183853D01*
X90139341Y-33183853D02*
X90139341Y-36783853D01*
X90139341Y-36783853D02*
X95739341Y-36783853D01*
X95739341Y-36783853D02*
X95739341Y-33183853D01*
%TO.C,C17*%
X120151252Y-72615000D02*
X119628748Y-72615000D01*
X120151252Y-74085000D02*
X119628748Y-74085000D01*
%TO.C,SW31*%
X252470000Y-47670000D02*
X266670000Y-47670000D01*
X266670000Y-33470000D02*
X252470000Y-33470000D01*
X266670000Y-47670000D02*
X266670000Y-33470000D01*
X252470000Y-33470000D02*
X252470000Y-47670000D01*
%TO.C,SW12*%
X152470000Y-72670000D02*
X166670000Y-72670000D01*
X166670000Y-58470000D02*
X152470000Y-58470000D01*
X152470000Y-58470000D02*
X152470000Y-72670000D01*
X166670000Y-72670000D02*
X166670000Y-58470000D01*
%TO.C,C59*%
X124929341Y-35572601D02*
X124929341Y-36095105D01*
X126399341Y-35572601D02*
X126399341Y-36095105D01*
%TO.C,D51*%
X118739341Y-50883853D02*
X118739341Y-46983853D01*
X116739341Y-50883853D02*
X118739341Y-50883853D01*
X116739341Y-50883853D02*
X116739341Y-46983853D01*
%TD*%
M02*
