M48
; DRILL file {KiCad (6.0.0)} date Fri May 12 18:24:33 2023
; FORMAT={-:-/ absolute / metric / decimal}
; #@! TF.CreationDate,2023-05-12T18:24:33+02:00
; #@! TF.GenerationSoftware,Kicad,Pcbnew,(6.0.0)
; #@! TF.FileFunction,NonPlated,1,2,NPTH
FMAT,2
METRIC
; #@! TA.AperFunction,NonPlated,NPTH,ComponentDrill
T1C1.750
; #@! TA.AperFunction,NonPlated,NPTH,ComponentDrill
T2C4.000
%
G90
G05
T1
X154.49Y-40.57
X154.49Y-65.57
X154.49Y-90.57
X155.49Y-115.57
X160.49Y-142.57
X164.65Y-40.57
X164.65Y-65.57
X164.65Y-90.57
X165.65Y-115.57
X170.65Y-142.57
X179.49Y-40.57
X179.49Y-65.57
X179.49Y-90.57
X179.49Y-109.57
X179.49Y-142.57
X189.65Y-40.57
X189.65Y-65.57
X189.65Y-90.57
X189.65Y-109.57
X189.65Y-142.57
X198.49Y-90.57
X198.49Y-109.57
X198.49Y-142.57
X204.49Y-40.57
X204.49Y-65.57
X208.65Y-90.57
X208.65Y-109.57
X208.65Y-142.57
X214.65Y-40.57
X214.65Y-65.57
X217.49Y-90.57
X217.49Y-109.57
X217.49Y-142.57
X227.65Y-90.57
X227.65Y-109.57
X227.65Y-142.57
X229.49Y-40.57
X229.49Y-65.57
X236.49Y-90.57
X236.49Y-109.57
X236.49Y-142.57
X239.65Y-40.57
X239.65Y-65.57
X246.65Y-90.57
X246.65Y-109.57
X246.65Y-142.57
X254.49Y-40.57
X254.49Y-65.57
X264.65Y-40.57
X264.65Y-65.57
T2
X159.57Y-40.57
X159.57Y-65.57
X159.57Y-90.57
X160.57Y-115.57
X165.57Y-142.57
X184.57Y-40.57
X184.57Y-65.57
X184.57Y-90.57
X184.57Y-109.57
X184.57Y-142.57
X203.57Y-90.57
X203.57Y-109.57
X203.57Y-142.57
X209.57Y-40.57
X209.57Y-65.57
X222.57Y-90.57
X222.57Y-109.57
X222.57Y-142.57
X234.57Y-40.57
X234.57Y-65.57
X241.57Y-90.57
X241.57Y-109.57
X241.57Y-142.57
X259.57Y-40.57
X259.57Y-65.57
T0
M30
