%TF.GenerationSoftware,KiCad,Pcbnew,(6.0.0)*%
%TF.CreationDate,2023-05-12T18:24:35+02:00*%
%TF.ProjectId,Pot.butt_pcb,506f742e-6275-4747-945f-7063622e6b69,rev?*%
%TF.SameCoordinates,Original*%
%TF.FileFunction,Paste,Bot*%
%TF.FilePolarity,Positive*%
%FSLAX46Y46*%
G04 Gerber Fmt 4.6, Leading zero omitted, Abs format (unit mm)*
G04 Created by KiCad (PCBNEW (6.0.0)) date 2023-05-12 18:24:35*
%MOMM*%
%LPD*%
G01*
G04 APERTURE LIST*
G04 Aperture macros list*
%AMRoundRect*
0 Rectangle with rounded corners*
0 $1 Rounding radius*
0 $2 $3 $4 $5 $6 $7 $8 $9 X,Y pos of 4 corners*
0 Add a 4 corners polygon primitive as box body*
4,1,4,$2,$3,$4,$5,$6,$7,$8,$9,$2,$3,0*
0 Add four circle primitives for the rounded corners*
1,1,$1+$1,$2,$3*
1,1,$1+$1,$4,$5*
1,1,$1+$1,$6,$7*
1,1,$1+$1,$8,$9*
0 Add four rect primitives between the rounded corners*
20,1,$1+$1,$2,$3,$4,$5,0*
20,1,$1+$1,$4,$5,$6,$7,0*
20,1,$1+$1,$6,$7,$8,$9,0*
20,1,$1+$1,$8,$9,$2,$3,0*%
G04 Aperture macros list end*
%ADD10RoundRect,0.250000X0.337500X0.475000X-0.337500X0.475000X-0.337500X-0.475000X0.337500X-0.475000X0*%
%ADD11R,1.300000X1.700000*%
%ADD12RoundRect,0.250000X-0.475000X0.337500X-0.475000X-0.337500X0.475000X-0.337500X0.475000X0.337500X0*%
%ADD13RoundRect,0.250000X-0.450000X0.350000X-0.450000X-0.350000X0.450000X-0.350000X0.450000X0.350000X0*%
%ADD14RoundRect,0.250000X0.475000X-0.337500X0.475000X0.337500X-0.475000X0.337500X-0.475000X-0.337500X0*%
%ADD15RoundRect,0.250000X-0.337500X-0.475000X0.337500X-0.475000X0.337500X0.475000X-0.337500X0.475000X0*%
G04 APERTURE END LIST*
D10*
%TO.C,C46*%
X218562500Y-112550000D03*
X216487500Y-112550000D03*
%TD*%
D11*
%TO.C,D3*%
X149760000Y-84460000D03*
X153260000Y-84460000D03*
%TD*%
D12*
%TO.C,C30*%
X189725000Y-152812500D03*
X189725000Y-154887500D03*
%TD*%
D13*
%TO.C,R8*%
X92690000Y-134500000D03*
X92690000Y-136500000D03*
%TD*%
%TO.C,R29*%
X118120000Y-134500000D03*
X118120000Y-136500000D03*
%TD*%
D14*
%TO.C,C23*%
X67310000Y-49667500D03*
X67310000Y-47592500D03*
%TD*%
D12*
%TO.C,C34*%
X209500000Y-152837500D03*
X209500000Y-154912500D03*
%TD*%
%TO.C,C44*%
X264975000Y-51062500D03*
X264975000Y-53137500D03*
%TD*%
D14*
%TO.C,C7*%
X66320000Y-120795000D03*
X66320000Y-118720000D03*
%TD*%
%TO.C,C24*%
X67460000Y-70017500D03*
X67460000Y-67942500D03*
%TD*%
D15*
%TO.C,C37*%
X245712500Y-101200000D03*
X247787500Y-101200000D03*
%TD*%
%TO.C,C27*%
X163862500Y-51200000D03*
X165937500Y-51200000D03*
%TD*%
D11*
%TO.C,D12*%
X199770000Y-59470000D03*
X203270000Y-59470000D03*
%TD*%
%TO.C,D5*%
X155770000Y-136470000D03*
X159270000Y-136470000D03*
%TD*%
D14*
%TO.C,C25*%
X67480000Y-75110000D03*
X67480000Y-73035000D03*
%TD*%
D12*
%TO.C,C42*%
X246700000Y-152825000D03*
X246700000Y-154900000D03*
%TD*%
D15*
%TO.C,C31*%
X188750000Y-101175000D03*
X190825000Y-101175000D03*
%TD*%
D14*
%TO.C,C19*%
X67250000Y-39517500D03*
X67250000Y-37442500D03*
%TD*%
D12*
%TO.C,C1*%
X79900000Y-90452500D03*
X79900000Y-92527500D03*
%TD*%
D11*
%TO.C,D1*%
X149700000Y-34500000D03*
X153200000Y-34500000D03*
%TD*%
%TO.C,D11*%
X199780000Y-34470000D03*
X203280000Y-34470000D03*
%TD*%
%TO.C,D9*%
X174760000Y-103470000D03*
X178260000Y-103470000D03*
%TD*%
%TO.C,D15*%
X193770000Y-136470000D03*
X197270000Y-136470000D03*
%TD*%
%TO.C,D13*%
X193770000Y-84460000D03*
X197270000Y-84460000D03*
%TD*%
%TO.C,D8*%
X174770000Y-84460000D03*
X178270000Y-84460000D03*
%TD*%
%TO.C,D16*%
X224770000Y-34470000D03*
X228270000Y-34470000D03*
%TD*%
D12*
%TO.C,C11*%
X65140000Y-143610000D03*
X65140000Y-145685000D03*
%TD*%
D11*
%TO.C,D20*%
X212770000Y-136470000D03*
X216270000Y-136470000D03*
%TD*%
D12*
%TO.C,C40*%
X239650000Y-51112500D03*
X239650000Y-53187500D03*
%TD*%
D11*
%TO.C,D22*%
X249760000Y-59460000D03*
X253260000Y-59460000D03*
%TD*%
D15*
%TO.C,C32*%
X188862500Y-51200000D03*
X190937500Y-51200000D03*
%TD*%
D10*
%TO.C,C50*%
X199562500Y-112575000D03*
X197487500Y-112575000D03*
%TD*%
D11*
%TO.C,D25*%
X231770000Y-136470000D03*
X235270000Y-136470000D03*
%TD*%
D10*
%TO.C,C49*%
X230337500Y-68775000D03*
X228262500Y-68775000D03*
%TD*%
D12*
%TO.C,C36*%
X214750000Y-51137500D03*
X214750000Y-53212500D03*
%TD*%
D13*
%TO.C,R5*%
X102880000Y-134500000D03*
X102880000Y-136500000D03*
%TD*%
D11*
%TO.C,D4*%
X150770000Y-109470000D03*
X154270000Y-109470000D03*
%TD*%
%TO.C,D6*%
X174750000Y-34470000D03*
X178250000Y-34470000D03*
%TD*%
%TO.C,D2*%
X149770000Y-59460000D03*
X153270000Y-59460000D03*
%TD*%
%TO.C,D19*%
X212760000Y-103470000D03*
X216260000Y-103470000D03*
%TD*%
D14*
%TO.C,C6*%
X67820000Y-85257500D03*
X67820000Y-83182500D03*
%TD*%
%TO.C,C4*%
X66340000Y-115717500D03*
X66340000Y-113642500D03*
%TD*%
%TO.C,C5*%
X64820000Y-136017500D03*
X64820000Y-133942500D03*
%TD*%
D13*
%TO.C,R7*%
X107910000Y-134500000D03*
X107910000Y-136500000D03*
%TD*%
D11*
%TO.C,D7*%
X174760000Y-59460000D03*
X178260000Y-59460000D03*
%TD*%
%TO.C,D21*%
X249760000Y-34460000D03*
X253260000Y-34460000D03*
%TD*%
D14*
%TO.C,C9*%
X66340000Y-105500000D03*
X66340000Y-103425000D03*
%TD*%
D10*
%TO.C,C45*%
X205512500Y-69200000D03*
X203437500Y-69200000D03*
%TD*%
%TO.C,C48*%
X255337500Y-69275000D03*
X253262500Y-69275000D03*
%TD*%
D14*
%TO.C,C12*%
X66340000Y-110627500D03*
X66340000Y-108552500D03*
%TD*%
%TO.C,C13*%
X66270000Y-130957500D03*
X66270000Y-128882500D03*
%TD*%
D10*
%TO.C,C39*%
X155487500Y-68200000D03*
X153412500Y-68200000D03*
%TD*%
D14*
%TO.C,C26*%
X67350000Y-54767500D03*
X67350000Y-52692500D03*
%TD*%
%TO.C,C20*%
X67400000Y-59857500D03*
X67400000Y-57782500D03*
%TD*%
D11*
%TO.C,D23*%
X231770000Y-84470000D03*
X235270000Y-84470000D03*
%TD*%
%TO.C,D18*%
X212770000Y-84450000D03*
X216270000Y-84450000D03*
%TD*%
D10*
%TO.C,C47*%
X156462500Y-118550000D03*
X154387500Y-118550000D03*
%TD*%
D13*
%TO.C,R28*%
X97750000Y-134500000D03*
X97750000Y-136500000D03*
%TD*%
D14*
%TO.C,C3*%
X67820000Y-80157500D03*
X67820000Y-78082500D03*
%TD*%
D15*
%TO.C,C28*%
X207812500Y-101175000D03*
X209887500Y-101175000D03*
%TD*%
%TO.C,C29*%
X169737500Y-153175000D03*
X171812500Y-153175000D03*
%TD*%
D13*
%TO.C,R6*%
X87620000Y-134500000D03*
X87620000Y-136500000D03*
%TD*%
%TO.C,R19*%
X74660000Y-88440000D03*
X74660000Y-90440000D03*
%TD*%
D15*
%TO.C,C35*%
X163737500Y-101175000D03*
X165812500Y-101175000D03*
%TD*%
D11*
%TO.C,D24*%
X231770000Y-103460000D03*
X235270000Y-103460000D03*
%TD*%
D12*
%TO.C,C38*%
X227700000Y-152837500D03*
X227700000Y-154912500D03*
%TD*%
D11*
%TO.C,D10*%
X174770000Y-136460000D03*
X178270000Y-136460000D03*
%TD*%
D10*
%TO.C,C51*%
X180487500Y-112550000D03*
X178412500Y-112550000D03*
%TD*%
D11*
%TO.C,D14*%
X193770000Y-103470000D03*
X197270000Y-103470000D03*
%TD*%
D10*
%TO.C,C43*%
X180550000Y-68700000D03*
X178475000Y-68700000D03*
%TD*%
D14*
%TO.C,C22*%
X67420000Y-64897500D03*
X67420000Y-62822500D03*
%TD*%
D11*
%TO.C,D17*%
X224760000Y-59470000D03*
X228260000Y-59470000D03*
%TD*%
D14*
%TO.C,C8*%
X65190000Y-140947500D03*
X65190000Y-138872500D03*
%TD*%
D15*
%TO.C,C33*%
X226625000Y-101200000D03*
X228700000Y-101200000D03*
%TD*%
D13*
%TO.C,R4*%
X82500000Y-134500000D03*
X82500000Y-136500000D03*
%TD*%
D14*
%TO.C,C21*%
X67320000Y-44617500D03*
X67320000Y-42542500D03*
%TD*%
D10*
%TO.C,C41*%
X237487500Y-112575000D03*
X235412500Y-112575000D03*
%TD*%
D14*
%TO.C,C10*%
X66300000Y-125877500D03*
X66300000Y-123802500D03*
%TD*%
D13*
%TO.C,R27*%
X113000000Y-134500000D03*
X113000000Y-136500000D03*
%TD*%
M02*
