%FSLAX45Y45*%
G04 Gerber Fmt 4.5, Leading zero omitted, Abs format (unit mm)*
G04 Created by KiCad (PCBNEW (6.0.0)) date 2023-05-12 18:24:34*
%MOMM*%
%LPD*%
G01*
G04 APERTURE LIST*
%TA.AperFunction,Profile*%
%ADD10C,0.200000*%
%TD*%
%ADD11C,0.200000*%
%ADD12C,0.040000*%
%ADD13C,0.050000*%
%ADD14C,0.100000*%
%ADD15C,0.150000*%
%ADD16C,0.320000*%
G04 APERTURE END LIST*
D10*
X5000000Y-2300000D02*
X27000000Y-2300000D01*
X27000000Y-2300000D02*
X27000000Y-16500000D01*
X27000000Y-16500000D02*
X5000000Y-16500000D01*
X5000000Y-16500000D02*
X5000000Y-2300000D01*
D11*
D12*
X5080000Y-2380000D02*
X5120000Y-2420000D01*
X5120000Y-2380000D02*
X5080000Y-2420000D01*
X5080000Y-2580000D02*
X5120000Y-2620000D01*
X5120000Y-2580000D02*
X5080000Y-2620000D01*
X5080000Y-2780000D02*
X5120000Y-2820000D01*
X5120000Y-2780000D02*
X5080000Y-2820000D01*
X5080000Y-2980000D02*
X5120000Y-3020000D01*
X5120000Y-2980000D02*
X5080000Y-3020000D01*
X5080000Y-3180000D02*
X5120000Y-3220000D01*
X5120000Y-3180000D02*
X5080000Y-3220000D01*
X5080000Y-3380000D02*
X5120000Y-3420000D01*
X5120000Y-3380000D02*
X5080000Y-3420000D01*
X5080000Y-3580000D02*
X5120000Y-3620000D01*
X5120000Y-3580000D02*
X5080000Y-3620000D01*
X5080000Y-3780000D02*
X5120000Y-3820000D01*
X5120000Y-3780000D02*
X5080000Y-3820000D01*
X5080000Y-3980000D02*
X5120000Y-4020000D01*
X5120000Y-3980000D02*
X5080000Y-4020000D01*
X5080000Y-4180000D02*
X5120000Y-4220000D01*
X5120000Y-4180000D02*
X5080000Y-4220000D01*
X5080000Y-4380000D02*
X5120000Y-4420000D01*
X5120000Y-4380000D02*
X5080000Y-4420000D01*
X5080000Y-4580000D02*
X5120000Y-4620000D01*
X5120000Y-4580000D02*
X5080000Y-4620000D01*
X5080000Y-4780000D02*
X5120000Y-4820000D01*
X5120000Y-4780000D02*
X5080000Y-4820000D01*
X5080000Y-4980000D02*
X5120000Y-5020000D01*
X5120000Y-4980000D02*
X5080000Y-5020000D01*
X5080000Y-5180000D02*
X5120000Y-5220000D01*
X5120000Y-5180000D02*
X5080000Y-5220000D01*
X5080000Y-5380000D02*
X5120000Y-5420000D01*
X5120000Y-5380000D02*
X5080000Y-5420000D01*
X5080000Y-5580000D02*
X5120000Y-5620000D01*
X5120000Y-5580000D02*
X5080000Y-5620000D01*
X5080000Y-5780000D02*
X5120000Y-5820000D01*
X5120000Y-5780000D02*
X5080000Y-5820000D01*
X5080000Y-5980000D02*
X5120000Y-6020000D01*
X5120000Y-5980000D02*
X5080000Y-6020000D01*
X5080000Y-6180000D02*
X5120000Y-6220000D01*
X5120000Y-6180000D02*
X5080000Y-6220000D01*
X5080000Y-6380000D02*
X5120000Y-6420000D01*
X5120000Y-6380000D02*
X5080000Y-6420000D01*
X5080000Y-6580000D02*
X5120000Y-6620000D01*
X5120000Y-6580000D02*
X5080000Y-6620000D01*
X5080000Y-6780000D02*
X5120000Y-6820000D01*
X5120000Y-6780000D02*
X5080000Y-6820000D01*
X5080000Y-6980000D02*
X5120000Y-7020000D01*
X5120000Y-6980000D02*
X5080000Y-7020000D01*
X5080000Y-7180000D02*
X5120000Y-7220000D01*
X5120000Y-7180000D02*
X5080000Y-7220000D01*
X5080000Y-7380000D02*
X5120000Y-7420000D01*
X5120000Y-7380000D02*
X5080000Y-7420000D01*
X5080000Y-7580000D02*
X5120000Y-7620000D01*
X5120000Y-7580000D02*
X5080000Y-7620000D01*
X5080000Y-7780000D02*
X5120000Y-7820000D01*
X5120000Y-7780000D02*
X5080000Y-7820000D01*
X5080000Y-7980000D02*
X5120000Y-8020000D01*
X5120000Y-7980000D02*
X5080000Y-8020000D01*
X5080000Y-8180000D02*
X5120000Y-8220000D01*
X5120000Y-8180000D02*
X5080000Y-8220000D01*
X5080000Y-8380000D02*
X5120000Y-8420000D01*
X5120000Y-8380000D02*
X5080000Y-8420000D01*
X5080000Y-8580000D02*
X5120000Y-8620000D01*
X5120000Y-8580000D02*
X5080000Y-8620000D01*
X5080000Y-8780000D02*
X5120000Y-8820000D01*
X5120000Y-8780000D02*
X5080000Y-8820000D01*
X5080000Y-8980000D02*
X5120000Y-9020000D01*
X5120000Y-8980000D02*
X5080000Y-9020000D01*
X5080000Y-9180000D02*
X5120000Y-9220000D01*
X5120000Y-9180000D02*
X5080000Y-9220000D01*
X5080000Y-9380000D02*
X5120000Y-9420000D01*
X5120000Y-9380000D02*
X5080000Y-9420000D01*
X5080000Y-9580000D02*
X5120000Y-9620000D01*
X5120000Y-9580000D02*
X5080000Y-9620000D01*
X5080000Y-9780000D02*
X5120000Y-9820000D01*
X5120000Y-9780000D02*
X5080000Y-9820000D01*
X5080000Y-9980000D02*
X5120000Y-10020000D01*
X5120000Y-9980000D02*
X5080000Y-10020000D01*
X5080000Y-10180000D02*
X5120000Y-10220000D01*
X5120000Y-10180000D02*
X5080000Y-10220000D01*
X5080000Y-10380000D02*
X5120000Y-10420000D01*
X5120000Y-10380000D02*
X5080000Y-10420000D01*
X5080000Y-10580000D02*
X5120000Y-10620000D01*
X5120000Y-10580000D02*
X5080000Y-10620000D01*
X5080000Y-10780000D02*
X5120000Y-10820000D01*
X5120000Y-10780000D02*
X5080000Y-10820000D01*
X5080000Y-10980000D02*
X5120000Y-11020000D01*
X5120000Y-10980000D02*
X5080000Y-11020000D01*
X5080000Y-11180000D02*
X5120000Y-11220000D01*
X5120000Y-11180000D02*
X5080000Y-11220000D01*
X5080000Y-11380000D02*
X5120000Y-11420000D01*
X5120000Y-11380000D02*
X5080000Y-11420000D01*
X5080000Y-11580000D02*
X5120000Y-11620000D01*
X5120000Y-11580000D02*
X5080000Y-11620000D01*
X5080000Y-11780000D02*
X5120000Y-11820000D01*
X5120000Y-11780000D02*
X5080000Y-11820000D01*
X5080000Y-11980000D02*
X5120000Y-12020000D01*
X5120000Y-11980000D02*
X5080000Y-12020000D01*
X5080000Y-12180000D02*
X5120000Y-12220000D01*
X5120000Y-12180000D02*
X5080000Y-12220000D01*
X5080000Y-12380000D02*
X5120000Y-12420000D01*
X5120000Y-12380000D02*
X5080000Y-12420000D01*
X5080000Y-12580000D02*
X5120000Y-12620000D01*
X5120000Y-12580000D02*
X5080000Y-12620000D01*
X5080000Y-12780000D02*
X5120000Y-12820000D01*
X5120000Y-12780000D02*
X5080000Y-12820000D01*
X5080000Y-12980000D02*
X5120000Y-13020000D01*
X5120000Y-12980000D02*
X5080000Y-13020000D01*
X5080000Y-13180000D02*
X5120000Y-13220000D01*
X5120000Y-13180000D02*
X5080000Y-13220000D01*
X5080000Y-13380000D02*
X5120000Y-13420000D01*
X5120000Y-13380000D02*
X5080000Y-13420000D01*
X5080000Y-13580000D02*
X5120000Y-13620000D01*
X5120000Y-13580000D02*
X5080000Y-13620000D01*
X5080000Y-13780000D02*
X5120000Y-13820000D01*
X5120000Y-13780000D02*
X5080000Y-13820000D01*
X5080000Y-13980000D02*
X5120000Y-14020000D01*
X5120000Y-13980000D02*
X5080000Y-14020000D01*
X5080000Y-14180000D02*
X5120000Y-14220000D01*
X5120000Y-14180000D02*
X5080000Y-14220000D01*
X5080000Y-14380000D02*
X5120000Y-14420000D01*
X5120000Y-14380000D02*
X5080000Y-14420000D01*
X5080000Y-14580000D02*
X5120000Y-14620000D01*
X5120000Y-14580000D02*
X5080000Y-14620000D01*
X5080000Y-14780000D02*
X5120000Y-14820000D01*
X5120000Y-14780000D02*
X5080000Y-14820000D01*
X5080000Y-14980000D02*
X5120000Y-15020000D01*
X5120000Y-14980000D02*
X5080000Y-15020000D01*
X5080000Y-15180000D02*
X5120000Y-15220000D01*
X5120000Y-15180000D02*
X5080000Y-15220000D01*
X5080000Y-15380000D02*
X5120000Y-15420000D01*
X5120000Y-15380000D02*
X5080000Y-15420000D01*
X5080000Y-15580000D02*
X5120000Y-15620000D01*
X5120000Y-15580000D02*
X5080000Y-15620000D01*
X5080000Y-15780000D02*
X5120000Y-15820000D01*
X5120000Y-15780000D02*
X5080000Y-15820000D01*
X5080000Y-15980000D02*
X5120000Y-16020000D01*
X5120000Y-15980000D02*
X5080000Y-16020000D01*
X5080000Y-16180000D02*
X5120000Y-16220000D01*
X5120000Y-16180000D02*
X5080000Y-16220000D01*
X5080000Y-16380000D02*
X5120000Y-16420000D01*
X5120000Y-16380000D02*
X5080000Y-16420000D01*
X5243000Y-8349700D02*
X5283000Y-8389700D01*
X5283000Y-8349700D02*
X5243000Y-8389700D01*
X5280000Y-2380000D02*
X5320000Y-2420000D01*
X5320000Y-2380000D02*
X5280000Y-2420000D01*
X5280000Y-16380000D02*
X5320000Y-16420000D01*
X5320000Y-16380000D02*
X5280000Y-16420000D01*
X5317200Y-9369400D02*
X5357200Y-9409400D01*
X5357200Y-9369400D02*
X5317200Y-9409400D01*
X5389300Y-16138700D02*
X5429300Y-16178700D01*
X5429300Y-16138700D02*
X5389300Y-16178700D01*
X5399200Y-4233200D02*
X5439200Y-4273200D01*
X5439200Y-4233200D02*
X5399200Y-4273200D01*
X5400600Y-7193400D02*
X5440600Y-7233400D01*
X5440600Y-7193400D02*
X5400600Y-7233400D01*
X5400800Y-3462000D02*
X5440800Y-3502000D01*
X5440800Y-3462000D02*
X5400800Y-3502000D01*
X5407000Y-6655600D02*
X5447000Y-6695600D01*
X5447000Y-6655600D02*
X5407000Y-6695600D01*
X5428300Y-5365900D02*
X5468300Y-5405900D01*
X5468300Y-5365900D02*
X5428300Y-5405900D01*
X5480000Y-2380000D02*
X5520000Y-2420000D01*
X5520000Y-2380000D02*
X5480000Y-2420000D01*
X5480000Y-16380000D02*
X5520000Y-16420000D01*
X5520000Y-16380000D02*
X5480000Y-16420000D01*
X5529600Y-2715000D02*
X5569600Y-2755000D01*
X5569600Y-2715000D02*
X5529600Y-2755000D01*
X5595800Y-15874100D02*
X5635800Y-15914100D01*
X5635800Y-15874100D02*
X5595800Y-15914100D01*
X5680000Y-2380000D02*
X5720000Y-2420000D01*
X5720000Y-2380000D02*
X5680000Y-2420000D01*
X5680000Y-16380000D02*
X5720000Y-16420000D01*
X5720000Y-16380000D02*
X5680000Y-16420000D01*
X5691600Y-8775700D02*
X5731600Y-8815700D01*
X5731600Y-8775700D02*
X5691600Y-8815700D01*
X5705500Y-15347000D02*
X5745500Y-15387000D01*
X5745500Y-15347000D02*
X5705500Y-15387000D01*
X5714900Y-3429800D02*
X5754900Y-3469800D01*
X5754900Y-3429800D02*
X5714900Y-3469800D01*
X5749600Y-9369400D02*
X5789600Y-9409400D01*
X5789600Y-9369400D02*
X5749600Y-9409400D01*
X5815300Y-16076300D02*
X5855300Y-16116300D01*
X5855300Y-16076300D02*
X5815300Y-16116300D01*
X5880000Y-2380000D02*
X5920000Y-2420000D01*
X5920000Y-2380000D02*
X5880000Y-2420000D01*
X5880000Y-16380000D02*
X5920000Y-16420000D01*
X5920000Y-16380000D02*
X5880000Y-16420000D01*
X5962000Y-2781700D02*
X6002000Y-2821700D01*
X6002000Y-2781700D02*
X5962000Y-2821700D01*
X6080000Y-2380000D02*
X6120000Y-2420000D01*
X6120000Y-2380000D02*
X6080000Y-2420000D01*
X6080000Y-16380000D02*
X6120000Y-16420000D01*
X6120000Y-16380000D02*
X6080000Y-16420000D01*
X6103500Y-15564300D02*
X6143500Y-15604300D01*
X6143500Y-15564300D02*
X6103500Y-15604300D01*
X6254000Y-14843100D02*
X6294000Y-14883100D01*
X6294000Y-14843100D02*
X6254000Y-14883100D01*
X6280000Y-2380000D02*
X6320000Y-2420000D01*
X6320000Y-2380000D02*
X6280000Y-2420000D01*
X6280000Y-16380000D02*
X6320000Y-16420000D01*
X6320000Y-16380000D02*
X6280000Y-16420000D01*
X6303500Y-14239200D02*
X6343500Y-14279200D01*
X6343500Y-14239200D02*
X6303500Y-14279200D01*
X6307000Y-9418200D02*
X6347000Y-9458200D01*
X6347000Y-9418200D02*
X6307000Y-9458200D01*
X6339100Y-13741300D02*
X6379100Y-13781300D01*
X6379100Y-13741300D02*
X6339100Y-13781300D01*
X6356400Y-7696100D02*
X6396400Y-7736100D01*
X6396400Y-7696100D02*
X6356400Y-7736100D01*
X6358100Y-7262100D02*
X6398100Y-7302100D01*
X6398100Y-7262100D02*
X6358100Y-7302100D01*
X6358300Y-4123400D02*
X6398300Y-4163400D01*
X6398300Y-4123400D02*
X6358300Y-4163400D01*
X6372800Y-5222200D02*
X6412800Y-5262200D01*
X6412800Y-5222200D02*
X6372800Y-5262200D01*
X6374600Y-12702200D02*
X6414600Y-12742200D01*
X6414600Y-12702200D02*
X6374600Y-12742200D01*
X6382500Y-4704300D02*
X6422500Y-4744300D01*
X6422500Y-4704300D02*
X6382500Y-4744300D01*
X6384300Y-13205600D02*
X6424300Y-13245600D01*
X6424300Y-13205600D02*
X6384300Y-13245600D01*
X6384500Y-10124900D02*
X6424500Y-10164900D01*
X6424500Y-10124900D02*
X6384500Y-10164900D01*
X6391800Y-16100000D02*
X6431800Y-16140000D01*
X6431800Y-16100000D02*
X6391800Y-16140000D01*
X6393600Y-6226200D02*
X6433600Y-6266200D01*
X6433600Y-6226200D02*
X6393600Y-6266200D01*
X6398300Y-8264000D02*
X6438300Y-8304000D01*
X6438300Y-8264000D02*
X6398300Y-8304000D01*
X6400100Y-6742500D02*
X6440100Y-6782500D01*
X6440100Y-6742500D02*
X6400100Y-6782500D01*
X6411600Y-3336700D02*
X6451600Y-3376700D01*
X6451600Y-3336700D02*
X6411600Y-3376700D01*
X6420500Y-5678800D02*
X6460500Y-5718800D01*
X6460500Y-5678800D02*
X6420500Y-5718800D01*
X6424100Y-15783700D02*
X6464100Y-15823700D01*
X6464100Y-15783700D02*
X6424100Y-15823700D01*
X6472900Y-8694400D02*
X6512900Y-8734400D01*
X6512900Y-8694400D02*
X6472900Y-8734400D01*
X6480000Y-2380000D02*
X6520000Y-2420000D01*
X6520000Y-2380000D02*
X6480000Y-2420000D01*
X6480000Y-16380000D02*
X6520000Y-16420000D01*
X6520000Y-16380000D02*
X6480000Y-16420000D01*
X6619800Y-15467500D02*
X6659800Y-15507500D01*
X6659800Y-15467500D02*
X6619800Y-15507500D01*
X6644600Y-13706800D02*
X6684600Y-13746800D01*
X6684600Y-13706800D02*
X6644600Y-13746800D01*
X6680000Y-2380000D02*
X6720000Y-2420000D01*
X6720000Y-2380000D02*
X6680000Y-2420000D01*
X6680000Y-16380000D02*
X6720000Y-16420000D01*
X6720000Y-16380000D02*
X6680000Y-16420000D01*
X6687800Y-9805500D02*
X6727800Y-9845500D01*
X6727800Y-9805500D02*
X6687800Y-9845500D01*
X6700700Y-9595700D02*
X6740700Y-9635700D01*
X6740700Y-9595700D02*
X6700700Y-9635700D01*
X6765500Y-8924600D02*
X6805500Y-8964600D01*
X6805500Y-8924600D02*
X6765500Y-8964600D01*
X6839300Y-13260500D02*
X6879300Y-13300500D01*
X6879300Y-13260500D02*
X6839300Y-13300500D01*
X6862800Y-14242900D02*
X6902800Y-14282900D01*
X6902800Y-14242900D02*
X6862800Y-14282900D01*
X6868800Y-11806700D02*
X6908800Y-11846700D01*
X6908800Y-11806700D02*
X6868800Y-11846700D01*
X6880000Y-2380000D02*
X6920000Y-2420000D01*
X6920000Y-2380000D02*
X6880000Y-2420000D01*
X6880000Y-16380000D02*
X6920000Y-16420000D01*
X6920000Y-16380000D02*
X6880000Y-16420000D01*
X6910700Y-11293600D02*
X6950700Y-11333600D01*
X6950700Y-11293600D02*
X6910700Y-11333600D01*
X6917200Y-10814400D02*
X6957200Y-10854400D01*
X6957200Y-10814400D02*
X6917200Y-10854400D01*
X6933300Y-12277800D02*
X6973300Y-12317800D01*
X6973300Y-12277800D02*
X6933300Y-12317800D01*
X6934300Y-4602600D02*
X6974300Y-4642600D01*
X6974300Y-4602600D02*
X6934300Y-4642600D01*
X6959800Y-8775500D02*
X6999800Y-8815500D01*
X6999800Y-8775500D02*
X6959800Y-8815500D01*
X6982700Y-5275400D02*
X7022700Y-5315400D01*
X7022700Y-5275400D02*
X6982700Y-5315400D01*
X6997200Y-4167000D02*
X7037200Y-4207000D01*
X7037200Y-4167000D02*
X6997200Y-4207000D01*
X7005000Y-7638000D02*
X7045000Y-7678000D01*
X7045000Y-7638000D02*
X7005000Y-7678000D01*
X7017700Y-15260800D02*
X7057700Y-15300800D01*
X7057700Y-15260800D02*
X7017700Y-15300800D01*
X7024400Y-7218500D02*
X7064400Y-7258500D01*
X7064400Y-7218500D02*
X7024400Y-7258500D01*
X7039300Y-14835000D02*
X7079300Y-14875000D01*
X7079300Y-14835000D02*
X7039300Y-14875000D01*
X7041900Y-3383900D02*
X7081900Y-3423900D01*
X7081900Y-3383900D02*
X7041900Y-3423900D01*
X7043700Y-8247900D02*
X7083700Y-8287900D01*
X7083700Y-8247900D02*
X7043700Y-8287900D01*
X7045800Y-12757100D02*
X7085800Y-12797100D01*
X7085800Y-12757100D02*
X7045800Y-12797100D01*
X7055700Y-10063600D02*
X7095700Y-10103600D01*
X7095700Y-10063600D02*
X7055700Y-10103600D01*
X7059600Y-14062200D02*
X7099600Y-14102200D01*
X7099600Y-14062200D02*
X7059600Y-14102200D01*
X7080000Y-2380000D02*
X7120000Y-2420000D01*
X7120000Y-2380000D02*
X7080000Y-2420000D01*
X7080000Y-16380000D02*
X7120000Y-16420000D01*
X7120000Y-16380000D02*
X7080000Y-16420000D01*
X7095400Y-5729300D02*
X7135400Y-5769300D01*
X7135400Y-5729300D02*
X7095400Y-5769300D01*
X7166300Y-6747300D02*
X7206300Y-6787300D01*
X7206300Y-6747300D02*
X7166300Y-6787300D01*
X7177000Y-15015700D02*
X7217000Y-15055700D01*
X7217000Y-15015700D02*
X7177000Y-15055700D01*
X7205100Y-6223000D02*
X7245100Y-6263000D01*
X7245100Y-6223000D02*
X7205100Y-6263000D01*
X7205100Y-7744500D02*
X7245100Y-7784500D01*
X7245100Y-7744500D02*
X7205100Y-7784500D01*
X7210800Y-12274600D02*
X7250800Y-12314600D01*
X7250800Y-12274600D02*
X7210800Y-12314600D01*
X7228000Y-8662100D02*
X7268000Y-8702100D01*
X7268000Y-8662100D02*
X7228000Y-8702100D01*
X7248900Y-4142800D02*
X7288900Y-4182800D01*
X7288900Y-4142800D02*
X7248900Y-4182800D01*
X7258600Y-5222200D02*
X7298600Y-5262200D01*
X7298600Y-5222200D02*
X7258600Y-5262200D01*
X7280000Y-2380000D02*
X7320000Y-2420000D01*
X7320000Y-2380000D02*
X7280000Y-2420000D01*
X7280000Y-16380000D02*
X7320000Y-16420000D01*
X7320000Y-16380000D02*
X7280000Y-16420000D01*
X7298600Y-8209100D02*
X7338600Y-8249100D01*
X7338600Y-8209100D02*
X7298600Y-8249100D01*
X7330900Y-7250700D02*
X7370900Y-7290700D01*
X7370900Y-7250700D02*
X7330900Y-7290700D01*
X7360700Y-13754500D02*
X7400700Y-13794500D01*
X7400700Y-13754500D02*
X7360700Y-13794500D01*
X7376200Y-11778400D02*
X7416200Y-11818400D01*
X7416200Y-11778400D02*
X7376200Y-11818400D01*
X7442400Y-11286300D02*
X7482400Y-11326300D01*
X7482400Y-11286300D02*
X7442400Y-11326300D01*
X7453500Y-5745400D02*
X7493500Y-5785400D01*
X7493500Y-5745400D02*
X7453500Y-5785400D01*
X7476400Y-4675200D02*
X7516400Y-4715200D01*
X7516400Y-4675200D02*
X7476400Y-4715200D01*
X7480000Y-2380000D02*
X7520000Y-2420000D01*
X7520000Y-2380000D02*
X7480000Y-2420000D01*
X7480000Y-16380000D02*
X7520000Y-16420000D01*
X7520000Y-16380000D02*
X7480000Y-16420000D01*
X7484300Y-10821600D02*
X7524300Y-10861600D01*
X7524300Y-10821600D02*
X7484300Y-10861600D01*
X7578100Y-4312200D02*
X7618100Y-4352200D01*
X7618100Y-4312200D02*
X7578100Y-4352200D01*
X7611700Y-6669900D02*
X7651700Y-6709900D01*
X7651700Y-6669900D02*
X7611700Y-6709900D01*
X7676800Y-15065800D02*
X7716800Y-15105800D01*
X7716800Y-15065800D02*
X7676800Y-15105800D01*
X7680000Y-2380000D02*
X7720000Y-2420000D01*
X7720000Y-2380000D02*
X7680000Y-2420000D01*
X7680000Y-16380000D02*
X7720000Y-16420000D01*
X7720000Y-16380000D02*
X7680000Y-16420000D01*
X7692000Y-13444800D02*
X7732000Y-13484800D01*
X7732000Y-13444800D02*
X7692000Y-13484800D01*
X7703900Y-5406100D02*
X7743900Y-5446100D01*
X7743900Y-5406100D02*
X7703900Y-5446100D01*
X7762900Y-14289200D02*
X7802900Y-14329200D01*
X7802900Y-14289200D02*
X7762900Y-14329200D01*
X7769300Y-15747800D02*
X7809300Y-15787800D01*
X7809300Y-15747800D02*
X7769300Y-15787800D01*
X7781400Y-3933800D02*
X7821400Y-3973800D01*
X7821400Y-3933800D02*
X7781400Y-3973800D01*
X7786200Y-4743000D02*
X7826200Y-4783000D01*
X7826200Y-4743000D02*
X7786200Y-4783000D01*
X7792700Y-9346300D02*
X7832700Y-9386300D01*
X7832700Y-9346300D02*
X7792700Y-9386300D01*
X7795600Y-9733900D02*
X7835600Y-9773900D01*
X7835600Y-9733900D02*
X7795600Y-9773900D01*
X7824600Y-6284300D02*
X7864600Y-6324300D01*
X7864600Y-6284300D02*
X7824600Y-6324300D01*
X7834300Y-8252700D02*
X7874300Y-8292700D01*
X7874300Y-8252700D02*
X7834300Y-8292700D01*
X7869200Y-14063300D02*
X7909200Y-14103300D01*
X7909200Y-14063300D02*
X7869200Y-14103300D01*
X7880000Y-2380000D02*
X7920000Y-2420000D01*
X7920000Y-2380000D02*
X7880000Y-2420000D01*
X7880000Y-16380000D02*
X7920000Y-16420000D01*
X7920000Y-16380000D02*
X7880000Y-16420000D01*
X7880900Y-2767600D02*
X7920900Y-2807600D01*
X7920900Y-2767600D02*
X7880900Y-2807600D01*
X7884000Y-8824000D02*
X7924000Y-8864000D01*
X7924000Y-8824000D02*
X7884000Y-8864000D01*
X7910700Y-13835300D02*
X7950700Y-13875300D01*
X7950700Y-13835300D02*
X7910700Y-13875300D01*
X7921500Y-10300200D02*
X7961500Y-10340200D01*
X7961500Y-10300200D02*
X7921500Y-10340200D01*
X7959500Y-10695000D02*
X7999500Y-10735000D01*
X7999500Y-10695000D02*
X7959500Y-10735000D01*
X8003500Y-3106400D02*
X8043500Y-3146400D01*
X8043500Y-3106400D02*
X8003500Y-3146400D01*
X8014700Y-13096300D02*
X8054700Y-13136300D01*
X8054700Y-13096300D02*
X8014700Y-13136300D01*
X8037600Y-7762300D02*
X8077600Y-7802300D01*
X8077600Y-7762300D02*
X8037600Y-7802300D01*
X8052400Y-4101600D02*
X8092400Y-4141600D01*
X8092400Y-4101600D02*
X8052400Y-4141600D01*
X8066700Y-6734400D02*
X8106700Y-6774400D01*
X8106700Y-6734400D02*
X8066700Y-6774400D01*
X8080000Y-2380000D02*
X8120000Y-2420000D01*
X8120000Y-2380000D02*
X8080000Y-2420000D01*
X8080000Y-16380000D02*
X8120000Y-16420000D01*
X8120000Y-16380000D02*
X8080000Y-16420000D01*
X8131200Y-8688400D02*
X8171200Y-8728400D01*
X8171200Y-8688400D02*
X8131200Y-8728400D01*
X8136200Y-10250400D02*
X8176200Y-10290400D01*
X8176200Y-10250400D02*
X8136200Y-10290400D01*
X8218400Y-9859700D02*
X8258400Y-9899700D01*
X8258400Y-9859700D02*
X8218400Y-9899700D01*
X8250900Y-9252700D02*
X8290900Y-9292700D01*
X8290900Y-9252700D02*
X8250900Y-9292700D01*
X8279700Y-8285000D02*
X8319700Y-8325000D01*
X8319700Y-8285000D02*
X8279700Y-8325000D01*
X8280000Y-2380000D02*
X8320000Y-2420000D01*
X8320000Y-2380000D02*
X8280000Y-2420000D01*
X8280000Y-16380000D02*
X8320000Y-16420000D01*
X8320000Y-16380000D02*
X8280000Y-16420000D01*
X8346100Y-4540500D02*
X8386100Y-4580500D01*
X8386100Y-4540500D02*
X8346100Y-4580500D01*
X8364700Y-15878500D02*
X8404700Y-15918500D01*
X8404700Y-15878500D02*
X8364700Y-15918500D01*
X8368400Y-14203500D02*
X8408400Y-14243500D01*
X8408400Y-14203500D02*
X8368400Y-14243500D01*
X8412000Y-10245400D02*
X8452000Y-10285400D01*
X8452000Y-10245400D02*
X8412000Y-10285400D01*
X8466800Y-7336300D02*
X8506800Y-7376300D01*
X8506800Y-7336300D02*
X8466800Y-7376300D01*
X8468700Y-5362600D02*
X8508700Y-5402600D01*
X8508700Y-5362600D02*
X8468700Y-5402600D01*
X8480000Y-2380000D02*
X8520000Y-2420000D01*
X8520000Y-2380000D02*
X8480000Y-2420000D01*
X8480000Y-16380000D02*
X8520000Y-16420000D01*
X8520000Y-16380000D02*
X8480000Y-16420000D01*
X8492900Y-4941500D02*
X8532900Y-4981500D01*
X8532900Y-4941500D02*
X8492900Y-4981500D01*
X8495900Y-13805200D02*
X8535900Y-13845200D01*
X8535900Y-13805200D02*
X8495900Y-13845200D01*
X8524900Y-7842900D02*
X8564900Y-7882900D01*
X8564900Y-7842900D02*
X8524900Y-7882900D01*
X8534200Y-13161100D02*
X8574200Y-13201100D01*
X8574200Y-13161100D02*
X8534200Y-13201100D01*
X8548800Y-3325900D02*
X8588800Y-3365900D01*
X8588800Y-3325900D02*
X8548800Y-3365900D01*
X8575200Y-5701400D02*
X8615200Y-5741400D01*
X8615200Y-5701400D02*
X8575200Y-5741400D01*
X8625400Y-3588700D02*
X8665400Y-3628700D01*
X8665400Y-3588700D02*
X8625400Y-3628700D01*
X8661600Y-15228300D02*
X8701600Y-15268300D01*
X8701600Y-15228300D02*
X8661600Y-15268300D01*
X8680000Y-2380000D02*
X8720000Y-2420000D01*
X8720000Y-2380000D02*
X8680000Y-2420000D01*
X8680000Y-16380000D02*
X8720000Y-16420000D01*
X8720000Y-16380000D02*
X8680000Y-16420000D01*
X8705600Y-7342800D02*
X8745600Y-7382800D01*
X8745600Y-7342800D02*
X8705600Y-7382800D01*
X8725300Y-9704500D02*
X8765300Y-9744500D01*
X8765300Y-9704500D02*
X8725300Y-9744500D01*
X8737900Y-8285000D02*
X8777900Y-8325000D01*
X8777900Y-8285000D02*
X8737900Y-8325000D01*
X8800500Y-3780800D02*
X8840500Y-3820800D01*
X8840500Y-3780800D02*
X8800500Y-3820800D01*
X8815300Y-7704200D02*
X8855300Y-7744200D01*
X8855300Y-7704200D02*
X8815300Y-7744200D01*
X8832800Y-2912800D02*
X8872800Y-2952800D01*
X8872800Y-2912800D02*
X8832800Y-2952800D01*
X8866800Y-14207200D02*
X8906800Y-14247200D01*
X8906800Y-14207200D02*
X8866800Y-14247200D01*
X8872900Y-15912400D02*
X8912900Y-15952400D01*
X8912900Y-15912400D02*
X8872900Y-15952400D01*
X8880000Y-2380000D02*
X8920000Y-2420000D01*
X8920000Y-2380000D02*
X8880000Y-2420000D01*
X8880000Y-16380000D02*
X8920000Y-16420000D01*
X8920000Y-16380000D02*
X8880000Y-16420000D01*
X8887000Y-9966000D02*
X8927000Y-10006000D01*
X8927000Y-9966000D02*
X8887000Y-10006000D01*
X8918900Y-6156400D02*
X8958900Y-6196400D01*
X8958900Y-6156400D02*
X8918900Y-6196400D01*
X8970200Y-9382200D02*
X9010200Y-9422200D01*
X9010200Y-9382200D02*
X8970200Y-9422200D01*
X8973000Y-9061000D02*
X9013000Y-9101000D01*
X9013000Y-9061000D02*
X8973000Y-9101000D01*
X8974700Y-13127200D02*
X9014700Y-13167200D01*
X9014700Y-13127200D02*
X8974700Y-13167200D01*
X9003800Y-5121700D02*
X9043800Y-5161700D01*
X9043800Y-5121700D02*
X9003800Y-5161700D01*
X9005700Y-8691600D02*
X9045700Y-8731600D01*
X9045700Y-8691600D02*
X9005700Y-8731600D01*
X9010000Y-10060000D02*
X9050000Y-10100000D01*
X9050000Y-10060000D02*
X9010000Y-10100000D01*
X9012200Y-7810700D02*
X9052200Y-7850700D01*
X9052200Y-7810700D02*
X9012200Y-7850700D01*
X9013400Y-13814500D02*
X9053400Y-13854500D01*
X9053400Y-13814500D02*
X9013400Y-13854500D01*
X9020600Y-4359900D02*
X9060600Y-4399900D01*
X9060600Y-4359900D02*
X9020600Y-4399900D01*
X9048300Y-4170400D02*
X9088300Y-4210400D01*
X9088300Y-4170400D02*
X9048300Y-4210400D01*
X9080000Y-2380000D02*
X9120000Y-2420000D01*
X9120000Y-2380000D02*
X9080000Y-2420000D01*
X9080000Y-16380000D02*
X9120000Y-16420000D01*
X9120000Y-16380000D02*
X9080000Y-16420000D01*
X9091000Y-5612900D02*
X9131000Y-5652900D01*
X9131000Y-5612900D02*
X9091000Y-5652900D01*
X9112100Y-4617600D02*
X9152100Y-4657600D01*
X9152100Y-4617600D02*
X9112100Y-4657600D01*
X9180000Y-8272100D02*
X9220000Y-8312100D01*
X9220000Y-8272100D02*
X9180000Y-8312100D01*
X9193000Y-10136950D02*
X9233000Y-10176950D01*
X9233000Y-10136950D02*
X9193000Y-10176950D01*
X9212800Y-9580200D02*
X9252800Y-9620200D01*
X9252800Y-9580200D02*
X9212800Y-9620200D01*
X9259800Y-4358000D02*
X9299800Y-4398000D01*
X9299800Y-4358000D02*
X9259800Y-4398000D01*
X9266000Y-7998000D02*
X9306000Y-8038000D01*
X9306000Y-7998000D02*
X9266000Y-8038000D01*
X9277200Y-3427300D02*
X9317200Y-3467300D01*
X9317200Y-3427300D02*
X9277200Y-3467300D01*
X9280000Y-2380000D02*
X9320000Y-2420000D01*
X9320000Y-2380000D02*
X9280000Y-2420000D01*
X9280000Y-16380000D02*
X9320000Y-16420000D01*
X9320000Y-16380000D02*
X9280000Y-16420000D01*
X9283100Y-14850600D02*
X9323100Y-14890600D01*
X9323100Y-14850600D02*
X9283100Y-14890600D01*
X9298800Y-9033800D02*
X9338800Y-9073800D01*
X9338800Y-9033800D02*
X9298800Y-9073800D01*
X9301000Y-8491000D02*
X9341000Y-8531000D01*
X9341000Y-8491000D02*
X9301000Y-8531000D01*
X9321100Y-5494600D02*
X9361100Y-5534600D01*
X9361100Y-5494600D02*
X9321100Y-5534600D01*
X9326000Y-6510000D02*
X9366000Y-6550000D01*
X9366000Y-6510000D02*
X9326000Y-6550000D01*
X9328000Y-12410800D02*
X9368000Y-12450800D01*
X9368000Y-12410800D02*
X9328000Y-12450800D01*
X9342700Y-2612700D02*
X9382700Y-2652700D01*
X9382700Y-2612700D02*
X9342700Y-2652700D01*
X9347000Y-6000100D02*
X9387000Y-6040100D01*
X9387000Y-6000100D02*
X9347000Y-6040100D01*
X9359000Y-12702000D02*
X9399000Y-12742000D01*
X9399000Y-12702000D02*
X9359000Y-12742000D01*
X9374000Y-10216950D02*
X9414000Y-10256950D01*
X9414000Y-10216950D02*
X9374000Y-10256950D01*
X9382500Y-14213700D02*
X9422500Y-14253700D01*
X9422500Y-14213700D02*
X9382500Y-14253700D01*
X9398200Y-5182700D02*
X9438200Y-5222700D01*
X9438200Y-5182700D02*
X9398200Y-5222700D01*
X9436500Y-9732900D02*
X9476500Y-9772900D01*
X9476500Y-9732900D02*
X9436500Y-9772900D01*
X9480000Y-2380000D02*
X9520000Y-2420000D01*
X9520000Y-2380000D02*
X9480000Y-2420000D01*
X9480000Y-16380000D02*
X9520000Y-16420000D01*
X9520000Y-16380000D02*
X9480000Y-16420000D01*
X9521700Y-13766100D02*
X9561700Y-13806100D01*
X9561700Y-13766100D02*
X9521700Y-13806100D01*
X9522300Y-4782500D02*
X9562300Y-4822500D01*
X9562300Y-4782500D02*
X9522300Y-4822500D01*
X9526500Y-13282100D02*
X9566500Y-13322100D01*
X9566500Y-13282100D02*
X9526500Y-13322100D01*
X9528500Y-8694800D02*
X9568500Y-8734800D01*
X9568500Y-8694800D02*
X9528500Y-8734800D01*
X9547000Y-10296950D02*
X9587000Y-10336950D01*
X9587000Y-10296950D02*
X9547000Y-10336950D01*
X9671600Y-15442900D02*
X9711600Y-15482900D01*
X9711600Y-15442900D02*
X9671600Y-15482900D01*
X9680000Y-2380000D02*
X9720000Y-2420000D01*
X9720000Y-2380000D02*
X9680000Y-2420000D01*
X9680000Y-16380000D02*
X9720000Y-16420000D01*
X9720000Y-16380000D02*
X9680000Y-16420000D01*
X9695900Y-12115600D02*
X9735900Y-12155600D01*
X9735900Y-12115600D02*
X9695900Y-12155600D01*
X9700000Y-6980000D02*
X9740000Y-7020000D01*
X9740000Y-6980000D02*
X9700000Y-7020000D01*
X9700800Y-12570600D02*
X9740800Y-12610600D01*
X9740800Y-12570600D02*
X9700800Y-12610600D01*
X9712000Y-10382000D02*
X9752000Y-10422000D01*
X9752000Y-10382000D02*
X9712000Y-10422000D01*
X9749900Y-4459900D02*
X9789900Y-4499900D01*
X9789900Y-4459900D02*
X9749900Y-4499900D01*
X9765000Y-4932500D02*
X9805000Y-4972500D01*
X9805000Y-4932500D02*
X9765000Y-4972500D01*
X9766000Y-5469900D02*
X9806000Y-5509900D01*
X9806000Y-5469900D02*
X9766000Y-5509900D01*
X9777600Y-3902600D02*
X9817600Y-3942600D01*
X9817600Y-3902600D02*
X9777600Y-3942600D01*
X9785400Y-5195600D02*
X9825400Y-5235600D01*
X9825400Y-5195600D02*
X9785400Y-5235600D01*
X9787500Y-5742500D02*
X9827500Y-5782500D01*
X9827500Y-5742500D02*
X9787500Y-5782500D01*
X9864700Y-2822400D02*
X9904700Y-2862400D01*
X9904700Y-2822400D02*
X9864700Y-2862400D01*
X9873000Y-10456950D02*
X9913000Y-10496950D01*
X9913000Y-10456950D02*
X9873000Y-10496950D01*
X9880000Y-2380000D02*
X9920000Y-2420000D01*
X9920000Y-2380000D02*
X9880000Y-2420000D01*
X9880000Y-16380000D02*
X9920000Y-16420000D01*
X9920000Y-16380000D02*
X9880000Y-16420000D01*
X9891200Y-14206500D02*
X9931200Y-14246500D01*
X9931200Y-14206500D02*
X9891200Y-14246500D01*
X9964800Y-3457300D02*
X10004800Y-3497300D01*
X10004800Y-3457300D02*
X9964800Y-3497300D01*
X9980800Y-9739400D02*
X10020800Y-9779400D01*
X10020800Y-9739400D02*
X9980800Y-9779400D01*
X9981600Y-13103000D02*
X10021600Y-13143000D01*
X10021600Y-13103000D02*
X9981600Y-13143000D01*
X9996100Y-13814600D02*
X10036100Y-13854600D01*
X10036100Y-13814600D02*
X9996100Y-13854600D01*
X9996500Y-11023300D02*
X10036500Y-11063300D01*
X10036500Y-11023300D02*
X9996500Y-11063300D01*
X10002300Y-9550100D02*
X10042300Y-9590100D01*
X10042300Y-9550100D02*
X10002300Y-9590100D01*
X10003500Y-3734800D02*
X10043500Y-3774800D01*
X10043500Y-3734800D02*
X10003500Y-3774800D01*
X10005700Y-11752500D02*
X10045700Y-11792500D01*
X10045700Y-11752500D02*
X10005700Y-11792500D01*
X10015200Y-16115700D02*
X10055200Y-16155700D01*
X10055200Y-16115700D02*
X10015200Y-16155700D01*
X10021700Y-9119800D02*
X10061700Y-9159800D01*
X10061700Y-9119800D02*
X10021700Y-9159800D01*
X10026000Y-10536950D02*
X10066000Y-10576950D01*
X10066000Y-10536950D02*
X10026000Y-10576950D01*
X10080000Y-2380000D02*
X10120000Y-2420000D01*
X10120000Y-2380000D02*
X10080000Y-2420000D01*
X10080000Y-16380000D02*
X10120000Y-16420000D01*
X10120000Y-16380000D02*
X10080000Y-16420000D01*
X10107000Y-6992000D02*
X10147000Y-7032000D01*
X10147000Y-6992000D02*
X10107000Y-7032000D01*
X10114300Y-4011500D02*
X10154300Y-4051500D01*
X10154300Y-4011500D02*
X10114300Y-4051500D01*
X10120000Y-4817500D02*
X10160000Y-4857500D01*
X10160000Y-4817500D02*
X10120000Y-4857500D01*
X10121100Y-8497500D02*
X10161100Y-8537500D01*
X10161100Y-8497500D02*
X10121100Y-8537500D01*
X10126100Y-5285100D02*
X10166100Y-5325100D01*
X10166100Y-5285100D02*
X10126100Y-5325100D01*
X10130000Y-6575000D02*
X10170000Y-6615000D01*
X10170000Y-6575000D02*
X10130000Y-6615000D01*
X10130200Y-7234600D02*
X10170200Y-7274600D01*
X10170200Y-7234600D02*
X10130200Y-7274600D01*
X10132000Y-10676000D02*
X10172000Y-10716000D01*
X10172000Y-10676000D02*
X10132000Y-10716000D01*
X10179200Y-4332500D02*
X10219200Y-4372500D01*
X10219200Y-4332500D02*
X10179200Y-4372500D01*
X10190700Y-5029100D02*
X10230700Y-5069100D01*
X10230700Y-5029100D02*
X10190700Y-5069100D01*
X10267700Y-5759200D02*
X10307700Y-5799200D01*
X10307700Y-5759200D02*
X10267700Y-5799200D01*
X10280000Y-2380000D02*
X10320000Y-2420000D01*
X10320000Y-2380000D02*
X10280000Y-2420000D01*
X10280000Y-16380000D02*
X10320000Y-16420000D01*
X10320000Y-16380000D02*
X10280000Y-16420000D01*
X10281700Y-5898500D02*
X10321700Y-5938500D01*
X10321700Y-5898500D02*
X10281700Y-5938500D01*
X10288900Y-8662100D02*
X10328900Y-8702100D01*
X10328900Y-8662100D02*
X10288900Y-8702100D01*
X10331000Y-10872000D02*
X10371000Y-10912000D01*
X10371000Y-10872000D02*
X10331000Y-10912000D01*
X10334800Y-11936500D02*
X10374800Y-11976500D01*
X10374800Y-11936500D02*
X10334800Y-11976500D01*
X10350400Y-14843300D02*
X10390400Y-14883300D01*
X10390400Y-14843300D02*
X10350400Y-14883300D01*
X10385000Y-7708500D02*
X10425000Y-7748500D01*
X10425000Y-7708500D02*
X10385000Y-7748500D01*
X10397000Y-14204500D02*
X10437000Y-14244500D01*
X10437000Y-14204500D02*
X10397000Y-14244500D01*
X10402500Y-15689800D02*
X10442500Y-15729800D01*
X10442500Y-15689800D02*
X10402500Y-15729800D01*
X10404500Y-10459500D02*
X10444500Y-10499500D01*
X10444500Y-10459500D02*
X10404500Y-10499500D01*
X10458000Y-7890000D02*
X10498000Y-7930000D01*
X10498000Y-7890000D02*
X10458000Y-7930000D01*
X10464800Y-10259400D02*
X10504800Y-10299400D01*
X10504800Y-10259400D02*
X10464800Y-10299400D01*
X10470000Y-9606000D02*
X10510000Y-9646000D01*
X10510000Y-9606000D02*
X10470000Y-9646000D01*
X10480000Y-2380000D02*
X10520000Y-2420000D01*
X10520000Y-2380000D02*
X10480000Y-2420000D01*
X10480000Y-16380000D02*
X10520000Y-16420000D01*
X10520000Y-16380000D02*
X10480000Y-16420000D01*
X10480900Y-6822000D02*
X10520900Y-6862000D01*
X10520900Y-6822000D02*
X10480900Y-6862000D01*
X10504400Y-5776400D02*
X10544400Y-5816400D01*
X10544400Y-5776400D02*
X10504400Y-5816400D01*
X10504700Y-11226600D02*
X10544700Y-11266600D01*
X10544700Y-11226600D02*
X10504700Y-11266600D01*
X10507500Y-4017500D02*
X10547500Y-4057500D01*
X10547500Y-4017500D02*
X10507500Y-4057500D01*
X10514300Y-9173600D02*
X10554300Y-9213600D01*
X10554300Y-9173600D02*
X10514300Y-9213600D01*
X10533400Y-13064300D02*
X10573400Y-13104300D01*
X10573400Y-13064300D02*
X10533400Y-13104300D01*
X10546500Y-10076500D02*
X10586500Y-10116500D01*
X10586500Y-10076500D02*
X10546500Y-10116500D01*
X10550300Y-8520100D02*
X10590300Y-8560100D01*
X10590300Y-8520100D02*
X10550300Y-8560100D01*
X10568100Y-8982100D02*
X10608100Y-9022100D01*
X10608100Y-8982100D02*
X10568100Y-9022100D01*
X10586600Y-13804900D02*
X10626600Y-13844900D01*
X10626600Y-13804900D02*
X10586600Y-13844900D01*
X10587050Y-10901000D02*
X10627050Y-10941000D01*
X10627050Y-10901000D02*
X10587050Y-10941000D01*
X10620000Y-7978000D02*
X10660000Y-8018000D01*
X10660000Y-7978000D02*
X10620000Y-8018000D01*
X10625200Y-4891400D02*
X10665200Y-4931400D01*
X10665200Y-4891400D02*
X10625200Y-4931400D01*
X10679100Y-4518100D02*
X10719100Y-4558100D01*
X10719100Y-4518100D02*
X10679100Y-4558100D01*
X10679300Y-7102800D02*
X10719300Y-7142800D01*
X10719300Y-7102800D02*
X10679300Y-7142800D01*
X10680000Y-2380000D02*
X10720000Y-2420000D01*
X10720000Y-2380000D02*
X10680000Y-2420000D01*
X10680000Y-16380000D02*
X10720000Y-16420000D01*
X10720000Y-16380000D02*
X10680000Y-16420000D01*
X10686900Y-7757400D02*
X10726900Y-7797400D01*
X10726900Y-7757400D02*
X10686900Y-7797400D01*
X10698000Y-6300300D02*
X10738000Y-6340300D01*
X10738000Y-6300300D02*
X10698000Y-6340300D01*
X10735800Y-10233600D02*
X10775800Y-10273600D01*
X10775800Y-10233600D02*
X10735800Y-10273600D01*
X10749000Y-6794200D02*
X10789000Y-6834200D01*
X10789000Y-6794200D02*
X10749000Y-6834200D01*
X10762069Y-11419069D02*
X10802069Y-11459069D01*
X10802069Y-11419069D02*
X10762069Y-11459069D01*
X10777000Y-8056000D02*
X10817000Y-8096000D01*
X10817000Y-8056000D02*
X10777000Y-8096000D01*
X10801300Y-2720800D02*
X10841300Y-2760800D01*
X10841300Y-2720800D02*
X10801300Y-2760800D01*
X10802500Y-10463800D02*
X10842500Y-10503800D01*
X10842500Y-10463800D02*
X10802500Y-10503800D01*
X10804000Y-10932000D02*
X10844000Y-10972000D01*
X10844000Y-10932000D02*
X10804000Y-10972000D01*
X10808000Y-11548000D02*
X10848000Y-11588000D01*
X10848000Y-11548000D02*
X10808000Y-11588000D01*
X10842500Y-5308800D02*
X10882500Y-5348800D01*
X10882500Y-5308800D02*
X10842500Y-5348800D01*
X10864000Y-9056000D02*
X10904000Y-9096000D01*
X10904000Y-9056000D02*
X10864000Y-9096000D01*
X10880000Y-2380000D02*
X10920000Y-2420000D01*
X10920000Y-2380000D02*
X10880000Y-2420000D01*
X10880000Y-16380000D02*
X10920000Y-16420000D01*
X10920000Y-16380000D02*
X10880000Y-16420000D01*
X10886800Y-6218000D02*
X10926800Y-6258000D01*
X10926800Y-6218000D02*
X10886800Y-6258000D01*
X10888600Y-10029200D02*
X10928600Y-10069200D01*
X10928600Y-10029200D02*
X10888600Y-10069200D01*
X10897200Y-7097900D02*
X10937200Y-7137900D01*
X10937200Y-7097900D02*
X10897200Y-7137900D01*
X10900000Y-8135950D02*
X10940000Y-8175950D01*
X10940000Y-8135950D02*
X10900000Y-8175950D01*
X10901300Y-7727900D02*
X10941300Y-7767900D01*
X10941300Y-7727900D02*
X10901300Y-7767900D01*
X10901900Y-14200700D02*
X10941900Y-14240700D01*
X10941900Y-14200700D02*
X10901900Y-14240700D01*
X10940700Y-6884900D02*
X10980700Y-6924900D01*
X10980700Y-6884900D02*
X10940700Y-6924900D01*
X10956500Y-11933300D02*
X10996500Y-11973300D01*
X10996500Y-11933300D02*
X10956500Y-11973300D01*
X10967500Y-5550000D02*
X11007500Y-5590000D01*
X11007500Y-5550000D02*
X10967500Y-5590000D01*
X10973900Y-13800000D02*
X11013900Y-13840000D01*
X11013900Y-13800000D02*
X10973900Y-13840000D01*
X11008500Y-9478500D02*
X11048500Y-9518500D01*
X11048500Y-9478500D02*
X11008500Y-9518500D01*
X11010300Y-4863400D02*
X11050300Y-4903400D01*
X11050300Y-4863400D02*
X11010300Y-4903400D01*
X11015000Y-4002500D02*
X11055000Y-4042500D01*
X11055000Y-4002500D02*
X11015000Y-4042500D01*
X11020600Y-12236500D02*
X11060600Y-12276500D01*
X11060600Y-12236500D02*
X11020600Y-12276500D01*
X11024600Y-4497100D02*
X11064600Y-4537100D01*
X11064600Y-4497100D02*
X11024600Y-4537100D01*
X11036800Y-12948100D02*
X11076800Y-12988100D01*
X11076800Y-12948100D02*
X11036800Y-12988100D01*
X11051000Y-8220000D02*
X11091000Y-8260000D01*
X11091000Y-8220000D02*
X11051000Y-8260000D01*
X11060200Y-8933100D02*
X11100200Y-8973100D01*
X11100200Y-8933100D02*
X11060200Y-8973100D01*
X11072700Y-5009700D02*
X11112700Y-5049700D01*
X11112700Y-5009700D02*
X11072700Y-5049700D01*
X11080000Y-2380000D02*
X11120000Y-2420000D01*
X11120000Y-2380000D02*
X11080000Y-2420000D01*
X11080000Y-16380000D02*
X11120000Y-16420000D01*
X11120000Y-16380000D02*
X11080000Y-16420000D01*
X11109000Y-11251000D02*
X11149000Y-11291000D01*
X11149000Y-11251000D02*
X11109000Y-11291000D01*
X11111500Y-4314800D02*
X11151500Y-4354800D01*
X11151500Y-4314800D02*
X11111500Y-4354800D01*
X11129800Y-8508700D02*
X11169800Y-8548700D01*
X11169800Y-8508700D02*
X11129800Y-8548700D01*
X11134300Y-7727200D02*
X11174300Y-7767200D01*
X11174300Y-7727200D02*
X11134300Y-7767200D01*
X11173100Y-5767300D02*
X11213100Y-5807300D01*
X11213100Y-5767300D02*
X11173100Y-5807300D01*
X11180300Y-5379700D02*
X11220300Y-5419700D01*
X11220300Y-5379700D02*
X11180300Y-5419700D01*
X11181000Y-10932000D02*
X11221000Y-10972000D01*
X11221000Y-10932000D02*
X11181000Y-10972000D01*
X11185000Y-8297000D02*
X11225000Y-8337000D01*
X11225000Y-8297000D02*
X11185000Y-8337000D01*
X11228000Y-9162200D02*
X11268000Y-9202200D01*
X11268000Y-9162200D02*
X11228000Y-9202200D01*
X11270000Y-10380000D02*
X11310000Y-10420000D01*
X11310000Y-10380000D02*
X11270000Y-10420000D01*
X11280000Y-2380000D02*
X11320000Y-2420000D01*
X11320000Y-2380000D02*
X11280000Y-2420000D01*
X11280000Y-16380000D02*
X11320000Y-16420000D01*
X11320000Y-16380000D02*
X11280000Y-16420000D01*
X11336900Y-7711700D02*
X11376900Y-7751700D01*
X11376900Y-7711700D02*
X11336900Y-7751700D01*
X11340100Y-12281700D02*
X11380100Y-12321700D01*
X11380100Y-12281700D02*
X11340100Y-12321700D01*
X11380200Y-15602600D02*
X11420200Y-15642600D01*
X11420200Y-15602600D02*
X11380200Y-15642600D01*
X11413400Y-14203800D02*
X11453400Y-14243800D01*
X11453400Y-14203800D02*
X11413400Y-14243800D01*
X11418900Y-16139900D02*
X11458900Y-16179900D01*
X11458900Y-16139900D02*
X11418900Y-16179900D01*
X11420000Y-10335000D02*
X11460000Y-10375000D01*
X11460000Y-10335000D02*
X11420000Y-10375000D01*
X11471900Y-8790500D02*
X11511900Y-8830500D01*
X11511900Y-8790500D02*
X11471900Y-8830500D01*
X11480000Y-2380000D02*
X11520000Y-2420000D01*
X11520000Y-2380000D02*
X11480000Y-2420000D01*
X11480000Y-16380000D02*
X11520000Y-16420000D01*
X11520000Y-16380000D02*
X11480000Y-16420000D01*
X11492200Y-4405200D02*
X11532200Y-4445200D01*
X11532200Y-4405200D02*
X11492200Y-4445200D01*
X11511100Y-13838800D02*
X11551100Y-13878800D01*
X11551100Y-13838800D02*
X11511100Y-13878800D01*
X11521600Y-6807500D02*
X11561600Y-6847500D01*
X11561600Y-6807500D02*
X11521600Y-6847500D01*
X11524050Y-7525000D02*
X11564050Y-7565000D01*
X11564050Y-7525000D02*
X11524050Y-7565000D01*
X11530500Y-12919100D02*
X11570500Y-12959100D01*
X11570500Y-12919100D02*
X11530500Y-12959100D01*
X11596200Y-5915000D02*
X11636200Y-5955000D01*
X11636200Y-5915000D02*
X11596200Y-5955000D01*
X11603000Y-4240600D02*
X11643000Y-4280600D01*
X11643000Y-4240600D02*
X11603000Y-4280600D01*
X11604050Y-7426000D02*
X11644050Y-7466000D01*
X11644050Y-7426000D02*
X11604050Y-7466000D01*
X11608100Y-11660700D02*
X11648100Y-11700700D01*
X11648100Y-11660700D02*
X11608100Y-11700700D01*
X11614000Y-10262000D02*
X11654000Y-10302000D01*
X11654000Y-10262000D02*
X11614000Y-10302000D01*
X11614400Y-12543100D02*
X11654400Y-12583100D01*
X11654400Y-12543100D02*
X11614400Y-12583100D01*
X11636300Y-2757100D02*
X11676300Y-2797100D01*
X11676300Y-2757100D02*
X11636300Y-2797100D01*
X11670000Y-8063300D02*
X11710000Y-8103300D01*
X11710000Y-8063300D02*
X11670000Y-8103300D01*
X11680000Y-2380000D02*
X11720000Y-2420000D01*
X11720000Y-2380000D02*
X11680000Y-2420000D01*
X11680000Y-16380000D02*
X11720000Y-16420000D01*
X11720000Y-16380000D02*
X11680000Y-16420000D01*
X11693950Y-7519000D02*
X11733950Y-7559000D01*
X11733950Y-7519000D02*
X11693950Y-7559000D01*
X11724900Y-6957500D02*
X11764900Y-6997500D01*
X11764900Y-6957500D02*
X11724900Y-6997500D01*
X11739700Y-11307200D02*
X11779700Y-11347200D01*
X11779700Y-11307200D02*
X11739700Y-11347200D01*
X11768000Y-10191000D02*
X11808000Y-10231000D01*
X11808000Y-10191000D02*
X11768000Y-10231000D01*
X11786600Y-11858600D02*
X11826600Y-11898600D01*
X11826600Y-11858600D02*
X11786600Y-11898600D01*
X11796600Y-3902900D02*
X11836600Y-3942900D01*
X11836600Y-3902900D02*
X11796600Y-3942900D01*
X11797600Y-8301300D02*
X11837600Y-8341300D01*
X11837600Y-8301300D02*
X11797600Y-8341300D01*
X11821400Y-5483300D02*
X11861400Y-5523300D01*
X11861400Y-5483300D02*
X11821400Y-5523300D01*
X11880000Y-2380000D02*
X11920000Y-2420000D01*
X11920000Y-2380000D02*
X11880000Y-2420000D01*
X11880000Y-16380000D02*
X11920000Y-16420000D01*
X11920000Y-16380000D02*
X11880000Y-16420000D01*
X11902100Y-7992400D02*
X11942100Y-8032400D01*
X11942100Y-7992400D02*
X11902100Y-8032400D01*
X11920000Y-10113000D02*
X11960000Y-10153000D01*
X11960000Y-10113000D02*
X11920000Y-10153000D01*
X11951900Y-6087100D02*
X11991900Y-6127100D01*
X11991900Y-6087100D02*
X11951900Y-6127100D01*
X11957300Y-9804400D02*
X11997300Y-9844400D01*
X11997300Y-9804400D02*
X11957300Y-9844400D01*
X11995200Y-12928800D02*
X12035200Y-12968800D01*
X12035200Y-12928800D02*
X11995200Y-12968800D01*
X12001600Y-12010600D02*
X12041600Y-12050600D01*
X12041600Y-12010600D02*
X12001600Y-12050600D01*
X12004900Y-13461200D02*
X12044900Y-13501200D01*
X12044900Y-13461200D02*
X12004900Y-13501200D01*
X12013900Y-2706200D02*
X12053900Y-2746200D01*
X12053900Y-2706200D02*
X12013900Y-2746200D01*
X12041100Y-4674600D02*
X12081100Y-4714600D01*
X12081100Y-4674600D02*
X12041100Y-4714600D01*
X12080000Y-2380000D02*
X12120000Y-2420000D01*
X12120000Y-2380000D02*
X12080000Y-2420000D01*
X12080000Y-16380000D02*
X12120000Y-16420000D01*
X12120000Y-16380000D02*
X12080000Y-16420000D01*
X12082000Y-15210000D02*
X12122000Y-15250000D01*
X12122000Y-15210000D02*
X12082000Y-15250000D01*
X12085000Y-10025000D02*
X12125000Y-10065000D01*
X12125000Y-10025000D02*
X12085000Y-10065000D01*
X12085500Y-11245900D02*
X12125500Y-11285900D01*
X12125500Y-11245900D02*
X12085500Y-11285900D01*
X12137300Y-3069300D02*
X12177300Y-3109300D01*
X12177300Y-3069300D02*
X12137300Y-3109300D01*
X12207500Y-4509500D02*
X12247500Y-4549500D01*
X12247500Y-4509500D02*
X12207500Y-4549500D01*
X12257000Y-4761200D02*
X12297000Y-4801200D01*
X12297000Y-4761200D02*
X12257000Y-4801200D01*
X12266200Y-13780700D02*
X12306200Y-13820700D01*
X12306200Y-13780700D02*
X12266200Y-13820700D01*
X12280000Y-2380000D02*
X12320000Y-2420000D01*
X12320000Y-2380000D02*
X12280000Y-2420000D01*
X12280000Y-16380000D02*
X12320000Y-16420000D01*
X12320000Y-16380000D02*
X12280000Y-16420000D01*
X12281500Y-7165700D02*
X12321500Y-7205700D01*
X12321500Y-7165700D02*
X12281500Y-7205700D01*
X12292600Y-15972300D02*
X12332600Y-16012300D01*
X12332600Y-15972300D02*
X12292600Y-16012300D01*
X12340900Y-3670500D02*
X12380900Y-3710500D01*
X12380900Y-3670500D02*
X12340900Y-3710500D01*
X12351600Y-4004000D02*
X12391600Y-4044000D01*
X12391600Y-4004000D02*
X12351600Y-4044000D01*
X12365600Y-8592500D02*
X12405600Y-8632500D01*
X12405600Y-8592500D02*
X12365600Y-8632500D01*
X12372700Y-12352800D02*
X12412700Y-12392800D01*
X12412700Y-12352800D02*
X12372700Y-12392800D01*
X12372700Y-13257900D02*
X12412700Y-13297900D01*
X12412700Y-13257900D02*
X12372700Y-13297900D01*
X12396700Y-8892700D02*
X12436700Y-8932700D01*
X12436700Y-8892700D02*
X12396700Y-8932700D01*
X12419700Y-9155900D02*
X12459700Y-9195900D01*
X12459700Y-9155900D02*
X12419700Y-9195900D01*
X12430800Y-10484400D02*
X12470800Y-10524400D01*
X12470800Y-10484400D02*
X12430800Y-10524400D01*
X12441200Y-6120200D02*
X12481200Y-6160200D01*
X12481200Y-6120200D02*
X12441200Y-6160200D01*
X12455000Y-11108800D02*
X12495000Y-11148800D01*
X12495000Y-11108800D02*
X12455000Y-11148800D01*
X12480000Y-2380000D02*
X12520000Y-2420000D01*
X12520000Y-2380000D02*
X12480000Y-2420000D01*
X12480000Y-16380000D02*
X12520000Y-16420000D01*
X12520000Y-16380000D02*
X12480000Y-16420000D01*
X12510400Y-15587500D02*
X12550400Y-15627500D01*
X12550400Y-15587500D02*
X12510400Y-15627500D01*
X12532500Y-12149500D02*
X12572500Y-12189500D01*
X12572500Y-12149500D02*
X12532500Y-12189500D01*
X12566300Y-13712900D02*
X12606300Y-13752900D01*
X12606300Y-13712900D02*
X12566300Y-13752900D01*
X12576000Y-10789300D02*
X12616000Y-10829300D01*
X12616000Y-10789300D02*
X12576000Y-10829300D01*
X12580900Y-11500900D02*
X12620900Y-11540900D01*
X12620900Y-11500900D02*
X12580900Y-11540900D01*
X12602200Y-8585300D02*
X12642200Y-8625300D01*
X12642200Y-8585300D02*
X12602200Y-8625300D01*
X12605800Y-6338000D02*
X12645800Y-6378000D01*
X12645800Y-6338000D02*
X12605800Y-6378000D01*
X12623800Y-2684500D02*
X12663800Y-2724500D01*
X12663800Y-2684500D02*
X12623800Y-2724500D01*
X12648500Y-4167500D02*
X12688500Y-4207500D01*
X12688500Y-4167500D02*
X12648500Y-4207500D01*
X12680000Y-2380000D02*
X12720000Y-2420000D01*
X12720000Y-2380000D02*
X12680000Y-2420000D01*
X12680000Y-16380000D02*
X12720000Y-16420000D01*
X12720000Y-16380000D02*
X12680000Y-16420000D01*
X12731700Y-7277000D02*
X12771700Y-7317000D01*
X12771700Y-7277000D02*
X12731700Y-7317000D01*
X12757000Y-8468000D02*
X12797000Y-8508000D01*
X12797000Y-8468000D02*
X12757000Y-8508000D01*
X12808100Y-15180900D02*
X12848100Y-15220900D01*
X12848100Y-15180900D02*
X12808100Y-15220900D01*
X12813000Y-10061000D02*
X12853000Y-10101000D01*
X12853000Y-10061000D02*
X12813000Y-10101000D01*
X12828500Y-5650600D02*
X12868500Y-5690600D01*
X12868500Y-5650600D02*
X12828500Y-5690600D01*
X12833300Y-6149200D02*
X12873300Y-6189200D01*
X12873300Y-6149200D02*
X12833300Y-6189200D01*
X12880000Y-2380000D02*
X12920000Y-2420000D01*
X12920000Y-2380000D02*
X12880000Y-2420000D01*
X12880000Y-16380000D02*
X12920000Y-16420000D01*
X12920000Y-16380000D02*
X12880000Y-16420000D01*
X12895200Y-15936000D02*
X12935200Y-15976000D01*
X12935200Y-15936000D02*
X12895200Y-15976000D01*
X12907100Y-5288800D02*
X12947100Y-5328800D01*
X12947100Y-5288800D02*
X12907100Y-5328800D01*
X12930100Y-6362200D02*
X12970100Y-6402200D01*
X12970100Y-6362200D02*
X12930100Y-6402200D01*
X13006800Y-13814600D02*
X13046800Y-13854600D01*
X13046800Y-13814600D02*
X13006800Y-13854600D01*
X13008600Y-4615800D02*
X13048600Y-4655800D01*
X13048600Y-4615800D02*
X13008600Y-4655800D01*
X13034000Y-9964000D02*
X13074000Y-10004000D01*
X13074000Y-9964000D02*
X13034000Y-10004000D01*
X13059400Y-3011200D02*
X13099400Y-3051200D01*
X13099400Y-3011200D02*
X13059400Y-3051200D01*
X13080000Y-2380000D02*
X13120000Y-2420000D01*
X13120000Y-2380000D02*
X13080000Y-2420000D01*
X13080000Y-16380000D02*
X13120000Y-16420000D01*
X13120000Y-16380000D02*
X13080000Y-16420000D01*
X13122800Y-8523600D02*
X13162800Y-8563600D01*
X13162800Y-8523600D02*
X13122800Y-8563600D01*
X13135300Y-8904100D02*
X13175300Y-8944100D01*
X13175300Y-8904100D02*
X13135300Y-8944100D01*
X13144400Y-4141600D02*
X13184400Y-4181600D01*
X13184400Y-4141600D02*
X13144400Y-4181600D01*
X13158900Y-7561300D02*
X13198900Y-7601300D01*
X13198900Y-7561300D02*
X13158900Y-7601300D01*
X13160000Y-7980000D02*
X13200000Y-8020000D01*
X13200000Y-7980000D02*
X13160000Y-8020000D01*
X13162900Y-9720500D02*
X13202900Y-9760500D01*
X13202900Y-9720500D02*
X13162900Y-9760500D01*
X13168300Y-3795300D02*
X13208300Y-3835300D01*
X13208300Y-3795300D02*
X13168300Y-3835300D01*
X13198300Y-2640400D02*
X13238300Y-2680400D01*
X13238300Y-2640400D02*
X13198300Y-2680400D01*
X13215365Y-4719635D02*
X13255365Y-4759635D01*
X13255365Y-4719635D02*
X13215365Y-4759635D01*
X13249600Y-7233400D02*
X13289600Y-7273400D01*
X13289600Y-7233400D02*
X13249600Y-7273400D01*
X13253700Y-11229800D02*
X13293700Y-11269800D01*
X13293700Y-11229800D02*
X13253700Y-11269800D01*
X13280000Y-2380000D02*
X13320000Y-2420000D01*
X13320000Y-2380000D02*
X13280000Y-2420000D01*
X13280000Y-16380000D02*
X13320000Y-16420000D01*
X13320000Y-16380000D02*
X13280000Y-16420000D01*
X13334400Y-12368200D02*
X13374400Y-12408200D01*
X13374400Y-12368200D02*
X13334400Y-12408200D01*
X13343400Y-13002800D02*
X13383400Y-13042800D01*
X13383400Y-13002800D02*
X13343400Y-13042800D01*
X13361000Y-8699000D02*
X13401000Y-8739000D01*
X13401000Y-8699000D02*
X13361000Y-8739000D01*
X13369800Y-11597700D02*
X13409800Y-11637700D01*
X13409800Y-11597700D02*
X13369800Y-11637700D01*
X13370500Y-10505200D02*
X13410500Y-10545200D01*
X13410500Y-10505200D02*
X13370500Y-10545200D01*
X13376300Y-12729600D02*
X13416300Y-12769600D01*
X13416300Y-12729600D02*
X13376300Y-12769600D01*
X13387000Y-13879000D02*
X13427000Y-13919000D01*
X13427000Y-13879000D02*
X13387000Y-13919000D01*
X13394800Y-7436700D02*
X13434800Y-7476700D01*
X13434800Y-7436700D02*
X13394800Y-7476700D01*
X13410600Y-6583500D02*
X13450600Y-6623500D01*
X13450600Y-6583500D02*
X13410600Y-6623500D01*
X13416100Y-3206700D02*
X13456100Y-3246700D01*
X13456100Y-3206700D02*
X13416100Y-3246700D01*
X13420300Y-6012300D02*
X13460300Y-6052300D01*
X13460300Y-6012300D02*
X13420300Y-6052300D01*
X13420300Y-7198200D02*
X13460300Y-7238200D01*
X13460300Y-7198200D02*
X13420300Y-7238200D01*
X13453300Y-9765700D02*
X13493300Y-9805700D01*
X13493300Y-9765700D02*
X13453300Y-9805700D01*
X13480000Y-2380000D02*
X13520000Y-2420000D01*
X13520000Y-2380000D02*
X13480000Y-2420000D01*
X13480000Y-16380000D02*
X13520000Y-16420000D01*
X13520000Y-16380000D02*
X13480000Y-16420000D01*
X13486800Y-3978300D02*
X13526800Y-4018300D01*
X13526800Y-3978300D02*
X13486800Y-4018300D01*
X13492500Y-13281400D02*
X13532500Y-13321400D01*
X13532500Y-13281400D02*
X13492500Y-13321400D01*
X13495300Y-4905500D02*
X13535300Y-4945500D01*
X13535300Y-4905500D02*
X13495300Y-4945500D01*
X13495700Y-12033300D02*
X13535700Y-12073300D01*
X13535700Y-12033300D02*
X13495700Y-12073300D01*
X13496000Y-2945300D02*
X13536000Y-2985300D01*
X13536000Y-2945300D02*
X13496000Y-2985300D01*
X13521000Y-13862000D02*
X13561000Y-13902000D01*
X13561000Y-13862000D02*
X13521000Y-13902000D01*
X13525000Y-7864000D02*
X13565000Y-7904000D01*
X13565000Y-7864000D02*
X13525000Y-7904000D01*
X13564200Y-5198000D02*
X13604200Y-5238000D01*
X13604200Y-5198000D02*
X13564200Y-5238000D01*
X13564900Y-8857500D02*
X13604900Y-8897500D01*
X13604900Y-8857500D02*
X13564900Y-8897500D01*
X13573900Y-6829300D02*
X13613900Y-6869300D01*
X13613900Y-6829300D02*
X13573900Y-6869300D01*
X13596000Y-7758000D02*
X13636000Y-7798000D01*
X13636000Y-7758000D02*
X13596000Y-7798000D01*
X13610000Y-8181000D02*
X13650000Y-8221000D01*
X13650000Y-8181000D02*
X13610000Y-8221000D01*
X13643000Y-14404000D02*
X13683000Y-14444000D01*
X13683000Y-14404000D02*
X13643000Y-14444000D01*
X13645000Y-8042000D02*
X13685000Y-8082000D01*
X13685000Y-8042000D02*
X13645000Y-8082000D01*
X13652550Y-8295000D02*
X13692550Y-8335000D01*
X13692550Y-8295000D02*
X13652550Y-8335000D01*
X13656000Y-13863000D02*
X13696000Y-13903000D01*
X13696000Y-13863000D02*
X13656000Y-13903000D01*
X13680000Y-2380000D02*
X13720000Y-2420000D01*
X13720000Y-2380000D02*
X13680000Y-2420000D01*
X13680000Y-16380000D02*
X13720000Y-16420000D01*
X13720000Y-16380000D02*
X13680000Y-16420000D01*
X13711700Y-10802900D02*
X13751700Y-10842900D01*
X13751700Y-10802900D02*
X13711700Y-10842900D01*
X13715800Y-10075500D02*
X13755800Y-10115500D01*
X13755800Y-10075500D02*
X13715800Y-10115500D01*
X13744700Y-15057500D02*
X13784700Y-15097500D01*
X13784700Y-15057500D02*
X13744700Y-15097500D01*
X13773700Y-15427800D02*
X13813700Y-15467800D01*
X13813700Y-15427800D02*
X13773700Y-15467800D01*
X13776800Y-3712400D02*
X13816800Y-3752400D01*
X13816800Y-3712400D02*
X13776800Y-3752400D01*
X13788200Y-14542000D02*
X13828200Y-14582000D01*
X13828200Y-14542000D02*
X13788200Y-14582000D01*
X13808700Y-13491200D02*
X13848700Y-13531200D01*
X13848700Y-13491200D02*
X13808700Y-13531200D01*
X13814500Y-2684500D02*
X13854500Y-2724500D01*
X13854500Y-2684500D02*
X13814500Y-2724500D01*
X13837000Y-8765000D02*
X13877000Y-8805000D01*
X13877000Y-8765000D02*
X13837000Y-8805000D01*
X13843500Y-3098300D02*
X13883500Y-3138300D01*
X13883500Y-3098300D02*
X13843500Y-3138300D01*
X13845000Y-6500100D02*
X13885000Y-6540100D01*
X13885000Y-6500100D02*
X13845000Y-6540100D01*
X13854700Y-6253200D02*
X13894700Y-6293200D01*
X13894700Y-6253200D02*
X13854700Y-6293200D01*
X13880000Y-2380000D02*
X13920000Y-2420000D01*
X13920000Y-2380000D02*
X13880000Y-2420000D01*
X13880000Y-16380000D02*
X13920000Y-16420000D01*
X13920000Y-16380000D02*
X13880000Y-16420000D01*
X13880400Y-8629400D02*
X13920400Y-8669400D01*
X13920400Y-8629400D02*
X13880400Y-8669400D01*
X13882500Y-5967500D02*
X13922500Y-6007500D01*
X13922500Y-5967500D02*
X13882500Y-6007500D01*
X13957500Y-8860000D02*
X13997500Y-8900000D01*
X13997500Y-8860000D02*
X13957500Y-8900000D01*
X13957500Y-11060000D02*
X13997500Y-11100000D01*
X13997500Y-11060000D02*
X13957500Y-11100000D01*
X14045000Y-14090000D02*
X14085000Y-14130000D01*
X14085000Y-14090000D02*
X14045000Y-14130000D01*
X14051000Y-15124000D02*
X14091000Y-15164000D01*
X14091000Y-15124000D02*
X14051000Y-15164000D01*
X14066300Y-5035400D02*
X14106300Y-5075400D01*
X14106300Y-5035400D02*
X14066300Y-5075400D01*
X14076000Y-6763000D02*
X14116000Y-6803000D01*
X14116000Y-6763000D02*
X14076000Y-6803000D01*
X14080000Y-2380000D02*
X14120000Y-2420000D01*
X14120000Y-2380000D02*
X14080000Y-2420000D01*
X14080000Y-16380000D02*
X14120000Y-16420000D01*
X14120000Y-16380000D02*
X14080000Y-16420000D01*
X14098600Y-4444900D02*
X14138600Y-4484900D01*
X14138600Y-4444900D02*
X14098600Y-4484900D01*
X14221800Y-13775100D02*
X14261800Y-13815100D01*
X14261800Y-13775100D02*
X14221800Y-13815100D01*
X14246700Y-5541700D02*
X14286700Y-5581700D01*
X14286700Y-5541700D02*
X14246700Y-5581700D01*
X14263000Y-12076200D02*
X14303000Y-12116200D01*
X14303000Y-12076200D02*
X14263000Y-12116200D01*
X14264200Y-9496600D02*
X14304200Y-9536600D01*
X14304200Y-9496600D02*
X14264200Y-9536600D01*
X14275000Y-8306000D02*
X14315000Y-8346000D01*
X14315000Y-8306000D02*
X14275000Y-8346000D01*
X14280000Y-2380000D02*
X14320000Y-2420000D01*
X14320000Y-2380000D02*
X14280000Y-2420000D01*
X14280000Y-16380000D02*
X14320000Y-16420000D01*
X14320000Y-16380000D02*
X14280000Y-16420000D01*
X14287400Y-2640400D02*
X14327400Y-2680400D01*
X14327400Y-2640400D02*
X14287400Y-2680400D01*
X14311000Y-7983000D02*
X14351000Y-8023000D01*
X14351000Y-7983000D02*
X14311000Y-8023000D01*
X14326000Y-12792200D02*
X14366000Y-12832200D01*
X14366000Y-12792200D02*
X14326000Y-12832200D01*
X14346500Y-10125900D02*
X14386500Y-10165900D01*
X14386500Y-10125900D02*
X14346500Y-10165900D01*
X14353500Y-7118100D02*
X14393500Y-7158100D01*
X14393500Y-7118100D02*
X14353500Y-7158100D01*
X14355000Y-7466000D02*
X14395000Y-7506000D01*
X14395000Y-7466000D02*
X14355000Y-7506000D01*
X14358300Y-10453800D02*
X14398300Y-10493800D01*
X14398300Y-10453800D02*
X14358300Y-10493800D01*
X14361800Y-14534700D02*
X14401800Y-14574700D01*
X14401800Y-14534700D02*
X14361800Y-14574700D01*
X14377400Y-4989900D02*
X14417400Y-5029900D01*
X14417400Y-4989900D02*
X14377400Y-5029900D01*
X14421300Y-5519400D02*
X14461300Y-5559400D01*
X14461300Y-5519400D02*
X14421300Y-5559400D01*
X14450000Y-6765000D02*
X14490000Y-6805000D01*
X14490000Y-6765000D02*
X14450000Y-6805000D01*
X14454400Y-4571700D02*
X14494400Y-4611700D01*
X14494400Y-4571700D02*
X14454400Y-4611700D01*
X14469700Y-7573100D02*
X14509700Y-7613100D01*
X14509700Y-7573100D02*
X14469700Y-7613100D01*
X14474931Y-7870069D02*
X14514931Y-7910069D01*
X14514931Y-7870069D02*
X14474931Y-7910069D01*
X14480000Y-2380000D02*
X14520000Y-2420000D01*
X14520000Y-2380000D02*
X14480000Y-2420000D01*
X14480000Y-16380000D02*
X14520000Y-16420000D01*
X14520000Y-16380000D02*
X14480000Y-16420000D01*
X14495000Y-7770000D02*
X14535000Y-7810000D01*
X14535000Y-7770000D02*
X14495000Y-7810000D01*
X14541600Y-4277100D02*
X14581600Y-4317100D01*
X14581600Y-4277100D02*
X14541600Y-4317100D01*
X14601000Y-6610000D02*
X14641000Y-6650000D01*
X14641000Y-6610000D02*
X14601000Y-6650000D01*
X14611700Y-6239800D02*
X14651700Y-6279800D01*
X14651700Y-6239800D02*
X14611700Y-6279800D01*
X14663100Y-13112000D02*
X14703100Y-13152000D01*
X14703100Y-13112000D02*
X14663100Y-13152000D01*
X14680000Y-2380000D02*
X14720000Y-2420000D01*
X14720000Y-2380000D02*
X14680000Y-2420000D01*
X14680000Y-16380000D02*
X14720000Y-16420000D01*
X14720000Y-16380000D02*
X14680000Y-16420000D01*
X14683600Y-3270300D02*
X14723600Y-3310300D01*
X14723600Y-3270300D02*
X14683600Y-3310300D01*
X14694800Y-11465100D02*
X14734800Y-11505100D01*
X14734800Y-11465100D02*
X14694800Y-11505100D01*
X14708500Y-4780500D02*
X14748500Y-4820500D01*
X14748500Y-4780500D02*
X14708500Y-4820500D01*
X14716600Y-7213300D02*
X14756600Y-7253300D01*
X14756600Y-7213300D02*
X14716600Y-7253300D01*
X14721400Y-7527900D02*
X14761400Y-7567900D01*
X14761400Y-7527900D02*
X14721400Y-7567900D01*
X14724400Y-12386000D02*
X14764400Y-12426000D01*
X14764400Y-12386000D02*
X14724400Y-12426000D01*
X14732100Y-14295100D02*
X14772100Y-14335100D01*
X14772100Y-14295100D02*
X14732100Y-14335100D01*
X14735600Y-4312300D02*
X14775600Y-4352300D01*
X14775600Y-4312300D02*
X14735600Y-4352300D01*
X14743400Y-8920600D02*
X14783400Y-8960600D01*
X14783400Y-8920600D02*
X14743400Y-8960600D01*
X14766600Y-2742000D02*
X14806600Y-2782000D01*
X14806600Y-2742000D02*
X14766600Y-2782000D01*
X14774400Y-10486200D02*
X14814400Y-10526200D01*
X14814400Y-10486200D02*
X14774400Y-10526200D01*
X14777500Y-5282500D02*
X14817500Y-5322500D01*
X14817500Y-5282500D02*
X14777500Y-5322500D01*
X14777500Y-8085000D02*
X14817500Y-8125000D01*
X14817500Y-8085000D02*
X14777500Y-8125000D01*
X14779500Y-3941500D02*
X14819500Y-3981500D01*
X14819500Y-3941500D02*
X14779500Y-3981500D01*
X14797500Y-14099100D02*
X14837500Y-14139100D01*
X14837500Y-14099100D02*
X14797500Y-14139100D01*
X14811200Y-9482100D02*
X14851200Y-9522100D01*
X14851200Y-9482100D02*
X14811200Y-9522100D01*
X14827600Y-6863100D02*
X14867600Y-6903100D01*
X14867600Y-6863100D02*
X14827600Y-6903100D01*
X14865000Y-8182500D02*
X14905000Y-8222500D01*
X14905000Y-8182500D02*
X14865000Y-8222500D01*
X14871100Y-5556200D02*
X14911100Y-5596200D01*
X14911100Y-5556200D02*
X14871100Y-5596200D01*
X14880000Y-2380000D02*
X14920000Y-2420000D01*
X14920000Y-2380000D02*
X14880000Y-2420000D01*
X14880000Y-16380000D02*
X14920000Y-16420000D01*
X14920000Y-16380000D02*
X14880000Y-16420000D01*
X14971700Y-15551200D02*
X15011700Y-15591200D01*
X15011700Y-15551200D02*
X14971700Y-15591200D01*
X15080000Y-2380000D02*
X15120000Y-2420000D01*
X15120000Y-2380000D02*
X15080000Y-2420000D01*
X15080000Y-16380000D02*
X15120000Y-16420000D01*
X15120000Y-16380000D02*
X15080000Y-16420000D01*
X15095200Y-15202700D02*
X15135200Y-15242700D01*
X15135200Y-15202700D02*
X15095200Y-15242700D01*
X15095200Y-16052200D02*
X15135200Y-16092200D01*
X15135200Y-16052200D02*
X15095200Y-16092200D01*
X15110000Y-13550000D02*
X15150000Y-13590000D01*
X15150000Y-13550000D02*
X15110000Y-13590000D01*
X15122800Y-4394500D02*
X15162800Y-4434500D01*
X15162800Y-4394500D02*
X15122800Y-4434500D01*
X15128000Y-6264600D02*
X15168000Y-6304600D01*
X15168000Y-6264600D02*
X15128000Y-6304600D01*
X15132800Y-6676000D02*
X15172800Y-6716000D01*
X15172800Y-6676000D02*
X15132800Y-6716000D01*
X15132800Y-7121300D02*
X15172800Y-7161300D01*
X15172800Y-7121300D02*
X15132800Y-7161300D01*
X15172500Y-7445000D02*
X15212500Y-7485000D01*
X15212500Y-7445000D02*
X15172500Y-7485000D01*
X15247700Y-10127100D02*
X15287700Y-10167100D01*
X15287700Y-10127100D02*
X15247700Y-10167100D01*
X15258000Y-3196100D02*
X15298000Y-3236100D01*
X15298000Y-3196100D02*
X15258000Y-3236100D01*
X15280000Y-2380000D02*
X15320000Y-2420000D01*
X15320000Y-2380000D02*
X15280000Y-2420000D01*
X15280000Y-16380000D02*
X15320000Y-16420000D01*
X15320000Y-16380000D02*
X15280000Y-16420000D01*
X15282600Y-5478800D02*
X15322600Y-5518800D01*
X15322600Y-5478800D02*
X15282600Y-5518800D01*
X15302500Y-12382200D02*
X15342500Y-12422200D01*
X15342500Y-12382200D02*
X15302500Y-12422200D01*
X15318400Y-5684000D02*
X15358400Y-5724000D01*
X15358400Y-5684000D02*
X15318400Y-5724000D01*
X15344200Y-7139100D02*
X15384200Y-7179100D01*
X15384200Y-7139100D02*
X15344200Y-7179100D01*
X15411200Y-4376500D02*
X15451200Y-4416500D01*
X15451200Y-4376500D02*
X15411200Y-4416500D01*
X15429100Y-15435000D02*
X15469100Y-15475000D01*
X15469100Y-15435000D02*
X15429100Y-15475000D01*
X15450900Y-13982900D02*
X15490900Y-14022900D01*
X15490900Y-13982900D02*
X15450900Y-14022900D01*
X15460600Y-10456200D02*
X15500600Y-10496200D01*
X15500600Y-10456200D02*
X15460600Y-10496200D01*
X15480000Y-2380000D02*
X15520000Y-2420000D01*
X15520000Y-2380000D02*
X15480000Y-2420000D01*
X15480000Y-16380000D02*
X15520000Y-16420000D01*
X15520000Y-16380000D02*
X15480000Y-16420000D01*
X15482500Y-9877500D02*
X15522500Y-9917500D01*
X15522500Y-9877500D02*
X15482500Y-9917500D01*
X15550700Y-3235700D02*
X15590700Y-3275700D01*
X15590700Y-3235700D02*
X15550700Y-3275700D01*
X15570400Y-9326800D02*
X15610400Y-9366800D01*
X15610400Y-9326800D02*
X15570400Y-9366800D01*
X15649900Y-7681100D02*
X15689900Y-7721100D01*
X15689900Y-7681100D02*
X15649900Y-7721100D01*
X15654200Y-14454900D02*
X15694200Y-14494900D01*
X15694200Y-14454900D02*
X15654200Y-14494900D01*
X15680000Y-2380000D02*
X15720000Y-2420000D01*
X15720000Y-2380000D02*
X15680000Y-2420000D01*
X15680000Y-16380000D02*
X15720000Y-16420000D01*
X15720000Y-16380000D02*
X15680000Y-16420000D01*
X15703200Y-2720200D02*
X15743200Y-2760200D01*
X15743200Y-2720200D02*
X15703200Y-2760200D01*
X15709100Y-12895300D02*
X15749100Y-12935300D01*
X15749100Y-12895300D02*
X15709100Y-12935300D01*
X15718800Y-11636800D02*
X15758800Y-11676800D01*
X15758800Y-11636800D02*
X15718800Y-11676800D01*
X15780000Y-11882500D02*
X15820000Y-11922500D01*
X15820000Y-11882500D02*
X15780000Y-11922500D01*
X15865300Y-6195200D02*
X15905300Y-6235200D01*
X15905300Y-6195200D02*
X15865300Y-6235200D01*
X15880000Y-2380000D02*
X15920000Y-2420000D01*
X15920000Y-2380000D02*
X15880000Y-2420000D01*
X15880000Y-16380000D02*
X15920000Y-16420000D01*
X15920000Y-16380000D02*
X15880000Y-16420000D01*
X15923700Y-8712900D02*
X15963700Y-8752900D01*
X15963700Y-8712900D02*
X15923700Y-8752900D01*
X15937200Y-4644300D02*
X15977200Y-4684300D01*
X15977200Y-4644300D02*
X15937200Y-4684300D01*
X15955000Y-15075000D02*
X15995000Y-15115000D01*
X15995000Y-15075000D02*
X15955000Y-15115000D01*
X15964000Y-9604300D02*
X16004000Y-9644300D01*
X16004000Y-9604300D02*
X15964000Y-9644300D01*
X16023700Y-12130500D02*
X16063700Y-12170500D01*
X16063700Y-12130500D02*
X16023700Y-12170500D01*
X16054800Y-15683200D02*
X16094800Y-15723200D01*
X16094800Y-15683200D02*
X16054800Y-15723200D01*
X16080000Y-2380000D02*
X16120000Y-2420000D01*
X16120000Y-2380000D02*
X16080000Y-2420000D01*
X16080000Y-16380000D02*
X16120000Y-16420000D01*
X16120000Y-16380000D02*
X16080000Y-16420000D01*
X16110000Y-6825000D02*
X16150000Y-6865000D01*
X16150000Y-6825000D02*
X16110000Y-6865000D01*
X16197500Y-5035000D02*
X16237500Y-5075000D01*
X16237500Y-5035000D02*
X16197500Y-5075000D01*
X16197500Y-10032500D02*
X16237500Y-10072500D01*
X16237500Y-10032500D02*
X16197500Y-10072500D01*
X16248000Y-10530500D02*
X16288000Y-10570500D01*
X16288000Y-10530500D02*
X16248000Y-10570500D01*
X16280000Y-2380000D02*
X16320000Y-2420000D01*
X16320000Y-2380000D02*
X16280000Y-2420000D01*
X16280000Y-16380000D02*
X16320000Y-16420000D01*
X16320000Y-16380000D02*
X16280000Y-16420000D01*
X16280300Y-9246100D02*
X16320300Y-9286100D01*
X16320300Y-9246100D02*
X16280300Y-9286100D01*
X16314700Y-4292600D02*
X16354700Y-4332600D01*
X16354700Y-4292600D02*
X16314700Y-4332600D01*
X16393000Y-5675300D02*
X16433000Y-5715300D01*
X16433000Y-5675300D02*
X16393000Y-5715300D01*
X16425000Y-16053500D02*
X16465000Y-16093500D01*
X16465000Y-16053500D02*
X16425000Y-16093500D01*
X16465500Y-6282300D02*
X16505500Y-6322300D01*
X16505500Y-6282300D02*
X16465500Y-6322300D01*
X16479300Y-3685900D02*
X16519300Y-3725900D01*
X16519300Y-3685900D02*
X16479300Y-3725900D01*
X16480000Y-2380000D02*
X16520000Y-2420000D01*
X16520000Y-2380000D02*
X16480000Y-2420000D01*
X16480000Y-16380000D02*
X16520000Y-16420000D01*
X16520000Y-16380000D02*
X16480000Y-16420000D01*
X16504500Y-8780600D02*
X16544500Y-8820600D01*
X16544500Y-8780600D02*
X16504500Y-8820600D01*
X16518800Y-5474200D02*
X16558800Y-5514200D01*
X16558800Y-5474200D02*
X16518800Y-5514200D01*
X16540000Y-14621900D02*
X16580000Y-14661900D01*
X16580000Y-14621900D02*
X16540000Y-14661900D01*
X16541600Y-11128500D02*
X16581600Y-11168500D01*
X16581600Y-11128500D02*
X16541600Y-11168500D01*
X16554500Y-14839700D02*
X16594500Y-14879700D01*
X16594500Y-14839700D02*
X16554500Y-14879700D01*
X16599700Y-12120800D02*
X16639700Y-12160800D01*
X16639700Y-12120800D02*
X16599700Y-12160800D01*
X16680000Y-2380000D02*
X16720000Y-2420000D01*
X16720000Y-2380000D02*
X16680000Y-2420000D01*
X16680000Y-16380000D02*
X16720000Y-16420000D01*
X16720000Y-16380000D02*
X16680000Y-16420000D01*
X16698700Y-7526200D02*
X16738700Y-7566200D01*
X16738700Y-7526200D02*
X16698700Y-7566200D01*
X16712400Y-3279300D02*
X16752400Y-3319300D01*
X16752400Y-3279300D02*
X16712400Y-3319300D01*
X16744900Y-12972700D02*
X16784900Y-13012700D01*
X16784900Y-12972700D02*
X16744900Y-13012700D01*
X16767500Y-9165500D02*
X16807500Y-9205500D01*
X16807500Y-9165500D02*
X16767500Y-9205500D01*
X16789100Y-3715000D02*
X16829100Y-3755000D01*
X16829100Y-3715000D02*
X16789100Y-3755000D01*
X16791400Y-6353300D02*
X16831400Y-6393300D01*
X16831400Y-6353300D02*
X16791400Y-6393300D01*
X16801400Y-8748400D02*
X16841400Y-8788400D01*
X16841400Y-8748400D02*
X16801400Y-8788400D01*
X16802500Y-15237500D02*
X16842500Y-15277500D01*
X16842500Y-15237500D02*
X16802500Y-15277500D01*
X16835000Y-5706600D02*
X16875000Y-5746600D01*
X16875000Y-5706600D02*
X16835000Y-5746600D01*
X16835900Y-2713000D02*
X16875900Y-2753000D01*
X16875900Y-2713000D02*
X16835900Y-2753000D01*
X16864300Y-10136800D02*
X16904300Y-10176800D01*
X16904300Y-10136800D02*
X16864300Y-10176800D01*
X16880000Y-2380000D02*
X16920000Y-2420000D01*
X16920000Y-2380000D02*
X16880000Y-2420000D01*
X16880000Y-16380000D02*
X16920000Y-16420000D01*
X16920000Y-16380000D02*
X16880000Y-16420000D01*
X16953100Y-10910700D02*
X16993100Y-10950700D01*
X16993100Y-10910700D02*
X16953100Y-10950700D01*
X17080000Y-2380000D02*
X17120000Y-2420000D01*
X17120000Y-2380000D02*
X17080000Y-2420000D01*
X17080000Y-16380000D02*
X17120000Y-16420000D01*
X17120000Y-16380000D02*
X17080000Y-16420000D01*
X17082500Y-3315000D02*
X17122500Y-3355000D01*
X17122500Y-3315000D02*
X17082500Y-3355000D01*
X17082500Y-3947500D02*
X17122500Y-3987500D01*
X17122500Y-3947500D02*
X17082500Y-3987500D01*
X17082500Y-6770000D02*
X17122500Y-6810000D01*
X17122500Y-6770000D02*
X17082500Y-6810000D01*
X17082500Y-8955000D02*
X17122500Y-8995000D01*
X17122500Y-8955000D02*
X17082500Y-8995000D01*
X17082500Y-11460000D02*
X17122500Y-11500000D01*
X17122500Y-11460000D02*
X17082500Y-11500000D01*
X17129300Y-15901000D02*
X17169300Y-15941000D01*
X17169300Y-15901000D02*
X17129300Y-15941000D01*
X17240000Y-8422500D02*
X17280000Y-8462500D01*
X17280000Y-8422500D02*
X17240000Y-8462500D01*
X17242500Y-4368400D02*
X17282500Y-4408400D01*
X17282500Y-4368400D02*
X17242500Y-4408400D01*
X17245100Y-10123900D02*
X17285100Y-10163900D01*
X17285100Y-10123900D02*
X17245100Y-10163900D01*
X17257200Y-12068400D02*
X17297200Y-12108400D01*
X17297200Y-12068400D02*
X17257200Y-12108400D01*
X17263400Y-7606900D02*
X17303400Y-7646900D01*
X17303400Y-7606900D02*
X17263400Y-7646900D01*
X17264200Y-3170400D02*
X17304200Y-3210400D01*
X17304200Y-3170400D02*
X17264200Y-3210400D01*
X17270900Y-9826600D02*
X17310900Y-9866600D01*
X17310900Y-9826600D02*
X17270900Y-9866600D01*
X17274200Y-9401000D02*
X17314200Y-9441000D01*
X17314200Y-9401000D02*
X17274200Y-9441000D01*
X17275500Y-6272700D02*
X17315500Y-6312700D01*
X17315500Y-6272700D02*
X17275500Y-6312700D01*
X17280000Y-2380000D02*
X17320000Y-2420000D01*
X17320000Y-2380000D02*
X17280000Y-2420000D01*
X17280000Y-16380000D02*
X17320000Y-16420000D01*
X17320000Y-16380000D02*
X17280000Y-16420000D01*
X17286300Y-10813200D02*
X17326300Y-10853200D01*
X17326300Y-10813200D02*
X17286300Y-10853200D01*
X17297500Y-12881700D02*
X17337500Y-12921700D01*
X17337500Y-12881700D02*
X17297500Y-12921700D01*
X17300500Y-4811300D02*
X17340500Y-4851300D01*
X17340500Y-4811300D02*
X17300500Y-4851300D01*
X17300500Y-5682600D02*
X17340500Y-5722600D01*
X17340500Y-5682600D02*
X17300500Y-5722600D01*
X17301300Y-6614700D02*
X17341300Y-6654700D01*
X17341300Y-6614700D02*
X17301300Y-6654700D01*
X17302400Y-11555400D02*
X17342400Y-11595400D01*
X17342400Y-11555400D02*
X17302400Y-11595400D01*
X17307800Y-5377600D02*
X17347800Y-5417600D01*
X17347800Y-5377600D02*
X17307800Y-5417600D01*
X17337700Y-3727900D02*
X17377700Y-3767900D01*
X17377700Y-3727900D02*
X17337700Y-3767900D01*
X17477800Y-15661400D02*
X17517800Y-15701400D01*
X17517800Y-15661400D02*
X17477800Y-15701400D01*
X17480000Y-2380000D02*
X17520000Y-2420000D01*
X17520000Y-2380000D02*
X17480000Y-2420000D01*
X17480000Y-16380000D02*
X17520000Y-16420000D01*
X17520000Y-16380000D02*
X17480000Y-16420000D01*
X17527500Y-14058000D02*
X17567500Y-14098000D01*
X17567500Y-14058000D02*
X17527500Y-14098000D01*
X17554700Y-2749300D02*
X17594700Y-2789300D01*
X17594700Y-2749300D02*
X17554700Y-2789300D01*
X17607300Y-11555400D02*
X17647300Y-11595400D01*
X17647300Y-11555400D02*
X17607300Y-11595400D01*
X17609700Y-8913400D02*
X17649700Y-8953400D01*
X17649700Y-8913400D02*
X17609700Y-8953400D01*
X17617500Y-6395300D02*
X17657500Y-6435300D01*
X17657500Y-6395300D02*
X17617500Y-6435300D01*
X17631300Y-8212700D02*
X17671300Y-8252700D01*
X17671300Y-8212700D02*
X17631300Y-8252700D01*
X17638800Y-14445200D02*
X17678800Y-14485200D01*
X17678800Y-14445200D02*
X17638800Y-14485200D01*
X17656300Y-3881900D02*
X17696300Y-3921900D01*
X17696300Y-3881900D02*
X17656300Y-3921900D01*
X17680000Y-2380000D02*
X17720000Y-2420000D01*
X17720000Y-2380000D02*
X17680000Y-2420000D01*
X17680000Y-16380000D02*
X17720000Y-16420000D01*
X17720000Y-16380000D02*
X17680000Y-16420000D01*
X17685400Y-5443000D02*
X17725400Y-5483000D01*
X17725400Y-5443000D02*
X17685400Y-5483000D01*
X17719500Y-9887900D02*
X17759500Y-9927900D01*
X17759500Y-9887900D02*
X17719500Y-9927900D01*
X17737700Y-7619800D02*
X17777700Y-7659800D01*
X17777700Y-7619800D02*
X17737700Y-7659800D01*
X17880000Y-2380000D02*
X17920000Y-2420000D01*
X17920000Y-2380000D02*
X17880000Y-2420000D01*
X17880000Y-16380000D02*
X17920000Y-16420000D01*
X17920000Y-16380000D02*
X17880000Y-16420000D01*
X17886700Y-12974500D02*
X17926700Y-13014500D01*
X17926700Y-12974500D02*
X17886700Y-13014500D01*
X17908500Y-12190400D02*
X17948500Y-12230400D01*
X17948500Y-12190400D02*
X17908500Y-12230400D01*
X18048400Y-5726100D02*
X18088400Y-5766100D01*
X18088400Y-5726100D02*
X18048400Y-5766100D01*
X18080000Y-2380000D02*
X18120000Y-2420000D01*
X18120000Y-2380000D02*
X18080000Y-2420000D01*
X18080000Y-16380000D02*
X18120000Y-16420000D01*
X18120000Y-16380000D02*
X18080000Y-16420000D01*
X18080500Y-15821100D02*
X18120500Y-15861100D01*
X18120500Y-15821100D02*
X18080500Y-15861100D01*
X18155000Y-6927500D02*
X18195000Y-6967500D01*
X18195000Y-6927500D02*
X18155000Y-6967500D01*
X18162500Y-11285000D02*
X18202500Y-11325000D01*
X18202500Y-11285000D02*
X18162500Y-11325000D01*
X18280000Y-2380000D02*
X18320000Y-2420000D01*
X18320000Y-2380000D02*
X18280000Y-2420000D01*
X18280000Y-16380000D02*
X18320000Y-16420000D01*
X18320000Y-16380000D02*
X18280000Y-16420000D01*
X18288000Y-2858200D02*
X18328000Y-2898200D01*
X18328000Y-2858200D02*
X18288000Y-2898200D01*
X18413200Y-8690800D02*
X18453200Y-8730800D01*
X18453200Y-8690800D02*
X18413200Y-8730800D01*
X18413700Y-7356800D02*
X18453700Y-7396800D01*
X18453700Y-7356800D02*
X18413700Y-7396800D01*
X18416100Y-11579200D02*
X18456100Y-11619200D01*
X18456100Y-11579200D02*
X18416100Y-11619200D01*
X18452000Y-14851800D02*
X18492000Y-14891800D01*
X18492000Y-14851800D02*
X18452000Y-14891800D01*
X18480000Y-2380000D02*
X18520000Y-2420000D01*
X18520000Y-2380000D02*
X18480000Y-2420000D01*
X18480000Y-16380000D02*
X18520000Y-16420000D01*
X18520000Y-16380000D02*
X18480000Y-16420000D01*
X18634600Y-12705900D02*
X18674600Y-12745900D01*
X18674600Y-12705900D02*
X18634600Y-12745900D01*
X18680000Y-2380000D02*
X18720000Y-2420000D01*
X18720000Y-2380000D02*
X18680000Y-2420000D01*
X18680000Y-16380000D02*
X18720000Y-16420000D01*
X18720000Y-16380000D02*
X18680000Y-16420000D01*
X18705000Y-10035000D02*
X18745000Y-10075000D01*
X18745000Y-10035000D02*
X18705000Y-10075000D01*
X18710000Y-5077500D02*
X18750000Y-5117500D01*
X18750000Y-5077500D02*
X18710000Y-5117500D01*
X18742400Y-14527500D02*
X18782400Y-14567500D01*
X18782400Y-14527500D02*
X18742400Y-14567500D01*
X18746100Y-6727900D02*
X18786100Y-6767900D01*
X18786100Y-6727900D02*
X18746100Y-6767900D01*
X18790400Y-11111300D02*
X18830400Y-11151300D01*
X18830400Y-11111300D02*
X18790400Y-11151300D01*
X18803500Y-2778300D02*
X18843500Y-2818300D01*
X18843500Y-2778300D02*
X18803500Y-2818300D01*
X18818000Y-4281300D02*
X18858000Y-4321300D01*
X18858000Y-4281300D02*
X18818000Y-4321300D01*
X18860900Y-16034100D02*
X18900900Y-16074100D01*
X18900900Y-16034100D02*
X18860900Y-16074100D01*
X18875000Y-8217500D02*
X18915000Y-8257500D01*
X18915000Y-8217500D02*
X18875000Y-8257500D01*
X18880000Y-2380000D02*
X18920000Y-2420000D01*
X18920000Y-2380000D02*
X18880000Y-2420000D01*
X18880000Y-16380000D02*
X18920000Y-16420000D01*
X18920000Y-16380000D02*
X18880000Y-16420000D01*
X18881100Y-9381300D02*
X18921100Y-9421300D01*
X18921100Y-9381300D02*
X18881100Y-9421300D01*
X18901000Y-6263200D02*
X18941000Y-6303200D01*
X18941000Y-6263200D02*
X18901000Y-6303200D01*
X18916600Y-8761700D02*
X18956600Y-8801700D01*
X18956600Y-8761700D02*
X18916600Y-8801700D01*
X18961300Y-12175800D02*
X19001300Y-12215800D01*
X19001300Y-12175800D02*
X18961300Y-12215800D01*
X18971900Y-7524600D02*
X19011900Y-7564600D01*
X19011900Y-7524600D02*
X18971900Y-7564600D01*
X19000200Y-10588500D02*
X19040200Y-10628500D01*
X19040200Y-10588500D02*
X19000200Y-10628500D01*
X19010700Y-7121600D02*
X19050700Y-7161600D01*
X19050700Y-7121600D02*
X19010700Y-7161600D01*
X19080000Y-2380000D02*
X19120000Y-2420000D01*
X19120000Y-2380000D02*
X19080000Y-2420000D01*
X19080000Y-16380000D02*
X19120000Y-16420000D01*
X19120000Y-16380000D02*
X19080000Y-16420000D01*
X19181000Y-5464700D02*
X19221000Y-5504700D01*
X19221000Y-5464700D02*
X19181000Y-5504700D01*
X19201250Y-15261250D02*
X19241250Y-15301250D01*
X19241250Y-15261250D02*
X19201250Y-15301250D01*
X19213100Y-11640500D02*
X19253100Y-11680500D01*
X19253100Y-11640500D02*
X19213100Y-11680500D01*
X19214100Y-8981100D02*
X19254100Y-9021100D01*
X19254100Y-8981100D02*
X19214100Y-9021100D01*
X19239100Y-3170400D02*
X19279100Y-3210400D01*
X19279100Y-3170400D02*
X19239100Y-3210400D01*
X19245400Y-10807900D02*
X19285400Y-10847900D01*
X19285400Y-10807900D02*
X19245400Y-10847900D01*
X19260900Y-5726100D02*
X19300900Y-5766100D01*
X19300900Y-5726100D02*
X19260900Y-5766100D01*
X19280000Y-2380000D02*
X19320000Y-2420000D01*
X19320000Y-2380000D02*
X19280000Y-2420000D01*
X19280000Y-16380000D02*
X19320000Y-16420000D01*
X19320000Y-16380000D02*
X19280000Y-16420000D01*
X19284500Y-14169300D02*
X19324500Y-14209300D01*
X19324500Y-14169300D02*
X19284500Y-14209300D01*
X19298900Y-6258900D02*
X19338900Y-6298900D01*
X19338900Y-6258900D02*
X19298900Y-6298900D01*
X19449700Y-4281300D02*
X19489700Y-4321300D01*
X19489700Y-4281300D02*
X19449700Y-4321300D01*
X19474500Y-11621100D02*
X19514500Y-11661100D01*
X19514500Y-11621100D02*
X19474500Y-11661100D01*
X19480000Y-2380000D02*
X19520000Y-2420000D01*
X19520000Y-2380000D02*
X19480000Y-2420000D01*
X19480000Y-16380000D02*
X19520000Y-16420000D01*
X19520000Y-16380000D02*
X19480000Y-16420000D01*
X19532500Y-9142500D02*
X19572500Y-9182500D01*
X19572500Y-9142500D02*
X19532500Y-9182500D01*
X19561400Y-3897500D02*
X19601400Y-3937500D01*
X19601400Y-3897500D02*
X19561400Y-3937500D01*
X19580400Y-5130800D02*
X19620400Y-5170800D01*
X19620400Y-5130800D02*
X19580400Y-5170800D01*
X19667500Y-5704300D02*
X19707500Y-5744300D01*
X19707500Y-5704300D02*
X19667500Y-5744300D01*
X19680000Y-2380000D02*
X19720000Y-2420000D01*
X19720000Y-2380000D02*
X19680000Y-2420000D01*
X19680000Y-16380000D02*
X19720000Y-16420000D01*
X19720000Y-16380000D02*
X19680000Y-16420000D01*
X19682000Y-3794800D02*
X19722000Y-3834800D01*
X19722000Y-3794800D02*
X19682000Y-3834800D01*
X19685100Y-7627900D02*
X19725100Y-7667900D01*
X19725100Y-7627900D02*
X19685100Y-7667900D01*
X19687400Y-12960000D02*
X19727400Y-13000000D01*
X19727400Y-12960000D02*
X19687400Y-13000000D01*
X19727100Y-6509500D02*
X19767100Y-6549500D01*
X19767100Y-6509500D02*
X19727100Y-6549500D01*
X19747400Y-4942000D02*
X19787400Y-4982000D01*
X19787400Y-4942000D02*
X19747400Y-4982000D01*
X19747400Y-5399400D02*
X19787400Y-5439400D01*
X19787400Y-5399400D02*
X19747400Y-5439400D01*
X19747600Y-9353300D02*
X19787600Y-9393300D01*
X19787600Y-9353300D02*
X19747600Y-9393300D01*
X19754600Y-3279300D02*
X19794600Y-3319300D01*
X19794600Y-3279300D02*
X19754600Y-3319300D01*
X19817400Y-7175300D02*
X19857400Y-7215300D01*
X19857400Y-7175300D02*
X19817400Y-7215300D01*
X19875100Y-14508100D02*
X19915100Y-14548100D01*
X19915100Y-14508100D02*
X19875100Y-14548100D01*
X19880000Y-2380000D02*
X19920000Y-2420000D01*
X19920000Y-2380000D02*
X19880000Y-2420000D01*
X19880000Y-16380000D02*
X19920000Y-16420000D01*
X19920000Y-16380000D02*
X19880000Y-16420000D01*
X19905000Y-9992500D02*
X19945000Y-10032500D01*
X19945000Y-9992500D02*
X19905000Y-10032500D01*
X19956000Y-12488000D02*
X19996000Y-12528000D01*
X19996000Y-12488000D02*
X19956000Y-12528000D01*
X19975500Y-7569800D02*
X20015500Y-7609800D01*
X20015500Y-7569800D02*
X19975500Y-7609800D01*
X20077500Y-11302500D02*
X20117500Y-11342500D01*
X20117500Y-11302500D02*
X20077500Y-11342500D01*
X20080000Y-2380000D02*
X20120000Y-2420000D01*
X20120000Y-2380000D02*
X20080000Y-2420000D01*
X20080000Y-16380000D02*
X20120000Y-16420000D01*
X20120000Y-16380000D02*
X20080000Y-16420000D01*
X20140100Y-6477300D02*
X20180100Y-6517300D01*
X20180100Y-6477300D02*
X20140100Y-6517300D01*
X20280000Y-2380000D02*
X20320000Y-2420000D01*
X20320000Y-2380000D02*
X20280000Y-2420000D01*
X20280000Y-16380000D02*
X20320000Y-16420000D01*
X20320000Y-16380000D02*
X20280000Y-16420000D01*
X20320000Y-10601400D02*
X20360000Y-10641400D01*
X20360000Y-10601400D02*
X20320000Y-10641400D01*
X20325200Y-14880800D02*
X20365200Y-14920800D01*
X20365200Y-14880800D02*
X20325200Y-14920800D01*
X20329500Y-9661400D02*
X20369500Y-9701400D01*
X20369500Y-9661400D02*
X20329500Y-9701400D01*
X20336100Y-11630800D02*
X20376100Y-11670800D01*
X20376100Y-11630800D02*
X20336100Y-11670800D01*
X20453400Y-15932400D02*
X20493400Y-15972400D01*
X20493400Y-15932400D02*
X20453400Y-15972400D01*
X20480000Y-2380000D02*
X20520000Y-2420000D01*
X20520000Y-2380000D02*
X20480000Y-2420000D01*
X20480000Y-16380000D02*
X20520000Y-16420000D01*
X20520000Y-16380000D02*
X20480000Y-16420000D01*
X20484700Y-5680200D02*
X20524700Y-5720200D01*
X20524700Y-5680200D02*
X20484700Y-5720200D01*
X20515000Y-10010000D02*
X20555000Y-10050000D01*
X20555000Y-10010000D02*
X20515000Y-10050000D01*
X20552500Y-5095000D02*
X20592500Y-5135000D01*
X20592500Y-5095000D02*
X20552500Y-5135000D01*
X20569400Y-4290700D02*
X20609400Y-4330700D01*
X20609400Y-4290700D02*
X20569400Y-4330700D01*
X20570400Y-9291400D02*
X20610400Y-9331400D01*
X20610400Y-9291400D02*
X20570400Y-9331400D01*
X20591200Y-5434900D02*
X20631200Y-5474900D01*
X20631200Y-5434900D02*
X20591200Y-5474900D01*
X20609400Y-13025300D02*
X20649400Y-13065300D01*
X20649400Y-13025300D02*
X20609400Y-13065300D01*
X20645600Y-2677700D02*
X20685600Y-2717700D01*
X20685600Y-2677700D02*
X20645600Y-2717700D01*
X20652500Y-6947500D02*
X20692500Y-6987500D01*
X20692500Y-6947500D02*
X20652500Y-6987500D01*
X20652700Y-12062700D02*
X20692700Y-12102700D01*
X20692700Y-12062700D02*
X20652700Y-12102700D01*
X20680000Y-2380000D02*
X20720000Y-2420000D01*
X20720000Y-2380000D02*
X20680000Y-2420000D01*
X20680000Y-16380000D02*
X20720000Y-16420000D01*
X20720000Y-16380000D02*
X20680000Y-16420000D01*
X20729800Y-10769200D02*
X20769800Y-10809200D01*
X20769800Y-10769200D02*
X20729800Y-10809200D01*
X20780000Y-8187500D02*
X20820000Y-8227500D01*
X20820000Y-8187500D02*
X20780000Y-8227500D01*
X20790000Y-11310000D02*
X20830000Y-11350000D01*
X20830000Y-11310000D02*
X20790000Y-11350000D01*
X20830700Y-6206200D02*
X20870700Y-6246200D01*
X20870700Y-6206200D02*
X20830700Y-6246200D01*
X20833400Y-14542000D02*
X20873400Y-14582000D01*
X20873400Y-14542000D02*
X20833400Y-14582000D01*
X20880000Y-2380000D02*
X20920000Y-2420000D01*
X20920000Y-2380000D02*
X20880000Y-2420000D01*
X20880000Y-16380000D02*
X20920000Y-16420000D01*
X20920000Y-16380000D02*
X20880000Y-16420000D01*
X20950900Y-7266400D02*
X20990900Y-7306400D01*
X20990900Y-7266400D02*
X20950900Y-7306400D01*
X21009900Y-4610100D02*
X21049900Y-4650100D01*
X21049900Y-4610100D02*
X21009900Y-4650100D01*
X21080000Y-2380000D02*
X21120000Y-2420000D01*
X21120000Y-2380000D02*
X21080000Y-2420000D01*
X21080000Y-16380000D02*
X21120000Y-16420000D01*
X21120000Y-16380000D02*
X21080000Y-16420000D01*
X21090000Y-4890000D02*
X21130000Y-4930000D01*
X21130000Y-4890000D02*
X21090000Y-4930000D01*
X21095300Y-9263400D02*
X21135300Y-9303400D01*
X21135300Y-9263400D02*
X21095300Y-9303400D01*
X21104100Y-10695000D02*
X21144100Y-10735000D01*
X21144100Y-10695000D02*
X21104100Y-10735000D01*
X21110000Y-9937500D02*
X21150000Y-9977500D01*
X21150000Y-9937500D02*
X21110000Y-9977500D01*
X21172300Y-14096700D02*
X21212300Y-14136700D01*
X21212300Y-14096700D02*
X21172300Y-14136700D01*
X21191250Y-15263750D02*
X21231250Y-15303750D01*
X21231250Y-15263750D02*
X21191250Y-15303750D01*
X21227900Y-15927600D02*
X21267900Y-15967600D01*
X21267900Y-15927600D02*
X21227900Y-15967600D01*
X21280000Y-2380000D02*
X21320000Y-2420000D01*
X21320000Y-2380000D02*
X21280000Y-2420000D01*
X21280000Y-16380000D02*
X21320000Y-16420000D01*
X21320000Y-16380000D02*
X21280000Y-16420000D01*
X21288900Y-6319100D02*
X21328900Y-6359100D01*
X21328900Y-6319100D02*
X21288900Y-6359100D01*
X21358400Y-4348700D02*
X21398400Y-4388700D01*
X21398400Y-4348700D02*
X21358400Y-4388700D01*
X21400500Y-9215600D02*
X21440500Y-9255600D01*
X21440500Y-9215600D02*
X21400500Y-9255600D01*
X21401400Y-11630300D02*
X21441400Y-11670300D01*
X21441400Y-11630300D02*
X21401400Y-11670300D01*
X21402100Y-14480300D02*
X21442100Y-14520300D01*
X21442100Y-14480300D02*
X21402100Y-14520300D01*
X21411100Y-10975300D02*
X21451100Y-11015300D01*
X21451100Y-10975300D02*
X21411100Y-11015300D01*
X21480000Y-2380000D02*
X21520000Y-2420000D01*
X21520000Y-2380000D02*
X21480000Y-2420000D01*
X21480000Y-16380000D02*
X21520000Y-16420000D01*
X21520000Y-16380000D02*
X21480000Y-16420000D01*
X21663500Y-15840500D02*
X21703500Y-15880500D01*
X21703500Y-15840500D02*
X21663500Y-15880500D01*
X21680000Y-2380000D02*
X21720000Y-2420000D01*
X21720000Y-2380000D02*
X21680000Y-2420000D01*
X21680000Y-16380000D02*
X21720000Y-16420000D01*
X21720000Y-16380000D02*
X21680000Y-16420000D01*
X21681800Y-7377700D02*
X21721800Y-7417700D01*
X21721800Y-7377700D02*
X21681800Y-7417700D01*
X21686300Y-3219800D02*
X21726300Y-3259800D01*
X21726300Y-3219800D02*
X21686300Y-3259800D01*
X21731300Y-14548100D02*
X21771300Y-14588100D01*
X21771300Y-14548100D02*
X21731300Y-14588100D01*
X21758900Y-2876200D02*
X21798900Y-2916200D01*
X21798900Y-2876200D02*
X21758900Y-2916200D01*
X21760000Y-6251400D02*
X21800000Y-6291400D01*
X21800000Y-6251400D02*
X21760000Y-6291400D01*
X21760200Y-3772700D02*
X21800200Y-3812700D01*
X21800200Y-3772700D02*
X21760200Y-3812700D01*
X21762600Y-5744700D02*
X21802600Y-5784700D01*
X21802600Y-5744700D02*
X21762600Y-5784700D01*
X21867500Y-10002500D02*
X21907500Y-10042500D01*
X21907500Y-10002500D02*
X21867500Y-10042500D01*
X21880000Y-2380000D02*
X21920000Y-2420000D01*
X21920000Y-2380000D02*
X21880000Y-2420000D01*
X21880000Y-16380000D02*
X21920000Y-16420000D01*
X21920000Y-16380000D02*
X21880000Y-16420000D01*
X21908700Y-9370500D02*
X21948700Y-9410500D01*
X21948700Y-9370500D02*
X21908700Y-9410500D01*
X21943500Y-11039800D02*
X21983500Y-11079800D01*
X21983500Y-11039800D02*
X21943500Y-11079800D01*
X21982500Y-11277500D02*
X22022500Y-11317500D01*
X22022500Y-11277500D02*
X21982500Y-11317500D01*
X22001600Y-12124000D02*
X22041600Y-12164000D01*
X22041600Y-12124000D02*
X22001600Y-12164000D01*
X22020400Y-12731900D02*
X22060400Y-12771900D01*
X22060400Y-12731900D02*
X22020400Y-12771900D01*
X22080000Y-2380000D02*
X22120000Y-2420000D01*
X22120000Y-2380000D02*
X22080000Y-2420000D01*
X22080000Y-16380000D02*
X22120000Y-16420000D01*
X22120000Y-16380000D02*
X22080000Y-16420000D01*
X22124000Y-5470400D02*
X22164000Y-5510400D01*
X22164000Y-5470400D02*
X22124000Y-5510400D01*
X22132900Y-4077700D02*
X22172900Y-4117700D01*
X22172900Y-4077700D02*
X22132900Y-4117700D01*
X22189700Y-3248900D02*
X22229700Y-3288900D01*
X22229700Y-3248900D02*
X22189700Y-3288900D01*
X22191700Y-5789900D02*
X22231700Y-5829900D01*
X22231700Y-5789900D02*
X22191700Y-5829900D01*
X22196000Y-14833700D02*
X22236000Y-14873700D01*
X22236000Y-14833700D02*
X22196000Y-14873700D01*
X22198400Y-11769100D02*
X22238400Y-11809100D01*
X22238400Y-11769100D02*
X22198400Y-11809100D01*
X22204500Y-7639100D02*
X22244500Y-7679100D01*
X22244500Y-7639100D02*
X22204500Y-7679100D01*
X22214200Y-7227700D02*
X22254200Y-7267700D01*
X22254200Y-7227700D02*
X22214200Y-7267700D01*
X22217800Y-10581600D02*
X22257800Y-10621600D01*
X22257800Y-10581600D02*
X22217800Y-10621600D01*
X22218900Y-15906400D02*
X22258900Y-15946400D01*
X22258900Y-15906400D02*
X22218900Y-15946400D01*
X22230700Y-11549600D02*
X22270700Y-11589600D01*
X22270700Y-11549600D02*
X22230700Y-11589600D01*
X22257200Y-9709300D02*
X22297200Y-9749300D01*
X22297200Y-9709300D02*
X22257200Y-9749300D01*
X22280000Y-2380000D02*
X22320000Y-2420000D01*
X22320000Y-2380000D02*
X22280000Y-2420000D01*
X22280000Y-16380000D02*
X22320000Y-16420000D01*
X22320000Y-16380000D02*
X22280000Y-16420000D01*
X22285000Y-5090000D02*
X22325000Y-5130000D01*
X22325000Y-5090000D02*
X22285000Y-5130000D01*
X22348400Y-6407900D02*
X22388400Y-6447900D01*
X22388400Y-6407900D02*
X22348400Y-6447900D01*
X22480000Y-2380000D02*
X22520000Y-2420000D01*
X22520000Y-2380000D02*
X22480000Y-2420000D01*
X22480000Y-16380000D02*
X22520000Y-16420000D01*
X22520000Y-16380000D02*
X22480000Y-16420000D01*
X22490000Y-10027500D02*
X22530000Y-10067500D01*
X22530000Y-10027500D02*
X22490000Y-10067500D01*
X22490000Y-12344600D02*
X22530000Y-12384600D01*
X22530000Y-12344600D02*
X22490000Y-12384600D01*
X22499300Y-8818700D02*
X22539300Y-8858700D01*
X22539300Y-8818700D02*
X22499300Y-8858700D01*
X22499500Y-2866500D02*
X22539500Y-2906500D01*
X22539500Y-2866500D02*
X22499500Y-2906500D01*
X22593600Y-6412200D02*
X22633600Y-6452200D01*
X22633600Y-6412200D02*
X22593600Y-6452200D01*
X22660500Y-4198700D02*
X22700500Y-4238700D01*
X22700500Y-4198700D02*
X22660500Y-4238700D01*
X22664400Y-7305100D02*
X22704400Y-7345100D01*
X22704400Y-7305100D02*
X22664400Y-7345100D01*
X22675000Y-8165000D02*
X22715000Y-8205000D01*
X22715000Y-8165000D02*
X22675000Y-8205000D01*
X22680000Y-2380000D02*
X22720000Y-2420000D01*
X22720000Y-2380000D02*
X22680000Y-2420000D01*
X22680000Y-16380000D02*
X22720000Y-16420000D01*
X22720000Y-16380000D02*
X22680000Y-16420000D01*
X22685000Y-5090000D02*
X22725000Y-5130000D01*
X22725000Y-5090000D02*
X22685000Y-5130000D01*
X22692900Y-9351100D02*
X22732900Y-9391100D01*
X22732900Y-9351100D02*
X22692900Y-9391100D01*
X22697500Y-11302500D02*
X22737500Y-11342500D01*
X22737500Y-11302500D02*
X22697500Y-11342500D01*
X22717500Y-13032000D02*
X22757500Y-13072000D01*
X22757500Y-13032000D02*
X22717500Y-13072000D01*
X22724200Y-5383300D02*
X22764200Y-5423300D01*
X22764200Y-5383300D02*
X22724200Y-5423300D01*
X22738100Y-14543200D02*
X22778100Y-14583200D01*
X22778100Y-14543200D02*
X22738100Y-14583200D01*
X22824500Y-10620300D02*
X22864500Y-10660300D01*
X22864500Y-10620300D02*
X22824500Y-10660300D01*
X22837800Y-7943300D02*
X22877800Y-7983300D01*
X22877800Y-7943300D02*
X22837800Y-7983300D01*
X22880000Y-2380000D02*
X22920000Y-2420000D01*
X22920000Y-2380000D02*
X22880000Y-2420000D01*
X22880000Y-16380000D02*
X22920000Y-16420000D01*
X22920000Y-16380000D02*
X22880000Y-16420000D01*
X23007500Y-8925200D02*
X23047500Y-8965200D01*
X23047500Y-8925200D02*
X23007500Y-8965200D01*
X23017800Y-5731800D02*
X23057800Y-5771800D01*
X23057800Y-5731800D02*
X23017800Y-5771800D01*
X23034200Y-10981700D02*
X23074200Y-11021700D01*
X23074200Y-10981700D02*
X23034200Y-11021700D01*
X23041250Y-15263750D02*
X23081250Y-15303750D01*
X23081250Y-15263750D02*
X23041250Y-15303750D01*
X23076900Y-14165700D02*
X23116900Y-14205700D01*
X23116900Y-14165700D02*
X23076900Y-14205700D01*
X23080000Y-2380000D02*
X23120000Y-2420000D01*
X23120000Y-2380000D02*
X23080000Y-2420000D01*
X23080000Y-16380000D02*
X23120000Y-16420000D01*
X23120000Y-16380000D02*
X23080000Y-16420000D01*
X23110600Y-4329400D02*
X23150600Y-4369400D01*
X23150600Y-4329400D02*
X23110600Y-4369400D01*
X23142500Y-6922500D02*
X23182500Y-6962500D01*
X23182500Y-6922500D02*
X23142500Y-6962500D01*
X23162800Y-16240400D02*
X23202800Y-16280400D01*
X23202800Y-16240400D02*
X23162800Y-16280400D01*
X23280000Y-2380000D02*
X23320000Y-2420000D01*
X23320000Y-2380000D02*
X23280000Y-2420000D01*
X23280000Y-16380000D02*
X23320000Y-16420000D01*
X23320000Y-16380000D02*
X23280000Y-16420000D01*
X23312400Y-9210800D02*
X23352400Y-9250800D01*
X23352400Y-9210800D02*
X23312400Y-9250800D01*
X23322900Y-6162700D02*
X23362900Y-6202700D01*
X23362900Y-6162700D02*
X23322900Y-6202700D01*
X23330200Y-10782800D02*
X23370200Y-10822800D01*
X23370200Y-10782800D02*
X23330200Y-10822800D01*
X23415600Y-4658500D02*
X23455600Y-4698500D01*
X23455600Y-4658500D02*
X23415600Y-4698500D01*
X23480000Y-2380000D02*
X23520000Y-2420000D01*
X23520000Y-2380000D02*
X23480000Y-2420000D01*
X23480000Y-16380000D02*
X23520000Y-16420000D01*
X23520000Y-16380000D02*
X23480000Y-16420000D01*
X23495000Y-10082500D02*
X23535000Y-10122500D01*
X23535000Y-10082500D02*
X23495000Y-10122500D01*
X23510000Y-4885000D02*
X23550000Y-4925000D01*
X23550000Y-4885000D02*
X23510000Y-4925000D01*
X23539000Y-2627000D02*
X23579000Y-2667000D01*
X23579000Y-2627000D02*
X23539000Y-2667000D01*
X23583200Y-7930400D02*
X23623200Y-7970400D01*
X23623200Y-7930400D02*
X23583200Y-7970400D01*
X23623900Y-14557800D02*
X23663900Y-14597800D01*
X23663900Y-14557800D02*
X23623900Y-14597800D01*
X23642000Y-15695900D02*
X23682000Y-15735900D01*
X23682000Y-15695900D02*
X23642000Y-15735900D01*
X23680000Y-2380000D02*
X23720000Y-2420000D01*
X23720000Y-2380000D02*
X23680000Y-2420000D01*
X23680000Y-16380000D02*
X23720000Y-16420000D01*
X23720000Y-16380000D02*
X23680000Y-16420000D01*
X23694800Y-9278500D02*
X23734800Y-9318500D01*
X23734800Y-9278500D02*
X23694800Y-9318500D01*
X23753200Y-6377800D02*
X23793200Y-6417800D01*
X23793200Y-6377800D02*
X23753200Y-6417800D01*
X23754400Y-4319700D02*
X23794400Y-4359700D01*
X23794400Y-4319700D02*
X23754400Y-4359700D01*
X23867500Y-11302500D02*
X23907500Y-11342500D01*
X23907500Y-11302500D02*
X23867500Y-11342500D01*
X23880000Y-2380000D02*
X23920000Y-2420000D01*
X23920000Y-2380000D02*
X23880000Y-2420000D01*
X23880000Y-16380000D02*
X23920000Y-16420000D01*
X23920000Y-16380000D02*
X23880000Y-16420000D01*
X24018750Y-15263750D02*
X24058750Y-15303750D01*
X24058750Y-15263750D02*
X24018750Y-15303750D01*
X24080000Y-2380000D02*
X24120000Y-2420000D01*
X24120000Y-2380000D02*
X24080000Y-2420000D01*
X24080000Y-16380000D02*
X24120000Y-16420000D01*
X24120000Y-16380000D02*
X24080000Y-16420000D01*
X24112700Y-14828800D02*
X24152700Y-14868800D01*
X24152700Y-14828800D02*
X24112700Y-14868800D01*
X24125600Y-9627000D02*
X24165600Y-9667000D01*
X24165600Y-9627000D02*
X24125600Y-9667000D01*
X24166000Y-11508800D02*
X24206000Y-11548800D01*
X24206000Y-11508800D02*
X24166000Y-11548800D01*
X24202100Y-3193300D02*
X24242100Y-3233300D01*
X24242100Y-3193300D02*
X24202100Y-3233300D01*
X24208300Y-12233300D02*
X24248300Y-12273300D01*
X24248300Y-12233300D02*
X24208300Y-12273300D01*
X24243300Y-5725800D02*
X24283300Y-5765800D01*
X24283300Y-5725800D02*
X24243300Y-5765800D01*
X24256700Y-12751200D02*
X24296700Y-12791200D01*
X24296700Y-12751200D02*
X24256700Y-12791200D01*
X24257800Y-4842500D02*
X24297800Y-4882500D01*
X24297800Y-4842500D02*
X24257800Y-4882500D01*
X24280000Y-2380000D02*
X24320000Y-2420000D01*
X24320000Y-2380000D02*
X24280000Y-2420000D01*
X24280000Y-16380000D02*
X24320000Y-16420000D01*
X24320000Y-16380000D02*
X24280000Y-16420000D01*
X24296500Y-4019600D02*
X24336500Y-4059600D01*
X24336500Y-4019600D02*
X24296500Y-4059600D01*
X24347900Y-6235400D02*
X24387900Y-6275400D01*
X24387900Y-6235400D02*
X24347900Y-6275400D01*
X24395000Y-10010000D02*
X24435000Y-10050000D01*
X24435000Y-10010000D02*
X24395000Y-10050000D01*
X24409300Y-7094600D02*
X24449300Y-7134600D01*
X24449300Y-7094600D02*
X24409300Y-7134600D01*
X24462400Y-15891900D02*
X24502400Y-15931900D01*
X24502400Y-15891900D02*
X24462400Y-15931900D01*
X24472500Y-10685900D02*
X24512500Y-10725900D01*
X24512500Y-10685900D02*
X24472500Y-10725900D01*
X24480000Y-2380000D02*
X24520000Y-2420000D01*
X24520000Y-2380000D02*
X24480000Y-2420000D01*
X24480000Y-16380000D02*
X24520000Y-16420000D01*
X24520000Y-16380000D02*
X24480000Y-16420000D01*
X24488700Y-9331800D02*
X24528700Y-9371800D01*
X24528700Y-9331800D02*
X24488700Y-9371800D01*
X24558000Y-6209900D02*
X24598000Y-6249900D01*
X24598000Y-6209900D02*
X24558000Y-6249900D01*
X24611100Y-4097000D02*
X24651100Y-4137000D01*
X24651100Y-4097000D02*
X24611100Y-4137000D01*
X24649900Y-5440200D02*
X24689900Y-5480200D01*
X24689900Y-5440200D02*
X24649900Y-5480200D01*
X24669300Y-5783900D02*
X24709300Y-5823900D01*
X24709300Y-5783900D02*
X24669300Y-5823900D01*
X24680000Y-2380000D02*
X24720000Y-2420000D01*
X24720000Y-2380000D02*
X24680000Y-2420000D01*
X24680000Y-16380000D02*
X24720000Y-16420000D01*
X24720000Y-16380000D02*
X24680000Y-16420000D01*
X24695200Y-10437500D02*
X24735200Y-10477500D01*
X24735200Y-10437500D02*
X24695200Y-10477500D01*
X24703100Y-4760200D02*
X24743100Y-4800200D01*
X24743100Y-4760200D02*
X24703100Y-4800200D01*
X24709400Y-7249500D02*
X24749400Y-7289500D01*
X24749400Y-7249500D02*
X24709400Y-7289500D01*
X24722600Y-13831700D02*
X24762600Y-13871700D01*
X24762600Y-13831700D02*
X24722600Y-13871700D01*
X24739400Y-3261100D02*
X24779400Y-3301100D01*
X24779400Y-3261100D02*
X24739400Y-3301100D01*
X24746800Y-14611000D02*
X24786800Y-14651000D01*
X24786800Y-14611000D02*
X24746800Y-14651000D01*
X24787500Y-5087500D02*
X24827500Y-5127500D01*
X24827500Y-5087500D02*
X24787500Y-5127500D01*
X24799700Y-7911000D02*
X24839700Y-7951000D01*
X24839700Y-7911000D02*
X24799700Y-7951000D01*
X24843500Y-6572900D02*
X24883500Y-6612900D01*
X24883500Y-6572900D02*
X24843500Y-6612900D01*
X24880000Y-2380000D02*
X24920000Y-2420000D01*
X24920000Y-2380000D02*
X24880000Y-2420000D01*
X24880000Y-16380000D02*
X24920000Y-16420000D01*
X24920000Y-16380000D02*
X24880000Y-16420000D01*
X24992100Y-9244600D02*
X25032100Y-9284600D01*
X25032100Y-9244600D02*
X24992100Y-9284600D01*
X25033300Y-12722600D02*
X25073300Y-12762600D01*
X25073300Y-12722600D02*
X25033300Y-12762600D01*
X25080000Y-2380000D02*
X25120000Y-2420000D01*
X25120000Y-2380000D02*
X25080000Y-2420000D01*
X25080000Y-16380000D02*
X25120000Y-16420000D01*
X25120000Y-16380000D02*
X25080000Y-16420000D01*
X25104900Y-6369600D02*
X25144900Y-6409600D01*
X25144900Y-6369600D02*
X25104900Y-6409600D01*
X25119400Y-3869500D02*
X25159400Y-3909500D01*
X25159400Y-3869500D02*
X25119400Y-3909500D01*
X25122400Y-7101100D02*
X25162400Y-7141100D01*
X25162400Y-7101100D02*
X25122400Y-7141100D01*
X25133900Y-3119300D02*
X25173900Y-3159300D01*
X25173900Y-3119300D02*
X25133900Y-3159300D01*
X25185000Y-5090000D02*
X25225000Y-5130000D01*
X25225000Y-5090000D02*
X25185000Y-5130000D01*
X25230700Y-4832800D02*
X25270700Y-4872800D01*
X25270700Y-4832800D02*
X25230700Y-4872800D01*
X25280000Y-2380000D02*
X25320000Y-2420000D01*
X25320000Y-2380000D02*
X25280000Y-2420000D01*
X25280000Y-16380000D02*
X25320000Y-16420000D01*
X25320000Y-16380000D02*
X25280000Y-16420000D01*
X25377200Y-9446900D02*
X25417200Y-9486900D01*
X25417200Y-9446900D02*
X25377200Y-9486900D01*
X25392300Y-8460800D02*
X25432300Y-8500800D01*
X25432300Y-8460800D02*
X25392300Y-8500800D01*
X25480000Y-2380000D02*
X25520000Y-2420000D01*
X25520000Y-2380000D02*
X25480000Y-2420000D01*
X25480000Y-16380000D02*
X25520000Y-16420000D01*
X25520000Y-16380000D02*
X25480000Y-16420000D01*
X25507900Y-15899200D02*
X25547900Y-15939200D01*
X25547900Y-15899200D02*
X25507900Y-15939200D01*
X25595100Y-7954800D02*
X25635100Y-7994800D01*
X25635100Y-7954800D02*
X25595100Y-7994800D01*
X25680000Y-2380000D02*
X25720000Y-2420000D01*
X25720000Y-2380000D02*
X25680000Y-2420000D01*
X25680000Y-16380000D02*
X25720000Y-16420000D01*
X25720000Y-16380000D02*
X25680000Y-16420000D01*
X25682500Y-6910000D02*
X25722500Y-6950000D01*
X25722500Y-6910000D02*
X25682500Y-6950000D01*
X25747500Y-13546700D02*
X25787500Y-13586700D01*
X25787500Y-13546700D02*
X25747500Y-13586700D01*
X25750500Y-10987400D02*
X25790500Y-11027400D01*
X25790500Y-10987400D02*
X25750500Y-11027400D01*
X25804300Y-2791500D02*
X25844300Y-2831500D01*
X25844300Y-2791500D02*
X25804300Y-2831500D01*
X25871500Y-9859600D02*
X25911500Y-9899600D01*
X25911500Y-9859600D02*
X25871500Y-9899600D01*
X25880000Y-2380000D02*
X25920000Y-2420000D01*
X25920000Y-2380000D02*
X25880000Y-2420000D01*
X25880000Y-16380000D02*
X25920000Y-16420000D01*
X25920000Y-16380000D02*
X25880000Y-16420000D01*
X25925900Y-6203100D02*
X25965900Y-6243100D01*
X25965900Y-6203100D02*
X25925900Y-6243100D01*
X25958100Y-12588400D02*
X25998100Y-12628400D01*
X25998100Y-12588400D02*
X25958100Y-12628400D01*
X25961400Y-7155100D02*
X26001400Y-7195100D01*
X26001400Y-7155100D02*
X25961400Y-7195100D01*
X26017500Y-4897500D02*
X26057500Y-4937500D01*
X26057500Y-4897500D02*
X26017500Y-4937500D01*
X26045200Y-14447100D02*
X26085200Y-14487100D01*
X26085200Y-14447100D02*
X26045200Y-14487100D01*
X26074300Y-9000400D02*
X26114300Y-9040400D01*
X26114300Y-9000400D02*
X26074300Y-9040400D01*
X26080000Y-2380000D02*
X26120000Y-2420000D01*
X26120000Y-2380000D02*
X26080000Y-2420000D01*
X26080000Y-16380000D02*
X26120000Y-16420000D01*
X26120000Y-16380000D02*
X26080000Y-16420000D01*
X26181300Y-8344600D02*
X26221300Y-8384600D01*
X26221300Y-8344600D02*
X26181300Y-8384600D01*
X26203600Y-2698200D02*
X26243600Y-2738200D01*
X26243600Y-2698200D02*
X26203600Y-2738200D01*
X26280000Y-2380000D02*
X26320000Y-2420000D01*
X26320000Y-2380000D02*
X26280000Y-2420000D01*
X26280000Y-16380000D02*
X26320000Y-16420000D01*
X26320000Y-16380000D02*
X26280000Y-16420000D01*
X26293700Y-6316100D02*
X26333700Y-6356100D01*
X26333700Y-6316100D02*
X26293700Y-6356100D01*
X26328400Y-15971800D02*
X26368400Y-16011800D01*
X26368400Y-15971800D02*
X26328400Y-16011800D01*
X26363400Y-4319700D02*
X26403400Y-4359700D01*
X26403400Y-4319700D02*
X26363400Y-4359700D01*
X26364700Y-12624700D02*
X26404700Y-12664700D01*
X26404700Y-12624700D02*
X26364700Y-12664700D01*
X26479500Y-3617800D02*
X26519500Y-3657800D01*
X26519500Y-3617800D02*
X26479500Y-3657800D01*
X26480000Y-2380000D02*
X26520000Y-2420000D01*
X26520000Y-2380000D02*
X26480000Y-2420000D01*
X26480000Y-16380000D02*
X26520000Y-16420000D01*
X26520000Y-16380000D02*
X26480000Y-16420000D01*
X26487400Y-5986900D02*
X26527400Y-6026900D01*
X26527400Y-5986900D02*
X26487400Y-6026900D01*
X26568000Y-15093200D02*
X26608000Y-15133200D01*
X26608000Y-15093200D02*
X26568000Y-15133200D01*
X26576300Y-4823100D02*
X26616300Y-4863100D01*
X26616300Y-4823100D02*
X26576300Y-4863100D01*
X26631400Y-9370700D02*
X26671400Y-9410700D01*
X26671400Y-9370700D02*
X26631400Y-9410700D01*
X26680000Y-2380000D02*
X26720000Y-2420000D01*
X26720000Y-2380000D02*
X26680000Y-2420000D01*
X26680000Y-16380000D02*
X26720000Y-16420000D01*
X26720000Y-16380000D02*
X26680000Y-16420000D01*
X26687700Y-3245100D02*
X26727700Y-3285100D01*
X26727700Y-3245100D02*
X26687700Y-3285100D01*
X26705900Y-13379800D02*
X26745900Y-13419800D01*
X26745900Y-13379800D02*
X26705900Y-13419800D01*
X26762700Y-4263000D02*
X26802700Y-4303000D01*
X26802700Y-4263000D02*
X26762700Y-4303000D01*
X26789300Y-3642000D02*
X26829300Y-3682000D01*
X26829300Y-3642000D02*
X26789300Y-3682000D01*
X26791100Y-10285600D02*
X26831100Y-10325600D01*
X26831100Y-10285600D02*
X26791100Y-10325600D01*
X26843000Y-11502000D02*
X26883000Y-11542000D01*
X26883000Y-11502000D02*
X26843000Y-11542000D01*
X26856600Y-11631200D02*
X26896600Y-11671200D01*
X26896600Y-11631200D02*
X26856600Y-11671200D01*
X26880000Y-2380000D02*
X26920000Y-2420000D01*
X26920000Y-2380000D02*
X26880000Y-2420000D01*
X26880000Y-2580000D02*
X26920000Y-2620000D01*
X26920000Y-2580000D02*
X26880000Y-2620000D01*
X26880000Y-2780000D02*
X26920000Y-2820000D01*
X26920000Y-2780000D02*
X26880000Y-2820000D01*
X26880000Y-2980000D02*
X26920000Y-3020000D01*
X26920000Y-2980000D02*
X26880000Y-3020000D01*
X26880000Y-3180000D02*
X26920000Y-3220000D01*
X26920000Y-3180000D02*
X26880000Y-3220000D01*
X26880000Y-3380000D02*
X26920000Y-3420000D01*
X26920000Y-3380000D02*
X26880000Y-3420000D01*
X26880000Y-3580000D02*
X26920000Y-3620000D01*
X26920000Y-3580000D02*
X26880000Y-3620000D01*
X26880000Y-3780000D02*
X26920000Y-3820000D01*
X26920000Y-3780000D02*
X26880000Y-3820000D01*
X26880000Y-3980000D02*
X26920000Y-4020000D01*
X26920000Y-3980000D02*
X26880000Y-4020000D01*
X26880000Y-4180000D02*
X26920000Y-4220000D01*
X26920000Y-4180000D02*
X26880000Y-4220000D01*
X26880000Y-4380000D02*
X26920000Y-4420000D01*
X26920000Y-4380000D02*
X26880000Y-4420000D01*
X26880000Y-4580000D02*
X26920000Y-4620000D01*
X26920000Y-4580000D02*
X26880000Y-4620000D01*
X26880000Y-4780000D02*
X26920000Y-4820000D01*
X26920000Y-4780000D02*
X26880000Y-4820000D01*
X26880000Y-4980000D02*
X26920000Y-5020000D01*
X26920000Y-4980000D02*
X26880000Y-5020000D01*
X26880000Y-5180000D02*
X26920000Y-5220000D01*
X26920000Y-5180000D02*
X26880000Y-5220000D01*
X26880000Y-5380000D02*
X26920000Y-5420000D01*
X26920000Y-5380000D02*
X26880000Y-5420000D01*
X26880000Y-5580000D02*
X26920000Y-5620000D01*
X26920000Y-5580000D02*
X26880000Y-5620000D01*
X26880000Y-5780000D02*
X26920000Y-5820000D01*
X26920000Y-5780000D02*
X26880000Y-5820000D01*
X26880000Y-5980000D02*
X26920000Y-6020000D01*
X26920000Y-5980000D02*
X26880000Y-6020000D01*
X26880000Y-6180000D02*
X26920000Y-6220000D01*
X26920000Y-6180000D02*
X26880000Y-6220000D01*
X26880000Y-6380000D02*
X26920000Y-6420000D01*
X26920000Y-6380000D02*
X26880000Y-6420000D01*
X26880000Y-6580000D02*
X26920000Y-6620000D01*
X26920000Y-6580000D02*
X26880000Y-6620000D01*
X26880000Y-6780000D02*
X26920000Y-6820000D01*
X26920000Y-6780000D02*
X26880000Y-6820000D01*
X26880000Y-6980000D02*
X26920000Y-7020000D01*
X26920000Y-6980000D02*
X26880000Y-7020000D01*
X26880000Y-7180000D02*
X26920000Y-7220000D01*
X26920000Y-7180000D02*
X26880000Y-7220000D01*
X26880000Y-7380000D02*
X26920000Y-7420000D01*
X26920000Y-7380000D02*
X26880000Y-7420000D01*
X26880000Y-7580000D02*
X26920000Y-7620000D01*
X26920000Y-7580000D02*
X26880000Y-7620000D01*
X26880000Y-7780000D02*
X26920000Y-7820000D01*
X26920000Y-7780000D02*
X26880000Y-7820000D01*
X26880000Y-7980000D02*
X26920000Y-8020000D01*
X26920000Y-7980000D02*
X26880000Y-8020000D01*
X26880000Y-8180000D02*
X26920000Y-8220000D01*
X26920000Y-8180000D02*
X26880000Y-8220000D01*
X26880000Y-8380000D02*
X26920000Y-8420000D01*
X26920000Y-8380000D02*
X26880000Y-8420000D01*
X26880000Y-8580000D02*
X26920000Y-8620000D01*
X26920000Y-8580000D02*
X26880000Y-8620000D01*
X26880000Y-8780000D02*
X26920000Y-8820000D01*
X26920000Y-8780000D02*
X26880000Y-8820000D01*
X26880000Y-8980000D02*
X26920000Y-9020000D01*
X26920000Y-8980000D02*
X26880000Y-9020000D01*
X26880000Y-9180000D02*
X26920000Y-9220000D01*
X26920000Y-9180000D02*
X26880000Y-9220000D01*
X26880000Y-9380000D02*
X26920000Y-9420000D01*
X26920000Y-9380000D02*
X26880000Y-9420000D01*
X26880000Y-9580000D02*
X26920000Y-9620000D01*
X26920000Y-9580000D02*
X26880000Y-9620000D01*
X26880000Y-9780000D02*
X26920000Y-9820000D01*
X26920000Y-9780000D02*
X26880000Y-9820000D01*
X26880000Y-9980000D02*
X26920000Y-10020000D01*
X26920000Y-9980000D02*
X26880000Y-10020000D01*
X26880000Y-10180000D02*
X26920000Y-10220000D01*
X26920000Y-10180000D02*
X26880000Y-10220000D01*
X26880000Y-10380000D02*
X26920000Y-10420000D01*
X26920000Y-10380000D02*
X26880000Y-10420000D01*
X26880000Y-10580000D02*
X26920000Y-10620000D01*
X26920000Y-10580000D02*
X26880000Y-10620000D01*
X26880000Y-10780000D02*
X26920000Y-10820000D01*
X26920000Y-10780000D02*
X26880000Y-10820000D01*
X26880000Y-10980000D02*
X26920000Y-11020000D01*
X26920000Y-10980000D02*
X26880000Y-11020000D01*
X26880000Y-11180000D02*
X26920000Y-11220000D01*
X26920000Y-11180000D02*
X26880000Y-11220000D01*
X26880000Y-11380000D02*
X26920000Y-11420000D01*
X26920000Y-11380000D02*
X26880000Y-11420000D01*
X26880000Y-11780000D02*
X26920000Y-11820000D01*
X26920000Y-11780000D02*
X26880000Y-11820000D01*
X26880000Y-11980000D02*
X26920000Y-12020000D01*
X26920000Y-11980000D02*
X26880000Y-12020000D01*
X26880000Y-12180000D02*
X26920000Y-12220000D01*
X26920000Y-12180000D02*
X26880000Y-12220000D01*
X26880000Y-12380000D02*
X26920000Y-12420000D01*
X26920000Y-12380000D02*
X26880000Y-12420000D01*
X26880000Y-12580000D02*
X26920000Y-12620000D01*
X26920000Y-12580000D02*
X26880000Y-12620000D01*
X26880000Y-12780000D02*
X26920000Y-12820000D01*
X26920000Y-12780000D02*
X26880000Y-12820000D01*
X26880000Y-12980000D02*
X26920000Y-13020000D01*
X26920000Y-12980000D02*
X26880000Y-13020000D01*
X26880000Y-13180000D02*
X26920000Y-13220000D01*
X26920000Y-13180000D02*
X26880000Y-13220000D01*
X26880000Y-13380000D02*
X26920000Y-13420000D01*
X26920000Y-13380000D02*
X26880000Y-13420000D01*
X26880000Y-13580000D02*
X26920000Y-13620000D01*
X26920000Y-13580000D02*
X26880000Y-13620000D01*
X26880000Y-13780000D02*
X26920000Y-13820000D01*
X26920000Y-13780000D02*
X26880000Y-13820000D01*
X26880000Y-13980000D02*
X26920000Y-14020000D01*
X26920000Y-13980000D02*
X26880000Y-14020000D01*
X26880000Y-14180000D02*
X26920000Y-14220000D01*
X26920000Y-14180000D02*
X26880000Y-14220000D01*
X26880000Y-14380000D02*
X26920000Y-14420000D01*
X26920000Y-14380000D02*
X26880000Y-14420000D01*
X26880000Y-14580000D02*
X26920000Y-14620000D01*
X26920000Y-14580000D02*
X26880000Y-14620000D01*
X26880000Y-14780000D02*
X26920000Y-14820000D01*
X26920000Y-14780000D02*
X26880000Y-14820000D01*
X26880000Y-14980000D02*
X26920000Y-15020000D01*
X26920000Y-14980000D02*
X26880000Y-15020000D01*
X26880000Y-15180000D02*
X26920000Y-15220000D01*
X26920000Y-15180000D02*
X26880000Y-15220000D01*
X26880000Y-15380000D02*
X26920000Y-15420000D01*
X26920000Y-15380000D02*
X26880000Y-15420000D01*
X26880000Y-15580000D02*
X26920000Y-15620000D01*
X26920000Y-15580000D02*
X26880000Y-15620000D01*
X26880000Y-15780000D02*
X26920000Y-15820000D01*
X26920000Y-15780000D02*
X26880000Y-15820000D01*
X26880000Y-15980000D02*
X26920000Y-16020000D01*
X26920000Y-15980000D02*
X26880000Y-16020000D01*
X26880000Y-16180000D02*
X26920000Y-16220000D01*
X26920000Y-16180000D02*
X26880000Y-16220000D01*
X26880000Y-16380000D02*
X26920000Y-16420000D01*
X26920000Y-16380000D02*
X26880000Y-16420000D01*
D13*
X6685000Y-2800000D02*
G75*
G03*
X6685000Y-2800000I-25000J0D01*
G01*
X6685000Y-16000000D02*
G75*
G03*
X6685000Y-16000000I-25000J0D01*
G01*
X6755294Y-2630294D02*
G75*
G03*
X6755294Y-2630294I-25000J0D01*
G01*
X6755294Y-2969706D02*
G75*
G03*
X6755294Y-2969706I-25000J0D01*
G01*
X6755294Y-15830294D02*
G75*
G03*
X6755294Y-15830294I-25000J0D01*
G01*
X6755294Y-16169706D02*
G75*
G03*
X6755294Y-16169706I-25000J0D01*
G01*
X6925000Y-2560000D02*
G75*
G03*
X6925000Y-2560000I-25000J0D01*
G01*
X6925000Y-3040000D02*
G75*
G03*
X6925000Y-3040000I-25000J0D01*
G01*
X6925000Y-15760000D02*
G75*
G03*
X6925000Y-15760000I-25000J0D01*
G01*
X6925000Y-16240000D02*
G75*
G03*
X6925000Y-16240000I-25000J0D01*
G01*
X7094706Y-2630294D02*
G75*
G03*
X7094706Y-2630294I-25000J0D01*
G01*
X7094706Y-2969706D02*
G75*
G03*
X7094706Y-2969706I-25000J0D01*
G01*
X7094706Y-15830294D02*
G75*
G03*
X7094706Y-15830294I-25000J0D01*
G01*
X7094706Y-16169706D02*
G75*
G03*
X7094706Y-16169706I-25000J0D01*
G01*
X7165000Y-2800000D02*
G75*
G03*
X7165000Y-2800000I-25000J0D01*
G01*
X7165000Y-16000000D02*
G75*
G03*
X7165000Y-16000000I-25000J0D01*
G01*
X19585000Y-2800000D02*
G75*
G03*
X19585000Y-2800000I-25000J0D01*
G01*
X19585000Y-16000000D02*
G75*
G03*
X19585000Y-16000000I-25000J0D01*
G01*
X19655294Y-2630294D02*
G75*
G03*
X19655294Y-2630294I-25000J0D01*
G01*
X19655294Y-2969706D02*
G75*
G03*
X19655294Y-2969706I-25000J0D01*
G01*
X19655294Y-15830294D02*
G75*
G03*
X19655294Y-15830294I-25000J0D01*
G01*
X19655294Y-16169706D02*
G75*
G03*
X19655294Y-16169706I-25000J0D01*
G01*
X19825000Y-2560000D02*
G75*
G03*
X19825000Y-2560000I-25000J0D01*
G01*
X19825000Y-3040000D02*
G75*
G03*
X19825000Y-3040000I-25000J0D01*
G01*
X19825000Y-15760000D02*
G75*
G03*
X19825000Y-15760000I-25000J0D01*
G01*
X19825000Y-16240000D02*
G75*
G03*
X19825000Y-16240000I-25000J0D01*
G01*
X19994706Y-2630294D02*
G75*
G03*
X19994706Y-2630294I-25000J0D01*
G01*
X19994706Y-2969706D02*
G75*
G03*
X19994706Y-2969706I-25000J0D01*
G01*
X19994706Y-15830294D02*
G75*
G03*
X19994706Y-15830294I-25000J0D01*
G01*
X19994706Y-16169706D02*
G75*
G03*
X19994706Y-16169706I-25000J0D01*
G01*
X20065000Y-2800000D02*
G75*
G03*
X20065000Y-2800000I-25000J0D01*
G01*
X20065000Y-16000000D02*
G75*
G03*
X20065000Y-16000000I-25000J0D01*
G01*
X23785000Y-16000000D02*
G75*
G03*
X23785000Y-16000000I-25000J0D01*
G01*
X23855294Y-15830294D02*
G75*
G03*
X23855294Y-15830294I-25000J0D01*
G01*
X23855294Y-16169706D02*
G75*
G03*
X23855294Y-16169706I-25000J0D01*
G01*
X24025000Y-15760000D02*
G75*
G03*
X24025000Y-15760000I-25000J0D01*
G01*
X24025000Y-16240000D02*
G75*
G03*
X24025000Y-16240000I-25000J0D01*
G01*
X24194706Y-15830294D02*
G75*
G03*
X24194706Y-15830294I-25000J0D01*
G01*
X24194706Y-16169706D02*
G75*
G03*
X24194706Y-16169706I-25000J0D01*
G01*
X24265000Y-16000000D02*
G75*
G03*
X24265000Y-16000000I-25000J0D01*
G01*
X24485000Y-2800000D02*
G75*
G03*
X24485000Y-2800000I-25000J0D01*
G01*
X24555294Y-2630294D02*
G75*
G03*
X24555294Y-2630294I-25000J0D01*
G01*
X24555294Y-2969706D02*
G75*
G03*
X24555294Y-2969706I-25000J0D01*
G01*
X24725000Y-2560000D02*
G75*
G03*
X24725000Y-2560000I-25000J0D01*
G01*
X24725000Y-3040000D02*
G75*
G03*
X24725000Y-3040000I-25000J0D01*
G01*
X24894706Y-2630294D02*
G75*
G03*
X24894706Y-2630294I-25000J0D01*
G01*
X24894706Y-2969706D02*
G75*
G03*
X24894706Y-2969706I-25000J0D01*
G01*
X24965000Y-2800000D02*
G75*
G03*
X24965000Y-2800000I-25000J0D01*
G01*
D14*
X5666750Y-3654000D02*
X5666750Y-3754000D01*
X5616750Y-3704000D02*
X5716750Y-3704000D01*
X5666750Y-3908000D02*
X5666750Y-4008000D01*
X5616750Y-3958000D02*
X5716750Y-3958000D01*
X5666750Y-4162000D02*
X5666750Y-4262000D01*
X5616750Y-4212000D02*
X5716750Y-4212000D01*
X5666750Y-4416000D02*
X5666750Y-4516000D01*
X5616750Y-4466000D02*
X5716750Y-4466000D01*
X5666750Y-4670000D02*
X5666750Y-4770000D01*
X5616750Y-4720000D02*
X5716750Y-4720000D01*
X5666750Y-4924000D02*
X5666750Y-5024000D01*
X5616750Y-4974000D02*
X5716750Y-4974000D01*
X5666750Y-5178000D02*
X5666750Y-5278000D01*
X5616750Y-5228000D02*
X5716750Y-5228000D01*
X5666750Y-5432000D02*
X5666750Y-5532000D01*
X5616750Y-5482000D02*
X5716750Y-5482000D01*
X5666750Y-5686000D02*
X5666750Y-5786000D01*
X5616750Y-5736000D02*
X5716750Y-5736000D01*
X5666750Y-5940000D02*
X5666750Y-6040000D01*
X5616750Y-5990000D02*
X5716750Y-5990000D01*
X5666750Y-6194000D02*
X5666750Y-6294000D01*
X5616750Y-6244000D02*
X5716750Y-6244000D01*
X5666750Y-6448000D02*
X5666750Y-6548000D01*
X5616750Y-6498000D02*
X5716750Y-6498000D01*
X5666750Y-6702000D02*
X5666750Y-6802000D01*
X5616750Y-6752000D02*
X5716750Y-6752000D01*
X5666750Y-6956000D02*
X5666750Y-7056000D01*
X5616750Y-7006000D02*
X5716750Y-7006000D01*
X5666750Y-7210000D02*
X5666750Y-7310000D01*
X5616750Y-7260000D02*
X5716750Y-7260000D01*
X5666750Y-7464000D02*
X5666750Y-7564000D01*
X5616750Y-7514000D02*
X5716750Y-7514000D01*
X5666750Y-7718000D02*
X5666750Y-7818000D01*
X5616750Y-7768000D02*
X5716750Y-7768000D01*
X5666750Y-7972000D02*
X5666750Y-8072000D01*
X5616750Y-8022000D02*
X5716750Y-8022000D01*
X5666750Y-8226000D02*
X5666750Y-8326000D01*
X5616750Y-8276000D02*
X5716750Y-8276000D01*
X5666750Y-8480000D02*
X5666750Y-8580000D01*
X5616750Y-8530000D02*
X5716750Y-8530000D01*
X5686750Y-10251000D02*
X5686750Y-10351000D01*
X5636750Y-10301000D02*
X5736750Y-10301000D01*
X5686750Y-10505000D02*
X5686750Y-10605000D01*
X5636750Y-10555000D02*
X5736750Y-10555000D01*
X5686750Y-10759000D02*
X5686750Y-10859000D01*
X5636750Y-10809000D02*
X5736750Y-10809000D01*
X5686750Y-11013000D02*
X5686750Y-11113000D01*
X5636750Y-11063000D02*
X5736750Y-11063000D01*
X5686750Y-11267000D02*
X5686750Y-11367000D01*
X5636750Y-11317000D02*
X5736750Y-11317000D01*
X5686750Y-11521000D02*
X5686750Y-11621000D01*
X5636750Y-11571000D02*
X5736750Y-11571000D01*
X5686750Y-11775000D02*
X5686750Y-11875000D01*
X5636750Y-11825000D02*
X5736750Y-11825000D01*
X5686750Y-12029000D02*
X5686750Y-12129000D01*
X5636750Y-12079000D02*
X5736750Y-12079000D01*
X5686750Y-12283000D02*
X5686750Y-12383000D01*
X5636750Y-12333000D02*
X5736750Y-12333000D01*
X5686750Y-12537000D02*
X5686750Y-12637000D01*
X5636750Y-12587000D02*
X5736750Y-12587000D01*
X5686750Y-12791000D02*
X5686750Y-12891000D01*
X5636750Y-12841000D02*
X5736750Y-12841000D01*
X5686750Y-13045000D02*
X5686750Y-13145000D01*
X5636750Y-13095000D02*
X5736750Y-13095000D01*
X5686750Y-13299000D02*
X5686750Y-13399000D01*
X5636750Y-13349000D02*
X5736750Y-13349000D01*
X5686750Y-13553000D02*
X5686750Y-13653000D01*
X5636750Y-13603000D02*
X5736750Y-13603000D01*
X5686750Y-13807000D02*
X5686750Y-13907000D01*
X5636750Y-13857000D02*
X5736750Y-13857000D01*
X5686750Y-14061000D02*
X5686750Y-14161000D01*
X5636750Y-14111000D02*
X5736750Y-14111000D01*
X5686750Y-14315000D02*
X5686750Y-14415000D01*
X5636750Y-14365000D02*
X5736750Y-14365000D01*
X5686750Y-14569000D02*
X5686750Y-14669000D01*
X5636750Y-14619000D02*
X5736750Y-14619000D01*
X5686750Y-14823000D02*
X5686750Y-14923000D01*
X5636750Y-14873000D02*
X5736750Y-14873000D01*
X5686750Y-15077000D02*
X5686750Y-15177000D01*
X5636750Y-15127000D02*
X5736750Y-15127000D01*
X5920750Y-3654000D02*
X5920750Y-3754000D01*
X5870750Y-3704000D02*
X5970750Y-3704000D01*
X5920750Y-3908000D02*
X5920750Y-4008000D01*
X5870750Y-3958000D02*
X5970750Y-3958000D01*
X5920750Y-4162000D02*
X5920750Y-4262000D01*
X5870750Y-4212000D02*
X5970750Y-4212000D01*
X5920750Y-4416000D02*
X5920750Y-4516000D01*
X5870750Y-4466000D02*
X5970750Y-4466000D01*
X5920750Y-4670000D02*
X5920750Y-4770000D01*
X5870750Y-4720000D02*
X5970750Y-4720000D01*
X5920750Y-4924000D02*
X5920750Y-5024000D01*
X5870750Y-4974000D02*
X5970750Y-4974000D01*
X5920750Y-5178000D02*
X5920750Y-5278000D01*
X5870750Y-5228000D02*
X5970750Y-5228000D01*
X5920750Y-5432000D02*
X5920750Y-5532000D01*
X5870750Y-5482000D02*
X5970750Y-5482000D01*
X5920750Y-5686000D02*
X5920750Y-5786000D01*
X5870750Y-5736000D02*
X5970750Y-5736000D01*
X5920750Y-5940000D02*
X5920750Y-6040000D01*
X5870750Y-5990000D02*
X5970750Y-5990000D01*
X5920750Y-6194000D02*
X5920750Y-6294000D01*
X5870750Y-6244000D02*
X5970750Y-6244000D01*
X5920750Y-6448000D02*
X5920750Y-6548000D01*
X5870750Y-6498000D02*
X5970750Y-6498000D01*
X5920750Y-6702000D02*
X5920750Y-6802000D01*
X5870750Y-6752000D02*
X5970750Y-6752000D01*
X5920750Y-6956000D02*
X5920750Y-7056000D01*
X5870750Y-7006000D02*
X5970750Y-7006000D01*
X5920750Y-7210000D02*
X5920750Y-7310000D01*
X5870750Y-7260000D02*
X5970750Y-7260000D01*
X5920750Y-7464000D02*
X5920750Y-7564000D01*
X5870750Y-7514000D02*
X5970750Y-7514000D01*
X5920750Y-7718000D02*
X5920750Y-7818000D01*
X5870750Y-7768000D02*
X5970750Y-7768000D01*
X5920750Y-7972000D02*
X5920750Y-8072000D01*
X5870750Y-8022000D02*
X5970750Y-8022000D01*
X5920750Y-8226000D02*
X5920750Y-8326000D01*
X5870750Y-8276000D02*
X5970750Y-8276000D01*
X5920750Y-8480000D02*
X5920750Y-8580000D01*
X5870750Y-8530000D02*
X5970750Y-8530000D01*
X5940750Y-10251000D02*
X5940750Y-10351000D01*
X5890750Y-10301000D02*
X5990750Y-10301000D01*
X5940750Y-10505000D02*
X5940750Y-10605000D01*
X5890750Y-10555000D02*
X5990750Y-10555000D01*
X5940750Y-10759000D02*
X5940750Y-10859000D01*
X5890750Y-10809000D02*
X5990750Y-10809000D01*
X5940750Y-11013000D02*
X5940750Y-11113000D01*
X5890750Y-11063000D02*
X5990750Y-11063000D01*
X5940750Y-11267000D02*
X5940750Y-11367000D01*
X5890750Y-11317000D02*
X5990750Y-11317000D01*
X5940750Y-11521000D02*
X5940750Y-11621000D01*
X5890750Y-11571000D02*
X5990750Y-11571000D01*
X5940750Y-11775000D02*
X5940750Y-11875000D01*
X5890750Y-11825000D02*
X5990750Y-11825000D01*
X5940750Y-12029000D02*
X5940750Y-12129000D01*
X5890750Y-12079000D02*
X5990750Y-12079000D01*
X5940750Y-12283000D02*
X5940750Y-12383000D01*
X5890750Y-12333000D02*
X5990750Y-12333000D01*
X5940750Y-12537000D02*
X5940750Y-12637000D01*
X5890750Y-12587000D02*
X5990750Y-12587000D01*
X5940750Y-12791000D02*
X5940750Y-12891000D01*
X5890750Y-12841000D02*
X5990750Y-12841000D01*
X5940750Y-13045000D02*
X5940750Y-13145000D01*
X5890750Y-13095000D02*
X5990750Y-13095000D01*
X5940750Y-13299000D02*
X5940750Y-13399000D01*
X5890750Y-13349000D02*
X5990750Y-13349000D01*
X5940750Y-13553000D02*
X5940750Y-13653000D01*
X5890750Y-13603000D02*
X5990750Y-13603000D01*
X5940750Y-13807000D02*
X5940750Y-13907000D01*
X5890750Y-13857000D02*
X5990750Y-13857000D01*
X5940750Y-14061000D02*
X5940750Y-14161000D01*
X5890750Y-14111000D02*
X5990750Y-14111000D01*
X5940750Y-14315000D02*
X5940750Y-14415000D01*
X5890750Y-14365000D02*
X5990750Y-14365000D01*
X5940750Y-14569000D02*
X5940750Y-14669000D01*
X5890750Y-14619000D02*
X5990750Y-14619000D01*
X5940750Y-14823000D02*
X5940750Y-14923000D01*
X5890750Y-14873000D02*
X5990750Y-14873000D01*
X5940750Y-15077000D02*
X5940750Y-15177000D01*
X5890750Y-15127000D02*
X5990750Y-15127000D01*
X7538000Y-9270000D02*
X7538000Y-9370000D01*
X7488000Y-9320000D02*
X7588000Y-9320000D01*
X7538000Y-9524000D02*
X7538000Y-9624000D01*
X7488000Y-9574000D02*
X7588000Y-9574000D01*
X7538000Y-9778000D02*
X7538000Y-9878000D01*
X7488000Y-9828000D02*
X7588000Y-9828000D01*
X7538000Y-10032000D02*
X7538000Y-10132000D01*
X7488000Y-10082000D02*
X7588000Y-10082000D01*
X7538000Y-10286000D02*
X7538000Y-10386000D01*
X7488000Y-10336000D02*
X7588000Y-10336000D01*
X8001000Y-14286250D02*
X8001000Y-14386250D01*
X7951000Y-14336250D02*
X8051000Y-14336250D01*
X8001000Y-14540250D02*
X8001000Y-14640250D01*
X7951000Y-14590250D02*
X8051000Y-14590250D01*
X8255000Y-14286250D02*
X8255000Y-14386250D01*
X8205000Y-14336250D02*
X8305000Y-14336250D01*
X8255000Y-14540250D02*
X8255000Y-14640250D01*
X8205000Y-14590250D02*
X8305000Y-14590250D01*
X8509000Y-14286250D02*
X8509000Y-14386250D01*
X8459000Y-14336250D02*
X8559000Y-14336250D01*
X8509000Y-14540250D02*
X8509000Y-14640250D01*
X8459000Y-14590250D02*
X8559000Y-14590250D01*
X8763000Y-14286250D02*
X8763000Y-14386250D01*
X8713000Y-14336250D02*
X8813000Y-14336250D01*
X8763000Y-14540250D02*
X8763000Y-14640250D01*
X8713000Y-14590250D02*
X8813000Y-14590250D01*
X9017000Y-14286250D02*
X9017000Y-14386250D01*
X8967000Y-14336250D02*
X9067000Y-14336250D01*
X9017000Y-14540250D02*
X9017000Y-14640250D01*
X8967000Y-14590250D02*
X9067000Y-14590250D01*
X9271000Y-14286250D02*
X9271000Y-14386250D01*
X9221000Y-14336250D02*
X9321000Y-14336250D01*
X9271000Y-14540250D02*
X9271000Y-14640250D01*
X9221000Y-14590250D02*
X9321000Y-14590250D01*
X9525000Y-14286250D02*
X9525000Y-14386250D01*
X9475000Y-14336250D02*
X9575000Y-14336250D01*
X9525000Y-14540250D02*
X9525000Y-14640250D01*
X9475000Y-14590250D02*
X9575000Y-14590250D01*
X9779000Y-14286250D02*
X9779000Y-14386250D01*
X9729000Y-14336250D02*
X9829000Y-14336250D01*
X9779000Y-14540250D02*
X9779000Y-14640250D01*
X9729000Y-14590250D02*
X9829000Y-14590250D01*
X10033000Y-14286250D02*
X10033000Y-14386250D01*
X9983000Y-14336250D02*
X10083000Y-14336250D01*
X10033000Y-14540250D02*
X10033000Y-14640250D01*
X9983000Y-14590250D02*
X10083000Y-14590250D01*
X10287000Y-14286250D02*
X10287000Y-14386250D01*
X10237000Y-14336250D02*
X10337000Y-14336250D01*
X10287000Y-14540250D02*
X10287000Y-14640250D01*
X10237000Y-14590250D02*
X10337000Y-14590250D01*
X10541000Y-14286250D02*
X10541000Y-14386250D01*
X10491000Y-14336250D02*
X10591000Y-14336250D01*
X10541000Y-14540250D02*
X10541000Y-14640250D01*
X10491000Y-14590250D02*
X10591000Y-14590250D01*
X10795000Y-14286250D02*
X10795000Y-14386250D01*
X10745000Y-14336250D02*
X10845000Y-14336250D01*
X10795000Y-14540250D02*
X10795000Y-14640250D01*
X10745000Y-14590250D02*
X10845000Y-14590250D01*
X11049000Y-14286250D02*
X11049000Y-14386250D01*
X10999000Y-14336250D02*
X11099000Y-14336250D01*
X11049000Y-14540250D02*
X11049000Y-14640250D01*
X10999000Y-14590250D02*
X11099000Y-14590250D01*
X11303000Y-14286250D02*
X11303000Y-14386250D01*
X11253000Y-14336250D02*
X11353000Y-14336250D01*
X11303000Y-14540250D02*
X11303000Y-14640250D01*
X11253000Y-14590250D02*
X11353000Y-14590250D01*
X11557000Y-14286250D02*
X11557000Y-14386250D01*
X11507000Y-14336250D02*
X11607000Y-14336250D01*
X11557000Y-14540250D02*
X11557000Y-14640250D01*
X11507000Y-14590250D02*
X11607000Y-14590250D01*
X11811000Y-14286250D02*
X11811000Y-14386250D01*
X11761000Y-14336250D02*
X11861000Y-14336250D01*
X11811000Y-14540250D02*
X11811000Y-14640250D01*
X11761000Y-14590250D02*
X11861000Y-14590250D01*
X12065000Y-14286250D02*
X12065000Y-14386250D01*
X12015000Y-14336250D02*
X12115000Y-14336250D01*
X12065000Y-14540250D02*
X12065000Y-14640250D01*
X12015000Y-14590250D02*
X12115000Y-14590250D01*
X12319000Y-14286250D02*
X12319000Y-14386250D01*
X12269000Y-14336250D02*
X12369000Y-14336250D01*
X12319000Y-14540250D02*
X12319000Y-14640250D01*
X12269000Y-14590250D02*
X12369000Y-14590250D01*
X12573000Y-14286250D02*
X12573000Y-14386250D01*
X12523000Y-14336250D02*
X12623000Y-14336250D01*
X12573000Y-14540250D02*
X12573000Y-14640250D01*
X12523000Y-14590250D02*
X12623000Y-14590250D01*
X12701000Y-9195000D02*
X12701000Y-9295000D01*
X12651000Y-9245000D02*
X12751000Y-9245000D01*
X12827000Y-14286250D02*
X12827000Y-14386250D01*
X12777000Y-14336250D02*
X12877000Y-14336250D01*
X12827000Y-14540250D02*
X12827000Y-14640250D01*
X12777000Y-14590250D02*
X12877000Y-14590250D01*
X12955000Y-9195000D02*
X12955000Y-9295000D01*
X12905000Y-9245000D02*
X13005000Y-9245000D01*
X13209000Y-9195000D02*
X13209000Y-9295000D01*
X13159000Y-9245000D02*
X13259000Y-9245000D01*
X13309000Y-15680000D02*
X13309000Y-15780000D01*
X13259000Y-15730000D02*
X13359000Y-15730000D01*
X13309000Y-15934000D02*
X13309000Y-16034000D01*
X13259000Y-15984000D02*
X13359000Y-15984000D01*
X13463000Y-9195000D02*
X13463000Y-9295000D01*
X13413000Y-9245000D02*
X13513000Y-9245000D01*
X13563000Y-15680000D02*
X13563000Y-15780000D01*
X13513000Y-15730000D02*
X13613000Y-15730000D01*
X13563000Y-15934000D02*
X13563000Y-16034000D01*
X13513000Y-15984000D02*
X13613000Y-15984000D01*
X13717000Y-9195000D02*
X13717000Y-9295000D01*
X13667000Y-9245000D02*
X13767000Y-9245000D01*
X13817000Y-15680000D02*
X13817000Y-15780000D01*
X13767000Y-15730000D02*
X13867000Y-15730000D01*
X13817000Y-15934000D02*
X13817000Y-16034000D01*
X13767000Y-15984000D02*
X13867000Y-15984000D01*
X14071000Y-15680000D02*
X14071000Y-15780000D01*
X14021000Y-15730000D02*
X14121000Y-15730000D01*
X14071000Y-15934000D02*
X14071000Y-16034000D01*
X14021000Y-15984000D02*
X14121000Y-15984000D01*
X14325000Y-15680000D02*
X14325000Y-15780000D01*
X14275000Y-15730000D02*
X14375000Y-15730000D01*
X14325000Y-15934000D02*
X14325000Y-16034000D01*
X14275000Y-15984000D02*
X14375000Y-15984000D01*
D15*
X15629033Y-3856033D02*
X15629033Y-3749966D01*
X15522966Y-3749966D01*
X15522966Y-3856033D01*
X15629033Y-3856033D01*
X15629033Y-6356033D02*
X15629033Y-6249966D01*
X15522966Y-6249966D01*
X15522966Y-6356033D01*
X15629033Y-6356033D01*
X15629033Y-8856034D02*
X15629033Y-8749967D01*
X15522966Y-8749967D01*
X15522966Y-8856034D01*
X15629033Y-8856034D01*
X15729033Y-11356033D02*
X15729033Y-11249966D01*
X15622966Y-11249966D01*
X15622966Y-11356033D01*
X15729033Y-11356033D01*
X16229033Y-14056033D02*
X16229033Y-13949966D01*
X16122966Y-13949966D01*
X16122966Y-14056033D01*
X16229033Y-14056033D01*
X16264033Y-3602033D02*
X16264033Y-3495966D01*
X16157966Y-3495966D01*
X16157966Y-3602033D01*
X16264033Y-3602033D01*
X16264033Y-6102033D02*
X16264033Y-5995966D01*
X16157966Y-5995966D01*
X16157966Y-6102033D01*
X16264033Y-6102033D01*
X16264033Y-8602034D02*
X16264033Y-8495967D01*
X16157966Y-8495967D01*
X16157966Y-8602034D01*
X16264033Y-8602034D01*
X16364033Y-11102034D02*
X16364033Y-10995967D01*
X16257966Y-10995967D01*
X16257966Y-11102034D01*
X16364033Y-11102034D01*
X16864034Y-13802033D02*
X16864034Y-13695966D01*
X16757966Y-13695966D01*
X16757966Y-13802033D01*
X16864034Y-13802033D01*
X18129034Y-3856033D02*
X18129034Y-3749966D01*
X18022967Y-3749966D01*
X18022967Y-3856033D01*
X18129034Y-3856033D01*
X18129034Y-6356033D02*
X18129034Y-6249966D01*
X18022967Y-6249966D01*
X18022967Y-6356033D01*
X18129034Y-6356033D01*
X18129034Y-8856034D02*
X18129034Y-8749967D01*
X18022967Y-8749967D01*
X18022967Y-8856034D01*
X18129034Y-8856034D01*
X18129034Y-10756034D02*
X18129034Y-10649967D01*
X18022967Y-10649967D01*
X18022967Y-10756034D01*
X18129034Y-10756034D01*
X18129034Y-14056033D02*
X18129034Y-13949966D01*
X18022967Y-13949966D01*
X18022967Y-14056033D01*
X18129034Y-14056033D01*
X18764034Y-3602033D02*
X18764034Y-3495966D01*
X18657967Y-3495966D01*
X18657967Y-3602033D01*
X18764034Y-3602033D01*
X18764034Y-6102033D02*
X18764034Y-5995966D01*
X18657967Y-5995966D01*
X18657967Y-6102033D01*
X18764034Y-6102033D01*
X18764034Y-8602034D02*
X18764034Y-8495967D01*
X18657967Y-8495967D01*
X18657967Y-8602034D01*
X18764034Y-8602034D01*
X18764034Y-10502034D02*
X18764034Y-10395967D01*
X18657967Y-10395967D01*
X18657967Y-10502034D01*
X18764034Y-10502034D01*
X18764034Y-13802033D02*
X18764034Y-13695966D01*
X18657967Y-13695966D01*
X18657967Y-13802033D01*
X18764034Y-13802033D01*
X20029034Y-8856034D02*
X20029034Y-8749967D01*
X19922967Y-8749967D01*
X19922967Y-8856034D01*
X20029034Y-8856034D01*
X20029034Y-10756034D02*
X20029034Y-10649967D01*
X19922967Y-10649967D01*
X19922967Y-10756034D01*
X20029034Y-10756034D01*
X20029034Y-14056033D02*
X20029034Y-13949966D01*
X19922967Y-13949966D01*
X19922967Y-14056033D01*
X20029034Y-14056033D01*
X20629034Y-3856033D02*
X20629034Y-3749966D01*
X20522967Y-3749966D01*
X20522967Y-3856033D01*
X20629034Y-3856033D01*
X20629034Y-6356033D02*
X20629034Y-6249966D01*
X20522967Y-6249966D01*
X20522967Y-6356033D01*
X20629034Y-6356033D01*
X20664034Y-8602034D02*
X20664034Y-8495967D01*
X20557967Y-8495967D01*
X20557967Y-8602034D01*
X20664034Y-8602034D01*
X20664034Y-10502034D02*
X20664034Y-10395967D01*
X20557967Y-10395967D01*
X20557967Y-10502034D01*
X20664034Y-10502034D01*
X20664034Y-13802033D02*
X20664034Y-13695966D01*
X20557967Y-13695966D01*
X20557967Y-13802033D01*
X20664034Y-13802033D01*
X21264034Y-3602033D02*
X21264034Y-3495966D01*
X21157967Y-3495966D01*
X21157967Y-3602033D01*
X21264034Y-3602033D01*
X21264034Y-6102033D02*
X21264034Y-5995966D01*
X21157967Y-5995966D01*
X21157967Y-6102033D01*
X21264034Y-6102033D01*
X21929034Y-8856034D02*
X21929034Y-8749967D01*
X21822967Y-8749967D01*
X21822967Y-8856034D01*
X21929034Y-8856034D01*
X21929034Y-10756034D02*
X21929034Y-10649967D01*
X21822967Y-10649967D01*
X21822967Y-10756034D01*
X21929034Y-10756034D01*
X21929034Y-14056033D02*
X21929034Y-13949966D01*
X21822967Y-13949966D01*
X21822967Y-14056033D01*
X21929034Y-14056033D01*
X22564033Y-8602034D02*
X22564033Y-8495967D01*
X22457966Y-8495967D01*
X22457966Y-8602034D01*
X22564033Y-8602034D01*
X22564033Y-10502034D02*
X22564033Y-10395967D01*
X22457966Y-10395967D01*
X22457966Y-10502034D01*
X22564033Y-10502034D01*
X22564033Y-13802033D02*
X22564033Y-13695966D01*
X22457966Y-13695966D01*
X22457966Y-13802033D01*
X22564033Y-13802033D01*
X23129033Y-3856033D02*
X23129033Y-3749966D01*
X23022966Y-3749966D01*
X23022966Y-3856033D01*
X23129033Y-3856033D01*
X23129033Y-6356033D02*
X23129033Y-6249966D01*
X23022966Y-6249966D01*
X23022966Y-6356033D01*
X23129033Y-6356033D01*
X23764033Y-3602033D02*
X23764033Y-3495966D01*
X23657966Y-3495966D01*
X23657966Y-3602033D01*
X23764033Y-3602033D01*
X23764033Y-6102033D02*
X23764033Y-5995966D01*
X23657966Y-5995966D01*
X23657966Y-6102033D01*
X23764033Y-6102033D01*
X23829033Y-8856034D02*
X23829033Y-8749967D01*
X23722966Y-8749967D01*
X23722966Y-8856034D01*
X23829033Y-8856034D01*
X23829033Y-10756034D02*
X23829033Y-10649967D01*
X23722966Y-10649967D01*
X23722966Y-10756034D01*
X23829033Y-10756034D01*
X23829033Y-14056033D02*
X23829033Y-13949966D01*
X23722966Y-13949966D01*
X23722966Y-14056033D01*
X23829033Y-14056033D01*
X24464033Y-8602034D02*
X24464033Y-8495967D01*
X24357966Y-8495967D01*
X24357966Y-8602034D01*
X24464033Y-8602034D01*
X24464033Y-10502034D02*
X24464033Y-10395967D01*
X24357966Y-10395967D01*
X24357966Y-10502034D01*
X24464033Y-10502034D01*
X24464033Y-13802033D02*
X24464033Y-13695966D01*
X24357966Y-13695966D01*
X24357966Y-13802033D01*
X24464033Y-13802033D01*
X25629033Y-3856033D02*
X25629033Y-3749966D01*
X25522966Y-3749966D01*
X25522966Y-3856033D01*
X25629033Y-3856033D01*
X25629033Y-6356033D02*
X25629033Y-6249966D01*
X25522966Y-6249966D01*
X25522966Y-6356033D01*
X25629033Y-6356033D01*
X26264033Y-3602033D02*
X26264033Y-3495966D01*
X26157966Y-3495966D01*
X26157966Y-3602033D01*
X26264033Y-3602033D01*
X26264033Y-6102033D02*
X26264033Y-5995966D01*
X26157966Y-5995966D01*
X26157966Y-6102033D01*
X26264033Y-6102033D01*
D16*
X6900000Y-2960000D02*
X7060000Y-2800000D01*
X6900000Y-2640000D01*
X6740000Y-2800000D01*
X6900000Y-2960000D01*
X6900000Y-16160000D02*
X7060000Y-16000000D01*
X6900000Y-15840000D01*
X6740000Y-16000000D01*
X6900000Y-16160000D01*
X19800000Y-2960000D02*
X19960000Y-2800000D01*
X19800000Y-2640000D01*
X19640000Y-2800000D01*
X19800000Y-2960000D01*
X19800000Y-16160000D02*
X19960000Y-16000000D01*
X19800000Y-15840000D01*
X19640000Y-16000000D01*
X19800000Y-16160000D01*
X24000000Y-16160000D02*
X24160000Y-16000000D01*
X24000000Y-15840000D01*
X23840000Y-16000000D01*
X24000000Y-16160000D01*
X24700000Y-2960000D02*
X24860000Y-2800000D01*
X24700000Y-2640000D01*
X24540000Y-2800000D01*
X24700000Y-2960000D01*
D11*
X5247619Y-16820476D02*
X5247619Y-16620476D01*
X5295238Y-16620476D01*
X5323810Y-16630000D01*
X5342857Y-16649048D01*
X5352381Y-16668095D01*
X5361905Y-16706190D01*
X5361905Y-16734762D01*
X5352381Y-16772857D01*
X5342857Y-16791905D01*
X5323810Y-16810952D01*
X5295238Y-16820476D01*
X5247619Y-16820476D01*
X5447619Y-16820476D02*
X5447619Y-16687143D01*
X5447619Y-16725238D02*
X5457143Y-16706190D01*
X5466667Y-16696667D01*
X5485714Y-16687143D01*
X5504762Y-16687143D01*
X5571429Y-16820476D02*
X5571429Y-16687143D01*
X5571429Y-16620476D02*
X5561905Y-16630000D01*
X5571429Y-16639524D01*
X5580952Y-16630000D01*
X5571429Y-16620476D01*
X5571429Y-16639524D01*
X5695238Y-16820476D02*
X5676190Y-16810952D01*
X5666667Y-16791905D01*
X5666667Y-16620476D01*
X5800000Y-16820476D02*
X5780952Y-16810952D01*
X5771428Y-16791905D01*
X5771428Y-16620476D01*
X6028571Y-16820476D02*
X6028571Y-16620476D01*
X6095238Y-16763333D01*
X6161905Y-16620476D01*
X6161905Y-16820476D01*
X6342857Y-16820476D02*
X6342857Y-16715714D01*
X6333333Y-16696667D01*
X6314286Y-16687143D01*
X6276190Y-16687143D01*
X6257143Y-16696667D01*
X6342857Y-16810952D02*
X6323809Y-16820476D01*
X6276190Y-16820476D01*
X6257143Y-16810952D01*
X6247619Y-16791905D01*
X6247619Y-16772857D01*
X6257143Y-16753809D01*
X6276190Y-16744286D01*
X6323809Y-16744286D01*
X6342857Y-16734762D01*
X6438095Y-16687143D02*
X6438095Y-16887143D01*
X6438095Y-16696667D02*
X6457143Y-16687143D01*
X6495238Y-16687143D01*
X6514286Y-16696667D01*
X6523809Y-16706190D01*
X6533333Y-16725238D01*
X6533333Y-16782381D01*
X6523809Y-16801429D01*
X6514286Y-16810952D01*
X6495238Y-16820476D01*
X6457143Y-16820476D01*
X6438095Y-16810952D01*
X6619048Y-16801429D02*
X6628571Y-16810952D01*
X6619048Y-16820476D01*
X6609524Y-16810952D01*
X6619048Y-16801429D01*
X6619048Y-16820476D01*
X6619048Y-16696667D02*
X6628571Y-16706190D01*
X6619048Y-16715714D01*
X6609524Y-16706190D01*
X6619048Y-16696667D01*
X6619048Y-16715714D01*
D12*
X4950000Y-17130000D02*
X4990000Y-17170000D01*
X4990000Y-17130000D02*
X4950000Y-17170000D01*
D11*
X5285714Y-17040476D02*
X5304762Y-17040476D01*
X5323810Y-17050000D01*
X5333333Y-17059524D01*
X5342857Y-17078571D01*
X5352381Y-17116667D01*
X5352381Y-17164286D01*
X5342857Y-17202381D01*
X5333333Y-17221429D01*
X5323810Y-17230952D01*
X5304762Y-17240476D01*
X5285714Y-17240476D01*
X5266667Y-17230952D01*
X5257143Y-17221429D01*
X5247619Y-17202381D01*
X5238095Y-17164286D01*
X5238095Y-17116667D01*
X5247619Y-17078571D01*
X5257143Y-17059524D01*
X5266667Y-17050000D01*
X5285714Y-17040476D01*
X5438095Y-17221429D02*
X5447619Y-17230952D01*
X5438095Y-17240476D01*
X5428571Y-17230952D01*
X5438095Y-17221429D01*
X5438095Y-17240476D01*
X5619048Y-17107143D02*
X5619048Y-17240476D01*
X5571429Y-17030952D02*
X5523810Y-17173810D01*
X5647619Y-17173810D01*
X5761905Y-17040476D02*
X5780952Y-17040476D01*
X5800000Y-17050000D01*
X5809524Y-17059524D01*
X5819048Y-17078571D01*
X5828571Y-17116667D01*
X5828571Y-17164286D01*
X5819048Y-17202381D01*
X5809524Y-17221429D01*
X5800000Y-17230952D01*
X5780952Y-17240476D01*
X5761905Y-17240476D01*
X5742857Y-17230952D01*
X5733333Y-17221429D01*
X5723809Y-17202381D01*
X5714286Y-17164286D01*
X5714286Y-17116667D01*
X5723809Y-17078571D01*
X5733333Y-17059524D01*
X5742857Y-17050000D01*
X5761905Y-17040476D01*
X5952381Y-17040476D02*
X5971428Y-17040476D01*
X5990476Y-17050000D01*
X6000000Y-17059524D01*
X6009524Y-17078571D01*
X6019048Y-17116667D01*
X6019048Y-17164286D01*
X6009524Y-17202381D01*
X6000000Y-17221429D01*
X5990476Y-17230952D01*
X5971428Y-17240476D01*
X5952381Y-17240476D01*
X5933333Y-17230952D01*
X5923809Y-17221429D01*
X5914286Y-17202381D01*
X5904762Y-17164286D01*
X5904762Y-17116667D01*
X5914286Y-17078571D01*
X5923809Y-17059524D01*
X5933333Y-17050000D01*
X5952381Y-17040476D01*
X6104762Y-17240476D02*
X6104762Y-17107143D01*
X6104762Y-17126190D02*
X6114286Y-17116667D01*
X6133333Y-17107143D01*
X6161905Y-17107143D01*
X6180952Y-17116667D01*
X6190476Y-17135714D01*
X6190476Y-17240476D01*
X6190476Y-17135714D02*
X6200000Y-17116667D01*
X6219048Y-17107143D01*
X6247619Y-17107143D01*
X6266667Y-17116667D01*
X6276190Y-17135714D01*
X6276190Y-17240476D01*
X6371428Y-17240476D02*
X6371428Y-17107143D01*
X6371428Y-17126190D02*
X6380952Y-17116667D01*
X6400000Y-17107143D01*
X6428571Y-17107143D01*
X6447619Y-17116667D01*
X6457143Y-17135714D01*
X6457143Y-17240476D01*
X6457143Y-17135714D02*
X6466667Y-17116667D01*
X6485714Y-17107143D01*
X6514286Y-17107143D01*
X6533333Y-17116667D01*
X6542857Y-17135714D01*
X6542857Y-17240476D01*
X6933333Y-17030952D02*
X6761905Y-17288095D01*
X7190476Y-17040476D02*
X7209524Y-17040476D01*
X7228571Y-17050000D01*
X7238095Y-17059524D01*
X7247619Y-17078571D01*
X7257143Y-17116667D01*
X7257143Y-17164286D01*
X7247619Y-17202381D01*
X7238095Y-17221429D01*
X7228571Y-17230952D01*
X7209524Y-17240476D01*
X7190476Y-17240476D01*
X7171428Y-17230952D01*
X7161905Y-17221429D01*
X7152381Y-17202381D01*
X7142857Y-17164286D01*
X7142857Y-17116667D01*
X7152381Y-17078571D01*
X7161905Y-17059524D01*
X7171428Y-17050000D01*
X7190476Y-17040476D01*
X7342857Y-17221429D02*
X7352381Y-17230952D01*
X7342857Y-17240476D01*
X7333333Y-17230952D01*
X7342857Y-17221429D01*
X7342857Y-17240476D01*
X7476190Y-17040476D02*
X7495238Y-17040476D01*
X7514286Y-17050000D01*
X7523809Y-17059524D01*
X7533333Y-17078571D01*
X7542857Y-17116667D01*
X7542857Y-17164286D01*
X7533333Y-17202381D01*
X7523809Y-17221429D01*
X7514286Y-17230952D01*
X7495238Y-17240476D01*
X7476190Y-17240476D01*
X7457143Y-17230952D01*
X7447619Y-17221429D01*
X7438095Y-17202381D01*
X7428571Y-17164286D01*
X7428571Y-17116667D01*
X7438095Y-17078571D01*
X7447619Y-17059524D01*
X7457143Y-17050000D01*
X7476190Y-17040476D01*
X7733333Y-17240476D02*
X7619048Y-17240476D01*
X7676190Y-17240476D02*
X7676190Y-17040476D01*
X7657143Y-17069048D01*
X7638095Y-17088095D01*
X7619048Y-17097619D01*
X7914286Y-17040476D02*
X7819048Y-17040476D01*
X7809524Y-17135714D01*
X7819048Y-17126190D01*
X7838095Y-17116667D01*
X7885714Y-17116667D01*
X7904762Y-17126190D01*
X7914286Y-17135714D01*
X7923809Y-17154762D01*
X7923809Y-17202381D01*
X7914286Y-17221429D01*
X7904762Y-17230952D01*
X7885714Y-17240476D01*
X7838095Y-17240476D01*
X7819048Y-17230952D01*
X7809524Y-17221429D01*
X7990476Y-17040476D02*
X8123809Y-17040476D01*
X8038095Y-17240476D01*
X8190476Y-17040476D02*
X8190476Y-17078571D01*
X8266667Y-17040476D02*
X8266667Y-17078571D01*
X8561905Y-17316667D02*
X8552381Y-17307143D01*
X8533333Y-17278571D01*
X8523810Y-17259524D01*
X8514286Y-17230952D01*
X8504762Y-17183333D01*
X8504762Y-17145238D01*
X8514286Y-17097619D01*
X8523810Y-17069048D01*
X8533333Y-17050000D01*
X8552381Y-17021429D01*
X8561905Y-17011905D01*
X8742857Y-17240476D02*
X8628571Y-17240476D01*
X8685714Y-17240476D02*
X8685714Y-17040476D01*
X8666667Y-17069048D01*
X8647619Y-17088095D01*
X8628571Y-17097619D01*
X8933333Y-17240476D02*
X8819048Y-17240476D01*
X8876190Y-17240476D02*
X8876190Y-17040476D01*
X8857143Y-17069048D01*
X8838095Y-17088095D01*
X8819048Y-17097619D01*
X9000000Y-17040476D02*
X9123810Y-17040476D01*
X9057143Y-17116667D01*
X9085714Y-17116667D01*
X9104762Y-17126190D01*
X9114286Y-17135714D01*
X9123810Y-17154762D01*
X9123810Y-17202381D01*
X9114286Y-17221429D01*
X9104762Y-17230952D01*
X9085714Y-17240476D01*
X9028571Y-17240476D01*
X9009524Y-17230952D01*
X9000000Y-17221429D01*
X9190476Y-17040476D02*
X9323810Y-17040476D01*
X9238095Y-17240476D01*
X9552381Y-17240476D02*
X9552381Y-17040476D01*
X9638095Y-17240476D02*
X9638095Y-17135714D01*
X9628571Y-17116667D01*
X9609524Y-17107143D01*
X9580952Y-17107143D01*
X9561905Y-17116667D01*
X9552381Y-17126190D01*
X9761905Y-17240476D02*
X9742857Y-17230952D01*
X9733333Y-17221429D01*
X9723810Y-17202381D01*
X9723810Y-17145238D01*
X9733333Y-17126190D01*
X9742857Y-17116667D01*
X9761905Y-17107143D01*
X9790476Y-17107143D01*
X9809524Y-17116667D01*
X9819048Y-17126190D01*
X9828571Y-17145238D01*
X9828571Y-17202381D01*
X9819048Y-17221429D01*
X9809524Y-17230952D01*
X9790476Y-17240476D01*
X9761905Y-17240476D01*
X9942857Y-17240476D02*
X9923810Y-17230952D01*
X9914286Y-17211905D01*
X9914286Y-17040476D01*
X10095238Y-17230952D02*
X10076190Y-17240476D01*
X10038095Y-17240476D01*
X10019048Y-17230952D01*
X10009524Y-17211905D01*
X10009524Y-17135714D01*
X10019048Y-17116667D01*
X10038095Y-17107143D01*
X10076190Y-17107143D01*
X10095238Y-17116667D01*
X10104762Y-17135714D01*
X10104762Y-17154762D01*
X10009524Y-17173810D01*
X10180952Y-17230952D02*
X10200000Y-17240476D01*
X10238095Y-17240476D01*
X10257143Y-17230952D01*
X10266667Y-17211905D01*
X10266667Y-17202381D01*
X10257143Y-17183333D01*
X10238095Y-17173810D01*
X10209524Y-17173810D01*
X10190476Y-17164286D01*
X10180952Y-17145238D01*
X10180952Y-17135714D01*
X10190476Y-17116667D01*
X10209524Y-17107143D01*
X10238095Y-17107143D01*
X10257143Y-17116667D01*
X10333333Y-17316667D02*
X10342857Y-17307143D01*
X10361905Y-17278571D01*
X10371429Y-17259524D01*
X10380952Y-17230952D01*
X10390476Y-17183333D01*
X10390476Y-17145238D01*
X10380952Y-17097619D01*
X10371429Y-17069048D01*
X10361905Y-17050000D01*
X10342857Y-17021429D01*
X10333333Y-17011905D01*
D13*
X4990000Y-17414000D02*
G75*
G03*
X4990000Y-17414000I-25000J0D01*
G01*
D11*
X5285714Y-17304476D02*
X5304762Y-17304476D01*
X5323810Y-17314000D01*
X5333333Y-17323524D01*
X5342857Y-17342571D01*
X5352381Y-17380667D01*
X5352381Y-17428286D01*
X5342857Y-17466381D01*
X5333333Y-17485429D01*
X5323810Y-17494952D01*
X5304762Y-17504476D01*
X5285714Y-17504476D01*
X5266667Y-17494952D01*
X5257143Y-17485429D01*
X5247619Y-17466381D01*
X5238095Y-17428286D01*
X5238095Y-17380667D01*
X5247619Y-17342571D01*
X5257143Y-17323524D01*
X5266667Y-17314000D01*
X5285714Y-17304476D01*
X5438095Y-17485429D02*
X5447619Y-17494952D01*
X5438095Y-17504476D01*
X5428571Y-17494952D01*
X5438095Y-17485429D01*
X5438095Y-17504476D01*
X5628571Y-17304476D02*
X5533333Y-17304476D01*
X5523810Y-17399714D01*
X5533333Y-17390190D01*
X5552381Y-17380667D01*
X5600000Y-17380667D01*
X5619048Y-17390190D01*
X5628571Y-17399714D01*
X5638095Y-17418762D01*
X5638095Y-17466381D01*
X5628571Y-17485429D01*
X5619048Y-17494952D01*
X5600000Y-17504476D01*
X5552381Y-17504476D01*
X5533333Y-17494952D01*
X5523810Y-17485429D01*
X5761905Y-17304476D02*
X5780952Y-17304476D01*
X5800000Y-17314000D01*
X5809524Y-17323524D01*
X5819048Y-17342571D01*
X5828571Y-17380667D01*
X5828571Y-17428286D01*
X5819048Y-17466381D01*
X5809524Y-17485429D01*
X5800000Y-17494952D01*
X5780952Y-17504476D01*
X5761905Y-17504476D01*
X5742857Y-17494952D01*
X5733333Y-17485429D01*
X5723809Y-17466381D01*
X5714286Y-17428286D01*
X5714286Y-17380667D01*
X5723809Y-17342571D01*
X5733333Y-17323524D01*
X5742857Y-17314000D01*
X5761905Y-17304476D01*
X5952381Y-17304476D02*
X5971428Y-17304476D01*
X5990476Y-17314000D01*
X6000000Y-17323524D01*
X6009524Y-17342571D01*
X6019048Y-17380667D01*
X6019048Y-17428286D01*
X6009524Y-17466381D01*
X6000000Y-17485429D01*
X5990476Y-17494952D01*
X5971428Y-17504476D01*
X5952381Y-17504476D01*
X5933333Y-17494952D01*
X5923809Y-17485429D01*
X5914286Y-17466381D01*
X5904762Y-17428286D01*
X5904762Y-17380667D01*
X5914286Y-17342571D01*
X5923809Y-17323524D01*
X5933333Y-17314000D01*
X5952381Y-17304476D01*
X6104762Y-17504476D02*
X6104762Y-17371143D01*
X6104762Y-17390190D02*
X6114286Y-17380667D01*
X6133333Y-17371143D01*
X6161905Y-17371143D01*
X6180952Y-17380667D01*
X6190476Y-17399714D01*
X6190476Y-17504476D01*
X6190476Y-17399714D02*
X6200000Y-17380667D01*
X6219048Y-17371143D01*
X6247619Y-17371143D01*
X6266667Y-17380667D01*
X6276190Y-17399714D01*
X6276190Y-17504476D01*
X6371428Y-17504476D02*
X6371428Y-17371143D01*
X6371428Y-17390190D02*
X6380952Y-17380667D01*
X6400000Y-17371143D01*
X6428571Y-17371143D01*
X6447619Y-17380667D01*
X6457143Y-17399714D01*
X6457143Y-17504476D01*
X6457143Y-17399714D02*
X6466667Y-17380667D01*
X6485714Y-17371143D01*
X6514286Y-17371143D01*
X6533333Y-17380667D01*
X6542857Y-17399714D01*
X6542857Y-17504476D01*
X6933333Y-17294952D02*
X6761905Y-17552095D01*
X7190476Y-17304476D02*
X7209524Y-17304476D01*
X7228571Y-17314000D01*
X7238095Y-17323524D01*
X7247619Y-17342571D01*
X7257143Y-17380667D01*
X7257143Y-17428286D01*
X7247619Y-17466381D01*
X7238095Y-17485429D01*
X7228571Y-17494952D01*
X7209524Y-17504476D01*
X7190476Y-17504476D01*
X7171428Y-17494952D01*
X7161905Y-17485429D01*
X7152381Y-17466381D01*
X7142857Y-17428286D01*
X7142857Y-17380667D01*
X7152381Y-17342571D01*
X7161905Y-17323524D01*
X7171428Y-17314000D01*
X7190476Y-17304476D01*
X7342857Y-17485429D02*
X7352381Y-17494952D01*
X7342857Y-17504476D01*
X7333333Y-17494952D01*
X7342857Y-17485429D01*
X7342857Y-17504476D01*
X7476190Y-17304476D02*
X7495238Y-17304476D01*
X7514286Y-17314000D01*
X7523809Y-17323524D01*
X7533333Y-17342571D01*
X7542857Y-17380667D01*
X7542857Y-17428286D01*
X7533333Y-17466381D01*
X7523809Y-17485429D01*
X7514286Y-17494952D01*
X7495238Y-17504476D01*
X7476190Y-17504476D01*
X7457143Y-17494952D01*
X7447619Y-17485429D01*
X7438095Y-17466381D01*
X7428571Y-17428286D01*
X7428571Y-17380667D01*
X7438095Y-17342571D01*
X7447619Y-17323524D01*
X7457143Y-17314000D01*
X7476190Y-17304476D01*
X7733333Y-17504476D02*
X7619048Y-17504476D01*
X7676190Y-17504476D02*
X7676190Y-17304476D01*
X7657143Y-17333048D01*
X7638095Y-17352095D01*
X7619048Y-17361619D01*
X7828571Y-17504476D02*
X7866667Y-17504476D01*
X7885714Y-17494952D01*
X7895238Y-17485429D01*
X7914286Y-17456857D01*
X7923809Y-17418762D01*
X7923809Y-17342571D01*
X7914286Y-17323524D01*
X7904762Y-17314000D01*
X7885714Y-17304476D01*
X7847619Y-17304476D01*
X7828571Y-17314000D01*
X7819048Y-17323524D01*
X7809524Y-17342571D01*
X7809524Y-17390190D01*
X7819048Y-17409238D01*
X7828571Y-17418762D01*
X7847619Y-17428286D01*
X7885714Y-17428286D01*
X7904762Y-17418762D01*
X7914286Y-17409238D01*
X7923809Y-17390190D01*
X7990476Y-17304476D02*
X8123809Y-17304476D01*
X8038095Y-17504476D01*
X8190476Y-17304476D02*
X8190476Y-17342571D01*
X8266667Y-17304476D02*
X8266667Y-17342571D01*
X8561905Y-17580667D02*
X8552381Y-17571143D01*
X8533333Y-17542571D01*
X8523810Y-17523524D01*
X8514286Y-17494952D01*
X8504762Y-17447333D01*
X8504762Y-17409238D01*
X8514286Y-17361619D01*
X8523810Y-17333048D01*
X8533333Y-17314000D01*
X8552381Y-17285429D01*
X8561905Y-17275905D01*
X8723810Y-17371143D02*
X8723810Y-17504476D01*
X8676190Y-17294952D02*
X8628571Y-17437810D01*
X8752381Y-17437810D01*
X8857143Y-17390190D02*
X8838095Y-17380667D01*
X8828571Y-17371143D01*
X8819048Y-17352095D01*
X8819048Y-17342571D01*
X8828571Y-17323524D01*
X8838095Y-17314000D01*
X8857143Y-17304476D01*
X8895238Y-17304476D01*
X8914286Y-17314000D01*
X8923810Y-17323524D01*
X8933333Y-17342571D01*
X8933333Y-17352095D01*
X8923810Y-17371143D01*
X8914286Y-17380667D01*
X8895238Y-17390190D01*
X8857143Y-17390190D01*
X8838095Y-17399714D01*
X8828571Y-17409238D01*
X8819048Y-17428286D01*
X8819048Y-17466381D01*
X8828571Y-17485429D01*
X8838095Y-17494952D01*
X8857143Y-17504476D01*
X8895238Y-17504476D01*
X8914286Y-17494952D01*
X8923810Y-17485429D01*
X8933333Y-17466381D01*
X8933333Y-17428286D01*
X8923810Y-17409238D01*
X8914286Y-17399714D01*
X8895238Y-17390190D01*
X9171429Y-17504476D02*
X9171429Y-17304476D01*
X9257143Y-17504476D02*
X9257143Y-17399714D01*
X9247619Y-17380667D01*
X9228571Y-17371143D01*
X9200000Y-17371143D01*
X9180952Y-17380667D01*
X9171429Y-17390190D01*
X9380952Y-17504476D02*
X9361905Y-17494952D01*
X9352381Y-17485429D01*
X9342857Y-17466381D01*
X9342857Y-17409238D01*
X9352381Y-17390190D01*
X9361905Y-17380667D01*
X9380952Y-17371143D01*
X9409524Y-17371143D01*
X9428571Y-17380667D01*
X9438095Y-17390190D01*
X9447619Y-17409238D01*
X9447619Y-17466381D01*
X9438095Y-17485429D01*
X9428571Y-17494952D01*
X9409524Y-17504476D01*
X9380952Y-17504476D01*
X9561905Y-17504476D02*
X9542857Y-17494952D01*
X9533333Y-17475905D01*
X9533333Y-17304476D01*
X9714286Y-17494952D02*
X9695238Y-17504476D01*
X9657143Y-17504476D01*
X9638095Y-17494952D01*
X9628571Y-17475905D01*
X9628571Y-17399714D01*
X9638095Y-17380667D01*
X9657143Y-17371143D01*
X9695238Y-17371143D01*
X9714286Y-17380667D01*
X9723810Y-17399714D01*
X9723810Y-17418762D01*
X9628571Y-17437810D01*
X9800000Y-17494952D02*
X9819048Y-17504476D01*
X9857143Y-17504476D01*
X9876190Y-17494952D01*
X9885714Y-17475905D01*
X9885714Y-17466381D01*
X9876190Y-17447333D01*
X9857143Y-17437810D01*
X9828571Y-17437810D01*
X9809524Y-17428286D01*
X9800000Y-17409238D01*
X9800000Y-17399714D01*
X9809524Y-17380667D01*
X9828571Y-17371143D01*
X9857143Y-17371143D01*
X9876190Y-17380667D01*
X9952381Y-17580667D02*
X9961905Y-17571143D01*
X9980952Y-17542571D01*
X9990476Y-17523524D01*
X10000000Y-17494952D01*
X10009524Y-17447333D01*
X10009524Y-17409238D01*
X10000000Y-17361619D01*
X9990476Y-17333048D01*
X9980952Y-17314000D01*
X9961905Y-17285429D01*
X9952381Y-17275905D01*
D14*
X4940000Y-17628000D02*
X4940000Y-17728000D01*
X4890000Y-17678000D02*
X4990000Y-17678000D01*
D11*
X5352381Y-17768476D02*
X5238095Y-17768476D01*
X5295238Y-17768476D02*
X5295238Y-17568476D01*
X5276190Y-17597048D01*
X5257143Y-17616095D01*
X5238095Y-17625619D01*
X5438095Y-17749429D02*
X5447619Y-17758952D01*
X5438095Y-17768476D01*
X5428571Y-17758952D01*
X5438095Y-17749429D01*
X5438095Y-17768476D01*
X5571429Y-17568476D02*
X5590476Y-17568476D01*
X5609524Y-17578000D01*
X5619048Y-17587524D01*
X5628571Y-17606571D01*
X5638095Y-17644667D01*
X5638095Y-17692286D01*
X5628571Y-17730381D01*
X5619048Y-17749429D01*
X5609524Y-17758952D01*
X5590476Y-17768476D01*
X5571429Y-17768476D01*
X5552381Y-17758952D01*
X5542857Y-17749429D01*
X5533333Y-17730381D01*
X5523810Y-17692286D01*
X5523810Y-17644667D01*
X5533333Y-17606571D01*
X5542857Y-17587524D01*
X5552381Y-17578000D01*
X5571429Y-17568476D01*
X5761905Y-17568476D02*
X5780952Y-17568476D01*
X5800000Y-17578000D01*
X5809524Y-17587524D01*
X5819048Y-17606571D01*
X5828571Y-17644667D01*
X5828571Y-17692286D01*
X5819048Y-17730381D01*
X5809524Y-17749429D01*
X5800000Y-17758952D01*
X5780952Y-17768476D01*
X5761905Y-17768476D01*
X5742857Y-17758952D01*
X5733333Y-17749429D01*
X5723809Y-17730381D01*
X5714286Y-17692286D01*
X5714286Y-17644667D01*
X5723809Y-17606571D01*
X5733333Y-17587524D01*
X5742857Y-17578000D01*
X5761905Y-17568476D01*
X5952381Y-17568476D02*
X5971428Y-17568476D01*
X5990476Y-17578000D01*
X6000000Y-17587524D01*
X6009524Y-17606571D01*
X6019048Y-17644667D01*
X6019048Y-17692286D01*
X6009524Y-17730381D01*
X6000000Y-17749429D01*
X5990476Y-17758952D01*
X5971428Y-17768476D01*
X5952381Y-17768476D01*
X5933333Y-17758952D01*
X5923809Y-17749429D01*
X5914286Y-17730381D01*
X5904762Y-17692286D01*
X5904762Y-17644667D01*
X5914286Y-17606571D01*
X5923809Y-17587524D01*
X5933333Y-17578000D01*
X5952381Y-17568476D01*
X6104762Y-17768476D02*
X6104762Y-17635143D01*
X6104762Y-17654190D02*
X6114286Y-17644667D01*
X6133333Y-17635143D01*
X6161905Y-17635143D01*
X6180952Y-17644667D01*
X6190476Y-17663714D01*
X6190476Y-17768476D01*
X6190476Y-17663714D02*
X6200000Y-17644667D01*
X6219048Y-17635143D01*
X6247619Y-17635143D01*
X6266667Y-17644667D01*
X6276190Y-17663714D01*
X6276190Y-17768476D01*
X6371428Y-17768476D02*
X6371428Y-17635143D01*
X6371428Y-17654190D02*
X6380952Y-17644667D01*
X6400000Y-17635143D01*
X6428571Y-17635143D01*
X6447619Y-17644667D01*
X6457143Y-17663714D01*
X6457143Y-17768476D01*
X6457143Y-17663714D02*
X6466667Y-17644667D01*
X6485714Y-17635143D01*
X6514286Y-17635143D01*
X6533333Y-17644667D01*
X6542857Y-17663714D01*
X6542857Y-17768476D01*
X6933333Y-17558952D02*
X6761905Y-17816095D01*
X7190476Y-17568476D02*
X7209524Y-17568476D01*
X7228571Y-17578000D01*
X7238095Y-17587524D01*
X7247619Y-17606571D01*
X7257143Y-17644667D01*
X7257143Y-17692286D01*
X7247619Y-17730381D01*
X7238095Y-17749429D01*
X7228571Y-17758952D01*
X7209524Y-17768476D01*
X7190476Y-17768476D01*
X7171428Y-17758952D01*
X7161905Y-17749429D01*
X7152381Y-17730381D01*
X7142857Y-17692286D01*
X7142857Y-17644667D01*
X7152381Y-17606571D01*
X7161905Y-17587524D01*
X7171428Y-17578000D01*
X7190476Y-17568476D01*
X7342857Y-17749429D02*
X7352381Y-17758952D01*
X7342857Y-17768476D01*
X7333333Y-17758952D01*
X7342857Y-17749429D01*
X7342857Y-17768476D01*
X7476190Y-17568476D02*
X7495238Y-17568476D01*
X7514286Y-17578000D01*
X7523809Y-17587524D01*
X7533333Y-17606571D01*
X7542857Y-17644667D01*
X7542857Y-17692286D01*
X7533333Y-17730381D01*
X7523809Y-17749429D01*
X7514286Y-17758952D01*
X7495238Y-17768476D01*
X7476190Y-17768476D01*
X7457143Y-17758952D01*
X7447619Y-17749429D01*
X7438095Y-17730381D01*
X7428571Y-17692286D01*
X7428571Y-17644667D01*
X7438095Y-17606571D01*
X7447619Y-17587524D01*
X7457143Y-17578000D01*
X7476190Y-17568476D01*
X7609524Y-17568476D02*
X7733333Y-17568476D01*
X7666667Y-17644667D01*
X7695238Y-17644667D01*
X7714286Y-17654190D01*
X7723809Y-17663714D01*
X7733333Y-17682762D01*
X7733333Y-17730381D01*
X7723809Y-17749429D01*
X7714286Y-17758952D01*
X7695238Y-17768476D01*
X7638095Y-17768476D01*
X7619048Y-17758952D01*
X7609524Y-17749429D01*
X7828571Y-17768476D02*
X7866667Y-17768476D01*
X7885714Y-17758952D01*
X7895238Y-17749429D01*
X7914286Y-17720857D01*
X7923809Y-17682762D01*
X7923809Y-17606571D01*
X7914286Y-17587524D01*
X7904762Y-17578000D01*
X7885714Y-17568476D01*
X7847619Y-17568476D01*
X7828571Y-17578000D01*
X7819048Y-17587524D01*
X7809524Y-17606571D01*
X7809524Y-17654190D01*
X7819048Y-17673238D01*
X7828571Y-17682762D01*
X7847619Y-17692286D01*
X7885714Y-17692286D01*
X7904762Y-17682762D01*
X7914286Y-17673238D01*
X7923809Y-17654190D01*
X8095238Y-17635143D02*
X8095238Y-17768476D01*
X8047619Y-17558952D02*
X8000000Y-17701810D01*
X8123809Y-17701810D01*
X8190476Y-17568476D02*
X8190476Y-17606571D01*
X8266667Y-17568476D02*
X8266667Y-17606571D01*
X8561905Y-17844667D02*
X8552381Y-17835143D01*
X8533333Y-17806571D01*
X8523810Y-17787524D01*
X8514286Y-17758952D01*
X8504762Y-17711333D01*
X8504762Y-17673238D01*
X8514286Y-17625619D01*
X8523810Y-17597048D01*
X8533333Y-17578000D01*
X8552381Y-17549429D01*
X8561905Y-17539905D01*
X8742857Y-17768476D02*
X8628571Y-17768476D01*
X8685714Y-17768476D02*
X8685714Y-17568476D01*
X8666667Y-17597048D01*
X8647619Y-17616095D01*
X8628571Y-17625619D01*
X8914286Y-17635143D02*
X8914286Y-17768476D01*
X8866667Y-17558952D02*
X8819048Y-17701810D01*
X8942857Y-17701810D01*
X9057143Y-17568476D02*
X9076190Y-17568476D01*
X9095238Y-17578000D01*
X9104762Y-17587524D01*
X9114286Y-17606571D01*
X9123810Y-17644667D01*
X9123810Y-17692286D01*
X9114286Y-17730381D01*
X9104762Y-17749429D01*
X9095238Y-17758952D01*
X9076190Y-17768476D01*
X9057143Y-17768476D01*
X9038095Y-17758952D01*
X9028571Y-17749429D01*
X9019048Y-17730381D01*
X9009524Y-17692286D01*
X9009524Y-17644667D01*
X9019048Y-17606571D01*
X9028571Y-17587524D01*
X9038095Y-17578000D01*
X9057143Y-17568476D01*
X9361905Y-17768476D02*
X9361905Y-17568476D01*
X9447619Y-17768476D02*
X9447619Y-17663714D01*
X9438095Y-17644667D01*
X9419048Y-17635143D01*
X9390476Y-17635143D01*
X9371429Y-17644667D01*
X9361905Y-17654190D01*
X9571429Y-17768476D02*
X9552381Y-17758952D01*
X9542857Y-17749429D01*
X9533333Y-17730381D01*
X9533333Y-17673238D01*
X9542857Y-17654190D01*
X9552381Y-17644667D01*
X9571429Y-17635143D01*
X9600000Y-17635143D01*
X9619048Y-17644667D01*
X9628571Y-17654190D01*
X9638095Y-17673238D01*
X9638095Y-17730381D01*
X9628571Y-17749429D01*
X9619048Y-17758952D01*
X9600000Y-17768476D01*
X9571429Y-17768476D01*
X9752381Y-17768476D02*
X9733333Y-17758952D01*
X9723810Y-17739905D01*
X9723810Y-17568476D01*
X9904762Y-17758952D02*
X9885714Y-17768476D01*
X9847619Y-17768476D01*
X9828571Y-17758952D01*
X9819048Y-17739905D01*
X9819048Y-17663714D01*
X9828571Y-17644667D01*
X9847619Y-17635143D01*
X9885714Y-17635143D01*
X9904762Y-17644667D01*
X9914286Y-17663714D01*
X9914286Y-17682762D01*
X9819048Y-17701810D01*
X9990476Y-17758952D02*
X10009524Y-17768476D01*
X10047619Y-17768476D01*
X10066667Y-17758952D01*
X10076190Y-17739905D01*
X10076190Y-17730381D01*
X10066667Y-17711333D01*
X10047619Y-17701810D01*
X10019048Y-17701810D01*
X10000000Y-17692286D01*
X9990476Y-17673238D01*
X9990476Y-17663714D01*
X10000000Y-17644667D01*
X10019048Y-17635143D01*
X10047619Y-17635143D01*
X10066667Y-17644667D01*
X10142857Y-17844667D02*
X10152381Y-17835143D01*
X10171429Y-17806571D01*
X10180952Y-17787524D01*
X10190476Y-17758952D01*
X10200000Y-17711333D01*
X10200000Y-17673238D01*
X10190476Y-17625619D01*
X10180952Y-17597048D01*
X10171429Y-17578000D01*
X10152381Y-17549429D01*
X10142857Y-17539905D01*
D15*
X4968034Y-17995034D02*
X4968034Y-17888967D01*
X4861967Y-17888967D01*
X4861967Y-17995034D01*
X4968034Y-17995034D01*
D11*
X5352381Y-18032476D02*
X5238095Y-18032476D01*
X5295238Y-18032476D02*
X5295238Y-17832476D01*
X5276190Y-17861048D01*
X5257143Y-17880095D01*
X5238095Y-17889619D01*
X5438095Y-18013429D02*
X5447619Y-18022952D01*
X5438095Y-18032476D01*
X5428571Y-18022952D01*
X5438095Y-18013429D01*
X5438095Y-18032476D01*
X5628571Y-17832476D02*
X5533333Y-17832476D01*
X5523810Y-17927714D01*
X5533333Y-17918190D01*
X5552381Y-17908667D01*
X5600000Y-17908667D01*
X5619048Y-17918190D01*
X5628571Y-17927714D01*
X5638095Y-17946762D01*
X5638095Y-17994381D01*
X5628571Y-18013429D01*
X5619048Y-18022952D01*
X5600000Y-18032476D01*
X5552381Y-18032476D01*
X5533333Y-18022952D01*
X5523810Y-18013429D01*
X5761905Y-17832476D02*
X5780952Y-17832476D01*
X5800000Y-17842000D01*
X5809524Y-17851524D01*
X5819048Y-17870571D01*
X5828571Y-17908667D01*
X5828571Y-17956286D01*
X5819048Y-17994381D01*
X5809524Y-18013429D01*
X5800000Y-18022952D01*
X5780952Y-18032476D01*
X5761905Y-18032476D01*
X5742857Y-18022952D01*
X5733333Y-18013429D01*
X5723809Y-17994381D01*
X5714286Y-17956286D01*
X5714286Y-17908667D01*
X5723809Y-17870571D01*
X5733333Y-17851524D01*
X5742857Y-17842000D01*
X5761905Y-17832476D01*
X5952381Y-17832476D02*
X5971428Y-17832476D01*
X5990476Y-17842000D01*
X6000000Y-17851524D01*
X6009524Y-17870571D01*
X6019048Y-17908667D01*
X6019048Y-17956286D01*
X6009524Y-17994381D01*
X6000000Y-18013429D01*
X5990476Y-18022952D01*
X5971428Y-18032476D01*
X5952381Y-18032476D01*
X5933333Y-18022952D01*
X5923809Y-18013429D01*
X5914286Y-17994381D01*
X5904762Y-17956286D01*
X5904762Y-17908667D01*
X5914286Y-17870571D01*
X5923809Y-17851524D01*
X5933333Y-17842000D01*
X5952381Y-17832476D01*
X6104762Y-18032476D02*
X6104762Y-17899143D01*
X6104762Y-17918190D02*
X6114286Y-17908667D01*
X6133333Y-17899143D01*
X6161905Y-17899143D01*
X6180952Y-17908667D01*
X6190476Y-17927714D01*
X6190476Y-18032476D01*
X6190476Y-17927714D02*
X6200000Y-17908667D01*
X6219048Y-17899143D01*
X6247619Y-17899143D01*
X6266667Y-17908667D01*
X6276190Y-17927714D01*
X6276190Y-18032476D01*
X6371428Y-18032476D02*
X6371428Y-17899143D01*
X6371428Y-17918190D02*
X6380952Y-17908667D01*
X6400000Y-17899143D01*
X6428571Y-17899143D01*
X6447619Y-17908667D01*
X6457143Y-17927714D01*
X6457143Y-18032476D01*
X6457143Y-17927714D02*
X6466667Y-17908667D01*
X6485714Y-17899143D01*
X6514286Y-17899143D01*
X6533333Y-17908667D01*
X6542857Y-17927714D01*
X6542857Y-18032476D01*
X6933333Y-17822952D02*
X6761905Y-18080095D01*
X7190476Y-17832476D02*
X7209524Y-17832476D01*
X7228571Y-17842000D01*
X7238095Y-17851524D01*
X7247619Y-17870571D01*
X7257143Y-17908667D01*
X7257143Y-17956286D01*
X7247619Y-17994381D01*
X7238095Y-18013429D01*
X7228571Y-18022952D01*
X7209524Y-18032476D01*
X7190476Y-18032476D01*
X7171428Y-18022952D01*
X7161905Y-18013429D01*
X7152381Y-17994381D01*
X7142857Y-17956286D01*
X7142857Y-17908667D01*
X7152381Y-17870571D01*
X7161905Y-17851524D01*
X7171428Y-17842000D01*
X7190476Y-17832476D01*
X7342857Y-18013429D02*
X7352381Y-18022952D01*
X7342857Y-18032476D01*
X7333333Y-18022952D01*
X7342857Y-18013429D01*
X7342857Y-18032476D01*
X7476190Y-17832476D02*
X7495238Y-17832476D01*
X7514286Y-17842000D01*
X7523809Y-17851524D01*
X7533333Y-17870571D01*
X7542857Y-17908667D01*
X7542857Y-17956286D01*
X7533333Y-17994381D01*
X7523809Y-18013429D01*
X7514286Y-18022952D01*
X7495238Y-18032476D01*
X7476190Y-18032476D01*
X7457143Y-18022952D01*
X7447619Y-18013429D01*
X7438095Y-17994381D01*
X7428571Y-17956286D01*
X7428571Y-17908667D01*
X7438095Y-17870571D01*
X7447619Y-17851524D01*
X7457143Y-17842000D01*
X7476190Y-17832476D01*
X7723809Y-17832476D02*
X7628571Y-17832476D01*
X7619048Y-17927714D01*
X7628571Y-17918190D01*
X7647619Y-17908667D01*
X7695238Y-17908667D01*
X7714286Y-17918190D01*
X7723809Y-17927714D01*
X7733333Y-17946762D01*
X7733333Y-17994381D01*
X7723809Y-18013429D01*
X7714286Y-18022952D01*
X7695238Y-18032476D01*
X7647619Y-18032476D01*
X7628571Y-18022952D01*
X7619048Y-18013429D01*
X7828571Y-18032476D02*
X7866667Y-18032476D01*
X7885714Y-18022952D01*
X7895238Y-18013429D01*
X7914286Y-17984857D01*
X7923809Y-17946762D01*
X7923809Y-17870571D01*
X7914286Y-17851524D01*
X7904762Y-17842000D01*
X7885714Y-17832476D01*
X7847619Y-17832476D01*
X7828571Y-17842000D01*
X7819048Y-17851524D01*
X7809524Y-17870571D01*
X7809524Y-17918190D01*
X7819048Y-17937238D01*
X7828571Y-17946762D01*
X7847619Y-17956286D01*
X7885714Y-17956286D01*
X7904762Y-17946762D01*
X7914286Y-17937238D01*
X7923809Y-17918190D01*
X8114286Y-18032476D02*
X8000000Y-18032476D01*
X8057143Y-18032476D02*
X8057143Y-17832476D01*
X8038095Y-17861048D01*
X8019048Y-17880095D01*
X8000000Y-17889619D01*
X8190476Y-17832476D02*
X8190476Y-17870571D01*
X8266667Y-17832476D02*
X8266667Y-17870571D01*
X8561905Y-18108667D02*
X8552381Y-18099143D01*
X8533333Y-18070571D01*
X8523810Y-18051524D01*
X8514286Y-18022952D01*
X8504762Y-17975333D01*
X8504762Y-17937238D01*
X8514286Y-17889619D01*
X8523810Y-17861048D01*
X8533333Y-17842000D01*
X8552381Y-17813429D01*
X8561905Y-17803905D01*
X8733333Y-17832476D02*
X8638095Y-17832476D01*
X8628571Y-17927714D01*
X8638095Y-17918190D01*
X8657143Y-17908667D01*
X8704762Y-17908667D01*
X8723810Y-17918190D01*
X8733333Y-17927714D01*
X8742857Y-17946762D01*
X8742857Y-17994381D01*
X8733333Y-18013429D01*
X8723810Y-18022952D01*
X8704762Y-18032476D01*
X8657143Y-18032476D01*
X8638095Y-18022952D01*
X8628571Y-18013429D01*
X8866667Y-17832476D02*
X8885714Y-17832476D01*
X8904762Y-17842000D01*
X8914286Y-17851524D01*
X8923810Y-17870571D01*
X8933333Y-17908667D01*
X8933333Y-17956286D01*
X8923810Y-17994381D01*
X8914286Y-18013429D01*
X8904762Y-18022952D01*
X8885714Y-18032476D01*
X8866667Y-18032476D01*
X8847619Y-18022952D01*
X8838095Y-18013429D01*
X8828571Y-17994381D01*
X8819048Y-17956286D01*
X8819048Y-17908667D01*
X8828571Y-17870571D01*
X8838095Y-17851524D01*
X8847619Y-17842000D01*
X8866667Y-17832476D01*
X9171429Y-18032476D02*
X9171429Y-17832476D01*
X9257143Y-18032476D02*
X9257143Y-17927714D01*
X9247619Y-17908667D01*
X9228571Y-17899143D01*
X9200000Y-17899143D01*
X9180952Y-17908667D01*
X9171429Y-17918190D01*
X9380952Y-18032476D02*
X9361905Y-18022952D01*
X9352381Y-18013429D01*
X9342857Y-17994381D01*
X9342857Y-17937238D01*
X9352381Y-17918190D01*
X9361905Y-17908667D01*
X9380952Y-17899143D01*
X9409524Y-17899143D01*
X9428571Y-17908667D01*
X9438095Y-17918190D01*
X9447619Y-17937238D01*
X9447619Y-17994381D01*
X9438095Y-18013429D01*
X9428571Y-18022952D01*
X9409524Y-18032476D01*
X9380952Y-18032476D01*
X9561905Y-18032476D02*
X9542857Y-18022952D01*
X9533333Y-18003905D01*
X9533333Y-17832476D01*
X9714286Y-18022952D02*
X9695238Y-18032476D01*
X9657143Y-18032476D01*
X9638095Y-18022952D01*
X9628571Y-18003905D01*
X9628571Y-17927714D01*
X9638095Y-17908667D01*
X9657143Y-17899143D01*
X9695238Y-17899143D01*
X9714286Y-17908667D01*
X9723810Y-17927714D01*
X9723810Y-17946762D01*
X9628571Y-17965810D01*
X9800000Y-18022952D02*
X9819048Y-18032476D01*
X9857143Y-18032476D01*
X9876190Y-18022952D01*
X9885714Y-18003905D01*
X9885714Y-17994381D01*
X9876190Y-17975333D01*
X9857143Y-17965810D01*
X9828571Y-17965810D01*
X9809524Y-17956286D01*
X9800000Y-17937238D01*
X9800000Y-17927714D01*
X9809524Y-17908667D01*
X9828571Y-17899143D01*
X9857143Y-17899143D01*
X9876190Y-17908667D01*
X9952381Y-18108667D02*
X9961905Y-18099143D01*
X9980952Y-18070571D01*
X9990476Y-18051524D01*
X10000000Y-18022952D01*
X10009524Y-17975333D01*
X10009524Y-17937238D01*
X10000000Y-17889619D01*
X9990476Y-17861048D01*
X9980952Y-17842000D01*
X9961905Y-17813429D01*
X9952381Y-17803905D01*
X4890000Y-18312000D02*
X4990000Y-18212000D01*
X4890000Y-18112000D01*
X4790000Y-18212000D01*
X4890000Y-18312000D01*
X5228571Y-18102476D02*
X5352381Y-18102476D01*
X5285714Y-18178667D01*
X5314286Y-18178667D01*
X5333333Y-18188190D01*
X5342857Y-18197714D01*
X5352381Y-18216762D01*
X5352381Y-18264381D01*
X5342857Y-18283429D01*
X5333333Y-18292952D01*
X5314286Y-18302476D01*
X5257143Y-18302476D01*
X5238095Y-18292952D01*
X5228571Y-18283429D01*
X5438095Y-18283429D02*
X5447619Y-18292952D01*
X5438095Y-18302476D01*
X5428571Y-18292952D01*
X5438095Y-18283429D01*
X5438095Y-18302476D01*
X5523810Y-18121524D02*
X5533333Y-18112000D01*
X5552381Y-18102476D01*
X5600000Y-18102476D01*
X5619048Y-18112000D01*
X5628571Y-18121524D01*
X5638095Y-18140571D01*
X5638095Y-18159619D01*
X5628571Y-18188190D01*
X5514286Y-18302476D01*
X5638095Y-18302476D01*
X5761905Y-18102476D02*
X5780952Y-18102476D01*
X5800000Y-18112000D01*
X5809524Y-18121524D01*
X5819048Y-18140571D01*
X5828571Y-18178667D01*
X5828571Y-18226286D01*
X5819048Y-18264381D01*
X5809524Y-18283429D01*
X5800000Y-18292952D01*
X5780952Y-18302476D01*
X5761905Y-18302476D01*
X5742857Y-18292952D01*
X5733333Y-18283429D01*
X5723809Y-18264381D01*
X5714286Y-18226286D01*
X5714286Y-18178667D01*
X5723809Y-18140571D01*
X5733333Y-18121524D01*
X5742857Y-18112000D01*
X5761905Y-18102476D01*
X5952381Y-18102476D02*
X5971428Y-18102476D01*
X5990476Y-18112000D01*
X6000000Y-18121524D01*
X6009524Y-18140571D01*
X6019048Y-18178667D01*
X6019048Y-18226286D01*
X6009524Y-18264381D01*
X6000000Y-18283429D01*
X5990476Y-18292952D01*
X5971428Y-18302476D01*
X5952381Y-18302476D01*
X5933333Y-18292952D01*
X5923809Y-18283429D01*
X5914286Y-18264381D01*
X5904762Y-18226286D01*
X5904762Y-18178667D01*
X5914286Y-18140571D01*
X5923809Y-18121524D01*
X5933333Y-18112000D01*
X5952381Y-18102476D01*
X6104762Y-18302476D02*
X6104762Y-18169143D01*
X6104762Y-18188190D02*
X6114286Y-18178667D01*
X6133333Y-18169143D01*
X6161905Y-18169143D01*
X6180952Y-18178667D01*
X6190476Y-18197714D01*
X6190476Y-18302476D01*
X6190476Y-18197714D02*
X6200000Y-18178667D01*
X6219048Y-18169143D01*
X6247619Y-18169143D01*
X6266667Y-18178667D01*
X6276190Y-18197714D01*
X6276190Y-18302476D01*
X6371428Y-18302476D02*
X6371428Y-18169143D01*
X6371428Y-18188190D02*
X6380952Y-18178667D01*
X6400000Y-18169143D01*
X6428571Y-18169143D01*
X6447619Y-18178667D01*
X6457143Y-18197714D01*
X6457143Y-18302476D01*
X6457143Y-18197714D02*
X6466667Y-18178667D01*
X6485714Y-18169143D01*
X6514286Y-18169143D01*
X6533333Y-18178667D01*
X6542857Y-18197714D01*
X6542857Y-18302476D01*
X6933333Y-18092952D02*
X6761905Y-18350095D01*
X7190476Y-18102476D02*
X7209524Y-18102476D01*
X7228571Y-18112000D01*
X7238095Y-18121524D01*
X7247619Y-18140571D01*
X7257143Y-18178667D01*
X7257143Y-18226286D01*
X7247619Y-18264381D01*
X7238095Y-18283429D01*
X7228571Y-18292952D01*
X7209524Y-18302476D01*
X7190476Y-18302476D01*
X7171428Y-18292952D01*
X7161905Y-18283429D01*
X7152381Y-18264381D01*
X7142857Y-18226286D01*
X7142857Y-18178667D01*
X7152381Y-18140571D01*
X7161905Y-18121524D01*
X7171428Y-18112000D01*
X7190476Y-18102476D01*
X7342857Y-18283429D02*
X7352381Y-18292952D01*
X7342857Y-18302476D01*
X7333333Y-18292952D01*
X7342857Y-18283429D01*
X7342857Y-18302476D01*
X7542857Y-18302476D02*
X7428571Y-18302476D01*
X7485714Y-18302476D02*
X7485714Y-18102476D01*
X7466667Y-18131048D01*
X7447619Y-18150095D01*
X7428571Y-18159619D01*
X7619048Y-18121524D02*
X7628571Y-18112000D01*
X7647619Y-18102476D01*
X7695238Y-18102476D01*
X7714286Y-18112000D01*
X7723809Y-18121524D01*
X7733333Y-18140571D01*
X7733333Y-18159619D01*
X7723809Y-18188190D01*
X7609524Y-18302476D01*
X7733333Y-18302476D01*
X7904762Y-18102476D02*
X7866667Y-18102476D01*
X7847619Y-18112000D01*
X7838095Y-18121524D01*
X7819048Y-18150095D01*
X7809524Y-18188190D01*
X7809524Y-18264381D01*
X7819048Y-18283429D01*
X7828571Y-18292952D01*
X7847619Y-18302476D01*
X7885714Y-18302476D01*
X7904762Y-18292952D01*
X7914286Y-18283429D01*
X7923809Y-18264381D01*
X7923809Y-18216762D01*
X7914286Y-18197714D01*
X7904762Y-18188190D01*
X7885714Y-18178667D01*
X7847619Y-18178667D01*
X7828571Y-18188190D01*
X7819048Y-18197714D01*
X7809524Y-18216762D01*
X8047619Y-18102476D02*
X8066667Y-18102476D01*
X8085714Y-18112000D01*
X8095238Y-18121524D01*
X8104762Y-18140571D01*
X8114286Y-18178667D01*
X8114286Y-18226286D01*
X8104762Y-18264381D01*
X8095238Y-18283429D01*
X8085714Y-18292952D01*
X8066667Y-18302476D01*
X8047619Y-18302476D01*
X8028571Y-18292952D01*
X8019048Y-18283429D01*
X8009524Y-18264381D01*
X8000000Y-18226286D01*
X8000000Y-18178667D01*
X8009524Y-18140571D01*
X8019048Y-18121524D01*
X8028571Y-18112000D01*
X8047619Y-18102476D01*
X8190476Y-18102476D02*
X8190476Y-18140571D01*
X8266667Y-18102476D02*
X8266667Y-18140571D01*
X8561905Y-18378667D02*
X8552381Y-18369143D01*
X8533333Y-18340571D01*
X8523810Y-18321524D01*
X8514286Y-18292952D01*
X8504762Y-18245333D01*
X8504762Y-18207238D01*
X8514286Y-18159619D01*
X8523810Y-18131048D01*
X8533333Y-18112000D01*
X8552381Y-18083429D01*
X8561905Y-18073905D01*
X8723810Y-18102476D02*
X8685714Y-18102476D01*
X8666667Y-18112000D01*
X8657143Y-18121524D01*
X8638095Y-18150095D01*
X8628571Y-18188190D01*
X8628571Y-18264381D01*
X8638095Y-18283429D01*
X8647619Y-18292952D01*
X8666667Y-18302476D01*
X8704762Y-18302476D01*
X8723810Y-18292952D01*
X8733333Y-18283429D01*
X8742857Y-18264381D01*
X8742857Y-18216762D01*
X8733333Y-18197714D01*
X8723810Y-18188190D01*
X8704762Y-18178667D01*
X8666667Y-18178667D01*
X8647619Y-18188190D01*
X8638095Y-18197714D01*
X8628571Y-18216762D01*
X8980952Y-18302476D02*
X8980952Y-18102476D01*
X9066667Y-18302476D02*
X9066667Y-18197714D01*
X9057143Y-18178667D01*
X9038095Y-18169143D01*
X9009524Y-18169143D01*
X8990476Y-18178667D01*
X8980952Y-18188190D01*
X9190476Y-18302476D02*
X9171429Y-18292952D01*
X9161905Y-18283429D01*
X9152381Y-18264381D01*
X9152381Y-18207238D01*
X9161905Y-18188190D01*
X9171429Y-18178667D01*
X9190476Y-18169143D01*
X9219048Y-18169143D01*
X9238095Y-18178667D01*
X9247619Y-18188190D01*
X9257143Y-18207238D01*
X9257143Y-18264381D01*
X9247619Y-18283429D01*
X9238095Y-18292952D01*
X9219048Y-18302476D01*
X9190476Y-18302476D01*
X9371429Y-18302476D02*
X9352381Y-18292952D01*
X9342857Y-18273905D01*
X9342857Y-18102476D01*
X9523810Y-18292952D02*
X9504762Y-18302476D01*
X9466667Y-18302476D01*
X9447619Y-18292952D01*
X9438095Y-18273905D01*
X9438095Y-18197714D01*
X9447619Y-18178667D01*
X9466667Y-18169143D01*
X9504762Y-18169143D01*
X9523810Y-18178667D01*
X9533333Y-18197714D01*
X9533333Y-18216762D01*
X9438095Y-18235810D01*
X9609524Y-18292952D02*
X9628571Y-18302476D01*
X9666667Y-18302476D01*
X9685714Y-18292952D01*
X9695238Y-18273905D01*
X9695238Y-18264381D01*
X9685714Y-18245333D01*
X9666667Y-18235810D01*
X9638095Y-18235810D01*
X9619048Y-18226286D01*
X9609524Y-18207238D01*
X9609524Y-18197714D01*
X9619048Y-18178667D01*
X9638095Y-18169143D01*
X9666667Y-18169143D01*
X9685714Y-18178667D01*
X9761905Y-18378667D02*
X9771429Y-18369143D01*
X9790476Y-18340571D01*
X9800000Y-18321524D01*
X9809524Y-18292952D01*
X9819048Y-18245333D01*
X9819048Y-18207238D01*
X9809524Y-18159619D01*
X9800000Y-18131048D01*
X9790476Y-18112000D01*
X9771429Y-18083429D01*
X9761905Y-18073905D01*
M02*
